<svg xmlns="http://www.w3.org/2000/svg" width="60" height="60" viewBox="0 0 60 60">
  <g id="img15" transform="translate(-517.711 -3973)">
    <rect id="Rectangle_456510" data-name="Rectangle 456510" width="60" height="60" rx="5" transform="translate(517.711 3973)" fill="#ff9e74"/>
    <g id="Group_1184528" data-name="Group 1184528" transform="translate(523.667 3981.401)">
      <path id="Path_1032423" data-name="Path 1032423" d="M190.446,214.417a.638.638,0,1,0,0,1.277H200.5a.638.638,0,0,0,0-1.277Z" transform="translate(-171.397 -196.168)" fill="#2d6250"/>
      <path id="Path_1032424" data-name="Path 1032424" d="M45.187,37.021,40.3,32.136V9.388a.638.638,0,0,0-1.277,0v22.14a1.5,1.5,0,0,0-.3.041L37.5,30.345a6.651,6.651,0,0,0-11.525-6.628H19.049a.638.638,0,0,0,0,1.277H25.36a6.7,6.7,0,0,0-.095,4.192H19.049a.638.638,0,0,0,0,1.277h6.759a6.657,6.657,0,0,0,8.928,2.653l1.222,1.222a1.488,1.488,0,0,0,.393,1.4l2.675,2.675v.765H17.364v-11.2A1.155,1.155,0,0,0,16.21,26.82h-1V2.626a2.61,2.61,0,0,0-.374-1.349H37.676a1.35,1.35,0,0,1,1.349,1.349V6.41a.638.638,0,1,0,1.277,0V2.626A2.629,2.629,0,0,0,37.676,0H12.583A2.628,2.628,0,0,0,9.958,2.626v9.438a1.065,1.065,0,0,0,1.064,1.064h2.91V26.82H3.62a1.155,1.155,0,0,0-1.154,1.154v9.739a.638.638,0,1,0,1.277,0V28.1H16.088V42.3H3.743V40.692a.638.638,0,0,0-1.277,0v1.73A1.155,1.155,0,0,0,3.62,43.576H16.21a1.155,1.155,0,0,0,1.154-1.154V40.456H39.238a1.065,1.065,0,0,0,1.029-.8L41.409,40.8a1.491,1.491,0,0,0,2.106,0l1.671-1.671a1.491,1.491,0,0,0,0-2.106ZM11.235,11.851V2.626a1.349,1.349,0,1,1,2.7,0v9.225ZM27.821,31.035a5.375,5.375,0,1,1,3.8,1.574A5.382,5.382,0,0,1,27.821,31.035Zm8.962.4.884.885-.963.963-.885-.885A6.713,6.713,0,0,0,36.783,31.432Zm7.5,6.793L42.613,39.9a.213.213,0,0,1-.3,0l-5.059-5.059a.213.213,0,0,1,0-.3l1.671-1.671a.213.213,0,0,1,.3,0l5.059,5.059A.213.213,0,0,1,44.284,38.224Z" fill="#2d6250"/>
      <path id="Path_1032425" data-name="Path 1032425" d="M302.854,271.882a4.2,4.2,0,1,0,0,5.941A4.205,4.205,0,0,0,302.854,271.882Zm-.9,5.038a2.923,2.923,0,1,1,0-4.135A2.905,2.905,0,0,1,301.951,276.92Z" transform="translate(-268.262 -247.619)" fill="#2d6250"/>
      <path id="Path_1032426" data-name="Path 1032426" d="M206.582,71.275a.638.638,0,0,0,0-1.277H204.9V62.493a.638.638,0,1,0-1.277,0V70h-1.6V67.346a.638.638,0,0,0-1.277,0V70h-1.6V63.707a.638.638,0,1,0-1.277,0V70h-1.6V66.133a.638.638,0,1,0-1.277,0V70h-1.6V68.56a.638.638,0,1,0-1.277,0V70h-1.683a.638.638,0,1,0,0,1.277h16.136Z" transform="translate(-171.397 -56.591)" fill="#2d6250"/>
      <path id="Path_1032427" data-name="Path 1032427" d="M202.665,421.226a.638.638,0,1,0,0-1.277h-3.386a.638.638,0,1,0,0,1.277Z" transform="translate(-179.479 -384.208)" fill="#2d6250"/>
      <path id="Path_1032428" data-name="Path 1032428" d="M334.8,421.226a.638.638,0,0,0,0-1.277h-3.386a.638.638,0,0,0,0,1.277Z" transform="translate(-300.371 -384.208)" fill="#2d6250"/>
      <path id="Path_1032429" data-name="Path 1032429" d="M40.022,351.24h-7.9a1.065,1.065,0,0,1-1.064-1.064v-1.659a1.065,1.065,0,0,1,1.064-1.064h7.9a1.065,1.065,0,0,1,1.064,1.064v1.659A1.065,1.065,0,0,1,40.022,351.24Zm-7.692-1.277h7.479V348.73H32.331Zm7.692-1.233h0Z" transform="translate(-26.155 -317.882)" fill="#2d6250"/>
      <g id="Group_1184527" data-name="Group 1184527" transform="translate(5.025 34.507)">
        <g id="Group_1184524" data-name="Group 1184524">
          <path id="Path_1032430" data-name="Path 1032430" d="M33.954,406.723h-.788a.638.638,0,1,1,0-1.277h.788a.638.638,0,1,1,0,1.277Z" transform="translate(-32.527 -405.446)" fill="#2d6250"/>
          <path id="Path_1032431" data-name="Path 1032431" d="M79.286,406.723H78.5a.638.638,0,1,1,0-1.277h.788a.638.638,0,1,1,0,1.277Z" transform="translate(-74.001 -405.446)" fill="#2d6250"/>
          <path id="Path_1032432" data-name="Path 1032432" d="M124.618,406.723h-.788a.638.638,0,1,1,0-1.277h.788a.638.638,0,1,1,0,1.277Z" transform="translate(-115.475 -405.446)" fill="#2d6250"/>
        </g>
        <g id="Group_1184525" data-name="Group 1184525" transform="translate(0 2.336)">
          <path id="Path_1032433" data-name="Path 1032433" d="M33.954,434.169h-.788a.638.638,0,0,1,0-1.277h.788a.638.638,0,1,1,0,1.277Z" transform="translate(-32.527 -432.892)" fill="#2d6250"/>
          <path id="Path_1032434" data-name="Path 1032434" d="M79.286,434.169H78.5a.638.638,0,1,1,0-1.277h.788a.638.638,0,0,1,0,1.277Z" transform="translate(-74.001 -432.892)" fill="#2d6250"/>
          <path id="Path_1032435" data-name="Path 1032435" d="M124.618,434.169h-.788a.638.638,0,0,1,0-1.277h.788a.638.638,0,0,1,0,1.277Z" transform="translate(-115.475 -432.892)" fill="#2d6250"/>
        </g>
        <g id="Group_1184526" data-name="Group 1184526" transform="translate(0 4.672)">
          <path id="Path_1032436" data-name="Path 1032436" d="M33.954,461.615h-.788a.638.638,0,0,1,0-1.277h.788a.638.638,0,1,1,0,1.277Z" transform="translate(-32.527 -460.338)" fill="#2d6250"/>
          <path id="Path_1032437" data-name="Path 1032437" d="M79.286,461.615H78.5a.638.638,0,1,1,0-1.277h.788a.638.638,0,0,1,0,1.277Z" transform="translate(-74.001 -460.338)" fill="#2d6250"/>
          <path id="Path_1032438" data-name="Path 1032438" d="M124.618,461.615h-.788a.638.638,0,0,1,0-1.277h.788a.638.638,0,0,1,0,1.277Z" transform="translate(-115.475 -460.338)" fill="#2d6250"/>
        </g>
      </g>
    </g>
  </g>
</svg>
