<svg xmlns="http://www.w3.org/2000/svg" xmlns:xlink="http://www.w3.org/1999/xlink" width="292" height="139" viewBox="0 0 292 139">
  <defs>
    <clipPath id="clip-path">
      <rect id="Rectangle_459418" data-name="Rectangle 459418" width="218.107" height="138.403" fill="none"/>
    </clipPath>
    <clipPath id="clip-path-3">
      <path id="Path_1032455" data-name="Path 1032455" d="M774.367,395.358a14.419,14.419,0,1,0,4.482-.717,14.435,14.435,0,0,0-4.482.717" transform="translate(-764.408 -394.641)" fill="none"/>
    </clipPath>
    <clipPath id="clip-path-5">
      <path id="Path_1032459" data-name="Path 1032459" d="M548.328,131.957a11.893,11.893,0,1,0,3.7-.591,11.906,11.906,0,0,0-3.7.591" transform="translate(-540.114 -131.366)" fill="none"/>
    </clipPath>
    <clipPath id="clip-path-7">
      <rect id="Rectangle_459416" data-name="Rectangle 459416" width="13.841" height="12.211" fill="none"/>
    </clipPath>
    <clipPath id="clip-path-8">
      <path id="Path_1032463" data-name="Path 1032463" d="M782.445,4.213a6.1,6.1,0,1,1-7.7-3.908,6.1,6.1,0,0,1,7.7,3.908" transform="translate(-770.537 -0.002)" fill="none"/>
    </clipPath>
  </defs>
  <g id="img21" transform="translate(-1121.686 -3341)">
    <g id="Group_1184547" data-name="Group 1184547">
      <rect id="Rectangle_456597" data-name="Rectangle 456597" width="292" height="139" transform="translate(1121.686 3341)" fill="#ffece3"/>
      <g id="Group_1184546" data-name="Group 1184546" transform="translate(1158.631 3341.597)">
        <g id="Group_1184545" data-name="Group 1184545" clip-path="url(#clip-path)">
          <rect id="Rectangle_459370" data-name="Rectangle 459370" width="218.107" height="0.741" transform="translate(0 137.662)" fill="#776863"/>
          <g id="Group_1184531" data-name="Group 1184531" transform="translate(0 0)">
            <g id="Group_1184530" data-name="Group 1184530" clip-path="url(#clip-path)">
              <path id="Path_1032447" data-name="Path 1032447" d="M251.622,761.7V694.721a1.859,1.859,0,0,1,1.858-1.858l7.472,0a1.342,1.342,0,0,0,1.173-.69l1-2.687a1.342,1.342,0,0,1,1.173-.69h16.98a1.342,1.342,0,0,1,1.173.69l1,2.687a1.342,1.342,0,0,0,1.173.69h76.725a1.858,1.858,0,0,1,1.858,1.858V761.7a.475.475,0,0,1-.475.475H252.1a.475.475,0,0,1-.475-.475" transform="translate(-229.304 -627.699)" fill="#b27477"/>
              <rect id="Rectangle_459371" data-name="Rectangle 459371" width="108.76" height="61.18" transform="translate(23.733 66.841)" fill="#fff"/>
              <path id="Path_1032448" data-name="Path 1032448" d="M363.212,797.569v63.367a1.859,1.859,0,0,1-1.858,1.859H253.481a1.858,1.858,0,0,1-1.858-1.859V797.569a1.859,1.859,0,0,1,1.858-1.859H361.354a1.859,1.859,0,0,1,1.858,1.859" transform="translate(-229.305 -725.134)" fill="#fac883"/>
              <rect id="Rectangle_459372" data-name="Rectangle 459372" width="83.341" height="111.158" transform="translate(73.481 26.503)" fill="#2b2332"/>
              <path id="Path_1032449" data-name="Path 1032449" d="M882.633,454.541h60.845l12.883-13.1V353H882.633V454.541" transform="translate(-804.345 -321.686)" fill="#fff"/>
              <path id="Path_1032450" data-name="Path 1032450" d="M1568.618,1365.486,1581.5,1352.6h-12.883Z" transform="translate(-1429.485 -1232.631)" fill="#e4cec3"/>
              <rect id="Rectangle_459373" data-name="Rectangle 459373" width="45.575" height="1.948" transform="translate(95.619 47.441)" fill="#e1cdb2"/>
              <rect id="Rectangle_459374" data-name="Rectangle 459374" width="52.086" height="1.948" transform="translate(89.108 52.996)" fill="#e1cdb2"/>
              <rect id="Rectangle_459375" data-name="Rectangle 459375" width="45.575" height="1.948" transform="translate(89.108 58.551)" fill="#e1cdb2"/>
              <rect id="Rectangle_459376" data-name="Rectangle 459376" width="52.086" height="1.948" transform="translate(89.108 64.106)" fill="#e1cdb2"/>
              <rect id="Rectangle_459377" data-name="Rectangle 459377" width="52.086" height="1.948" transform="translate(89.108 69.661)" fill="#e1cdb2"/>
              <rect id="Rectangle_459378" data-name="Rectangle 459378" width="26.043" height="1.948" transform="translate(89.108 75.217)" fill="#e1cdb2"/>
              <rect id="Rectangle_459379" data-name="Rectangle 459379" width="45.575" height="1.948" transform="translate(95.619 80.772)" fill="#e1cdb2"/>
              <rect id="Rectangle_459380" data-name="Rectangle 459380" width="26.043" height="1.948" transform="translate(89.108 86.327)" fill="#e1cdb2"/>
              <rect id="Rectangle_459381" data-name="Rectangle 459381" width="45.575" height="1.948" transform="translate(89.108 91.882)" fill="#e1cdb2"/>
              <rect id="Rectangle_459382" data-name="Rectangle 459382" width="32.537" height="1.948" transform="translate(89.108 97.438)" fill="#e1cdb2"/>
              <rect id="Rectangle_459383" data-name="Rectangle 459383" width="26.043" height="1.948" transform="translate(89.108 108.548)" fill="#e1cdb2"/>
              <rect id="Rectangle_459384" data-name="Rectangle 459384" width="13.022" height="1.948" transform="translate(89.108 114.103)" fill="#e1cdb2"/>
              <path id="Path_1032451" data-name="Path 1032451" d="M1124.616,243.173a6.494,6.494,0,0,1,6.494,6.494v6.494h-36.043v-6.494a6.494,6.494,0,0,1,6.494-6.494Z" transform="translate(-997.937 -221.604)" fill="#b1bfca"/>
              <path id="Path_1032452" data-name="Path 1032452" d="M1225.034,176.453a6.494,6.494,0,1,0,6.494-6.494,6.494,6.494,0,0,0-6.494,6.494m4.513,0a1.98,1.98,0,1,1,1.98,1.98,1.98,1.98,0,0,1-1.98-1.98" transform="translate(-1116.377 -154.884)" fill="#b1bfca"/>
              <rect id="Rectangle_459385" data-name="Rectangle 459385" width="48.786" height="37.753" transform="translate(146.861 99.908)" fill="#715f77"/>
              <rect id="Rectangle_459386" data-name="Rectangle 459386" width="48.786" height="20.604" transform="translate(146.861 79.304)" fill="#2b2332"/>
              <rect id="Rectangle_459387" data-name="Rectangle 459387" width="40.445" height="7.696" transform="translate(151.031 89.606)" fill="#715f77"/>
              <rect id="Rectangle_459388" data-name="Rectangle 459388" width="5.904" height="2.939" transform="translate(185.572 102.298)" fill="#ff965f"/>
              <rect id="Rectangle_459389" data-name="Rectangle 459389" width="5.904" height="3.944" transform="translate(185.572 108.823)" fill="#fff"/>
              <rect id="Rectangle_459390" data-name="Rectangle 459390" width="5.904" height="3.944" transform="translate(185.572 114.254)" fill="#fff"/>
              <rect id="Rectangle_459391" data-name="Rectangle 459391" width="5.904" height="3.944" transform="translate(185.572 119.685)" fill="#fff"/>
              <rect id="Rectangle_459392" data-name="Rectangle 459392" width="5.904" height="3.944" transform="translate(185.572 125.116)" fill="#fff"/>
              <rect id="Rectangle_459393" data-name="Rectangle 459393" width="5.904" height="3.944" transform="translate(185.572 130.547)" fill="#fff"/>
              <rect id="Rectangle_459394" data-name="Rectangle 459394" width="5.904" height="2.939" transform="translate(177.527 102.298)" fill="#ff965f"/>
              <rect id="Rectangle_459395" data-name="Rectangle 459395" width="5.904" height="3.944" transform="translate(177.527 108.823)" fill="#fff"/>
              <rect id="Rectangle_459396" data-name="Rectangle 459396" width="5.904" height="3.944" transform="translate(177.527 114.254)" fill="#fff"/>
              <rect id="Rectangle_459397" data-name="Rectangle 459397" width="5.904" height="3.944" transform="translate(177.527 119.685)" fill="#fff"/>
              <rect id="Rectangle_459398" data-name="Rectangle 459398" width="5.904" height="3.944" transform="translate(177.527 125.116)" fill="#fff"/>
              <rect id="Rectangle_459399" data-name="Rectangle 459399" width="5.904" height="3.944" transform="translate(177.527 130.547)" fill="#fff"/>
              <rect id="Rectangle_459400" data-name="Rectangle 459400" width="5.904" height="2.939" transform="translate(169.482 102.298)" fill="#ff965f"/>
              <rect id="Rectangle_459401" data-name="Rectangle 459401" width="5.904" height="3.944" transform="translate(169.482 108.823)" fill="#fff"/>
              <rect id="Rectangle_459402" data-name="Rectangle 459402" width="5.904" height="3.944" transform="translate(169.482 114.254)" fill="#fff"/>
              <rect id="Rectangle_459403" data-name="Rectangle 459403" width="5.904" height="3.944" transform="translate(169.482 119.685)" fill="#fff"/>
              <rect id="Rectangle_459404" data-name="Rectangle 459404" width="5.904" height="3.944" transform="translate(169.482 125.116)" fill="#fff"/>
              <rect id="Rectangle_459405" data-name="Rectangle 459405" width="5.904" height="3.944" transform="translate(169.482 130.547)" fill="#fff"/>
              <rect id="Rectangle_459406" data-name="Rectangle 459406" width="5.904" height="3.944" transform="translate(151.031 108.823)" fill="#ad7171"/>
              <rect id="Rectangle_459407" data-name="Rectangle 459407" width="5.904" height="3.944" transform="translate(151.031 114.254)" fill="#ad7171"/>
              <rect id="Rectangle_459408" data-name="Rectangle 459408" width="5.904" height="3.944" transform="translate(151.031 119.685)" fill="#ad7171"/>
              <rect id="Rectangle_459409" data-name="Rectangle 459409" width="5.904" height="3.944" transform="translate(151.031 125.116)" fill="#ad7171"/>
              <rect id="Rectangle_459410" data-name="Rectangle 459410" width="5.904" height="3.944" transform="translate(151.031 130.547)" fill="#ad7171"/>
              <rect id="Rectangle_459411" data-name="Rectangle 459411" width="5.904" height="3.944" transform="translate(159.142 108.823)" fill="#ad7171"/>
              <rect id="Rectangle_459412" data-name="Rectangle 459412" width="5.904" height="3.944" transform="translate(159.142 114.254)" fill="#ad7171"/>
              <line id="Line_3307" data-name="Line 3307" x2="4.622" transform="translate(151.031 84.098)" fill="none" stroke="#fff" stroke-miterlimit="10" stroke-width="8.335"/>
              <rect id="Rectangle_459413" data-name="Rectangle 459413" width="5.904" height="14.806" transform="translate(159.142 119.685)" fill="#ad7171"/>
              <path id="Path_1032453" data-name="Path 1032453" d="M1706.108,512.586h-43.474V503.74a4.844,4.844,0,0,1,4.844-4.844h38.63a4.844,4.844,0,0,1,4.844,4.844v4a4.844,4.844,0,0,1-4.844,4.844" transform="translate(-1515.162 -454.645)" fill="#b6d3fd"/>
              <path id="Path_1032454" data-name="Path 1032454" d="M792.568,404.6a14.434,14.434,0,1,1-18.2-9.243,14.435,14.435,0,0,1,18.2,9.243" transform="translate(-696.607 -359.638)" fill="#e68864"/>
            </g>
          </g>
          <g id="Group_1184533" data-name="Group 1184533" transform="translate(67.801 35.004)">
            <g id="Group_1184532" data-name="Group 1184532" clip-path="url(#clip-path-3)">
              <line id="Line_3308" data-name="Line 3308" x2="31.966" transform="translate(-0.714 1.735)" fill="none" stroke="#312936" stroke-miterlimit="10" stroke-width="5.618"/>
              <line id="Line_3309" data-name="Line 3309" x2="31.966" transform="translate(-0.714 4.045)" fill="none" stroke="#312936" stroke-miterlimit="10" stroke-width="5.618"/>
              <line id="Line_3310" data-name="Line 3310" x2="31.966" transform="translate(-0.714 6.354)" fill="none" stroke="#312936" stroke-miterlimit="10" stroke-width="5.618"/>
              <line id="Line_3311" data-name="Line 3311" x2="31.966" transform="translate(-0.714 8.664)" fill="none" stroke="#312936" stroke-miterlimit="10" stroke-width="5.618"/>
              <line id="Line_3312" data-name="Line 3312" x2="31.966" transform="translate(-0.714 10.974)" fill="none" stroke="#312936" stroke-miterlimit="10" stroke-width="5.618"/>
              <line id="Line_3313" data-name="Line 3313" x2="31.966" transform="translate(-0.714 13.284)" fill="none" stroke="#312936" stroke-miterlimit="10" stroke-width="5.618"/>
              <line id="Line_3314" data-name="Line 3314" x2="31.966" transform="translate(-0.714 15.593)" fill="none" stroke="#312936" stroke-miterlimit="10" stroke-width="5.618"/>
              <line id="Line_3315" data-name="Line 3315" x2="31.966" transform="translate(-0.714 17.903)" fill="none" stroke="#312936" stroke-miterlimit="10" stroke-width="5.618"/>
              <line id="Line_3316" data-name="Line 3316" x2="31.966" transform="translate(-0.714 20.213)" fill="none" stroke="#312936" stroke-miterlimit="10" stroke-width="5.618"/>
              <line id="Line_3317" data-name="Line 3317" x2="31.966" transform="translate(-0.714 22.523)" fill="none" stroke="#312936" stroke-miterlimit="10" stroke-width="5.618"/>
              <line id="Line_3318" data-name="Line 3318" x2="31.966" transform="translate(-0.714 24.832)" fill="none" stroke="#312936" stroke-miterlimit="10" stroke-width="5.618"/>
              <line id="Line_3319" data-name="Line 3319" x2="31.966" transform="translate(-0.714 27.142)" fill="none" stroke="#312936" stroke-miterlimit="10" stroke-width="5.618"/>
            </g>
          </g>
          <g id="Group_1184535" data-name="Group 1184535" transform="translate(0 0)">
            <g id="Group_1184534" data-name="Group 1184534" clip-path="url(#clip-path)">
              <path id="Path_1032456" data-name="Path 1032456" d="M828.007,404.6a14.434,14.434,0,1,1-18.2-9.243,14.435,14.435,0,0,1,18.2,9.243" transform="translate(-728.903 -359.638)" fill="#edc679"/>
              <path id="Path_1032467" data-name="Path 1032467" d="M12.313,0A12.314,12.314,0,1,1,0,12.314,12.314,12.314,0,0,1,12.313,0Z" transform="matrix(1, -0.027, 0.027, 1, 72.766, 37.465)" fill="none" stroke="#312936" stroke-width="2"/>
              <path id="Path_1032457" data-name="Path 1032457" d="M906.84,486.2v-1.47a5.256,5.256,0,0,1-3.438-1.189,3.96,3.96,0,0,1-1.233-3.049h3.183a2.56,2.56,0,0,0,.389,1.418,1.3,1.3,0,0,0,1.038.458l.009-2.854a7.851,7.851,0,0,1-3.4-1.423,3.014,3.014,0,0,1-1.047-2.4,3.281,3.281,0,0,1,1.25-2.677,5.363,5.363,0,0,1,3.369-1.059v-1.116h1.384v1.1a4.837,4.837,0,0,1,3.157,1.042,3.68,3.68,0,0,1,1.2,2.763h-3.027a1.905,1.905,0,0,0-.385-1.159,1.273,1.273,0,0,0-.982-.415v2.62a8.334,8.334,0,0,1,3.541,1.526,3.2,3.2,0,0,1,1.043,2.513,3.429,3.429,0,0,1-1.18,2.806,6.073,6.073,0,0,1-3.551,1.111V486.2Zm.207-9.712v-2.352h-.069a1.856,1.856,0,0,0-1.129.285,1.017,1.017,0,0,0-.376.865.861.861,0,0,0,.35.713,3.454,3.454,0,0,0,1.224.489m1.03,5.881a2.223,2.223,0,0,0,1.258-.294,1.085,1.085,0,0,0,.065-1.673,3.844,3.844,0,0,0-1.323-.567Z" transform="translate(-822.15 -429.077)" fill="#312936"/>
              <path id="Path_1032458" data-name="Path 1032458" d="M563.34,139.581a11.906,11.906,0,1,1-15.012-7.624,11.906,11.906,0,0,1,15.012,7.624" transform="translate(-492.207 -119.714)" fill="#e68864"/>
            </g>
          </g>
          <g id="Group_1184537" data-name="Group 1184537" transform="translate(47.907 11.652)">
            <g id="Group_1184536" data-name="Group 1184536" clip-path="url(#clip-path-5)">
              <line id="Line_3320" data-name="Line 3320" x2="26.366" transform="translate(-0.589 1.431)" fill="none" stroke="#312936" stroke-miterlimit="10" stroke-width="4.634"/>
              <line id="Line_3321" data-name="Line 3321" x2="26.366" transform="translate(-0.589 3.336)" fill="none" stroke="#312936" stroke-miterlimit="10" stroke-width="4.634"/>
              <line id="Line_3322" data-name="Line 3322" x2="26.366" transform="translate(-0.589 5.241)" fill="none" stroke="#312936" stroke-miterlimit="10" stroke-width="4.634"/>
              <line id="Line_3323" data-name="Line 3323" x2="26.366" transform="translate(-0.589 7.146)" fill="none" stroke="#312936" stroke-miterlimit="10" stroke-width="4.634"/>
              <line id="Line_3324" data-name="Line 3324" x2="26.366" transform="translate(-0.589 9.051)" fill="none" stroke="#312936" stroke-miterlimit="10" stroke-width="4.634"/>
              <line id="Line_3325" data-name="Line 3325" x2="26.366" transform="translate(-0.589 10.957)" fill="none" stroke="#312936" stroke-miterlimit="10" stroke-width="4.634"/>
              <line id="Line_3326" data-name="Line 3326" x2="26.366" transform="translate(-0.589 12.862)" fill="none" stroke="#312936" stroke-miterlimit="10" stroke-width="4.634"/>
              <line id="Line_3327" data-name="Line 3327" x2="26.366" transform="translate(-0.589 14.767)" fill="none" stroke="#312936" stroke-miterlimit="10" stroke-width="4.634"/>
              <line id="Line_3328" data-name="Line 3328" x2="26.366" transform="translate(-0.589 16.672)" fill="none" stroke="#312936" stroke-miterlimit="10" stroke-width="4.634"/>
              <line id="Line_3329" data-name="Line 3329" x2="26.366" transform="translate(-0.589 18.577)" fill="none" stroke="#312936" stroke-miterlimit="10" stroke-width="4.634"/>
              <line id="Line_3330" data-name="Line 3330" x2="26.366" transform="translate(-0.589 20.482)" fill="none" stroke="#312936" stroke-miterlimit="10" stroke-width="4.634"/>
              <line id="Line_3331" data-name="Line 3331" x2="26.366" transform="translate(-0.589 22.387)" fill="none" stroke="#312936" stroke-miterlimit="10" stroke-width="4.634"/>
            </g>
          </g>
          <g id="Group_1184544" data-name="Group 1184544" transform="translate(0 0)">
            <g id="Group_1184543" data-name="Group 1184543" clip-path="url(#clip-path)">
              <path id="Path_1032460" data-name="Path 1032460" d="M592.571,139.581a11.906,11.906,0,1,1-15.012-7.624,11.906,11.906,0,0,1,15.012,7.624" transform="translate(-518.845 -119.714)" fill="#edc679"/>
              <ellipse id="Ellipse_13794" data-name="Ellipse 13794" cx="10.157" cy="10.156" rx="10.157" ry="10.156" transform="matrix(0.003, -1, 1, 0.003, 52.24, 33.685)" fill="none" stroke="#312936" stroke-miterlimit="10" stroke-width="2"/>
              <path id="Path_1032461" data-name="Path 1032461" d="M657.6,206.885v-1.213a4.334,4.334,0,0,1-2.835-.981,3.265,3.265,0,0,1-1.017-2.515h2.625a2.111,2.111,0,0,0,.321,1.17,1.072,1.072,0,0,0,.856.378l.007-2.354a6.476,6.476,0,0,1-2.8-1.173,2.486,2.486,0,0,1-.863-1.98,2.707,2.707,0,0,1,1.031-2.208,4.424,4.424,0,0,1,2.779-.874v-.92h1.141v.906a3.989,3.989,0,0,1,2.6.859,3.035,3.035,0,0,1,.992,2.279h-2.5a1.572,1.572,0,0,0-.318-.956,1.05,1.05,0,0,0-.81-.342v2.161a6.87,6.87,0,0,1,2.921,1.259,2.637,2.637,0,0,1,.86,2.072,2.829,2.829,0,0,1-.974,2.315,5.009,5.009,0,0,1-2.929.916v1.2Zm.171-8.011v-1.94h-.057a1.53,1.53,0,0,0-.931.235.839.839,0,0,0-.31.713.71.71,0,0,0,.289.588,2.847,2.847,0,0,0,1.009.4m.849,4.851a1.833,1.833,0,0,0,1.038-.243.895.895,0,0,0,.053-1.38,3.166,3.166,0,0,0-1.091-.467Z" transform="translate(-595.758 -176.99)" fill="#312936"/>
              <g id="Group_1184542" data-name="Group 1184542" transform="translate(68.043 0)" opacity="0.42">
                <g id="Group_1184541" data-name="Group 1184541">
                  <g id="Group_1184540" data-name="Group 1184540" clip-path="url(#clip-path-7)">
                    <path id="Path_1032462" data-name="Path 1032462" d="M782.446,4.213A6.1,6.1,0,1,1,774.75.3a6.1,6.1,0,0,1,7.7,3.908" transform="translate(-770.236 -0.002)" fill="#a0a0a0"/>
                    <g id="Group_1184539" data-name="Group 1184539" transform="translate(0.302 0)">
                      <g id="Group_1184538" data-name="Group 1184538" clip-path="url(#clip-path-8)">
                        <line id="Line_3332" data-name="Line 3332" x2="13.517" transform="translate(-0.302 0.734)" fill="none"/>
                        <line id="Line_3333" data-name="Line 3333" x2="13.517" transform="translate(-0.302 1.71)" fill="none"/>
                        <line id="Line_3334" data-name="Line 3334" x2="13.517" transform="translate(-0.302 2.687)" fill="none"/>
                        <line id="Line_3335" data-name="Line 3335" x2="13.517" transform="translate(-0.302 3.664)" fill="none"/>
                        <line id="Line_3336" data-name="Line 3336" x2="13.517" transform="translate(-0.302 4.64)" fill="none"/>
                        <line id="Line_3337" data-name="Line 3337" x2="13.517" transform="translate(-0.302 5.617)" fill="none"/>
                        <line id="Line_3338" data-name="Line 3338" x2="13.517" transform="translate(-0.302 6.594)" fill="none"/>
                        <line id="Line_3339" data-name="Line 3339" x2="13.517" transform="translate(-0.302 7.57)" fill="none"/>
                        <line id="Line_3340" data-name="Line 3340" x2="13.517" transform="translate(-0.302 8.547)" fill="none"/>
                        <line id="Line_3341" data-name="Line 3341" x2="13.517" transform="translate(-0.302 9.524)" fill="none"/>
                        <line id="Line_3342" data-name="Line 3342" x2="13.517" transform="translate(-0.302 10.5)" fill="none"/>
                        <line id="Line_3343" data-name="Line 3343" x2="13.517" transform="translate(-0.302 11.477)" fill="none"/>
                      </g>
                    </g>
                    <path id="Path_1032464" data-name="Path 1032464" d="M797.431,4.213A6.1,6.1,0,1,1,789.734.3a6.1,6.1,0,0,1,7.7,3.908" transform="translate(-783.892 -0.002)" fill="#c9c9c9"/>
                    <path id="Path_1032465" data-name="Path 1032465" d="M806.185,15.338a5.207,5.207,0,1,1-5.207-5.207A5.207,5.207,0,0,1,806.185,15.338Z" transform="translate(-793.232 -9.232)" fill="none"/>
                    <path id="Path_1032466" data-name="Path 1032466" d="M830.765,38.717V38.1a2.222,2.222,0,0,1-1.454-.5,1.674,1.674,0,0,1-.521-1.289h1.346a1.083,1.083,0,0,0,.165.6.55.55,0,0,0,.439.194l0-1.207a3.321,3.321,0,0,1-1.437-.6,1.275,1.275,0,0,1-.442-1.015,1.387,1.387,0,0,1,.528-1.132,2.267,2.267,0,0,1,1.424-.448v-.472h.585v.465a2.045,2.045,0,0,1,1.335.441,1.556,1.556,0,0,1,.508,1.168h-1.28a.806.806,0,0,0-.163-.49.538.538,0,0,0-.415-.176v1.108a3.522,3.522,0,0,1,1.5.646,1.352,1.352,0,0,1,.441,1.062,1.45,1.45,0,0,1-.5,1.187,2.568,2.568,0,0,1-1.5.47v.614Zm.088-4.107v-.995h-.029a.785.785,0,0,0-.477.121.43.43,0,0,0-.159.366.364.364,0,0,0,.148.3,1.46,1.46,0,0,0,.517.207m.435,2.487a.94.94,0,0,0,.532-.124.459.459,0,0,0,.027-.708,1.626,1.626,0,0,0-.56-.24Z" transform="translate(-823.321 -29.364)" fill="#2d2d2d"/>
                  </g>
                </g>
              </g>
            </g>
          </g>
        </g>
      </g>
    </g>
  </g>
</svg>
