<svg xmlns="http://www.w3.org/2000/svg" width="149.908" height="150" viewBox="0 0 149.908 150">
  <g id="img24" transform="translate(-705.985 -1710.001)">
    <g id="Group_1180300" data-name="Group 1180300" transform="translate(705.936 1710.002)">
      <g id="Grupo_155253" data-name="Grupo 155253" transform="matrix(0.999, 0.035, -0.035, 0.999, 5.061, 0)">
        <path id="Trazado_196478" data-name="Trazado 196478" d="M20.378,22.814q-.452.483-.9.974A75.7,75.7,0,0,0,.051,77.428l30.182-1.084c-.818-24.1,17.45-44.315,40.8-45.157S113.984,49.2,114.8,73.3l30.181-1.084c-1.018-30-19.313-56.469-46.471-67.233A70.928,70.928,0,0,0,20.378,22.822" transform="translate(0 0)" fill="#f9ce5d"/>
        <path id="Trazado_196479" data-name="Trazado 196479" d="M0,5.22c1.4,41.3,34.98,73.608,75,72.166S146.333,41.3,144.933,0L114.75,1.084c.818,24.1-17.451,44.314-40.8,45.156S31,28.229,30.182,4.132Z" transform="translate(0.049 67.594)" fill="#70f5c8"/>
      </g>
      <ellipse id="Ellipse_13685" data-name="Ellipse 13685" cx="58.366" cy="58.462" rx="58.366" ry="58.462" transform="translate(16.722 16.827)" fill="#fff"/>
    </g>
    <g id="Group_1184782" data-name="Group 1184782" transform="translate(739.486 1742.682)">
      <g id="Group_1184753" data-name="Group 1184753" transform="translate(33.724 4.5)">
        <path id="Path_1033051" data-name="Path 1033051" d="M36.8,17.382a6.441,6.441,0,1,1,6.447-6.435A6.441,6.441,0,0,1,36.8,17.382Zm0-11.718a5.277,5.277,0,1,0,5.283,5.283A5.284,5.284,0,0,0,36.8,5.664Z" transform="translate(-30.36 -4.5)" stroke="#000" stroke-width="1"/>
      </g>
      <g id="Group_1184754" data-name="Group 1184754" transform="translate(38.204 13.239)">
        <path id="Path_1033052" data-name="Path 1033052" d="M38.143,13.092v5.2H34.21v-5.2a1.088,1.088,0,0,1,1.082-1.082h1.769a1.088,1.088,0,0,1,1.082,1.082Z" transform="translate(-34.21 -12.01)" fill="#333" stroke="#000" stroke-width="1"/>
      </g>
      <g id="Group_1184755" data-name="Group 1184755" transform="translate(52.948 18.169)">
        <path id="Path_1033053" data-name="Path 1033053" d="M53.466,19.171l-2.828,4.364L46.88,21.1l2.828-4.364a1.1,1.1,0,0,1,1.5-.326l1.943,1.257a1.087,1.087,0,0,1,.314,1.5Z" transform="translate(-46.88 -16.246)" fill="#333" stroke="#000" stroke-width="1"/>
      </g>
      <g id="Group_1184756" data-name="Group 1184756" transform="translate(20.224 18.681)">
        <path id="Path_1033054" data-name="Path 1033054" d="M18.935,19.611l2.828,4.364,3.759-2.432-2.828-4.364a1.1,1.1,0,0,0-1.5-.326L19.249,18.11a1.085,1.085,0,0,0-.314,1.5Z" transform="translate(-18.759 -16.686)" fill="#333" stroke="#000" stroke-width="1"/>
      </g>
      <g id="Group_1184757" data-name="Group 1184757" transform="translate(37.622 12.657)">
        <path id="Path_1033055" data-name="Path 1033055" d="M38.225,18.958H34.292a.576.576,0,0,1-.582-.582v-5.2a1.664,1.664,0,0,1,1.664-1.664h1.769a1.664,1.664,0,0,1,1.664,1.664v5.2A.576.576,0,0,1,38.225,18.958Zm-3.351-1.164h2.77v-4.62a.5.5,0,0,0-.5-.5H35.374a.5.5,0,0,0-.5.5Z" transform="translate(-33.71 -11.51)" stroke="#000" stroke-width="1"/>
      </g>
      <g id="Group_1184758" data-name="Group 1184758" transform="translate(52.367 17.589)">
        <path id="Path_1033056" data-name="Path 1033056" d="M50.72,24.2a.585.585,0,0,1-.314-.093l-3.759-2.432a.583.583,0,0,1-.175-.8L49.3,16.507a1.664,1.664,0,0,1,2.3-.489l1.943,1.257a1.664,1.664,0,0,1,.489,2.3l-2.828,4.364a.607.607,0,0,1-.372.256H50.72ZM47.765,21.01l2.781,1.8,2.514-3.875a.528.528,0,0,0,.07-.372.469.469,0,0,0-.221-.314L50.965,17a.528.528,0,0,0-.372-.07.469.469,0,0,0-.314.221Z" transform="translate(-46.381 -15.748)" stroke="#000" stroke-width="1"/>
      </g>
      <g id="Group_1184759" data-name="Group 1184759" transform="translate(19.654 18.089)">
        <path id="Path_1033057" data-name="Path 1033057" d="M21.843,24.64a.4.4,0,0,1-.116-.012.583.583,0,0,1-.361-.256l-2.828-4.364a1.67,1.67,0,0,1,.489-2.3l1.943-1.257a1.645,1.645,0,0,1,1.257-.233,1.669,1.669,0,0,1,1.047.721L26.1,21.312a.583.583,0,0,1-.175.8l-3.759,2.432a.694.694,0,0,1-.326.093ZM19.5,19.369l2.514,3.875,2.781-1.8-2.514-3.887a.51.51,0,0,0-.314-.221.517.517,0,0,0-.372.07l-1.943,1.257A.517.517,0,0,0,19.5,19.369Z" transform="translate(-18.27 -16.178)" stroke="#000" stroke-width="1"/>
      </g>
      <g id="Group_1184760" data-name="Group 1184760" transform="translate(10.392 16.905)">
        <path id="Path_1033058" data-name="Path 1033058" d="M69.856,44.939A29.773,29.773,0,1,1,40.077,15.16,29.781,29.781,0,0,1,69.856,44.939Z" transform="translate(-10.31 -15.16)" fill="#e8e8e8" stroke="#000" stroke-width="1"/>
      </g>
      <g id="Group_1184761" data-name="Group 1184761" transform="translate(9.81 16.323)">
        <path id="Path_1033059" data-name="Path 1033059" d="M40.159,75.37A30.355,30.355,0,1,1,70.52,45.021,30.384,30.384,0,0,1,40.159,75.37Zm0-59.546a29.191,29.191,0,1,0,29.2,29.2,29.227,29.227,0,0,0-29.2-29.2Z" transform="translate(-9.81 -14.66)" stroke="#000" stroke-width="1"/>
      </g>
      <g id="Group_1184762" data-name="Group 1184762" transform="translate(14.046 20.559)">
        <path id="Path_1033060" data-name="Path 1033060" d="M65.688,44.425A26.119,26.119,0,1,1,39.563,18.3,26.12,26.12,0,0,1,65.688,44.425Z" transform="translate(-13.45 -18.3)" fill="#f25a5a" stroke="#000" stroke-width="1"/>
      </g>
      <g id="Group_1184763" data-name="Group 1184763" transform="translate(10.392 4.977)" opacity="0.15">
        <path id="Path_1033061" data-name="Path 1033061" d="M62.827,27.3A13.952,13.952,0,0,0,60.3,29.406c-2.793,2.967-4.026,7.017-5.562,10.776s-3.724,7.634-7.459,9.251c-3.258,1.408-7.483,1.012-9.833,3.677-1.757,2.013-1.7,4.981-2.6,7.506a15.027,15.027,0,0,1-5.1,6.575,28.325,28.325,0,0,1-6.505,3.863A29.743,29.743,0,0,1,21.5,23.261l-1.175-1.815a1.065,1.065,0,0,1,.314-1.5l1.943-1.257a1.091,1.091,0,0,1,1.5.314l1.117,1.734A29.59,29.59,0,0,1,38.122,16.8v-.535A5.848,5.848,0,0,1,40.089,4.91a5.843,5.843,0,0,1,1.967,11.358V16.8a29.837,29.837,0,0,1,12.4,3.619l1.245-1.932a1.1,1.1,0,0,1,1.5-.314l1.943,1.257a1.1,1.1,0,0,1,.314,1.5L58.2,22.889a30.206,30.206,0,0,1,4.631,4.41Z" transform="translate(-10.31 -4.91)" fill="#fff" stroke="#000" stroke-width="1"/>
      </g>
      <g id="Group_1184764" data-name="Group 1184764" transform="translate(13.464 19.977)">
        <path id="Path_1033062" data-name="Path 1033062" d="M39.645,71.2A26.7,26.7,0,1,1,66.352,44.507,26.724,26.724,0,0,1,39.645,71.2Zm0-52.238A25.537,25.537,0,1,0,65.188,44.507,25.567,25.567,0,0,0,39.645,18.964Z" transform="translate(-12.95 -17.8)" stroke="#000" stroke-width="1"/>
      </g>
      <g id="Group_1184765" data-name="Group 1184765" transform="translate(40.159 20.559)">
        <path id="Path_1033063" data-name="Path 1033063" d="M62.015,44.425H35.89V18.3A26.108,26.108,0,0,1,62.015,44.425Z" transform="translate(-35.89 -18.3)" fill="#ffcf47" stroke="#000" stroke-width="1"/>
      </g>
      <g id="Group_1184766" data-name="Group 1184766" transform="translate(39.577 19.977)">
        <path id="Path_1033064" data-name="Path 1033064" d="M62.1,45.088H35.972a.576.576,0,0,1-.582-.582V18.382a.576.576,0,0,1,.582-.582A26.726,26.726,0,0,1,62.667,44.507.574.574,0,0,1,62.1,45.088ZM36.554,43.925H61.5A25.556,25.556,0,0,0,36.554,18.975Z" transform="translate(-35.39 -17.8)" stroke="#000" stroke-width="1"/>
      </g>
      <g id="Group_1184767" data-name="Group 1184767" transform="translate(37.157 43.67)">
        <path id="Path_1033065" data-name="Path 1033065" d="M39.315,41.162a3,3,0,1,1-3-3,3,3,0,0,1,3,3Z" transform="translate(-33.31 -38.16)" fill="#fff" stroke="#000" stroke-width="1"/>
      </g>
      <g id="Group_1184768" data-name="Group 1184768" transform="translate(36.586 43.088)">
        <path id="Path_1033066" data-name="Path 1033066" d="M36.4,44.828a3.584,3.584,0,1,1,3.584-3.584A3.586,3.586,0,0,1,36.4,44.828Zm0-5.993a2.42,2.42,0,1,0,2.42,2.42A2.419,2.419,0,0,0,36.4,38.835Z" transform="translate(-32.82 -37.66)" stroke="#000" stroke-width="1"/>
      </g>
      <g id="Group_1184773" data-name="Group 1184773" transform="translate(23.091 29.592)">
        <g id="Group_1184769" data-name="Group 1184769">
          <path id="Path_1033067" data-name="Path 1033067" d="M23.3,26.42a1.218,1.218,0,1,1-1.722,0A1.215,1.215,0,0,1,23.3,26.42Z" transform="translate(-21.223 -26.063)" stroke="#000" stroke-width="1"/>
        </g>
        <g id="Group_1184770" data-name="Group 1184770" transform="translate(31.722 31.722)">
          <path id="Path_1033068" data-name="Path 1033068" d="M50.563,53.68a1.218,1.218,0,1,1-1.722,0A1.215,1.215,0,0,1,50.563,53.68Z" transform="translate(-48.483 -53.323)" stroke="#000" stroke-width="1"/>
        </g>
        <g id="Group_1184771" data-name="Group 1184771" transform="translate(0 31.722)">
          <path id="Path_1033069" data-name="Path 1033069" d="M21.58,53.68a1.218,1.218,0,1,1,0,1.722A1.215,1.215,0,0,1,21.58,53.68Z" transform="translate(-21.223 -53.323)" stroke="#000" stroke-width="1"/>
        </g>
        <g id="Group_1184772" data-name="Group 1184772" transform="translate(31.722)">
          <path id="Path_1033070" data-name="Path 1033070" d="M48.84,26.42a1.218,1.218,0,1,1,0,1.722A1.215,1.215,0,0,1,48.84,26.42Z" transform="translate(-48.483 -26.063)" stroke="#000" stroke-width="1"/>
        </g>
      </g>
      <g id="Group_1184774" data-name="Group 1184774" transform="translate(17.618 24.155)" opacity="0.1">
        <path id="Path_1033071" data-name="Path 1033071" d="M63.51,43.919a24.441,24.441,0,0,1-46.99,9.414A23.807,23.807,0,1,0,48.58,21.39,24.461,24.461,0,0,1,63.51,43.919Z" transform="translate(-16.52 -21.39)" stroke="#000" stroke-width="1"/>
      </g>
      <g id="Group_1184775" data-name="Group 1184775" transform="translate(14.034 20.547)" opacity="0.1">
        <path id="Path_1033072" data-name="Path 1033072" d="M65.69,44.426c0,.128,0,.256-.012.384A25.364,25.364,0,1,0,39.949,70.528c-.128.012-.256.012-.384.012A26.125,26.125,0,1,1,65.69,44.426Z" transform="translate(-13.44 -18.29)" stroke="#000" stroke-width="1"/>
      </g>
      <g id="Group_1184776" data-name="Group 1184776" transform="translate(43.894 50.931)">
        <path id="Path_1033073" data-name="Path 1033073" d="M67.715,58.713A14.308,14.308,0,1,1,53.4,44.4,14.308,14.308,0,0,1,67.715,58.713Z" transform="translate(-39.1 -44.4)" fill="#6cf" stroke="#000" stroke-width="1"/>
      </g>
      <g id="Group_1184777" data-name="Group 1184777" transform="translate(43.313 50.361)">
        <path id="Path_1033074" data-name="Path 1033074" d="M53.484,73.689a14.889,14.889,0,1,1,14.9-14.884,14.9,14.9,0,0,1-14.9,14.884Zm0-28.627A13.726,13.726,0,1,0,67.215,58.794,13.739,13.739,0,0,0,53.484,45.062Z" transform="translate(-38.6 -43.91)" stroke="#000" stroke-width="1"/>
      </g>
      <g id="Group_1184778" data-name="Group 1184778" transform="translate(48.165 55.202)" opacity="0.1">
        <path id="Path_1033075" data-name="Path 1033075" d="M65.66,58.113a12.856,12.856,0,0,1-22.89,8.041A12.852,12.852,0,0,0,60.83,48.07,12.809,12.809,0,0,1,65.66,58.113Z" transform="translate(-42.77 -48.07)" stroke="#000" stroke-width="1"/>
      </g>
      <g id="Group_1184779" data-name="Group 1184779" transform="translate(49.57 58.818)">
        <path id="Path_1033076" data-name="Path 1033076" d="M49.648,64.028a1.27,1.27,0,0,1-.9-.372l-4.4-4.4a1.267,1.267,0,0,1,1.792-1.792l3.5,3.5,9.414-9.414a1.267,1.267,0,0,1,1.792,1.792L50.532,63.667a1.212,1.212,0,0,1-.884.361Z" transform="translate(-43.978 -51.178)" fill="#fff" stroke="#000" stroke-width="1"/>
      </g>
      <g id="Group_1184780" data-name="Group 1184780" transform="translate(48.997 58.233)">
        <path id="Path_1033077" data-name="Path 1033077" d="M49.728,64.692a1.842,1.842,0,0,1-1.3-.547l-4.4-4.4a1.851,1.851,0,0,1,2.618-2.618l3.1,3.1,9.007-9.007a1.851,1.851,0,0,1,2.618,2.618L51.043,64.156a1.878,1.878,0,0,1-1.315.535Zm-4.4-6.936a.728.728,0,0,0-.489.2.681.681,0,0,0,0,.966l4.4,4.4a.7.7,0,0,0,.966,0L60.527,53a.683.683,0,0,0-.966-.966l-9.414,9.414a.576.576,0,0,1-.826,0l-3.5-3.5a.775.775,0,0,0-.489-.186Z" transform="translate(-43.485 -50.675)" stroke="#000" stroke-width="1"/>
      </g>
      <g id="Group_1184781" data-name="Group 1184781" transform="translate(43.883 50.931)" opacity="0.15">
        <path id="Path_1033078" data-name="Path 1033078" d="M64.33,49.474a6.734,6.734,0,0,0-1.21,1.012c-1.338,1.42-1.932,3.375-2.676,5.178s-1.792,3.666-3.584,4.445c-1.571.675-3.6.489-4.725,1.769-.838.966-.815,2.4-1.245,3.607a7.164,7.164,0,0,1-2.455,3.154A13.737,13.737,0,0,1,45.3,70.5,14.307,14.307,0,1,1,64.33,49.474Z" transform="translate(-39.09 -44.4)" fill="#fff" stroke="#000" stroke-width="1"/>
      </g>
    </g>
  </g>
</svg>
