<svg xmlns="http://www.w3.org/2000/svg" width="149.908" height="150" viewBox="0 0 149.908 150">
  <g id="img2" transform="translate(-705.985 -1710.002)">
    <g id="Group_1180300" data-name="Group 1180300" transform="translate(705.936 1710.002)">
      <g id="Grupo_155253" data-name="Grupo 155253" transform="matrix(0.999, 0.035, -0.035, 0.999, 5.061, 0)">
        <path id="Trazado_196478" data-name="Trazado 196478" d="M20.378,22.814q-.452.483-.9.974A75.7,75.7,0,0,0,.051,77.428l30.182-1.084c-.818-24.1,17.45-44.315,40.8-45.157S113.984,49.2,114.8,73.3l30.181-1.084c-1.018-30-19.313-56.469-46.471-67.233A70.928,70.928,0,0,0,20.378,22.822" transform="translate(0 0)" fill="#f9ce5d"/>
        <path id="Trazado_196479" data-name="Trazado 196479" d="M0,5.22c1.4,41.3,34.98,73.608,75,72.166S146.333,41.3,144.933,0L114.75,1.084c.818,24.1-17.451,44.314-40.8,45.156S31,28.229,30.182,4.132Z" transform="translate(0.049 67.594)" fill="#70f5c8"/>
      </g>
      <ellipse id="Ellipse_13685" data-name="Ellipse 13685" cx="58.366" cy="58.462" rx="58.366" ry="58.462" transform="translate(16.722 16.827)" fill="#fff"/>
    </g>
    <g id="Group_1184499" data-name="Group 1184499" transform="translate(702.45 1746.323)">
      <g id="Group_1184497" data-name="Group 1184497" transform="translate(48.027 1.133)">
        <path id="Path_1032246" data-name="Path 1032246" d="M153.514,57.117h-20a10.271,10.271,0,0,1-10.007-10.975l1.035-21.793C124.988,14.911,132.45,7.5,141.5,7.5h4.021c9.053,0,16.514,7.411,16.962,16.848l1.035,21.793A10.271,10.271,0,0,1,153.514,57.117Z" transform="translate(-113.054 -7.5)" fill="#e49280"/>
        <path id="Path_1032247" data-name="Path 1032247" d="M153.514,57.117h-20a10.271,10.271,0,0,1-10.007-10.975l1.035-21.793C124.988,14.911,132.45,7.5,141.5,7.5h4.021c9.053,0,16.514,7.411,16.962,16.848l1.035,21.793A10.271,10.271,0,0,1,153.514,57.117Z" transform="translate(-113.054 -7.5)" fill="#e49280"/>
        <path id="Path_1032248" data-name="Path 1032248" d="M254.533,57.117h-4.084a10.272,10.272,0,0,0,10.008-10.975l-1.035-21.793c-.449-9.428-7.891-16.832-16.931-16.849h4.052c9.052,0,16.514,7.411,16.962,16.849l1.035,21.793a10.272,10.272,0,0,1-10.008,10.975Z" transform="translate(-214.073 -7.5)" fill="#dd7f66"/>
        <path id="Path_1032249" data-name="Path 1032249" d="M111.05,344.973a11.824,11.824,0,0,0-11.5-9.072H70.159a11.824,11.824,0,0,0-11.5,9.072l-4.265,16.4h60.919Z" transform="translate(-54.396 -286.284)" fill="#0593fc"/>
        <path id="Path_1032250" data-name="Path 1032250" d="M348.483,361.373h-3.659l-4.265-16.4a11.824,11.824,0,0,0-11.5-9.073h3.658a11.824,11.824,0,0,1,11.5,9.073Z" transform="translate(-287.563 -286.283)" fill="#0181fa"/>
        <path id="Path_1032251" data-name="Path 1032251" d="M218.1,335.9l5.726,20.374,5.725-20.374Z" transform="translate(-193.369 -286.284)" fill="#fea613"/>
        <path id="Path_1032252" data-name="Path 1032252" d="M251.9,335.9l-5.725,20.374-1.75-6.226L248.4,335.9Z" transform="translate(-215.711 -286.283)" fill="#fe9901"/>
        <path id="Path_1032253" data-name="Path 1032253" d="M167.7,335.9h-8.97l6.55,10.18-2.677,5.828,10.823,9.466v-5.1Z" transform="translate(-142.967 -286.284)" fill="#eaf6ff"/>
        <path id="Path_1032254" data-name="Path 1032254" d="M208.852,356.274v5.1l-2.667-2.333v-2.766L200.461,335.9h2.665Z" transform="translate(-178.393 -286.283)" fill="#c8effe"/>
        <path id="Path_1032255" data-name="Path 1032255" d="M261.724,335.9h8.97l-6.55,10.18,2.677,5.828L256,361.374v-5.1Z" transform="translate(-225.54 -286.284)" fill="#eaf6ff"/>
        <path id="Path_1032256" data-name="Path 1032256" d="M264.146,346.08l2.677,5.827L256,361.373v-2.679l7.76-6.787-2.677-5.827,6.55-10.18H270.7Z" transform="translate(-225.541 -286.283)" fill="#c8effe"/>
        <path id="Path_1032257" data-name="Path 1032257" d="M112.131,156.3h3.522l1.858-5.045-1.858-5.045h-3.522a3.611,3.611,0,0,0-3.611,3.611v2.869A3.611,3.611,0,0,0,112.131,156.3Z" transform="translate(-100.343 -125.256)" fill="#ffdfcf"/>
        <path id="Path_1032258" data-name="Path 1032258" d="M141.18,151.256l-1.858,5.045H136.4V146.21h2.92Z" transform="translate(-124.011 -125.253)" fill="#ffcebf"/>
        <path id="Path_1032259" data-name="Path 1032259" d="M229.554,283.261H218.1v7.953l2.209,2.261a4.917,4.917,0,0,0,7.033,0l2.209-2.261v-7.953Z" transform="translate(-193.369 -241.597)" fill="#ffdfcf"/>
        <path id="Path_1032260" data-name="Path 1032260" d="M251.522,283.26v7.953l-2.209,2.26a4.912,4.912,0,0,1-5.332,1.133,4.87,4.87,0,0,0,1.7-1.133l2.209-2.26V283.26Z" transform="translate(-215.337 -241.597)" fill="#ffcebf"/>
        <path id="Path_1032261" data-name="Path 1032261" d="M186.036,82.715V98.363a12.091,12.091,0,0,1-12.091,12.091h-6.122a12.091,12.091,0,0,1-12.091-12.091V88.272l7.926-10.312h3.14Z" transform="translate(-140.421 -67.314)" fill="#ffdfcf"/>
        <path id="Path_1032262" data-name="Path 1032262" d="M230.57,82.715V98.363a12.091,12.091,0,0,1-12.091,12.091h-3.567a12.093,12.093,0,0,0,12.013-10.726L208.191,77.96h3.14Z" transform="translate(-184.955 -67.315)" fill="#ffcebf"/>
        <g id="Group_1184496" data-name="Group 1184496" transform="translate(28.279 24.111)">
          <path id="Path_1032263" data-name="Path 1032263" d="M243.749,174.809h-.007a2.177,2.177,0,0,1-2.177-2.177v-3.372a2.177,2.177,0,0,1,2.177-2.177h.007a2.177,2.177,0,0,1,2.177,2.177v3.372A2.177,2.177,0,0,1,243.749,174.809Z" transform="translate(-241.565 -167.082)" fill="#ffcebf"/>
        </g>
        <path id="Path_1032264" data-name="Path 1032264" d="M173.693,155.08h-.217a5.447,5.447,0,0,1-5.447-5.447v-1.866a1.553,1.553,0,0,1,1.553-1.553h8a1.553,1.553,0,0,1,1.553,1.553v1.866A5.447,5.447,0,0,1,173.693,155.08Z" transform="translate(-150.862 -125.256)" fill="#eaf6ff"/>
        <path id="Path_1032265" data-name="Path 1032265" d="M201.246,147.763v1.866a5.447,5.447,0,0,1-5.447,5.447h-.216a5.427,5.427,0,0,1-1.512-.213A5.45,5.45,0,0,0,198,149.629v-1.866a1.554,1.554,0,0,0-1.553-1.553h3.242A1.554,1.554,0,0,1,201.246,147.763Z" transform="translate(-172.968 -125.253)" fill="#c8effe"/>
        <path id="Path_1032266" data-name="Path 1032266" d="M281.542,147.763v1.866a5.437,5.437,0,0,1-5.447,5.447h-.218a5.447,5.447,0,0,1-5.447-5.447v-1.866a1.555,1.555,0,0,1,1.553-1.553h8A1.555,1.555,0,0,1,281.542,147.763Z" transform="translate(-237.791 -125.253)" fill="#eaf6ff"/>
        <path id="Path_1032267" data-name="Path 1032267" d="M282.561,147.763v1.866a5.452,5.452,0,0,1-4.146,5.291l-6.784-7.884A1.551,1.551,0,0,1,273,146.21h8A1.555,1.555,0,0,1,282.561,147.763Z" transform="translate(-238.81 -125.253)" fill="#c8effe"/>
        <path id="Path_1032268" data-name="Path 1032268" d="M228.973,77.959l24.091,28-1.035-21.793-3.817-1.449Z" transform="translate(-202.597 -67.314)" fill="#e49280"/>
        <path id="Path_1032269" data-name="Path 1032269" d="M358.889,132.111l-4.323-5.022-.8-16.771c-.026-.523-.071-1.039-.139-1.549l.4.1,3.818,1.449Z" transform="translate(-308.421 -93.47)" fill="#dd7f66"/>
      </g>
      <g id="Group_1184498" data-name="Group 1184498" transform="translate(46.894)">
        <path id="Path_1032270" data-name="Path 1032270" d="M237.124,242.348a4.187,4.187,0,0,0,3.056-1.332,1.133,1.133,0,1,0-1.66-1.543,1.9,1.9,0,0,1-2.793,0,1.133,1.133,0,1,0-1.66,1.543A4.187,4.187,0,0,0,237.124,242.348Z" transform="translate(-205.531 -202.985)"/>
        <path id="Path_1032271" data-name="Path 1032271" d="M49.787,459.5a1.133,1.133,0,0,0-1.382.811l-1.475,5.671a1.133,1.133,0,1,0,2.193.57l1.475-5.671A1.133,1.133,0,0,0,49.787,459.5Z" transform="translate(-46.894 -390.045)"/>
        <path id="Path_1032272" data-name="Path 1032272" d="M125.921,75.937l-4.262-16.39a12.909,12.909,0,0,0-10.829-9.81,11.4,11.4,0,0,0,1.456-1.285,11.875,11.875,0,0,0,3.219-8.732l-1.035-21.793C113.991,7.875,106.044,0,96.375,0H92.354C82.685,0,74.737,7.875,74.26,17.928l-.157,3.3A4.751,4.751,0,0,0,70.949,25.7V28.57a4.749,4.749,0,0,0,4.744,4.744h2.438a13.256,13.256,0,0,0,9.374,11.534v4.769H84.363a8.621,8.621,0,0,1-6.28-2.728,9.6,9.6,0,0,1-2.6-7.06l.1-2.172a1.133,1.133,0,1,0-2.264-.107l-.1,2.172a11.875,11.875,0,0,0,3.219,8.732A11.417,11.417,0,0,0,77.9,49.738a12.91,12.91,0,0,0-10.829,9.81l-1.436,5.523a1.133,1.133,0,1,0,2.193.57l1.439-5.534.005-.021a10.7,10.7,0,0,1,2.186-4.37l.816.816a3.177,3.177,0,0,1,.937,2.261V76.223a1.133,1.133,0,0,0,2.266,0V58.794a5.428,5.428,0,0,0-1.6-3.864l-.79-.79A10.655,10.655,0,0,1,79.061,51.9l5.868,9.119-2.418,5.263a1.133,1.133,0,0,0,.284,1.326l10.823,9.466a1.144,1.144,0,0,0,1.492,0l10.823-9.466a1.133,1.133,0,0,0,.284-1.326L103.8,61.021l.868-1.349a1.133,1.133,0,1,0-1.906-1.226l-1.2,1.871a1.133,1.133,0,0,0-.077,1.086l2.324,5.059L95.5,73.726V71.28l5.451-19.4h6.035L105.7,53.877a1.133,1.133,0,1,0,1.906,1.226l2.06-3.2a10.655,10.655,0,0,1,5.976,2.237l-.79.79a5.429,5.429,0,0,0-1.6,3.864V76.223a1.133,1.133,0,1,0,2.266,0V58.794a3.177,3.177,0,0,1,.937-2.261l.816-.816a10.7,10.7,0,0,1,2.186,4.37l.005.021,4.265,16.4a1.133,1.133,0,0,0,2.194-.571ZM73.215,28.57V25.7a2.48,2.48,0,0,1,2.477-2.477h2.389v3.054a5.086,5.086,0,0,0-1.488-.445A1.133,1.133,0,0,0,76.3,28.08c.212-.006,1.839.4,1.778,1.683v1.285H75.693A2.48,2.48,0,0,1,73.215,28.57ZM89.762,12.912l7.176,8.313a2.687,2.687,0,0,0-1.527,2.419v.638a3.454,3.454,0,0,0-2.095,0v-.636a2.689,2.689,0,0,0-2.686-2.686h-8a2.668,2.668,0,0,0-1.432.417L87.7,12.912Zm7.916,10.733a.42.42,0,0,1,.42-.42h.566l5.353,6.2a4.321,4.321,0,0,1-1.809.4,4.377,4.377,0,0,1-4.53-4.314ZM91.05,25.51a4.373,4.373,0,0,1-4.53,4.314,4.319,4.319,0,0,1-4.314-4.314V23.644a.42.42,0,0,1,.42-.42h8a.42.42,0,0,1,.42.42Zm2.266,1.911a1.047,1.047,0,0,1,2.095,0v3.372a1.045,1.045,0,0,1-1.044,1.044H94.36a1.045,1.045,0,0,1-1.044-1.044Zm-12.968,4.76v-4.39a6.591,6.591,0,0,0,6.172,4.3,6.815,6.815,0,0,0,4.53-1.618,3.328,3.328,0,1,0,6.628,0,6.8,6.8,0,0,0,4.53,1.618,6.592,6.592,0,0,0,3.328-.9l2.653,3.074A10.961,10.961,0,0,1,97.428,43.14H91.307A10.971,10.971,0,0,1,80.348,32.181ZM90.874,54.516a6.051,6.051,0,0,0,6.98,0l-3.49,12.418Zm.433-9.11h6.121a13.257,13.257,0,0,0,1.528-.092v4.974l-1.886,1.93a3.841,3.841,0,0,1-5.412,0l-1.886-1.931V45.316a13.31,13.31,0,0,0,1.535.09Zm-4.059,16a1.133,1.133,0,0,0-.077-1.086l-5.427-8.433H87.78l5.451,19.4v2.446l-8.307-7.265Zm13.975-11.786v-4.77a13.217,13.217,0,0,0,9.285-10.7,1.306,1.306,0,0,0-.267-.978L91.14,11.039a1.147,1.147,0,0,0-.859-.394H87.142a1.134,1.134,0,0,0-.9.443l-7.586,9.87H76.385l.139-2.922c.42-8.842,7.373-15.769,15.83-15.769h4.021c8.457,0,15.41,6.927,15.83,15.769l1.035,21.793a9.6,9.6,0,0,1-2.6,7.06,8.621,8.621,0,0,1-6.28,2.728h-3.142Z" transform="translate(-62.771)"/>
      </g>
    </g>
  </g>
</svg>
