<svg xmlns="http://www.w3.org/2000/svg" width="149.909" height="150" viewBox="0 0 149.909 150">
  <g id="img30" transform="translate(-705.985 -1710.002)">
    <g id="Group_1180300" data-name="Group 1180300" transform="translate(705.936 1710.002)">
      <g id="Grupo_155253" data-name="Grupo 155253" transform="matrix(0.999, 0.035, -0.035, 0.999, 5.062, 0)">
        <path id="Trazado_196478" data-name="Trazado 196478" d="M20.377,22.814q-.452.483-.9.974A75.7,75.7,0,0,0,.051,77.428l30.182-1.084c-.818-24.1,17.45-44.315,40.8-45.157S113.985,49.2,114.8,73.3l30.182-1.084c-1.018-30-19.313-56.469-46.471-67.234A70.928,70.928,0,0,0,20.377,22.822" transform="translate(0 0)" fill="#f9ce5d"/>
        <path id="Trazado_196479" data-name="Trazado 196479" d="M0,5.22c1.4,41.3,34.98,73.608,75,72.167S146.334,41.3,144.933,0L114.751,1.084c.818,24.1-17.451,44.315-40.8,45.156S31,28.229,30.182,4.132Z" transform="translate(0.049 67.595)" fill="#70f5c8"/>
      </g>
      <ellipse id="Ellipse_13685" data-name="Ellipse 13685" cx="58.366" cy="58.462" rx="58.366" ry="58.462" transform="translate(16.722 16.827)" fill="#fff"/>
    </g>
    <g id="Group_1184789" data-name="Group 1184789" transform="translate(742.067 1745.51)">
      <path id="Path_1033125" data-name="Path 1033125" d="M103.4,68.92l.921,3.515,4.211,1.129,2.559-2.587a.99.99,0,0,1,1.212-.163l5.055,2.924a.99.99,0,0,1,.464,1.131l-.96,3.5,3.083,3.083,3.5-.96a.99.99,0,0,1,1.131.464l2.924,5.055a.99.99,0,0,1-.163,1.212l-2.587,2.559L125.889,94l3.515.921a.99.99,0,0,1,.747.968v5.841a.99.99,0,0,1-.747.968l-3.515.921-1.129,4.212,2.587,2.559a.99.99,0,0,1,.163,1.212l-2.924,5.055a.99.99,0,0,1-1.131.464l-3.5-.96-3.083,3.083.96,3.5a.99.99,0,0,1-.464,1.131l-5.055,2.924a.99.99,0,0,1-1.212-.163l-2.559-2.587-4.211,1.129L103.4,128.7a.99.99,0,0,1-.968.747H96.594a.99.99,0,0,1-.968-.747l-.921-3.515-4.211-1.129-2.559,2.587a.99.99,0,0,1-1.212.163l-5.055-2.924a.99.99,0,0,1-.464-1.131l.96-3.5-3.083-3.083-3.5.96a.99.99,0,0,1-1.131-.464L71.52,111.6a.99.99,0,0,1,.163-1.212l2.587-2.559-1.129-4.212-3.515-.921a.99.99,0,0,1-.747-.968V95.888a.99.99,0,0,1,.747-.968L73.141,94l1.129-4.211-2.587-2.559a.99.99,0,0,1-.163-1.212l2.924-5.055a.99.99,0,0,1,1.131-.464l3.5.96,3.083-3.083-.96-3.5a.99.99,0,0,1,.464-1.131l5.055-2.924a.99.99,0,0,1,1.212.163l2.559,2.587,4.211-1.129.921-3.515a.99.99,0,0,1,.968-.747h5.841a.99.99,0,0,1,.968.747Z" transform="translate(-56.549 -55.32)" fill="#fdc72e" fill-rule="evenodd"/>
      <path id="Path_1033126" data-name="Path 1033126" d="M110.953,71.119l4.875,2.82a.99.99,0,0,1,.464,1.131l-.991,3.62,3.17,3.17,4.028-1.1a.481.481,0,0,1,.2.2l2.924,5.055a.99.99,0,0,1-.163,1.212l-2.587,2.559L124,94l3.515.921a.99.99,0,0,1,.747.968v5.841a.99.99,0,0,1-.747.968l-3.515.921-1.128,4.211,2.587,2.559a.99.99,0,0,1,.163,1.212l-2.924,5.055a.48.48,0,0,1-.2.2l-4.028-1.1-3.17,3.17.991,3.62a.99.99,0,0,1-.464,1.131l-4.875,2.82-3.152-3.186-4.823,1.292-1.073,4.094a.99.99,0,0,1-.964.747H96.6a.99.99,0,0,1-.968-.747l-.921-3.515-5.282-1.415-2.893,2.925-4.863-2.813a.99.99,0,0,1-.464-1.131l.96-3.5-3.083-3.083-3.5.96a.99.99,0,0,1-1.131-.464L71.521,111.6a.99.99,0,0,1,.163-1.212l2.587-2.559-1.129-4.212-3.515-.921a.99.99,0,0,1-.747-.968V95.886a.99.99,0,0,1,.747-.968L73.142,94l1.129-4.211-2.587-2.559a.99.99,0,0,1-.163-1.212l2.924-5.055a.99.99,0,0,1,1.131-.464l3.5.96,3.083-3.083-.96-3.5a.99.99,0,0,1,.464-1.131l4.863-2.813,2.893,2.925,5.282-1.415.921-3.515a.99.99,0,0,1,.968-.747h4.342a.99.99,0,0,1,.968.747l1.073,4.094,4.823,1.292,3.152-3.186Z" transform="translate(-56.55 -55.32)" fill="#ffeb87" fill-rule="evenodd"/>
      <circle id="Ellipse_13826" data-name="Ellipse 13826" cx="21.756" cy="21.756" r="21.756" transform="translate(21.21 21.732)" fill="#6cbfff"/>
      <circle id="Ellipse_13827" data-name="Ellipse 13827" cx="18.52" cy="18.52" r="18.52" transform="translate(16.77 43.488) rotate(-45)" fill="#eceff1"/>
      <g id="Group_1184788" data-name="Group 1184788" transform="translate(4.108 4.828)">
        <path id="Path_1033127" data-name="Path 1033127" d="M154.3,172.156a18.021,18.021,0,1,0,18.015-18.513A18.52,18.52,0,0,0,154.3,172.156Z" transform="translate(-133.963 -133.497)" fill="#fff" fill-rule="evenodd"/>
        <path id="Path_1033128" data-name="Path 1033128" d="M24.324,24.214A25.317,25.317,0,0,0,45.511,51.872,24.2,24.2,0,0,1,15.841,23.654l-4.317-.285a.66.66,0,0,1-.42-1.129L21.721,11.786a.658.658,0,0,1,1.061.192l5.356,11.508a.659.659,0,0,1-.642.937l-3.173-.209Z" transform="translate(-10.905 -11.595)" fill="#90ef90" fill-rule="evenodd"/>
        <path id="Path_1033129" data-name="Path 1033129" d="M36.756,30.355A25.317,25.317,0,0,0,57.943,58.013a24.177,24.177,0,0,1-6.514.735,24.2,24.2,0,0,1-21.1-28.816l-4.318-.285a.66.66,0,0,1-.419-1.129l9.919-9.767L40.57,29.627a.659.659,0,0,1-.642.937l-3.173-.209Z" transform="translate(-23.337 -17.736)" fill="#adffad" fill-rule="evenodd"/>
      </g>
      <circle id="Ellipse_13828" data-name="Ellipse 13828" cx="2.548" cy="2.548" r="2.548" transform="translate(39.9 41.574) rotate(-13.3)" fill="#6cbfff"/>
      <path id="Path_1033130" data-name="Path 1033130" d="M268.929,271.586a2.549,2.549,0,1,1,2.016-2.492A2.549,2.549,0,0,1,268.929,271.586Z" transform="translate(-226.495 -225.606)" fill="#85caff" fill-rule="evenodd"/>
      <path id="Path_1033131" data-name="Path 1033131" d="M9.129,15.763a1.132,1.132,0,0,1,.827.443,1.148,1.148,0,0,1,.212.913A23.03,23.03,0,0,0,32.81,44.688h.15A26.434,26.434,0,0,1,16.4,17.334a1.134,1.134,0,0,1,1.2-1.013l2.366.156L15.249,6.317,5.874,15.548l3.255.214ZM7.721,17.944l-3.057-.2a1.794,1.794,0,0,1-1.142-3.069L14.135,4.226a1.792,1.792,0,0,1,2.886.522l5.354,11.5A1.8,1.8,0,0,1,20.624,18.8l-2.051-.136A24.156,24.156,0,0,0,38.882,43.969a1.134,1.134,0,0,1,.1,2.221A25.312,25.312,0,0,1,7.721,17.944ZM43.97,43.489a1.005,1.005,0,1,0-1.005,1A1,1,0,0,0,43.97,43.489Zm-2.134-8.435v5.363a3.274,3.274,0,0,0,0,6.143v1.492a1.132,1.132,0,1,0,2.263,0V46.559c.082-.028.157-.063.239-.1l4.123,4.123a1.116,1.116,0,0,0,.8.332,1.134,1.134,0,0,0,.8-1.936l-4.123-4.123a3.272,3.272,0,0,0-1.84-4.441V35.054a1.132,1.132,0,1,0-2.263,0ZM42.964,31.6A1.134,1.134,0,0,0,44.1,30.46V28.824a1.132,1.132,0,1,0-2.263,0V30.46A1.133,1.133,0,0,0,42.964,31.6Zm9.218,3.815a1.139,1.139,0,0,0,.8-.332l1.156-1.157a1.135,1.135,0,0,0-1.607-1.6l-1.156,1.156a1.135,1.135,0,0,0,.807,1.937ZM42.964,55.382a1.132,1.132,0,0,0-1.128,1.135v1.635a1.132,1.132,0,1,0,2.263,0V56.517A1.133,1.133,0,0,0,42.964,55.382ZM57.632,44.623a1.135,1.135,0,1,0,0-2.269H56a1.135,1.135,0,1,0,0,2.269ZM31.8,32.317a1.127,1.127,0,0,1,1.6,0l1.162,1.157a1.134,1.134,0,0,1-.807,1.936,1.127,1.127,0,0,1-.8-.332L31.8,33.921a1.132,1.132,0,0,1,0-1.6Zm1.6,22.344L34.56,53.5A1.136,1.136,0,0,0,32.953,51.9L31.8,53.055a1.133,1.133,0,1,0,1.6,1.606ZM51.375,53.5l1.156,1.157a1.144,1.144,0,0,0,.807.332,1.135,1.135,0,0,0,.8-1.937L52.982,51.9A1.136,1.136,0,0,0,51.375,53.5ZM26.19,48.057a17.385,17.385,0,1,0,1.525-12.917,1.135,1.135,0,1,1-1.99-1.091A19.649,19.649,0,1,1,24,48.652a1.137,1.137,0,0,1,2.2-.594Zm-4.862-2.049a1.135,1.135,0,0,1,1.306.931,20.623,20.623,0,1,0,2.94-14.53,1.135,1.135,0,0,1-1.915-1.221A22.895,22.895,0,1,1,20.4,47.315a1.128,1.128,0,0,1,.93-1.308Zm53.426-5.442V46.41a2.14,2.14,0,0,1-1.593,2.067l-2.879.754-.793,2.94,2.12,2.1a2.139,2.139,0,0,1,.349,2.588l-2.927,5.057a2.136,2.136,0,0,1-2.414.99l-2.865-.786L61.6,64.271l.786,2.871a2.139,2.139,0,0,1-.992,2.412l-5.06,2.926a2.132,2.132,0,0,1-2.585-.346l-2.1-2.12-2.94.787-.752,2.879a2.135,2.135,0,0,1-2.065,1.594H40.044a2.135,2.135,0,0,1-2.065-1.594L37.22,70.8l-2.934-.787-2.1,2.12a2.144,2.144,0,0,1-2.592.346l-5.053-2.926a2.138,2.138,0,0,1-.992-2.412l.786-2.871-2.154-2.153-2.872.786a2.123,2.123,0,0,1-2.407-.99l-2.927-5.057a2.128,2.128,0,0,1,.342-2.588l2.12-2.1-.786-2.94-2.879-.754a2.14,2.14,0,0,1-1.593-2.067V41.5a1.135,1.135,0,0,1,2.27,0v4.805l3.419.9a1.148,1.148,0,0,1,.807.8l1.128,4.214a1.131,1.131,0,0,1-.3,1.1l-2.516,2.489,2.824,4.879,3.412-.933a1.139,1.139,0,0,1,1.1.292l3.084,3.085a1.15,1.15,0,0,1,.294,1.1l-.937,3.408,4.882,2.822,2.489-2.516a1.124,1.124,0,0,1,1.094-.3l4.212,1.129a1.134,1.134,0,0,1,.807.809l.9,3.417h5.642l.9-3.417a1.137,1.137,0,0,1,.8-.809L51.7,67.651a1.136,1.136,0,0,1,1.1.3l2.489,2.516,4.882-2.822-.937-3.408a1.134,1.134,0,0,1,.294-1.1l3.084-3.085a1.134,1.134,0,0,1,1.1-.292l3.412.933,2.817-4.879L67.424,53.32a1.144,1.144,0,0,1-.294-1.1l1.128-4.214a1.147,1.147,0,0,1,.807-.8l3.419-.9V40.669l-3.419-.9a1.146,1.146,0,0,1-.807-.8L67.13,34.755a1.144,1.144,0,0,1,.294-1.1l2.516-2.489-2.817-4.879-3.412.933a1.135,1.135,0,0,1-1.1-.292l-3.084-3.085a1.133,1.133,0,0,1-.294-1.1l.937-3.408-4.882-2.822L52.8,19.028a1.137,1.137,0,0,1-1.1.3L47.484,18.2a1.136,1.136,0,0,1-.8-.808l-.9-3.417H40.147l-.9,3.417a1.134,1.134,0,0,1-.807.808l-4.212,1.129a1.124,1.124,0,0,1-1.094-.3l-2.489-2.516-4.882,2.822.937,3.408a1.15,1.15,0,0,1-.294,1.1l-3.084,3.085a1.135,1.135,0,0,1-1.607-1.6l2.619-2.62-.786-2.871a2.138,2.138,0,0,1,.992-2.413L29.6,14.5a2.144,2.144,0,0,1,2.592.346l2.1,2.12,2.934-.789.759-2.878A2.135,2.135,0,0,1,40.044,11.7h5.847A2.136,2.136,0,0,1,47.956,13.3l.752,2.878,2.94.789,2.1-2.12a2.134,2.134,0,0,1,2.585-.346l5.06,2.926a2.139,2.139,0,0,1,.992,2.413L61.6,22.705l2.154,2.153,2.865-.786a2.136,2.136,0,0,1,2.414.99l2.927,5.058a2.138,2.138,0,0,1-.349,2.588l-2.12,2.1.793,2.94,2.879.755a2.139,2.139,0,0,1,1.593,2.066Z" transform="translate(0 0)" fill-rule="evenodd"/>
    </g>
  </g>
</svg>
