<svg xmlns="http://www.w3.org/2000/svg" width="60" height="60" viewBox="0 0 60 60">
  <g id="img35" transform="translate(-517.711 -3973)">
    <rect id="Rectangle_456510" data-name="Rectangle 456510" width="60" height="60" rx="5" transform="translate(517.711 3973)" fill="#ff9e74"/>
    <g id="Group_1184550" data-name="Group 1184550" transform="translate(524.873 3980.184)">
      <g id="Group_1184549" data-name="Group 1184549" transform="translate(0.023 0)">
        <path id="Path_1032476" data-name="Path 1032476" d="M307.039,77.505a5.927,5.927,0,1,0,6.3,6.3A5.927,5.927,0,0,0,307.039,77.505ZM312,83.719a4.59,4.59,0,1,1-4.88-4.88A4.588,4.588,0,0,1,312,83.719Z" transform="translate(-274.627 -70.586)" fill="#2d6250"/>
        <path id="Path_1032477" data-name="Path 1032477" d="M43.023,9.684a1.079,1.079,0,0,1-.759-1.844,2.624,2.624,0,0,0,0-3.711l-.772-.772a2.584,2.584,0,0,0-3.684.033,1.079,1.079,0,0,1-1.841-.767A2.627,2.627,0,0,0,33.343,0h-1.05A2.627,2.627,0,0,0,29.67,2.624a1.079,1.079,0,0,1-1.844.764,2.624,2.624,0,0,0-3.711,0l-.742.742a2.615,2.615,0,0,0-.495.689,6.288,6.288,0,0,0-3.3-.931H13.743a3.111,3.111,0,0,0-2.934,2.083.222.222,0,0,1-.212.145A3.131,3.131,0,0,0,7.469,9.243a.668.668,0,1,0,1.337,0A1.793,1.793,0,0,1,10.6,7.452,1.56,1.56,0,0,0,12.07,6.412a1.773,1.773,0,0,1,1.672-1.187h5.836a5,5,0,0,1,4.99,4.99V13.83c-1.035.291-1.173.679-1.963.72V11.523a2.791,2.791,0,0,0-2.788-2.788h-.025c-1.145,0-1.612.476-2.974.476h-.262c-1.348,0-1.838-.476-2.974-.476h-.025a2.791,2.791,0,0,0-2.788,2.788v2.606a6.391,6.391,0,0,0-1.963-.406V12.406a.668.668,0,0,0-1.337,0v1.613a2,2,0,0,0-.724,1.545v1.489a2.015,2.015,0,0,0,1.893,2.009A7.527,7.527,0,0,0,11.171,24c.217.186.438.36.664.522v2.811a.531.531,0,0,1-.462.525h0a32.712,32.712,0,0,0-7.5,1.685A6.5,6.5,0,0,0,.023,35.479v6.646A3.511,3.511,0,0,0,3.53,45.633H29.843a3.512,3.512,0,0,0,3.508-3.508V39.868a.668.668,0,0,0-1.337,0v2.257A2.173,2.173,0,0,1,29.843,44.3H28.126V40.651a.668.668,0,0,0-1.337,0V44.3H19.841l-1.233-9.117.626-.879a1.886,1.886,0,0,0,1.735-.393l3-2.579a1.879,1.879,0,0,0,.645-1.71,21.291,21.291,0,0,1,4.336,1.149,5.162,5.162,0,0,1,3.06,4.711v1.266a.668.668,0,1,0,1.337,0V35.479A6.5,6.5,0,0,0,29.5,29.546,32.721,32.721,0,0,0,22,27.862h0a.531.531,0,0,1-.462-.525V24.526c.226-.162.448-.335.664-.522a7.263,7.263,0,0,0,1.623-2.014l.289.289a2.622,2.622,0,0,0,3.711,0,1.079,1.079,0,0,1,1.844.764,2.627,2.627,0,0,0,2.624,2.624h1.05a2.627,2.627,0,0,0,2.624-2.624,1.079,1.079,0,0,1,1.844-.764,2.624,2.624,0,0,0,3.711,0l.742-.742a2.627,2.627,0,0,0,0-3.711,1.079,1.079,0,0,1,.759-1.844A2.584,2.584,0,0,0,45.652,13.4V12.266a2.585,2.585,0,0,0-2.629-2.581ZM17.565,34.339H15.809l-.512-.72,1.391-1,1.391,1Zm-3.59-1.416a.565.565,0,0,1-.7-.03l-3-2.579a.566.566,0,0,1,.278-.989c.28-.041.537-.077.759-.107l4.181,2.615ZM1.36,42.125V35.479a5.162,5.162,0,0,1,3.06-4.711,21.291,21.291,0,0,1,4.336-1.149,1.879,1.879,0,0,0,.645,1.71l3,2.579a1.886,1.886,0,0,0,1.735.393l.626.879L13.533,44.3H6.585V40.651a.668.668,0,0,0-1.337,0V44.3H3.53A2.174,2.174,0,0,1,1.36,42.125ZM14.882,44.3l1.166-8.62h1.278l1.166,8.62Zm8.4-14.569a.558.558,0,0,1-.175.587l-3,2.579a.565.565,0,0,1-.7.03l-1.513-1.089,4.181-2.615c.222.03.479.066.759.107a.559.559,0,0,1,.453.4ZM20.64,28.533l-3.953,2.473-3.953-2.473a1.859,1.859,0,0,0,.438-1.2V25.315a8.148,8.148,0,0,0,7.031,0v2.022A1.859,1.859,0,0,0,20.64,28.533Zm.691-5.542a6.941,6.941,0,0,1-9.288,0,6.239,6.239,0,0,1-2.11-4.61.668.668,0,0,0-.668-.654H8.757a.676.676,0,0,1-.675-.675V15.563a.671.671,0,0,1,.251-.522,4.357,4.357,0,0,1,2.223.5.91.91,0,0,0,1.55-.647V11.523a1.452,1.452,0,0,1,1.451-1.451,23.775,23.775,0,0,0,3,.476h.262c1.534,0,2.114-.476,2.974-.476h.025a1.452,1.452,0,0,1,1.451,1.451V14.65a1.242,1.242,0,0,0,1.242,1.24c1.265,0,1.607-.588,2.575-.811a.671.671,0,0,1,.207.485v1.489a.676.676,0,0,1-.675.675h-.508a.668.668,0,0,0-.668.654,6.239,6.239,0,0,1-2.11,4.61ZM44.315,13.4a1.261,1.261,0,0,1-1.3,1.245,2.417,2.417,0,0,0-1.7,4.126,1.289,1.289,0,0,1,0,1.82l-.742.742a1.287,1.287,0,0,1-1.82,0,2.417,2.417,0,0,0-4.126,1.709,1.288,1.288,0,0,1-1.287,1.287h-1.05a1.288,1.288,0,0,1-1.287-1.287,2.417,2.417,0,0,0-4.126-1.709,1.286,1.286,0,0,1-1.82,0l-.665-.665a7.843,7.843,0,0,0,.341-1.608,2.015,2.015,0,0,0,1.893-2.009V15.563a2,2,0,0,0-.724-1.545v-3.8a6.307,6.307,0,0,0-1.924-4.538,1.275,1.275,0,0,1,.337-.6l.742-.742a1.287,1.287,0,0,1,1.82,0,2.417,2.417,0,0,0,4.126-1.709,1.288,1.288,0,0,1,1.287-1.287h1.05A1.288,1.288,0,0,1,34.63,2.624,2.417,2.417,0,0,0,38.749,4.34a1.262,1.262,0,0,1,1.8-.037l.772.772a1.287,1.287,0,0,1,0,1.82,2.417,2.417,0,0,0,1.7,4.126,1.261,1.261,0,0,1,1.3,1.245V13.4Z" transform="translate(-0.023 0)" fill="#2d6250"/>
      </g>
    </g>
  </g>
</svg>
