<svg xmlns="http://www.w3.org/2000/svg" width="149.908" height="150" viewBox="0 0 149.908 150">
  <g id="img3" transform="translate(-705.986 -1710.002)">
    <g id="Group_1180300" data-name="Group 1180300" transform="translate(705.937 1710.002)">
      <g id="Grupo_155253" data-name="Grupo 155253" transform="matrix(0.999, 0.035, -0.035, 0.999, 5.061, 0)">
        <path id="Trazado_196478" data-name="Trazado 196478" d="M20.378,22.814q-.452.483-.9.974A75.7,75.7,0,0,0,.051,77.428l30.182-1.084c-.818-24.1,17.45-44.315,40.8-45.157S113.984,49.2,114.8,73.3l30.181-1.084c-1.018-30-19.313-56.469-46.471-67.233A70.928,70.928,0,0,0,20.378,22.822" transform="translate(0 0)" fill="#f9ce5d"/>
        <path id="Trazado_196479" data-name="Trazado 196479" d="M0,5.22c1.4,41.3,34.98,73.608,75,72.166S146.333,41.3,144.933,0L114.75,1.084c.818,24.1-17.451,44.314-40.8,45.156S31,28.229,30.182,4.132Z" transform="translate(0.049 67.594)" fill="#70f5c8"/>
      </g>
      <ellipse id="Ellipse_13685" data-name="Ellipse 13685" cx="58.366" cy="58.462" rx="58.366" ry="58.462" transform="translate(16.722 16.827)" fill="#fff"/>
    </g>
    <g id="Group_1184511" data-name="Group 1184511" transform="translate(739.937 1764.113)">
      <g id="Group_1184509" data-name="Group 1184509" transform="translate(1.123 -17.142)">
        <g id="Group_1184507" data-name="Group 1184507">
          <g id="Group_1184501" data-name="Group 1184501" transform="translate(34.541)">
            <circle id="Ellipse_13788" data-name="Ellipse 13788" cx="16.504" cy="16.504" r="16.504" transform="translate(0 23.336) rotate(-45)" fill="#fe646f"/>
            <path id="Path_1032273" data-name="Path 1032273" d="M323.068,36.317a16.509,16.509,0,0,1-19.725,24.675,16.505,16.505,0,1,0,19.725-24.675Z" transform="translate(-293.603 -28.315)" fill="#fd4755"/>
            <g id="Group_1184500" data-name="Group 1184500" transform="translate(7.509 7.509)">
              <circle id="Ellipse_13789" data-name="Ellipse 13789" cx="11.193" cy="11.193" r="11.193" transform="translate(0 15.828) rotate(-45)" fill="#fff"/>
              <path id="Path_1032274" data-name="Path 1032274" d="M377.659,94.338c.009.219.014.438.014.659a16.508,16.508,0,0,1-13.523,16.235,11.193,11.193,0,0,0,13.509-16.894Z" transform="translate(-352.817 -85.161)" fill="#f5f8f9"/>
            </g>
          </g>
          <path id="Path_1032275" data-name="Path 1032275" d="M139.531,309.836H99.646a3.742,3.742,0,0,1-3.742-3.742V286.748a7.484,7.484,0,0,1,7.484-7.484h32.4a7.484,7.484,0,0,1,7.484,7.484v19.347A3.742,3.742,0,0,1,139.531,309.836Z" transform="translate(-82.672 -234.899)" fill="#0593fc"/>
          <path id="Path_1032276" data-name="Path 1032276" d="M210.418,258.042H202a6.2,6.2,0,0,1-1.649-.224l-2.581,3.21,7.745,18.891a.748.748,0,0,0,1.385,0l7.745-18.891-2.581-3.21A6.2,6.2,0,0,1,210.418,258.042Z" transform="translate(-169.294 -216.663)" fill="#fff"/>
          <path id="Path_1032277" data-name="Path 1032277" d="M250.981,261.041l-7.9,19.269.963,2.349a.748.748,0,0,0,1.385,0l7.745-18.891Z" transform="translate(-207.82 -219.403)" fill="#f5f8f9"/>
          <path id="Path_1032278" data-name="Path 1032278" d="M210.418,258.042H202a6.2,6.2,0,0,1-1.649-.224l-2.581,3.21,3.186,7.771,5.251-4.6,5.251,4.6,3.186-7.771-2.581-3.21A6.2,6.2,0,0,1,210.418,258.042Z" transform="translate(-169.294 -216.663)" fill="#e8edf2"/>
          <path id="Path_1032279" data-name="Path 1032279" d="M276.377,261.041l-3.429,8.365,2.436,2.134,3.186-7.771Z" transform="translate(-233.217 -219.403)" fill="#d9e7ec"/>
          <path id="Path_1032280" data-name="Path 1032280" d="M234.246,259.307H225.8l4.243,6.159,4.243-6.159Z" transform="translate(-193.122 -217.928)" fill="#ffb09e"/>
          <path id="Path_1032281" data-name="Path 1032281" d="M157.823,47.017h2.167V43.994a2.1,2.1,0,0,1,2.1-2.1h16.645a2.1,2.1,0,0,1,2.1,2.1v3.022h2.167a3.928,3.928,0,0,1,2.154.641V40.52a12.04,12.04,0,0,0-12.04-12.04h-5.4a12.04,12.04,0,0,0-12.04,12.04v7.138A3.926,3.926,0,0,1,157.823,47.017Z" transform="translate(-133.492 -21.651)" fill="#596c76"/>
          <g id="Group_1184502" data-name="Group 1184502" transform="translate(42.994 7.312)">
            <path id="Path_1032282" data-name="Path 1032282" d="M294.745,31.713V44.648h2.245a2.1,2.1,0,0,1,2.1,2.1v3.022h2.167a3.928,3.928,0,0,1,2.154.641V43.269a12.043,12.043,0,0,0-8.662-11.556Z" transform="translate(-294.745 -31.713)" fill="#465a61"/>
          </g>
          <g id="Group_1184503" data-name="Group 1184503" transform="translate(20.23 25.216)">
            <path id="Path_1032283" data-name="Path 1032283" d="M148.925,151.325h-2.167a4.1,4.1,0,0,0,0,8.2h2.167Z" transform="translate(-142.656 -151.325)" fill="#ffcebf"/>
            <path id="Path_1032284" data-name="Path 1032284" d="M325.912,151.325h-2.167v8.2h2.167a4.1,4.1,0,1,0,0-8.2Z" transform="translate(-296.64 -151.325)" fill="#ffb09e"/>
          </g>
          <path id="Path_1032285" data-name="Path 1032285" d="M198.313,138.563H189.9a6.36,6.36,0,0,1-6.36-6.36V119.377a2.245,2.245,0,0,1,2.245-2.245h16.645a2.245,2.245,0,0,1,2.245,2.245V132.2A6.36,6.36,0,0,1,198.313,138.563Z" transform="translate(-157.189 -97.034)" fill="#ffdfcf"/>
          <g id="Group_1184504" data-name="Group 1184504" transform="translate(38.592 20.098)">
            <path id="Path_1032286" data-name="Path 1032286" d="M271.985,117.133H269.74v14.611a7.484,7.484,0,0,1-4.4,6.819h2.532a6.36,6.36,0,0,0,6.36-6.36V119.378a2.245,2.245,0,0,0-2.245-2.245Z" transform="translate(-265.338 -117.133)" fill="#ffcebf"/>
          </g>
          <g id="Group_1184505" data-name="Group 1184505" transform="translate(0 39.664)">
            <path id="Path_1032287" data-name="Path 1032287" d="M7.5,262.283v-2.15a1.242,1.242,0,0,1,.858-1.181l1.352-.439a1.248,1.248,0,0,0,.8-.782,10.824,10.824,0,0,1,.574-1.384,1.227,1.227,0,0,0-.012-1.1l-.65-1.276a1.242,1.242,0,0,1,.228-1.442l1.52-1.52a1.241,1.241,0,0,1,1.442-.228l1.276.65a1.227,1.227,0,0,0,1.1.012,10.869,10.869,0,0,1,1.384-.574,1.248,1.248,0,0,0,.782-.8l.439-1.352a1.241,1.241,0,0,1,1.181-.858h2.15a1.242,1.242,0,0,1,1.181.858l.439,1.352a1.248,1.248,0,0,0,.782.8,10.825,10.825,0,0,1,1.384.574,1.227,1.227,0,0,0,1.1-.012l1.276-.65a1.242,1.242,0,0,1,1.442.228l1.52,1.52a1.241,1.241,0,0,1,.228,1.442l-.65,1.276a1.227,1.227,0,0,0-.012,1.1,10.866,10.866,0,0,1,.574,1.384,1.248,1.248,0,0,0,.8.782l1.352.439a1.241,1.241,0,0,1,.858,1.181v2.15a1.242,1.242,0,0,1-.858,1.181l-1.352.439a1.248,1.248,0,0,0-.8.782,10.823,10.823,0,0,1-.574,1.384,1.227,1.227,0,0,0,.012,1.1l.65,1.276a1.242,1.242,0,0,1-.228,1.441l-1.52,1.52a1.241,1.241,0,0,1-1.442.228l-1.276-.65a1.227,1.227,0,0,0-1.1-.012,10.869,10.869,0,0,1-1.384.574,1.248,1.248,0,0,0-.782.8l-.439,1.352a1.241,1.241,0,0,1-1.181.858h-2.15A1.242,1.242,0,0,1,18.6,273.7l-.439-1.352a1.248,1.248,0,0,0-.782-.8,10.829,10.829,0,0,1-1.384-.574,1.227,1.227,0,0,0-1.1.012l-1.276.65a1.242,1.242,0,0,1-1.442-.228l-1.52-1.52a1.241,1.241,0,0,1-.228-1.441l.65-1.276a1.227,1.227,0,0,0,.012-1.1,10.867,10.867,0,0,1-.574-1.384,1.248,1.248,0,0,0-.8-.782l-1.352-.439a1.242,1.242,0,0,1-.858-1.181Z" transform="translate(-7.5 -247.856)" fill="#c5d3dd"/>
          </g>
          <g id="Group_1184506" data-name="Group 1184506" transform="translate(7.559 47.186)">
            <circle id="Ellipse_13790" data-name="Ellipse 13790" cx="4.864" cy="4.864" r="4.864" transform="translate(0 9.495) rotate(-77.297)" fill="#9facba"/>
          </g>
          <path id="Path_1032288" data-name="Path 1032288" d="M73.962,305.6a4.866,4.866,0,0,1-5.445,7.128,4.864,4.864,0,1,0,5.445-7.128Z" transform="translate(-59.384 -257.296)" fill="#8d9ca8"/>
        </g>
        <path id="Path_1032289" data-name="Path 1032289" d="M137.286,280.266V303.2a1.5,1.5,0,0,1-1.5,1.5H95.9v2.245a3.742,3.742,0,0,0,3.742,3.742h39.885a3.742,3.742,0,0,0,3.742-3.742V287.6A7.486,7.486,0,0,0,137.286,280.266Z" transform="translate(-82.672 -235.751)" fill="#0182fc"/>
        <g id="Group_1184508" data-name="Group 1184508" transform="translate(9.925 42.451)">
          <path id="Path_1032290" data-name="Path 1032290" d="M89.731,274.785l-1.352-.439a1.248,1.248,0,0,1-.8-.782A10.827,10.827,0,0,0,87,272.179a1.227,1.227,0,0,1,.012-1.1l.65-1.276a1.242,1.242,0,0,0-.228-1.442l-1.52-1.52a1.241,1.241,0,0,0-1.442-.228l-1.276.65a1.26,1.26,0,0,1-.382.122A13.023,13.023,0,0,1,73.809,287.4a1.249,1.249,0,0,1,.732.781l.439,1.352a1.241,1.241,0,0,0,1.181.858h2.15a1.242,1.242,0,0,0,1.181-.858l.439-1.352a1.248,1.248,0,0,1,.782-.8,10.829,10.829,0,0,0,1.384-.574,1.226,1.226,0,0,1,1.1.012l1.276.65a1.242,1.242,0,0,0,1.442-.228l1.52-1.52a1.241,1.241,0,0,0,.228-1.442L87.016,283A1.227,1.227,0,0,1,87,281.9a10.868,10.868,0,0,0,.574-1.384,1.248,1.248,0,0,1,.8-.782l1.352-.439a1.241,1.241,0,0,0,.858-1.181v-2.15A1.241,1.241,0,0,0,89.731,274.785Z" transform="translate(-73.809 -266.475)" fill="#b6c4cf"/>
        </g>
      </g>
      <g id="Group_1184510" data-name="Group 1184510" transform="translate(0 -11.436)">
        <path id="Path_1032291" data-name="Path 1032291" d="M387.119,95.978l3.416,2.994a1.123,1.123,0,0,0,1.48-1.689l-3.034-2.658V88.581a1.123,1.123,0,1,0-2.245,0v6.554A1.123,1.123,0,0,0,387.119,95.978Z" transform="translate(-328.851 -77.508)"/>
        <path id="Path_1032294" data-name="Path 1032294" d="M228.566,193.028a1.122,1.122,0,0,0-1.123,1.123,2.979,2.979,0,0,1-5.958,0,1.123,1.123,0,1,0-2.245,0,5.224,5.224,0,0,0,10.448,0A1.122,1.122,0,0,0,228.566,193.028Z" transform="translate(-186.426 -167.276)"/>
        <path id="Path_1032295" data-name="Path 1032295" d="M246.642,330.355v.3a1.123,1.123,0,1,0,2.245,0v-.3a1.123,1.123,0,1,0-2.245,0Z" transform="translate(-209.725 -283.094)"/>
        <path id="Path_1032296" data-name="Path 1032296" d="M62.7,297.062a6.015,6.015,0,0,0-1.432.174,1.122,1.122,0,1,0,.535,2.18,3.743,3.743,0,1,1-2.776,2.92,1.123,1.123,0,1,0-2.2-.425,5.987,5.987,0,1,0,5.878-4.849Z" transform="translate(-48.221 -255.739)"/>
        <path id="Path_1032297" data-name="Path 1032297" d="M59.008,20.979a17.457,17.457,0,0,0-9.878,3.03,13.1,13.1,0,0,0-8.392-3.03h-5.4A13.178,13.178,0,0,0,22.177,34.142v6.384a5.221,5.221,0,0,0,3.276,9.289h.9v.627a7.489,7.489,0,0,0,3.918,6.578l-1.2,1.5H25.172L23.95,57.294a2.359,2.359,0,0,0-2.745-.435l-1.277.651a.109.109,0,0,1-.092.008,11.982,11.982,0,0,0-1.527-.633.129.129,0,0,1-.072-.084L17.8,55.448a2.358,2.358,0,0,0-2.248-1.634H13.4a2.358,2.358,0,0,0-2.248,1.634L10.712,56.8a.129.129,0,0,1-.072.084,12.017,12.017,0,0,0-1.527.634.109.109,0,0,1-.092-.008l-1.277-.651A2.359,2.359,0,0,0,5,57.294l-1.52,1.52a2.358,2.358,0,0,0-.435,2.745l.65,1.276a.11.11,0,0,1,.008.092,12.023,12.023,0,0,0-.634,1.527.129.129,0,0,1-.084.072l-1.352.439A2.359,2.359,0,0,0,0,67.214v2.15a2.358,2.358,0,0,0,1.634,2.248l1.352.439a.13.13,0,0,1,.084.072A12,12,0,0,0,3.7,73.651a.11.11,0,0,1-.008.092l-.65,1.277a2.358,2.358,0,0,0,.435,2.745L5,79.284a2.358,2.358,0,0,0,2.745.435l1.277-.65a.109.109,0,0,1,.092-.008,11.989,11.989,0,0,0,1.527.634.129.129,0,0,1,.072.084l.439,1.352a2.357,2.357,0,0,0,2.081,1.627v3.711A4.87,4.87,0,0,0,18.1,91.333H45.64a1.123,1.123,0,1,0,0-2.245H18.1a2.622,2.622,0,0,1-2.619-2.619v-3.7h.073A2.358,2.358,0,0,0,17.8,81.13l.439-1.352a.129.129,0,0,1,.072-.084,12.029,12.029,0,0,0,1.527-.633.109.109,0,0,1,.092.008l1.276.65a2.357,2.357,0,0,0,2.745-.435l1.52-1.52A2.359,2.359,0,0,0,25.9,75.02l-.65-1.276a.11.11,0,0,1-.008-.092,12.03,12.03,0,0,0,.634-1.527.129.129,0,0,1,.084-.072l1.352-.439a2.358,2.358,0,0,0,1.634-2.248v-2.15a2.358,2.358,0,0,0-1.634-2.248l-1.352-.439a.129.129,0,0,1-.084-.072,12,12,0,0,0-.634-1.527.109.109,0,0,1,.008-.092l.65-1.277a2.364,2.364,0,0,0,.241-.8h2.7l7.459,18.194a1.871,1.871,0,0,0,3.462,0l7.459-18.194H54.24A6.368,6.368,0,0,1,60.6,67.122V86.469a2.622,2.622,0,0,1-2.619,2.619h-7.1a1.123,1.123,0,1,0,0,2.245h7.1a4.87,4.87,0,0,0,4.864-4.864V67.122a8.616,8.616,0,0,0-8.606-8.606H47.014l-1.2-1.5a7.528,7.528,0,0,0,3.374-3.782,17.667,17.667,0,0,0,9.823,2.994A17.474,17.474,0,0,0,69.6,52.7a1.123,1.123,0,1,0-1.35-1.794,15.246,15.246,0,0,1-9.239,3.083,15.411,15.411,0,0,1-9.291-3.125c.008-.139.013-.279.013-.421v-.627h.9a5.194,5.194,0,0,0,2.27-.52,12.317,12.317,0,1,0-.426-21.12,13.2,13.2,0,0,0-1.708-2.554,15.233,15.233,0,0,1,8.247-2.4A15.381,15.381,0,0,1,71.637,47.386a1.122,1.122,0,1,0,1.842,1.283A17.627,17.627,0,0,0,59.008,20.979ZM25.271,66.662l1.352.439a.119.119,0,0,1,.082.113v2.15a.119.119,0,0,1-.082.113l-1.352.439a2.378,2.378,0,0,0-1.519,1.492,9.755,9.755,0,0,1-.515,1.24,2.357,2.357,0,0,0,.017,2.113l.65,1.276a.119.119,0,0,1-.022.138l-1.52,1.52a.118.118,0,0,1-.138.022l-1.276-.65a2.356,2.356,0,0,0-2.113-.017,9.746,9.746,0,0,1-1.24.515A2.378,2.378,0,0,0,16.1,79.085l-.439,1.352a.119.119,0,0,1-.113.082H13.4a.119.119,0,0,1-.113-.082l-.439-1.352a2.379,2.379,0,0,0-1.492-1.518,9.734,9.734,0,0,1-1.24-.515,2.322,2.322,0,0,0-1.035-.242A2.373,2.373,0,0,0,8,77.069l-1.277.65a.118.118,0,0,1-.138-.022l-1.52-1.52a.118.118,0,0,1-.022-.138l.65-1.276a2.356,2.356,0,0,0,.017-2.113A9.747,9.747,0,0,1,5.2,71.409a2.378,2.378,0,0,0-1.519-1.492l-1.352-.439a.119.119,0,0,1-.082-.113v-2.15a.119.119,0,0,1,.082-.113l1.352-.439A2.377,2.377,0,0,0,5.2,65.169a9.776,9.776,0,0,1,.515-1.24A2.356,2.356,0,0,0,5.7,61.816l-.65-1.276a.119.119,0,0,1,.022-.138l1.52-1.52a.119.119,0,0,1,.138-.022L8,59.51a2.355,2.355,0,0,0,2.113.017,9.769,9.769,0,0,1,1.24-.515,2.379,2.379,0,0,0,1.492-1.519l.439-1.352a.119.119,0,0,1,.113-.082h2.15a.119.119,0,0,1,.113.082l.439,1.352a2.378,2.378,0,0,0,1.492,1.519,9.74,9.74,0,0,1,1.24.514,2.357,2.357,0,0,0,2.113-.016l1.276-.65a.119.119,0,0,1,.138.022l1.52,1.52a.119.119,0,0,1,.022.138l-.65,1.277a2.356,2.356,0,0,0-.017,2.112,9.754,9.754,0,0,1,.515,1.24A2.378,2.378,0,0,0,25.271,66.662Zm1.078-19.093h-.9a2.979,2.979,0,0,1,0-5.958h.9Zm4.543,12.256,1.624-2.019a7.636,7.636,0,0,0,.78.1l3.252,4.722L33.231,65.53Zm5.145-1.9h4.005l-2,2.907Zm2,19.335-3.908-9.533L38.039,64.3l3.908,3.423ZM42.848,65.53,39.53,62.624,42.783,57.9a7.63,7.63,0,0,0,.78-.1l1.623,2.019Zm4.637-15.088a5.243,5.243,0,0,1-5.237,5.237H33.831a5.243,5.243,0,0,1-5.237-5.237V37.616a1.124,1.124,0,0,1,1.123-1.123H46.362a1.124,1.124,0,0,1,1.123,1.123ZM59.008,28.535a10.071,10.071,0,1,1-4.225,19.213,5.213,5.213,0,0,0-.882-7.222V34.142a13.12,13.12,0,0,0-.575-3.849A9.943,9.943,0,0,1,59.008,28.535ZM53.6,44.59a2.982,2.982,0,0,1-2.979,2.979h-.9V41.611h.9A2.982,2.982,0,0,1,53.6,44.59ZM51.656,34.142v5.327a5.227,5.227,0,0,0-1.031-.1h-.9v-1.75a3.372,3.372,0,0,0-3.368-3.368H29.717a3.372,3.372,0,0,0-3.368,3.368v1.75h-.9a5.229,5.229,0,0,0-1.031.1V34.142A10.93,10.93,0,0,1,35.34,23.224h5.4A10.93,10.93,0,0,1,51.656,34.142Z" transform="translate(0 -20.979)"/>
      </g>
    </g>
  </g>
</svg>
