<svg xmlns="http://www.w3.org/2000/svg" width="60" height="60" viewBox="0 0 60 60">
  <g id="img36" transform="translate(-517.711 -3973)">
    <rect id="Rectangle_456510" data-name="Rectangle 456510" width="60" height="60" rx="5" transform="translate(517.711 3973)" fill="#ff9e74"/>
    <g id="Group_1184551" data-name="Group 1184551" transform="translate(522.968 3977.677)">
      <path id="Path_1032478" data-name="Path 1032478" d="M43.373,36.07H28.458v-.7a5.837,5.837,0,0,0-5.837-5.837H10.548A8.548,8.548,0,0,0,2,38.084v8.537a5.709,5.709,0,0,0,5.709,5.707H37.794a.758.758,0,0,0,.666-.4L45.31,39.325a2.2,2.2,0,0,0-1.937-3.26ZM7.709,50.812a4.194,4.194,0,0,1-4.193-4.19V38.083a7.032,7.032,0,0,1,7.033-7.032H22.62a4.321,4.321,0,0,1,4.321,4.321v.7h-.485a3.581,3.581,0,0,0-3.1,1.791l-3.639,6.325H12.456a1.721,1.721,0,0,1-1.719-1.719V39.5a.758.758,0,1,0-1.516,0v2.965A3.239,3.239,0,0,0,12.456,45.7h6.4l-2.939,5.11ZM43.978,38.606,39.416,47H30.142a.758.758,0,1,0,0,1.516h8.449l-1.249,2.3H17.662l7.012-12.2a2.061,2.061,0,0,1,1.782-1.031H43.373a.688.688,0,0,1,.606,1.017Z" transform="translate(0 -6.081)" fill="#2d6250"/>
      <path id="Path_1032479" data-name="Path 1032479" d="M8.39,14.54a7.593,7.593,0,1,0,7.593-7.593A7.593,7.593,0,0,0,8.39,14.54Zm13.669,0a6.077,6.077,0,1,1-6.077-6.077,6.077,6.077,0,0,1,6.077,6.077Z" transform="translate(-1.546 -0.616)" fill="#2d6250"/>
      <path id="Path_1032480" data-name="Path 1032480" d="M35.153,52.579h-.477a.758.758,0,0,0,0,1.516h.477a.758.758,0,0,0,0-1.516Z" transform="translate(-7.721 -11.654)" fill="#2d6250"/>
      <path id="Path_1032481" data-name="Path 1032481" d="M46.264,4.4a9.606,9.606,0,1,0,9.606,9.605A9.606,9.606,0,0,0,46.264,4.4Zm0,17.7a8.09,8.09,0,1,1,8.09-8.09,8.09,8.09,0,0,1-8.09,8.09Z" transform="translate(-8.384)" fill="#2d6250"/>
      <path id="Path_1032482" data-name="Path 1032482" d="M51.725,18.9a.758.758,0,0,0-.758.758v1.579a.278.278,0,0,1-.278.279H45.012a.279.279,0,0,1-.278-.279V19.658a.758.758,0,1,0-1.516,0v1.579a1.8,1.8,0,0,0,1.794,1.8h5.676a1.8,1.8,0,0,0,1.794-1.8V19.658A.758.758,0,0,0,51.725,18.9Z" transform="translate(-9.97 -3.507)" fill="#2d6250"/>
      <path id="Path_1032483" data-name="Path 1032483" d="M47.79,17.605a.786.786,0,0,0,.121.076.645.645,0,0,0,.754,0,.752.752,0,0,0,.121-.076l2.492-2.172a.758.758,0,1,0-1-1.142l-1.236,1.078V10.544a.758.758,0,0,0-1.516,0v4.825l-1.235-1.077a.758.758,0,1,0-1,1.142Z" transform="translate(-10.407 -1.303)" fill="#2d6250"/>
    </g>
  </g>
</svg>
