<svg xmlns="http://www.w3.org/2000/svg" width="60" height="60" viewBox="0 0 60 60">
  <g id="img34" transform="translate(-517.711 -3973)">
    <rect id="Rectangle_456510" data-name="Rectangle 456510" width="60" height="60" rx="5" transform="translate(517.711 3973)" fill="#ff9e74"/>
    <g id="Group_1184548" data-name="Group 1184548" transform="translate(508.461 3961.842)">
      <path id="Path_1032468" data-name="Path 1032468" d="M52.9,40.677a.828.828,0,0,0,0-1.657H45.726a.828.828,0,1,0,0,1.657Z" transform="translate(-14.559 -10.459)" fill="#2d6250"/>
      <path id="Path_1032469" data-name="Path 1032469" d="M53.1,33.782a.828.828,0,1,0,0-1.657H49.524a.828.828,0,0,0,0,1.657Z" transform="translate(-16.559 -6.828)" fill="#2d6250"/>
      <path id="Path_1032470" data-name="Path 1032470" d="M49.954,68.272a5.687,5.687,0,0,0,3.52-1.172.829.829,0,0,0-1.028-1.3,4.266,4.266,0,0,1-4.975,0,.829.829,0,1,0-1.028,1.3A5.673,5.673,0,0,0,49.954,68.272Z" transform="translate(-15.206 -24.467)" fill="#2d6250"/>
      <path id="Path_1032471" data-name="Path 1032471" d="M51.647,60.667a3.233,3.233,0,0,0,2-.666.829.829,0,1,0-1.028-1.3,1.688,1.688,0,0,1-1.941,0A.83.83,0,0,0,49.65,60,3.227,3.227,0,0,0,51.647,60.667Z" transform="translate(-16.895 -20.728)" fill="#2d6250"/>
      <path id="Path_1032472" data-name="Path 1032472" d="M40.693,51.516a.825.825,0,0,0,.514-.179,1.689,1.689,0,0,1,1.941,0,.829.829,0,0,0,1.028-1.3,3.337,3.337,0,0,0-4,0,.828.828,0,0,0,.515,1.478Z" transform="translate(-11.908 -15.91)" fill="#2d6250"/>
      <path id="Path_1032473" data-name="Path 1032473" d="M59.637,51.516a.825.825,0,0,0,.513-.179,1.689,1.689,0,0,1,1.941,0,.828.828,0,1,0,1.028-1.3,3.336,3.336,0,0,0-4,0,.828.828,0,0,0,.515,1.478Z" transform="translate(-21.883 -15.91)" fill="#2d6250"/>
      <path id="Path_1032474" data-name="Path 1032474" d="M91.583,76.458h-.555a.426.426,0,0,1-.426-.426.828.828,0,1,0-1.657,0,2.087,2.087,0,0,0,1.66,2.039v.237a.828.828,0,0,0,1.657,0V78a2.334,2.334,0,0,0,1.659-2.225,2.1,2.1,0,0,0-1.6-2.041L90.941,73.4a.443.443,0,0,1-.339-.432v-.255a.426.426,0,0,1,.426-.426h.81a.426.426,0,0,1,.426.426.828.828,0,1,0,1.657,0,2.087,2.087,0,0,0-1.659-2.039v-.237a.828.828,0,1,0-1.657,0v.237a2.087,2.087,0,0,0-1.66,2.039v.252a2.1,2.1,0,0,0,1.6,2.041l1.378.336a.443.443,0,0,1,.338.432A.682.682,0,0,1,91.583,76.458Z" transform="translate(-37.753 -26.567)" fill="#2d6250"/>
      <path id="Path_1032475" data-name="Path 1032475" d="M26.416,48.7l-5,2.15a6.344,6.344,0,0,0-4.162,5.939v4.9a.828.828,0,0,0,.828.828H59.725a1.792,1.792,0,0,0,1.79-1.79V59.045a1.777,1.777,0,0,0-.284-.962,1.786,1.786,0,0,0,.284-.965V55.437a1.792,1.792,0,0,0-1.79-1.79H58.9a7.833,7.833,0,1,0-12.735-3.625L43.091,48.7l0,0-2.426-1.46v-.748a10.636,10.636,0,0,0,4.554-7.089,4.13,4.13,0,0,0,2.445-1.2,4.182,4.182,0,0,0,.164-5.741,35.432,35.432,0,0,0,.317-4.262,6.3,6.3,0,0,0-6.283-6.3,10.552,10.552,0,0,0-14.212,0,6.308,6.308,0,0,0-6.28,6.327,35.067,35.067,0,0,0,.318,4.236,4.18,4.18,0,0,0,2.61,6.933A10.643,10.643,0,0,0,28.845,46.5v.743ZM59.858,60.73a.133.133,0,0,1-.133.133H47.639a.135.135,0,0,1-.137-.133V59.045a.135.135,0,0,1,.137-.133H59.725a.133.133,0,0,1,.133.133ZM59.725,55.3a.133.133,0,0,1,.133.133v1.681a.135.135,0,0,1-.133.137H47.639a.135.135,0,0,1-.137-.137V55.437a.135.135,0,0,1,.137-.133ZM53.68,41.628a6.177,6.177,0,0,1,2.006,12.02H51.673a5.552,5.552,0,0,1-.568-.227A6.178,6.178,0,0,1,53.68,41.628ZM43.163,50.539,47.271,52.3a7.747,7.747,0,0,0,1.193,1.348h-.826a1.794,1.794,0,0,0-1.794,1.79v1.681a1.779,1.779,0,0,0,.284.965,1.77,1.77,0,0,0-.284.962V60.73c0,.047.01.088.013.133H18.907V56.791a4.7,4.7,0,0,1,3.116-4.4l4.318-1.854,1.434,3.539,1.136,2.8a.83.83,0,0,0,.53.484.054.054,0,0,1,.021,0,.818.818,0,0,0,.189.027c.008,0,.016,0,.024,0s.029-.006.044-.007a.8.8,0,0,0,.164-.025c.022-.006.043-.01.064-.018a.829.829,0,0,0,.2-.1l2.97-2.078L34.75,54.03l4.6,3.219c.006,0,.014.006.02.01a.845.845,0,0,0,.181.089c.023.008.047.014.071.02a.876.876,0,0,0,.16.025c.015,0,.028.006.043.006a.125.125,0,0,0,.023,0,.789.789,0,0,0,.2-.029h.011a.971.971,0,0,0,.533-.483L42.165,53ZM34.75,51.817l-2.823-2.954h0L30.56,47.435a10.611,10.611,0,0,0,8.387,0Zm6.928-2.028-.966,2.387-1.263,3.118-2.087-1.461-1.344-.94L39.361,49.4a.684.684,0,0,0,.057-.054l.555-.583Zm5.55-14.538a2.531,2.531,0,0,1-.745,1.793,2.479,2.479,0,0,1-1.126.643v-4.87a2.467,2.467,0,0,1,1.008.536A2.516,2.516,0,0,1,47.228,35.251Zm-.745-7.074c-.04,1.1-.112,2.341-.192,3.2a4.161,4.161,0,0,0-.935-.264V29.764A10.528,10.528,0,0,0,43.6,23.917a4.626,4.626,0,0,1,2.884,4.259ZM24.149,37.684a2.524,2.524,0,0,1-1.128-4.225c.025-.024.047-.047.073-.07l.02-.017.014-.011.021-.017a2.447,2.447,0,0,1,1-.529Zm0-7.921v1.353a4.148,4.148,0,0,0-.936.264c-.079-.86-.151-2.1-.189-3.172a4.645,4.645,0,0,1,2.884-4.3,10.5,10.5,0,0,0-1.758,5.851Zm1.7,8.758a7.628,7.628,0,0,1-.043-.828v-7.93A8.945,8.945,0,0,1,41,23.358c.029.026.054.052.08.078h0A8.888,8.888,0,0,1,43.7,29.764v7.93a7.731,7.731,0,0,1-.044.843,8.942,8.942,0,0,1-17.809-.015ZM29.535,48.76l1.186,1.247a.8.8,0,0,0,.058.055l2.706,2.832-3.429,2.4-.8-1.959-1.434-3.546Z" fill="#2d6250"/>
    </g>
  </g>
</svg>
