<svg xmlns="http://www.w3.org/2000/svg" width="90" height="90" viewBox="0 0 90 90">
  <g id="img48" transform="translate(-338.711 -12699)">
    <circle id="Ellipse_13756" data-name="Ellipse 13756" cx="45" cy="45" r="45" transform="translate(338.711 12699)" fill="#fff"/>
    <g id="layer1" transform="translate(348.788 12721.695)">
      <g id="g1008" transform="translate(21.097 0)">
        <path id="path950" d="M170.415-23.461a4.583,4.583,0,0,0-4.583,4.583,4.583,4.583,0,0,0,4.583,4.583h12.374V-6.5H170.415a4.583,4.583,0,0,0-4.583,4.583V15.037a4.583,4.583,0,0,0,4.583,4.583h16.958a4.583,4.583,0,0,0,0-9.166H175V2.663h12.374a4.583,4.583,0,0,0,4.583-4.583V-18.878a4.583,4.583,0,0,0-4.583-4.583Z" transform="translate(-165.068 24.224)" fill="#ef937e"/>
        <path id="path1043" d="M173.425-21.528a8.622,8.622,0,0,0-2.778.239,3.964,3.964,0,0,0-2.166,2.038.764.764,0,0,0,.308,1.035.764.764,0,0,0,1.035-.308c.48-.886.827-1.157,1.306-1.316a8.487,8.487,0,0,1,2.3-.161.764.764,0,0,0,.764-.764.764.764,0,0,0-.764-.764Z" transform="translate(-166.597 23.07)" fill="#fff"/>
        <path id="path1035-7" d="M212.105,70.01a1.528,1.528,0,0,0-1.473,1.133,1.714,1.714,0,0,1-1.354.744h-4.359a1.528,1.528,0,0,0,0,3.055h4.359a4.268,4.268,0,0,0,4.3-3.009,1.529,1.529,0,0,0-1.478-1.923Z" transform="translate(-187.533 -31.683)" fill="#ea6e52"/>
        <path id="path1002" d="M169.278-25.361a5.358,5.358,0,0,0-5.347,5.347,5.358,5.358,0,0,0,5.347,5.347h11.61V-8.4h-11.61a5.359,5.359,0,0,0-5.347,5.347V13.9a5.359,5.359,0,0,0,5.347,5.347h16.957a5.347,5.347,0,0,0,0-10.694H174.625V2.29h11.611a5.359,5.359,0,0,0,5.347-5.347V-20.014a5.359,5.359,0,0,0-5.347-5.347Zm0,1.527h16.957a3.808,3.808,0,0,1,3.819,3.819V-3.057A3.808,3.808,0,0,1,186.236.762H173.861a.764.764,0,0,0-.764.764V9.317a.764.764,0,0,0,.764.764h12.374a3.819,3.819,0,0,1,0,7.639H169.278a3.808,3.808,0,0,1-3.819-3.819V-3.057a3.808,3.808,0,0,1,3.819-3.819h12.374a.764.764,0,0,0,.764-.764v-7.791a.764.764,0,0,0-.764-.764H169.278a3.808,3.808,0,0,1-3.819-3.819,3.808,3.808,0,0,1,3.819-3.819Z" transform="translate(-163.931 25.361)"/>
      </g>
    </g>
  </g>
</svg>
