<svg xmlns="http://www.w3.org/2000/svg" width="127.921" height="128" viewBox="0 0 127.921 128">
  <g id="img41" transform="translate(-705.978 -1710.002)">
    <g id="Group_1180300" data-name="Group 1180300" transform="translate(705.936 1710.002)">
      <g id="Grupo_155253" data-name="Grupo 155253" transform="matrix(0.999, 0.035, -0.035, 0.999, 4.319, 0)">
        <path id="Trazado_196478" data-name="Trazado 196478" d="M17.389,19.468q-.386.412-.764.831A64.6,64.6,0,0,0,.044,66.072L25.8,65.147C25.1,44.584,40.69,27.331,60.618,26.613S97.267,41.982,97.965,62.546l25.755-.925c-.869-25.6-16.481-48.187-39.655-57.372A60.525,60.525,0,0,0,17.389,19.475" transform="translate(0 0)" fill="#f9ce5d"/>
        <path id="Trazado_196479" data-name="Trazado 196479" d="M0,4.454C1.195,39.7,29.849,67.266,64,66.036S124.871,35.241,123.676,0L97.92.925c.7,20.563-14.891,37.815-34.819,38.533S26.453,24.089,25.755,3.526Z" transform="translate(0.042 57.68)" fill="#70f5c8"/>
      </g>
      <ellipse id="Ellipse_13685" data-name="Ellipse 13685" cx="49.806" cy="49.887" rx="49.806" ry="49.887" transform="translate(14.269 14.359)" fill="#fff"/>
    </g>
    <g id="Group_1184553" data-name="Group 1184553" transform="translate(731.439 1737.791)">
      <g id="Group_1184552" data-name="Group 1184552" transform="translate(11.17 6.357)">
        <path id="Path_1032484" data-name="Path 1032484" d="M60.706,30.118,58.5,27.19l2.207-5.011V12.922A5.736,5.736,0,0,0,54.794,7.19L23.643,10.553V33.729l2.477,3.315-2.477,4V61.165A5.736,5.736,0,0,0,29.38,66.9H66.442l-5.736-5.978Z" transform="translate(-17.524 -7.187)" fill="#ffd3a3"/>
        <path id="Path_1032485" data-name="Path 1032485" d="M103.656,101.016l-9.487.039v4.388a5.9,5.9,0,0,0,5.56,5.974,5.736,5.736,0,0,0,5.913-5.732v-2.691a1.977,1.977,0,0,0-1.985-1.978Z" transform="translate(-50.987 -51.706)" fill="#ffbe74"/>
        <path id="Path_1032486" data-name="Path 1032486" d="M12,12.924v1.944a1.977,1.977,0,0,0,1.978,1.977H41.732a1.977,1.977,0,0,0,1.978-1.977v-1.7a5.9,5.9,0,0,1,5.56-5.974H17.737A5.736,5.736,0,0,0,12,12.925Z" transform="translate(-12 -7.189)" fill="#fff5eb"/>
        <path id="Path_1032487" data-name="Path 1032487" d="M52.037,32.942l-3.444,5.193L44.428,35v6.889H59.645V35l-4.164,3.136Z" transform="translate(-27.386 -19.407)" fill="#ff7591"/>
        <path id="Path_1032488" data-name="Path 1032488" d="M43,49.964H58.382a1.408,1.408,0,0,1,1.408,1.408v1.246a1.407,1.407,0,0,1-1.407,1.407H43a1.408,1.408,0,0,1-1.408-1.408V51.372A1.407,1.407,0,0,1,43,49.964Z" transform="translate(-26.04 -27.483)" fill="#ea577a"/>
      </g>
      <path id="Path_1032489" data-name="Path 1032489" d="M65.892,55.591a2.875,2.875,0,0,0-2.044-.841h-.014l-8.562.034v-25.5a.918.918,0,0,0-.186-.554l-1.887-2.5,2-4.52a.92.92,0,0,0,.078-.371V12.092a6.663,6.663,0,0,0-6.661-6.654H37.146a.92.92,0,0,0,0,1.839H44.12a7.006,7.006,0,0,0-2.161,5.055v1.7A1.057,1.057,0,0,1,40.9,15.093H13.146a1.057,1.057,0,0,1-1.056-1.056V12.092a4.822,4.822,0,0,1,4.819-4.813H32.364a.92.92,0,1,0,0-1.839H16.908a6.663,6.663,0,0,0-6.658,6.653v1.944a2.9,2.9,0,0,0,2.9,2.9h3.221V32.9a.92.92,0,0,0,.183.551l2.1,2.813L16.5,39.729a.917.917,0,0,0-.138.485V46.52a.92.92,0,1,0,1.839,0V40.476L20.546,36.7a.918.918,0,0,0-.045-1.035l-2.294-3.073V16.93H40.9a2.9,2.9,0,0,0,2.9-2.9v-1.7a4.976,4.976,0,0,1,4.64-5.055h.173a4.822,4.822,0,0,1,4.819,4.815v9.059L51.3,25.986a.919.919,0,0,0,.105.925l2.026,2.68v30.5a7.006,7.006,0,0,0,2.161,5.055H23.026a4.822,4.822,0,0,1-4.819-4.813V58.712a.92.92,0,0,0-1.839,0v1.619a6.663,6.663,0,0,0,6.658,6.653h37.06a6.658,6.658,0,0,0,6.658-6.648v-2.69A2.876,2.876,0,0,0,65.892,55.591ZM64.9,60.336a4.816,4.816,0,0,1-4.934,4.813h-.037a4.98,4.98,0,0,1-4.662-5.055V56.622l8.571-.034A1.051,1.051,0,0,1,64.9,57.645ZM16.367,53.918V51.3a.92.92,0,1,1,1.839,0v2.617a.92.92,0,0,1-1.839,0ZM43.84,21.125a.919.919,0,0,0-.964.089l-3.384,2.548-2.9-4.379a.92.92,0,0,0-1.533,0l-2.905,4.379-3.384-2.548a.919.919,0,0,0-1.471.736v6.129A2.325,2.325,0,0,0,25.8,30.244V31.49a2.33,2.33,0,0,0,2.327,2.328H43.512a2.33,2.33,0,0,0,2.327-2.328V30.244a2.325,2.325,0,0,0-1.491-2.166V21.947a.92.92,0,0,0-.509-.823ZM29.131,23.792l2.692,2.026a.92.92,0,0,0,1.32-.225l2.68-4.038L38.5,25.592a.92.92,0,0,0,.611.4.91.91,0,0,0,.708-.172l2.691-2.026v4.125H29.131ZM44,31.49a.489.489,0,0,1-.488.488H28.128a.489.489,0,0,1-.488-.488V30.244a.489.489,0,0,1,.488-.488H43.512a.489.489,0,0,1,.488.488ZM23.377,38H48.263a.92.92,0,1,1,0,1.839H23.377a.92.92,0,0,1,0-1.839Zm-.92,5.988a.919.919,0,0,1,.92-.92H48.263a.92.92,0,1,1,0,1.839H23.377a.92.92,0,0,1-.92-.92Zm0,5.067a.919.919,0,0,1,.92-.92H48.263a.92.92,0,1,1,0,1.839H23.377a.919.919,0,0,1-.92-.92Zm0,5.068a.919.919,0,0,1,.92-.92H48.263a.92.92,0,1,1,0,1.839H23.377a.919.919,0,0,1-.92-.92Z" fill="#282320"/>
    </g>
  </g>
</svg>
