<svg xmlns="http://www.w3.org/2000/svg" width="127.921" height="128" viewBox="0 0 127.921 128">
  <g id="img42" transform="translate(-705.978 -1710.002)">
    <g id="Group_1180300" data-name="Group 1180300" transform="translate(705.936 1710.002)">
      <g id="Grupo_155253" data-name="Grupo 155253" transform="matrix(0.999, 0.035, -0.035, 0.999, 4.319, 0)">
        <path id="Trazado_196478" data-name="Trazado 196478" d="M17.389,19.468q-.386.412-.764.831A64.6,64.6,0,0,0,.044,66.072L25.8,65.147C25.1,44.584,40.69,27.331,60.618,26.613S97.267,41.982,97.965,62.546l25.755-.925c-.869-25.6-16.481-48.187-39.655-57.372A60.525,60.525,0,0,0,17.389,19.475" transform="translate(0 0)" fill="#f9ce5d"/>
        <path id="Trazado_196479" data-name="Trazado 196479" d="M0,4.454C1.195,39.7,29.849,67.266,64,66.036S124.871,35.241,123.676,0L97.92.925c.7,20.563-14.891,37.815-34.819,38.533S26.453,24.089,25.755,3.526Z" transform="translate(0.042 57.68)" fill="#70f5c8"/>
      </g>
      <ellipse id="Ellipse_13685" data-name="Ellipse 13685" cx="49.806" cy="49.887" rx="49.806" ry="49.887" transform="translate(14.269 14.359)" fill="#fff"/>
    </g>
    <g id="Group_1184565" data-name="Group 1184565" transform="translate(700.841 1733.236)">
      <g id="Group_1184563" data-name="Group 1184563" transform="translate(46.248 6.372)">
        <g id="Group_1184560" data-name="Group 1184560" transform="translate(7.931 26.428)">
          <path id="Path_1032499" data-name="Path 1032499" d="M77.742,123.681a3.718,3.718,0,0,1,5.252.32l4.686,5.3V104.208a3.722,3.722,0,0,1,7.444,0V129.3l4.682-5.3a3.722,3.722,0,0,1,5.576,4.932L94.189,141.591a3.727,3.727,0,0,1-5.576,0l-11.2-12.658A3.718,3.718,0,0,1,77.742,123.681Z" transform="translate(-76.484 -100.486)" fill="#5fcdff"/>
        </g>
        <g id="Group_1184562" data-name="Group 1184562" transform="translate(0 0)">
          <g id="Group_1184561" data-name="Group 1184561">
            <circle id="Ellipse_13795" data-name="Ellipse 13795" cx="22.847" cy="22.847" r="22.847" transform="translate(0 0.003)" fill="#f9d335"/>
            <path id="Path_1032500" data-name="Path 1032500" d="M76.748,54.4a22.849,22.849,0,1,1,0-44.685,22.857,22.857,0,0,0,0,44.685Z" transform="translate(-49.095 -9.207)" fill="#f9e27d"/>
            <path id="Path_1032501" data-name="Path 1032501" d="M139.04,32.058A22.871,22.871,0,0,1,111.383,54.4a22.855,22.855,0,0,0,0-44.685A22.871,22.871,0,0,1,139.04,32.058Z" transform="translate(-93.347 -9.209)" fill="#f2c300"/>
          </g>
        </g>
      </g>
      <g id="Group_1184564" data-name="Group 1184564" transform="translate(45.09 5.216)">
        <path id="Path_1032502" data-name="Path 1032502" d="M113.523,216.367a1.158,1.158,0,0,0-1.743,1.526l2.29,2.614a1.158,1.158,0,1,0,1.743-1.526Z" transform="translate(-92.268 -154.951)"/>
        <path id="Path_1032503" data-name="Path 1032503" d="M98.4,199.1a1.158,1.158,0,0,0-1.743,1.526l1.517,1.734a1.158,1.158,0,0,0,1.743-1.526Z" transform="translate(-81.52 -142.682)"/>
        <path id="Path_1032504" data-name="Path 1032504" d="M93.1,29.221a24.005,24.005,0,1,0-28.884,23.5v5.828l-2.661-3.005a4.88,4.88,0,0,0-7.311,6.465l11.2,12.658a4.885,4.885,0,0,0,7.311,0l11.19-12.658a4.879,4.879,0,1,0-7.308-6.465l-2.658,3.005V52.725A24.042,24.042,0,0,0,93.1,29.221ZM78.369,57.083a2.563,2.563,0,1,1,3.839,3.4L71.018,73.137a2.572,2.572,0,0,1-3.842,0l-11.2-12.658c-2.2-2.5,1.621-5.914,3.842-3.4l4.688,5.3a1.158,1.158,0,0,0,2.024-.767V53.09a24.222,24.222,0,0,0,5.128,0v8.521a1.16,1.16,0,0,0,2.027.767ZM69.1,50.91A21.689,21.689,0,1,1,90.784,29.221,21.713,21.713,0,0,1,69.1,50.91Z" transform="translate(-45.09 -5.216)"/>
        <path id="Path_1032505" data-name="Path 1032505" d="M114.589,55.446v-2.3a6.927,6.927,0,0,0-6.92-6.92h-1.147V37.014h1.147a4.611,4.611,0,0,1,4.6,4.6,1.158,1.158,0,1,0,2.316,0,6.927,6.927,0,0,0-6.92-6.92h-1.147V33.554a1.158,1.158,0,1,0-2.316,0V34.7H103.06a6.92,6.92,0,1,0,0,13.84h1.147V60.046H103.06a4.609,4.609,0,0,1-4.6-4.6,1.158,1.158,0,0,0-2.316,0,6.929,6.929,0,0,0,6.92,6.917h1.147v1.147a1.158,1.158,0,0,0,2.316,0V62.363h1.147A6.927,6.927,0,0,0,114.589,55.446Zm-10.383-9.225H103.06a4.6,4.6,0,0,1,0-9.207h1.147Zm3.463,13.825h-1.147V48.537h1.147a4.61,4.61,0,0,1,4.6,4.6v2.3A4.608,4.608,0,0,1,107.669,60.046Z" transform="translate(-81.359 -24.526)"/>
      </g>
    </g>
  </g>
</svg>
