<svg xmlns="http://www.w3.org/2000/svg" width="127.921" height="128" viewBox="0 0 127.921 128">
  <g id="img45" transform="translate(-705.978 -1710.002)">
    <g id="Group_1180300" data-name="Group 1180300" transform="translate(705.936 1710.002)">
      <g id="Grupo_155253" data-name="Grupo 155253" transform="matrix(0.999, 0.035, -0.035, 0.999, 4.319, 0)">
        <path id="Trazado_196478" data-name="Trazado 196478" d="M17.389,19.468q-.386.412-.764.831A64.6,64.6,0,0,0,.044,66.072L25.8,65.147C25.1,44.584,40.69,27.331,60.618,26.613S97.267,41.982,97.965,62.546l25.755-.925c-.869-25.6-16.481-48.187-39.655-57.372A60.525,60.525,0,0,0,17.389,19.475" transform="translate(0 0)" fill="#f9ce5d"/>
        <path id="Trazado_196479" data-name="Trazado 196479" d="M0,4.454C1.195,39.7,29.849,67.266,64,66.036S124.871,35.241,123.676,0L97.92.925c.7,20.563-14.891,37.815-34.819,38.533S26.453,24.089,25.755,3.526Z" transform="translate(0.042 57.68)" fill="#70f5c8"/>
      </g>
      <ellipse id="Ellipse_13685" data-name="Ellipse 13685" cx="49.806" cy="49.887" rx="49.806" ry="49.887" transform="translate(14.269 14.359)" fill="#fff"/>
    </g>
    <g id="Group_1184569" data-name="Group 1184569" transform="translate(738.756 1741.823)">
      <path id="Path_1032547" data-name="Path 1032547" d="M138.3,7.5a22.212,22.212,0,0,0-18.337,34.347,1.443,1.443,0,0,1-.184,1.812l-7.549,7.549,4.832,4.832,7.549-7.549a1.443,1.443,0,0,1,1.812-.184A22.21,22.21,0,1,0,138.3,7.5Z" transform="translate(-98.338 -6.572)" fill="#c5d3dd"/>
      <circle id="Ellipse_13796" data-name="Ellipse 13796" cx="17.084" cy="17.084" r="17.084" transform="translate(23.138 6.053)" fill="#f9f7f8"/>
      <path id="Path_1032548" data-name="Path 1032548" d="M259.229,55.065a17.089,17.089,0,0,1-15.063,30.171,17.086,17.086,0,1,0,15.063-30.171Z" transform="translate(-213.951 -48.251)" fill="#dff6fd"/>
      <path id="Path_1032549" data-name="Path 1032549" d="M258.769,104.139l-9.357,16.207h18.714Z" transform="translate(-218.548 -91.252)" fill="#fdb441"/>
      <path id="Path_1032550" data-name="Path 1032550" d="M28.581,340.939l-7.065-7.065a.13.13,0,0,0-.183,0l-13.8,13.8a.13.13,0,0,0-.038.092v7.194h7.194a.13.13,0,0,0,.092-.038l13.795-13.795A.129.129,0,0,0,28.581,340.939Z" transform="translate(-6.571 -292.526)" fill="#7a6d79"/>
      <g id="Group_1184568" data-name="Group 1184568" transform="translate(4.41 3.049)">
        <path id="Path_1032551" data-name="Path 1032551" d="M50.168,108.588,45.206,107.3A1.708,1.708,0,0,1,46.063,104l4.961,1.285a1.708,1.708,0,0,1-.857,3.308Z" transform="translate(-42.899 -94.128)" fill="#fe646f"/>
        <path id="Path_1032552" data-name="Path 1032552" d="M42.556,190.924l-5.116.313a1.708,1.708,0,1,1-.209-3.41l5.116-.313a1.708,1.708,0,0,1,.209,3.41Z" transform="translate(-35.628 -167.356)" fill="#fe646f"/>
        <path id="Path_1032553" data-name="Path 1032553" d="M85.41,27.664l-4.32-2.757a1.708,1.708,0,1,0-1.838,2.88l4.32,2.757a1.708,1.708,0,0,0,1.838-2.88Z" transform="translate(-73.161 -24.639)" fill="#fe646f"/>
      </g>
      <path id="Path_1032554" data-name="Path 1032554" d="M80.528,359.556,72.2,351.229a.152.152,0,0,1,0-.215l2.7-2.7a.152.152,0,0,1,.215,0l8.327,8.327a.152.152,0,0,1,0,.215l-2.7,2.7A.152.152,0,0,1,80.528,359.556Z" transform="translate(-63.227 -305.171)" fill="#c5d3dd"/>
      <path id="Path_1032555" data-name="Path 1032555" d="M197.485,77.441a18.012,18.012,0,1,0-18.012-18.012A18.032,18.032,0,0,0,197.485,77.441Zm0-34.167a16.156,16.156,0,1,1-16.156,16.156A16.174,16.174,0,0,1,197.485,43.273Z" transform="translate(-157.263 -36.292)"/>
      <path id="Path_1032556" data-name="Path 1032556" d="M242.841,114.7h18.714a.928.928,0,0,0,.8-1.392l-1.678-2.907a.928.928,0,0,0-1.607.928l.874,1.515h-15.5l7.75-13.423,4.667,8.084a.928.928,0,1,0,1.607-.928L253,97.1a.928.928,0,0,0-1.607,0l-9.357,16.207a.928.928,0,0,0,.8,1.392Z" transform="translate(-211.977 -84.68)"/>
      <path id="Path_1032557" data-name="Path 1032557" d="M319.385,152.79a.928.928,0,1,0-1.856,0v2.551a.928.928,0,1,0,1.856,0Z" transform="translate(-278.235 -133.07)"/>
      <circle id="Ellipse_13797" data-name="Ellipse 13797" cx="0.928" cy="0.928" r="0.928" transform="translate(39.292 24.684)"/>
      <path id="Path_1032558" data-name="Path 1032558" d="M38.4,101.627l4.961,1.285a2.636,2.636,0,1,0,1.322-5.1l-4.961-1.285a2.636,2.636,0,1,0-1.322,5.1Zm-.094-2.748a.78.78,0,0,1,.951-.56L44.221,99.6a.78.78,0,1,1-.391,1.511L38.869,99.83A.781.781,0,0,1,38.309,98.879Z" transform="translate(-31.919 -84.504)"/>
      <path id="Path_1032559" data-name="Path 1032559" d="M30.925,185.591l5.116-.313h0a2.636,2.636,0,0,0-.322-5.263l-5.116.313a2.636,2.636,0,0,0,.322,5.263Zm-.745-3.149a.775.775,0,0,1,.537-.262l5.116-.313a.78.78,0,0,1,.1,1.558l-5.116.313A.781.781,0,0,1,30.18,182.442Z" transform="translate(-24.646 -157.734)"/>
      <path id="Path_1032560" data-name="Path 1032560" d="M72.175,22l4.32,2.757a2.636,2.636,0,1,0,2.836-4.445l-4.32-2.757A2.637,2.637,0,0,0,72.175,22Zm.76-2.642a.781.781,0,0,1,1.078-.238l4.32,2.757a.78.78,0,1,1-.839,1.316l-4.32-2.757A.78.78,0,0,1,72.936,19.362Z" transform="translate(-62.175 -15.024)"/>
      <path id="Path_1032561" data-name="Path 1032561" d="M56.582,6.777A23.183,23.183,0,0,0,25.766,5.043a.928.928,0,1,0,1.158,1.45A21.3,21.3,0,0,1,61.5,23.39,21.284,21.284,0,0,1,28.59,40.96a2.382,2.382,0,0,0-2.976.3l-4.72,4.72-3.519-3.519,4.72-4.72a2.382,2.382,0,0,0,.3-2.976A21.34,21.34,0,0,1,23.925,9.417a.928.928,0,0,0-1.42-1.2,23.2,23.2,0,0,0-1.66,27.563.512.512,0,0,1-.064.648l-4.72,4.72-.461-.461a1.06,1.06,0,0,0-1.5,0l-1.684,1.684a1.08,1.08,0,0,0-1.4.108l-2.7,2.7a1.08,1.08,0,0,0-.108,1.4l-7.9,7.9A1.051,1.051,0,0,0,0,55.235V62.43a.928.928,0,0,0,.928.928H8.124a1.051,1.051,0,0,0,.748-.31l7.9-7.9a1.08,1.08,0,0,0,1.4-.108l2.7-2.7a1.08,1.08,0,0,0,.108-1.4l1.684-1.684a1.057,1.057,0,0,0,0-1.5l-.46-.46,4.72-4.72a.512.512,0,0,1,.648-.063A23.138,23.138,0,0,0,56.582,6.777ZM14.854,42.57l5.935,5.936-1.111,1.111-5.935-5.935Zm2.555,10.61-1.1-1.1a.928.928,0,1,0-1.313,1.312l.455.455L7.793,61.5H1.857V55.566l7.657-7.657,2.415,2.415a.928.928,0,0,0,1.313-1.312L10.179,45.95l1.6-1.6,7.229,7.229Z" transform="translate(0 0)"/>
    </g>
  </g>
</svg>
