<svg xmlns="http://www.w3.org/2000/svg" width="149.908" height="150" viewBox="0 0 149.908 150">
  <g id="img5" transform="translate(-705.985 -1710.002)">
    <g id="Group_1180300" data-name="Group 1180300" transform="translate(705.936 1710.002)">
      <g id="Grupo_155253" data-name="Grupo 155253" transform="matrix(0.999, 0.035, -0.035, 0.999, 5.061, 0)">
        <path id="Trazado_196478" data-name="Trazado 196478" d="M20.378,22.814q-.452.483-.9.974A75.7,75.7,0,0,0,.051,77.428l30.182-1.084c-.818-24.1,17.45-44.315,40.8-45.157S113.984,49.2,114.8,73.3l30.181-1.084c-1.018-30-19.313-56.469-46.471-67.233A70.928,70.928,0,0,0,20.378,22.822" transform="translate(0 0)" fill="#f9ce5d"/>
        <path id="Trazado_196479" data-name="Trazado 196479" d="M0,5.22c1.4,41.3,34.98,73.608,75,72.166S146.333,41.3,144.933,0L114.75,1.084c.818,24.1-17.451,44.314-40.8,45.156S31,28.229,30.182,4.132Z" transform="translate(0.049 67.594)" fill="#70f5c8"/>
      </g>
      <ellipse id="Ellipse_13685" data-name="Ellipse 13685" cx="58.366" cy="58.462" rx="58.366" ry="58.462" transform="translate(16.722 16.827)" fill="#fff"/>
    </g>
    <g id="Group_1184516" data-name="Group 1184516" transform="translate(691.65 1747.445)">
      <g id="Group_1184514" data-name="Group 1184514" transform="translate(64.167 1.016)">
        <path id="Path_1032298" data-name="Path 1032298" d="M120.891,386.656H70.652l2.481-10.139a10.365,10.365,0,0,1,9.937-8.336h25.4a10.365,10.365,0,0,1,9.937,8.336Z" transform="translate(-70.652 -319.3)" fill="#eaf6ff"/>
        <path id="Path_1032299" data-name="Path 1032299" d="M341.694,386.655h-3.205l-2.481-10.139a10.365,10.365,0,0,0-9.937-8.336h3.205a10.365,10.365,0,0,1,9.937,8.336Z" transform="translate(-291.455 -319.299)" fill="#c8effe"/>
        <path id="Path_1032300" data-name="Path 1032300" d="M227.706,314.268h-10.52v7.307l2.03,2.077a4.517,4.517,0,0,0,6.462,0l2.029-2.077v-7.307Z" transform="translate(-197.327 -272.693)" fill="#ffdfcf"/>
        <path id="Path_1032301" data-name="Path 1032301" d="M250.7,314.27v7.306l-2.029,2.078a4.514,4.514,0,0,1-4.887,1.045,4.473,4.473,0,0,0,1.575-1.045l2.029-2.078V314.27Z" transform="translate(-220.318 -272.695)" fill="#ffcebf"/>
        <path id="Path_1032302" data-name="Path 1032302" d="M108.383,174.579h3.12l1.273-4.966-1.273-4.966h-3.12a3.434,3.434,0,0,0-3.434,3.434v3.065A3.434,3.434,0,0,0,108.383,174.579Z" transform="translate(-100.301 -143.35)" fill="#ffdfcf"/>
        <path id="Path_1032303" data-name="Path 1032303" d="M136.131,169.616l-1.273,4.966h-2.891V164.65h2.891Z" transform="translate(-123.657 -143.352)" fill="#ffcebf"/>
        <path id="Path_1032304" data-name="Path 1032304" d="M350.431,174.579h-3.12l-1.792-4.966,1.792-4.966h3.12a3.434,3.434,0,0,1,3.434,3.434v3.065A3.434,3.434,0,0,1,350.431,174.579Z" transform="translate(-308.268 -143.35)" fill="#ffdfcf"/>
        <path id="Path_1032305" data-name="Path 1032305" d="M367.342,168.083v3.064a3.433,3.433,0,0,1-3.433,3.434h-2.8a3.434,3.434,0,0,0,3.434-3.434v-3.064a3.434,3.434,0,0,0-3.434-3.433h2.8A3.433,3.433,0,0,1,367.342,168.083Z" transform="translate(-321.747 -143.352)" fill="#ffcebf"/>
        <path id="Path_1032306" data-name="Path 1032306" d="M171.71,139h-8.969a9.436,9.436,0,0,1-9.436-9.436V113.519l13.921-3.56,13.921,3.56v16.049A9.437,9.437,0,0,1,171.71,139Z" transform="translate(-142.103 -96.073)" fill="#ffdfcf"/>
        <path id="Path_1032307" data-name="Path 1032307" d="M276.3,130.542v16.049a9.437,9.437,0,0,1-9.437,9.437h-3.487a9.437,9.437,0,0,0,9.437-9.437V129.65Z" transform="translate(-237.261 -113.096)" fill="#ffcebf"/>
        <g id="Group_1184512" data-name="Group 1184512" transform="translate(23.116 25.448)">
          <path id="Path_1032308" data-name="Path 1032308" d="M243.222,202.376h-.007a2,2,0,0,1-2-2v-3.1a2,2,0,0,1,2-2h.007a2,2,0,0,1,2,2v3.1A2,2,0,0,1,243.222,202.376Z" transform="translate(-241.215 -195.277)" fill="#ffcebf"/>
        </g>
        <path id="Path_1032309" data-name="Path 1032309" d="M165.835,133.808H134.671a.849.849,0,0,1-.849-.849v-3.136a.849.849,0,0,1,.849-.849h31.164a.849.849,0,0,1,.849.849v3.136A.849.849,0,0,1,165.835,133.808Z" transform="translate(-125.261 -112.511)" fill="#fea613"/>
        <path id="Path_1032310" data-name="Path 1032310" d="M352.391,129.828v3.136a.85.85,0,0,1-.85.85h-2.9a.85.85,0,0,0,.85-.85v-3.136a.849.849,0,0,0-.85-.848h2.9A.849.849,0,0,1,352.391,129.828Z" transform="translate(-310.967 -112.516)" fill="#fe9901"/>
        <path id="Path_1032311" data-name="Path 1032311" d="M171.253,38.088H140.089V36.735a12.9,12.9,0,0,1,12.9-12.9h5.371a12.9,12.9,0,0,1,12.9,12.9v1.352Z" transform="translate(-130.679 -21.625)" fill="#ffd15b"/>
        <path id="Path_1032312" data-name="Path 1032312" d="M267.333,36.737v1.353h-3.207V36.737a12.9,12.9,0,0,0-12.9-12.9h3.205A12.9,12.9,0,0,1,267.333,36.737Z" transform="translate(-226.758 -21.626)" fill="#ffc344"/>
        <path id="Path_1032313" data-name="Path 1032313" d="M230.294,7.5h6.714v9.581h-6.714Z" transform="translate(-208.659 -7.5)" fill="#fea613"/>
        <path id="Path_1032314" data-name="Path 1032314" d="M259.561,7.5h2.747v9.58h-2.747Z" transform="translate(-233.959 -7.5)" fill="#fe9901"/>
        <path id="Path_1032315" data-name="Path 1032315" d="M173.181,381.827a4.1,4.1,0,0,1-4.1-4.1v-9.548h-3.926v6.757a2.072,2.072,0,0,1-2.072,2.072h-10.6a2.072,2.072,0,0,1-2.072-2.072v-6.757h-3.926v9.548a4.1,4.1,0,0,1-4.1,4.1v4.829h30.795Z" transform="translate(-132.664 -319.3)" fill="#fea613"/>
        <g id="Group_1184513" data-name="Group 1184513" transform="translate(15.742 48.881)">
          <path id="Path_1032316" data-name="Path 1032316" d="M190.885,377.008h-2a2.071,2.071,0,0,1-2.071-2.071V368.18h2v6.757a2.071,2.071,0,0,0,2.071,2.071Z" transform="translate(-186.811 -368.18)" fill="#fe9901"/>
          <path id="Path_1032317" data-name="Path 1032317" d="M330.692,381.826v4.829h-2v-4.829a4.1,4.1,0,0,1-4.1-4.1V368.18h2v9.548A4.1,4.1,0,0,0,330.692,381.826Z" transform="translate(-305.918 -368.18)" fill="#fe9901"/>
        </g>
      </g>
      <g id="Group_1184515" data-name="Group 1184515" transform="translate(63.15 0)">
        <path id="Path_1032318" data-name="Path 1032318" d="M145.044,68.131,142.565,58a11.342,11.342,0,0,0-10.926-9.119h-6.425V44.807a10.468,10.468,0,0,0,8.664-10.3V33.262h2.1a4.455,4.455,0,0,0,4.45-4.45V25.747a4.455,4.455,0,0,0-4.173-4.44V18.329a1.865,1.865,0,0,0-.849-1.562,14.651,14.651,0,0,0-.814-5.339,1.016,1.016,0,0,0-1.3-.613,1.107,1.107,0,0,0-.556,1.471h-7.867a1.689,1.689,0,0,1-1.687-1.687V4.368a11.711,11.711,0,0,1,5.1,2.006L127.3,7.766a1.016,1.016,0,1,0,1.655,1.18l.9-1.261c.215.213.425.433.626.664a1.016,1.016,0,0,0,1.536-1.332,14.153,14.153,0,0,0-8.829-4.7v-1.3A1.016,1.016,0,0,0,122.167,0h-6.714a1.016,1.016,0,0,0-1.016,1.016v1.3a13.97,13.97,0,0,0-12.225,14.45,1.865,1.865,0,0,0-.849,1.562v3a4.456,4.456,0,0,0-3.913,4.416v3.065a4.455,4.455,0,0,0,4.45,4.45H104v1.249a10.468,10.468,0,0,0,8.657,10.3v4.075h-6.425a10.644,10.644,0,0,0-4.383.94,1.017,1.017,0,0,0,.417,1.944,12.134,12.134,0,0,1,4.352-.852v8.532a3.086,3.086,0,0,1-2.065,2.908V60.867a1.016,1.016,0,1,0-2.033,0v7.505a1.016,1.016,0,0,0,2.033,0V64.459a5.123,5.123,0,0,0,4.1-5.013V50.914h1.893v5.74a3.092,3.092,0,0,0,3.088,3.088h10.6a3.092,3.092,0,0,0,3.088-3.088v-5.74h1.893v8.532a5.122,5.122,0,0,0,4.091,5.011v3.915a1.016,1.016,0,1,0,2.033,0h.007l-.007-7.505a1.016,1.016,0,1,0-2.033,0v1.485a3.086,3.086,0,0,1-2.058-2.906V50.914a9.352,9.352,0,0,1,9.335,7.561l2.481,10.139a1.016,1.016,0,1,0,1.975-.483ZM114.693,44.964h8.487v4.52l-1.74,1.781a3.554,3.554,0,0,1-5.007,0l-1.74-1.781Zm23.7-19.217v3.065a2.42,2.42,0,0,1-2.417,2.417h-2.1V29.281a2.322,2.322,0,0,1,1.969-1.3,1.016,1.016,0,0,0,0-2.033,3.939,3.939,0,0,0-1.969.508V23.33h2.1A2.42,2.42,0,0,1,138.4,25.747Zm-13.527-11.43h8.365a14.171,14.171,0,0,1,.139,2.146H113.511a1.016,1.016,0,1,0,0,2.033h20.714v2.8h-30.83V18.5h5.32a1.016,1.016,0,0,0,0-2.033h-4.471a13.631,13.631,0,0,1,.138-2.146h8.367a3.726,3.726,0,0,0,3.578-2.7h4.966a3.726,3.726,0,0,0,3.578,2.7Zm-8.4-12.284h4.681V9.581h-4.681Zm-8.7,5.648.9,1.264a1.016,1.016,0,1,0,1.655-1.18l-.99-1.389a11.8,11.8,0,0,1,5.1-2.008V10.6a1.689,1.689,0,0,1-1.687,1.687h-7.868a11.88,11.88,0,0,1,2.886-4.6ZM101.9,31.229a2.42,2.42,0,0,1-2.417-2.417V25.747A2.42,2.42,0,0,1,101.9,23.33H104v3.123a3.94,3.94,0,0,0-1.969-.508,1.016,1.016,0,1,0,0,2.033,2.321,2.321,0,0,1,1.969,1.3v1.948h-2.1Zm4.136,3.282V23.33h25.809V34.511a8.43,8.43,0,0,1-8.42,8.42h-8.969A8.43,8.43,0,0,1,106.035,34.511Zm19.259,22.143a1.056,1.056,0,0,1-1.055,1.055h-10.6a1.056,1.056,0,0,1-1.055-1.055v-5.74h.669l1.731,1.771a5.593,5.593,0,0,0,7.915,0l1.73-1.771h.669Z" transform="translate(-92.801 0)"/>
        <path id="Path_1032319" data-name="Path 1032319" d="M69.465,388.9a1.016,1.016,0,0,0-1.429.153A12.193,12.193,0,0,0,65.659,394l-2.479,10.13a1.016,1.016,0,1,0,1.975.483l2.481-10.139,0-.018a10.148,10.148,0,0,1,1.978-4.126A1.017,1.017,0,0,0,69.465,388.9Z" transform="translate(-63.15 -336.002)"/>
        <path id="Path_1032320" data-name="Path 1032320" d="M236.733,196.91h.007a3.02,3.02,0,0,0,3.017-3.017v-3.1a3.02,3.02,0,0,0-6.04,0v3.1A3.02,3.02,0,0,0,236.733,196.91Zm-.984-6.115a.987.987,0,0,1,1.974,0v3.1a.985.985,0,0,1-.984.984h-.007a.985.985,0,0,1-.984-.984Z" transform="translate(-210.6 -162.33)"/>
        <path id="Path_1032321" data-name="Path 1032321" d="M238.294,270.653a1.642,1.642,0,0,1-2.407,0,1.016,1.016,0,1,0-1.489,1.384,3.675,3.675,0,0,0,5.384,0,1.016,1.016,0,1,0-1.489-1.384Z" transform="translate(-210.955 -233.692)"/>
      </g>
    </g>
  </g>
</svg>
