<svg xmlns="http://www.w3.org/2000/svg" width="149.909" height="150" viewBox="0 0 149.909 150">
  <g id="img53" transform="translate(-705.985 -1710.002)">
    <g id="Group_1180300" data-name="Group 1180300" transform="translate(705.936 1710.002)">
      <g id="Grupo_155253" data-name="Grupo 155253" transform="matrix(0.999, 0.035, -0.035, 0.999, 5.062, 0)">
        <path id="Trazado_196478" data-name="Trazado 196478" d="M20.377,22.814q-.452.483-.9.974A75.7,75.7,0,0,0,.051,77.428l30.182-1.084c-.818-24.1,17.45-44.315,40.8-45.157S113.985,49.2,114.8,73.3l30.182-1.084c-1.018-30-19.313-56.469-46.471-67.234A70.928,70.928,0,0,0,20.377,22.822" transform="translate(0 0)" fill="#f9ce5d"/>
        <path id="Trazado_196479" data-name="Trazado 196479" d="M0,5.22c1.4,41.3,34.98,73.608,75,72.167S146.334,41.3,144.933,0L114.751,1.084c.818,24.1-17.451,44.315-40.8,45.156S31,28.229,30.182,4.132Z" transform="translate(0.049 67.595)" fill="#70f5c8"/>
      </g>
      <ellipse id="Ellipse_13685" data-name="Ellipse 13685" cx="58.366" cy="58.462" rx="58.366" ry="58.462" transform="translate(16.722 16.827)" fill="#fff"/>
    </g>
    <g id="Group_1184607" data-name="Group 1184607" transform="translate(709.642 1748.765)">
      <g id="Group_1184605" data-name="Group 1184605" transform="translate(41.897 1.06)">
        <g id="Group_1184602" data-name="Group 1184602" transform="translate(0 4.965)">
          <g id="Group_1184597" data-name="Group 1184597">
            <path id="Path_1032611" data-name="Path 1032611" d="M82.356,107.953H49.412a1.089,1.089,0,0,1-1.089-1.089V43.652a1.089,1.089,0,0,1,1.089-1.089H90.844a1.089,1.089,0,0,1,1.089,1.089V99.036Z" transform="translate(-48.323 -42.563)" fill="#fdf6ec"/>
          </g>
          <g id="Group_1184598" data-name="Group 1184598" transform="translate(34.033 56.474)">
            <path id="Path_1032612" data-name="Path 1032612" d="M288.747,450.439v-8.084a.833.833,0,0,1,.833-.833h8.745Z" transform="translate(-288.747 -441.522)" fill="#fae2c0"/>
          </g>
          <g id="Group_1184599" data-name="Group 1184599" transform="translate(34.032 56.474)">
            <path id="Path_1032613" data-name="Path 1032613" d="M298.322,441.524l-9.578,8.917v-3.26l6.627-5.656Z" transform="translate(-288.744 -441.524)" fill="#fdd79b"/>
          </g>
          <g id="Group_1184601" data-name="Group 1184601" transform="translate(39.57 0.001)">
            <g id="Group_1184600" data-name="Group 1184600">
              <path id="Path_1032614" data-name="Path 1032614" d="M331.9,43.655V99.04h-2.95V43.655a1.089,1.089,0,0,0-1.09-1.088h2.952a1.088,1.088,0,0,1,1.088,1.088Z" transform="translate(-327.864 -42.567)" fill="#fae2c0"/>
            </g>
          </g>
        </g>
        <g id="Group_1184603" data-name="Group 1184603" transform="translate(36.146)">
          <circle id="Ellipse_13802" data-name="Ellipse 13802" cx="11.361" cy="11.361" r="11.361" fill="#fd8087"/>
        </g>
        <g id="Group_1184604" data-name="Group 1184604" transform="translate(42.116 0.291)">
          <path id="Path_1032615" data-name="Path 1032615" d="M362.6,20.612a11.363,11.363,0,0,1-16.752,10,11.363,11.363,0,0,0,7.956-21.072A11.365,11.365,0,0,1,362.6,20.612Z" transform="translate(-345.852 -9.542)" fill="#fe646f"/>
        </g>
      </g>
      <g id="Group_1184606" data-name="Group 1184606" transform="translate(40.837 0)">
        <path id="Path_1032616" data-name="Path 1032616" d="M104.074,89.146h6.332a1.06,1.06,0,1,0,0-2.119h-6.332a1.06,1.06,0,0,0,0,2.119Z" transform="translate(-94.213 -74.708)"/>
        <path id="Path_1032617" data-name="Path 1032617" d="M104.074,125.893h6.332a1.06,1.06,0,1,0,0-2.119h-6.332a1.06,1.06,0,0,0,0,2.119Z" transform="translate(-94.213 -106.254)"/>
        <path id="Path_1032618" data-name="Path 1032618" d="M104.074,162.639h26.008a1.06,1.06,0,0,0,0-2.119H104.074a1.06,1.06,0,0,0,0,2.119Z" transform="translate(-94.213 -137.798)"/>
        <path id="Path_1032619" data-name="Path 1032619" d="M104.074,199.385h26.008a1.06,1.06,0,0,0,0-2.119H104.074a1.06,1.06,0,0,0,0,2.119Z" transform="translate(-94.213 -169.343)"/>
        <path id="Path_1032620" data-name="Path 1032620" d="M104.074,236.131h26.008a1.06,1.06,0,0,0,0-2.119H104.074a1.06,1.06,0,0,0,0,2.119Z" transform="translate(-94.213 -200.887)"/>
        <path id="Path_1032621" data-name="Path 1032621" d="M104.074,272.878h26.008a1.06,1.06,0,0,0,0-2.119H104.074a1.06,1.06,0,0,0,0,2.119Z" transform="translate(-94.213 -232.433)"/>
        <path id="Path_1032622" data-name="Path 1032622" d="M104.074,309.624h26.008a1.06,1.06,0,1,0,0-2.119H104.074a1.06,1.06,0,0,0,0,2.119Z" transform="translate(-94.213 -263.977)"/>
        <path id="Path_1032623" data-name="Path 1032623" d="M131.141,345.311a1.059,1.059,0,0,0-1.06-1.06H104.074a1.06,1.06,0,1,0,0,2.119h26.008A1.06,1.06,0,0,0,131.141,345.311Z" transform="translate(-94.213 -295.522)"/>
        <path id="Path_1032624" data-name="Path 1032624" d="M99.638,11.241a1.06,1.06,0,1,0,2.105-.24A12.417,12.417,0,0,0,79.476,4.965H42.986a2.151,2.151,0,0,0-2.149,2.149V70.326a2.151,2.151,0,0,0,2.149,2.149h5.345a1.06,1.06,0,1,0,0-2.119H42.986a.03.03,0,0,1-.03-.03V7.114a.03.03,0,0,1,.03-.03h35.2a12.416,12.416,0,0,0,6.258,16.724V61.439H76.762a1.894,1.894,0,0,0-1.892,1.892v7.025h-21.8a1.06,1.06,0,1,0,0,2.119H75.929c.537,0,.837-.391,1.2-.725l9.1-8.475a1.139,1.139,0,0,0,.339-.776V24.514a12.429,12.429,0,0,0,14.686-8.359,1.059,1.059,0,1,0-2.021-.636,10.306,10.306,0,1,1,.407-4.277ZM76.989,68.981V63.558h5.825Z" transform="translate(-40.837 0)"/>
        <path id="Path_1032625" data-name="Path 1032625" d="M359.485,54.017a1.059,1.059,0,0,0-1.5.01l-2.952,2.993-2.952-2.993a1.06,1.06,0,1,0-1.509,1.488l2.973,3.014-2.973,3.014a1.06,1.06,0,1,0,1.509,1.488l2.952-2.993,2.952,2.993a1.06,1.06,0,0,0,1.509-1.488l-2.973-3.014,2.973-3.014A1.06,1.06,0,0,0,359.485,54.017Z" transform="translate(-306.468 -46.109)"/>
        <path id="Path_1032626" data-name="Path 1032626" d="M199.979,383.838a1.06,1.06,0,0,0-1.4.529v0a6.9,6.9,0,0,1-4.644,3.806,1.06,1.06,0,0,0,.238,2.092,1.072,1.072,0,0,0,.24-.027,9.017,9.017,0,0,0,4.36-2.476,1.749,1.749,0,0,0,1.074.844,2.942,2.942,0,0,0,2.482-.872,3.411,3.411,0,0,0,3.863-.641,1.059,1.059,0,1,0-1.512-1.484,1.3,1.3,0,0,1-1.691.039,1.06,1.06,0,0,0-1.374-.058c-.091.071-.188.15-.288.232a8.985,8.985,0,0,1-.8.6,4.465,4.465,0,0,1-.005-1.209,1.059,1.059,0,0,0-.542-1.372Zm.529,1.4.006-.014Z" transform="translate(-171.556 -329.424)"/>
      </g>
    </g>
  </g>
</svg>
