<svg xmlns="http://www.w3.org/2000/svg" xmlns:xlink="http://www.w3.org/1999/xlink" width="83.947" height="83.994" viewBox="0 0 83.947 83.994">
  <defs>
    <clipPath id="clip-path">
      <rect id="Rectangle_458732" data-name="Rectangle 458732" width="46.623" height="40.902" fill="none"/>
    </clipPath>
  </defs>
  <g id="img6" transform="translate(-706.028 -1710)">
    <g id="Group_1180300" data-name="Group 1180300" transform="translate(706 1710)">
      <g id="Grupo_155253" data-name="Grupo 155253" transform="matrix(0.999, 0.035, -0.035, 0.999, 2.834, 0)">
        <path id="Trazado_196478" data-name="Trazado 196478" d="M11.413,12.382q-.253.262-.5.529A40.338,40.338,0,0,0,.029,42.021l16.9-.589a23.694,23.694,0,0,1,47.359-1.656l16.9-.589a40.606,40.606,0,0,0-69.778-26.8" transform="translate(0 0)" fill="#f9ce5d"/>
        <path id="Trazado_196479" data-name="Trazado 196479" d="M0,2.836A40.606,40.606,0,0,0,81.162,0L64.26.589A23.694,23.694,0,0,1,16.9,2.245Z" transform="translate(0.028 39.185)" fill="#70f5c8"/>
      </g>
      <ellipse id="Ellipse_13685" data-name="Ellipse 13685" cx="33.016" cy="33.016" rx="33.016" ry="33.016" transform="translate(8.983 9.09)" fill="#fff"/>
    </g>
    <g id="Group_1183578" data-name="Group 1183578" transform="translate(724.688 1731.546)">
      <g id="Group_1183577" data-name="Group 1183577" clip-path="url(#clip-path)">
        <path id="Path_1029457" data-name="Path 1029457" d="M63.108,66.093H43.049V62.445a3.329,3.329,0,0,1-.655-.145l-1.413-.455v5.282a1.037,1.037,0,0,0,1.034,1.035H52.042v6.9h-2.6a1.034,1.034,0,0,0,0,2.069h7.258a1.034,1.034,0,0,0,0-2.069H54.111v-6.9H64.142a1.037,1.037,0,0,0,1.035-1.035V59.35a11.5,11.5,0,0,1-2.069,1.3Z" transform="translate(-25.013 -36.224)" fill="#203a72"/>
        <path id="Path_1029458" data-name="Path 1029458" d="M43.049,28.914V18.027h4.13a11.4,11.4,0,0,1,1.338-2.069h-6.5a1.033,1.033,0,0,0-1.035,1.034V27.184l1.165,1.441Z" transform="translate(-25.012 -9.74)" fill="#203a72"/>
        <path id="Path_1029459" data-name="Path 1029459" d="M19.938,48.344a1.591,1.591,0,0,0-1.022-2l-2.837-.92-2.323-2.862a4.323,4.323,0,0,0-3.37-1.6H7.29c-3.648,0-6.416,6.245-7.177,8.16a1.592,1.592,0,0,0,2.957,1.177A22.449,22.449,0,0,1,5.437,45.87l-.22,6.214L2.71,63.758a1.768,1.768,0,1,0,3.457.742L8.644,52.969h.694v11.16a1.768,1.768,0,0,0,3.537,0V52.24l-.211-5.98L13.9,47.79a1.587,1.587,0,0,0,.745.511l3.285,1.065a1.585,1.585,0,0,0,2.005-1.022" transform="translate(0 -24.995)" fill="#203a72"/>
        <path id="Path_1029460" data-name="Path 1029460" d="M17.663,27.4a3.539,3.539,0,1,0-3.538-3.538A3.538,3.538,0,0,0,17.663,27.4" transform="translate(-8.621 -12.403)" fill="#203a72"/>
        <path id="Path_1029461" data-name="Path 1029461" d="M75.789,15.866a7.984,7.984,0,0,1,.9,3.685,8.073,8.073,0,1,1-4.375-7.183l1.448-1.449a10.052,10.052,0,1,0,4.9,8.632,9.889,9.889,0,0,0-1.419-5.134Z" transform="translate(-35.746 -5.799)" fill="#203a72"/>
        <path id="Path_1029462" data-name="Path 1029462" d="M74.543,21.209a3.6,3.6,0,0,1,.729.069l1.587-1.586a6.06,6.06,0,0,0-2.316-.453A6.262,6.262,0,1,0,80.8,25.495a6.057,6.057,0,0,0-.453-2.316L78.76,24.766a3.572,3.572,0,0,1,.069.729,4.291,4.291,0,1,1-4.286-4.286" transform="translate(-41.673 -11.742)" fill="#203a72"/>
        <path id="Path_1029463" data-name="Path 1029463" d="M94.179,3.154A.74.74,0,0,0,93.5,2.7h-1.96V.738A.739.739,0,0,0,90.274.215L88.25,2.24a.737.737,0,0,0-.217.523V4.807l-6.65,6.651a2.491,2.491,0,1,0,1.393,1.394L89.426,6.2h2.045a.738.738,0,0,0,.523-.216L94.018,3.96a.741.741,0,0,0,.161-.805" transform="translate(-47.612 0)" fill="#14a0de"/>
      </g>
    </g>
  </g>
</svg>
