<svg xmlns="http://www.w3.org/2000/svg" xmlns:xlink="http://www.w3.org/1999/xlink" width="127.922" height="128" viewBox="0 0 127.922 128">
  <defs>
    <clipPath id="clip-path">
      <rect id="Rectangle_458700" data-name="Rectangle 458700" width="62.882" height="56.768" fill="none"/>
    </clipPath>
  </defs>
  <g id="img11" transform="translate(-705.977 -1710.001)">
    <g id="Group_1180300" data-name="Group 1180300" transform="translate(705.935 1710.002)">
      <g id="Grupo_155253" data-name="Grupo 155253" transform="matrix(0.999, 0.035, -0.035, 0.999, 4.319, 0)">
        <path id="Trazado_196478" data-name="Trazado 196478" d="M17.389,19.468q-.386.412-.764.831A64.6,64.6,0,0,0,.044,66.072L25.8,65.147C25.1,44.584,40.69,27.331,60.618,26.613S97.267,41.982,97.965,62.546l25.755-.925c-.869-25.6-16.481-48.187-39.655-57.372A60.525,60.525,0,0,0,17.389,19.475" transform="translate(0 0)" fill="#f9ce5d"/>
        <path id="Trazado_196479" data-name="Trazado 196479" d="M0,4.454C1.195,39.7,29.849,67.266,64,66.036S124.871,35.241,123.676,0L97.92.925c.7,20.563-14.891,37.815-34.819,38.533S26.453,24.089,25.755,3.526Z" transform="translate(0.042 57.68)" fill="#70f5c8"/>
      </g>
      <ellipse id="Ellipse_13685" data-name="Ellipse 13685" cx="49.806" cy="49.887" rx="49.806" ry="49.887" transform="translate(14.269 14.359)" fill="#fff"/>
    </g>
    <g id="Group_1183508" data-name="Group 1183508" transform="translate(738.935 1746.002)">
      <g id="Group_1183507" data-name="Group 1183507" clip-path="url(#clip-path)">
        <path id="Path_1029280" data-name="Path 1029280" d="M3.756,83.952a2.248,2.248,0,0,0,0,4.5h21.5a5.162,5.162,0,0,1,.023-4.5Z" transform="translate(-0.715 -39.465)" fill="#203a72"/>
        <path id="Path_1029281" data-name="Path 1029281" d="M15.9,57.369a1.614,1.614,0,0,0-1.614,1.614v9.711H22.2V58.983a1.614,1.614,0,0,0-1.614-1.614Z" transform="translate(-6.715 -26.969)" fill="#203a72"/>
        <path id="Path_1029282" data-name="Path 1029282" d="M41.83,44.556H37.147a1.615,1.615,0,0,0-1.615,1.615v16.5h7.912v-16.5a1.615,1.615,0,0,0-1.614-1.615" transform="translate(-16.703 -20.945)" fill="#203a72"/>
        <path id="Path_1029283" data-name="Path 1029283" d="M64.684,33.347a1.61,1.61,0,0,0-1.607-1.607H58.4a1.615,1.615,0,0,0-1.63,1.607V53.981a30.649,30.649,0,0,1,7.918-4.355Z" transform="translate(-26.685 -14.921)" fill="#203a72"/>
        <path id="Path_1029284" data-name="Path 1029284" d="M85.956,42.821V20.556a1.631,1.631,0,0,0-1.63-1.607H79.645a1.61,1.61,0,0,0-1.607,1.607V42.728a17.721,17.721,0,0,1,3.726-.373,19.123,19.123,0,0,1,4.192.466" transform="translate(-36.685 -8.908)" fill="#203a72"/>
        <path id="Path_1029285" data-name="Path 1029285" d="M86.517,77.9c-2.71-2.758-9.4-8.631-17.222-8.631S54.784,75.137,52.074,77.9a2,2,0,0,0,0,2.8c2.71,2.759,9.4,8.632,17.222,8.632S83.806,83.455,86.517,80.7a2,2,0,0,0,0-2.8M69.3,86.421A7.125,7.125,0,1,1,76.42,79.3,7.125,7.125,0,0,1,69.3,86.421" transform="translate(-24.209 -32.56)" fill="#14a0de"/>
        <path id="Path_1029286" data-name="Path 1029286" d="M81.293,80.135a4.326,4.326,0,0,0-.783.075A2.546,2.546,0,0,1,77.1,83.624a4.33,4.33,0,0,0-.075.783,4.272,4.272,0,1,0,4.272-4.272" transform="translate(-36.207 -37.671)" fill="#14a0de"/>
        <path id="Path_1029287" data-name="Path 1029287" d="M11.525,23.052A11.526,11.526,0,1,0,0,11.526,11.526,11.526,0,0,0,11.525,23.052M10.293,5.086V3.522a.366.366,0,0,1,.367-.367H12.39a.366.366,0,0,1,.367.367V5.086a3.849,3.849,0,0,1,3.516,3.4.373.373,0,0,1-.365.421H14.156a.357.357,0,0,1-.353-.281,1.389,1.389,0,0,0-1.358-1.106H10.689A1.444,1.444,0,0,0,9.227,8.761a1.388,1.388,0,0,0,1.379,1.531h1.686a3.955,3.955,0,0,1,3.975,3.373,3.841,3.841,0,0,1-3.51,4.3v1.565a.367.367,0,0,1-.367.367H10.66a.367.367,0,0,1-.367-.367V17.963a3.847,3.847,0,0,1-3.515-3.4.373.373,0,0,1,.365-.421H8.894a.358.358,0,0,1,.354.28,1.389,1.389,0,0,0,1.358,1.106h1.839A1.387,1.387,0,0,0,13.823,14a1.442,1.442,0,0,0-1.46-1.242h-1.6A3.957,3.957,0,0,1,6.783,9.384a3.842,3.842,0,0,1,3.51-4.3" fill="#203a72"/>
      </g>
    </g>
  </g>
</svg>
