<svg xmlns="http://www.w3.org/2000/svg" width="243.966" height="379.004" viewBox="0 0 243.966 379.004">
  <g id="img13" transform="translate(-314.975 -6230.997)">
    <rect id="Rectangle_458866" data-name="Rectangle 458866" width="243.966" height="379.004" rx="10" transform="translate(314.975 6230.997)" fill="#f9ce5d"/>
    <g id="_222884494_416eb305-9e0d-42e5-936e-d8c306ad88f6" data-name="222884494_416eb305-9e0d-42e5-936e-d8c306ad88f6" transform="translate(266.571 6192.575)">
      <path id="Path_1031423" data-name="Path 1031423" d="M791.811,221.929c.962-1.269,2.827-3,4.491-3.212,1.928-.249,3.426.685,5.044,1.58a18.857,18.857,0,0,1,2.513,1.537l.107.09Z" transform="translate(-553.597 -102.727)" fill="#d1f0f6"/>
      <path id="Path_1031424" data-name="Path 1031424" d="M874.131,524.25c1.075,2.888,2.2,5.492,5.19,6.885a7.981,7.981,0,0,0,5.469.292,8.121,8.121,0,0,0,4.9-3.871,14.867,14.867,0,0,1,1.146-2.251l-.03,1.013a8.726,8.726,0,0,1-3.328,5.918,8.533,8.533,0,0,1-6.341,1.779,8.321,8.321,0,0,1-5.486-3.127A8.811,8.811,0,0,1,874.131,524.25Z" transform="translate(-615.734 -333.663)" fill="#048d91"/>
      <path id="Path_1031425" data-name="Path 1031425" d="M361.278,151.91l.123.191a12.117,12.117,0,0,1,.638,2.09,8.444,8.444,0,0,0,5.244,5.357,8.21,8.21,0,0,0,6.033-.6c2.4-1.349,3.44-3.407,4.216-5.925l.157.021.1,1.208a7.862,7.862,0,0,1-.165,1.235,8.768,8.768,0,0,1-3.749,5.607,8.062,8.062,0,0,1-6.2,1.257,8.367,8.367,0,0,1-5.309-3.7A9,9,0,0,1,361.278,151.91Z" transform="translate(-228.05 -52.269)" fill="#ea8210"/>
      <path id="Path_1031426" data-name="Path 1031426" d="M562.031,123.122c.4.927-.039,2.644-.01,3.719.163,6.007,3.191,11.456,8.952,13.72a14.556,14.556,0,0,0,11-.179,15.761,15.761,0,0,0,7.725-7.272c.493-.973.8-2.031,1.319-2.984a14.23,14.23,0,0,1-.965,4.142,15.768,15.768,0,0,1-8.413,8.65,15.431,15.431,0,0,1-11.947.035,14.484,14.484,0,0,1-7.761-7.709A15.3,15.3,0,0,1,562.031,123.122Z" transform="translate(-378.956 -30.513)" fill="#048d91"/>
      <path id="Path_1031427" data-name="Path 1031427" d="M68.237,636.776a3.422,3.422,0,0,1-.894,1.587,15.027,15.027,0,0,0-1.268,2.106c-3.353,6.886-3.038,14.235,1.652,20.46a16.515,16.515,0,0,0,11,6.421,18.5,18.5,0,0,0,12.786-2.909c.67-.466,2.049-1.826,2.836-1.914a10.491,10.491,0,0,1-1.613,1.928,18.252,18.252,0,0,1-26.2-.461,18.14,18.14,0,0,1-5.067-12.515A20.6,20.6,0,0,1,68.237,636.776Z" transform="translate(-1.643 -418.704)" fill="#f89e10"/>
      <path id="Path_1031428" data-name="Path 1031428" d="M788.583,855.3a4.857,4.857,0,0,0,.928-.2,6.19,6.19,0,0,0,.817-.838l2.15-2.069a34.969,34.969,0,0,1,2.733-2.239c4.413-3.346,9.537-5.673,14.511-8.054-.491,2.61-1.016,5.258-1.751,7.812l-1.829,5.416,12.379.075Z" transform="translate(-551.157 -573.724)" fill="#d1f0f6"/>
      <path id="Path_1031429" data-name="Path 1031429" d="M669.148,313.12c-.214-1.608-.7-3.148-.865-4.792-.57-5.837,1.264-11.843,4.164-16.864l2.23-3.481a8.8,8.8,0,0,0,.947-1.321c.218-.626.01-1.766.155-2.509l.027-.125.023,29.091Z" transform="translate(-460.163 -152.115)" fill="#d1f0f6"/>
      <path id="Path_1031430" data-name="Path 1031430" d="M102.257,565.833l-4.808-8.79,7.678-2.305a11.966,11.966,0,0,1,2.484-.767,14.386,14.386,0,0,1,2.7.79l7.658,2.292-4.8,8.732-7.2.015A34.956,34.956,0,0,0,102.257,565.833Z" transform="translate(-28.837 -356.124)" fill="#f89e10"/>
      <path id="Path_1031431" data-name="Path 1031431" d="M874.44,501.838a8.684,8.684,0,0,1,3.412-5.619,8.535,8.535,0,0,1,6-1.546,8.644,8.644,0,0,1,5.772,3.411,7.925,7.925,0,0,1,1.528,4.808A14.867,14.867,0,0,0,890,505.143a8.122,8.122,0,0,1-4.9,3.871,7.981,7.981,0,0,1-5.469-.292C876.639,507.329,875.515,504.726,874.44,501.838Z" transform="translate(-616.043 -311.251)" fill="#0cc6a0"/>
      <path id="Path_1031432" data-name="Path 1031432" d="M906.016,545.892l.639-.065a1.458,1.458,0,0,1-.779.865,1.884,1.884,0,0,1-1.518-.288c-.224-.182-.166-.179-.19-.444Z" transform="translate(-638.51 -349.97)" fill="#048d91"/>
      <path id="Path_1031433" data-name="Path 1031433" d="M895.352,514.078l-1.889-.107-.061-3.839-3.293.01-.052-2.495,3.377-.062a15.39,15.39,0,0,1,.114-3.853,15.575,15.575,0,0,1,2.346.1l.016,3.833c.839,0,2.631-.226,3.3.24a4.169,4.169,0,0,1,.158,2.211l-3.488.029a23.43,23.43,0,0,0,.113,3.867Z" transform="translate(-627.845 -318.156)" fill="#fefefe"/>
      <path id="Path_1031434" data-name="Path 1031434" d="M361.994,130.03a8.739,8.739,0,0,1,3.446-5.462,8.447,8.447,0,0,1,6.143-1.505,8.83,8.83,0,0,1,5.669,3.71,8.187,8.187,0,0,1,1.258,5.6l-.1-1.208-.157-.021c-.777,2.518-1.815,4.576-4.216,5.925a8.21,8.21,0,0,1-6.033.6,8.444,8.444,0,0,1-5.244-5.357,12.119,12.119,0,0,0-.638-2.09Z" transform="translate(-228.765 -30.39)" fill="#f9b818"/>
      <path id="Path_1031435" data-name="Path 1031435" d="M385.7,136.713a1.947,1.947,0,0,1,1.155.2,1.6,1.6,0,0,0,.172.834c.554.086,1.407.172,1.756.611a2.115,2.115,0,0,1-.589,1.144,3.165,3.165,0,0,0-2.29-.286,1.391,1.391,0,0,0-.241,1.05c.413.624,1.458.909,2.12,1.267a2.335,2.335,0,0,1,1.147,1.422,1.97,1.97,0,0,1-.3,1.431,2.641,2.641,0,0,1-1.783,1.049c-.309.07-.5.412-.7.652l-.059.189a1.091,1.091,0,0,1-.754-.133c-.322-1.2-1.236-.533-1.894-1.3.158-.44.175-.691.558-.971a3.444,3.444,0,0,0,1.695.382,1.542,1.542,0,0,0,1.283-.64,2.545,2.545,0,0,0,.05-.526c-.26-.7-2.238-.962-2.87-1.826a1.83,1.83,0,0,1-.328-1.555,1.873,1.873,0,0,1,.883-1.208l.844-.6Z" transform="translate(-244.967 -40.784)" fill="#fefefe"/>
      <path id="Path_1031436" data-name="Path 1031436" d="M63.9,861.922l-4.6-.007v-48.3l4.561.044Z" transform="translate(-0.001 -552.348)" fill="#048d91"/>
      <path id="Path_1031437" data-name="Path 1031437" d="M121.534,431.888c2.66-.309,4.9-.093,7.062,1.637a8.4,8.4,0,0,1,2.926,4.889,7.828,7.828,0,0,1-.031,3.264,7.876,7.876,0,0,1-8.977,6.909A8.64,8.64,0,0,1,115,438.917a5.893,5.893,0,0,1,.789-2.644A8.791,8.791,0,0,1,121.534,431.888Z" transform="translate(-42.064 -263.772)" fill="#f9b818"/>
      <path id="Path_1031438" data-name="Path 1031438" d="M115,461.032l.121.189a11.044,11.044,0,0,1,.609,2.063,8.3,8.3,0,0,0,5.613,5.288,9.169,9.169,0,0,0,6.672-.811c1.863-1.066,2.27-2.388,3.477-3.968a7.876,7.876,0,0,1-8.977,6.909A8.639,8.639,0,0,1,115,461.032Z" transform="translate(-42.064 -285.887)" fill="#ea8210"/>
      <path id="Path_1031439" data-name="Path 1031439" d="M140.366,444.782a2.215,2.215,0,0,1,1.324.085c.066,1.58,1.19,1.029,2.109,1.933a2.744,2.744,0,0,1-.519,1.12c-.826.414-2-.809-2.995-.515-.2.058-.215.268-.29.439.422,1.373,3.153.834,3.923,2.475a2.1,2.1,0,0,1,.019,1.5,3,3,0,0,1-1.888,1.6c-.3.121-.352.427-.488.709v.251a2.364,2.364,0,0,1-1.05,0l-.2-.844-.582-.074a4.832,4.832,0,0,1-.992-.16,1.086,1.086,0,0,1-.711-.721,4.437,4.437,0,0,1,.558-1.218l.686.195.666.18a2.129,2.129,0,0,0,1.747-.242l.067-.442c-.829-.889-2.5-.42-3.387-1.669a2.3,2.3,0,0,1-.268-1.863c.3-1.291,1.258-1.238,2.168-1.825Z" transform="translate(-59.495 -273.562)" fill="#fefefe"/>
      <path id="Path_1031440" data-name="Path 1031440" d="M408.18,1145.985a37.334,37.334,0,0,0,4.907.076l9.212-.024,14.48-.007,8.569.027a1.061,1.061,0,0,0,.651-.266l-.009,12.523,3.469.029a4.081,4.081,0,0,0,1.67-.149,1.684,1.684,0,0,1-.607.227,23.482,23.482,0,0,1-3.417,0l-7.491-.093-22.888-.044c-1.413.007-7.715.369-8.6-.269l0-11.861Z" transform="translate(-263.627 -803.388)" fill="#0cc6a0"/>
      <path id="Path_1031441" data-name="Path 1031441" d="M131.345,1149.267a6.014,6.014,0,0,0,2.214.132c1.271-.032,2.582-.015,3.844-.159l-.105.474.049,1.529c1.665,1.312,8.186-1.221,8.511,1.842a30.141,30.141,0,0,1,.061,3.249,6.632,6.632,0,0,1-.078,1.668,2.122,2.122,0,0,1-.626,1.746,5.089,5.089,0,0,1-2.948.984l-.382-.061a1.281,1.281,0,0,1-.817.142c-1.176-.122-4.135.23-5.016-.4a1.352,1.352,0,0,1-.521.213,39.348,39.348,0,0,1-4.83-.007l-10.4-.02-18.181,0c-2.845,0-5.823.181-8.656-.01a2.121,2.121,0,0,1-1.208-.5,2.3,2.3,0,0,1-.808-1.7,4.733,4.733,0,0,1-.074-1.424c-.007-1.146-.072-2.335.012-3.476.254-3.417,5.368-.75,7.1-2.242-.336-.042-.338-.1-.571-.357v-1.234a1.119,1.119,0,0,1,.286-.21,5.53,5.53,0,0,1,1.12-.015l3.235-.034,21.61-.039,4.511.007A14.983,14.983,0,0,0,131.345,1149.267Z" transform="translate(-24.224 -805.995)" fill="#f9b818"/>
      <path id="Path_1031442" data-name="Path 1031442" d="M254.58,1149.267a6.014,6.014,0,0,0,2.214.132c1.271-.032,2.582-.015,3.844-.159l-.105.474.049,1.529c-.612.476-1.052.359-1.814.379l-.387-.393c-.721.5-2.525.425-3.428.293a2.817,2.817,0,0,1-.544-.154l.162-.019c.348-.134.41-.4.549-.7A2.829,2.829,0,0,0,254.58,1149.267Z" transform="translate(-147.458 -805.995)" fill="#f89e10"/>
      <path id="Path_1031443" data-name="Path 1031443" d="M272.822,1151.18l.049,1.529c-.612.476-1.052.359-1.814.379l-.387-.393a.694.694,0,0,0,.276.019C271.62,1152.619,272.422,1151.691,272.822,1151.18Z" transform="translate(-159.748 -807.461)" fill="#fefefe"/>
      <path id="Path_1031444" data-name="Path 1031444" d="M276.679,1185.217c1.46.445,3.619.191,5.157.191a6.547,6.547,0,0,0,2.008-.078,2.046,2.046,0,0,0,.33-.22,2.122,2.122,0,0,1-.626,1.746,5.09,5.09,0,0,1-2.948.984l-.382-.061a1.281,1.281,0,0,1-.817.142c-1.176-.122-4.135.23-5.016-.4a4.318,4.318,0,0,0,1.988.059c.23-.088.426-.581.52-.8A2.014,2.014,0,0,0,276.679,1185.217Z" transform="translate(-162.555 -833.104)" fill="#f89e10"/>
      <path id="Path_1031445" data-name="Path 1031445" d="M118.234,1150.972v-1.234a1.119,1.119,0,0,1,.286-.21,5.513,5.513,0,0,1,1.12-.015l3.235-.034,21.61-.039,4.511.007a14.983,14.983,0,0,0,2.67-.1,2.83,2.83,0,0,1,.54,1.38c-.139.305-.2.567-.549.7l-.162.02a1.8,1.8,0,0,1-.6.208,58.229,58.229,0,0,1-6.264.061l-13.744,0-7.27.024c-1.25.01-2.593.125-3.834.012a1.517,1.517,0,0,1-.982-.425C118.469,1151.287,118.467,1151.223,118.234,1150.972Z" transform="translate(-44.545 -806.078)" fill="#ea8210"/>
      <path id="Path_1031446" data-name="Path 1031446" d="M91.771,1185.828c.447-.3,1.586-.134,2.156-.134l6.687-.007,25.092-.081,8.335-.012c1.529,0,3.1.071,4.627-.044a2.014,2.014,0,0,1,.214,1.566c-.093.217-.289.711-.52.8a4.316,4.316,0,0,1-1.988-.059,1.35,1.35,0,0,1-.521.213,39.324,39.324,0,0,1-4.83-.007l-10.4-.019-18.181,0c-2.845,0-5.823.181-8.656-.01a2.121,2.121,0,0,1-1.208-.5A2.3,2.3,0,0,1,91.771,1185.828Z" transform="translate(-24.546 -833.436)" fill="#ea8210"/>
      <path id="Path_1031447" data-name="Path 1031447" d="M566.035,92.609a15.9,15.9,0,0,1,8.127-8.618,14.667,14.667,0,0,1,11.57-.107,15.54,15.54,0,0,1,8.337,8.47,14.622,14.622,0,0,1,.948,7.259c-.518.954-.826,2.011-1.319,2.984a15.761,15.761,0,0,1-7.725,7.272,14.556,14.556,0,0,1-11,.179c-5.76-2.265-8.789-7.713-8.952-13.72C566,95.253,566.434,93.536,566.035,92.609Z" transform="translate(-382.96)" fill="#0cc6a0"/>
      <path id="Path_1031448" data-name="Path 1031448" d="M608.083,107.272a4.223,4.223,0,0,1,1.994.225l.061,1.2c.389.56,1.421.423,2.035.777.281.162.222.224.3.521a2.972,2.972,0,0,1-.485,1.269,7.023,7.023,0,0,0-3.2-.215,1.9,1.9,0,0,0-1.071.926c-.883,1.912,3.053,3.182,4.158,4.04a3.887,3.887,0,0,1,1.348,1.854,4.473,4.473,0,0,1-.294,3.24,4.085,4.085,0,0,1-2.725,1.939c-.068.018-.158,0-.2.054-.181.2.119,1.733-.193,2.218h-1.559c-.54-.494,0-1.424-.4-2.076a3.964,3.964,0,0,1-2.392-.655,3.164,3.164,0,0,1,.42-1.579c1.068.1,2.663.614,3.665.163a2.234,2.234,0,0,0,1.226-1.281c.723-2.136-2.478-3-3.822-3.835a3.831,3.831,0,0,1-1.5-1.613,4.019,4.019,0,0,1-.068-3.074,4.409,4.409,0,0,1,2.671-2.286Z" transform="translate(-412.493 -18.528)" fill="#fefefe"/>
      <path id="Path_1031449" data-name="Path 1031449" d="M213.382,208.208a16.009,16.009,0,0,1,9.083-8.465,14.4,14.4,0,0,1,11.16.654,15.589,15.589,0,0,1,7.76,8.686,16.162,16.162,0,0,1-.925,12.546,2.788,2.788,0,0,1-.356.618l-1.446,2.412a16.36,16.36,0,0,1-2.369,2.531,14.4,14.4,0,0,1-10.461,3.244c-4.515-.363-7.971-2.637-10.82-6.03a15.512,15.512,0,0,1-2.021-3.656A15.922,15.922,0,0,1,213.382,208.208Z" transform="translate(-115.323 -87.797)" fill="#0b9aee"/>
      <path id="Path_1031450" data-name="Path 1031450" d="M252.055,281.1a4.764,4.764,0,0,0,2.793,3.042c.436.173,1.366.28,1.518.735l.074.7a3.087,3.087,0,0,0,1.562.2c.114-.2.117-.153.142-.331l.132-.872a8.968,8.968,0,0,0,2.821-1.245,2.093,2.093,0,0,1-.918,1.651,21.864,21.864,0,0,0-2.037,1.373,2.231,2.231,0,0,1-.591.383c-1.152.44-3.191-.309-4.242-.844a3,3,0,0,1-1.255-4.794Z" transform="translate(-145.131 -149.903)" fill="#173d75"/>
      <path id="Path_1031451" data-name="Path 1031451" d="M213.382,236.946l.288.288c-.073,1.226-.394,2.413-.453,3.654a15.676,15.676,0,0,0,3.715,10.933,14.977,14.977,0,0,0,9.79,4.941,14.74,14.74,0,0,0,10.712-3.607l2.329-2.333.339.163-1.446,2.412a16.359,16.359,0,0,1-2.369,2.531,14.4,14.4,0,0,1-10.461,3.244c-4.515-.363-7.971-2.637-10.82-6.03a15.512,15.512,0,0,1-2.021-3.656A15.922,15.922,0,0,1,213.382,236.946Z" transform="translate(-115.323 -116.535)" fill="#004fb2"/>
      <path id="Path_1031452" data-name="Path 1031452" d="M250.463,227.583a4.629,4.629,0,0,1,2.774-2.749,4.37,4.37,0,0,0,1.342-.426,1.96,1.96,0,0,1,.194-.979,6.53,6.53,0,0,1,1.68.068l.161.825a5.679,5.679,0,0,1,2.6,1.012,2.952,2.952,0,0,1,1.23,2.251,3.764,3.764,0,0,1-.2,1.757c-1.073.755-2.633.71-3.811,1.333l.155.545c1.828.758,3.344,1.112,4.177,3.136a4.616,4.616,0,0,1-.051,3.535,6.793,6.793,0,0,1-1.282,1.839,8.968,8.968,0,0,1-2.821,1.245l-.132.872c-.025.178-.028.132-.142.331a3.087,3.087,0,0,1-1.562-.2l-.074-.7c-.151-.455-1.082-.562-1.518-.735a4.764,4.764,0,0,1-2.793-3.042,2.821,2.821,0,0,1,1.808-.758c.5-.011.8.451,1.149.784l-.021-1.211c-.481-.763-1.8-1.061-2.517-1.682a4.689,4.689,0,0,1-1.676-3.314A5.1,5.1,0,0,1,250.463,227.583Z" transform="translate(-143.464 -106.303)" fill="#fefefe"/>
      <path id="Path_1031453" data-name="Path 1031453" d="M279.528,271.515l.03.154a10.332,10.332,0,0,1,.167,1.62l1.457.791a10.47,10.47,0,0,1-1.669.881Z" transform="translate(-166.431 -142.66)" fill="#004fb2"/>
      <path id="Path_1031454" data-name="Path 1031454" d="M279.574,267.683l.012-1.133.245-.106a3.1,3.1,0,0,1,1.837,1.634,2.05,2.05,0,0,1-.158,1.753l-.282.415-1.457-.791a10.335,10.335,0,0,0-.167-1.62Z" transform="translate(-166.477 -138.829)" fill="#173d75"/>
      <path id="Path_1031455" data-name="Path 1031455" d="M265.635,236.168c.462.589.213,3.274.175,4.142l-.274.129-.868-.435a3.924,3.924,0,0,1-.525-.689,1.863,1.863,0,0,1-.158-1.608A2.8,2.8,0,0,1,265.635,236.168Z" transform="translate(-154.609 -115.947)" fill="#173d75"/>
      <path id="Path_1031456" data-name="Path 1031456" d="M278.952,239.52a34.455,34.455,0,0,0-.03-4.408,4.212,4.212,0,0,1,1.526.865c.254.294.416.7.649,1.027a3.834,3.834,0,0,0,1.678-.477l.192-.1a3.764,3.764,0,0,1-.2,1.757C281.69,238.942,280.13,238.9,278.952,239.52Z" transform="translate(-165.984 -115.149)" fill="#173d75"/>
      <path id="Path_1031457" data-name="Path 1031457" d="M253.344,250.446l-.021-1.211c-.481-.763-1.8-1.061-2.517-1.682a4.69,4.69,0,0,1-1.676-3.314,5.1,5.1,0,0,1,1.331-3.735c-.093,1.491-.153,2.873.9,4.075a5.01,5.01,0,0,0,1.7,1.131,8.776,8.776,0,0,1,1.537.741c.007.009,0,.388,0,.431l.012,4.262-.3.11A2.223,2.223,0,0,1,253.344,250.446Z" transform="translate(-143.464 -119.224)" fill="#173d75"/>
      <path id="Path_1031458" data-name="Path 1031458" d="M394.525,207.935c-1.431.015-2.653.225-3.779-.852a3.027,3.027,0,0,1-.924-2.2,2.9,2.9,0,0,1,.994-2.227,38.06,38.06,0,0,1,4.209-3l8.768-6.169,10.55-7.505c1.408-1,2.783-2.163,4.25-3.069a2.527,2.527,0,0,1,1.593-.473,3.081,3.081,0,0,1,1.474.593c1.788,1.166,3.434,2.559,5.177,3.793l19.576,14a13.1,13.1,0,0,1,2.483,1.919,3.452,3.452,0,0,1,.657,2.493,3.5,3.5,0,0,1-1.223,2.169c-.942.719-2.918.419-4.089.493Z" transform="translate(-249.796 -75.334)" fill="#57c0f1"/>
      <path id="Path_1031459" data-name="Path 1031459" d="M93.227,1047.28a1.2,1.2,0,0,0,.78.305c1.679.088,3.416-.017,5.1-.019l10.849-.01,6.062,0a17.254,17.254,0,0,0,2.821-.029,1.646,1.646,0,0,0,.592-.252l.09.054c.949.518,5.308.232,6.594.169l0,6.832-4.442.032a6.507,6.507,0,0,1-2.386-.164c.181.479.421.862.214,1.38a.7.7,0,0,1-.343.425l.168.017,6.792.042v3.317a6.007,6.007,0,0,0,.073,1.639l-.011,1.615a7.237,7.237,0,0,0,.143,2.352l.535.222.369-.364a4.434,4.434,0,0,0,2.059.2,21.484,21.484,0,0,0,4.05-.193l.037,6.5-.064.828c-1.263.144-2.573.127-3.844.159a6.006,6.006,0,0,1-2.214-.132,15,15,0,0,1-2.67.1l-4.511-.007-21.61.039-3.235.034a5.5,5.5,0,0,0-1.12.015,1.119,1.119,0,0,0-.286.21v1.234a.9.9,0,0,1-.707-.393c-1.142-1.2-.735-4.9-.675-6.541a1.544,1.544,0,0,1,.573-1.341,1.269,1.269,0,0,0,.395-.489l.077-.193-.166-.046a5.825,5.825,0,0,1-2.946-.149l-.16-.1-.575-.386a1.886,1.886,0,0,1-.738-1.495,3.933,3.933,0,0,1-.109-1.629,43.028,43.028,0,0,0-.05-4.5,1.619,1.619,0,0,1-.822-.335l-.088-.066-.517.1a2.757,2.757,0,0,1-.49-.305,1.879,1.879,0,0,1-.683-1.351c-.224-.318-.129-1.038-.131-1.441a25.652,25.652,0,0,1,.029-4.211C86.48,1046.42,91.623,1048.3,93.227,1047.28Z" transform="translate(-20.127 -728.932)" fill="#f9b818"/>
      <path id="Path_1031460" data-name="Path 1031460" d="M220.9,1110.374l.339.11a10.059,10.059,0,0,0,2.028-.017c1.163-.029,3.946.293,4.824-.327a7.238,7.238,0,0,0,.143,2.352l-.218.066c-1.009.247-6.451.247-7.239-.176.251-.071.347-.271.509-.469A2.233,2.233,0,0,0,220.9,1110.374Z" transform="translate(-122.045 -776.446)" fill="#f89e10"/>
      <path id="Path_1031461" data-name="Path 1031461" d="M125.038,1083l.168.017,6.792.042v3.317a6.006,6.006,0,0,0,.073,1.639l-.011,1.615c-.877.62-3.661.3-4.824.327a10.068,10.068,0,0,1-2.028.017l-.339-.11a2.233,2.233,0,0,1,.387,1.539c-.162.2-.259.4-.509.469a1.824,1.824,0,0,1-.56.191,50.68,50.68,0,0,1-6.39.032l-12.522,0-3.672-.01a6.761,6.761,0,0,1-2.24-.21l-.166-.046a5.826,5.826,0,0,1-2.946-.149l-.16-.1-.575-.386a1.886,1.886,0,0,1-.738-1.495,3.933,3.933,0,0,1-.109-1.629,43.025,43.025,0,0,0-.05-4.5,1.621,1.621,0,0,1-.822-.335l-.088-.066a4.2,4.2,0,0,0,.932.2c2.142.176,4.442.007,6.6,0l13.27,0,7.25.061a12.462,12.462,0,0,0,2.769-.01A3.132,3.132,0,0,0,125.038,1083Z" transform="translate(-26.01 -755.935)" fill="#f9b818"/>
      <path id="Path_1031462" data-name="Path 1031462" d="M98.086,1108.936l.124-.476.121.454a17.462,17.462,0,0,0,5.154.09l-.181.107a5.187,5.187,0,0,1-2.055.13,6.874,6.874,0,0,0,1.256,1.825,5.826,5.826,0,0,1-2.946-.149l-.16-.1-.575-.386A1.886,1.886,0,0,1,98.086,1108.936Z" transform="translate(-29.318 -775.176)" fill="#f89e10"/>
      <path id="Path_1031463" data-name="Path 1031463" d="M113.27,1110.69a5.187,5.187,0,0,0,2.144.2l4.2-.024,11.087-.027,4.88,0a11.927,11.927,0,0,0,2.384-.047,2.233,2.233,0,0,1,.387,1.539c-.162.2-.259.4-.509.469a1.818,1.818,0,0,1-.56.19,50.68,50.68,0,0,1-6.39.032l-12.522,0-3.672-.01a6.754,6.754,0,0,1-2.24-.21l-.166-.047a6.875,6.875,0,0,1-1.256-1.824,5.184,5.184,0,0,0,2.055-.13Z" transform="translate(-39.104 -776.861)" fill="#ea8210"/>
      <path id="Path_1031464" data-name="Path 1031464" d="M93.227,1047.28a1.2,1.2,0,0,0,.78.305c1.679.088,3.416-.017,5.1-.019l10.849-.01,6.062,0a17.254,17.254,0,0,0,2.821-.029,1.646,1.646,0,0,0,.592-.252l.09.054c.949.518,5.308.232,6.594.169l0,6.832-4.442.032a6.507,6.507,0,0,1-2.386-.164c.181.479.421.862.214,1.38a.7.7,0,0,1-.343.425,3.132,3.132,0,0,1-.511.425,12.47,12.47,0,0,1-2.769.01l-7.25-.061-13.27,0c-2.156,0-4.455.173-6.6,0a4.185,4.185,0,0,1-.932-.2l-.517.1a2.757,2.757,0,0,1-.49-.305,1.878,1.878,0,0,1-.683-1.351c-.224-.318-.129-1.038-.131-1.441a25.651,25.651,0,0,1,.029-4.211C86.48,1046.42,91.623,1048.3,93.227,1047.28Z" transform="translate(-20.127 -728.932)" fill="#f9b818"/>
      <path id="Path_1031465" data-name="Path 1031465" d="M86.788,1076.018l.1-.344,33.045-.064c.181.479.421.862.214,1.38a.7.7,0,0,1-.343.425,3.131,3.131,0,0,1-.511.425,12.477,12.477,0,0,1-2.769.01l-7.25-.061-13.27,0c-2.156,0-4.455.173-6.6,0a4.192,4.192,0,0,1-.932-.2l-.517.1a2.742,2.742,0,0,1-.49-.305A1.878,1.878,0,0,1,86.788,1076.018Z" transform="translate(-20.78 -750.35)" fill="#ea8210"/>
      <path id="Path_1031466" data-name="Path 1031466" d="M82.406,602.325a34.956,34.956,0,0,1,3.705-.033l7.2-.015.178.308a82.488,82.488,0,0,0,16.048,1.357l0,26.482a21.352,21.352,0,0,0-2.883,1.34c-.97.6-2,1.8-3.049,2.109a16.459,16.459,0,0,1-1.913,2.567c-.787.088-2.166,1.448-2.836,1.914a18.5,18.5,0,0,1-12.786,2.909,16.515,16.515,0,0,1-11-6.42c-4.69-6.225-5.005-13.574-1.652-20.46a15,15,0,0,1,1.268-2.106,3.425,3.425,0,0,0,.894-1.587,26.265,26.265,0,0,1,4.059-3.347,11.281,11.281,0,0,1,2.7-1.93Z" transform="translate(-8.986 -392.616)" fill="#f9b818"/>
      <path id="Path_1031467" data-name="Path 1031467" d="M116.926,602.325a34.956,34.956,0,0,1,3.705-.033l7.2-.015.178.308.024,2.737c-2.329.161-4.7.1-7.033.1a37.991,37.991,0,0,1-4.14-.014Z" transform="translate(-43.506 -392.616)" fill="#981f28"/>
      <path id="Path_1031468" data-name="Path 1031468" d="M122.434,657.39c1.65.639,3.582,1.587,4.3,3.33a4.486,4.486,0,0,1-.137,3.266c-.752,1.851-2.248,2.533-3.974,3.268l-.048,1.61a.926.926,0,0,1-.432.689,2.888,2.888,0,0,1-1.971.063,1.948,1.948,0,0,1-.637-1.758c0-.062.007-.59-.013-.615a3.836,3.836,0,0,0-.663-.3,6.936,6.936,0,0,1-3.794-3.372l.438-.4a14.907,14.907,0,0,1,2.826-1.774c.147.155.131.11.2.264.415.882.716,1.717,1.716,2.1a2.065,2.065,0,0,0,1.527.017c.443-.226.516-.533.687-.963a2.431,2.431,0,0,0-.129-.5,2.955,2.955,0,0,0-1.28-.767,20.456,20.456,0,0,1-3.1-1.388,5.31,5.31,0,0,1-2.544-3.316,4.308,4.308,0,0,1,2.223-4.6,18.7,18.7,0,0,0,1.829-.687c.144-.2-.03-1.195.058-1.5a2.459,2.459,0,0,1,.281-.438,2.315,2.315,0,0,1,1.666-.322c1.24.158,1.07.985,1.153,1.984a3.256,3.256,0,0,0,.046.551c.042.052,1.5.365,1.732.439a4.084,4.084,0,0,1,2.077,1.374,1.589,1.589,0,0,1,.353,1.078c-.132.725-1.617,1.8-2.2,2.232l-1.566-.56Z" transform="translate(-42.148 -428.145)" fill="#0b9aee"/>
      <path id="Path_1031469" data-name="Path 1031469" d="M137.631,675.451a5.642,5.642,0,0,1-2.273-1.084c-.255-.275-.177-.47-.173-.83a1.2,1.2,0,0,1,.869-.372,3.055,3.055,0,0,1,2.2,1.291Z" transform="translate(-57.345 -446.205)" fill="#f9b818"/>
      <path id="Path_1031470" data-name="Path 1031470" d="M162.5,603.6a82.488,82.488,0,0,0,16.048,1.357l0,26.482a21.343,21.343,0,0,0-2.883,1.339c-.97.6-2,1.8-3.049,2.109a19.629,19.629,0,0,0,1.884-14.105c-1.7-6.351-6.347-11.222-11.978-14.445Z" transform="translate(-78.002 -393.631)" fill="#d1f0f6"/>
      <path id="Path_1031471" data-name="Path 1031471" d="M809.267,272.152c5.9,4.634,10.8,12.228,11.713,19.759,1.037,8.573-1.561,16.409-6.864,23.164a37.5,37.5,0,0,1-11.677,9.961,50.834,50.834,0,0,1-12.122,4.311c-1.174.278-2.361.53-3.557.7a11.039,11.039,0,0,0-1.377.2c-.027.027,0,.076,0,.115l.064,15.736A36.139,36.139,0,0,1,809.2,359.94l2.327,3.542c-6.219-1.181-11.642-.369-16.966,3.272a21.9,21.9,0,0,0-8.189,10.889c-.4,1.045-.562,2.309-1.042,3.292l-.014-17.141-.035-32.755,0-11.617a36.79,36.79,0,0,0-.119-5.858,12.186,12.186,0,0,0-2.885-5.76l15.38.028,5.186,0a8.834,8.834,0,0,0,2.993-.247,5.967,5.967,0,0,0,3.429-3.506,29.036,29.036,0,0,0,.071-3.9l-.039-6.325Z" transform="translate(-546.39 -143.142)" fill="#d1f0f6"/>
      <path id="Path_1031472" data-name="Path 1031472" d="M794.449,661.956c.481-.983.646-2.247,1.042-3.292a21.9,21.9,0,0,1,8.189-10.889c5.325-3.641,10.747-4.453,16.966-3.272,5.465,1.6,10.607,5.127,13.392,10.2a23.828,23.828,0,0,1,2.071,17.8,22.459,22.459,0,0,1-10.564,13.2,20.477,20.477,0,0,1-15.9,1.273,21.32,21.32,0,0,1-12.861-11.113,33.157,33.157,0,0,1-2.262-6.033A53.079,53.079,0,0,1,794.449,661.956Z" transform="translate(-555.508 -424.161)" fill="#f9b818"/>
      <path id="Path_1031473" data-name="Path 1031473" d="M833.766,668.88a15.311,15.311,0,0,1,9.826,3.063,16.224,16.224,0,0,1,6.214,10.758,16.653,16.653,0,0,1-3.377,12.631c-2.75,3.491-6.432,4.964-10.72,5.5l-.156.021c-3.435.418-7.425-1.262-10.091-3.332a16.042,16.042,0,0,1-2.6-22.828A15.536,15.536,0,0,1,833.766,668.88Z" transform="translate(-574.339 -442.939)" fill="#fefefe"/>
      <path id="Path_1031474" data-name="Path 1031474" d="M864.731,680.494c.485.015.923-.08,1.287.26l-.011,3a8.21,8.21,0,0,0,1.415.262,6.955,6.955,0,0,1,3.045,1.323l-.015,1.145-.174.158-.973-.521a6.532,6.532,0,0,0-5.358-.732,3.9,3.9,0,0,0-2.37,5.064c1.186,2.887,4.337,2.079,6.629,3.162a5.431,5.431,0,0,1,2.646,3.318,5.36,5.36,0,0,1-.5,4.023c-.97,1.733-2.376,2.207-4.2,2.714a9.835,9.835,0,0,1-.09,2.93c-.091.2-.657.275-.874.336l-.11-.1c-.523-.522-.312-2.4-.315-3.149a7.434,7.434,0,0,1-4.966-2.551l1.242-1.037a5.614,5.614,0,0,0,1.814,1.86,4.738,4.738,0,0,0,3.608.341,4.405,4.405,0,0,0,2.511-2.18,4.549,4.549,0,0,0,.071-3.335c-1.043-2.866-3.917-2.238-6.177-3.262a4.885,4.885,0,0,1-2.639-2.962,5.1,5.1,0,0,1,.227-3.611c.9-1.811,2.343-2.509,4.178-3.109A13.4,13.4,0,0,0,864.731,680.494Z" transform="translate(-604.973 -451.742)" fill="#57c0f1"/>
      <path id="Path_1031475" data-name="Path 1031475" d="M162.114,303.248c2.849,3.393,6.305,5.667,10.82,6.03a14.4,14.4,0,0,0,10.461-3.244,16.36,16.36,0,0,0,2.369-2.531c8.245,2.136,14.846,7.715,19.115,14.987.744,1.267,1.295,3.449,2.322,4.425l.016,4.642-26.066.033-7.359.007a26.254,26.254,0,0,0-4.122.116,7.709,7.709,0,0,0-4.262,2.268,8.468,8.468,0,0,0-2.3,4.294,15.952,15.952,0,0,0-.139,3.071l-.007,4.889.016,17.239a15.767,15.767,0,0,1-3.176-1.216,49.008,49.008,0,0,1-11.6-7.913,8.9,8.9,0,0,0,3.652-5.8,7.828,7.828,0,0,0,.031-3.264,8.4,8.4,0,0,0-2.926-4.889c-2.158-1.73-4.4-1.946-7.062-1.637l.011-2.011c.559-9.352,5.956-18.758,13.168-24.6C157.31,306.338,160,305.148,162.114,303.248Z" transform="translate(-62.43 -166.642)" fill="#d1f0f6"/>
      <path id="Path_1031476" data-name="Path 1031476" d="M408.749,286.746l49.717-.035-.006,4.165.02,24.274-.016,6.391-19.207,0-10.822,0-19.621.019-.007-6.492-.016-4.642-.019-14.964a55.865,55.865,0,0,1,.044-7.9Z" transform="translate(-264.02 -154.145)" fill="#f9b818"/>
      <path id="Path_1031477" data-name="Path 1031477" d="M409.077,286.746l49.717-.035-.006,4.165a1.881,1.881,0,0,1-.292.937l-49.317,0a34.644,34.644,0,0,0-.02-4.133l-.014-.118Z" transform="translate(-264.348 -154.145)" fill="#f89e10"/>
      <path id="Path_1031478" data-name="Path 1031478" d="M489.372,352.577l-.013-13.7a37.727,37.727,0,0,1,.141-6.754,5.38,5.38,0,0,1,5.62-4.329,5.2,5.2,0,0,1,3.8,1.936,5.548,5.548,0,0,1,1.193,2.523,41.673,41.673,0,0,1,.075,6.148l.009,14.18Z" transform="translate(-324.957 -185.188)" fill="#173d75"/>
      <path id="Path_1031479" data-name="Path 1031479" d="M721.834,231.757l12.155,0,7.369-.016a14.523,14.523,0,0,1,3.211.072,2.486,2.486,0,0,1,1.071.648,2.586,2.586,0,0,1,.757,1.354,13.973,13.973,0,0,1,.065,2.6l.034,5.155.028,21.711.039,6.325a29.047,29.047,0,0,1-.071,3.9A5.967,5.967,0,0,1,743.063,277a8.834,8.834,0,0,1-2.993.247l-5.186,0-15.38-.028a14.957,14.957,0,0,0-4.846-2.922c-.967-.335-2.049-.5-3.046-.749l-12.327.008-.023-29.091.014-7.578a18.1,18.1,0,0,1,.044-3.313,2.7,2.7,0,0,1,1.8-1.8,10.22,10.22,0,0,1,2.03-.055l3.977.016Z" transform="translate(-483.619 -112.555)" fill="#048d91"/>
      <path id="Path_1031480" data-name="Path 1031480" d="M804.014,376.526a.792.792,0,0,1,.12.377,2.042,2.042,0,0,1-.6,1.575,14.773,14.773,0,0,1-3.636.157,6.267,6.267,0,0,1-1.709-.071.659.659,0,0,1-.493-.474,3.092,3.092,0,0,1,.046-1.978l.319-.045c.412.443.424.507,1.044.536Z" transform="translate(-557.937 -221.676)" fill="#026e73"/>
      <path id="Path_1031481" data-name="Path 1031481" d="M730.471,362.538a12.826,12.826,0,0,1-.436,1.929,30.01,30.01,0,0,1-5.167.055c-.586-.037-.695-.258-1.069-.668a15.617,15.617,0,0,1-.093-3.44,7.937,7.937,0,0,1,.116-1.872,4.124,4.124,0,0,1,.51-1.031,44.184,44.184,0,0,0,.21,5.036Z" transform="translate(-502.09 -207.651)" fill="#026e73"/>
      <path id="Path_1031482" data-name="Path 1031482" d="M766.525,366.769l0,.308a1.944,1.944,0,0,1-.676,1.613,6.741,6.741,0,0,1-1.932.1,13.377,13.377,0,0,1-3.683-.127,2.638,2.638,0,0,1-.5-1.674c-.06-1.106-.13-3.04.62-3.869l.355.151c.008.893-.221,2.613.255,3.32a5.325,5.325,0,0,0,2.089.208Z" transform="translate(-529.325 -211.892)" fill="#026e73"/>
      <path id="Path_1031483" data-name="Path 1031483" d="M834.994,331.475c-.976-1.155-.472-6.238-.352-7.934l.085,5.117,6.095.032-.019.168-.075,2.347c-.965,0-4.618-.256-5.26.089Z" transform="translate(-585.787 -181.979)" fill="#026e73"/>
      <path id="Path_1031484" data-name="Path 1031484" d="M761.437,333.882a1.487,1.487,0,0,1-.693-.506c-.783-1.143-.856-4.349-.507-5.7.1-.381.276-.467.6-.651.375.617.1,2.833.214,3.708.23.339.265.506.7.6a9.563,9.563,0,0,0,1.817.041l3.114-.034.251.232-.214,2.061-.239.163A16.686,16.686,0,0,0,761.437,333.882Z" transform="translate(-529.584 -184.611)" fill="#026e73"/>
      <path id="Path_1031485" data-name="Path 1031485" d="M724.842,326.028c.125,1.107-.227,3.815.339,4.561l.145.022a36.9,36.9,0,0,0,5.271.048l-.124,2.3c-1.317-.02-4.864-.437-5.762.367a7.217,7.217,0,0,0-.509-.921c-.538-.985-.3-3.061-.28-4.185a5.407,5.407,0,0,1,.161-1.739C724.17,326.265,724.63,326.129,724.842,326.028Z" transform="translate(-502.236 -183.858)" fill="#026e73"/>
      <path id="Path_1031486" data-name="Path 1031486" d="M836.56,355.281a38.772,38.772,0,0,0,5.307.091,33.873,33.873,0,0,1,.037,5.293l-.6.083c-1.122.127-4.388.35-5.2-.318a12.614,12.614,0,0,1-.023-4.967Z" transform="translate(-586.879 -205.966)" fill="#fefefe"/>
      <path id="Path_1031487" data-name="Path 1031487" d="M764.013,354.361a16.687,16.687,0,0,1,5.047-.09c.624.961.409,2.474.409,3.58a11.555,11.555,0,0,1-.035,1.836l-.074.281-3.476.032a5.325,5.325,0,0,1-2.089-.208c-.476-.707-.248-2.427-.256-3.32l-.093-.99C763.44,354.85,763.587,354.784,764.013,354.361Z" transform="translate(-532.161 -205.091)" fill="#fefefe"/>
      <path id="Path_1031488" data-name="Path 1031488" d="M799.628,359.525l.029-.106c.352-1.4-.163-3,.13-4.353a1.278,1.278,0,0,1,.544-.686,16.264,16.264,0,0,1,4.676-.065c.369.117.48.38.686.675l.042,3.38a4.15,4.15,0,0,1-.154,1.613l-4.91.078C800.052,360.032,800.04,359.968,799.628,359.525Z" transform="translate(-559.504 -205.132)" fill="#fefefe"/>
      <path id="Path_1031489" data-name="Path 1031489" d="M764.189,325.036l.016-.2.083-5.178c1.425-.09,4.269-.426,5.5.23.1.113.248.2.3.34a5.593,5.593,0,0,1,.033,1.218l-.021,3.82a1.6,1.6,0,0,1-.283.378l-3.114.034a9.56,9.56,0,0,1-1.817-.041C764.454,325.542,764.419,325.375,764.189,325.036Z" transform="translate(-532.721 -178.915)" fill="#fefefe"/>
      <path id="Path_1031490" data-name="Path 1031490" d="M727.908,321.291a2.381,2.381,0,0,1,.347-1.243c.359-.439,3.765-.248,4.512-.237a2.933,2.933,0,0,1,.811.134,2.43,2.43,0,0,1,.305.372,35.571,35.571,0,0,1,.021,4.769,1.792,1.792,0,0,1-.174.526,3.315,3.315,0,0,1-1.645.186c-1.269.01-2.574-.042-3.838.054C727.681,325.106,728.034,322.4,727.908,321.291Z" transform="translate(-505.302 -179.121)" fill="#fefefe"/>
      <path id="Path_1031491" data-name="Path 1031491" d="M800.944,319.469h4.344a1.188,1.188,0,0,1,1.037.588c.111,1.151.367,4.61-.219,5.5l-5.593.006-.03-4.02a5.4,5.4,0,0,1,.073-1.49A3.858,3.858,0,0,1,800.944,319.469Z" transform="translate(-560.14 -178.9)" fill="#fefefe"/>
      <path id="Path_1031492" data-name="Path 1031492" d="M726.651,354.382c.9-.8,4.445-.387,5.762-.367.522,1.226.433,4.472.144,5.786l-5.93.009a44.182,44.182,0,0,1-.21-5.036Z" transform="translate(-504.176 -204.914)" fill="#e06d0e"/>
      <path id="Path_1031493" data-name="Path 1031493" d="M835.374,320.577c.272-.422.4-.776.951-.869a21.3,21.3,0,0,1,3.351-.041,4.507,4.507,0,0,1,1.3.091,2.976,2.976,0,0,1,.472.335c.551.781.394,4,.278,5.038a2.192,2.192,0,0,1-.174.595l-6.095-.032Z" transform="translate(-586.519 -179.014)" fill="#e06d0e"/>
      <path id="Path_1031494" data-name="Path 1031494" d="M749.964,402.327c1.67-.444,3.981-.155,5.75-.15l11.849.049,11.922-.04a35.7,35.7,0,0,1,5.359.09,5.967,5.967,0,0,1-3.429,3.506,8.834,8.834,0,0,1-2.993.247l-5.186,0L757.856,406a14.957,14.957,0,0,0-4.847-2.922C752.043,402.741,750.961,402.58,749.964,402.327Z" transform="translate(-521.971 -241.334)" fill="#026e73"/>
      <path id="Path_1031495" data-name="Path 1031495" d="M719.6,248l8.69-.038,16.025-.013,7.329,0a15.472,15.472,0,0,1,3.1.069,3.045,3.045,0,0,1,1.975,1.424c.733,1.4.4,3.89.392,5.449-.006,1.35.2,3.325-.313,4.6a4.112,4.112,0,0,1-2.449,2.364l-35.553-.015a3.746,3.746,0,0,1-1.726-1.933c-.458-1.417-.535-8.964.151-10.139l.11-.175a2.882,2.882,0,0,1,1.374-1.319Z" transform="translate(-496.846 -124.81)" fill="#026e73"/>
      <path id="Path_1031496" data-name="Path 1031496" d="M746.321,253.846l8.356-.027a26.552,26.552,0,0,1,4.492.106,1.557,1.557,0,0,1,.712.4,2.351,2.351,0,0,1,.861,1.712c.1,1.379.04,2.818.034,4.2a8.94,8.94,0,0,1-.069,2.01,2.743,2.743,0,0,1-.617,1.066,2.155,2.155,0,0,1-1.117.679,49.871,49.871,0,0,1-6.578.049l-14.129.049-8.871-.014a31.27,31.27,0,0,1-4.268-.045,1.845,1.845,0,0,1-.886-.443,1.826,1.826,0,0,1-.615-1.344c-.072-1.256-.01-2.544-.01-3.8,0-1.194-.294-3.03.588-3.977a1.528,1.528,0,0,1,.806-.534,15.691,15.691,0,0,1,2.391-.058l4.336.006Z" transform="translate(-502.023 -129.255)" fill="#f9b818"/>
      <path id="Path_1031497" data-name="Path 1031497" d="M572.393,901.27c3.616-3.935,7.981-7.136,13.285-8.24,5.605-1.168,12.717,1.008,17.4,4.088-.322,2.368-.225,65.776.017,66.358a1.822,1.822,0,0,1-.3.173,7.857,7.857,0,0,1-2.138.059l-4.594-.027a6.169,6.169,0,0,1-2.36-.217,5.38,5.38,0,0,1-2.861,3.1,6.225,6.225,0,0,1-1.818.567c-1.552.154-3.261.024-4.828.027l-10.247,0L570,967.146a5.077,5.077,0,0,1-1.47-.056l-.286-.161a4.077,4.077,0,0,1-1.67.149l-3.469-.029.009-12.523-.023-38.753a5.741,5.741,0,0,1,1.7-.1h3.275l12.615-.011c-.577-2.286-1.27-4.556-1.725-6.871-.179-.909-.223-1.842-.382-2.757a1.568,1.568,0,0,0,.458-1c.063-.938.254-2.42-.41-3.133C577.679,900.891,573.8,901.277,572.393,901.27Z" transform="translate(-380.744 -612.124)" fill="#048d91"/>
      <path id="Path_1031498" data-name="Path 1031498" d="M618.558,1065.64a4.711,4.711,0,0,0,.841.2,3.264,3.264,0,0,1,3.148,3.64,3.949,3.949,0,0,1-1.454,2.6,1.785,1.785,0,0,1-1.528.459l-.382.225a4.97,4.97,0,0,1-1.137-.178,3.614,3.614,0,0,1-2.227-4.482,3.174,3.174,0,0,1,1.667-1.866A8.912,8.912,0,0,0,618.558,1065.64Z" transform="translate(-420.454 -742.815)" fill="#f9b818"/>
      <path id="Path_1031499" data-name="Path 1031499" d="M563.161,1145.79a1.563,1.563,0,0,0,.629.261,33.9,33.9,0,0,0,4.226.027l10.126,0,10.945.022a33,33,0,0,0,4.867-.036l.213-.054c.033,2.054.456,6.991-.423,8.713a5.38,5.38,0,0,1-2.861,3.1,6.226,6.226,0,0,1-1.818.567c-1.551.154-3.261.025-4.828.027l-10.247,0-3.943-.012a5.082,5.082,0,0,1-1.47-.056l-.286-.161a4.079,4.079,0,0,1-1.67.149l-3.469-.029Z" transform="translate(-380.789 -803.388)" fill="#026e73"/>
      <path id="Path_1031500" data-name="Path 1031500" d="M572.393,901.27c3.616-3.935,7.981-7.136,13.285-8.24,5.605-1.168,12.717,1.008,17.4,4.088-.322,2.368-.225,65.776.017,66.358a1.824,1.824,0,0,1-.3.173,7.857,7.857,0,0,1-2.138.059l-4.594-.027a6.168,6.168,0,0,1-2.36-.217c.88-1.722.456-6.658.423-8.713l.037-.342c.118-2.3,0-4.665,0-6.969l0-13.8,0-8.644a33.077,33.077,0,0,0-.042-4.089,5.593,5.593,0,0,0-1.3-2.969,6.355,6.355,0,0,0-3.558-2.04,15.31,15.31,0,0,0-2.7-.087l-5,.011-11.323.013c-2.369,0-4.768.077-7.133-.068a5.741,5.741,0,0,1,1.7-.1h3.275l12.615-.011c-.577-2.286-1.27-4.556-1.725-6.871-.179-.909-.223-1.842-.382-2.757a1.568,1.568,0,0,0,.458-1c.063-.938.254-2.42-.41-3.133C577.679,900.891,573.8,901.277,572.393,901.27Z" transform="translate(-380.744 -612.124)" fill="#d1f0f6"/>
      <path id="Path_1031501" data-name="Path 1031501" d="M255.912,987.177l11.493,0,18.159.006,13.623.03a44.824,44.824,0,0,0,6.1-.085l.023,38.753a1.06,1.06,0,0,1-.651.266l-8.569-.027-14.48.007-9.212.024a37.356,37.356,0,0,1-4.907-.076l-.057.166,0,11.861-.512.32-18.8.037-5.312.012a9.285,9.285,0,0,1-1.768-.012,2.477,2.477,0,0,1-.442-.305l.382.061a5.089,5.089,0,0,0,2.948-.984,2.122,2.122,0,0,0,.626-1.746,6.634,6.634,0,0,0,.078-1.668,30.148,30.148,0,0,0-.061-3.249c-.324-3.063-6.846-.53-8.511-1.842l-.049-1.529.105-.474.064-.828-.037-6.5a21.485,21.485,0,0,1-4.05.193,4.435,4.435,0,0,1-2.059-.2l-.369.364-.535-.222a7.237,7.237,0,0,1-.143-2.352l.011-1.615a6.007,6.007,0,0,1-.073-1.639v-3.317l-6.792-.042-.168-.017a.7.7,0,0,0,.343-.425c.207-.518-.032-.9-.214-1.38a6.5,6.5,0,0,0,2.386.164l4.442-.032,0-6.832c-1.287.063-5.646.349-6.594-.168l-.09-.054a.986.986,0,0,0,.583-.723c.147-.5-.194-.936-.418-1.363a1.831,1.831,0,0,0,.542.161c.953.09,1.995.007,2.955,0l5.892-.017h2.823a6.7,6.7,0,0,0,1.233,0,2.661,2.661,0,0,0,.412-.335l.027-6.566a2.665,2.665,0,0,1,1.3-.127l4.1,0a3.374,3.374,0,0,0,1.625-.193,2.428,2.428,0,0,0,.928-1.615l-.014-3.9Z" transform="translate(-122.943 -683.482)" fill="#048d91"/>
      <path id="Path_1031502" data-name="Path 1031502" d="M222.411,1038.148a1.831,1.831,0,0,0,.542.161c.953.09,1.995.007,2.955,0l5.892-.017h2.823a6.7,6.7,0,0,0,1.233,0,2.655,2.655,0,0,0,.412-.335l-.018,7.811a11.892,11.892,0,0,0,.072,2.931l.085.061c1.6,1.016,7.01-.992,7.539,1.527a19.851,19.851,0,0,1,.033,3.9,3.022,3.022,0,0,1-.147,1.378,1.733,1.733,0,0,1-.8,1.194l-.135.093c-1.306.8-5.974-.342-6.719.462l-.029.5a21.485,21.485,0,0,1-4.05.193,4.433,4.433,0,0,1-2.059-.2l-.369.364-.535-.222a7.238,7.238,0,0,1-.143-2.352l.011-1.615a6.006,6.006,0,0,1-.073-1.639v-3.317l-6.792-.042-.168-.017a.7.7,0,0,0,.343-.425c.207-.518-.032-.9-.214-1.38a6.5,6.5,0,0,0,2.386.164l4.442-.032,0-6.832c-1.287.064-5.646.349-6.594-.168l-.09-.054a.987.987,0,0,0,.583-.723C222.976,1039.008,222.635,1038.576,222.411,1038.148Z" transform="translate(-122.943 -721.896)" fill="#f89e10"/>
      <path id="Path_1031503" data-name="Path 1031503" d="M250.665,1061.571a9.117,9.117,0,0,0,.064-2.32v-8.06c0-.772-.214-2.477.146-3.127l.828-.054.033,6.629L251.7,1065.4l-.369.364-.535-.222a7.24,7.24,0,0,1-.143-2.352Z" transform="translate(-144.604 -729.491)" fill="#e06d0e"/>
      <path id="Path_1031504" data-name="Path 1031504" d="M255.016,1048.01l6.194.025-.075,6.951-3.659-.015a4.382,4.382,0,0,1-2.426-.332Z" transform="translate(-147.917 -729.491)" fill="#f9b818"/>
      <path id="Path_1031505" data-name="Path 1031505" d="M261.568,1081.94l.085.061c1.6,1.016,7.01-.992,7.539,1.527a19.852,19.852,0,0,1,.033,3.9,3.023,3.023,0,0,1-.147,1.378,1.331,1.331,0,0,1-.342.188,18.264,18.264,0,0,1-2.732-.012l-10.625.252,0-6.981,4.459.01a2.924,2.924,0,0,0,1.645-.254Z" transform="translate(-148.189 -755.134)" fill="#f9b818"/>
      <path id="Path_1031506" data-name="Path 1031506" d="M279.649,1145.85a1.355,1.355,0,0,0,.585.3,13.433,13.433,0,0,0,2.241.037l5.149-.007,18.63-.024a35.523,35.523,0,0,1,4.647.046l0,11.861-.512.32-18.8.037-5.312.012a9.266,9.266,0,0,1-1.768-.012,2.477,2.477,0,0,1-.442-.305l.382.061a5.089,5.089,0,0,0,2.948-.984,2.122,2.122,0,0,0,.626-1.746,6.633,6.633,0,0,0,.078-1.668,30.142,30.142,0,0,0-.061-3.249c-.324-3.063-6.846-.53-8.511-1.842l-.049-1.529.105-.474Z" transform="translate(-166.406 -803.433)" fill="#026e73"/>
      <path id="Path_1031507" data-name="Path 1031507" d="M407.986,987.18l18.16.006,13.623.03a44.824,44.824,0,0,0,6.1-.085l.023,38.753a1.06,1.06,0,0,1-.651.266l-8.569-.027-14.48.007-9.212.024a37.356,37.356,0,0,1-4.907-.076Z" transform="translate(-263.523 -683.482)" fill="#41d9b8"/>
      <path id="Path_1031508" data-name="Path 1031508" d="M470.4,1048.84c.569.291,1.218-.034,1.74.327l.065.8c.008.024.115.274.178.305.577.274,1.545.332,2.213.584a5.02,5.02,0,0,1-.585,1.788,9.8,9.8,0,0,0-1.855-.54,3.152,3.152,0,0,0-2.327.305,1.076,1.076,0,0,0-.438.992c.508.833,1.543.828,2.418,1.07a5.048,5.048,0,0,1,2.437,1.358,2.818,2.818,0,0,1,.681,2.076c-.172,1.993-1.592,2.162-2.842,3.2l-.087,1.221c-.441.21-.5.107-.952-.044a3.46,3.46,0,0,1-.686.293l-.26-.171-.059-1.146a.77.77,0,0,0-.424-.269,15.046,15.046,0,0,1-2.815-.879,19.529,19.529,0,0,0,.77-1.966,9.035,9.035,0,0,0,2.491.765,2.723,2.723,0,0,0,2.206-.5,1.3,1.3,0,0,0,.2-1.036c-.664-.808-2.072-.811-3.023-1.109a3.723,3.723,0,0,1-2.349-1.866,3.293,3.293,0,0,1,.026-1.988c.493-1.221,1.663-1.732,2.781-2.228A5.171,5.171,0,0,0,470.4,1048.84Z" transform="translate(-307.972 -730.119)" fill="#fefefe"/>
      <path id="Path_1031509" data-name="Path 1031509" d="M59.292,813.614l41.443.027,16.265.017h4.54a17.982,17.982,0,0,1,2.658.069,3.549,3.549,0,0,1,2,1.028c1.428,1.432,1.155,3.42,1.154,5.274l-.021,3.846-.053,5.992a17.889,17.889,0,0,0,.11,3.056l.024.223.135.181a26.75,26.75,0,0,1,1.658,3.7c1.936,3.988,5.395,8.021,9.924,8.885a7.994,7.994,0,0,0,3.318-.037c1.373.721,3.652.427,5.205.427a25.5,25.5,0,0,0,4.114,4.066l6.123,5.54a23.289,23.289,0,0,1,4.73.144l-18.16-.006-11.493,0-11.671-.022.014,3.9a2.428,2.428,0,0,1-.928,1.615,3.374,3.374,0,0,1-1.625.193l-4.1,0a2.665,2.665,0,0,0-1.3.127l-.027,6.566a2.665,2.665,0,0,1-.412.335,6.7,6.7,0,0,1-1.233,0h-2.823l-5.892.017c-.96,0-2,.088-2.955,0a1.833,1.833,0,0,1-.542-.161c.224.427.565.86.418,1.363a.986.986,0,0,1-.583.723,1.645,1.645,0,0,1-.592.252,17.248,17.248,0,0,1-2.821.029l-6.062,0-10.849.01c-1.685,0-3.422.107-5.1.02a1.2,1.2,0,0,1-.78-.305.861.861,0,0,1-.462-.171,1.966,1.966,0,0,1-.7-1.5c-.349-.606-.13-4.572-.114-5.523a1.607,1.607,0,0,1,.7-1.434l-.675-.144-5.494-.044-2.46.042-.043-48.264Z" transform="translate(0 -552.348)" fill="#0cc6a0"/>
      <path id="Path_1031510" data-name="Path 1031510" d="M96.827,890.384l26.084.026,0,2.175-26.073.086Z" transform="translate(-28.367 -610.366)" fill="#fefefe"/>
      <path id="Path_1031511" data-name="Path 1031511" d="M96.795,863.128l25.978.012v2.28L96.8,865.412Z" transform="translate(-28.343 -589.768)" fill="#fefefe"/>
      <path id="Path_1031512" data-name="Path 1031512" d="M247.911,858.867a6.907,6.907,0,0,1,3.522.693,6.48,6.48,0,0,1,3.072,3.811A6.069,6.069,0,0,1,253.96,868a7.243,7.243,0,0,1-4.662,3.144,6.272,6.272,0,0,1-4.042-.945,6.025,6.025,0,0,1-2.835-4.031,6.547,6.547,0,0,1,.9-4.616A6.77,6.77,0,0,1,247.911,858.867Z" transform="translate(-138.319 -586.544)" fill="#fefefe"/>
      <path id="Path_1031513" data-name="Path 1031513" d="M337.871,893.578l.135.181a26.747,26.747,0,0,1,1.658,3.7c1.936,3.988,5.395,8.02,9.924,8.885a7.993,7.993,0,0,0,3.318-.037c1.373.721,3.652.427,5.205.427a25.5,25.5,0,0,0,4.114,4.066l6.123,5.54a23.28,23.28,0,0,1,4.73.144l-18.159-.006-11.493,0-5.658-.052Z" transform="translate(-210.455 -612.78)" fill="#d1f0f6"/>
      <path id="Path_1031514" data-name="Path 1031514" d="M83.255,957.368a3.4,3.4,0,0,1-1.315-1.185c-.408-.874-.35-6-.035-6.976a1.507,1.507,0,0,1,.952-.613,13.661,13.661,0,0,1,2.922-.037l6.673-.03a5,5,0,0,1-1.244-1.3,37.361,37.361,0,0,1-.045-4.814,2.94,2.94,0,0,1,.3-1.751,1.366,1.366,0,0,1,1.074-.589,32.521,32.521,0,0,1,4.818-.011l10.281.024,18.044.01c2.948,0,6.01-.179,8.943.019a1.4,1.4,0,0,1,.878.344.994.994,0,0,1,.361.523,7.05,7.05,0,0,1,.071,1.771c.006,1.345-.033,2.7.067,4.037a4.506,4.506,0,0,1-1.36,1.765c.944.011,2.577-.182,3.233.609.434.522.333,1.679.326,2.348l.014,3.9a2.428,2.428,0,0,1-.928,1.615,3.374,3.374,0,0,1-1.625.193l-4.1,0a2.665,2.665,0,0,0-1.3.127l-.027,6.566a2.666,2.666,0,0,1-.412.335,6.709,6.709,0,0,1-1.233,0h-2.823l-5.892.017c-.96,0-2,.088-2.955,0a1.831,1.831,0,0,1-.542-.161c.224.427.565.86.418,1.363a.986.986,0,0,1-.583.723,1.646,1.646,0,0,1-.592.252,17.248,17.248,0,0,1-2.821.029l-6.062,0-10.849.01c-1.685,0-3.422.107-5.1.02a1.2,1.2,0,0,1-.78-.305.86.86,0,0,1-.462-.171,1.966,1.966,0,0,1-.7-1.5c-.349-.606-.13-4.572-.114-5.523a1.607,1.607,0,0,1,.7-1.434l-.675-.144Z" transform="translate(-16.898 -647.836)" fill="#f9b818"/>
      <path id="Path_1031515" data-name="Path 1031515" d="M273.932,967.416l4.785-.012a11.881,11.881,0,0,1,2.6.109,4.505,4.505,0,0,1-1.36,1.765l-5.863-.036.389-.606A1.868,1.868,0,0,0,273.932,967.416Z" transform="translate(-162.213 -668.561)" fill="#f89e10"/>
      <path id="Path_1031516" data-name="Path 1031516" d="M246.721,1003.012a34.3,34.3,0,0,1,5.56-.112l10.679.024a2.428,2.428,0,0,1-.928,1.615,3.374,3.374,0,0,1-1.625.193l-4.1,0a2.665,2.665,0,0,0-1.3.127c-2.281.173-4.775-.2-7.006.227l0-.95A2.48,2.48,0,0,0,246.721,1003.012Z" transform="translate(-141.648 -695.356)" fill="#f89e10"/>
      <path id="Path_1031517" data-name="Path 1031517" d="M174.241,968.69c-2.443.265-30.98.229-31.756-.051a1.4,1.4,0,0,1-.665-.708,1.45,1.45,0,0,1,.217-.992,1.934,1.934,0,0,1,.411-.231,8.386,8.386,0,0,1,1.657-.009l5.257-.009h16.92l4.851.007a11.5,11.5,0,0,1,2.952.166,1.868,1.868,0,0,1,.545,1.22Z" transform="translate(-62.366 -668.01)" fill="#e06d0e"/>
      <path id="Path_1031518" data-name="Path 1031518" d="M110.234,1005.329l-.1-.354a1.315,1.315,0,0,1,.27-1.285,1.039,1.039,0,0,1,.345-.256,5.609,5.609,0,0,1,1.394-.046l4.015-.02,17.362.012,9.93.029a2.48,2.48,0,0,1,1.269,1.119l0,.95a16.446,16.446,0,0,1-4.227.137h-9.455l-13.482-.017a44.78,44.78,0,0,1-6.655-.125Z" transform="translate(-38.383 -695.752)" fill="#ea8210"/>
      <path id="Path_1031519" data-name="Path 1031519" d="M144.879,1011.307c2.231-.427,4.725-.054,7.006-.227l-.027,6.566a2.669,2.669,0,0,1-.412.335,6.709,6.709,0,0,1-1.233,0H147.39L141.5,1018c-.96,0-2,.088-2.955,0a1.835,1.835,0,0,1-.542-.161c.224.427.565.86.418,1.363a.986.986,0,0,1-.583.723,1.646,1.646,0,0,1-.592.252,17.254,17.254,0,0,1-2.821.029l-6.062,0-10.849.01c-1.685,0-3.422.107-5.1.02a1.2,1.2,0,0,1-.78-.305.86.86,0,0,1-.462-.171,1.966,1.966,0,0,1-.7-1.5c-.349-.606-.13-4.572-.114-5.523a1.607,1.607,0,0,1,.7-1.434,44.763,44.763,0,0,0,6.656.125l13.482.017h9.455A16.446,16.446,0,0,0,144.879,1011.307Z" transform="translate(-38.533 -701.582)" fill="#f9b818"/>
      <path id="Path_1031520" data-name="Path 1031520" d="M111.084,1039.155l.053-.1a2.454,2.454,0,0,1,.223-.149,8.44,8.44,0,0,1,1.51,0l3.965-.012,16.378-.059a27.59,27.59,0,0,0,5.4-.1c.224.427.565.86.418,1.363a.986.986,0,0,1-.583.723,1.646,1.646,0,0,1-.592.252,17.241,17.241,0,0,1-2.821.029l-6.062.005-10.849.01c-1.685,0-3.422.108-5.1.02a1.2,1.2,0,0,1-.78-.305.861.861,0,0,1-.462-.171A1.966,1.966,0,0,1,111.084,1039.155Z" transform="translate(-39.141 -722.478)" fill="#ea8210"/>
      <path id="Path_1031521" data-name="Path 1031521" d="M228.947,779.254a4.465,4.465,0,0,0,2.457,2.527,11,11,0,0,0,3.835.27l6.3,0,18.592,0,71.986.169,23.34.009,11.816-.092.024,7.41a15,15,0,0,1-.155,3.829,6.969,6.969,0,0,1-1.7,2.9,5.616,5.616,0,0,1-4.342,1.642l-46.246,0,2.561,15.156a9.153,9.153,0,0,0,.5,2.53l1.953-.074c1.407.008,5.286-.379,6.232.636.663.713.473,2.194.41,3.133a1.568,1.568,0,0,1-.458,1c.159.915.2,1.848.382,2.757.454,2.315,1.147,4.586,1.725,6.871l-12.615.011h-3.275a5.743,5.743,0,0,0-1.7.1,44.824,44.824,0,0,1-6.1.085l-13.623-.03a23.284,23.284,0,0,0-4.729-.144l-6.123-5.54a25.5,25.5,0,0,1-4.114-4.066c-1.554,0-3.832.294-5.205-.427a8,8,0,0,1-3.318.037c-4.529-.865-7.987-4.9-9.924-8.885a26.754,26.754,0,0,0-1.658-3.7l-.135-.181-.024-.223a17.891,17.891,0,0,1-.11-3.056l.053-5.992.021-3.846c0-1.854.274-3.842-1.154-5.274a3.549,3.549,0,0,0-2-1.028,17.982,17.982,0,0,0-2.658-.069h-4.54l-16.265-.017Z" transform="translate(-128.216 -526.381)" fill="#b4b7bf"/>
      <path id="Path_1031522" data-name="Path 1031522" d="M500.993,810.07a4.01,4.01,0,0,1,1.538.18,3.224,3.224,0,0,1,1.809,1.671,3.433,3.433,0,0,1-.09,2.884,3.567,3.567,0,0,1-2.423,1.779,3.444,3.444,0,0,1-1.9-.305,3.592,3.592,0,0,1-1.63-2.207,2.91,2.91,0,0,1,.384-2.286A3.474,3.474,0,0,1,500.993,810.07Z" transform="translate(-331.703 -549.666)" fill="#0d2e51"/>
      <path id="Path_1031523" data-name="Path 1031523" d="M338.1,864.736l.008-8.858,19.286-.062c1.191,0,5.551-.314,6.34.14l-.986,4.616-2.23,12.817-4.476,0a7.655,7.655,0,0,0-1.976.083,2.259,2.259,0,0,0-.853.637c-.461.466-.38,1.7-.373,2.358a2.5,2.5,0,0,0,.222.986l.057.149.04.087a8,8,0,0,1-3.318.037c-4.529-.865-7.987-4.9-9.924-8.885a26.75,26.75,0,0,0-1.658-3.7l-.135-.181Z" transform="translate(-210.706 -584.161)" fill="#fefefe"/>
      <path id="Path_1031524" data-name="Path 1031524" d="M433.095,855.912l.158-.173a31.863,31.863,0,0,1,3.776-.066l6.787-.007,22.89-.016,2.561,15.156a9.154,9.154,0,0,0,.5,2.53l-39.885.008,2.23-12.817Z" transform="translate(-280.069 -584.117)" fill="#96a3ce"/>
      <path id="Path_1031525" data-name="Path 1031525" d="M440,855.912l.158-.173a31.863,31.863,0,0,1,3.776-.066l6.787-.007,22.89-.016,2.561,15.156-.076.285c-.736.377-4.123-1.624-4.934-2.062-3.433-1.854-6.68-3.992-10.252-5.591-6.681-2.991-14.719-2.912-21.9-2.91Z" transform="translate(-286.969 -584.117)" fill="#717c98"/>
      <path id="Path_1031526" data-name="Path 1031526" d="M447.932,927.553c1.407.008,5.286-.379,6.232.637.663.712.473,2.194.41,3.133a1.569,1.569,0,0,1-.458,1c.159.915.2,1.848.382,2.757.454,2.315,1.147,4.586,1.725,6.871l-12.615.011h-3.275a5.743,5.743,0,0,0-1.7.1,44.824,44.824,0,0,1-6.1.085l-13.623-.03a23.28,23.28,0,0,0-4.73-.144l-6.123-5.54a25.5,25.5,0,0,1-4.114-4.066c-1.554,0-3.832.294-5.205-.427l-.04-.087-.057-.149a2.5,2.5,0,0,1-.222-.986c-.007-.654-.088-1.893.373-2.358a2.26,2.26,0,0,1,.853-.637,7.658,7.658,0,0,1,1.976-.083l4.476,0,39.885-.008Z" transform="translate(-256.283 -638.407)" fill="#fefefe"/>
      <path id="Path_1031527" data-name="Path 1031527" d="M447.932,927.553c1.407.008,5.286-.379,6.232.637.663.712.473,2.194.41,3.133a1.569,1.569,0,0,1-.458,1l-50.176.041c-1.554,0-3.832.294-5.205-.427l-.04-.087-.057-.149a2.5,2.5,0,0,1-.222-.986c-.007-.654-.088-1.893.373-2.358a2.26,2.26,0,0,1,.853-.637,7.655,7.655,0,0,1,1.976-.083l4.476,0,39.885-.008Z" transform="translate(-256.283 -638.407)" fill="#0d2e51"/>
      <path id="Path_1031528" data-name="Path 1031528" d="M771.176,896.362c1.9.03,3.58-.066,5.014,1.394a4.883,4.883,0,0,1,1.4,2.795,55.121,55.121,0,0,1,.021,6.639l-.031,14.325.009,28.158.014,14.218a6.089,6.089,0,0,1-1.944,4.3,5.428,5.428,0,0,1-3,1.463,39.968,39.968,0,0,1-5.076.081l-9.909,0-17.895-.01-9.065-.012a4.862,4.862,0,0,1-3.573-1.637,4.207,4.207,0,0,1-.981-1.847c-.242-.581-.34-63.99-.017-66.358a5.325,5.325,0,0,1,1.271-2.1,4.428,4.428,0,0,1,2.079-1.185,19.064,19.064,0,0,1,3.962-.121l7.785-.016Z" transform="translate(-503.812 -614.884)" fill="#173d75"/>
      <path id="Path_1031529" data-name="Path 1031529" d="M819.941,1160.62c.655.366,1.923.125,2.693.2a2.607,2.607,0,0,1,2.005.916,3.329,3.329,0,0,1,.469,2.46,1.887,1.887,0,0,1-.754,1.353,1.341,1.341,0,0,1-1.054.247l-.229-.061c-.868.481-2.907.271-3.894.007a1.768,1.768,0,0,1-1.1-.879,3.827,3.827,0,0,1,.019-2.711,2.06,2.06,0,0,1,1.006-1.08A6.14,6.14,0,0,0,819.941,1160.62Z" transform="translate(-573.265 -814.596)" fill="#0d2e51"/>
      <path id="Path_1031530" data-name="Path 1031530" d="M741.827,919.673l42.919.061v40.61l.01,10.972a29.99,29.99,0,0,1-.011,4.692.862.862,0,0,1-.213.393l-.4.012a2.37,2.37,0,0,1-.436.269,12.137,12.137,0,0,1-2.348,0l-7.272.01-32.067,0c-.354-.23-.65-.379-.742-.835a16.267,16.267,0,0,1-.022-2.887l-.011-7.206.051-30.445-.016-11.7c0-.892-.254-3.224.13-3.89Z" transform="translate(-515.333 -632.501)" fill="#fefefe"/>
      <path id="Path_1031531" data-name="Path 1031531" d="M760.567,1008.667a8.665,8.665,0,0,1,2.279.042,1.228,1.228,0,0,1,.782.738,1.5,1.5,0,0,1-.449,1,8.038,8.038,0,0,1-1.966.083c-.555-.054-.71-.264-1.04-.662A1.407,1.407,0,0,1,760.567,1008.667Z" transform="translate(-529.683 -699.715)" fill="#57c0f1"/>
      <path id="Path_1031532" data-name="Path 1031532" d="M846.624,1122.74a12.524,12.524,0,0,0,2.76.1l5.439,0a9.584,9.584,0,0,1,2.342.09,1.282,1.282,0,0,1,.867.738,1.894,1.894,0,0,1-.278,1.121l-.456-.027a5.252,5.252,0,0,1-2.366.227l-5.314-.01a12.261,12.261,0,0,1-2.767-.09,1.39,1.39,0,0,1-.9-.84A2,2,0,0,1,846.624,1122.74Z" transform="translate(-594.511 -785.968)" fill="#57c0f1"/>
      <path id="Path_1031533" data-name="Path 1031533" d="M846.552,1102.74a22.855,22.855,0,0,0,3.09.056l5.859.01a16.189,16.189,0,0,1,2.484.02c.441.076.591.369.841.7a1.65,1.65,0,0,1-.328,1.221l-.36.022c-.805.427-2.453.222-3.385.225l-5.355-.01a13.59,13.59,0,0,1-2.942-.125,1.286,1.286,0,0,1-.606-.8A2.433,2.433,0,0,1,846.552,1102.74Z" transform="translate(-594.437 -770.853)" fill="#57c0f1"/>
      <path id="Path_1031534" data-name="Path 1031534" d="M846.267,1063.87c1.876.542,11.351-.415,12.228.352a1.29,1.29,0,0,1,.4.916c-.21.447-.191.569-.655.777-.712.52-2.529.3-3.442.293l-8.391-.088a1.686,1.686,0,0,1-.825-.875C845.609,1064.6,845.9,1064.366,846.267,1063.87Z" transform="translate(-594.232 -741.477)" fill="#57c0f1"/>
      <path id="Path_1031535" data-name="Path 1031535" d="M847.057,1082.73a17.235,17.235,0,0,0,3.077.1h6.249c.637,0,2.19-.186,2.676.261s.412.657.422,1.265c-.255.386-.233.364-.685.467a1.975,1.975,0,0,1-.382.3,10.532,10.532,0,0,1-2.169,0c-2.932,0-6.012.2-8.927-.063a1.487,1.487,0,0,1-.8-.855A1.93,1.93,0,0,1,847.057,1082.73Z" transform="translate(-594.941 -755.731)" fill="#57c0f1"/>
      <path id="Path_1031536" data-name="Path 1031536" d="M857.819,944.082l6.676-.032a18.323,18.323,0,0,1,3.2.032c.4.078.582.359.773.69a8.968,8.968,0,0,1-.086,2.855,4.164,4.164,0,0,1-.533.63l-10.306-.056a5.145,5.145,0,0,1-.356-2.221A2.126,2.126,0,0,1,857.819,944.082Z" transform="translate(-603.002 -650.879)" fill="#ea8210"/>
      <path id="Path_1031537" data-name="Path 1031537" d="M760.292,961.213l13.193-.025,4.148,0a5.011,5.011,0,0,1,1.985.175,2.079,2.079,0,0,1,.611,1.112,2,2,0,0,1-.7,1.439c-1.53.105-3.107.025-4.644.028l-8.853.012-3.9,0a9.573,9.573,0,0,1-1.673-.016,2.617,2.617,0,0,1-.486-.27,1.7,1.7,0,0,1-.437-1.02A1.8,1.8,0,0,1,760.292,961.213Z" transform="translate(-529.2 -663.869)" fill="#173d75"/>
      <path id="Path_1031538" data-name="Path 1031538" d="M760.715,944.006l12.947-.017a44.422,44.422,0,0,1,5.972.02,1.187,1.187,0,0,1,.472.211,1.874,1.874,0,0,1,.486,1.228,1.663,1.663,0,0,1-.577,1.48l-13.005.034-4.106.015a9.314,9.314,0,0,1-1.9-.036c-.465-.107-.577-.358-.814-.723A2.656,2.656,0,0,1,760.715,944.006Z" transform="translate(-529.674 -650.8)" fill="#173d75"/>
      <path id="Path_1031539" data-name="Path 1031539" d="M760.136,977.42l13.255,0,3.892,0a12.772,12.772,0,0,1,1.75.018,1.469,1.469,0,0,1,.569.246,1.68,1.68,0,0,1,.542,1.339c-.024.7-.256.865-.732,1.32-2.586.248-5.379.03-7.988.047l-7.233.043a17.953,17.953,0,0,1-3.864-.107,1.461,1.461,0,0,1-.721-1.007A2.274,2.274,0,0,1,760.136,977.42Z" transform="translate(-529.227 -676.131)" fill="#173d75"/>
      <path id="Path_1031540" data-name="Path 1031540" d="M805.723,1007.81l3.915.1a1.118,1.118,0,0,1,.229,1.971c-.573.479-19.488.269-21.9.271-1.123.005-3.381.286-4.36-.12a1.518,1.518,0,0,1-.816-1,1.157,1.157,0,0,1,.331-.755,1.316,1.316,0,0,1,.714-.393,14.313,14.313,0,0,1,2.173-.017l4.815.01Z" transform="translate(-546.777 -699.11)" fill="#57c0f1"/>
      <path id="Path_1031541" data-name="Path 1031541" d="M856.67,968.418c2.3-.215,4.718-.067,7.029-.059a10.563,10.563,0,0,1,3.588.216,1.177,1.177,0,0,1,.478.723,17.424,17.424,0,0,1,.026,2.934,4.214,4.214,0,0,1-.1,1.141,4.6,4.6,0,0,1-.51.674l-10.352,0a1.586,1.586,0,0,1-.673-1.052C855.984,971.721,855.892,969.467,856.67,968.418Z" transform="translate(-602.135 -669.253)" fill="#0b9aee"/>
      <path id="Path_1031542" data-name="Path 1031542" d="M760.793,1023.97a13.715,13.715,0,0,0,2.652.085l4.7,0,18.7.017,3.51.007a7.04,7.04,0,0,1,1.817.078c.552.164.728.5.965.965a1.436,1.436,0,0,1-.29.926l-.391.029-.449.276-22.4.027h-5.876a11.484,11.484,0,0,1-3.043-.134c-.316-.3-.6-.484-.622-.957C760.035,1024.761,760.475,1024.351,760.793,1023.97Z" transform="translate(-529.602 -711.323)" fill="#57c0f1"/>
      <path id="Path_1031543" data-name="Path 1031543" d="M799.855,1062.33c.761.23,1.562.371,2.3.647a8.7,8.7,0,0,1,4.706,4.1,8.431,8.431,0,0,1,.685,6.06,8.682,8.682,0,0,1-4.216,5.457c-.146.078-.111.054-.311.083l-3.179-7.472a25.592,25.592,0,0,1-.037-3.173Z" transform="translate(-559.615 -740.314)" fill="#0b9aee"/>
      <path id="Path_1031544" data-name="Path 1031544" d="M771.454,1071.2a18.158,18.158,0,0,0-.147,3.058l-.091,5.418a9.1,9.1,0,0,1-4.143-.928,9.214,9.214,0,0,1-4.5-5.318,8.486,8.486,0,0,1,.591-6.343,8.648,8.648,0,0,1,5.874-4.377,22.107,22.107,0,0,0,2.323-.344l.106-.037-.048,5.7A25.605,25.605,0,0,0,771.454,1071.2Z" transform="translate(-531.225 -740.314)" fill="#f9b818"/>
      <path id="Path_1031545" data-name="Path 1031545" d="M272.381,402.773l.007,6.492,19.621-.019,10.822,0,19.207,0,.016-6.391H336.58l6.681,0,12.327-.008c1,.254,2.079.414,3.046.749a14.958,14.958,0,0,1,4.846,2.922,12.186,12.186,0,0,1,2.885,5.76,36.793,36.793,0,0,1,.119,5.858l0,11.617.035,32.755.014,17.141a53.078,53.078,0,0,0,.076,7.876l.04,10.084-11.816.092-23.34-.009-71.986-.169-18.592,0-6.3,0a11,11,0,0,1-3.835-.27,4.465,4.465,0,0,1-2.457-2.527,29.29,29.29,0,0,1-.145-5.466l-.034-9.6,0-26.482,0-18.495-.016-17.239.007-4.889a15.951,15.951,0,0,1,.139-3.071,8.468,8.468,0,0,1,2.3-4.294,7.709,7.709,0,0,1,4.262-2.268,26.254,26.254,0,0,1,4.122-.116l7.359-.007Z" transform="translate(-127.594 -241.858)" fill="#0b9aee"/>
      <path id="Path_1031546" data-name="Path 1031546" d="M304.776,698.279a4.389,4.389,0,0,1-.647.078c-1.271.054-2.519.158-3.5-.8a3.884,3.884,0,0,1-1.041-2.764,3.586,3.586,0,0,1,1.06-2.638c1.088-1.037,2.214-.966,3.614-.924a4.1,4.1,0,0,0-2.161,2.672,3.755,3.755,0,0,0,.553,2.774A4.692,4.692,0,0,0,304.776,698.279Z" transform="translate(-181.604 -459.842)" fill="#016fae"/>
      <path id="Path_1031547" data-name="Path 1031547" d="M337.919,630.538l-.013-19.4,8.6,0-.055,18.522-.071.814a22.735,22.735,0,0,1-3.1.068Z" transform="translate(-210.561 -399.329)" fill="#d1f0f6"/>
      <path id="Path_1031548" data-name="Path 1031548" d="M389.456,608.824l.085-26.454,8.94,0V608.8Z" transform="translate(-249.519 -377.584)" fill="#d1f0f6"/>
      <path id="Path_1031549" data-name="Path 1031549" d="M443.174,573.551l.014-37.833,8.7.008-.019,37.833Z" transform="translate(-290.116 -342.33)" fill="#d1f0f6"/>
      <path id="Path_1031550" data-name="Path 1031550" d="M495.236,545.115l.067-47,6.772,0a7.345,7.345,0,0,1,2.239.081l.037,46.917Z" transform="translate(-329.462 -313.882)" fill="#fefefe"/>
      <path id="Path_1031551" data-name="Path 1031551" d="M316.517,687.855l5.363.008a22.725,22.725,0,0,0,3.1-.068l.071-.814.042.737c.664.4,3.122.166,4,.168l9.027-.022,4.094,0,8.692.008,4.025,0,9.115,0c2.032-.011,5.1-.5,6.64,1.027a5.312,5.312,0,0,1,1.262,2.6,4.578,4.578,0,0,1-1.885,3.142,2.838,2.838,0,0,1-1.317.364l-11.826.054-24.159.069-13.581.031a49.368,49.368,0,0,1-6.85-.092,4.692,4.692,0,0,1-2.118-1.6,3.755,3.755,0,0,1-.553-2.774,4.1,4.1,0,0,1,2.161-2.672A18.662,18.662,0,0,1,316.517,687.855Z" transform="translate(-189.158 -456.646)" fill="#b4b7bf"/>
      <path id="Path_1031552" data-name="Path 1031552" d="M574.775,571.705l.107-.021a16.743,16.743,0,0,1,10.884,2.824,18.193,18.193,0,0,1,7.328,11.193,18.444,18.444,0,0,1-2.938,14.056,17.8,17.8,0,0,1-12.043,7.431,16.152,16.152,0,0,1-11.911-3.4,18.1,18.1,0,0,1-6.885-11.914,18.483,18.483,0,0,1,3.882-13.828A16.751,16.751,0,0,1,574.775,571.705Z" transform="translate(-377.783 -369.427)" fill="#fefefe"/>
      <path id="Path_1031553" data-name="Path 1031553" d="M635.7,583.272a14.464,14.464,0,0,1,12.842,13.959l-12.871-.027Z" transform="translate(-435.596 -378.269)" fill="#0cc6a0"/>
      <path id="Path_1031554" data-name="Path 1031554" d="M583.276,583.158c.4-.033.654-.147.979.1l.039,15.972,14.837.037a16.286,16.286,0,0,1-2.68,7.5,14.968,14.968,0,0,1-10.008,6.391,13.94,13.94,0,0,1-9.8-2.426,15.481,15.481,0,0,1-3.559-21.471A14.944,14.944,0,0,1,583.276,583.158Z" transform="translate(-386.149 -378.141)" fill="#f9b818"/>
      <path id="Path_1031555" data-name="Path 1031555" d="M272.381,402.773l.007,6.492-23.373.039-7.252-.013a24.429,24.429,0,0,0-3.285.023,3.1,3.1,0,0,0-1.769.966,3.755,3.755,0,0,0-1.031,2.462c-.11,1.313-.026,2.7-.024,4.021l.018,7.793.031,24.186.018,26.689c0,4.245-.237,8.616.013,12.841a2.705,2.705,0,0,0,1.015,1.78,2.433,2.433,0,0,0,1.392.586c2.344.138,4.771.016,7.121.017H259.72l45.33.046,36.13.119,10.654.039a48.685,48.685,0,0,0,5.263,0,2.231,2.231,0,0,0,1.609-.957,2.012,2.012,0,0,0,.442-1.219l.018-18.593.007-36.492.027-15.852.007-4.19a13.464,13.464,0,0,0-.067-2.368,2.584,2.584,0,0,0-1.132-1.575,2.522,2.522,0,0,0-1.252-.31c-3.733-.221-7.588-.027-11.333-.031l-23.384-.021.016-6.391H336.58l6.681,0,12.327-.008c1,.254,2.079.414,3.046.749a14.957,14.957,0,0,1,4.846,2.922,12.186,12.186,0,0,1,2.885,5.76,36.794,36.794,0,0,1,.119,5.859l0,11.617.035,32.755.014,17.141a53.078,53.078,0,0,0,.076,7.876l.04,10.084-11.816.092-23.34-.009-71.986-.169-18.592,0-6.3,0a11,11,0,0,1-3.835-.27,4.465,4.465,0,0,1-2.457-2.527,29.29,29.29,0,0,1-.145-5.466l-.034-9.6,0-26.482,0-18.495-.016-17.239.007-4.889a15.951,15.951,0,0,1,.139-3.071,8.468,8.468,0,0,1,2.3-4.294,7.708,7.708,0,0,1,4.262-2.268,26.25,26.25,0,0,1,4.122-.116l7.359-.007Z" transform="translate(-127.594 -241.858)" fill="#0d2e51"/>
    </g>
  </g>
</svg>
