<svg xmlns="http://www.w3.org/2000/svg" xmlns:xlink="http://www.w3.org/1999/xlink" width="1020" height="480.001" viewBox="0 0 1020 480.001">
  <defs>
    <clipPath id="clip-path">
      <rect id="Rectangle_459508" data-name="Rectangle 459508" width="628" height="279.974" fill="none"/>
    </clipPath>
    <clipPath id="clip-path-2">
      <rect id="Rectangle_459509" data-name="Rectangle 459509" width="100" height="106.329" fill="none"/>
    </clipPath>
  </defs>
  <g id="img23" transform="translate(-290.26 -10544)">
    <rect id="Rectangle_458889" data-name="Rectangle 458889" width="1020" height="480" rx="10" transform="translate(290.26 10544)" fill="#fef5de"/>
    <g id="Group_1184848" data-name="Group 1184848" transform="translate(474 10744.025)">
      <path id="Path_1033387" data-name="Path 1033387" d="M0,1023.748H49.595V883.99L0,863.883Z" transform="translate(-0.003 -747.959)" fill="#9dc8ea"/>
      <rect id="Rectangle_459481" data-name="Rectangle 459481" width="31.878" height="115.794" transform="translate(44.981 164.181)" fill="#9dc8ea"/>
      <rect id="Rectangle_459482" data-name="Rectangle 459482" width="53.393" height="154.248" transform="translate(76.859 125.726)" fill="#9dc8ea"/>
      <rect id="Rectangle_459483" data-name="Rectangle 459483" width="36.375" height="169.362" transform="translate(153.689 107.455)" fill="#9dc8ea"/>
      <path id="Path_1033388" data-name="Path 1033388" d="M1599.858,1106.924h-48.1V975.946l48.1-16Z" transform="translate(-1343.528 -831.135)" fill="#9dc8ea"/>
      <path id="Path_1033389" data-name="Path 1033389" d="M1638.563,781.75h-33.905V689.43l33.905-11.275Z" transform="translate(-1389.332 -587.154)" fill="#9dc8ea"/>
      <path id="Path_1033390" data-name="Path 1033390" d="M3016.222,1071.368h33.906V943.638l-33.906-15.6Z" transform="translate(-2611.481 -803.506)" fill="#9dc8ea"/>
      <rect id="Rectangle_459484" data-name="Rectangle 459484" width="30.709" height="158.78" transform="translate(487.564 121.195)" fill="#9dc8ea"/>
      <rect id="Rectangle_459485" data-name="Rectangle 459485" width="38.181" height="122.394" transform="translate(457.748 157.581)" fill="#9dc8ea"/>
      <rect id="Rectangle_459486" data-name="Rectangle 459486" width="53.475" height="77.962" transform="translate(538.717 176.33)" fill="#9dc8ea"/>
      <rect id="Rectangle_459487" data-name="Rectangle 459487" width="44.981" height="112.752" transform="translate(583.019 146.824)" fill="#9dc8ea"/>
      <rect id="Rectangle_459488" data-name="Rectangle 459488" width="29.731" height="58.112" transform="translate(593.997 102.625)" fill="#9dc8ea"/>
      <rect id="Rectangle_459489" data-name="Rectangle 459489" width="39.84" height="17.984" transform="translate(546.39 164.181)" fill="#9dc8ea"/>
      <rect id="Rectangle_459490" data-name="Rectangle 459490" width="43.324" height="81.373" transform="translate(509.743 187.755)" fill="#9dc8ea"/>
      <g id="Group_1184847" data-name="Group 1184847" transform="translate(0 0.001)">
        <g id="Group_1184846" data-name="Group 1184846" transform="translate(0 0)" clip-path="url(#clip-path)">
          <path id="Path_1033391" data-name="Path 1033391" d="M157.565,1489.217H132.788v80.139h42.4v-62.513l-17.626-17.626" transform="translate(-114.969 -1289.382)" fill="#79a0cf"/>
          <path id="Path_1033392" data-name="Path 1033392" d="M4208.593,1516.053v61.277H4251v-78.9h-24.777l-17.625,17.625" transform="translate(-3643.85 -1297.357)" fill="#79a0cf"/>
          <rect id="Rectangle_459491" data-name="Rectangle 459491" width="35.418" height="87.313" transform="translate(88.586 192.661)" fill="#79a0cf"/>
          <rect id="Rectangle_459492" data-name="Rectangle 459492" width="30.025" height="62.607" transform="translate(492.269 217.366)" fill="#79a0cf"/>
          <rect id="Rectangle_459493" data-name="Rectangle 459493" width="38.984" height="105.463" transform="translate(430.361 174.511)" fill="#79a0cf"/>
          <rect id="Rectangle_459494" data-name="Rectangle 459494" width="475.029" height="28.34" transform="translate(101.126 251.634)" fill="#79a0cf"/>
          <rect id="Rectangle_459495" data-name="Rectangle 459495" width="21.588" height="14.158" transform="translate(439.595 165.232)" fill="#79a0cf"/>
          <rect id="Rectangle_459496" data-name="Rectangle 459496" width="17.059" height="68.657" transform="translate(501.213 179.39)" fill="#79a0cf"/>
          <rect id="Rectangle_459497" data-name="Rectangle 459497" width="16.306" height="83.127" transform="translate(536.761 192.661)" fill="#79a0cf"/>
          <rect id="Rectangle_459498" data-name="Rectangle 459498" width="21.424" height="47.73" transform="translate(404.099 214.22)" fill="#79a0cf"/>
          <rect id="Rectangle_459499" data-name="Rectangle 459499" width="44.115" height="29.621" transform="translate(140.759 232.329)" fill="#79a0cf"/>
          <rect id="Rectangle_459500" data-name="Rectangle 459500" width="17.744" height="81.597" transform="translate(66.469 176.329)" fill="#79a0cf"/>
          <rect id="Rectangle_459501" data-name="Rectangle 459501" width="16.232" height="51.284" transform="translate(98.027 157.58)" fill="#79a0cf"/>
          <path id="Path_1033393" data-name="Path 1033393" d="M1443.739,801.774h0c-3.116-12.765-8.683-13.052-8.683-13.052l-46.6,9.966c-3.073.216-4.545,7.831-4.545,7.831l-30.137,11.849s-12.654,5.834-21.551,15.305S1307,907.9,1307,907.9l-19.228,2.009-25.541,21.522s45.342,28.7,57.4,24.393,29.559-37.02,29.559-37.02v44.05H1480.2l1.855-31.71-2.215-42.472,2.215-70.6a339.873,339.873,0,0,1-38.317-16.305" transform="translate(-1092.856 -682.883)" fill="#4a609c"/>
          <path id="Path_1033394" data-name="Path 1033394" d="M2242.7,638.861c-6.554,8.937-22.8,13.166-29.1,14.511a3.956,3.956,0,0,0-3.061,3.125l-3.052,15.93-3.47-16.66a2.56,2.56,0,0,0-1.922-1.974,34.218,34.218,0,0,1-7.426-2.984l1.516-8.882.541-3.164.621-3.642.005,0,37.007-20.755,6.991-3.921s.31,15.664,1.35,28.421" transform="translate(-1900.172 -528.526)" fill="#fbb5b5"/>
          <path id="Path_1033395" data-name="Path 1033395" d="M2207.132,656.467l-1.162,6.806s1.736,4.2,12.641,3.239,26.266-19.18,29.778-29.3-41.257,19.251-41.257,19.251" transform="translate(-1909.955 -549.873)" fill="#f18f86"/>
          <path id="Path_1033396" data-name="Path 1033396" d="M2401.71,318.138s-1.052,15.4-3.443,20.854-13.01,15.305-13.01,15.305-16.836-14.731-17.314-16.166.861-23.532.861-23.532Z" transform="translate(-2050.104 -272.384)" fill="#4a609c"/>
          <path id="Path_1033397" data-name="Path 1033397" d="M2018.82,302.479s-4.209,63.135,19.132,68.683,44.577-11.671,50.891-27.359c0,0,6.218.287,9.183-13.392s-7.557-14.827-11.384-6.792l-3.348,13.2a21.979,21.979,0,0,1-3.156-7.748c-.957-4.687-1.435-6.7-1.435-6.7s-7.461-2.87-8.131-10.427a91.064,91.064,0,0,1-.574-9.47Z" transform="translate(-1747.663 -261.89)" fill="#fbb5b5"/>
          <path id="Path_1033398" data-name="Path 1033398" d="M2083,46.952l-85.088-4.735c1.791-15.568,12.314-45.427,47.2-41.934q2.166.217,4.46.609a47.879,47.879,0,0,1,10.983,3.191C2087,15.544,2083,46.952,2083,46.952" transform="translate(-1729.819 -0.001)" fill="#f9a041"/>
          <path id="Path_1033399" data-name="Path 1033399" d="M2135.543,5.9c-9.337-.488-24.527,3.775-31.789,33.685l-19.228-.861s3.085-33,35.573-36.624q2.166.217,4.46.609A47.88,47.88,0,0,1,2135.543,5.9" transform="translate(-1804.807 -1.818)" fill="#f17b1b"/>
          <path id="Path_1033400" data-name="Path 1033400" d="M1923.065,270.677l69.448,2.014s-20.748-14.006-58.37-9.374c0,0-9.212,2.624-11.077,7.359" transform="translate(-1665.013 -227.17)" fill="#6c2217"/>
          <path id="Path_1033401" data-name="Path 1033401" d="M2028.066,906.282l-7.364-2.692-11.9-4.352-7.8-2.852a2.327,2.327,0,0,0-2.7.847,187.768,187.768,0,0,1-55.8,79.3c-11.492-24.4-15.728-49.048-13.484-73.915a2.172,2.172,0,0,0-2.959-1.621l-9.289,3.8-10.931,4.469-5.264,2.152a3.955,3.955,0,0,0-2.458,3.661v140.879h125.181l-.516-18.509-.4-14.349-.672-24.105-6.313-6.314c-6.475-27.957-.337-54.969,14.545-81.326a3.542,3.542,0,0,0-1.868-5.069" transform="translate(-1643.408 -775.98)" fill="#f9a041"/>
          <path id="Path_1033402" data-name="Path 1033402" d="M2022.777,1855.919H1898.112V1841.57h124.263Z" transform="translate(-1643.408 -1594.454)" fill="#e6dfef"/>
          <path id="Path_1033403" data-name="Path 1033403" d="M1966.593,959.95l-10.931,4.469,1.83,146.692h12.265Z" transform="translate(-1693.235 -831.136)" fill="#fff"/>
          <path id="Path_1033404" data-name="Path 1033404" d="M2484.773,1008.257c-3.269,24.627-3.228,54.2-3.019,67.008h11.789c-.192-15.426-.023-55.166,6-81.07,6.33-27.207,21.486-60.764,26.411-71.294l-11.9-4.352c-5.316,12.551-25.548,61.594-29.28,89.707" transform="translate(-2148.663 -795.292)" fill="#fff"/>
          <path id="Path_1033405" data-name="Path 1033405" d="M2178.761,925.354s-4.591,3.826-7.461,18.175c0,0-4.583-13.94-3.439-22.18" transform="translate(-1876.801 -797.716)" fill="none" stroke="#374f82" stroke-linecap="round" stroke-linejoin="round" stroke-width="8"/>
          <path id="Path_1033406" data-name="Path 1033406" d="M2328.688,895.122s7.653,4.018,11.1,17.793c0,0,7.653-11.288,16.836-17.793s10.469-9.132,10.469-9.132" transform="translate(-2016.206 -767.101)" fill="none" stroke="#374f82" stroke-linecap="round" stroke-linejoin="round" stroke-width="8"/>
          <line id="Line_3344" data-name="Line 3344" x1="1.339" y2="42.664" transform="translate(305.977 143.9)" fill="none" stroke="#374f82" stroke-linecap="round" stroke-linejoin="round" stroke-width="8"/>
          <path id="Path_1033407" data-name="Path 1033407" d="M1381.45,1298.361c3.731.861,17.793,2.009,26.976,21.236s15.4,35.011,27.263,43.333c0,0-17.219,6.026-28.411,0s-29.558-43.907-29.558-44.768,3.731-19.8,3.731-19.8" transform="translate(-1192.846 -1124.137)" fill="#fff"/>
          <path id="Path_1033408" data-name="Path 1033408" d="M879.336,1261.95l68.827-1.553a5.011,5.011,0,0,1,4.621,2.822l38.988,80.363a2.708,2.708,0,0,1-2.31,3.887l-66.406,3.1a5.011,5.011,0,0,1-4.707-2.747l-41.369-81.946a2.708,2.708,0,0,1,2.356-3.928" transform="translate(-759.045 -1091.266)" fill="#f17b1b"/>
          <path id="Path_1033409" data-name="Path 1033409" d="M1068.3,1299.412a1.052,1.052,0,1,1-1.052-1.052,1.052,1.052,0,0,1,1.052,1.052" transform="translate(-923.124 -1124.136)" fill="#4a609c"/>
          <path id="Path_1033410" data-name="Path 1033410" d="M1195.547,1299.412a1.052,1.052,0,1,1-1.052-1.052,1.052,1.052,0,0,1,1.052,1.052" transform="translate(-1033.296 -1124.136)" fill="#4a609c"/>
          <path id="Path_1033411" data-name="Path 1033411" d="M896.351,1399.485l13.09,3.538s8.163,3.2,8.418,4.8a5.057,5.057,0,0,1-1.148,3.316,8.271,8.271,0,0,1,3,2.423c.765,1.339-1.212,4.592-2.551,5.293a5.019,5.019,0,0,1-2.87.431s1.4,2.12.447,3.906-4.528,3.189-4.528,3.189.7,3.125-1.212,3.89-5.808-.188-5.808-.188l5.719,11.329s-7.883-2.372-12.666-6.007-5.357-4.5-5.07-6.5-1.244-3.731-3.635-6.218-.765-5.74-1.626-7.557-5.07-4.3-4.592-7.7c.352-2.5,5.468-5.6,9.118-7.381a8.45,8.45,0,0,1,5.915-.561" transform="translate(-763.022 -1211.436)" fill="#fbb5b5"/>
          <path id="Path_1033412" data-name="Path 1033412" d="M967.566,1454.589l-10.618-3.711s-9.757-1.678-10.044-1.487-6.888,5.2-6.888,5.2" transform="translate(-813.877 -1254.887)" fill="none" stroke="#f18f86" stroke-linecap="round" stroke-linejoin="round" stroke-width="8"/>
          <path id="Path_1033413" data-name="Path 1033413" d="M991.683,1520.235l-5.612-2.344-10.905-2.1-4.5,3.444" transform="translate(-840.417 -1312.387)" fill="none" stroke="#f18f86" stroke-linecap="round" stroke-linejoin="round" stroke-width="8"/>
          <path id="Path_1033414" data-name="Path 1033414" d="M1002.415,1584.113l-6.425-2.742H989.6l-1.817,1.371" transform="translate(-855.231 -1369.17)" fill="none" stroke="#f18f86" stroke-linecap="round" stroke-linejoin="round" stroke-width="8"/>
          <path id="Path_1033415" data-name="Path 1033415" d="M2763.513,1007.51l-18.868,72.555,4.52,39.94-6.868,32.283h39.393c1.015-2.9,2.458-7,4.5-12.769,8.61-24.393,2.87-46.2,1.722-85.805s-24.393-46.2-24.393-46.2" transform="translate(-2374.313 -872.314)" fill="#4a609c"/>
          <rect id="Rectangle_459502" data-name="Rectangle 459502" width="107.374" height="40.797" transform="translate(0 239.177)" fill="#eaebff"/>
          <rect id="Rectangle_459503" data-name="Rectangle 459503" width="9.057" height="12.627" transform="translate(71.583 226.55)" fill="#424160"/>
          <path id="Path_1033416" data-name="Path 1033416" d="M496.239,1538.872a13.105,13.105,0,1,0-13.105,13.105,13.105,13.105,0,0,0,13.105-13.105" transform="translate(-406.956 -1321.027)" fill="#66658f"/>
          <path id="Path_1033417" data-name="Path 1033417" d="M523.095,1570.659a8.179,8.179,0,0,1-15,4.521h0a8.179,8.179,0,0,1,11.849-10.969h0a8.165,8.165,0,0,1,3.147,6.448" transform="translate(-438.738 -1352.814)" fill="#ffb42a"/>
          <path id="Path_1033418" data-name="Path 1033418" d="M531.892,1581.828a8.179,8.179,0,0,1-15,4.521c12.559.855,11.847-10.969,11.847-10.969h0a8.165,8.165,0,0,1,3.147,6.448" transform="translate(-447.535 -1363.983)" fill="#ea750c"/>
          <path id="Path_1033419" data-name="Path 1033419" d="M529.033,1583.727c-1.557,1.557-3.525,2.112-4.4,1.24s-.316-2.84,1.24-4.4,3.525-2.112,4.4-1.24.317,2.84-1.24,4.4" transform="translate(-453.879 -1367.046)" fill="#fff4b6"/>
          <rect id="Rectangle_459504" data-name="Rectangle 459504" width="107.374" height="6.181" transform="translate(0 239.177)" fill="#fefeff"/>
          <path id="Path_1033420" data-name="Path 1033420" d="M397.6,1808v15.2H376l-34.618-34.616-6.181-6.181H372Z" transform="translate(-290.226 -1543.223)" fill="#ee5835"/>
          <path id="Path_1033421" data-name="Path 1033421" d="M48.133,1823.2h-36.8L0,1811.861V1782.4H7.336Z" transform="translate(0 -1543.223)" fill="#ee5835"/>
          <path id="Path_1033422" data-name="Path 1033422" d="M13.517,1788.581H0V1782.4H7.336Z" transform="translate(0 -1543.223)" fill="#ff795f"/>
          <path id="Path_1033423" data-name="Path 1033423" d="M378.184,1788.581h-36.8l-6.181-6.181H372Z" transform="translate(-290.226 -1543.223)" fill="#ff795f"/>
          <rect id="Rectangle_459505" data-name="Rectangle 459505" width="107.374" height="40.797" transform="translate(520.625 239.177)" fill="#eaebff"/>
          <rect id="Rectangle_459506" data-name="Rectangle 459506" width="9.057" height="12.627" transform="translate(547.359 226.55)" fill="#424160"/>
          <path id="Path_1033424" data-name="Path 1033424" d="M4014.645,1538.872a13.105,13.105,0,1,1,13.1,13.105,13.105,13.105,0,0,1-13.1-13.105" transform="translate(-3475.928 -1321.027)" fill="#66658f"/>
          <path id="Path_1033425" data-name="Path 1033425" d="M4051.354,1570.659a8.179,8.179,0,0,0,15,4.521h0a8.179,8.179,0,0,0-11.849-10.969h0a8.165,8.165,0,0,0-3.146,6.448" transform="translate(-3507.711 -1352.814)" fill="#ffb42a"/>
          <path id="Path_1033426" data-name="Path 1033426" d="M4051.354,1581.828a8.179,8.179,0,0,0,15,4.521c-12.559.855-11.848-10.969-11.848-10.969h0a8.166,8.166,0,0,0-3.146,6.448" transform="translate(-3507.711 -1363.983)" fill="#ea750c"/>
          <path id="Path_1033427" data-name="Path 1033427" d="M4109.276,1583.727c1.557,1.557,3.524,2.112,4.4,1.24s.316-2.84-1.24-4.4-3.525-2.112-4.4-1.24-.316,2.84,1.24,4.4" transform="translate(-3556.43 -1367.046)" fill="#fff4b6"/>
          <rect id="Rectangle_459507" data-name="Rectangle 459507" width="107.374" height="6.181" transform="translate(520.625 239.177)" fill="#fefeff"/>
          <path id="Path_1033428" data-name="Path 1033428" d="M3879.824,1808v15.2h21.595l34.618-34.616,6.181-6.181h-36.8Z" transform="translate(-3359.198 -1543.223)" fill="#ee5835"/>
          <path id="Path_1033429" data-name="Path 1033429" d="M4321.3,1823.2h36.8l11.336-11.336V1782.4H4362.1Z" transform="translate(-3741.434 -1543.223)" fill="#ee5835"/>
          <path id="Path_1033430" data-name="Path 1033430" d="M4579.27,1788.581h13.517V1782.4h-7.336Z" transform="translate(-3964.787 -1543.223)" fill="#ff795f"/>
          <path id="Path_1033431" data-name="Path 1033431" d="M4024.514,1788.581h36.8l6.181-6.181h-36.8Z" transform="translate(-3484.472 -1543.223)" fill="#ff795f"/>
        </g>
      </g>
    </g>
    <g id="Group_1184850" data-name="Group 1184850" transform="translate(374 10747.039)">
      <g id="Group_1184849" data-name="Group 1184849" transform="translate(0.26 -0.039)" clip-path="url(#clip-path-2)">
        <path id="Path_1033432" data-name="Path 1033432" d="M110.829,108.4A47.912,47.912,0,1,1,62.916,60.488,47.912,47.912,0,0,1,110.829,108.4" transform="translate(-12.916 -52.071)" fill="#63393f"/>
        <path id="Path_1033433" data-name="Path 1033433" d="M96.069,76.022A50.014,50.014,0,0,0,2.3,110.526q.706,2.24,1.628,4.422a50.025,50.025,0,0,0,92.138,0q.923-2.181,1.628-4.422a50.2,50.2,0,0,0-1.628-34.5M50,141.311a45.846,45.846,0,1,1,40.2-23.849A45.863,45.863,0,0,1,50,141.311" transform="translate(0 -39.156)" fill="#ffbf52"/>
        <path id="Path_1033434" data-name="Path 1033434" d="M315.667,8.417a8.417,8.417,0,1,0-8.417,8.417,8.417,8.417,0,0,0,8.417-8.417" transform="translate(-257.25)" fill="#4a609c"/>
        <path id="Path_1033435" data-name="Path 1033435" d="M332.075,27.992a5.253,5.253,0,0,1-9.631,2.9h0a5.253,5.253,0,0,1,7.61-7.045h0a5.244,5.244,0,0,1,2.021,4.141" transform="translate(-276.821 -19.575)" fill="#ffb42a"/>
        <path id="Path_1033436" data-name="Path 1033436" d="M337.492,34.869a5.253,5.253,0,0,1-9.631,2.9c8.066.549,7.609-7.045,7.609-7.045h0a5.244,5.244,0,0,1,2.021,4.141" transform="translate(-282.238 -26.452)" fill="#ea750c"/>
        <path id="Path_1033437" data-name="Path 1033437" d="M335.487,36.008c-1,1-2.264,1.356-2.824.8s-.2-1.824.8-2.824,2.264-1.356,2.824-.8.2,1.824-.8,2.824" transform="translate(-286.145 -28.339)" fill="#fff4b6"/>
        <path id="Path_1033438" data-name="Path 1033438" d="M111.944,512.9q-.705,2.24-1.628,4.422a50.026,50.026,0,0,1-92.138,0q-.922-2.181-1.628-4.422a64.879,64.879,0,0,0,7.493,6.935,45.811,45.811,0,0,0,80.408,0,64.868,64.868,0,0,0,7.493-6.935" transform="translate(-14.247 -441.525)" fill="#f17b1b"/>
      </g>
      <g id="Group_1184868" data-name="Group 1184868" transform="translate(24.26 26.961)">
        <path id="Path_1033450" data-name="Path 1033450" d="M51.036,11.134a.826.826,0,0,0-.044-.221c-.009-.028-.016-.054-.028-.081a.864.864,0,0,0-.172-.252L40.464.252A.847.847,0,0,0,40.211.08c-.026-.012-.052-.019-.078-.028a.847.847,0,0,0-.226-.045c-.015,0-.03-.007-.048-.007H14.039a4.309,4.309,0,0,0-4.3,4.3v6.334a16.32,16.32,0,0,0,0,29.865v6.834a4.309,4.309,0,0,0,4.3,4.3H46.744a4.308,4.308,0,0,0,4.3-4.3V11.189c0-.019-.009-.035-.011-.054Zm-2.927-.806H41.58a.861.861,0,0,1-.861-.861V2.938ZM1.74,25.57A14.612,14.612,0,0,1,16.371,10.939q.734,0,1.454.071a14.592,14.592,0,0,1,13,12.37A14.775,14.775,0,0,1,31,25.57a14.631,14.631,0,0,1-29.262,0ZM26.367,38.5c.118-.091.234-.182.349-.275a16.107,16.107,0,0,0,1.22-1.089,16.177,16.177,0,0,0,1.089-1.219c.094-.115.184-.232.275-.35.1-.136.217-.265.317-.4l7.337,7.346a2.562,2.562,0,0,1,0,3.641,2.622,2.622,0,0,1-3.644,0l-7.347-7.334c.139-.1.269-.213.4-.317ZM46.744,49.919H14.039a2.582,2.582,0,0,1-2.582-2.582V41.175c.053.017.109.029.163.045.138.042.277.076.417.114.322.086.646.172.974.237.161.034.322.065.485.093.328.058.659.1.991.141.148.017.295.038.443.05.477.041.957.067,1.441.067a16.245,16.245,0,0,0,8.107-2.16l7.61,7.6a4.3,4.3,0,1,0,6.082-6.077l-7.606-7.611a16.24,16.24,0,0,0,2.16-8.107q0-.818-.079-1.622A16.349,16.349,0,0,0,16.371,9.218c-.485,0-.964.027-1.441.067-.149.013-.3.034-.444.051q-.5.055-.988.141-.245.043-.489.094c-.324.067-.645.146-.963.234-.143.039-.286.073-.43.116-.053.016-.108.028-.161.045V4.3a2.582,2.582,0,0,1,2.582-2.582H39V9.467a2.582,2.582,0,0,0,2.582,2.582h7.746V47.337a2.582,2.582,0,0,1-2.582,2.582Zm0,0" fill="#f9ce5d"/>
        <path id="Path_1033451" data-name="Path 1033451" d="M159.144,48.861a.861.861,0,0,0-.861-.861H139.349a.861.861,0,1,0,0,1.721h18.935A.861.861,0,0,0,159.144,48.861Zm0,0" transform="translate(-123.589 -42.836)" fill="#f9ce5d"/>
        <path id="Path_1033452" data-name="Path 1033452" d="M325.677,192H315.349a.861.861,0,1,0,0,1.721h10.328a.861.861,0,0,0,0-1.721Zm0,0" transform="translate(-280.654 -171.344)" fill="#f9ce5d"/>
        <path id="Path_1033453" data-name="Path 1033453" d="M325.677,240H315.349a.861.861,0,1,0,0,1.721h10.328a.861.861,0,0,0,0-1.721Zm0,0" transform="translate(-280.654 -214.18)" fill="#f9ce5d"/>
        <path id="Path_1033454" data-name="Path 1033454" d="M319.4,288.861a.861.861,0,0,0-.861-.861H307.349a.861.861,0,0,0,0,1.721h11.189A.861.861,0,0,0,319.4,288.861Zm0,0" transform="translate(-273.515 -257.016)" fill="#f9ce5d"/>
        <path id="Path_1033455" data-name="Path 1033455" d="M347.955,336.861a.861.861,0,0,0-.861-.861h-7.746a.861.861,0,1,0,0,1.721h7.746A.861.861,0,0,0,347.955,336.861Zm0,0" transform="translate(-302.072 -299.852)" fill="#f9ce5d"/>
        <path id="Path_1033456" data-name="Path 1033456" d="M259.095,96.861a.861.861,0,0,0-.861-.861h-6.885a.861.861,0,0,0,0,1.721h6.885A.861.861,0,0,0,259.095,96.861Zm0,0" transform="translate(-223.539 -85.672)" fill="#f9ce5d"/>
        <path id="Path_1033457" data-name="Path 1033457" d="M305.119,144.861a.861.861,0,0,0-.861-.861h-12.91a.861.861,0,1,0,0,1.721h12.91A.861.861,0,0,0,305.119,144.861Zm0,0" transform="translate(-259.236 -128.508)" fill="#f9ce5d"/>
        <path id="Path_1033458" data-name="Path 1033458" d="M115.349,185.721h6.025a.861.861,0,1,0,0-1.721h-6.025a.861.861,0,1,0,0,1.721Zm0,0" transform="translate(-102.171 -164.205)" fill="#f9ce5d"/>
        <path id="Path_1033459" data-name="Path 1033459" d="M97.119,232.861a.861.861,0,0,0-.861-.861H83.349a.861.861,0,1,0,0,1.721h12.91A.861.861,0,0,0,97.119,232.861Zm0,0" transform="translate(-73.613 -207.041)" fill="#f9ce5d"/>
        <path id="Path_1033460" data-name="Path 1033460" d="M121.373,280h-6.025a.861.861,0,1,0,0,1.721h6.025a.861.861,0,1,0,0-1.721Zm0,0" transform="translate(-102.171 -249.877)" fill="#f9ce5d"/>
        <path id="Path_1033461" data-name="Path 1033461" d="M51.19,141.975a12.622,12.622,0,0,0,5.021-4.87c.068-.119.142-.234.206-.355.033-.062.059-.126.091-.189.131-.251.258-.5.371-.76s.2-.5.294-.755c.026-.073.06-.145.086-.219a12.917,12.917,0,1,0-6.069,7.152ZM39.7,140.441a11.1,11.1,0,0,1-2.548-1.909,11.332,11.332,0,0,1-1.4-1.708q-.305-.456-.562-.937a11.19,11.19,0,1,1,19.716.05v.007a11,11,0,0,1-4.52,4.518,11.156,11.156,0,0,1-10.681-.016Zm0,0" transform="translate(-28.693 -105.052)" fill="#f9ce5d"/>
        <path id="Path_1033462" data-name="Path 1033462" d="M384.513,384a.861.861,0,0,0-.861.861V388.3a.861.861,0,0,1-.861.861h-3.443a.861.861,0,1,0,0,1.721h3.443a2.582,2.582,0,0,0,2.582-2.582v-3.443A.861.861,0,0,0,384.513,384Zm0,0" transform="translate(-337.769 -342.688)" fill="#f9ce5d"/>
      </g>
    </g>
    <g id="Group_1184854" data-name="Group 1184854" transform="translate(1126 10747.039)">
      <g id="Group_1184849-2" data-name="Group 1184849" clip-path="url(#clip-path-2)">
        <path id="Path_1033432-2" data-name="Path 1033432" d="M15,108.4A47.912,47.912,0,1,0,62.916,60.488,47.912,47.912,0,0,0,15,108.4" transform="translate(-12.916 -52.071)" fill="#63393f"/>
        <path id="Path_1033433-2" data-name="Path 1033433" d="M3.931,76.022a50.014,50.014,0,0,1,93.766,34.5q-.706,2.24-1.628,4.422a50.025,50.025,0,0,1-92.138,0q-.923-2.181-1.628-4.422a50.2,50.2,0,0,1,1.628-34.5M50,141.311A45.846,45.846,0,1,0,9.8,117.461,45.863,45.863,0,0,0,50,141.311" transform="translate(0 -39.156)" fill="#ffbf52"/>
        <path id="Path_1033434-2" data-name="Path 1033434" d="M298.833,8.417a8.417,8.417,0,1,1,8.417,8.417,8.417,8.417,0,0,1-8.417-8.417" transform="translate(-257.25)" fill="#4a609c"/>
        <path id="Path_1033435-2" data-name="Path 1033435" d="M321.568,27.992a5.253,5.253,0,0,0,9.631,2.9h0a5.253,5.253,0,0,0-7.61-7.045h0a5.244,5.244,0,0,0-2.021,4.141" transform="translate(-276.822 -19.575)" fill="#ffb42a"/>
        <path id="Path_1033436-2" data-name="Path 1033436" d="M327.861,34.869a5.253,5.253,0,0,0,9.631,2.9c-8.066.549-7.609-7.045-7.609-7.045h0a5.244,5.244,0,0,0-2.021,4.141" transform="translate(-283.114 -26.452)" fill="#ea750c"/>
        <path id="Path_1033437-2" data-name="Path 1033437" d="M333.46,36.008c1,1,2.264,1.356,2.824.8s.2-1.824-.8-2.824-2.264-1.356-2.824-.8-.2,1.824.8,2.824" transform="translate(-282.802 -28.339)" fill="#fff4b6"/>
        <path id="Path_1033438-2" data-name="Path 1033438" d="M16.55,512.9q.705,2.24,1.628,4.422a50.026,50.026,0,0,0,92.138,0q.922-2.181,1.628-4.422a64.88,64.88,0,0,1-7.493,6.935,45.811,45.811,0,0,1-80.408,0A64.868,64.868,0,0,1,16.55,512.9" transform="translate(-14.247 -441.525)" fill="#f17b1b"/>
      </g>
    </g>
    <g id="Group_1184851" data-name="Group 1184851" transform="translate(525.26 10620)">
      <g id="Group_1184849-3" data-name="Group 1184849" clip-path="url(#clip-path-2)">
        <path id="Path_1033432-3" data-name="Path 1033432" d="M110.829,108.4A47.912,47.912,0,1,1,62.916,60.488,47.912,47.912,0,0,1,110.829,108.4" transform="translate(-12.916 -52.071)" fill="#63393f"/>
        <path id="Path_1033433-3" data-name="Path 1033433" d="M96.069,76.022A50.014,50.014,0,0,0,2.3,110.526q.706,2.24,1.628,4.422a50.025,50.025,0,0,0,92.138,0q.923-2.181,1.628-4.422a50.2,50.2,0,0,0-1.628-34.5M50,141.311a45.846,45.846,0,1,1,40.2-23.849A45.863,45.863,0,0,1,50,141.311" transform="translate(0 -39.156)" fill="#ffbf52"/>
        <path id="Path_1033434-3" data-name="Path 1033434" d="M315.667,8.417a8.417,8.417,0,1,0-8.417,8.417,8.417,8.417,0,0,0,8.417-8.417" transform="translate(-257.25)" fill="#4a609c"/>
        <path id="Path_1033435-3" data-name="Path 1033435" d="M332.075,27.992a5.253,5.253,0,0,1-9.631,2.9h0a5.253,5.253,0,0,1,7.61-7.045h0a5.244,5.244,0,0,1,2.021,4.141" transform="translate(-276.821 -19.575)" fill="#ffb42a"/>
        <path id="Path_1033436-3" data-name="Path 1033436" d="M337.492,34.869a5.253,5.253,0,0,1-9.631,2.9c8.066.549,7.609-7.045,7.609-7.045h0a5.244,5.244,0,0,1,2.021,4.141" transform="translate(-282.238 -26.452)" fill="#ea750c"/>
        <path id="Path_1033437-3" data-name="Path 1033437" d="M335.487,36.008c-1,1-2.264,1.356-2.824.8s-.2-1.824.8-2.824,2.264-1.356,2.824-.8.2,1.824-.8,2.824" transform="translate(-286.145 -28.339)" fill="#fff4b6"/>
        <path id="Path_1033438-3" data-name="Path 1033438" d="M111.944,512.9q-.705,2.24-1.628,4.422a50.026,50.026,0,0,1-92.138,0q-.922-2.181-1.628-4.422a64.879,64.879,0,0,0,7.493,6.935,45.811,45.811,0,0,0,80.408,0,64.868,64.868,0,0,0,7.493-6.935" transform="translate(-14.247 -441.525)" fill="#f17b1b"/>
      </g>
    </g>
    <g id="Group_1184853" data-name="Group 1184853" transform="translate(962.26 10620)">
      <g id="Group_1184849-4" data-name="Group 1184849" clip-path="url(#clip-path-2)">
        <path id="Path_1033432-4" data-name="Path 1033432" d="M15,108.4A47.912,47.912,0,1,0,62.916,60.488,47.912,47.912,0,0,0,15,108.4" transform="translate(-12.916 -52.071)" fill="#63393f"/>
        <path id="Path_1033433-4" data-name="Path 1033433" d="M3.931,76.022a50.014,50.014,0,0,1,93.766,34.5q-.706,2.24-1.628,4.422a50.025,50.025,0,0,1-92.138,0q-.923-2.181-1.628-4.422a50.2,50.2,0,0,1,1.628-34.5M50,141.311A45.846,45.846,0,1,0,9.8,117.461,45.863,45.863,0,0,0,50,141.311" transform="translate(0 -39.156)" fill="#ffbf52"/>
        <path id="Path_1033434-4" data-name="Path 1033434" d="M298.833,8.417a8.417,8.417,0,1,1,8.417,8.417,8.417,8.417,0,0,1-8.417-8.417" transform="translate(-257.25)" fill="#4a609c"/>
        <path id="Path_1033435-4" data-name="Path 1033435" d="M321.568,27.992a5.253,5.253,0,0,0,9.631,2.9h0a5.253,5.253,0,0,0-7.61-7.045h0a5.244,5.244,0,0,0-2.021,4.141" transform="translate(-276.822 -19.575)" fill="#ffb42a"/>
        <path id="Path_1033436-4" data-name="Path 1033436" d="M327.861,34.869a5.253,5.253,0,0,0,9.631,2.9c-8.066.549-7.609-7.045-7.609-7.045h0a5.244,5.244,0,0,0-2.021,4.141" transform="translate(-283.114 -26.452)" fill="#ea750c"/>
        <path id="Path_1033437-4" data-name="Path 1033437" d="M333.46,36.008c1,1,2.264,1.356,2.824.8s.2-1.824-.8-2.824-2.264-1.356-2.824-.8-.2,1.824.8,2.824" transform="translate(-282.802 -28.339)" fill="#fff4b6"/>
        <path id="Path_1033438-4" data-name="Path 1033438" d="M16.55,512.9q.705,2.24,1.628,4.422a50.026,50.026,0,0,0,92.138,0q.922-2.181,1.628-4.422a64.88,64.88,0,0,1-7.493,6.935,45.811,45.811,0,0,1-80.408,0A64.868,64.868,0,0,1,16.55,512.9" transform="translate(-14.247 -441.525)" fill="#f17b1b"/>
      </g>
    </g>
    <g id="Group_1184852" data-name="Group 1184852" transform="translate(750.26 10580.104)">
      <g id="Group_1184849-5" data-name="Group 1184849" clip-path="url(#clip-path-2)">
        <path id="Path_1033432-5" data-name="Path 1033432" d="M110.829,108.4A47.912,47.912,0,1,1,62.916,60.488,47.912,47.912,0,0,1,110.829,108.4" transform="translate(-12.916 -52.071)" fill="#63393f"/>
        <path id="Path_1033433-5" data-name="Path 1033433" d="M96.069,76.022A50.014,50.014,0,0,0,2.3,110.526q.706,2.24,1.628,4.422a50.025,50.025,0,0,0,92.138,0q.923-2.181,1.628-4.422a50.2,50.2,0,0,0-1.628-34.5M50,141.311a45.846,45.846,0,1,1,40.2-23.849A45.863,45.863,0,0,1,50,141.311" transform="translate(0 -39.156)" fill="#ffbf52"/>
        <path id="Path_1033434-5" data-name="Path 1033434" d="M315.667,8.417a8.417,8.417,0,1,0-8.417,8.417,8.417,8.417,0,0,0,8.417-8.417" transform="translate(-257.25)" fill="#4a609c"/>
        <path id="Path_1033435-5" data-name="Path 1033435" d="M332.075,27.992a5.253,5.253,0,0,1-9.631,2.9h0a5.253,5.253,0,0,1,7.61-7.045h0a5.244,5.244,0,0,1,2.021,4.141" transform="translate(-276.821 -19.575)" fill="#ffb42a"/>
        <path id="Path_1033436-5" data-name="Path 1033436" d="M337.492,34.869a5.253,5.253,0,0,1-9.631,2.9c8.066.549,7.609-7.045,7.609-7.045h0a5.244,5.244,0,0,1,2.021,4.141" transform="translate(-282.238 -26.452)" fill="#ea750c"/>
        <path id="Path_1033437-5" data-name="Path 1033437" d="M335.487,36.008c-1,1-2.264,1.356-2.824.8s-.2-1.824.8-2.824,2.264-1.356,2.824-.8.2,1.824-.8,2.824" transform="translate(-286.145 -28.339)" fill="#fff4b6"/>
        <path id="Path_1033438-5" data-name="Path 1033438" d="M111.944,512.9q-.705,2.24-1.628,4.422a50.026,50.026,0,0,1-92.138,0q-.922-2.181-1.628-4.422a64.879,64.879,0,0,0,7.493,6.935,45.811,45.811,0,0,0,80.408,0,64.868,64.868,0,0,0,7.493-6.935" transform="translate(-14.247 -441.525)" fill="#f17b1b"/>
      </g>
    </g>
    <g id="Group_1184861" data-name="Group 1184861">
      <rect id="Rectangle_459510" data-name="Rectangle 459510" width="180" height="55" rx="10" transform="translate(337.26 10840)" fill="#f9ce5d"/>
      <path id="Path_1033593" data-name="Path 1033593" d="M7.562,12.836H5.695V17H3.351V5.625H7.577a4.778,4.778,0,0,1,3.109.9,3.1,3.1,0,0,1,1.094,2.539,3.5,3.5,0,0,1-.5,1.941,3.437,3.437,0,0,1-1.527,1.238l2.461,4.648V17H9.695Zm-1.867-1.9H7.585a1.936,1.936,0,0,0,1.367-.449A1.606,1.606,0,0,0,9.437,9.25,1.719,1.719,0,0,0,8.98,7.984a1.9,1.9,0,0,0-1.4-.461H5.695Zm11.649,6.219a4.15,4.15,0,0,1-3.027-1.141,4.054,4.054,0,0,1-1.168-3.039v-.219a5.106,5.106,0,0,1,.492-2.277,3.612,3.612,0,0,1,1.395-1.547,3.914,3.914,0,0,1,2.059-.543,3.508,3.508,0,0,1,2.73,1.094,4.444,4.444,0,0,1,1,3.1v.922H15.438a2.1,2.1,0,0,0,.66,1.328,2,2,0,0,0,1.395.5,2.437,2.437,0,0,0,2.039-.945l1.109,1.242a3.389,3.389,0,0,1-1.375,1.121A4.511,4.511,0,0,1,17.344,17.156Zm-.258-6.945a1.411,1.411,0,0,0-1.09.455,2.357,2.357,0,0,0-.535,1.3H18.6v-.181a1.681,1.681,0,0,0-.406-1.165A1.456,1.456,0,0,0,17.086,10.211ZM25.2,14.242l1.57-5.7h2.359L26.282,17H24.126L21.275,8.547h2.359ZM32.549,17H30.283V8.547h2.266Zm-2.4-10.641a1.112,1.112,0,0,1,.34-.836,1.465,1.465,0,0,1,1.848,0,1.105,1.105,0,0,1,.344.836,1.108,1.108,0,0,1-.348.844,1.448,1.448,0,0,1-1.836,0A1.108,1.108,0,0,1,30.151,6.359Zm8.876,8.3a.727.727,0,0,0-.41-.652,4.659,4.659,0,0,0-1.316-.426q-3.016-.633-3.016-2.562a2.323,2.323,0,0,1,.934-1.879,3.766,3.766,0,0,1,2.441-.754,4.053,4.053,0,0,1,2.574.758,2.388,2.388,0,0,1,.965,1.969H38.941a1.092,1.092,0,0,0-.312-.8A1.322,1.322,0,0,0,37.652,10a1.351,1.351,0,0,0-.883.258.814.814,0,0,0-.312.656.7.7,0,0,0,.355.605,3.657,3.657,0,0,0,1.2.4,9.8,9.8,0,0,1,1.422.379,2.336,2.336,0,0,1,1.789,2.273,2.2,2.2,0,0,1-.992,1.871,4.28,4.28,0,0,1-2.562.715,4.47,4.47,0,0,1-1.887-.379,3.166,3.166,0,0,1-1.293-1.039,2.414,2.414,0,0,1-.469-1.426h2.141a1.179,1.179,0,0,0,.445.922,1.766,1.766,0,0,0,1.109.32,1.635,1.635,0,0,0,.98-.246A.766.766,0,0,0,39.027,14.664ZM47.613,17a2.507,2.507,0,0,1-.227-.758,2.732,2.732,0,0,1-2.133.914,3,3,0,0,1-2.059-.719,2.312,2.312,0,0,1-.816-1.812,2.389,2.389,0,0,1,1-2.062,4.915,4.915,0,0,1,2.879-.727h1.039v-.484a1.393,1.393,0,0,0-.3-.937,1.183,1.183,0,0,0-.949-.352,1.345,1.345,0,0,0-.895.273.929.929,0,0,0-.324.75H42.567a2.268,2.268,0,0,1,.453-1.359,3,3,0,0,1,1.281-.98,4.669,4.669,0,0,1,1.859-.355,3.689,3.689,0,0,1,2.48.785,2.747,2.747,0,0,1,.918,2.207v3.664a4.041,4.041,0,0,0,.336,1.82V17Zm-1.867-1.57a1.945,1.945,0,0,0,.922-.223,1.462,1.462,0,0,0,.625-.6V13.156h-.844q-1.7,0-1.8,1.172l-.008.133a.9.9,0,0,0,.3.7A1.153,1.153,0,0,0,45.746,15.43Zm10.337-4.766a6.134,6.134,0,0,0-.812-.062,1.654,1.654,0,0,0-1.68.867V17H51.333V8.547h2.133l.063,1.008a2.092,2.092,0,0,1,1.883-1.164,2.366,2.366,0,0,1,.7.1ZM63.616,17H61.351V5h2.266Zm6.8,0a2.507,2.507,0,0,1-.227-.758,2.732,2.732,0,0,1-2.133.914A3,3,0,0,1,66,16.438a2.312,2.312,0,0,1-.816-1.812,2.389,2.389,0,0,1,1-2.062,4.915,4.915,0,0,1,2.879-.727h1.039v-.484a1.393,1.393,0,0,0-.3-.937,1.183,1.183,0,0,0-.949-.352,1.345,1.345,0,0,0-.895.273.929.929,0,0,0-.324.75H65.367a2.268,2.268,0,0,1,.453-1.359,3,3,0,0,1,1.281-.98,4.669,4.669,0,0,1,1.859-.355,3.689,3.689,0,0,1,2.48.785,2.747,2.747,0,0,1,.918,2.207v3.664a4.041,4.041,0,0,0,.336,1.82V17Zm-1.867-1.57a1.945,1.945,0,0,0,.922-.223,1.462,1.462,0,0,0,.625-.6V13.156H69.25q-1.7,0-1.8,1.172l-.008.133a.9.9,0,0,0,.3.7A1.153,1.153,0,0,0,68.547,15.43Zm17.221-2.578a5.07,5.07,0,0,1-.887,3.129,2.843,2.843,0,0,1-2.395,1.176,2.633,2.633,0,0,1-2.07-.891V20.25H78.158V8.547h2.094l.078.828a2.654,2.654,0,0,1,2.141-.984A2.862,2.862,0,0,1,84.9,9.547a5.207,5.207,0,0,1,.867,3.188Zm-2.258-.164a3.327,3.327,0,0,0-.418-1.82,1.361,1.361,0,0,0-1.215-.641,1.478,1.478,0,0,0-1.461.813V14.5a1.5,1.5,0,0,0,1.477.836Q83.51,15.336,83.51,12.688ZM89.589,17H87.323V5h2.266Zm6.8,0a2.507,2.507,0,0,1-.227-.758,2.732,2.732,0,0,1-2.133.914,3,3,0,0,1-2.059-.719,2.312,2.312,0,0,1-.816-1.812,2.389,2.389,0,0,1,1-2.062,4.915,4.915,0,0,1,2.879-.727h1.039v-.484a1.393,1.393,0,0,0-.3-.937,1.183,1.183,0,0,0-.949-.352,1.345,1.345,0,0,0-.895.273.929.929,0,0,0-.324.75H91.34a2.268,2.268,0,0,1,.453-1.359,3,3,0,0,1,1.281-.98,4.669,4.669,0,0,1,1.859-.355,3.689,3.689,0,0,1,2.48.785,2.747,2.747,0,0,1,.918,2.207v3.664a4.041,4.041,0,0,0,.336,1.82V17Zm-1.867-1.57a1.945,1.945,0,0,0,.922-.223,1.462,1.462,0,0,0,.625-.6V13.156h-.844q-1.7,0-1.8,1.172l-.008.133a.9.9,0,0,0,.3.7A1.153,1.153,0,0,0,94.519,15.43Zm7.665-6.883.07.977a2.951,2.951,0,0,1,2.43-1.133,2.453,2.453,0,0,1,2,.789,3.682,3.682,0,0,1,.672,2.359V17H105.1V11.594a1.465,1.465,0,0,0-.312-1.043,1.4,1.4,0,0,0-1.039-.324,1.553,1.553,0,0,0-1.43.813V17h-2.258V8.547ZM111.49,17h-2.266V8.547h2.266Zm-2.4-10.641a1.112,1.112,0,0,1,.34-.836,1.465,1.465,0,0,1,1.848,0,1.105,1.105,0,0,1,.344.836,1.108,1.108,0,0,1-.348.844,1.448,1.448,0,0,1-1.836,0A1.108,1.108,0,0,1,109.092,6.359ZM115.772,17h-2.266V5h2.266Zm4.282,0h-2.266V5h2.266Zm6.8,0a2.507,2.507,0,0,1-.227-.758,2.732,2.732,0,0,1-2.133.914,3,3,0,0,1-2.059-.719,2.312,2.312,0,0,1-.816-1.812,2.389,2.389,0,0,1,1-2.062,4.915,4.915,0,0,1,2.879-.727h1.039v-.484a1.393,1.393,0,0,0-.3-.937,1.183,1.183,0,0,0-.949-.352,1.345,1.345,0,0,0-.895.273.929.929,0,0,0-.324.75h-2.258a2.268,2.268,0,0,1,.453-1.359,3,3,0,0,1,1.281-.98,4.669,4.669,0,0,1,1.859-.355,3.689,3.689,0,0,1,2.48.785,2.747,2.747,0,0,1,.918,2.207v3.664a4.041,4.041,0,0,0,.336,1.82V17Zm-1.867-1.57a1.945,1.945,0,0,0,.922-.223,1.462,1.462,0,0,0,.625-.6V13.156h-.844q-1.7,0-1.8,1.172l-.008.133a.9.9,0,0,0,.3.7A1.153,1.153,0,0,0,124.985,15.43ZM39.235,32.7a5.013,5.013,0,0,1,.484-2.242,3.546,3.546,0,0,1,1.395-1.523,4.069,4.069,0,0,1,2.113-.539,3.849,3.849,0,0,1,2.793,1.047,4.2,4.2,0,0,1,1.207,2.844l.016.578a4.418,4.418,0,0,1-1.086,3.121,4.209,4.209,0,0,1-5.832,0,4.5,4.5,0,0,1-1.09-3.187Zm2.258.16a3.16,3.16,0,0,0,.453,1.843,1.628,1.628,0,0,0,2.578.008,3.457,3.457,0,0,0,.461-2.015,3.128,3.128,0,0,0-.461-1.831,1.5,1.5,0,0,0-1.3-.649,1.474,1.474,0,0,0-1.281.646A3.516,3.516,0,0,0,41.493,32.856Zm11.931-2.192a6.134,6.134,0,0,0-.812-.062,1.654,1.654,0,0,0-1.68.867V37H48.673V28.547h2.133l.063,1.008a2.092,2.092,0,0,1,1.883-1.164,2.366,2.366,0,0,1,.7.1ZM56.932,37H54.667V28.547h2.266Zm-2.4-10.641a1.112,1.112,0,0,1,.34-.836,1.465,1.465,0,0,1,1.848,0,1.193,1.193,0,0,1,0,1.68,1.448,1.448,0,0,1-1.836,0A1.108,1.108,0,0,1,54.534,26.359Zm3.97,6.352a4.954,4.954,0,0,1,.926-3.133,3,3,0,0,1,2.5-1.187,2.631,2.631,0,0,1,2.164.953l.094-.8H66.23v8.172a3.613,3.613,0,0,1-.5,1.93,3.236,3.236,0,0,1-1.418,1.25,4.985,4.985,0,0,1-2.141.43,4.635,4.635,0,0,1-1.812-.371A3.217,3.217,0,0,1,59.019,39l1-1.375a2.645,2.645,0,0,0,2.047.945,1.936,1.936,0,0,0,1.4-.48,1.8,1.8,0,0,0,.5-1.363v-.453a2.612,2.612,0,0,1-2.055.883,2.992,2.992,0,0,1-2.465-1.191A4.953,4.953,0,0,1,58.5,32.8Zm2.258.168a3.085,3.085,0,0,0,.461,1.8,1.466,1.466,0,0,0,1.266.653,1.568,1.568,0,0,0,1.477-.775V31a1.564,1.564,0,0,0-1.461-.775,1.476,1.476,0,0,0-1.277.665A3.477,3.477,0,0,0,60.761,32.879ZM70.387,37H68.122V28.547h2.266Zm-2.4-10.641a1.112,1.112,0,0,1,.34-.836,1.465,1.465,0,0,1,1.848,0,1.193,1.193,0,0,1,0,1.68,1.448,1.448,0,0,1-1.836,0A1.108,1.108,0,0,1,67.989,26.359Zm6.376,2.188.07.977a2.951,2.951,0,0,1,2.43-1.133,2.453,2.453,0,0,1,2,.789,3.682,3.682,0,0,1,.672,2.359V37H77.279V31.594a1.465,1.465,0,0,0-.312-1.043,1.4,1.4,0,0,0-1.039-.324,1.553,1.553,0,0,0-1.43.813V37H72.24V28.547ZM86.186,37a2.507,2.507,0,0,1-.227-.758,2.732,2.732,0,0,1-2.133.914,3,3,0,0,1-2.059-.719,2.312,2.312,0,0,1-.816-1.812,2.389,2.389,0,0,1,1-2.062,4.915,4.915,0,0,1,2.879-.727h1.039v-.484a1.393,1.393,0,0,0-.3-.937,1.183,1.183,0,0,0-.949-.352,1.345,1.345,0,0,0-.895.273.929.929,0,0,0-.324.75H81.139a2.268,2.268,0,0,1,.453-1.359,3,3,0,0,1,1.281-.98,4.669,4.669,0,0,1,1.859-.355,3.689,3.689,0,0,1,2.48.785,2.747,2.747,0,0,1,.918,2.207v3.664a4.041,4.041,0,0,0,.336,1.82V37Zm-1.867-1.57a1.945,1.945,0,0,0,.922-.223,1.462,1.462,0,0,0,.625-.6V33.156h-.844q-1.7,0-1.8,1.172l-.008.133a.9.9,0,0,0,.3.7A1.153,1.153,0,0,0,84.319,35.43ZM92.288,37H90.023V25h2.266Z" transform="translate(361.26 10848)" fill="#12263f"/>
    </g>
    <g id="Group_1184862" data-name="Group 1184862" transform="translate(149 -129)">
      <rect id="Rectangle_459510-2" data-name="Rectangle 459510" width="180" height="55" rx="10" transform="translate(337.26 10840)" fill="#f9ce5d"/>
      <path id="Path_1033594" data-name="Path 1033594" d="M4.542,17H2.2V5.625H4.542Zm1.712-4.289a5.094,5.094,0,0,1,.887-3.148A2.877,2.877,0,0,1,9.567,8.391a2.589,2.589,0,0,1,2.039.922V5h2.266V17H11.832l-.109-.9a2.657,2.657,0,0,1-2.172,1.055A2.869,2.869,0,0,1,7.157,15.98,5.258,5.258,0,0,1,6.254,12.711Zm2.258.168A3.337,3.337,0,0,0,8.926,14.7a1.349,1.349,0,0,0,1.2.634,1.511,1.511,0,0,0,1.477-.884V11.111a1.489,1.489,0,0,0-1.461-.884Q8.512,10.227,8.512,12.879Zm11.04,4.277a4.15,4.15,0,0,1-3.027-1.141,4.054,4.054,0,0,1-1.168-3.039v-.219a5.106,5.106,0,0,1,.492-2.277,3.612,3.612,0,0,1,1.395-1.547A3.914,3.914,0,0,1,19.3,8.391a3.508,3.508,0,0,1,2.73,1.094,4.444,4.444,0,0,1,1,3.1v.922H17.646a2.1,2.1,0,0,0,.66,1.328,2,2,0,0,0,1.395.5,2.437,2.437,0,0,0,2.039-.945l1.109,1.242a3.389,3.389,0,0,1-1.375,1.121A4.511,4.511,0,0,1,19.552,17.156Zm-.258-6.945a1.411,1.411,0,0,0-1.09.455,2.357,2.357,0,0,0-.535,1.3H20.81v-.181a1.681,1.681,0,0,0-.406-1.165A1.456,1.456,0,0,0,19.294,10.211Zm7.134-1.664.07.977a2.951,2.951,0,0,1,2.43-1.133,2.453,2.453,0,0,1,2,.789,3.682,3.682,0,0,1,.672,2.359V17H29.342V11.594a1.465,1.465,0,0,0-.312-1.043,1.4,1.4,0,0,0-1.039-.324,1.553,1.553,0,0,0-1.43.813V17H24.3V8.547Zm9.626-2.078V8.547H37.5V10.2H36.054v4.219a1.007,1.007,0,0,0,.18.672.9.9,0,0,0,.688.2,3.6,3.6,0,0,0,.664-.055v1.711a4.648,4.648,0,0,1-1.367.2,2.156,2.156,0,0,1-2.422-2.4V10.2H32.562V8.547H33.8V6.469ZM41.18,17H38.914V8.547H41.18Zm-2.4-10.641a1.112,1.112,0,0,1,.34-.836,1.465,1.465,0,0,1,1.848,0,1.105,1.105,0,0,1,.344.836,1.108,1.108,0,0,1-.348.844,1.448,1.448,0,0,1-1.836,0A1.108,1.108,0,0,1,38.781,6.359ZM43.626,17V10.2H42.368V8.547h1.258V8.156a3.17,3.17,0,0,1,.98-2.457,3.945,3.945,0,0,1,2.723-.863,9.031,9.031,0,0,1,2.563.461l-.328,1.867a10,10,0,0,0-1.187-.293A5.835,5.835,0,0,0,47.47,6.8q-1.578,0-1.578,1.4v.344h1.664V10.2H45.892V17Zm7.32,0H48.681V8.547h2.266Zm5.423-1.664a1.481,1.481,0,0,0,1.016-.344,1.2,1.2,0,0,0,.406-.914h2.117a2.9,2.9,0,0,1-.469,1.574,3.093,3.093,0,0,1-1.262,1.109,3.949,3.949,0,0,1-1.77.395A3.67,3.67,0,0,1,53.549,16,4.56,4.56,0,0,1,52.5,12.82v-.148a4.508,4.508,0,0,1,1.039-3.117,3.627,3.627,0,0,1,2.852-1.164,3.555,3.555,0,0,1,2.543.9,3.2,3.2,0,0,1,.973,2.4H57.791a1.551,1.551,0,0,0-.406-1.072,1.51,1.51,0,0,0-2.223.163,3.333,3.333,0,0,0-.4,1.866v.235a3.375,3.375,0,0,0,.4,1.878A1.377,1.377,0,0,0,56.369,15.336ZM66.136,17a2.507,2.507,0,0,1-.227-.758,2.732,2.732,0,0,1-2.133.914,3,3,0,0,1-2.059-.719,2.312,2.312,0,0,1-.816-1.812,2.389,2.389,0,0,1,1-2.062,4.915,4.915,0,0,1,2.879-.727h1.039v-.484a1.393,1.393,0,0,0-.3-.937,1.183,1.183,0,0,0-.949-.352,1.345,1.345,0,0,0-.895.273.929.929,0,0,0-.324.75H61.089a2.268,2.268,0,0,1,.453-1.359,3,3,0,0,1,1.281-.98,4.669,4.669,0,0,1,1.859-.355,3.689,3.689,0,0,1,2.48.785,2.747,2.747,0,0,1,.918,2.207v3.664a4.041,4.041,0,0,0,.336,1.82V17Zm-1.867-1.57a1.945,1.945,0,0,0,.922-.223,1.462,1.462,0,0,0,.625-.6V13.156h-.844q-1.7,0-1.8,1.172l-.008.133a.9.9,0,0,0,.3.7A1.153,1.153,0,0,0,64.269,15.43Zm10.337-4.766a6.134,6.134,0,0,0-.812-.062,1.654,1.654,0,0,0-1.68.867V17H69.855V8.547h2.133l.063,1.008a2.092,2.092,0,0,1,1.883-1.164,2.366,2.366,0,0,1,.7.1Zm9.041,6.492a4.15,4.15,0,0,1-3.027-1.141,4.054,4.054,0,0,1-1.168-3.039v-.219a5.106,5.106,0,0,1,.492-2.277,3.612,3.612,0,0,1,1.395-1.547A3.914,3.914,0,0,1,83.4,8.391a3.508,3.508,0,0,1,2.73,1.094,4.444,4.444,0,0,1,1,3.1v.922H81.74a2.1,2.1,0,0,0,.66,1.328,2,2,0,0,0,1.395.5,2.437,2.437,0,0,0,2.039-.945l1.109,1.242a3.389,3.389,0,0,1-1.375,1.121A4.511,4.511,0,0,1,83.646,17.156Zm-.258-6.945a1.411,1.411,0,0,0-1.09.455,2.357,2.357,0,0,0-.535,1.3H84.9v-.181a1.681,1.681,0,0,0-.406-1.165A1.456,1.456,0,0,0,83.389,10.211ZM90.827,17H88.561V5h2.266Zm9.814.156a4.15,4.15,0,0,1-3.027-1.141,4.054,4.054,0,0,1-1.168-3.039v-.219a5.106,5.106,0,0,1,.492-2.277,3.612,3.612,0,0,1,1.395-1.547,3.914,3.914,0,0,1,2.059-.543,3.508,3.508,0,0,1,2.73,1.094,4.444,4.444,0,0,1,1,3.1v.922H98.735a2.1,2.1,0,0,0,.66,1.328,2,2,0,0,0,1.395.5,2.437,2.437,0,0,0,2.039-.945l1.109,1.242a3.389,3.389,0,0,1-1.375,1.121A4.511,4.511,0,0,1,100.641,17.156Zm-.258-6.945a1.411,1.411,0,0,0-1.09.455,2.357,2.357,0,0,0-.535,1.3H101.9v-.181a1.681,1.681,0,0,0-.406-1.165A1.456,1.456,0,0,0,100.384,10.211Zm9.806.453a6.134,6.134,0,0,0-.812-.062,1.654,1.654,0,0,0-1.68.867V17h-2.258V8.547h2.133l.063,1.008a2.092,2.092,0,0,1,1.883-1.164,2.366,2.366,0,0,1,.7.1Zm5.876,0a6.134,6.134,0,0,0-.812-.062,1.654,1.654,0,0,0-1.68.867V17h-2.258V8.547h2.133l.063,1.008a2.092,2.092,0,0,1,1.883-1.164,2.366,2.366,0,0,1,.7.1Zm.493,2.031a5.013,5.013,0,0,1,.484-2.242,3.546,3.546,0,0,1,1.395-1.523,4.069,4.069,0,0,1,2.113-.539,3.849,3.849,0,0,1,2.793,1.047,4.2,4.2,0,0,1,1.207,2.844l.016.578a4.418,4.418,0,0,1-1.086,3.121,4.209,4.209,0,0,1-5.832,0,4.5,4.5,0,0,1-1.09-3.187Zm2.258.16a3.16,3.16,0,0,0,.453,1.843,1.628,1.628,0,0,0,2.578.008,3.457,3.457,0,0,0,.461-2.015,3.128,3.128,0,0,0-.461-1.831,1.5,1.5,0,0,0-1.3-.649,1.474,1.474,0,0,0-1.281.646A3.516,3.516,0,0,0,118.816,12.856Zm11.931-2.192a6.134,6.134,0,0,0-.812-.062,1.654,1.654,0,0,0-1.68.867V17H126V8.547h2.133l.063,1.008a2.092,2.092,0,0,1,1.883-1.164,2.366,2.366,0,0,1,.7.1Z" transform="translate(361.26 10858)" fill="#12263f"/>
    </g>
    <g id="Group_1184863" data-name="Group 1184863" transform="translate(373 -172)">
      <rect id="Rectangle_459510-3" data-name="Rectangle 459510" width="180" height="55" rx="10" transform="translate(337.26 10840)" fill="#f9ce5d"/>
      <path id="Path_1033595" data-name="Path 1033595" d="M32.428,13.211A4.025,4.025,0,0,1,31.073,16.1a4.76,4.76,0,0,1-3.223,1.055,4.28,4.28,0,0,1-3.441-1.473,6.038,6.038,0,0,1-1.254-4.043v-.7a6.819,6.819,0,0,1,.578-2.891,4.332,4.332,0,0,1,1.652-1.918,4.629,4.629,0,0,1,2.5-.668,4.637,4.637,0,0,1,3.172,1.055,4.326,4.326,0,0,1,1.391,2.961H30.1a2.376,2.376,0,0,0-.613-1.6,2.271,2.271,0,0,0-1.605-.5,1.991,1.991,0,0,0-1.754.84,4.707,4.707,0,0,0-.6,2.605V11.7a5.038,5.038,0,0,0,.559,2.7,1.954,1.954,0,0,0,1.762.852,2.314,2.314,0,0,0,1.621-.5,2.241,2.241,0,0,0,.613-1.535Zm1.079-.516a5.013,5.013,0,0,1,.484-2.242A3.546,3.546,0,0,1,35.386,8.93,4.069,4.069,0,0,1,37.5,8.391a3.849,3.849,0,0,1,2.793,1.047A4.2,4.2,0,0,1,41.5,12.281l.016.578a4.418,4.418,0,0,1-1.086,3.121,4.209,4.209,0,0,1-5.832,0,4.5,4.5,0,0,1-1.09-3.187Zm2.258.16a3.16,3.16,0,0,0,.453,1.843,1.628,1.628,0,0,0,2.578.008,3.457,3.457,0,0,0,.461-2.015A3.128,3.128,0,0,0,38.8,10.86a1.5,1.5,0,0,0-1.3-.649,1.474,1.474,0,0,0-1.281.646A3.516,3.516,0,0,0,35.765,12.856Zm9.259-4.309.07.977a2.951,2.951,0,0,1,2.43-1.133,2.453,2.453,0,0,1,2,.789,3.682,3.682,0,0,1,.672,2.359V17H47.938V11.594a1.465,1.465,0,0,0-.312-1.043,1.4,1.4,0,0,0-1.039-.324,1.553,1.553,0,0,0-1.43.813V17H42.9V8.547Zm11.5,6.117a.727.727,0,0,0-.41-.652,4.659,4.659,0,0,0-1.316-.426q-3.016-.633-3.016-2.562a2.323,2.323,0,0,1,.934-1.879,3.766,3.766,0,0,1,2.441-.754,4.053,4.053,0,0,1,2.574.758,2.388,2.388,0,0,1,.965,1.969H56.439a1.092,1.092,0,0,0-.312-.8A1.322,1.322,0,0,0,55.15,10a1.351,1.351,0,0,0-.883.258.814.814,0,0,0-.312.656.7.7,0,0,0,.355.605,3.657,3.657,0,0,0,1.2.4,9.8,9.8,0,0,1,1.422.379A2.336,2.336,0,0,1,58.72,14.57a2.2,2.2,0,0,1-.992,1.871,4.28,4.28,0,0,1-2.562.715,4.47,4.47,0,0,1-1.887-.379,3.166,3.166,0,0,1-1.293-1.039,2.414,2.414,0,0,1-.469-1.426h2.141a1.179,1.179,0,0,0,.445.922,1.766,1.766,0,0,0,1.109.32,1.635,1.635,0,0,0,.98-.246A.766.766,0,0,0,56.525,14.664Zm8.751,1.477a2.831,2.831,0,0,1-2.313,1.016,2.67,2.67,0,0,1-2.074-.781,3.335,3.335,0,0,1-.73-2.289V8.547h2.258v5.467q0,1.322,1.2,1.322a1.63,1.63,0,0,0,1.578-.8V8.547h2.266V17H65.338ZM71.589,17H69.324V5h2.266Zm4.6-10.531V8.547h1.445V10.2H76.192v4.219a1.007,1.007,0,0,0,.18.672.9.9,0,0,0,.688.2,3.6,3.6,0,0,0,.664-.055v1.711a4.648,4.648,0,0,1-1.367.2,2.156,2.156,0,0,1-2.422-2.4V10.2H72.7V8.547h1.234V6.469ZM83.833,17a2.507,2.507,0,0,1-.227-.758,2.732,2.732,0,0,1-2.133.914,3,3,0,0,1-2.059-.719,2.312,2.312,0,0,1-.816-1.812,2.389,2.389,0,0,1,1-2.062,4.915,4.915,0,0,1,2.879-.727h1.039v-.484a1.393,1.393,0,0,0-.3-.937,1.183,1.183,0,0,0-.949-.352,1.345,1.345,0,0,0-.895.273.929.929,0,0,0-.324.75H78.787a2.268,2.268,0,0,1,.453-1.359,3,3,0,0,1,1.281-.98,4.669,4.669,0,0,1,1.859-.355,3.689,3.689,0,0,1,2.48.785,2.747,2.747,0,0,1,.918,2.207v3.664a4.041,4.041,0,0,0,.336,1.82V17Zm-1.867-1.57a1.945,1.945,0,0,0,.922-.223,1.462,1.462,0,0,0,.625-.6V13.156h-.844q-1.7,0-1.8,1.172l-.008.133a.9.9,0,0,0,.3.7A1.153,1.153,0,0,0,81.966,15.43ZM92.3,10.664a6.134,6.134,0,0,0-.812-.062,1.654,1.654,0,0,0-1.68.867V17H87.553V8.547h2.133l.063,1.008a2.092,2.092,0,0,1,1.883-1.164,2.366,2.366,0,0,1,.7.1Zm9.041,6.492a4.15,4.15,0,0,1-3.027-1.141,4.054,4.054,0,0,1-1.168-3.039v-.219a5.106,5.106,0,0,1,.492-2.277,3.612,3.612,0,0,1,1.395-1.547,3.914,3.914,0,0,1,2.059-.543,3.508,3.508,0,0,1,2.73,1.094,4.444,4.444,0,0,1,1,3.1v.922H99.438a2.1,2.1,0,0,0,.66,1.328,2,2,0,0,0,1.395.5,2.437,2.437,0,0,0,2.039-.945l1.109,1.242a3.389,3.389,0,0,1-1.375,1.121A4.511,4.511,0,0,1,101.344,17.156Zm-.258-6.945a1.411,1.411,0,0,0-1.09.455,2.357,2.357,0,0,0-.535,1.3H102.6v-.181a1.681,1.681,0,0,0-.406-1.165A1.456,1.456,0,0,0,101.086,10.211ZM108.525,17h-2.266V5h2.266ZM22.346,32.852a5.07,5.07,0,0,1-.887,3.129,2.843,2.843,0,0,1-2.395,1.176,2.633,2.633,0,0,1-2.07-.891V40.25H14.737v-11.7H16.83l.078.828a2.654,2.654,0,0,1,2.141-.984,2.862,2.862,0,0,1,2.43,1.156,5.207,5.207,0,0,1,.867,3.188Zm-2.258-.164a3.327,3.327,0,0,0-.418-1.82,1.361,1.361,0,0,0-1.215-.641,1.478,1.478,0,0,0-1.461.813V34.5a1.5,1.5,0,0,0,1.477.836Q20.088,35.336,20.088,32.688Zm8.446-2.023a6.134,6.134,0,0,0-.812-.062,1.654,1.654,0,0,0-1.68.867V37H23.784V28.547h2.133l.063,1.008a2.092,2.092,0,0,1,1.883-1.164,2.366,2.366,0,0,1,.7.1Zm.493,2.031a5.013,5.013,0,0,1,.484-2.242,3.546,3.546,0,0,1,1.395-1.523,4.069,4.069,0,0,1,2.113-.539,3.849,3.849,0,0,1,2.793,1.047,4.2,4.2,0,0,1,1.207,2.844l.016.578a4.418,4.418,0,0,1-1.086,3.121,3.775,3.775,0,0,1-2.914,1.176,3.793,3.793,0,0,1-2.918-1.172,4.5,4.5,0,0,1-1.09-3.187Zm2.258.16a3.16,3.16,0,0,0,.453,1.843,1.628,1.628,0,0,0,2.578.008,3.457,3.457,0,0,0,.461-2.015,3.128,3.128,0,0,0-.461-1.831,1.5,1.5,0,0,0-1.3-.649,1.474,1.474,0,0,0-1.281.646A3.516,3.516,0,0,0,31.285,32.856Zm10.7,2.48A1.481,1.481,0,0,0,43,34.992a1.2,1.2,0,0,0,.406-.914h2.117a2.9,2.9,0,0,1-.469,1.574,3.093,3.093,0,0,1-1.262,1.109,3.949,3.949,0,0,1-1.77.395A3.67,3.67,0,0,1,39.161,36a4.56,4.56,0,0,1-1.047-3.184v-.148a4.508,4.508,0,0,1,1.039-3.117A3.627,3.627,0,0,1,42,28.391a3.555,3.555,0,0,1,2.543.9,3.2,3.2,0,0,1,.973,2.4H43.4A1.551,1.551,0,0,0,43,30.623a1.51,1.51,0,0,0-2.223.163,3.333,3.333,0,0,0-.4,1.866v.235a3.375,3.375,0,0,0,.4,1.878A1.377,1.377,0,0,0,41.982,35.336Zm8.759,1.82a4.15,4.15,0,0,1-3.027-1.141,4.054,4.054,0,0,1-1.168-3.039v-.219a5.106,5.106,0,0,1,.492-2.277,3.612,3.612,0,0,1,1.395-1.547,3.914,3.914,0,0,1,2.059-.543,3.508,3.508,0,0,1,2.73,1.094,4.444,4.444,0,0,1,1,3.1v.922H48.834a2.1,2.1,0,0,0,.66,1.328,2,2,0,0,0,1.395.5,2.437,2.437,0,0,0,2.039-.945l1.109,1.242a3.389,3.389,0,0,1-1.375,1.121A4.511,4.511,0,0,1,50.74,37.156Zm-.258-6.945a1.411,1.411,0,0,0-1.09.455,2.357,2.357,0,0,0-.535,1.3H52v-.181a1.681,1.681,0,0,0-.406-1.165A1.456,1.456,0,0,0,50.482,30.211Zm4.7,2.5a5.094,5.094,0,0,1,.887-3.148A2.877,2.877,0,0,1,58.5,28.391a2.589,2.589,0,0,1,2.039.922V25H62.8V37H60.765l-.109-.9a2.657,2.657,0,0,1-2.172,1.055,2.869,2.869,0,0,1-2.395-1.176A5.258,5.258,0,0,1,55.187,32.711Zm2.258.168a3.337,3.337,0,0,0,.414,1.823,1.349,1.349,0,0,0,1.2.634,1.511,1.511,0,0,0,1.477-.884V31.111a1.489,1.489,0,0,0-1.461-.884Q57.444,30.227,57.444,32.879ZM66.977,37H64.711V28.547h2.266Zm-2.4-10.641a1.112,1.112,0,0,1,.34-.836,1.465,1.465,0,0,1,1.848,0,1.193,1.193,0,0,1,0,1.68,1.448,1.448,0,0,1-1.836,0A1.108,1.108,0,0,1,64.578,26.359Zm6.415,2.188.07.945a2.971,2.971,0,0,1,2.43-1.1,2.255,2.255,0,0,1,2.242,1.289,2.9,2.9,0,0,1,2.539-1.289,2.521,2.521,0,0,1,2.047.8,3.681,3.681,0,0,1,.672,2.41V37H78.728V31.609a1.61,1.61,0,0,0-.281-1.051,1.246,1.246,0,0,0-.992-.332,1.409,1.409,0,0,0-1.406.969l.008,5.8H73.8V31.617a1.59,1.59,0,0,0-.289-1.062,1.259,1.259,0,0,0-.984-.328,1.463,1.463,0,0,0-1.391.8V37H68.876V28.547ZM85.15,37H82.885V28.547H85.15Zm-2.4-10.641a1.112,1.112,0,0,1,.34-.836,1.465,1.465,0,0,1,1.848,0,1.193,1.193,0,0,1,0,1.68,1.448,1.448,0,0,1-1.836,0A1.108,1.108,0,0,1,82.752,26.359Zm8.188,10.8a4.15,4.15,0,0,1-3.027-1.141,4.054,4.054,0,0,1-1.168-3.039v-.219a5.106,5.106,0,0,1,.492-2.277,3.612,3.612,0,0,1,1.395-1.547,3.914,3.914,0,0,1,2.059-.543,3.508,3.508,0,0,1,2.73,1.094,4.444,4.444,0,0,1,1,3.1v.922H89.034a2.1,2.1,0,0,0,.66,1.328,2,2,0,0,0,1.395.5,2.437,2.437,0,0,0,2.039-.945l1.109,1.242a3.389,3.389,0,0,1-1.375,1.121A4.511,4.511,0,0,1,90.94,37.156Zm-.258-6.945a1.411,1.411,0,0,0-1.09.455,2.357,2.357,0,0,0-.535,1.3H92.2v-.181a1.681,1.681,0,0,0-.406-1.165A1.456,1.456,0,0,0,90.682,30.211Zm7.134-1.664.07.977a2.951,2.951,0,0,1,2.43-1.133,2.453,2.453,0,0,1,2,.789,3.682,3.682,0,0,1,.672,2.359V37H100.73V31.594a1.465,1.465,0,0,0-.312-1.043,1.4,1.4,0,0,0-1.039-.324,1.553,1.553,0,0,0-1.43.813V37H95.691V28.547Zm9.626-2.078v2.078h1.445V30.2h-1.445v4.219a1.007,1.007,0,0,0,.18.672.9.9,0,0,0,.688.2,3.6,3.6,0,0,0,.664-.055v1.711a4.648,4.648,0,0,1-1.367.2,2.156,2.156,0,0,1-2.422-2.4V30.2H103.95V28.547h1.234V26.469ZM109.6,32.7a5.013,5.013,0,0,1,.484-2.242,3.546,3.546,0,0,1,1.395-1.523,4.069,4.069,0,0,1,2.113-.539,3.849,3.849,0,0,1,2.793,1.047,4.2,4.2,0,0,1,1.207,2.844l.016.578a4.418,4.418,0,0,1-1.086,3.121,4.209,4.209,0,0,1-5.832,0A4.5,4.5,0,0,1,109.6,32.8Zm2.258.16a3.16,3.16,0,0,0,.453,1.843,1.628,1.628,0,0,0,2.578.008,3.457,3.457,0,0,0,.461-2.015,3.128,3.128,0,0,0-.461-1.831,1.5,1.5,0,0,0-1.3-.649,1.474,1.474,0,0,0-1.281.646A3.516,3.516,0,0,0,111.857,32.856Z" transform="translate(361.26 10848)" fill="#12263f"/>
    </g>
    <g id="Group_1184864" data-name="Group 1184864" transform="translate(585 -129)">
      <rect id="Rectangle_459510-4" data-name="Rectangle 459510" width="180" height="55" rx="10" transform="translate(337.26 10840)" fill="#f9ce5d"/>
      <path id="Path_1033596" data-name="Path 1033596" d="M33.589,13.211A4.025,4.025,0,0,1,32.233,16.1a4.76,4.76,0,0,1-3.223,1.055,4.28,4.28,0,0,1-3.441-1.473,6.038,6.038,0,0,1-1.254-4.043v-.7a6.819,6.819,0,0,1,.578-2.891,4.332,4.332,0,0,1,1.652-1.918,4.629,4.629,0,0,1,2.5-.668,4.637,4.637,0,0,1,3.172,1.055A4.326,4.326,0,0,1,33.6,9.484H31.26a2.376,2.376,0,0,0-.613-1.6,2.271,2.271,0,0,0-1.605-.5,1.991,1.991,0,0,0-1.754.84,4.707,4.707,0,0,0-.6,2.605V11.7a5.038,5.038,0,0,0,.559,2.7,1.954,1.954,0,0,0,1.762.852,2.314,2.314,0,0,0,1.621-.5,2.241,2.241,0,0,0,.613-1.535ZM39.918,17a2.507,2.507,0,0,1-.227-.758,2.732,2.732,0,0,1-2.133.914,3,3,0,0,1-2.059-.719,2.312,2.312,0,0,1-.816-1.812,2.389,2.389,0,0,1,1-2.062,4.915,4.915,0,0,1,2.879-.727H39.6v-.484a1.393,1.393,0,0,0-.3-.937,1.183,1.183,0,0,0-.949-.352,1.345,1.345,0,0,0-.895.273.929.929,0,0,0-.324.75H34.871a2.268,2.268,0,0,1,.453-1.359,3,3,0,0,1,1.281-.98,4.669,4.669,0,0,1,1.859-.355,3.689,3.689,0,0,1,2.48.785,2.747,2.747,0,0,1,.918,2.207v3.664a4.041,4.041,0,0,0,.336,1.82V17ZM38.05,15.43a1.945,1.945,0,0,0,.922-.223,1.462,1.462,0,0,0,.625-.6V13.156h-.844q-1.7,0-1.8,1.172l-.008.133a.9.9,0,0,0,.3.7A1.153,1.153,0,0,0,38.05,15.43ZM46.02,17H43.755V5H46.02Zm5.415-1.664a1.481,1.481,0,0,0,1.016-.344,1.2,1.2,0,0,0,.406-.914h2.117a2.9,2.9,0,0,1-.469,1.574,3.093,3.093,0,0,1-1.262,1.109,3.949,3.949,0,0,1-1.77.395A3.67,3.67,0,0,1,48.615,16a4.56,4.56,0,0,1-1.047-3.184v-.148a4.508,4.508,0,0,1,1.039-3.117,3.627,3.627,0,0,1,2.852-1.164,3.555,3.555,0,0,1,2.543.9,3.2,3.2,0,0,1,.973,2.4H52.857a1.551,1.551,0,0,0-.406-1.072,1.51,1.51,0,0,0-2.223.163,3.333,3.333,0,0,0-.4,1.866v.235a3.375,3.375,0,0,0,.4,1.878A1.377,1.377,0,0,0,51.435,15.336Zm9.931.8a2.831,2.831,0,0,1-2.312,1.016,2.67,2.67,0,0,1-2.074-.781,3.335,3.335,0,0,1-.73-2.289V8.547h2.258v5.467q0,1.322,1.2,1.322a1.63,1.63,0,0,0,1.578-.8V8.547h2.266V17H61.428ZM67.679,17H65.414V5h2.266Zm6.8,0a2.507,2.507,0,0,1-.227-.758,2.732,2.732,0,0,1-2.133.914,3,3,0,0,1-2.059-.719,2.312,2.312,0,0,1-.816-1.812,2.389,2.389,0,0,1,1-2.062,4.915,4.915,0,0,1,2.879-.727h1.039v-.484a1.393,1.393,0,0,0-.3-.937,1.183,1.183,0,0,0-.949-.352,1.345,1.345,0,0,0-.895.273.929.929,0,0,0-.324.75H69.43a2.268,2.268,0,0,1,.453-1.359,3,3,0,0,1,1.281-.98,4.669,4.669,0,0,1,1.859-.355,3.689,3.689,0,0,1,2.48.785,2.747,2.747,0,0,1,.918,2.207v3.664a4.041,4.041,0,0,0,.336,1.82V17ZM72.61,15.43a1.945,1.945,0,0,0,.922-.223,1.462,1.462,0,0,0,.625-.6V13.156h-.844q-1.7,0-1.8,1.172l-.008.133a.9.9,0,0,0,.3.7A1.153,1.153,0,0,0,72.61,15.43Zm10.337-4.766a6.134,6.134,0,0,0-.812-.062,1.654,1.654,0,0,0-1.68.867V17H78.2V8.547H80.33l.063,1.008a2.092,2.092,0,0,1,1.883-1.164,2.366,2.366,0,0,1,.7.1ZM90.48,17H88.214V5H90.48Zm6.8,0a2.507,2.507,0,0,1-.227-.758,2.732,2.732,0,0,1-2.133.914,3,3,0,0,1-2.059-.719,2.312,2.312,0,0,1-.816-1.812,2.389,2.389,0,0,1,1-2.062,4.915,4.915,0,0,1,2.879-.727h1.039v-.484a1.393,1.393,0,0,0-.3-.937,1.183,1.183,0,0,0-.949-.352,1.345,1.345,0,0,0-.895.273.929.929,0,0,0-.324.75H92.231a2.268,2.268,0,0,1,.453-1.359,3,3,0,0,1,1.281-.98,4.669,4.669,0,0,1,1.859-.355,3.689,3.689,0,0,1,2.48.785,2.747,2.747,0,0,1,.918,2.207v3.664a4.041,4.041,0,0,0,.336,1.82V17ZM95.41,15.43a1.945,1.945,0,0,0,.922-.223,1.462,1.462,0,0,0,.625-.6V13.156h-.844q-1.7,0-1.8,1.172l-.008.133a.9.9,0,0,0,.3.7A1.153,1.153,0,0,0,95.41,15.43Zm10.165-.766a.727.727,0,0,0-.41-.652,4.659,4.659,0,0,0-1.316-.426q-3.016-.633-3.016-2.562a2.323,2.323,0,0,1,.934-1.879,3.766,3.766,0,0,1,2.441-.754,4.053,4.053,0,0,1,2.574.758,2.388,2.388,0,0,1,.965,1.969H105.49a1.092,1.092,0,0,0-.312-.8A1.322,1.322,0,0,0,104.2,10a1.351,1.351,0,0,0-.883.258.814.814,0,0,0-.312.656.7.7,0,0,0,.355.605,3.657,3.657,0,0,0,1.2.4,9.8,9.8,0,0,1,1.422.379,2.336,2.336,0,0,1,1.789,2.273,2.2,2.2,0,0,1-.992,1.871,4.28,4.28,0,0,1-2.562.715,4.47,4.47,0,0,1-1.887-.379,3.166,3.166,0,0,1-1.293-1.039,2.414,2.414,0,0,1-.469-1.426h2.141a1.179,1.179,0,0,0,.445.922,1.766,1.766,0,0,0,1.109.32,1.635,1.635,0,0,0,.98-.246A.766.766,0,0,0,105.575,14.664Zm-79.5,18.047a5.094,5.094,0,0,1,.887-3.148,2.877,2.877,0,0,1,2.426-1.172,2.589,2.589,0,0,1,2.039.922V25h2.266V37H31.655l-.109-.9a2.657,2.657,0,0,1-2.172,1.055A2.869,2.869,0,0,1,26.98,35.98,5.258,5.258,0,0,1,26.077,32.711Zm2.258.168a3.337,3.337,0,0,0,.414,1.823,1.349,1.349,0,0,0,1.2.634,1.511,1.511,0,0,0,1.477-.884V31.111a1.489,1.489,0,0,0-1.461-.884Q28.335,30.227,28.335,32.879ZM37.867,37H35.6V28.547h2.266Zm-2.4-10.641a1.112,1.112,0,0,1,.34-.836,1.465,1.465,0,0,1,1.848,0,1.193,1.193,0,0,1,0,1.68,1.448,1.448,0,0,1-1.836,0A1.108,1.108,0,0,1,35.469,26.359ZM40.384,37V30.2H39.126V28.547h1.258v-.719a2.918,2.918,0,0,1,.816-2.207,3.162,3.162,0,0,1,2.285-.785,5.278,5.278,0,0,1,1.148.156l-.023,1.75a2.878,2.878,0,0,0-.687-.07q-1.273,0-1.273,1.2v.68h1.68V30.2H42.65V37Zm9.048.156A4.15,4.15,0,0,1,46.4,36.016a4.054,4.054,0,0,1-1.168-3.039v-.219a5.106,5.106,0,0,1,.492-2.277,3.612,3.612,0,0,1,1.395-1.547,3.914,3.914,0,0,1,2.059-.543,3.508,3.508,0,0,1,2.73,1.094,4.444,4.444,0,0,1,1,3.1v.922H47.525a2.1,2.1,0,0,0,.66,1.328,2,2,0,0,0,1.395.5,2.437,2.437,0,0,0,2.039-.945l1.109,1.242a3.389,3.389,0,0,1-1.375,1.121A4.511,4.511,0,0,1,49.432,37.156Zm-.258-6.945a1.411,1.411,0,0,0-1.09.455,2.357,2.357,0,0,0-.535,1.3H50.69v-.181a1.681,1.681,0,0,0-.406-1.165A1.456,1.456,0,0,0,49.174,30.211Zm9.806.453a6.134,6.134,0,0,0-.812-.062,1.654,1.654,0,0,0-1.68.867V37H54.23V28.547h2.133l.063,1.008a2.092,2.092,0,0,1,1.883-1.164,2.366,2.366,0,0,1,.7.1ZM64,37.156a4.15,4.15,0,0,1-3.027-1.141A4.054,4.054,0,0,1,59.8,32.977v-.219a5.106,5.106,0,0,1,.492-2.277,3.612,3.612,0,0,1,1.395-1.547,3.914,3.914,0,0,1,2.059-.543,3.508,3.508,0,0,1,2.73,1.094,4.444,4.444,0,0,1,1,3.1v.922H62.09a2.1,2.1,0,0,0,.66,1.328,2,2,0,0,0,1.395.5,2.437,2.437,0,0,0,2.039-.945l1.109,1.242a3.389,3.389,0,0,1-1.375,1.121A4.511,4.511,0,0,1,64,37.156Zm-.258-6.945a1.411,1.411,0,0,0-1.09.455,2.357,2.357,0,0,0-.535,1.3h3.141v-.181a1.681,1.681,0,0,0-.406-1.165A1.456,1.456,0,0,0,63.738,30.211Zm7.134-1.664.07.977a2.951,2.951,0,0,1,2.43-1.133,2.453,2.453,0,0,1,2,.789,3.682,3.682,0,0,1,.672,2.359V37H73.786V31.594a1.465,1.465,0,0,0-.312-1.043,1.4,1.4,0,0,0-1.039-.324,1.553,1.553,0,0,0-1.43.813V37H68.747V28.547ZM81.31,35.336a1.481,1.481,0,0,0,1.016-.344,1.2,1.2,0,0,0,.406-.914H84.85a2.9,2.9,0,0,1-.469,1.574,3.093,3.093,0,0,1-1.262,1.109,3.949,3.949,0,0,1-1.77.395A3.67,3.67,0,0,1,78.49,36a4.56,4.56,0,0,1-1.047-3.184v-.148a4.508,4.508,0,0,1,1.039-3.117,3.627,3.627,0,0,1,2.852-1.164,3.555,3.555,0,0,1,2.543.9,3.2,3.2,0,0,1,.973,2.4H82.732a1.551,1.551,0,0,0-.406-1.072,1.51,1.51,0,0,0-2.223.163,3.333,3.333,0,0,0-.4,1.866v.235a3.375,3.375,0,0,0,.4,1.878A1.377,1.377,0,0,0,81.31,35.336ZM88.561,37H86.3V28.547h2.266Zm-2.4-10.641a1.112,1.112,0,0,1,.34-.836,1.465,1.465,0,0,1,1.848,0,1.193,1.193,0,0,1,0,1.68,1.448,1.448,0,0,1-1.836,0A1.108,1.108,0,0,1,86.163,26.359ZM95.359,37a2.507,2.507,0,0,1-.227-.758A2.732,2.732,0,0,1,93,37.156a3,3,0,0,1-2.059-.719,2.312,2.312,0,0,1-.816-1.812,2.389,2.389,0,0,1,1-2.062A4.915,4.915,0,0,1,94,31.836h1.039v-.484a1.393,1.393,0,0,0-.3-.937,1.183,1.183,0,0,0-.949-.352,1.345,1.345,0,0,0-.895.273.929.929,0,0,0-.324.75H90.312a2.268,2.268,0,0,1,.453-1.359,3,3,0,0,1,1.281-.98,4.669,4.669,0,0,1,1.859-.355,3.689,3.689,0,0,1,2.48.785,2.747,2.747,0,0,1,.918,2.207v3.664a4.041,4.041,0,0,0,.336,1.82V37Zm-1.867-1.57a1.945,1.945,0,0,0,.922-.223,1.462,1.462,0,0,0,.625-.6V33.156H94.2q-1.7,0-1.8,1.172l-.008.133a.9.9,0,0,0,.3.7A1.153,1.153,0,0,0,93.492,35.43Zm10.165-.766a.727.727,0,0,0-.41-.652,4.659,4.659,0,0,0-1.316-.426q-3.016-.633-3.016-2.562a2.323,2.323,0,0,1,.934-1.879,3.766,3.766,0,0,1,2.441-.754,4.053,4.053,0,0,1,2.574.758,2.388,2.388,0,0,1,.965,1.969h-2.258a1.092,1.092,0,0,0-.312-.8,1.322,1.322,0,0,0-.977-.316,1.351,1.351,0,0,0-.883.258.814.814,0,0,0-.312.656.7.7,0,0,0,.355.605,3.657,3.657,0,0,0,1.2.4,9.8,9.8,0,0,1,1.422.379,2.336,2.336,0,0,1,1.789,2.273,2.2,2.2,0,0,1-.992,1.871,4.28,4.28,0,0,1-2.562.715,4.47,4.47,0,0,1-1.887-.379,3.166,3.166,0,0,1-1.293-1.039,2.414,2.414,0,0,1-.469-1.426h2.141a1.179,1.179,0,0,0,.445.922,1.766,1.766,0,0,0,1.109.32,1.635,1.635,0,0,0,.98-.246A.766.766,0,0,0,103.657,34.664Z" transform="translate(361.26 10848)" fill="#12263f"/>
    </g>
    <g id="Group_1184865" data-name="Group 1184865" transform="translate(749)">
      <rect id="Rectangle_459510-5" data-name="Rectangle 459510" width="180" height="55" rx="10" transform="translate(337.26 10840)" fill="#f9ce5d"/>
      <path id="Path_1033597" data-name="Path 1033597" d="M38.93,13.211A4.025,4.025,0,0,1,37.574,16.1a4.76,4.76,0,0,1-3.223,1.055,4.28,4.28,0,0,1-3.441-1.473,6.038,6.038,0,0,1-1.254-4.043v-.7a6.819,6.819,0,0,1,.578-2.891,4.332,4.332,0,0,1,1.652-1.918,5.164,5.164,0,0,1,5.668.387,4.326,4.326,0,0,1,1.391,2.961H36.6a2.376,2.376,0,0,0-.613-1.6,2.271,2.271,0,0,0-1.605-.5,1.991,1.991,0,0,0-1.754.84,4.707,4.707,0,0,0-.6,2.605V11.7a5.038,5.038,0,0,0,.559,2.7,1.954,1.954,0,0,0,1.762.852,2.314,2.314,0,0,0,1.621-.5,2.241,2.241,0,0,0,.613-1.535Zm1.079-.516a5.013,5.013,0,0,1,.484-2.242A3.546,3.546,0,0,1,41.888,8.93,4.069,4.069,0,0,1,44,8.391a3.849,3.849,0,0,1,2.793,1.047A4.2,4.2,0,0,1,48,12.281l.016.578a4.418,4.418,0,0,1-1.086,3.121,4.209,4.209,0,0,1-5.832,0,4.5,4.5,0,0,1-1.09-3.187Zm2.258.16A3.16,3.16,0,0,0,42.72,14.7a1.628,1.628,0,0,0,2.578.008,3.457,3.457,0,0,0,.461-2.015A3.128,3.128,0,0,0,45.3,10.86a1.5,1.5,0,0,0-1.3-.649,1.474,1.474,0,0,0-1.281.646A3.516,3.516,0,0,0,42.267,12.856Zm9.259-4.309.07.977a2.951,2.951,0,0,1,2.43-1.133,2.453,2.453,0,0,1,2,.789,3.682,3.682,0,0,1,.672,2.359V17H54.44V11.594a1.465,1.465,0,0,0-.312-1.043,1.4,1.4,0,0,0-1.039-.324,1.553,1.553,0,0,0-1.43.813V17H49.4V8.547Zm11.5,6.117a.727.727,0,0,0-.41-.652,4.659,4.659,0,0,0-1.316-.426q-3.016-.633-3.016-2.562a2.323,2.323,0,0,1,.934-1.879,3.766,3.766,0,0,1,2.441-.754,4.053,4.053,0,0,1,2.574.758,2.388,2.388,0,0,1,.965,1.969H62.94a1.092,1.092,0,0,0-.312-.8A1.322,1.322,0,0,0,61.651,10a1.351,1.351,0,0,0-.883.258.814.814,0,0,0-.312.656.7.7,0,0,0,.355.605,3.657,3.657,0,0,0,1.2.4,9.8,9.8,0,0,1,1.422.379,2.336,2.336,0,0,1,1.789,2.273,2.2,2.2,0,0,1-.992,1.871,4.28,4.28,0,0,1-2.562.715,4.47,4.47,0,0,1-1.887-.379,3.166,3.166,0,0,1-1.293-1.039,2.414,2.414,0,0,1-.469-1.426h2.141a1.179,1.179,0,0,0,.445.922,1.766,1.766,0,0,0,1.109.32,1.635,1.635,0,0,0,.98-.246A.766.766,0,0,0,63.026,14.664Zm7.579,2.492a4.15,4.15,0,0,1-3.027-1.141,4.054,4.054,0,0,1-1.168-3.039v-.219A5.106,5.106,0,0,1,66.9,10.48,3.612,3.612,0,0,1,68.3,8.934a3.914,3.914,0,0,1,2.059-.543,3.508,3.508,0,0,1,2.73,1.094,4.444,4.444,0,0,1,1,3.1v.922H68.7a2.1,2.1,0,0,0,.66,1.328,2,2,0,0,0,1.395.5,2.437,2.437,0,0,0,2.039-.945L73.9,15.633a3.389,3.389,0,0,1-1.375,1.121A4.511,4.511,0,0,1,70.605,17.156Zm-.258-6.945a1.411,1.411,0,0,0-1.09.455,2.357,2.357,0,0,0-.535,1.3h3.141v-.181a1.681,1.681,0,0,0-.406-1.165A1.456,1.456,0,0,0,70.348,10.211Zm9.806.453a6.134,6.134,0,0,0-.812-.062,1.654,1.654,0,0,0-1.68.867V17H75.4V8.547h2.133L77.6,9.555a2.092,2.092,0,0,1,1.883-1.164,2.366,2.366,0,0,1,.7.1Zm4.431,3.578,1.57-5.7h2.359L85.662,17H83.506L80.654,8.547h2.359ZM94.327,17a2.507,2.507,0,0,1-.227-.758,2.732,2.732,0,0,1-2.133.914,3,3,0,0,1-2.059-.719,2.312,2.312,0,0,1-.816-1.812,2.389,2.389,0,0,1,1-2.062,4.915,4.915,0,0,1,2.879-.727h1.039v-.484a1.393,1.393,0,0,0-.3-.937,1.183,1.183,0,0,0-.949-.352,1.345,1.345,0,0,0-.895.273.929.929,0,0,0-.324.75H89.28a2.268,2.268,0,0,1,.453-1.359,3,3,0,0,1,1.281-.98,4.669,4.669,0,0,1,1.859-.355,3.689,3.689,0,0,1,2.48.785,2.747,2.747,0,0,1,.918,2.207v3.664a4.041,4.041,0,0,0,.336,1.82V17ZM92.46,15.43a1.945,1.945,0,0,0,.922-.223,1.462,1.462,0,0,0,.625-.6V13.156h-.844q-1.7,0-1.8,1.172l-.008.133a.9.9,0,0,0,.3.7A1.153,1.153,0,0,0,92.46,15.43ZM102.8,10.664a6.134,6.134,0,0,0-.812-.062,1.654,1.654,0,0,0-1.68.867V17H98.047V8.547h2.133l.063,1.008a2.092,2.092,0,0,1,1.883-1.164,2.366,2.366,0,0,1,.7.1Zm-63.409,24a.727.727,0,0,0-.41-.652,4.659,4.659,0,0,0-1.316-.426q-3.016-.633-3.016-2.562a2.323,2.323,0,0,1,.934-1.879,3.766,3.766,0,0,1,2.441-.754,4.053,4.053,0,0,1,2.574.758,2.388,2.388,0,0,1,.965,1.969H39.3a1.092,1.092,0,0,0-.312-.8A1.322,1.322,0,0,0,38.012,30a1.351,1.351,0,0,0-.883.258.814.814,0,0,0-.312.656.7.7,0,0,0,.355.605,3.657,3.657,0,0,0,1.2.4,9.8,9.8,0,0,1,1.422.379,2.336,2.336,0,0,1,1.789,2.273,2.205,2.205,0,0,1-.992,1.871,4.28,4.28,0,0,1-2.562.715,4.47,4.47,0,0,1-1.887-.379,3.166,3.166,0,0,1-1.293-1.039,2.414,2.414,0,0,1-.469-1.426H36.52a1.179,1.179,0,0,0,.445.922,1.766,1.766,0,0,0,1.109.32,1.635,1.635,0,0,0,.98-.246A.766.766,0,0,0,39.387,34.664ZM42.724,32.7a5.013,5.013,0,0,1,.484-2.242A3.546,3.546,0,0,1,44.6,28.93a4.069,4.069,0,0,1,2.113-.539,3.849,3.849,0,0,1,2.793,1.047,4.2,4.2,0,0,1,1.207,2.844l.016.578a4.418,4.418,0,0,1-1.086,3.121,4.209,4.209,0,0,1-5.832,0,4.5,4.5,0,0,1-1.09-3.187Zm2.258.16a3.16,3.16,0,0,0,.453,1.843,1.628,1.628,0,0,0,2.578.008,3.457,3.457,0,0,0,.461-2.015,3.128,3.128,0,0,0-.461-1.831,1.5,1.5,0,0,0-1.3-.649,1.474,1.474,0,0,0-1.281.646A3.516,3.516,0,0,0,44.982,32.856Zm14.79,0a5.07,5.07,0,0,1-.887,3.129,2.843,2.843,0,0,1-2.395,1.176,2.633,2.633,0,0,1-2.07-.891V40.25H52.163v-11.7h2.094l.078.828a2.654,2.654,0,0,1,2.141-.984,2.862,2.862,0,0,1,2.43,1.156,5.207,5.207,0,0,1,.867,3.188Zm-2.258-.164a3.327,3.327,0,0,0-.418-1.82,1.361,1.361,0,0,0-1.215-.641,1.478,1.478,0,0,0-1.461.813V34.5a1.5,1.5,0,0,0,1.477.836Q57.514,35.336,57.514,32.688Zm3.345.008a5.013,5.013,0,0,1,.484-2.242,3.546,3.546,0,0,1,1.395-1.523,4.069,4.069,0,0,1,2.113-.539,3.849,3.849,0,0,1,2.793,1.047,4.2,4.2,0,0,1,1.207,2.844l.016.578a4.418,4.418,0,0,1-1.086,3.121,4.209,4.209,0,0,1-5.832,0,4.5,4.5,0,0,1-1.09-3.187Zm2.258.16A3.16,3.16,0,0,0,63.57,34.7a1.628,1.628,0,0,0,2.578.008,3.457,3.457,0,0,0,.461-2.015,3.128,3.128,0,0,0-.461-1.831,1.5,1.5,0,0,0-1.3-.649,1.474,1.474,0,0,0-1.281.646A3.516,3.516,0,0,0,63.117,32.856Zm11.931-2.192a6.134,6.134,0,0,0-.812-.062,1.654,1.654,0,0,0-1.68.867V37H70.3V28.547H72.43l.063,1.008a2.092,2.092,0,0,1,1.883-1.164,2.366,2.366,0,0,1,.7.1Zm4.22-4.2v2.078h1.445V30.2H79.267v4.219a1.007,1.007,0,0,0,.18.672.9.9,0,0,0,.688.2,3.6,3.6,0,0,0,.664-.055v1.711a4.648,4.648,0,0,1-1.367.2,2.156,2.156,0,0,1-2.422-2.4V30.2H75.775V28.547h1.234V26.469ZM85.9,37.156a4.15,4.15,0,0,1-3.027-1.141,4.054,4.054,0,0,1-1.168-3.039v-.219A5.106,5.106,0,0,1,82.2,30.48a3.612,3.612,0,0,1,1.395-1.547,3.914,3.914,0,0,1,2.059-.543,3.508,3.508,0,0,1,2.73,1.094,4.444,4.444,0,0,1,1,3.1v.922H83.995a2.1,2.1,0,0,0,.66,1.328,2,2,0,0,0,1.395.5,2.437,2.437,0,0,0,2.039-.945L89.2,35.633a3.389,3.389,0,0,1-1.375,1.121A4.511,4.511,0,0,1,85.9,37.156Zm-.258-6.945a1.411,1.411,0,0,0-1.09.455,2.357,2.357,0,0,0-.535,1.3h3.141v-.181a1.681,1.681,0,0,0-.406-1.165A1.456,1.456,0,0,0,85.643,30.211Zm9.634,4.453a.727.727,0,0,0-.41-.652,4.659,4.659,0,0,0-1.316-.426q-3.016-.633-3.016-2.562a2.323,2.323,0,0,1,.934-1.879,3.766,3.766,0,0,1,2.441-.754,4.053,4.053,0,0,1,2.574.758,2.388,2.388,0,0,1,.965,1.969H95.191a1.092,1.092,0,0,0-.312-.8A1.322,1.322,0,0,0,93.9,30a1.351,1.351,0,0,0-.883.258.814.814,0,0,0-.312.656.7.7,0,0,0,.355.605,3.657,3.657,0,0,0,1.2.4,9.8,9.8,0,0,1,1.422.379,2.336,2.336,0,0,1,1.789,2.273,2.2,2.2,0,0,1-.992,1.871,4.28,4.28,0,0,1-2.562.715,4.47,4.47,0,0,1-1.887-.379,3.166,3.166,0,0,1-1.293-1.039,2.414,2.414,0,0,1-.469-1.426H92.41a1.179,1.179,0,0,0,.445.922,1.766,1.766,0,0,0,1.109.32,1.635,1.635,0,0,0,.98-.246A.766.766,0,0,0,95.277,34.664Z" transform="translate(361.26 10848)" fill="#12263f"/>
    </g>
    <g id="Group_1184867" data-name="Group 1184867" transform="translate(985.26 10646)">
      <path id="Path_1033439" data-name="Path 1033439" d="M44.606,32A12.606,12.606,0,1,0,57.213,44.606,12.622,12.622,0,0,0,44.606,32Zm0,23.532A10.925,10.925,0,1,1,55.532,44.606,10.936,10.936,0,0,1,44.606,55.532Z" transform="translate(-4.787 -4.787)" fill="#f9ce5d"/>
      <path id="Path_1033440" data-name="Path 1033440" d="M49.4,42.461a.84.84,0,1,0,1.681,0c0-1.908-1.79-3.437-4.2-3.731v-.9a.84.84,0,0,0-1.681,0v.9c-2.412.294-4.2,1.824-4.2,3.731s1.79,3.437,4.2,3.731V50.37c-1.429-.244-2.521-1.067-2.521-2.025a.84.84,0,0,0-1.681,0c0,1.908,1.79,3.437,4.2,3.731v.891a.84.84,0,1,0,1.681,0v-.891c2.412-.294,4.2-1.824,4.2-3.731s-1.79-3.437-4.2-3.731V40.436C48.312,40.679,49.4,41.5,49.4,42.461Zm-6.723,0c0-.958,1.093-1.782,2.521-2.025v4.042c-1.429-.244-2.521-1.067-2.521-2.025ZM49.4,48.344c0,.958-1.093,1.782-2.521,2.025V46.327c1.429.244,2.521,1.067,2.521,2.025Z" transform="translate(-6.224 -5.584)" fill="#f9ce5d"/>
      <path id="Path_1033441" data-name="Path 1033441" d="M11.681,16.009a.84.84,0,0,0-1.681,0c0,1.538,1.42,2.782,3.362,3.068v.529a.84.84,0,0,0,1.681,0v-.529c1.941-.286,3.362-1.53,3.362-3.068s-1.42-2.782-3.362-3.068V10.084c1.017.219,1.681.807,1.681,1.353a.84.84,0,1,0,1.681,0c0-1.538-1.42-2.782-3.362-3.068V7.84a.84.84,0,0,0-1.681,0V8.37C11.42,8.656,10,9.9,10,11.437s1.42,2.782,3.362,3.068v2.866c-1.017-.219-1.681-.807-1.681-1.353Zm5.043,0c0,.546-.664,1.135-1.681,1.353V14.656c1.017.219,1.681.807,1.681,1.353Zm-5.043-4.572c0-.546.664-1.135,1.681-1.353v2.706c-1.017-.219-1.681-.807-1.681-1.353Z" transform="translate(-1.277 -0.798)" fill="#f9ce5d"/>
      <path id="Path_1033442" data-name="Path 1033442" d="M30.314,50.744H6.2a2.529,2.529,0,0,1-2.521-2.521V6.2A2.529,2.529,0,0,1,6.2,3.681H36.457A2.529,2.529,0,0,1,38.979,6.2V24.691a.84.84,0,1,0,1.681,0V6.2a4.2,4.2,0,0,0-4.2-4.2H6.2A4.2,4.2,0,0,0,2,6.2V48.223a4.2,4.2,0,0,0,4.2,4.2H30.314a.84.84,0,1,0,0-1.681Z" fill="#f9ce5d"/>
      <path id="Path_1033443" data-name="Path 1033443" d="M10,30.2a.843.843,0,0,0,.84.84H14.2a.843.843,0,0,0,.84-.84V26.84A.843.843,0,0,0,14.2,26H10.84a.843.843,0,0,0-.84.84Zm1.681-2.521h1.681v1.681H11.681Z" transform="translate(-1.277 -3.83)" fill="#f9ce5d"/>
      <path id="Path_1033444" data-name="Path 1033444" d="M23.043,24.84A.843.843,0,0,0,22.2,24H18.84a.843.843,0,0,0-.84.84v5.043a.843.843,0,0,0,.84.84H22.2a.843.843,0,0,0,.84-.84Zm-1.681,4.2H19.681V25.681h1.681Z" transform="translate(-2.553 -3.511)" fill="#f9ce5d"/>
      <path id="Path_1033445" data-name="Path 1033445" d="M26.84,18a.843.843,0,0,0-.84.84V28.925a.843.843,0,0,0,.84.84H30.2a.843.843,0,0,0,.84-.84V18.84A.843.843,0,0,0,30.2,18Zm2.521,10.085H27.681v-8.4h1.681Z" transform="translate(-3.83 -2.553)" fill="#f9ce5d"/>
      <path id="Path_1033446" data-name="Path 1033446" d="M34.84,10a.843.843,0,0,0-.84.84V27.649a.843.843,0,0,0,.84.84H38.2a.843.843,0,0,0,.84-.84V10.84A.843.843,0,0,0,38.2,10Zm2.521,16.808H35.681V11.681h1.681Z" transform="translate(-5.107 -1.277)" fill="#f9ce5d"/>
      <path id="Path_1033447" data-name="Path 1033447" d="M20.925,39H10.84a.84.84,0,1,0,0,1.681H20.925a.84.84,0,0,0,0-1.681Z" transform="translate(-1.277 -5.904)" fill="#f9ce5d"/>
      <path id="Path_1033448" data-name="Path 1033448" d="M20.925,45H10.84a.84.84,0,1,0,0,1.681H20.925a.84.84,0,0,0,0-1.681Z" transform="translate(-1.277 -6.862)" fill="#f9ce5d"/>
      <path id="Path_1033449" data-name="Path 1033449" d="M20.925,51H10.84a.84.84,0,1,0,0,1.681H20.925a.84.84,0,0,0,0-1.681Z" transform="translate(-1.277 -7.819)" fill="#f9ce5d"/>
    </g>
    <g id="Layer_3" data-name="Layer 3" transform="translate(547.02 10644.729)">
      <path id="Path_1033463" data-name="Path 1033463" d="M45.627,31.935v.912A2.856,2.856,0,0,0,43,35.386c0,1.473,1.539,2.627,3.5,2.627,1.069,0,1.751.518,1.751.876s-.682.876-1.751.876-1.751-.518-1.751-.876a.876.876,0,0,0-1.751,0c0,1.244,1.1,2.251,2.627,2.54v.963a.876.876,0,1,0,1.751,0v-.963a2.856,2.856,0,0,0,2.627-2.54c0-1.473-1.539-2.627-3.5-2.627-1.069,0-1.751-.518-1.751-.876s.682-.876,1.751-.876,1.751.518,1.751.876a.876.876,0,0,0,1.751,0c0-1.244-1.1-2.251-2.627-2.54v-.912a.876.876,0,1,0-1.751,0Z" transform="translate(-5.096 -3.612)" fill="#f9ce5d"/>
      <path id="Path_1033464" data-name="Path 1033464" d="M18.876,13.751H29.384a.876.876,0,1,0,0-1.751H18.876a.876.876,0,1,0,0,1.751Z" transform="translate(-1.989 -1.243)" fill="#f9ce5d"/>
      <path id="Path_1033465" data-name="Path 1033465" d="M18.876,9.751H32.887a.876.876,0,1,0,0-1.751H18.876a.876.876,0,1,0,0,1.751Z" transform="translate(-1.989 -0.746)" fill="#f9ce5d"/>
      <path id="Path_1033466" data-name="Path 1033466" d="M18.876,17.751h1.751a.876.876,0,1,0,0-1.751H18.876a.876.876,0,1,0,0,1.751Z" transform="translate(-1.989 -1.74)" fill="#f9ce5d"/>
      <path id="Path_1033467" data-name="Path 1033467" d="M12.876,9.751h1.751a.876.876,0,1,0,0-1.751H12.876a.876.876,0,1,0,0,1.751Z" transform="translate(-1.243 -0.746)" fill="#f9ce5d"/>
      <path id="Path_1033468" data-name="Path 1033468" d="M12.876,13.751h1.751a.876.876,0,1,0,0-1.751H12.876a.876.876,0,1,0,0,1.751Z" transform="translate(-1.243 -1.243)" fill="#f9ce5d"/>
      <path id="Path_1033469" data-name="Path 1033469" d="M12.876,17.751h1.751a.876.876,0,1,0,0-1.751H12.876a.876.876,0,1,0,0,1.751Z" transform="translate(-1.243 -1.74)" fill="#f9ce5d"/>
      <path id="Path_1033470" data-name="Path 1033470" d="M54.516,49.218l-5.123-8.88a10.49,10.49,0,0,0-7.111-17.278V12.176l2.627-1.314,3.109,1.55a.9.9,0,0,0,.394.1.888.888,0,0,0,.464-.131.876.876,0,0,0,.412-.744V6.378A4.378,4.378,0,0,0,44.909,2H9.881A4.378,4.378,0,0,0,5.5,6.378V46.24L3.3,45.023a.854.854,0,0,0-.867.009A.886.886,0,0,0,2,45.785v4.378a4.378,4.378,0,0,0,4.378,4.378H37.9a4.378,4.378,0,0,0,4.378-4.378V43.99a10.278,10.278,0,0,0,1.042-.14l5.123,8.871a3.45,3.45,0,0,0,2.119,1.629,3.32,3.32,0,0,0,.919.123A3.406,3.406,0,0,0,53.228,54a3.51,3.51,0,0,0,1.287-4.781ZM42.282,6.378a2.627,2.627,0,1,1,5.254,0v3.836L45.3,9.1a.854.854,0,0,0-.788,0l-2.233,1.112ZM6.378,52.79a2.635,2.635,0,0,1-2.627-2.627v-2.89L5.608,48.3a.863.863,0,0,0,.849,0l2.732-1.515L11.922,48.3a.863.863,0,0,0,.849,0l2.723-1.515L18.218,48.3a.863.863,0,0,0,.849,0L21.8,46.783,24.523,48.3a.863.863,0,0,0,.849,0L28.1,46.783,30.828,48.3a.863.863,0,0,0,.849,0l1.848-1.025v2.89A4.365,4.365,0,0,0,34.4,52.79Zm34.152-2.627a2.627,2.627,0,0,1-5.254,0V45.785a.886.886,0,0,0-.429-.753.87.87,0,0,0-.876-.009l-2.723,1.515-2.723-1.515a.863.863,0,0,0-.849,0l-2.723,1.515L22.22,45.023a.863.863,0,0,0-.849,0l-2.723,1.515-2.723-1.515a.876.876,0,0,0-.858,0l-2.723,1.515L9.619,45.023a.863.863,0,0,0-.849,0l-1.515.832V6.378A2.635,2.635,0,0,1,9.881,3.751H41.433a4.312,4.312,0,0,0-.9,2.627V23.061a10.467,10.467,0,0,0-3.5.928V18.638a.876.876,0,0,0-.876-.876H11.633a.876.876,0,0,0-.876.876V34.4a.876.876,0,0,0,.876.876H31.056a10.523,10.523,0,0,0,9.475,8.713ZM17.763,23.017v-3.5H35.277v3.5Zm17.514,1.751V25A10.508,10.508,0,0,0,30.9,33.525H17.763V24.768ZM12.508,23.017v-3.5h3.5v3.5Zm3.5,1.751v8.757h-3.5V24.768Zm25.4,17.514a8.757,8.757,0,1,1,8.757-8.757,8.757,8.757,0,0,1-8.757,8.757Zm11.761,9.142a1.783,1.783,0,0,1-.814,1.068,1.76,1.76,0,0,1-1.331.166,1.741,1.741,0,0,1-1.06-.814l-4.9-8.477a10.7,10.7,0,0,0,3.039-1.751L53,50.093a1.76,1.76,0,0,1,.166,1.331Z" transform="translate(0)" fill="#f9ce5d"/>
      <path id="Path_1033471" data-name="Path 1033471" d="M23.384,42H12.876a.876.876,0,0,0-.876.876v3.5a.876.876,0,0,0,.876.876H23.384a.876.876,0,0,0,.876-.876v-3.5A.876.876,0,0,0,23.384,42Zm-.876,3.5H13.751V43.751h8.757Z" transform="translate(-1.243 -4.972)" fill="#f9ce5d"/>
    </g>
    <path id="Path_1033472" data-name="Path 1033472" d="M12.444,44.079a.868.868,0,0,1,.868-.868h9.039a.868.868,0,1,1,0,1.737H13.312A.868.868,0,0,1,12.444,44.079ZM28.85,49.3H13.312a.868.868,0,1,0,0,1.737H28.849a.868.868,0,0,0,0-1.737Zm0,6.093H13.312a.868.868,0,0,0,0,1.737H28.849a.868.868,0,0,0,0-1.737Zm0,6.093H13.312a.868.868,0,0,0,0,1.737H28.849a.868.868,0,0,0,0-1.737Zm16.1-4.391V54.7l-5.025-.025v16.62h5.025v-2.4a3.028,3.028,0,0,1,3.025-3.025h6.534a3.028,3.028,0,0,1,3.021,2.884l2.859-2.595a.868.868,0,1,1,1.167,1.286l-4.023,3.651v4.333a3.028,3.028,0,0,1-3.025,3.025H47.977a3.028,3.028,0,0,1-3.025-3.025v-2.4H39.059a.868.868,0,0,1-.868-.868v-17.5l-4.028-.02V70.677a.868.868,0,0,1-.868.868H8.868A.868.868,0,0,1,8,70.677V35.762a.868.868,0,0,1,.868-.868h17.5a.869.869,0,0,1,.627.268l6.923,7.226a.868.868,0,0,1,.241.6v9.918l4.028.02V35.5a.868.868,0,0,1,.868-.868h5.894v-2.4a3.028,3.028,0,0,1,3.025-3.025h6.534A3.028,3.028,0,0,1,57.532,32.1L60.392,29.5a.868.868,0,0,1,1.167,1.286l-4.023,3.651v4.333A3.028,3.028,0,0,1,54.511,41.8H47.977a3.028,3.028,0,0,1-3.025-3.025v-2.4H39.927V52.934l5.025.025V50.565a3.028,3.028,0,0,1,3.025-3.025h6.534a3.028,3.028,0,0,1,3.021,2.884l2.859-2.595a.868.868,0,1,1,1.167,1.286l-4.023,3.651V57.1a3.028,3.028,0,0,1-3.025,3.025H47.977A3.028,3.028,0,0,1,44.952,57.1Zm1.737,0a1.289,1.289,0,0,0,1.288,1.288h6.534A1.289,1.289,0,0,0,55.8,57.1V54.343l-1.946,1.766a.868.868,0,0,1-1.2-.029l-3.173-3.173a.868.868,0,1,1,1.228-1.228L53.3,54.267,55.8,52V50.565a1.289,1.289,0,0,0-1.288-1.288H47.977a1.289,1.289,0,0,0-1.288,1.288V57.1Zm0-18.327a1.289,1.289,0,0,0,1.288,1.288h6.534A1.289,1.289,0,0,0,55.8,38.772V36.016l-1.946,1.766a.868.868,0,0,1-1.2-.029L49.483,34.58a.868.868,0,0,1,1.228-1.228L53.3,35.939l2.5-2.269V32.238a1.289,1.289,0,0,0-1.288-1.288H47.977a1.289,1.289,0,0,0-1.288,1.288v6.534ZM26.936,37.607v4.512h4.322Zm5.489,32.2V43.856H26.068a.868.868,0,0,1-.868-.868V36.63H9.737V69.809Zm14.264,5.618a1.289,1.289,0,0,0,1.288,1.288h6.534A1.289,1.289,0,0,0,55.8,75.427V72.67l-1.946,1.766a.868.868,0,0,1-1.2-.029l-3.173-3.173a.868.868,0,0,1,1.228-1.228L53.3,72.594l2.5-2.269V68.892A1.289,1.289,0,0,0,54.511,67.6H47.977a1.289,1.289,0,0,0-1.288,1.288v6.534Z" transform="translate(765.338 10582.437)" fill="#f9ce5d"/>
    <g id="Group_1184869" data-name="Group 1184869" transform="translate(1120.801 10771.869)">
      <path id="Path_1033473" data-name="Path 1033473" d="M79.587,9.408H75.713V5.534a.83.83,0,0,0-.83-.83H71.009V.83a.83.83,0,0,0-.83-.83H35.757a.83.83,0,0,0-.83.83V38.074h-3.6a.83.83,0,0,0-.83.83V40.9a6.371,6.371,0,0,0,6.364,6.364h2.767v3.874a.83.83,0,0,0,.83.83h3.874v3.874a.83.83,0,0,0,.83.83H61.822a.83.83,0,0,0,0-1.66H46V51.964H74.883a.83.83,0,0,0,.83-.83V38.074a.83.83,0,1,0-1.66,0V50.3H41.291V47.26H70.179a.83.83,0,0,0,.83-.83V6.364h3.044V34.311a.83.83,0,1,0,1.66,0V11.068h3.044v43.94H65.586a.83.83,0,1,0,0,1.66h14a.83.83,0,0,0,.83-.83v-45.6A.83.83,0,0,0,79.587,9.408ZM69.349,45.6H64.755a4.709,4.709,0,0,1-4.7-4.7V38.9a.83.83,0,0,0-.83-.83H53.466a.83.83,0,0,0,0,1.66h4.925V40.9a6.349,6.349,0,0,0,2.082,4.7H36.864a4.709,4.709,0,0,1-4.7-4.7V39.734H49.592a.83.83,0,1,0,0-1.66h-13V1.66H69.349Z" transform="translate(0 0)" fill="#f9ce5d"/>
      <path id="Path_1033474" data-name="Path 1033474" d="M106.33,61.285h10.625a.83.83,0,0,0,.83-.83V49.83a.83.83,0,0,0-.83-.83H106.33a.83.83,0,0,0-.83.83V60.455A.83.83,0,0,0,106.33,61.285Zm.83-10.625h8.965v8.965H107.16Z" transform="translate(-66.699 -43.577)" fill="#f9ce5d"/>
      <path id="Path_1033475" data-name="Path 1033475" d="M249.5,132H237.33a.83.83,0,1,0,0,1.66H249.5a.83.83,0,1,0,0-1.66Z" transform="translate(-183.2 -117.39)" fill="#f9ce5d"/>
      <path id="Path_1033476" data-name="Path 1033476" d="M170.5,200.83a.83.83,0,0,0,.83.83h12.285a.83.83,0,1,0,0-1.66H171.33A.83.83,0,0,0,170.5,200.83Z" transform="translate(-124.505 -177.864)" fill="#f9ce5d"/>
      <path id="Path_1033477" data-name="Path 1033477" d="M249.5,97H237.33a.83.83,0,1,0,0,1.66H249.5a.83.83,0,1,0,0-1.66Z" transform="translate(-183.2 -86.264)" fill="#f9ce5d"/>
      <path id="Path_1033478" data-name="Path 1033478" d="M249.5,62H237.33a.83.83,0,1,0,0,1.66H249.5a.83.83,0,1,0,0-1.66Z" transform="translate(-183.2 -55.138)" fill="#f9ce5d"/>
      <path id="Path_1033479" data-name="Path 1033479" d="M133,289H106.33a.83.83,0,1,0,0,1.66H133a.83.83,0,1,0,0-1.66Z" transform="translate(-66.699 -257.013)" fill="#f9ce5d"/>
      <path id="Path_1033480" data-name="Path 1033480" d="M230.829,244h-14.5a.83.83,0,1,0,0,1.66h14.5a.83.83,0,1,0,0-1.66Z" transform="translate(-164.524 -216.994)" fill="#f9ce5d"/>
      <path id="Path_1033481" data-name="Path 1033481" d="M105.83,245.66h8.356a.83.83,0,1,0,0-1.66H105.83a.83.83,0,1,0,0,1.66Z" transform="translate(-66.254 -216.994)" fill="#f9ce5d"/>
    </g>
  </g>
</svg>
