<svg xmlns="http://www.w3.org/2000/svg" width="149.909" height="150" viewBox="0 0 149.909 150">
  <g id="img27" transform="translate(-705.985 -1710.002)">
    <g id="Group_1180300" data-name="Group 1180300" transform="translate(705.936 1710.002)">
      <g id="Grupo_155253" data-name="Grupo 155253" transform="matrix(0.999, 0.035, -0.035, 0.999, 5.062, 0)">
        <path id="Trazado_196478" data-name="Trazado 196478" d="M20.377,22.814q-.452.483-.9.974A75.7,75.7,0,0,0,.051,77.428l30.182-1.084c-.818-24.1,17.45-44.315,40.8-45.157S113.985,49.2,114.8,73.3l30.182-1.084c-1.018-30-19.313-56.469-46.471-67.234A70.928,70.928,0,0,0,20.377,22.822" transform="translate(0 0)" fill="#f9ce5d"/>
        <path id="Trazado_196479" data-name="Trazado 196479" d="M0,5.22c1.4,41.3,34.98,73.608,75,72.167S146.334,41.3,144.933,0L114.751,1.084c.818,24.1-17.451,44.315-40.8,45.156S31,28.229,30.182,4.132Z" transform="translate(0.049 67.595)" fill="#70f5c8"/>
      </g>
      <ellipse id="Ellipse_13685" data-name="Ellipse 13685" cx="58.366" cy="58.462" rx="58.366" ry="58.462" transform="translate(16.722 16.827)" fill="#fff"/>
    </g>
    <g id="Group_1184885" data-name="Group 1184885" transform="translate(745.692 1749.759)">
      <circle id="Ellipse_13836" data-name="Ellipse 13836" cx="13.413" cy="13.413" r="13.413" transform="translate(1.494 2.359)" fill="#fea82f"/>
      <path id="Path_1033561" data-name="Path 1033561" d="M21.643,116.506A13.638,13.638,0,0,1,8.057,104c-.031.376-.057.753-.057,1.137a13.643,13.643,0,0,0,27.286,0c0-.384-.026-.761-.057-1.137A13.638,13.638,0,0,1,21.643,116.506Z" transform="translate(-6.863 -89.22)" fill="#ff8031"/>
      <rect id="Rectangle_459511" data-name="Rectangle 459511" width="18.173" height="31.154" transform="translate(46.494 37.84)" fill="#fea82f"/>
      <g id="Group_1184882" data-name="Group 1184882" transform="translate(46.494 42.167)">
        <rect id="Rectangle_459512" data-name="Rectangle 459512" width="18.173" height="4.327" transform="translate(0 18.173)" fill="#ff8031"/>
        <rect id="Rectangle_459513" data-name="Rectangle 459513" width="18.173" height="5.192" transform="translate(0 8.654)" fill="#ff8031"/>
        <rect id="Rectangle_459514" data-name="Rectangle 459514" width="18.173" height="4.327" transform="translate(0 0)" fill="#ff8031"/>
      </g>
      <g id="Group_1184883" data-name="Group 1184883" transform="translate(1.494 46.494)">
        <rect id="Rectangle_459515" data-name="Rectangle 459515" width="18.173" height="22.5" transform="translate(22.5 0)" fill="#fea82f"/>
        <rect id="Rectangle_459516" data-name="Rectangle 459516" width="18.173" height="12.981" transform="translate(0 9.519)" fill="#fea82f"/>
      </g>
      <path id="Path_1033562" data-name="Path 1033562" d="M11.411,55.75,39.833,33.012,50.065,38.7l21.6-21.6v6.821A2.273,2.273,0,0,0,73.94,26.19h0a2.273,2.273,0,0,0,2.274-2.274V8H60.3a2.273,2.273,0,0,0-2.274,2.274h0A2.273,2.273,0,0,0,60.3,12.548h7.958L48.928,31.875l-9.1-5.684L8,51.2Z" transform="translate(-6.863 -6.863)" fill="#fcd770"/>
      <g id="Group_1184884" data-name="Group 1184884" transform="translate(1.494 50.821)">
        <rect id="Rectangle_459517" data-name="Rectangle 459517" width="18.173" height="4.327" transform="translate(22.5 9.519)" fill="#ff8031"/>
        <rect id="Rectangle_459518" data-name="Rectangle 459518" width="18.173" height="4.327" transform="translate(0 9.519)" fill="#ff8031"/>
        <rect id="Rectangle_459519" data-name="Rectangle 459519" width="18.173" height="5.192" transform="translate(22.5 0)" fill="#ff8031"/>
      </g>
      <path id="Path_1033563" data-name="Path 1033563" d="M14.821,274.248,8,279.606l3.411,4.554,3.411-2.729Z" transform="translate(-6.863 -235.274)" fill="#ffc729"/>
      <path id="Path_1033564" data-name="Path 1033564" d="M76.548,44.548a2.276,2.276,0,0,1,2.274,2.274H81.1a4.542,4.542,0,0,0-3.411-4.386V40H75.411v2.435a4.538,4.538,0,0,0,1.137,8.934,2.274,2.274,0,1,1-2.274,2.274H72a4.542,4.542,0,0,0,3.411,4.386v2.435h2.274V58.029A4.538,4.538,0,0,0,76.548,49.1a2.274,2.274,0,1,1,0-4.548Z" transform="translate(-61.768 -34.316)"/>
      <path id="Path_1033565" data-name="Path 1033565" d="M0,388.548v11.369H20.464V384H0Zm18.19,9.1H2.274v-2.274H18.19Zm0-4.548H2.274v-2.274H18.19ZM2.274,386.274H18.19v2.274H2.274Z" transform="translate(0 -329.429)"/>
      <path id="Path_1033566" data-name="Path 1033566" d="M160,324.548v20.464h20.464V320H160Zm18.19,13.643H166.821v2.274H178.19v2.274H162.274v-2.274h2.274V338.19h-2.274v-2.274H178.19Zm0-4.548H162.274v-2.274H178.19Zm0-4.548H162.274v-2.274H178.19Zm-15.917-6.821H178.19v2.274H162.274Z" transform="translate(-137.262 -274.524)"/>
      <path id="Path_1033567" data-name="Path 1033567" d="M320,260.548v29.559h20.464V256H320Zm18.19,27.286H322.274v-2.274H338.19Zm0-4.548H322.274v-2.274H338.19Zm0-4.548H322.274v-2.274H338.19Zm0-4.548H322.274v-2.274H338.19Zm0-9.1h-2.274v2.274h2.274v2.274H322.274v-2.274h11.369V265.1H322.274v-2.274H338.19Zm-15.917-6.821H338.19v2.274H322.274Z" transform="translate(-274.524 -219.619)"/>
      <path id="Path_1033568" data-name="Path 1033568" d="M53.434,0a3.411,3.411,0,1,0,0,6.821h5.214L41.9,23.568,32.9,17.939l-4.4,3.457A14.773,14.773,0,1,0,14.78,30.7a14.669,14.669,0,0,0,2.085-.165L.434,43.438,1.84,45.226l31.2-24.512,9.185,5.74L64.137,4.548h-10.7a1.137,1.137,0,1,1,0-2.274h14.78v14.78a1.137,1.137,0,1,1-2.274,0V7.488L43,30.422,32.855,24.784,3.837,48l1.421,1.776L33.085,27.513,43.4,33.244,63.666,12.977v4.077a3.411,3.411,0,1,0,6.821,0V0ZM2.274,15.917A12.506,12.506,0,1,1,14.78,28.422,12.521,12.521,0,0,1,2.274,15.917Z"/>
      <rect id="Rectangle_459520" data-name="Rectangle 459520" width="1.731" height="2.596" transform="translate(4.956 14.474)"/>
      <rect id="Rectangle_459521" data-name="Rectangle 459521" width="1.731" height="2.596" transform="translate(23.129 14.474)"/>
    </g>
  </g>
</svg>
