<svg xmlns="http://www.w3.org/2000/svg" width="149.909" height="150" viewBox="0 0 149.909 150">
  <g id="img26" transform="translate(-705.985 -1710.002)">
    <g id="Group_1180300" data-name="Group 1180300" transform="translate(705.936 1710.002)">
      <g id="Grupo_155253" data-name="Grupo 155253" transform="matrix(0.999, 0.035, -0.035, 0.999, 5.062, 0)">
        <path id="Trazado_196478" data-name="Trazado 196478" d="M20.377,22.814q-.452.483-.9.974A75.7,75.7,0,0,0,.051,77.428l30.182-1.084c-.818-24.1,17.45-44.315,40.8-45.157S113.985,49.2,114.8,73.3l30.182-1.084c-1.018-30-19.313-56.469-46.471-67.234A70.928,70.928,0,0,0,20.377,22.822" transform="translate(0 0)" fill="#f9ce5d"/>
        <path id="Trazado_196479" data-name="Trazado 196479" d="M0,5.22c1.4,41.3,34.98,73.608,75,72.167S146.334,41.3,144.933,0L114.751,1.084c.818,24.1-17.451,44.315-40.8,45.156S31,28.229,30.182,4.132Z" transform="translate(0.049 67.595)" fill="#ff9e74"/>
      </g>
      <ellipse id="Ellipse_13685" data-name="Ellipse 13685" cx="58.366" cy="58.462" rx="58.366" ry="58.462" transform="translate(16.722 16.827)" fill="#fff"/>
    </g>
    <g id="Group_1184881" data-name="Group 1184881" transform="translate(741.413 1715.494)">
      <g id="Group_1184876" data-name="Group 1184876" transform="translate(1.158 36.618)">
        <path id="Path_1033528" data-name="Path 1033528" d="M67.145,126.923H49.463a3.427,3.427,0,0,1-3.427-3.427v-1.4a7.317,7.317,0,0,1,7.317-7.317h9.9a7.317,7.317,0,0,1,7.317,7.317v1.4A3.427,3.427,0,0,1,67.145,126.923Z" transform="translate(-40.086 -103.69)" fill="#ffd15b"/>
        <path id="Path_1033529" data-name="Path 1033529" d="M139.51,122.1v1.4a3.428,3.428,0,0,1-3.427,3.427h-4.633a3.428,3.428,0,0,0,3.427-3.427v-1.4a7.317,7.317,0,0,0-7.316-7.316h4.633A7.317,7.317,0,0,1,139.51,122.1Z" transform="translate(-109.024 -103.692)" fill="#ffc344"/>
        <path id="Path_1033530" data-name="Path 1033530" d="M66.091,170.638v7.383a4.676,4.676,0,0,0,4.676,4.676h.907v3.867h7.178V182.7h.907a4.676,4.676,0,0,0,4.676-4.676v-7.383a3.1,3.1,0,0,0-3.1-3.1H69.193a3.1,3.1,0,0,0-3.1,3.1Z" transform="translate(-57.045 -148.303)" fill="#ffdfcf"/>
        <path id="Path_1033531" data-name="Path 1033531" d="M130.816,167.536h-4.634a3.1,3.1,0,0,1,3.1,3.1v7.383a4.678,4.678,0,0,1-3.469,4.519,1.607,1.607,0,0,0-1.207,1.547v2.477h3.727V182.7h.907a4.676,4.676,0,0,0,4.676-4.676v-7.383a3.1,3.1,0,0,0-3.1-3.1Z" transform="translate(-106.529 -148.303)" fill="#ffcebf"/>
        <path id="Path_1033532" data-name="Path 1033532" d="M56.335,290.785H77.691V313.2H56.335Z" transform="translate(-48.795 -252.524)" fill="#97da7b"/>
        <path id="Path_1033533" data-name="Path 1033533" d="M164.65,290.79h4.633V313.2H164.65Z" transform="translate(-140.388 -252.528)" fill="#80d261"/>
        <path id="Path_1033534" data-name="Path 1033534" d="M187.172,198.589h-2.265V193.44h2.265a2.574,2.574,0,0,1,0,5.149Z" transform="translate(-157.517 -170.208)" fill="#ffb09e"/>
        <path id="Path_1033535" data-name="Path 1033535" d="M37.32,198.589h2.265V193.44H37.32a2.574,2.574,0,0,0,0,5.149Z" transform="translate(-30.54 -170.208)" fill="#ffcebf"/>
        <path id="Path_1033536" data-name="Path 1033536" d="M15.04,306.615V290.785a7.54,7.54,0,0,0-7.54,7.54v12.657A2.218,2.218,0,0,0,9.718,313.2H33.237v-2.032a3.414,3.414,0,0,0-3.154-3.4Z" transform="translate(-7.5 -252.524)" fill="#ffdfcf"/>
        <path id="Path_1033537" data-name="Path 1033537" d="M33.086,290.79v15.829h-2.8a1.444,1.444,0,0,1-1.444-1.445V292.1a7.511,7.511,0,0,1,4.246-1.308Z" transform="translate(-25.545 -252.528)" fill="#ffcebf"/>
        <path id="Path_1033538" data-name="Path 1033538" d="M194.663,290.785V313.2H202.2V298.321A7.536,7.536,0,0,0,194.663,290.785Z" transform="translate(-165.767 -252.524)" fill="#ffdfcf"/>
        <path id="Path_1033539" data-name="Path 1033539" d="M202.2,298.326V313.2h-4.633V298.326a7.517,7.517,0,0,0-2.9-5.942V290.79A7.535,7.535,0,0,1,202.2,298.326Z" transform="translate(-165.765 -252.528)" fill="#ffcebf"/>
        <circle id="Ellipse_13831" data-name="Ellipse 13831" cx="4.501" cy="4.501" r="4.501" transform="translate(10.295 2.086)" fill="#ffd15b"/>
        <path id="Path_1033540" data-name="Path 1033540" d="M90.649,56.47a4.479,4.479,0,0,0-2.317.642,4.5,4.5,0,0,1,0,7.718,4.5,4.5,0,1,0,2.317-8.36Z" transform="translate(-75.852 -54.384)" fill="#ffc344"/>
        <path id="Path_1033541" data-name="Path 1033541" d="M82.013,435.966H9.718A2.218,2.218,0,0,0,7.5,438.184v.655a2.233,2.233,0,0,0,2.233,2.233H82a2.233,2.233,0,0,0,2.233-2.233v-.655A2.217,2.217,0,0,0,82.013,435.966Z" transform="translate(-7.5 -375.29)" fill="#dc8758"/>
        <path id="Path_1033542" data-name="Path 1033542" d="M466.887,438.187v.656a2.234,2.234,0,0,1-2.232,2.232H460.02a2.234,2.234,0,0,0,2.234-2.232v-.656a2.218,2.218,0,0,0-2.219-2.217h4.633A2.218,2.218,0,0,1,466.887,438.187Z" transform="translate(-390.156 -375.294)" fill="#d77f4a"/>
        <path id="Path_1033543" data-name="Path 1033543" d="M254.176,332.2H226.638l3.411-16.628a2.9,2.9,0,0,1,2.84-2.316h23.2a1.608,1.608,0,0,1,1.576,1.932Z" transform="translate(-192.806 -271.527)" fill="#cecece"/>
        <path id="Path_1033544" data-name="Path 1033544" d="M383.114,315.191,379.623,332.2H374.99l3.491-17.014a1.609,1.609,0,0,0-1.576-1.931h4.633A1.608,1.608,0,0,1,383.114,315.191Z" transform="translate(-318.254 -271.529)" fill="#bfbfbf"/>
        <path id="Path_1033545" data-name="Path 1033545" d="M162.509,413.019h-9.614a2.095,2.095,0,1,1,0-4.189h10.473Z" transform="translate(-128.676 -352.344)" fill="#9c9c9c"/>
        <path id="Path_1033546" data-name="Path 1033546" d="M329.06,42.96H303.076a2.771,2.771,0,0,0-2.771,2.771V70.662a2.771,2.771,0,0,0,2.771,2.771h10.385l1.945,6.233a.859.859,0,0,0,1.639,0l1.945-6.233H329.06a2.771,2.771,0,0,0,2.771-2.771V45.731a2.771,2.771,0,0,0-2.771-2.771Z" transform="translate(-255.099 -42.96)" fill="#fff9df"/>
        <path id="Path_1033547" data-name="Path 1033547" d="M468.173,45.731V70.662a2.771,2.771,0,0,1-2.771,2.771H461.54a2.772,2.772,0,0,0,2.771-2.771V45.731a2.771,2.771,0,0,0-2.771-2.771H465.4A2.77,2.77,0,0,1,468.173,45.731Z" transform="translate(-391.441 -42.96)" fill="#fff6ce"/>
        <path id="Path_1033548" data-name="Path 1033548" d="M367.215,402.117H346.991a2.218,2.218,0,0,1-2.218-2.218v-2.257a1.706,1.706,0,0,1,1.706-1.706h21.249a1.706,1.706,0,0,1,1.706,1.706V399.9A2.218,2.218,0,0,1,367.215,402.117Z" transform="translate(-292.702 -341.441)" fill="#60b7ff"/>
        <path id="Path_1033549" data-name="Path 1033549" d="M367.727,362.088H346.479a1.706,1.706,0,0,1-1.706-1.706v-2.769a1.706,1.706,0,0,1,1.706-1.706h21.249a1.706,1.706,0,0,1,1.706,1.706v2.769A1.706,1.706,0,0,1,367.727,362.088Z" transform="translate(-292.702 -307.592)" fill="#8ac9fe"/>
        <path id="Path_1033550" data-name="Path 1033550" d="M466.972,397.646V399.9a2.219,2.219,0,0,1-2.219,2.219H460.12a2.219,2.219,0,0,0,2.219-2.219v-2.256a1.705,1.705,0,0,0-1.706-1.706h4.633A1.706,1.706,0,0,1,466.972,397.646Z" transform="translate(-390.241 -341.444)" fill="#26a6fe"/>
        <path id="Path_1033551" data-name="Path 1033551" d="M469.779,357.616v2.768a1.707,1.707,0,0,1-1.706,1.706H463.44a1.707,1.707,0,0,0,1.706-1.706v-2.768a1.706,1.706,0,0,0-1.706-1.706h4.633A1.706,1.706,0,0,1,469.779,357.616Z" transform="translate(-393.048 -307.594)" fill="#60b7ff"/>
        <g id="Group_1184875" data-name="Group 1184875" transform="translate(51.497 4.539)">
          <path id="Path_1033552" data-name="Path 1033552" d="M358.532,93.948H342.519a1.465,1.465,0,0,1-1.465-1.465V73.824a1.465,1.465,0,0,1,1.465-1.465h16.013A1.465,1.465,0,0,1,360,73.824V92.483A1.465,1.465,0,0,1,358.532,93.948Z" transform="translate(-341.054 -72.359)" fill="#978ecb"/>
          <path id="Path_1033553" data-name="Path 1033553" d="M432.276,72.359h-4.014a1.465,1.465,0,0,1,1.465,1.465V92.483a1.465,1.465,0,0,1-1.465,1.465h4.014a1.465,1.465,0,0,0,1.465-1.465V73.824A1.465,1.465,0,0,0,432.276,72.359Z" transform="translate(-414.798 -72.359)" fill="#8379c1"/>
          <path id="Path_1033554" data-name="Path 1033554" d="M0,0H4.407V10.914H0Z" transform="translate(14.929 4.014) rotate(90)" fill="#f2fbff"/>
        </g>
      </g>
      <g id="Group_1184880" data-name="Group 1184880" transform="translate(0 35.46)">
        <path id="Path_1033555" data-name="Path 1033555" d="M119.157,196.175a1.158,1.158,0,0,0,1.158-1.158v-3.193a1.158,1.158,0,0,0-2.316,0v3.193A1.158,1.158,0,0,0,119.157,196.175Z" transform="translate(-99.781 -166.704)"/>
        <path id="Path_1033556" data-name="Path 1033556" d="M76.183,95.2h-9.7l.669-3.262a2.766,2.766,0,0,0-2.71-3.323h-23.2a4.071,4.071,0,0,0-3.266,1.653,8.7,8.7,0,0,0-7.892-5.121l-.031,0H24.123V83.59a5.841,5.841,0,0,0,5.583-5.828v-.18h1.107a3.732,3.732,0,0,0,1.261-7.245,4.586,4.586,0,0,0,.728-2.489v-1.4a8.484,8.484,0,0,0-8.474-8.474H20.516a5.659,5.659,0,1,0-8.769.436,8.487,8.487,0,0,0-5.8,8.038v1.4a4.585,4.585,0,0,0,.728,2.489,3.732,3.732,0,0,0,1.261,7.245H9.046v.18a5.841,5.841,0,0,0,5.583,5.828v1.556H8.7l-.029,0A8.695,8.695,0,0,0,0,93.844V106.5a3.361,3.361,0,0,0,.834,2.218A3.361,3.361,0,0,0,0,110.936v.655a3.4,3.4,0,0,0,3.391,3.391H10.1a1.158,1.158,0,1,0,0-2.316H3.391a1.076,1.076,0,0,1-1.075-1.075v-.655a1.061,1.061,0,0,1,1.051-1.059h72.3a1.061,1.061,0,0,1,1.06,1.06v.655a1.076,1.076,0,0,1-1.075,1.075H15.519a1.158,1.158,0,0,0,0,2.316H75.656a3.4,3.4,0,0,0,3.391-3.391v-.655a3.36,3.36,0,0,0-.834-2.218,3.36,3.36,0,0,0,.834-2.218v-2.257a2.845,2.845,0,0,0-.569-1.706,2.845,2.845,0,0,0,.569-1.706V98.064A2.867,2.867,0,0,0,76.183,95.2Zm.548,2.864v2.769a.548.548,0,0,1-.548.548H54.935a.549.549,0,0,1-.548-.548V98.064a.548.548,0,0,1,.548-.548H76.183a.548.548,0,0,1,.548.548ZM41.242,90.932h23.2a.45.45,0,0,1,.442.541L64.12,95.2H54.935a2.867,2.867,0,0,0-2.864,2.864v2.769a2.844,2.844,0,0,0,.569,1.706,2.845,2.845,0,0,0-.569,1.706V106.5a3.363,3.363,0,0,0,.171,1.06H36.41l3.125-15.238a1.747,1.747,0,0,1,1.706-1.391ZM25.377,107.561a.937.937,0,0,1,0-1.874H34.43l-.384,1.874Zm-15.52-20.1H28.9v15.909H26.624a4.589,4.589,0,0,0-2.8-1.243L9.856,101.062Zm26.575,6.379v2.092l-1.526,7.438H31.212v-15.8A6.388,6.388,0,0,1,36.431,93.841ZM30.813,75.266H29.705V72.433h1.107a1.416,1.416,0,0,1,0,2.833ZM15.954,51.287a3.343,3.343,0,1,1-3.343,3.343A3.347,3.347,0,0,1,15.954,51.287ZM8.266,66.448a6.166,6.166,0,0,1,6.159-6.159h9.9a6.166,6.166,0,0,1,6.159,6.159v1.4a2.262,2.262,0,0,1-.849,1.773,4.266,4.266,0,0,0-4.191-3.5H13.306a4.266,4.266,0,0,0-4.191,3.5,2.262,2.262,0,0,1-.849-1.773v-1.4Zm-.327,8.819a1.416,1.416,0,1,1,0-2.833H9.046v2.833Zm7.848,6.013H14.88a3.522,3.522,0,0,1-3.518-3.518V70.378a1.946,1.946,0,0,1,1.944-1.944H25.445a1.947,1.947,0,0,1,1.944,1.944v7.383a3.522,3.522,0,0,1-3.518,3.518h-.907a1.158,1.158,0,0,0-1.158,1.158v2.709H16.944V82.437a1.158,1.158,0,0,0-1.158-1.158ZM2.316,93.844A6.383,6.383,0,0,1,7.54,87.567v14.568a1.166,1.166,0,0,0,1.071,1.154l14.409,1.1a3.234,3.234,0,0,0-.756,3.171H3.367a1.062,1.062,0,0,1-1.051-1.06Zm53.131,13.717a1.061,1.061,0,0,1-1.06-1.06v-2.257a.548.548,0,0,1,.548-.548H76.184a.548.548,0,0,1,.548.548V106.5a1.061,1.061,0,0,1-1.06,1.06Z" transform="translate(0 -46.885)"/>
        <path id="Path_1033557" data-name="Path 1033557" d="M322.718,35.46H296.734a3.933,3.933,0,0,0-3.929,3.929V64.32a3.933,3.933,0,0,0,3.929,3.929h9.534l1.692,5.42a2.016,2.016,0,0,0,3.85,0l1.945-6.233a1.158,1.158,0,0,0-2.211-.69l-1.66,5.317-1.66-5.317a1.158,1.158,0,0,0-1.105-.813H296.734a1.615,1.615,0,0,1-1.613-1.613V39.389a1.615,1.615,0,0,1,1.613-1.613h25.984a1.615,1.615,0,0,1,1.613,1.613V64.32a1.615,1.615,0,0,1-1.613,1.613h-4.654a1.158,1.158,0,1,0,0,2.316h4.654a3.933,3.933,0,0,0,3.929-3.929V39.389A3.933,3.933,0,0,0,322.718,35.46Z" transform="translate(-247.599 -35.46)"/>
        <path id="Path_1033558" data-name="Path 1033558" d="M354.813,86.141V67.482a2.626,2.626,0,0,0-2.623-2.623H336.178a2.626,2.626,0,0,0-2.623,2.623V86.141a2.626,2.626,0,0,0,2.623,2.623h16.013A2.626,2.626,0,0,0,354.813,86.141Zm-18.943,0V67.482a.307.307,0,0,1,.307-.307h16.013a.307.307,0,0,1,.307.307V86.141a.307.307,0,0,1-.307.307H336.178A.307.307,0,0,1,335.871,86.141Z" transform="translate(-282.058 -60.32)"/>
        <path id="Path_1033559" data-name="Path 1033559" d="M371.627,90.858H360.713a1.158,1.158,0,0,0-1.158,1.158v4.407a1.158,1.158,0,0,0,1.158,1.158h10.915a1.158,1.158,0,0,0,1.158-1.158V92.016A1.158,1.158,0,0,0,371.627,90.858Zm-1.158,4.408h-8.6V93.174h8.6Z" transform="translate(-304.044 -82.305)"/>
        <path id="Path_1033560" data-name="Path 1033560" d="M431.408,147.332a1.158,1.158,0,0,0-1.158,1.158v4.257a1.158,1.158,0,1,0,2.316,0V148.49A1.158,1.158,0,0,0,431.408,147.332Z" transform="translate(-363.824 -130.06)"/>
        <g id="Group_1184879" data-name="Group 1184879" transform="translate(55.511 17.272)">
          <g id="Group_1184877" data-name="Group 1184877">
            <circle id="Ellipse_13832" data-name="Ellipse 13832" cx="1.158" cy="1.158" r="1.158"/>
            <circle id="Ellipse_13833" data-name="Ellipse 13833" cx="1.158" cy="1.158" r="1.158" transform="translate(5.457)"/>
          </g>
          <g id="Group_1184878" data-name="Group 1184878" transform="translate(0 4.256)">
            <circle id="Ellipse_13834" data-name="Ellipse 13834" cx="1.158" cy="1.158" r="1.158"/>
            <circle id="Ellipse_13835" data-name="Ellipse 13835" cx="1.158" cy="1.158" r="1.158" transform="translate(5.457)"/>
          </g>
        </g>
      </g>
    </g>
  </g>
</svg>
