<svg xmlns="http://www.w3.org/2000/svg" xmlns:xlink="http://www.w3.org/1999/xlink" width="292" height="208.001" viewBox="0 0 292 208.001">
  <defs>
    <clipPath id="clip-path">
      <rect id="Rectangle_459350" data-name="Rectangle 459350" width="287.859" height="147.648" fill="none"/>
    </clipPath>
  </defs>
  <g id="img30" transform="translate(-186.26 -13503)">
    <path id="Rectangle_458896" data-name="Rectangle 458896" d="M20,0H272a20,20,0,0,1,20,20V208a0,0,0,0,1,0,0H0a0,0,0,0,1,0,0V20A20,20,0,0,1,20,0Z" transform="translate(186.26 13503)" fill="#ff9e74"/>
    <circle id="Ellipse_13780" data-name="Ellipse 13780" cx="79.5" cy="79.5" r="79.5" transform="translate(205.26 13517)" fill="#ffd8c7"/>
    <circle id="Ellipse_13781" data-name="Ellipse 13781" cx="47.5" cy="47.5" r="47.5" transform="translate(350.26 13575)" fill="#ffd8c7"/>
    <g id="Group_1184441" data-name="Group 1184441" transform="translate(190.141 13563.349)">
      <path id="Path_1031556" data-name="Path 1031556" d="M111.367,971.165H61.3l.885-24.565.026-.742.006-.154,41.169-1.881,5.912-.27.172,2.292.755,10.083v.015l.273,3.663h0l.12,1.594Z" transform="translate(-53.514 -823.665)" fill="#e2b897"/>
      <g id="Group_1184442" data-name="Group 1184442" transform="translate(0 0.004)">
        <g id="Group_1184441-2" data-name="Group 1184441" transform="translate(0 0)" clip-path="url(#clip-path)">
          <path id="Path_1031557" data-name="Path 1031557" d="M87.37,985.943H61.147l.471-24.965.01-.5.45.155,4.8,1.648,11.92,4.095.02.006,7.9,2.712Z" transform="translate(-53.378 -838.447)" fill="#e2b897"/>
          <path id="Path_1031558" data-name="Path 1031558" d="M206.218,372.44l-14.389,1.686-.353-9.688-.025-.667L191.4,362.5l11.773-1.38.766-.089.644,3.231Z" transform="translate(-167.086 -315.157)" fill="#f8bd8c"/>
          <path id="Path_1031559" data-name="Path 1031559" d="M42.915,422.734s-16.766,6.986-17.232,8.383-2.329,5.356-2.329,5.356,8.15,19.793,6.054,26.546-.7,17.93-.7,21.423-1.4,4.89,1.164,5.821,10.944.466,15.6,0a92.876,92.876,0,0,1,16.3.538c2.1.394,14.67-1.7,14.67-1.7s1.63-8.849,1.164-13.273.167-14.9.084-16.533.8-2.329.008-6.287,3.169-25.615,3.169-25.615l-19.327-7.044Z" transform="translate(-20.388 -366.94)" fill="#31185e"/>
          <path id="Path_1031560" data-name="Path 1031560" d="M156.508,432.7l-2.418,8.087-10.639-5.368,2.579-2.718Z" transform="translate(-125.224 -377.725)" fill="#2a1656"/>
          <path id="Path_1031561" data-name="Path 1031561" d="M152.046,439.751l-11.071-5.586,2.811-2.963H154.6Zm-10.442-5.7,10.207,5.15,2.28-7.623H143.95Z" transform="translate(-123.063 -376.415)" fill="#1d1647"/>
          <path id="Path_1031562" data-name="Path 1031562" d="M229.9,408.079l3.26,8.087,12.136-8.546-2.9-3.124Z" transform="translate(-200.686 -353.102)" fill="#2a1656"/>
          <path id="Path_1031563" data-name="Path 1031563" d="M231.311,414.978l-3.429-8.506L240.7,402.8l3.126,3.37Zm-2.918-8.256,3.092,7.667,11.762-8.282-2.67-2.878Z" transform="translate(-198.928 -351.621)" fill="#1d1647"/>
          <path id="Path_1031564" data-name="Path 1031564" d="M11.265,478.038s7.163,2.775,6.507,30.867l26.1-5.99,3.2,13.221S18.428,528.529,11,528.323-1.247,494.239.284,490.521s1.951-9.014,10.7-12.319Z" transform="translate(0 -417.301)" fill="#31185e"/>
          <path id="Path_1031565" data-name="Path 1031565" d="M346.859,661.825l6.723-2.516-1.668,10.152-5.255.263-1.151-7.19Z" transform="translate(-301.61 -575.541)" fill="#f8bd8c"/>
          <path id="Path_1031566" data-name="Path 1031566" d="M149.4,696.637,143.9,697.9l-.219-1.332-.363-2.207.376.141Z" transform="translate(-125.11 -606.142)" fill="#f8bd8c"/>
          <path id="Path_1031567" data-name="Path 1031567" d="M188.428,475.265l-4.306,30.644-27.341-3.677-3.23,13.482s37.03,8.989,44.349,6.537,3.875-36.157,1.938-40.448-3.247-7.645-5.829-8.462-5.581,1.925-5.581,1.925" transform="translate(-134.042 -413.068)" fill="#31185e"/>
          <path id="Path_1031568" data-name="Path 1031568" d="M204.908,364.258a5.5,5.5,0,0,1-3.13,3.1c-3.421,1.229-7.7-1.338-9.981-2.923l-.025-.667c.2.031.42.058.672.078a20.334,20.334,0,0,0,6.585-.622,11.749,11.749,0,0,0,4.47-2.111l.766-.089Z" transform="translate(-167.406 -315.157)" fill="#eab186"/>
          <path id="Path_1031569" data-name="Path 1031569" d="M166.037,169.276c.628,7.937-3.123,14.725-8.951,15.185s-11.062-5.6-11.689-13.537,3.588-14.745,9.416-15.206,10.6,5.621,11.224,13.558" transform="translate(-126.869 -135.913)" fill="#f8bd8c"/>
          <path id="Path_1031570" data-name="Path 1031570" d="M160.123,288.01c-5.579.829-11.047-4.937-12.221-12.863-.112-.764-.177-1.518-.214-2.263,1.3,7.7,6.688,13.245,12.165,12.435,5.03-.745,8.42-6.594,8.178-13.552.028.13.046.261.065.391,1.173,7.926-2.394,15.024-7.973,15.853" transform="translate(-128.923 -237.237)" fill="#1a1a1a"/>
          <path id="Path_1031571" data-name="Path 1031571" d="M180.358,105.451s-.066,5.9,1.4,6.753,3.148-.7,4.482-.931,4.033-.462,5.924,1.186,3.514,6.454,3.514,6.454l.415,1.61s1.106.279,1.222-1.235-.194-7.859,0-8.48a1.779,1.779,0,0,0-.582-1.941c-.7-.7-1.591-1.785-1.32-2.251s1.436-1.669.311-2.717-6.559-1.708-7.568-.776-4.773-2.639-7.8,2.329" transform="translate(-157.442 -89.632)" fill="#1a1a1a"/>
          <path id="Path_1031572" data-name="Path 1031572" d="M118.395,120.691s-5.3.582-5.414,5.239c0,0-.64,1.048-1.921,2.736s.233,4.541.582,6.229,1.067,3.085,1.029,3.59a1.418,1.418,0,0,0,1.8,1.087,2.1,2.1,0,0,0,1.068-1.424s.078-6.571,1.048-7.735a13.145,13.145,0,0,1,3.571-2.794,2.153,2.153,0,0,0,1.164-1.514c0-.116-1.2-6.481-1.2-6.481Z" transform="translate(-96.507 -104.426)" fill="#1a1a1a"/>
          <path id="Path_1031573" data-name="Path 1031573" d="M133.889,271.729c.73,1.5.462,3.135-.6,3.651s-2.511-.283-3.241-1.783-.462-3.135.6-3.651,2.511.283,3.241,1.783" transform="translate(-113.167 -235.511)" fill="#f8bd8c"/>
          <path id="Path_1031574" data-name="Path 1031574" d="M295.63,246.541c-.191,1.658-1.295,2.892-2.466,2.757s-1.966-1.588-1.775-3.245,1.295-2.892,2.466-2.758,1.966,1.588,1.775,3.245" transform="translate(-254.342 -212.376)" fill="#f8bd8c"/>
          <path id="Path_1031575" data-name="Path 1031575" d="M163.88,235.994a15.822,15.822,0,0,0-2.211.293,6.325,6.325,0,0,0-1.976.7l-.027.017a.605.605,0,0,1-.651-1.021,7.4,7.4,0,0,1,2.371-.945,17.06,17.06,0,0,1,2.407-.392.676.676,0,1,1,.126,1.346l-.018,0Z" transform="translate(-138.573 -204.829)" fill="#1a1a1a"/>
          <path id="Path_1031576" data-name="Path 1031576" d="M182.1,261.617a.906.906,0,1,1-1.038-.917.986.986,0,0,1,1.038.917" transform="translate(-157.413 -227.57)" fill="#1a1a1a"/>
          <path id="Path_1031577" data-name="Path 1031577" d="M242.069,229.2a15.826,15.826,0,0,1,2.219-.216,6.326,6.326,0,0,1,2.083.233l.03.01a.605.605,0,0,0,.4-1.142,7.4,7.4,0,0,0-2.524-.383,17.05,17.05,0,0,0-2.433.165.676.676,0,1,0,.182,1.34l.017,0Z" transform="translate(-210.608 -198.773)" fill="#1a1a1a"/>
          <path id="Path_1031578" data-name="Path 1031578" d="M257.453,252.725a.906.906,0,1,0,.8-1.128.986.986,0,0,0-.8,1.128" transform="translate(-224.738 -219.628)" fill="#1a1a1a"/>
          <path id="Path_1031579" data-name="Path 1031579" d="M204.793,342.228c.307.208,1.372-.049,1.717-.122a2.633,2.633,0,0,0,1.626-.856c.421-.581.225-1.458.173-2.121-.015-.19.017-.713-.139-.869l1.552-.233a10.656,10.656,0,0,0,.34,2.366,1.525,1.525,0,0,0,1.116.857,4.862,4.862,0,0,0,1.518.1c.123-.009,1.326-.112,1.337-.238a.471.471,0,0,1-.162.269,30.462,30.462,0,0,1-2.519,2.234s-4.114.349-4.23.233-2.325-1.617-2.329-1.62" transform="translate(-178.773 -295.079)" fill="#1a1a1a"/>
          <path id="Path_1031580" data-name="Path 1031580" d="M213.386,321.245a4.552,4.552,0,0,1-3.13,2.04c-1.919.372-3.707-.28-4.4-1.49,0-.019.019-.037.037-.056a4.678,4.678,0,0,1,.764-.531l5.635-.671a1.5,1.5,0,0,1,1.09.708" transform="translate(-179.704 -279.812)" fill="#fcfcfc"/>
          <path id="Path_1031581" data-name="Path 1031581" d="M200.381,323.356c-.121-1.173-.457-4.93.034-6.048v-.076l.167-.189a5.125,5.125,0,0,1,.875-.616,7,7,0,0,1,3.282-.886,12.3,12.3,0,0,1,1.981.068l.158.019c.182.021.36.043.538.082a1.958,1.958,0,0,1,1.393.928,7.18,7.18,0,0,1,.713,2.066c.041.178.083.355.127.531a8.146,8.146,0,0,1,.263,2.864l-.926-.095a7.278,7.278,0,0,0-.24-2.54c-.045-.18-.088-.364-.132-.549a6.325,6.325,0,0,0-.61-1.807,1.037,1.037,0,0,0-.784-.488,4.548,4.548,0,0,0-.45-.067l-.163-.019a11.427,11.427,0,0,0-1.831-.062,6.089,6.089,0,0,0-2.859.765,4.17,4.17,0,0,0-.65.443l-.007.01c-.271.415-.195,3.216.046,5.571Z" transform="translate(-174.725 -275.439)" fill="#1a1a1a"/>
          <path id="Path_1031582" data-name="Path 1031582" d="M222,264.065a.127.127,0,0,1-.06-.239l1-.533a.781.781,0,0,0,.452-.782l-.508-3.528a.127.127,0,0,1,.252-.036l.508,3.528a1.032,1.032,0,0,1-.584,1.042l-1,.533a.128.128,0,0,1-.06.015" transform="translate(-193.679 -225.951)" fill="#1a1a1a"/>
          <path id="Path_1031583" data-name="Path 1031583" d="M206.921,1020.076a.254.254,0,0,1-.254-.248c-.1-4.207-.358-11.042-.633-11.772a69.438,69.438,0,0,0-7.8-2.661.254.254,0,0,1,.144-.487c.281.083,6.9,2.048,7.981,2.749.168.109.378.246.628,6.283.121,2.922.191,5.847.192,5.876a.254.254,0,0,1-.248.26h-.006" transform="translate(-172.884 -877.221)" fill="#666b6d"/>
          <path id="Path_1031584" data-name="Path 1031584" d="M136.26,631.71a.254.254,0,0,1-.254-.242c-.037-.756-1.055-12.826-1.065-12.947a.254.254,0,1,1,.506-.043c.039.463.9,10.619,1.045,12.652,1.424-.381,7.541-2.01,9.989-2.494a.254.254,0,0,1,.1.5c-2.748.544-10.179,2.546-10.254,2.566a.25.25,0,0,1-.066.009" transform="translate(-117.796 -539.694)" fill="#1d1647"/>
          <path id="Path_1031585" data-name="Path 1031585" d="M35.225,789.292a7.034,7.034,0,0,1-2.147-.281c-3.646-1.194-6.14-10.992-6.244-11.408a.254.254,0,0,1,.493-.124c.025.1,2.529,9.941,5.909,11.049,3.432,1.124,11.7-1.806,11.785-1.836a.254.254,0,1,1,.171.479c-.288.1-5.987,2.122-9.967,2.122" transform="translate(-23.418 -678.529)" fill="#1d1647"/>
          <path id="Path_1031586" data-name="Path 1031586" d="M247.953,796.414a.254.254,0,0,1-.114-.481l7.733-3.875a.254.254,0,1,1,.228.454l-7.733,3.875a.252.252,0,0,1-.114.027" transform="translate(-216.228 -691.399)" fill="#1d1647"/>
          <path id="Path_1031587" data-name="Path 1031587" d="M390.489,636.618a.254.254,0,0,1-.251-.294l2.137-13.334a.254.254,0,1,1,.5.08L390.739,636.4a.254.254,0,0,1-.251.214" transform="translate(-340.653 -543.649)" fill="#1d1647"/>
          <path id="Path_1031588" data-name="Path 1031588" d="M332.033,844.063l-.039,0-12.81-1.988a.254.254,0,1,1,.078-.5l12.81,1.988a.254.254,0,0,1-.039.505" transform="translate(-278.442 -734.641)" fill="#1d1647"/>
          <path id="Path_1031589" data-name="Path 1031589" d="M910.541,245.867l-2.309,8.434,4.979,5.83,7.114-3.566-.3-8.885Z" transform="translate(-792.836 -214.628)" fill="#f8bd8c"/>
          <path id="Path_1031590" data-name="Path 1031590" d="M980.712,831.688v41.826H959.5V832.748l19.822-.99Z" transform="translate(-837.59 -726.018)" fill="#31185e"/>
          <path id="Path_1031591" data-name="Path 1031591" d="M782.882,846.987l-.726,2.008-.715,1.982-2.4,6.654-3.052,8.448-4.9,20.792H751.9c.011.059.016.088.016.088l-2.635.064.018-.152,1.058-8.515.155-1.249.414-3.341.389-3.126.293-2.363,1.373-11.061.374-3.01.9-7.217Z" transform="translate(-654.077 -739.373)" fill="#31185e"/>
          <path id="Path_1031592" data-name="Path 1031592" d="M675.684,300.054s-10.429,6.367-15.025,8.6a20.89,20.89,0,0,0-8.662,7.4c-1.061,1.893-3.535,3.614-3.359,4.818s-4.066,6.367-4.95,10.669-2.475,18.584-2.475,19.1,2.828,12.389,2.828,12.389,8.308,8.259,10.076,10.152,7.071,4.99,7.778,4.99,5.126-2.925,4.95-5.851-1.414-11.357-2.652-12.733a24.116,24.116,0,0,1-3.044-3.49,8.316,8.316,0,0,1-.668-1.328c-.884-2.237,1.591-7.571,1.591-7.571s7.955-18.928,7.6-21.509,2.3-11.7,1.591-14.11,4.419-11.529,4.419-11.529" transform="translate(-559.744 -261.931)" fill="#c5a2fd"/>
          <path id="Path_1031593" data-name="Path 1031593" d="M797.307,323.274s1.768,24.272,1.591,28.4-1.036,6.539.012,11.185.543,6.023,0,7.743-7.26,1.549-7.26,1.549l-31.476-1.833-11.832-17.1,15.379-47.837,5.48-5.334s6.275,5.334,11.49,2.151c0,0,14.495,8.174,16.528,9.722s.088,11.348.088,11.348" transform="translate(-653.261 -261.93)" fill="#c5a2fd"/>
          <path id="Path_1031594" data-name="Path 1031594" d="M1116.027,398.468s5.067,5.048,4.949,8.374,1.3,15.716,1.061,19.272.354,3.671.825,6.309,2.416,7.915,2.593,13.766,2.74,10.066.972,12.992a12.227,12.227,0,0,1-3.093,3.785s-.442-4.464-1.237-4.9-4.583-1.553-4.583-1.553l-4.2-46.345Z" transform="translate(-971.863 -347.841)" fill="#c5a2fd"/>
          <path id="Path_1031595" data-name="Path 1031595" d="M917.126,251.3c-.509-1.185,3.389,6.563,7.369,6.128,3.413-.372,3.554-6.681,3.554-6.681s-1.212,1.993-4.814,2a11.328,11.328,0,0,1-6.11-1.444" transform="translate(-800.561 -218.89)" fill="#eab186"/>
          <path id="Path_1031596" data-name="Path 1031596" d="M1026.6,154.065c-.092,1.7-1.221,3.026-2.521,2.955s-2.28-1.507-2.188-3.21,1.221-3.025,2.521-2.955,2.28,1.507,2.188,3.21" transform="translate(-892.05 -131.687)" fill="#f2b588"/>
          <path id="Path_1031597" data-name="Path 1031597" d="M878.333,145.868c-.092,1.7-1.221,3.026-2.521,2.955s-2.28-1.507-2.188-3.21,1.221-3.025,2.521-2.955,2.28,1.507,2.188,3.21" transform="translate(-762.619 -124.531)" fill="#f2b588"/>
          <path id="Path_1031598" data-name="Path 1031598" d="M906.04,77.19c-1.234,7.248-5.437,13.476-11.23,13.163s-8.833-5.707-9.747-14.3c-.8-7.534,5.437-13.476,11.23-13.163s11.02,6.819,9.747,14.3" transform="translate(-772.55 -54.894)" fill="#f8bd8c"/>
          <path id="Path_1031599" data-name="Path 1031599" d="M876.174,10.855c.017.48-.057,1.251-.011,1.484a2.245,2.245,0,0,0,1.01,1.56,2.7,2.7,0,0,0,1.234.247c1.539.04,3.146-.622,4.623-.554a3.722,3.722,0,0,1,1.772.909,5.788,5.788,0,0,0,3.031.545c1.007,1.407,1.1,3.5,2.129,4.8a6.343,6.343,0,0,0,.7-.551c1.38-1.161,1.461-1.372,1.014-3.194-.358-1.458.623-2.082,1.119-3.25.682-1.6,1.867-3.088.659-4.337a17.475,17.475,0,0,1-3.71-5.053c-.558-1.185-1.307-2.48-2.53-2.708-1.973-.368-3.475,1.8-5.461.477A5.745,5.745,0,0,0,879.49.021a3.437,3.437,0,0,0-2.453.921,13.169,13.169,0,0,1-2.745,1.985c-1.719.747-3.7,1.046-5.106,2.441a9.383,9.383,0,0,0-1.94,3.446,14.265,14.265,0,0,0-1.222,3.41c-.118,1.28.627,4.021,1.64,4.83a3.836,3.836,0,0,1,.85,1.325s1.557-2.865,1.819-3.519a9.792,9.792,0,0,1,2.427-2.966,10.774,10.774,0,0,1,1.876-1.173c.46-.215,1.51-.725,1.54.135" transform="translate(-755.979 -0.004)" fill="#31185e"/>
          <path id="Path_1031600" data-name="Path 1031600" d="M918.329,157.537a.913.913,0,1,1-.862-.961.913.913,0,0,1,.862.961" transform="translate(-800.058 -136.681)" fill="#1b191b"/>
          <path id="Path_1031601" data-name="Path 1031601" d="M1004.025,162.163a.913.913,0,1,1-.862-.961.913.913,0,0,1,.862.961" transform="translate(-874.865 -140.72)" fill="#1b191b"/>
          <path id="Path_1031602" data-name="Path 1031602" d="M902.257,131.569a.612.612,0,0,1-.231-1.176,6.374,6.374,0,0,1,5.263,0,.612.612,0,0,1-.58,1.077,5.152,5.152,0,0,0-4.213.055.632.632,0,0,1-.239.046" transform="translate(-787.09 -113.34)" fill="#31185e"/>
          <path id="Path_1031603" data-name="Path 1031603" d="M989.711,135.629a.612.612,0,0,1-.157-1.188,6.375,6.375,0,0,1,5.253.33.612.612,0,0,1-.647,1.038,5.152,5.152,0,0,0-4.208-.211.629.629,0,0,1-.241.031" transform="translate(-863.466 -117.012)" fill="#31185e"/>
          <path id="Path_1031604" data-name="Path 1031604" d="M907.543,141.709h0a.643.643,0,0,0-.175-.348.5.5,0,0,0-.071-.061,0,0,0,0,0,0,0,.622.622,0,0,0-.158-.088,6.666,6.666,0,0,0-.906-.262c-.231-.052-.6-.123-1.059-.195-.439-.071-.958-.145-1.513-.206h0a22.67,22.67,0,0,0-2.472-.151h0a10.927,10.927,0,0,0-1.255.069c-.127.016-.246.032-.357.049-1.461.224-1.527.583-1.515.783a.037.037,0,0,1-.058.034,2.4,2.4,0,0,0-2.065-.112.038.038,0,0,1-.054-.041c.037-.211,0-.616-1.773-1.029-.034-.009-.07-.016-.105-.023a11.938,11.938,0,0,0-1.487-.213h0c-.619-.055-1.265-.079-1.879-.082h0c-.908-.007-1.745.029-2.327.071-.224.016-.409.032-.547.048a7.421,7.421,0,0,0-.982.173.583.583,0,0,0-.3.188h0a.61.61,0,0,0-.156.377c0,.011,0,.023,0,.034a.606.606,0,0,0,.36.566.654.654,0,0,1,.276.219c.224.3.282.555.551.681a.034.034,0,0,1,.022.034,7.285,7.285,0,0,0,.2,2.369,2.679,2.679,0,0,0,.678,1.17,2.871,2.871,0,0,0,1.153.665,6.059,6.059,0,0,0,1.542.274,5.657,5.657,0,0,0,1.6-.124,3.1,3.1,0,0,0,2.2-2.063,7.314,7.314,0,0,0,.473-2.516.227.227,0,0,0,.229-.053h.01a.4.4,0,0,0,.048-.043,2.1,2.1,0,0,1,2.539.136c.012.018,0,.033.011.048h-.024a.3.3,0,0,0,.21.083.039.039,0,0,1,.042.042,7.622,7.622,0,0,0,.228,2.507,3.1,3.1,0,0,0,1.976,2.288,5.69,5.69,0,0,0,1.58.3,6.077,6.077,0,0,0,1.561-.107,3.36,3.36,0,0,0,.8-.273,2.534,2.534,0,0,0,1.215-1.356,7.263,7.263,0,0,0,.447-2.333.035.035,0,0,1,.026-.033c.279-.1.339-.344.594-.619a.683.683,0,0,1,.266-.181.626.626,0,0,0,.256-.172.638.638,0,0,0,.13-.226.626.626,0,0,0,.032-.165c0-.011,0-.022,0-.034a.614.614,0,0,0-.007-.1m-12.853,2.738a2.884,2.884,0,0,1-2.05,1.928,6,6,0,0,1-3.012-.146,2.669,2.669,0,0,1-1.077-.619,2.488,2.488,0,0,1-.612-1.076,7.219,7.219,0,0,1-.167-2.493v0a2.353,2.353,0,0,1,.71-1.282,1.109,1.109,0,0,1,.2-.12,7.308,7.308,0,0,1,3.993-.153c1.6.349,2.2.77,2.432,1.239.007.017.017.033.026.049a6.205,6.205,0,0,1-.444,2.678m11.339-1.419a7.218,7.218,0,0,1-.435,2.46,2.3,2.3,0,0,1-1.176,1.282,3.151,3.151,0,0,1-.684.222,6,6,0,0,1-3.011-.18,2.889,2.889,0,0,1-1.831-2.137,6.207,6.207,0,0,1-.152-2.711.406.406,0,0,0,.031-.045c.281-.441.925-.794,2.55-.969a7.648,7.648,0,0,1,3.787.494c.06.028.115.059.167.088a2.057,2.057,0,0,1,.755,1.492Z" transform="translate(-773.705 -122.064)" fill="#1b191b"/>
          <path id="Path_1031605" data-name="Path 1031605" d="M949.369,232.608a3.709,3.709,0,0,1-1.928-.531.1.1,0,1,1,.108-.157,3.565,3.565,0,0,0,4.084-.28.1.1,0,0,1,.111.155,4.014,4.014,0,0,1-2.376.813" transform="translate(-827.028 -202.193)"/>
          <path id="Path_1031606" data-name="Path 1031606" d="M960.915,192.986a.1.1,0,0,1-.051-.015c-.019-.012-.46-.3-.5-.649-.032-.314.1-1.913.105-1.981a.1.1,0,1,1,.19.016c-.047.569-.13,1.708-.106,1.946.022.216.3.44.409.507a.1.1,0,0,1-.051.176" transform="translate(-838.344 -166.082)"/>
          <path id="Path_1031607" data-name="Path 1031607" d="M783.3,525.7a.254.254,0,0,1-.229-.363c.277-.585,2.591-7.516,2.631-8.05a.254.254,0,0,1,.507.038c-.047.635-2.431,7.708-2.678,8.23a.254.254,0,0,1-.23.146" transform="translate(-683.555 -451.357)" fill="#9e4aff"/>
          <path id="Path_1031608" data-name="Path 1031608" d="M927.453,308.086a10.492,10.492,0,0,1-3.589-.7c-.185-.067-2.77-1.385-3.287-1.649a.254.254,0,0,1,.231-.453c1.169.6,3.08,1.565,3.231,1.625,4.521,1.647,6.685-.327,6.706-.347a.254.254,0,0,1,.351.368,5.373,5.373,0,0,1-3.644,1.153" transform="translate(-803.493 -266.476)" fill="#9e4aff"/>
          <path id="Path_1031609" data-name="Path 1031609" d="M957.758,937.705a.254.254,0,0,1-.239-.341l3.051-8.449a.254.254,0,0,1,.478.173L958,937.537a.254.254,0,0,1-.239.168" transform="translate(-835.848 -810.746)" fill="#9e4aff"/>
          <path id="Path_1031610" data-name="Path 1031610" d="M1554.385,290.392l-15.207.269,1.075-12.428h12.788Z" transform="translate(-1343.618 -242.883)" fill="#f8bd8c"/>
          <path id="Path_1031611" data-name="Path 1031611" d="M1531.522,103.827c0,8.12-4.889,14.7-10.919,14.7s-10.919-6.583-10.919-14.7c0-3.371-.81-8.536.607-11.016,2-3.494,6.785-3.687,10.312-3.687,3.509,0,7.661-.817,9.659,2.646,1.436,2.489,1.26,8.661,1.26,12.057" transform="translate(-1317.669 -77.728)" fill="#1a1a1a"/>
          <path id="Path_1031612" data-name="Path 1031612" d="M1511.63,30.469s1.165-11.4-.627-13.28-.793-2.423-2.726-2.961-1.961-1.525-5.146-1.525a16.763,16.763,0,0,0-3.863-.359c-.985,0-2.6-.808-4.882.449s-3.74-.494-5.386,1.626-2.273.976-3.707,4.3.448,4.935.806,8.525a16.054,16.054,0,0,0,2.242,6.461l22.778-.731Z" transform="translate(-1296.115 -10.552)" fill="#1a1a1a"/>
          <path id="Path_1031613" data-name="Path 1031613" d="M1531.522,85.053c0,8.12-4.889,14.7-10.919,14.7s-10.919-6.583-10.919-14.7c0-3.371-.81-8.536.607-11.016,2-3.494,6.785-3.687,10.312-3.687,3.509,0,7.661-.817,9.659,2.646,1.436,2.489,1.26,8.661,1.26,12.057" transform="translate(-1317.669 -61.339)" fill="#f8bd8c"/>
          <path id="Path_1031614" data-name="Path 1031614" d="M1501.029,172.787c.141,1.725-.643,3.2-1.753,3.289s-2.124-1.233-2.265-2.958.643-3.2,1.752-3.289,2.124,1.233,2.265,2.958" transform="translate(-1306.794 -148.247)" fill="#f8bd8c"/>
          <path id="Path_1031615" data-name="Path 1031615" d="M1663.814,172.75c-.25,1.713.44,3.232,1.541,3.394s2.2-1.1,2.447-2.809-.44-3.232-1.541-3.394-2.2,1.1-2.448,2.809" transform="translate(-1452.372 -148.337)" fill="#f8bd8c"/>
          <path id="Path_1031616" data-name="Path 1031616" d="M1530.846,128.683c-.264-.008-.495,0-.74.009s-.482.027-.722.049c-.48.046-.959.113-1.436.206a10.938,10.938,0,0,0-1.422.376,6.61,6.61,0,0,0-1.363.653.567.567,0,0,0,.462,1.022l.03-.008c.4-.115.819-.206,1.241-.284s.856-.132,1.291-.178.877-.073,1.318-.093c.221-.011.442-.018.662-.025s.448-.009.646-.012h.024a.858.858,0,0,0,.01-1.715" transform="translate(-1331.156 -112.33)" fill="#1a1a1a"/>
          <path id="Path_1031617" data-name="Path 1031617" d="M1616.674,129.977a6.6,6.6,0,0,0-1.363-.653,10.911,10.911,0,0,0-1.422-.376c-.477-.094-.956-.16-1.436-.206-.24-.022-.48-.041-.721-.049s-.476-.017-.74-.009A.858.858,0,0,0,1611,130.4h.022c.2,0,.429,0,.645.012s.441.014.662.025c.441.02.881.051,1.318.093s.866.106,1.291.178.836.169,1.241.284l.03.009a.567.567,0,0,0,.461-1.022" transform="translate(-1405.581 -112.33)" fill="#1a1a1a"/>
          <path id="Path_1031618" data-name="Path 1031618" d="M1549.23,167.634a.814.814,0,1,1-.8-.987.907.907,0,0,1,.8.987" transform="translate(-1351.004 -145.474)" fill="#1a1a1a"/>
          <path id="Path_1031619" data-name="Path 1031619" d="M1630.93,167.634a.814.814,0,1,1-.8-.987.907.907,0,0,1,.8.987" transform="translate(-1422.324 -145.474)" fill="#1a1a1a"/>
          <path id="Path_1031620" data-name="Path 1031620" d="M1587.512,192.7h0c-.117-.005-1.146-.061-1.378-.389a.257.257,0,0,1-.037-.231c.141-.462.667-3.518.672-3.549a.064.064,0,0,1,.125.022c-.022.126-.533,3.095-.676,3.564a.13.13,0,0,0,.019.121c.167.236.981.322,1.28.336a.064.064,0,0,1,0,.127" transform="translate(-1384.561 -164.528)" fill="#2c2a30"/>
          <path id="Path_1031621" data-name="Path 1031621" d="M1500.735,47.162s2.444,3.517,4.722,2.9,3.573-3.226,4.653-2.045,2.951.99,4.413.069.983.262,2.9.563,2.851-.294,4.255,1.486,2.844.93,2.364-1.486-3.741-7.6-6.62-6.122-16.69,4.636-16.69,4.636" transform="translate(-1310.059 -36.894)" fill="#1a1a1a"/>
          <path id="Path_1031622" data-name="Path 1031622" d="M1527.775,144.141c-.046-.013-.094-.025-.142-.035a14.523,14.523,0,0,0-2.355-.325,21.848,21.848,0,0,0-2.485-.01h0a16.243,16.243,0,0,0-3.843.591,4.594,4.594,0,0,1-4.342,0,17.025,17.025,0,0,0-4.26-.609h0a20.878,20.878,0,0,0-2.595.069,13.178,13.178,0,0,0-1.982.322h-.006c-.194.048-.38.1-.561.158l.088,1.626a.635.635,0,0,1,.46.1.552.552,0,0,1,.105.1.754.754,0,0,1,.143.277c.04.136.094.37.161.662.1.435.23,1,.4,1.551a5.613,5.613,0,0,0,.775,1.745,2.5,2.5,0,0,0,.84.669,7.275,7.275,0,0,0,3.44.493,3.571,3.571,0,0,0,3.521-2.26c.12-.325.228-.639.326-.933a8.06,8.06,0,0,1,.794-1.986.756.756,0,0,1,1.058,0,7.5,7.5,0,0,1,.765,1.9c.107.319.224.661.355,1.016a3.571,3.571,0,0,0,3.521,2.26,7.324,7.324,0,0,0,3.422-.484,2.49,2.49,0,0,0,.857-.678,7.262,7.262,0,0,0,.958-2.407c.08-.309.148-.6.207-.857.07-.306.125-.554.168-.695a.7.7,0,0,1,.2-.336.3.3,0,0,1,.053-.04.628.628,0,0,1,.455-.093l.088-1.626c-.186-.06-.379-.114-.578-.162m-13.464,5.118a3.029,3.029,0,0,1-2.543,1.548,6.162,6.162,0,0,1-3.449-.528,1.13,1.13,0,0,1-.12-.083,3.283,3.283,0,0,1-.844-1.609c-.068-.245-.121-.479-.163-.679-.023-.11-.049-.239-.074-.381h0c-.142-.815-.244-2.047.406-2.5.762-.529,2.68-.569,3.951-.49.958.059,3.031.314,3.422,1.058a4.761,4.761,0,0,1-.233,2.756,5.659,5.659,0,0,1-.353.907m12.047-1.352-.015.07a4.29,4.29,0,0,1-.982,2.208.946.946,0,0,1-.131.093,6.163,6.163,0,0,1-3.449.528,3.027,3.027,0,0,1-2.543-1.548,6,6,0,0,1-.395-1.041,4.576,4.576,0,0,1-.192-2.623c.392-.744,2.464-1,3.423-1.058,1.271-.078,3.189-.039,3.951.49.687.477.532,1.832.38,2.639-.016.087-.033.168-.048.24" transform="translate(-1313.953 -125.477)" fill="#1a1a1a"/>
          <path id="Path_1031623" data-name="Path 1031623" d="M1776.3,376.015s9.006,3.728,10.845,5.9,8.088,20.741,8.088,30.484,1.471,24.7,0,27.516-8.088,16.777-12.5,20-6.219,2.98-6.219,2.98l-1.079-14.5,4.725-22.941-2.4-34.568Z" transform="translate(-1549.858 -328.241)" fill="#e2b897"/>
          <path id="Path_1031624" data-name="Path 1031624" d="M1426.3,953.562c-.452,2.112-1.027,10.394-1.552,19.5-.021.383-.043.765-.065,1.15h-22.831c-.25-13.859.216-27.17.216-27.17s.214.011.6.034c.2.013.442.028.727.048l.083.006h.015c2.072.142,6.119.471,10.238,1.08,2.152.319,4.325.715,6.245,1.2,2.7.682,4.895,1.542,5.846,2.619a2.486,2.486,0,0,1,.18.227h0c.036.051.069.1.1.154a1.563,1.563,0,0,1,.195,1.146" transform="translate(-1223.677 -826.717)" fill="#755faa"/>
          <path id="Path_1031625" data-name="Path 1031625" d="M1518.972,965.7v24.8H1493.7l-.219-.979-.093-.17-4.969-9.127-5.7-10.33-.94-1.7-.107-.194-1.266-2.294Z" transform="translate(-1292.313 -843.002)" fill="#755faa"/>
          <path id="Path_1031626" data-name="Path 1031626" d="M1379.221,326.258h15.207l1.971,3.555,13.706,2.726s9.138,4.385,9.406,5.1,3.494,37.447,2.15,46.453-.537,18.961-1.881,23.464-55.631,1.9-55.631,1.9-11.019-66.836-7.525-69.917,21.052-7.861,21.634-8.888a18.664,18.664,0,0,0,.963-4.385" transform="translate(-1183.66 -284.806)" fill="#ff7c90"/>
          <path id="Path_1031627" data-name="Path 1031627" d="M1421.659,410.9c-1.343,9.065-.537,19.084-1.881,23.616-.484,1.632-7.585,3.845-16.792,4.078-6.972.176-15.13-1.877-22.06-2.043l-1.553-.035c-8.592-.178-15.226-.091-15.226-.091s-11.018-67.272-7.525-70.374c3.065-2.72,16.949-6.755,20.708-8.4l10.9,19.237,9.518-20.345,12.358,2.474s9.138,4.413,9.406,5.128,3.494,37.691,2.15,46.757" transform="translate(-1183.659 -311.244)" fill="#e2b897"/>
          <path id="Path_1031628" data-name="Path 1031628" d="M1774.5,572.654a.254.254,0,0,1-.254-.25l-.161-11.519c-.02-1.437-.642-5.8-.648-5.846a.254.254,0,1,1,.5-.072c.026.181.633,4.441.654,5.911l.161,11.519a.254.254,0,0,1-.251.258Z" transform="translate(-1548.112 -484.265)" fill="#b08174"/>
          <path id="Path_1031629" data-name="Path 1031629" d="M1567.719,250.589c.241,1.244,1.94,2.123,3.9,1.983,1.7-.122,3.054-.975,3.369-2.023Z" transform="translate(-1368.532 -218.715)" fill="#fff"/>
          <path id="Path_1031630" data-name="Path 1031630" d="M1573.931,422.16a.254.254,0,0,1-.221-.129l-5.183-9.15a.254.254,0,0,1,.442-.25l4.941,8.722,6.134-13.113a.254.254,0,0,1,.46.215l-6.343,13.559a.254.254,0,0,1-.22.146h-.01" transform="translate(-1369.208 -356.243)" fill="#b08174"/>
          <path id="Path_1031631" data-name="Path 1031631" d="M1532.024,984.829a54.362,54.362,0,0,1-10.394-.979,62.006,62.006,0,0,0-15.99-1.273.254.254,0,1,1-.048-.506,62.582,62.582,0,0,1,16.136,1.28,54.519,54.519,0,0,0,18.213.383.254.254,0,0,1,.115.495,48.3,48.3,0,0,1-8.032.6" transform="translate(-1314.097 -857.214)" fill="#1d1647"/>
          <path id="Path_1031632" data-name="Path 1031632" d="M1608.727,1040.687a.254.254,0,0,1-.254-.254v-6.863a.255.255,0,0,1,.006-.053l.807-3.8a.254.254,0,0,1,.5.105l-.8,3.773v6.837a.254.254,0,0,1-.254.254" transform="translate(-1404.108 -898.711)" fill="#1d1647"/>
          <path id="Path_1031633" data-name="Path 1031633" d="M536.805,278.89a8.237,8.237,0,0,1,5.993.29c3.03,1.549,4.568,3.1,5.265,16.1s.619,19.51.7,20.517-24.775.7-24.775.7V284.135Z" transform="translate(-457.41 -243.071)" fill="#0b0635"/>
          <path id="Path_1031634" data-name="Path 1031634" d="M426.341,573.413s-12.652,1.378-12.415,23.181-4.409,20.282-.609,35.811c0,0,8.6,1.739,13.524-1.775l-.5-42.884Z" transform="translate(-359.493 -500.558)" fill="#fcfcfc"/>
          <path id="Path_1031635" data-name="Path 1031635" d="M490.162,925.629l.018-.152H449.6a100.469,100.469,0,0,1,2.472-9.965c.105-.366.213-.738.322-1.11l.006-.022c.4-1.371.826-2.776,1.259-4.183l.021-.069c1.969-6.4,4.122-12.834,5.3-16.3a.009.009,0,0,0,0,0c.278-.816.5-1.467.654-1.914v0l.24-.691H486.28c.076.219.211.788.391,1.629h0q.068.314.143.679c.522,2.512,1.326,6.713,2.175,11.26,0,0,0,0,0,0,.066.353.132.7.2,1.061.38,2.039.765,4.125,1.136,6.141.043.237.086.471.129.7l.276,1.5c.007.043.016.086.023.129.085.463.169.92.25,1.369.08.433.157.857.234,1.272.819,4.493,1.438,7.932,1.543,8.515.011.059.016.088.016.088Z" transform="translate(-392.474 -777.981)" fill="#ff7c90"/>
          <path id="Path_1031636" data-name="Path 1031636" d="M486.357,569.1s-5.738,1.667-4.964,13.728-5.733,27.017,3.638,28.756l25.82-.321a4.449,4.449,0,0,0,4.394-4.449V568.827l-5.412-.939Z" transform="translate(-418.933 -495.735)" fill="#fcfcfc"/>
          <path id="Path_1031637" data-name="Path 1031637" d="M590.808,489.986l-9.342.281.321-8.023h8.557Z" transform="translate(-507.587 -420.972)" fill="#f8bd8c"/>
          <path id="Path_1031638" data-name="Path 1031638" d="M559.889,533.85h11.926a1.65,1.65,0,0,1,1.591,1.369l.677,3.448-16.408.636.609-4.008a1.655,1.655,0,0,1,1.6-1.446" transform="translate(-486.819 -466.022)" fill="#fcfcfc"/>
          <path id="Path_1031639" data-name="Path 1031639" d="M589.5,490.412a3.875,3.875,0,0,1-2.888,2.4c-2.379.267-4.7-2.372-5.845-3.833-.229-.292-.34-.536-.467-.7a5.536,5.536,0,0,0,1.052.523,11.876,11.876,0,0,0,4.19.7,6.915,6.915,0,0,0,3.134-.7l.723-.012Z" transform="translate(-506.569 -426.238)" fill="#eab186"/>
          <path id="Path_1031640" data-name="Path 1031640" d="M561.247,329.747c.2,6.45-3.641,11.8-8.584,11.959s-9.115-4.948-9.317-11.4,3.641-11.8,8.584-11.959,9.115,4.948,9.317,11.4" transform="translate(-474.304 -277.9)" fill="#f8bd8c"/>
          <path id="Path_1031641" data-name="Path 1031641" d="M673.936,398.44a2.672,2.672,0,0,1-2.114,2.625c-.955,0-1.73-1.082-1.73-2.418a2.53,2.53,0,0,1,2.225-2.418c.955,0,1.619.875,1.619,2.211" transform="translate(-584.953 -345.886)" fill="#f8bd8c"/>
          <path id="Path_1031642" data-name="Path 1031642" d="M627.776,368.975a.7.7,0,0,1-.217-.034,4.634,4.634,0,0,0-3.239-.033.7.7,0,0,1-.6-1.256,6.005,6.005,0,0,1,4.277-.036.7.7,0,0,1-.217,1.359" transform="translate(-544.129 -320.595)"/>
          <path id="Path_1031643" data-name="Path 1031643" d="M548.467,375.366a.7.7,0,0,1-.4-1.267,6,6,0,0,1,4.222-.685.7.7,0,1,1-.227,1.374,4.664,4.664,0,0,0-3.206.459.7.7,0,0,1-.388.118" transform="translate(-478.172 -325.882)"/>
          <path id="Path_1031644" data-name="Path 1031644" d="M607.975,413.185h-.7a.116.116,0,0,1-.116-.116v-2.613a.116.116,0,1,1,.232,0v2.5h.581a.116.116,0,1,1,0,.232" transform="translate(-530.019 -358.205)"/>
          <path id="Path_1031645" data-name="Path 1031645" d="M568.188,400.116a.794.794,0,1,1-.774-.973.891.891,0,0,1,.774.973" transform="translate(-494.644 -348.43)"/>
          <path id="Path_1031646" data-name="Path 1031646" d="M639.025,392.461a.794.794,0,1,1-.774-.972.891.891,0,0,1,.774.972" transform="translate(-556.482 -341.748)"/>
          <path id="Path_1031647" data-name="Path 1031647" d="M591.653,455.7a2.739,2.739,0,0,0,3.223,1.748,2.919,2.919,0,0,0,2.576-2.109Z" transform="translate(-516.48 -397.483)" fill="#fcfcfc"/>
          <path id="Path_1031648" data-name="Path 1031648" d="M507.587,270.388c2.43,4.873-3.436,6.623-5.656,9.26-2.427,2.882-4.1,8.573-3.974,12.362.357,10.339,3.852,18.626-2.965,28.088,1.413-5.746-.736-10.137-2.527-15.352-1.97-5.736-1.937-11.615-1.257-17.573.512-4.489.68-11.751,4.056-15.141,1.938-1.946,10.776-4.748,12.324-1.644" transform="translate(-428.43 -234.823)" fill="#0b0635"/>
          <path id="Path_1031649" data-name="Path 1031649" d="M618.6,313.681a8.561,8.561,0,0,0,3.52,3.086c3.447,1.664,4.185,7.139,4.185,7.139l1.4-.762-2.707-10.189Z" transform="translate(-540.001 -273.193)" fill="#0b0635"/>
          <path id="Path_1031650" data-name="Path 1031650" d="M760.695,942.057l-1.716-.562A.644.644,0,0,1,759,940.8c.236-.389.8-.377,1.073-.348a5.035,5.035,0,0,1,.842.241,5.568,5.568,0,0,1,1.36-1.117,2.874,2.874,0,0,1,.14-1.559,2.48,2.48,0,0,1-.628-1.781s-.073-.127-.179-.325c-.09.04-.264.12-.376.184-.157.09-.17.6-.108.908a6.823,6.823,0,0,1,.033,1.837,1.068,1.068,0,0,1-1.157.913c-.634-.021-.655-.643-.778-1.194a8.017,8.017,0,0,1-.026-2.061,8.457,8.457,0,0,0-.4-2.427,6.466,6.466,0,0,1-.12-1.691,10.439,10.439,0,0,1,.478-1.971,2.687,2.687,0,0,1,.1-1.493c.323-.711-.725-5.9-.725-5.9l5.3.6-.493,5.865s1.659,3.473,2.208,5.034.949,2.384.872,3.159c0,0-.805,3.121-1.633,3.81a11.784,11.784,0,0,1-3.284,1.988,16.724,16.724,0,0,1-2.171-.166,1.637,1.637,0,0,1-.613-.159s-.254,0-.058-.527.74-.4,2.046-.572" transform="translate(-662.147 -805.75)" fill="#f8bd8c"/>
          <path id="Path_1031651" data-name="Path 1031651" d="M735.042,570.956s7.417-.531,10.029,9.871,2.337,14.3,2.2,20.926,7.588,19.705.576,28.135a55.148,55.148,0,0,0-11.437-4.079s-.962-1.049-.411-11.981-.955-42.871-.955-42.871" transform="translate(-641.651 -498.409)" fill="#fcfcfc"/>
          <path id="Path_1031652" data-name="Path 1031652" d="M463.634,1040.081s-2.2.135-2.631.13c0,0,.032,3.072,1.315,4.118l.03.025Z" transform="translate(-402.43 -907.934)" fill="#eab186"/>
          <path id="Path_1031653" data-name="Path 1031653" d="M503.9,726.984a.254.254,0,0,1-.253-.228,18.025,18.025,0,0,1,.3-5.1,5.945,5.945,0,0,0-.2-3.2,21.021,21.021,0,0,1-.72-4.413,12.318,12.318,0,0,1,1.5-7.3.254.254,0,0,1,.422.284,12.07,12.07,0,0,0-1.41,6.987,20.569,20.569,0,0,0,.7,4.317,6.425,6.425,0,0,1,.209,3.437,17.814,17.814,0,0,0-.29,4.937.254.254,0,0,1-.227.279H503.9" transform="translate(-439.079 -616.849)" fill="#ccdde7"/>
          <path id="Path_1031654" data-name="Path 1031654" d="M730.1,793.682h-.026a.254.254,0,0,1-.227-.279,27.173,27.173,0,0,0,.18-5.593c-.1-.935-.212-1.874-.324-2.781-.248-2.016-.505-4.1-.56-6.215a.254.254,0,0,1,.508-.013c.054,2.091.3,4.07.556,6.166.112.91.228,1.85.325,2.791a27.582,27.582,0,0,1-.18,5.7.254.254,0,0,1-.252.228" transform="translate(-636.504 -679.633)" fill="#ccdde7"/>
          <path id="Path_1031655" data-name="Path 1031655" d="M533.805,910.285H518.478a.254.254,0,1,1,0-.508h15.327a.254.254,0,1,1,0,.508" transform="translate(-452.381 -794.185)" fill="#dc4070"/>
          <path id="Path_1031656" data-name="Path 1031656" d="M1924.754,451.422l-4.392,5.226-1.4,1.661-12.4,14.757.73-20.576a3.208,3.208,0,0,0,3.012-3.2v-6.911l8.8.321q.179,1.188.358,2.379c.02.134.041.269.061.4,0,.02.005.039.009.058.069.455.109.992.161,1.556.01.115.02.23.032.347.2,2.033.642,4.252,3.042,4.1Z" transform="translate(-1664.328 -386.171)" fill="#f8bd8c"/>
          <path id="Path_1031657" data-name="Path 1031657" d="M1945.419,462.76a3.932,3.932,0,0,1-2.882,2.124c-2.527.275-4.991-2.445-6.207-3.951a4.105,4.105,0,0,1-.3-.435v-.175a5.618,5.618,0,0,0,.925.428,12.965,12.965,0,0,0,4.449.72,7.538,7.538,0,0,0,3.327-.72l.46-.008c.02.135.041.269.061.4,0,.02.005.039.009.058.068.455.109.992.161,1.556" transform="translate(-1690.044 -401.836)" fill="#eab186"/>
          <path id="Path_1031658" data-name="Path 1031658" d="M1888.206,259.167s10.51-1.139,6.233-14.292-17.43-10.052-17.43-10.052-9.731,3.966-10.908,12.3,5.88,10.624,5.88,10.624Z" transform="translate(-1628.888 -204.71)"/>
          <path id="Path_1031659" data-name="Path 1031659" d="M1956.474,182.753s3.017-5.068,1.855-6.34-2.625-2.749-5.563-2.221a3.953,3.953,0,0,0-3.28,4.413,20.845,20.845,0,0,0,1.962,4.481c.957,1.571,5.027-.334,5.027-.334" transform="translate(-1701.739 -151.965)"/>
          <path id="Path_1031660" data-name="Path 1031660" d="M1910.829,309.391c-.6,6.311,2.832,11.8,7.669,12.262s9.246-4.281,9.847-10.592-2.832-11.8-7.669-12.262-9.246,4.281-9.848,10.592" transform="translate(-1667.989 -260.808)" fill="#f8bd8c"/>
          <path id="Path_1031661" data-name="Path 1031661" d="M1968.85,286.668s3.636,7.325,10.693,11.282.7-10.052.7-10.052Z" transform="translate(-1718.697 -250.246)"/>
          <path id="Path_1031662" data-name="Path 1031662" d="M1890.247,360.474c0,1.441,1.25,2.832,2.281,2.832s1.866-1.168,1.866-2.609a2.73,2.73,0,0,0-2.4-2.609c-1.031,0-1.747.944-1.747,2.385" transform="translate(-1650.081 -312.592)" fill="#f8bd8c"/>
          <path id="Path_1031663" data-name="Path 1031663" d="M2034.642,366.231c0,1.441-1.25,2.832-2.281,2.832s-1.867-1.168-1.867-2.609a2.73,2.73,0,0,1,2.4-2.609c1.031,0,1.747.944,1.747,2.385" transform="translate(-1772.51 -317.618)" fill="#f8bd8c"/>
          <path id="Path_1031664" data-name="Path 1031664" d="M1945.485,367.777a.8.8,0,1,0,.771-1.009.915.915,0,0,0-.771,1.009" transform="translate(-1698.301 -320.169)"/>
          <path id="Path_1031665" data-name="Path 1031665" d="M2007,371.685a.8.8,0,1,0,.771-1.009.915.915,0,0,0-.771,1.009" transform="translate(-1751.997 -323.58)"/>
          <path id="Path_1031666" data-name="Path 1031666" d="M1934.633,349.021a.743.743,0,0,1-.192,0,4.965,4.965,0,0,0-2.826.3.683.683,0,0,1-.834-.142.455.455,0,0,1,.206-.684,6.425,6.425,0,0,1,3.726-.447.482.482,0,0,1,.458.576.615.615,0,0,1-.539.4" transform="translate(-1685.39 -303.748)"/>
          <path id="Path_1031667" data-name="Path 1031667" d="M2005.168,349.12a.753.753,0,0,1-.182-.061,4.965,4.965,0,0,0-2.782-.58.683.683,0,0,1-.75-.39.455.455,0,0,1,.4-.588,6.425,6.425,0,0,1,3.685.711.482.482,0,0,1,.261.689.615.615,0,0,1-.636.22" transform="translate(-1747.137 -303.312)"/>
          <path id="Path_1031668" data-name="Path 1031668" d="M1977.534,388.333a.624.624,0,0,1-.369-.119c-.326-.239-.343-.408-.3-.793l.158-1.623a.11.11,0,0,1,.219.021l-.158,1.623c-.034.345-.021.42.215.594a.408.408,0,0,0,.325.068l.412-.086a.11.11,0,1,1,.045.216l-.412.086a.643.643,0,0,1-.132.014" transform="translate(-1725.677 -336.694)" fill="#080305"/>
          <path id="Path_1031669" data-name="Path 1031669" d="M1955.06,428.616a2.823,2.823,0,0,0,3.2,2,3.008,3.008,0,0,0,2.783-2.006Z" transform="translate(-1706.659 -374.155)" fill="#fff"/>
          <path id="Path_1031670" data-name="Path 1031670" d="M1904.534,391.83a.269.269,0,1,1-.367.1.269.269,0,0,1,.367-.1" transform="translate(-1662.2 -342.015)" fill="#080305"/>
          <path id="Path_1031671" data-name="Path 1031671" d="M2047.575,395.948a.269.269,0,1,1-.367.1.269.269,0,0,1,.367-.1" transform="translate(-1787.067 -345.61)" fill="#080305"/>
          <path id="Path_1031672" data-name="Path 1031672" d="M2020.132,937.6l-7.349,3.177-4.238-4.459,9.239-6.668,3.933,7.326Z" transform="translate(-1753.348 -811.531)" fill="#f8bd8c"/>
          <path id="Path_1031673" data-name="Path 1031673" d="M1734.147,1004.84l1.659-.543a.623.623,0,0,0-.023-.669c-.228-.376-.772-.364-1.037-.337a4.856,4.856,0,0,0-.814.233,5.378,5.378,0,0,0-1.315-1.08,2.778,2.778,0,0,0-.135-1.507,2.4,2.4,0,0,0,.608-1.721s.07-.123.173-.314c.087.039.255.116.364.178.152.087.165.58.1.877a6.6,6.6,0,0,0-.032,1.776,1.032,1.032,0,0,0,1.118.883c.613-.021.633-.622.752-1.155a7.727,7.727,0,0,0,.025-1.992,8.183,8.183,0,0,1,.39-2.346,6.253,6.253,0,0,0,.116-1.634,10.091,10.091,0,0,0-.462-1.906,2.6,2.6,0,0,0-.092-1.443c-.312-.687.7-5.7.7-5.7l-5.123.579.477,5.67s-1.6,3.357-2.134,4.866-.917,2.3-.843,3.054c0,0,.778,3.017,1.578,3.683a11.386,11.386,0,0,0,3.174,1.922,16.144,16.144,0,0,0,2.1-.16,1.58,1.58,0,0,0,.593-.154s.246,0,.056-.509-.715-.385-1.978-.553" transform="translate(-1508.986 -861.111)" fill="#f8bd8c"/>
          <path id="Path_1031674" data-name="Path 1031674" d="M1743.037,550.979s-4.431,2.422-5.073,5.841a40.018,40.018,0,0,1-3.956,10.256,31.727,31.727,0,0,0-2.887,7.542c-.214,1.408-3.208,21.619-2.353,26.446s.193,8.581,1.843,9.251,6.926,0,6.926,0l7.7-46.925Z" transform="translate(-1508.985 -480.975)" fill="#ababab"/>
          <path id="Path_1031675" data-name="Path 1031675" d="M1802.543,933.453h-42.521q.145-1.232.316-2.541.2-1.505.437-3.1.14-.938.294-1.9h0c.461-2.875,1.023-5.926,1.708-9.09h0c.044-.2.09-.409.135-.615a0,0,0,0,1,0,0c.048-.221.1-.44.147-.662l.011-.052q.327-1.445.689-2.918.211-.866.439-1.74c.61-2.364,1.292-4.762,2.054-7.174h0q.2-.64.412-1.282a2.39,2.39,0,0,1,.461-.305c.746-.409,2.528-1.125,6.271-1.487h.017a58.578,58.578,0,0,1,6.982-.2c3.174.076,7.052.349,11.778.924,0,0,.261.906.706,2.352.406,1.312.963,3.071,1.615,5,.6,1.776,1.282,3.7,2,5.547q.12.309.24.614a46.043,46.043,0,0,0,2.865,6.164c1.378,2.324,2.34,7.315,2.943,12.479" transform="translate(-1536.402 -785.956)" fill="#190444"/>
          <path id="Path_1031676" data-name="Path 1031676" d="M1809.035,549.008c.107-1.069.693-8.234.693-8.234s.377-10.159.021-13.688c-.226-2.216,1.322-6.583,2.5-9.526.205-.509.4-.971.573-1.377l2.3-.95,7.883-3.259s-1.57,11.831-.714,18.248c0,0,12.546-13.115,15.112-19.1,0,0,8.555,1.566,10.694,1.283s6.989,1,8.982,15.968,8.414,22.812,8.7,25.523,1.711,5.7-1.711,9.124-9.128,8.7-9.838,9.7-7.7,2.708-7.7,2.708l-7.259-13.176a.827.827,0,0,1,.4-1.159c1.219-.526,3.4-1.475,4.01-1.779.856-.428,6.343-3.276,6.343-3.276s-4.312-5.847-4.846-12.05c-.24-2.772-.351-4.962-.4-6.544-.064,5.317-.744,16.43-5.09,22.157l-2.284,4.277h-28.784a5.892,5.892,0,0,1,0-1.692c.257-1.43.305-12.1.412-13.172" transform="translate(-1578.772 -446.178)" fill="#ababab"/>
          <path id="Path_1031677" data-name="Path 1031677" d="M1729.932,659.7a.25.25,0,0,1-.067-.009l-1.547-.423c-.363-.1-.806-.528-1.016-2.982-.1-1.226-.1-2.437-.1-2.571l-.585-6.932a.269.269,0,0,1,0-.037l.371-5.964c.014-.129,1.314-11.732,1.727-14.312a32.618,32.618,0,0,1,2.668-9.2c1.57-3.272,4.212-9.875,4.238-9.942a.254.254,0,1,1,.472.189c-.026.066-2.675,6.686-4.252,9.973a32.156,32.156,0,0,0-2.624,9.06c-.411,2.568-1.709,14.159-1.722,14.275l-.369,5.933.584,6.925c0,.008,0,.016,0,.023-.023,2.632.317,4.954.742,5.071l1.547.423a.254.254,0,0,1-.067.5" transform="translate(-1507.24 -530.025)" fill="#8e8d8e"/>
          <path id="Path_1031678" data-name="Path 1031678" d="M1798.122,767.579a.254.254,0,0,1-.187-.082c-.082-.089-.8-1.04-.908-6.856s1.072-10.16,1.388-10.6a.254.254,0,0,1,.416.292,30.927,30.927,0,0,0-1.295,10.3c.1,5.5.741,6.474.782,6.53a.254.254,0,0,1-.195.417" transform="translate(-1568.699 -654.647)" fill="#8e8d8e"/>
          <path id="Path_1031679" data-name="Path 1031679" d="M1913.207,528.73a.254.254,0,0,1-.252-.226,77.67,77.67,0,0,1,.664-18.194.254.254,0,1,1,.5.076,79.115,79.115,0,0,0-.711,17.524c2.107-2.136,12.282-12.641,14.673-18.632a.254.254,0,1,1,.472.188c-2.7,6.757-14.661,18.685-15.169,19.189a.254.254,0,0,1-.179.074" transform="translate(-1669.684 -444.433)" fill="#8e8d8e"/>
          <path id="Path_1031680" data-name="Path 1031680" d="M2166.3,772.256a.254.254,0,0,1-.195-.418,77.213,77.213,0,0,1,7.266-7.179l.165-.146c1.635-1.443,3.671-3.239,4.307-5.365.79-2.644.223-5.771-1.687-9.3a81.844,81.844,0,0,1-4.012-9.112l-.385-.98a.254.254,0,0,1,.473-.186l.385.98a81.424,81.424,0,0,0,3.986,9.056c1.976,3.648,2.557,6.906,1.727,9.684-.677,2.266-2.773,4.115-4.457,5.6l-.165.145a76.676,76.676,0,0,0-7.214,7.125.253.253,0,0,1-.195.091" transform="translate(-1890.842 -645.467)" fill="#8e8d8e"/>
          <path id="Path_1031681" data-name="Path 1031681" d="M2082.844,728.834a.26.26,0,0,1-.048,0,.254.254,0,0,1-.2-.3c0-.008.149-.792.464-2.738s.679-9.215.683-9.289a.254.254,0,1,1,.508.025c-.015.3-.371,7.379-.689,9.344s-.465,2.744-.466,2.752a.254.254,0,0,1-.25.207" transform="translate(-1817.985 -625.26)" fill="#8e8d8e"/>
          <path id="Path_1031682" data-name="Path 1031682" d="M1934.428,512.914a4.064,4.064,0,0,1-1.081-.142c-2.373-.651-3.163-3.381-3.171-3.408l.122-.034c.008.027.78,2.689,3.083,3.32,2.115.58,4.814-.675,8.021-3.732l.088.092c-2.723,2.6-5.092,3.9-7.062,3.9" transform="translate(-1684.937 -444.257)" fill="#080305"/>
          <path id="Path_1031683" data-name="Path 1031683" d="M1419.916,1011.42s2.664.793,3.191.908c0,0-.913,3.761-2.786,4.679l-.045.022Z" transform="translate(-1239.508 -882.914)" fill="#eab186"/>
          <path id="Path_1031684" data-name="Path 1031684" d="M1359.771,537.065a1.235,1.235,0,0,1,1.586.251c4.747,4.174,4.29,11.438,4.224,13.3s1.639,8.663,2.536,11.213,1.983,4.061,2.647,8.5,0,13.219.074,14.3a67.254,67.254,0,0,0,1.4,7.777c.34,1.077-.053,4.349-1.235,4.875s-1.951,1.211-6.3.673-3.237-1.983-3.308-3.992-.7-3.8-.723-4.7-.192-2.584-.184-4.83a9.421,9.421,0,0,0-.276-3.549c-.44-2.175-3.6-13.176-2.452-15.885s-3.139-11.79-3.069-12.475-1.033-6.907-1.033-6.907a21.308,21.308,0,0,1,2.432-5.02,18.85,18.85,0,0,1,3.685-3.537" transform="translate(-1181.665 -468.674)" fill="#1a1a1a"/>
          <path id="Path_1031685" data-name="Path 1031685" d="M1131.782,838.306v8.279l-.178,8.365-.028,1.278s0,0,0,0l-.491,23.06h-19.924l1.944-23.46.216-2.6.059-.714.107-1.277h0l.414-5,.4-4.81.259-3.12Z" transform="translate(-969.982 -731.795)" fill="#ababab"/>
          <path id="Path_1031686" data-name="Path 1031686" d="M1291.277,879.291h-19.924l-.5-23.478s0,0,0,0l-.017-.86-.179-8.365v-8.279h17.225l1.011,12.194h0l.141,1.71.016.189v.006l.092,1.1h0l.565,6.818.007.085.448,5.4Z" transform="translate(-1109.212 -731.795)" fill="#ababab"/>
          <path id="Path_1031687" data-name="Path 1031687" d="M1117.2,235.921s-1.126-7.055,1.627-10.679,1.877-6.731,1.877-8.414.5-6.99,2.878-8.931,3.378-6.213,11.136-4.66c0,0,2-1.165,7.132-.518s7.257,7.378,7.508,8.8.751,4.4,2,5.825a9.18,9.18,0,0,1,1.627,7.9c-.876,3.236-.916,3.883.293,6.86s.583,3.819.583,3.819-14.64,6.019-36.662,0" transform="translate(-975.054 -176.793)" fill="#d1d1d3"/>
          <path id="Path_1031688" data-name="Path 1031688" d="M1233.277,437.461h-12.214l1.244-8.523.084-.571.174-1.2h9.211l.2,1.345.359,2.463Z" transform="translate(-1065.92 -372.897)" fill="#f8bd8c"/>
          <path id="Path_1031689" data-name="Path 1031689" d="M1240.875,439.2a4.393,4.393,0,0,1-3.06,1.8c-2.782.272-5.5-2.261-6.965-3.845l.084-.571c.126.049.266.1.425.151a16.636,16.636,0,0,0,5.141.743,9.629,9.629,0,0,0,3.847-.743l.167,0Z" transform="translate(-1074.464 -381.118)" fill="#eab186"/>
          <path id="Path_1031690" data-name="Path 1031690" d="M1204.7,243.858c0,7.784-4.664,14.094-10.419,14.094s-10.418-6.31-10.418-14.094,4.664-14.094,10.418-14.094,10.419,6.31,10.419,14.094" transform="translate(-1033.447 -200.572)" fill="#f8bd8c"/>
          <path id="Path_1031691" data-name="Path 1031691" d="M1179.735,346.575c.539,1.461.072,3-1.042,3.441s-2.453-.389-2.992-1.85-.072-3,1.042-3.441,2.453.389,2.992,1.85" transform="translate(-1026.127 -300.824)" fill="#f8bd8c"/>
          <path id="Path_1031692" data-name="Path 1031692" d="M1332.237,346.576c-.538,1.461-.071,3,1.043,3.441s2.453-.39,2.991-1.852.071-3-1.043-3.441-2.453.39-2.991,1.852" transform="translate(-1162.774 -300.823)" fill="#f8bd8c"/>
          <path id="Path_1031693" data-name="Path 1031693" d="M1205.4,307.562a.563.563,0,0,1-.518-.355.591.591,0,0,1,.3-.764,5.7,5.7,0,0,1,4.848-.033.594.594,0,0,1,.233.789.554.554,0,0,1-.76.241,4.6,4.6,0,0,0-3.881.077.565.565,0,0,1-.22.045" transform="translate(-1051.754 -267.03)" fill="#1a1a1a"/>
          <path id="Path_1031694" data-name="Path 1031694" d="M1284.095,307.562a.563.563,0,0,1-.518-.355.591.591,0,0,1,.3-.764,5.7,5.7,0,0,1,4.848-.033.594.594,0,0,1,.233.789.553.553,0,0,1-.76.241,4.6,4.6,0,0,0-3.881.077.565.565,0,0,1-.22.045" transform="translate(-1120.452 -267.03)" fill="#1a1a1a"/>
          <path id="Path_1031695" data-name="Path 1031695" d="M1220.254,334.587a.952.952,0,1,1-.919-1.2,1.09,1.09,0,0,1,.919,1.2" transform="translate(-1063.61 -291.027)" fill="#1a1a1a"/>
          <path id="Path_1031696" data-name="Path 1031696" d="M1299.983,334.587a.952.952,0,1,1-.919-1.2,1.09,1.09,0,0,1,.919,1.2" transform="translate(-1133.209 -291.027)" fill="#1a1a1a"/>
          <path id="Path_1031697" data-name="Path 1031697" d="M1164.316,222.824s-6.131,8.757-7.007,13.31-5.881,3.129-6.382,3.258,3-14.5,3-14.5l10.385-4.53Z" transform="translate(-1004.653 -192.367)" fill="#d1d1d3"/>
          <path id="Path_1031698" data-name="Path 1031698" d="M1256.639,215.908v3.026a35.765,35.765,0,0,0,5.159,7.96,45.632,45.632,0,0,0,7.587,6.7c.454.333,1.119.7,1.537,1.068-.375-2.214-1.061-4.422-1.48-6.628a54.969,54.969,0,0,0-1.229-6.06c-.188-.291-11.574-6.068-11.574-6.068" transform="translate(-1096.976 -188.476)" fill="#d1d1d3"/>
          <path id="Path_1031699" data-name="Path 1031699" d="M1106.77,461.4a5.61,5.61,0,0,0-.567,2.169c0,1.055.907,3.869-1.473,3.986s-10.192,5.275-12.235,6.8-1.477,4.807-1.477,4.807,4.193,42.467,4.873,43.17,10.454-9.408,14.109-8.968,2.493,1.26,3.966,1.143,2.04-1.29,2.493-1.231a7.565,7.565,0,0,1,2.72.879c.737.528,3.57-.293,5.5,1.465s9.632,7.62,9.632,7.62,1.02-8.323-.68-10.9.68-25.322,0-26.142-1.247-14.537-1.247-14.537-7.168-3.839-9.462-3.927-1.7-5.627-1.7-5.627Z" transform="translate(-952.336 -402.775)" fill="#1a1a1a"/>
          <path id="Path_1031700" data-name="Path 1031700" d="M1254.129,407.173a4.714,4.714,0,0,1-1.621-.293.127.127,0,1,1,.087-.238,3.629,3.629,0,0,0,4.143-.88.127.127,0,1,1,.2.154,3.479,3.479,0,0,1-2.812,1.258" transform="translate(-1093.297 -354.164)" fill="#1a1a1a"/>
          <path id="Path_1031701" data-name="Path 1031701" d="M1332.361,384.835l-.078,0a1.814,1.814,0,0,1-1.527-.912.1.1,0,1,1,.165-.1,1.626,1.626,0,0,0,1.37.817,1.781,1.781,0,0,0,1.534-.756,2.67,2.67,0,0,0,.188-2.619,1.451,1.451,0,0,0-1.326-.827.1.1,0,1,1,0-.191h0a1.634,1.634,0,0,1,1.495.93,2.872,2.872,0,0,1-.2,2.816,1.982,1.982,0,0,1-1.621.839" transform="translate(-1161.665 -331.938)" fill="#1a1a1a"/>
          <path id="Path_1031702" data-name="Path 1031702" d="M1174.182,385.724a1.981,1.981,0,0,1-1.621-.839,2.42,2.42,0,0,1-.1-2.474,2.024,2.024,0,0,1,1.792-1.143.1.1,0,0,1,0,.191,1.814,1.814,0,0,0-1.623,1.04,2.227,2.227,0,0,0,.087,2.277,1.786,1.786,0,0,0,1.535.756,1.626,1.626,0,0,0,1.37-.817.1.1,0,0,1,.165.1,1.814,1.814,0,0,1-1.528.912l-.078,0" transform="translate(-1023.239 -332.826)" fill="#1a1a1a"/>
          <path id="Path_1031703" data-name="Path 1031703" d="M1259.046,349.487h-.153a.931.931,0,0,1-.915-.947v-2.761a.152.152,0,1,1,.3,0v2.6a.776.776,0,0,0,.763.789.158.158,0,0,1,0,.315" transform="translate(-1098.145 -301.709)" fill="#1a1a1a"/>
          <path id="Path_1031704" data-name="Path 1031704" d="M1113.539,882.008l-5.484-3.331.385-1.121c.274-.39.58-.844.227-1.18a1.267,1.267,0,0,0-1.418-.187l-6.129,3.116-4.334,3.547c2.815,2.776,4.9,2.99,6.164,2.664.132.058.264.118.4.172l4.7,1.813a1.019,1.019,0,0,0,1.257-.243c.2-.262.327-.707-.551-1.239l.878.532a1.055,1.055,0,0,0,1.32-.27c.266-.343.082-.859-.423-1.241l.682.334a1.072,1.072,0,0,0,1.409-.358.859.859,0,0,0-.373-1.156l-.969-.585,1.126.125c.541.243,1.283.334,1.549-.17a.934.934,0,0,0-.419-1.221" transform="translate(-957.433 -764.746)" fill="#f8bd8c"/>
          <path id="Path_1031705" data-name="Path 1031705" d="M960.211,563.353s-11.963,11.329-13.079,13.039a8.415,8.415,0,0,1-2.484,2.572c-.732.572-.506,1.037-3,5.161-1.859,3.076-2.971,8.177-1.692,11.7,1.322,3.647,4.845,6.137,8.109,7.914,3.539,1.926,4.214,2.55,7.038,4.268s3.564,2.045,5.106,3.694c.921.984,3.11,1.453,4.43,1.882.581.188,1.292-.462,1.464-1.066l2.56-8.689s-2.212-5.465-6.638-7.683c-2.525-1.265-5.473-2.588-6.916-3.861-1.171-1.033,3.067-3.231,3.946-3.988a43.9,43.9,0,0,1,4.022-3.314c.5-.172,1.993-7.346,1.993-7.453s-4.861-14.178-4.861-14.178" transform="translate(-820.051 -491.776)" fill="#1a1a1a"/>
          <path id="Path_1031706" data-name="Path 1031706" d="M1265.159,951.9h-.007a.254.254,0,0,1-.247-.261c.016-.57.383-13.987.738-15.549.4-1.776,3.621-5.124,3.757-5.265a.254.254,0,1,1,.366.353c-.032.034-3.255,3.387-3.627,5.025-.344,1.513-.722,15.311-.725,15.45a.254.254,0,0,1-.254.247" transform="translate(-1104.191 -812.489)" fill="#999"/>
          <path id="Path_1031707" data-name="Path 1031707" d="M1106.726,695.86a.254.254,0,0,1-.158-.453,19.272,19.272,0,0,0,3.958-4.287c.194-.286.381-.623.578-.979a5.625,5.625,0,0,1,1.646-2.138.254.254,0,0,1,.267.433,5.31,5.31,0,0,0-1.468,1.951c-.2.367-.4.714-.6,1.019a19.784,19.784,0,0,1-4.062,4.4.253.253,0,0,1-.158.055" transform="translate(-965.888 -600.556)" fill="#333"/>
          <path id="Path_1031708" data-name="Path 1031708" d="M1133.983,829.459a.254.254,0,0,1-.229-.143,5.312,5.312,0,0,0-2.464-2.287,8.329,8.329,0,0,1-2.373-1.318.254.254,0,0,1,.36-.359,8.333,8.333,0,0,0,2.214,1.21,5.734,5.734,0,0,1,2.721,2.533.254.254,0,0,1-.229.365" transform="translate(-985.417 -720.421)" fill="#333"/>
          <path id="Path_1031709" data-name="Path 1031709" d="M1403.231,776.943a.259.259,0,0,1-.061-.007.254.254,0,0,1-.186-.307,10.416,10.416,0,0,0-.107-3.759l-.089-.515a3.838,3.838,0,0,1-.088-2.033c.058-.27.138-.64.236-1.27.351-2.25-1.686-10.137-1.706-10.216a.254.254,0,0,1,.492-.128c.085.328,2.084,8.07,1.717,10.422-.1.645-.182,1.023-.242,1.3-.126.586-.126.586.092,1.838l.089.516a10.64,10.64,0,0,1,.1,3.965.254.254,0,0,1-.247.194" transform="translate(-1223.189 -662.145)" fill="#333"/>
        </g>
      </g>
    </g>
  </g>
</svg>
