<svg xmlns="http://www.w3.org/2000/svg" width="292" height="163" viewBox="0 0 292 163">
  <g id="img8" transform="translate(-1029.686 -8704)">
    <rect id="Rectangle_456612" data-name="Rectangle 456612" width="292" height="163" transform="translate(1029.686 8704)" fill="#d4fcee"/>
    <g id="_264420354_a0c0d0d5-2117-4c05-b6fe-ea7a3da4bc34" data-name="264420354_a0c0d0d5-2117-4c05-b6fe-ea7a3da4bc34" transform="translate(486.844 8591.588)">
      <g id="Group_1184438" data-name="Group 1184438" transform="translate(591.582 122.828)">
        <path id="Path_1031279" data-name="Path 1031279" d="M613.836,270.53c-2.568-.011-9.216-11.709-10.64-13.832a76.368,76.368,0,0,1-7.91-15.142c-4.535-11.782-5.22-24.556-.3-36.37,9.464-22.713,37.052-31.441,43.062-55.9,1.255-5.107,1.675-10.508,4.054-15.2,4.937-9.734,16.644-12.491,26.678-10.8,12.776,2.158,24.267,8.314,36.291,12.795,6.016,2.242,12.333,4.306,18.759,4.918,6.9.657,13.852-.814,20.7.881,5.146,1.274,10.122,4.05,12.977,8.518,2.686,4.2,3.233,9.42,3.164,14.409-.161,11.621.283,21.283,4.5,32.283,4.14,10.8,9.958,20.949,12.941,32.181,4.143,15.6.159,40.541-20.505,41.275Z" transform="translate(-591.582 -122.828)" fill="#e5eafe"/>
        <g id="Group_1184329" data-name="Group 1184329" transform="translate(130.319 77.362)">
          <path id="Path_1031280" data-name="Path 1031280" d="M3487.006,1937.887c-2.209-4.876-.834-10.872,1.4-15.909s5.293-9.745,6.6-15.108a42.855,42.855,0,0,0,.706-12.392" transform="translate(-3484.673 -1891.327)" fill="none" stroke="#33484c" stroke-miterlimit="10" stroke-width="1"/>
          <path id="Path_1031281" data-name="Path 1031281" d="M3606.376,2141.527a2.705,2.705,0,0,1-.78-.608,9.12,9.12,0,0,1-1.083-1.2,3.64,3.64,0,0,1-.68-1.524,1.607,1.607,0,0,1,.244-1.306c.253-.281.63-.24.983.119a4.7,4.7,0,0,1,.942,1.812,13.283,13.283,0,0,1,.476,2.013C3606.547,2141.323,3606.535,2141.558,3606.376,2141.527Z" transform="translate(-3597.227 -2122.546)" fill="#465b60"/>
          <path id="Path_1031282" data-name="Path 1031282" d="M3566.576,2233.127a2.708,2.708,0,0,1-.78-.609,9.154,9.154,0,0,1-1.083-1.2,3.64,3.64,0,0,1-.68-1.524,1.608,1.608,0,0,1,.244-1.306c.254-.281.63-.24.983.119a4.7,4.7,0,0,1,.942,1.812,13.3,13.3,0,0,1,.477,2.013C3566.747,2232.923,3566.734,2233.158,3566.576,2233.127Z" transform="translate(-3559.236 -2209.983)" fill="#465b60"/>
          <path id="Path_1031283" data-name="Path 1031283" d="M3518.535,2322.827a2.705,2.705,0,0,1-.78-.608,9.156,9.156,0,0,1-1.083-1.2,3.637,3.637,0,0,1-.68-1.524,1.608,1.608,0,0,1,.244-1.306c.254-.281.63-.24.983.119a4.7,4.7,0,0,1,.942,1.812,13.3,13.3,0,0,1,.476,2.013C3518.706,2322.623,3518.693,2322.858,3518.535,2322.827Z" transform="translate(-3513.378 -2295.607)" fill="#465b60"/>
          <path id="Path_1031284" data-name="Path 1031284" d="M3461.765,2458.607a2.708,2.708,0,0,1-.78-.609,9.137,9.137,0,0,1-1.083-1.2,3.639,3.639,0,0,1-.679-1.524,1.607,1.607,0,0,1,.244-1.306c.254-.281.63-.24.983.119a4.7,4.7,0,0,1,.942,1.812,13.272,13.272,0,0,1,.477,2.013C3461.936,2458.4,3461.923,2458.638,3461.765,2458.607Z" transform="translate(-3459.188 -2425.216)" fill="#465b60"/>
          <path id="Path_1031285" data-name="Path 1031285" d="M3636.073,2040.879a2.706,2.706,0,0,1-.785-.6,9.128,9.128,0,0,1-1.093-1.19,3.632,3.632,0,0,1-.692-1.517,1.609,1.609,0,0,1,.233-1.308c.251-.283.628-.245.984.11a4.683,4.683,0,0,1,.957,1.8,13.3,13.3,0,0,1,.493,2.008C3636.243,2040.673,3636.232,2040.909,3636.073,2040.879Z" transform="translate(-3625.545 -2026.49)" fill="#465b60"/>
          <path id="Path_1031286" data-name="Path 1031286" d="M3641.89,1939.376a2.678,2.678,0,0,1-.823-.541,9.013,9.013,0,0,1-1.17-1.1,3.575,3.575,0,0,1-.789-1.459,1.6,1.6,0,0,1,.15-1.318c.233-.3.613-.29.991.038a4.618,4.618,0,0,1,1.073,1.724,13.1,13.1,0,0,1,.622,1.962C3642.046,1939.159,3642.051,1939.394,3641.89,1939.376Z" transform="translate(-3630.865 -1929.756)" fill="#465b60"/>
          <path id="Path_1031287" data-name="Path 1031287" d="M3681.25,1828.512a1.827,1.827,0,0,1-.359-.531,6.217,6.217,0,0,1-.436-.956,2.452,2.452,0,0,1-.137-1.072,1.011,1.011,0,0,1,.379-.751c.2-.121.42-.019.568.272a3.173,3.173,0,0,1,.243,1.3,8.849,8.849,0,0,1-.072,1.331C3681.39,1828.421,3681.34,1828.563,3681.25,1828.512Z" transform="translate(-3670.256 -1825.151)" fill="#465b60"/>
          <path id="Path_1031288" data-name="Path 1031288" d="M3683.755,2121.336a3.172,3.172,0,0,1,.631-.828,10.059,10.059,0,0,1,1.208-1.149,3.481,3.481,0,0,1,1.48-.717,1.307,1.307,0,0,1,1.2.269c.243.272.175.674-.189,1.049a4.633,4.633,0,0,1-1.77.995,11.743,11.743,0,0,1-1.922.5C3683.932,2121.52,3683.713,2121.506,3683.755,2121.336Z" transform="translate(-3673.544 -2105.272)" fill="#465b60"/>
          <path id="Path_1031289" data-name="Path 1031289" d="M3642.6,2231.156a3.173,3.173,0,0,1,.631-.829,10.04,10.04,0,0,1,1.208-1.149,3.479,3.479,0,0,1,1.48-.717,1.3,1.3,0,0,1,1.2.269c.243.272.175.674-.189,1.049a4.634,4.634,0,0,1-1.77.995,11.735,11.735,0,0,1-1.922.5C3642.782,2231.34,3642.562,2231.326,3642.6,2231.156Z" transform="translate(-3634.264 -2210.101)" fill="#465b60"/>
          <path id="Path_1031290" data-name="Path 1031290" d="M3599.3,2339.453a3.022,3.022,0,0,1,.8-.64,9.5,9.5,0,0,1,1.43-.8,3.312,3.312,0,0,1,1.588-.3,1.323,1.323,0,0,1,1.09.586c.169.332.008.706-.429.973a4.394,4.394,0,0,1-1.932.5,11.318,11.318,0,0,1-1.96-.032C3599.424,2339.68,3599.217,2339.607,3599.3,2339.453Z" transform="translate(-3592.914 -2314.411)" fill="#465b60"/>
          <path id="Path_1031291" data-name="Path 1031291" d="M3546.368,2440.944a3.07,3.07,0,0,1,.747-.711,9.663,9.663,0,0,1,1.363-.927,3.365,3.365,0,0,1,1.562-.45,1.312,1.312,0,0,1,1.138.479c.2.313.067.7-.347,1.007a4.47,4.47,0,0,1-1.889.675,11.439,11.439,0,0,1-1.961.154C3546.513,2441.157,3546.3,2441.1,3546.368,2440.944Z" transform="translate(-3542.394 -2410.966)" fill="#465b60"/>
          <path id="Path_1031292" data-name="Path 1031292" d="M3703.1,2006.527a3.237,3.237,0,0,1,.5-.924,10.326,10.326,0,0,1,1.02-1.341,3.61,3.61,0,0,1,1.356-.965,1.316,1.316,0,0,1,1.236.05c.284.224.278.63-.024,1.061a4.8,4.8,0,0,1-1.6,1.289,12.153,12.153,0,0,1-1.829.828C3703.31,2006.675,3703.09,2006.7,3703.1,2006.527Z" transform="translate(-3692.02 -1995.081)" fill="#465b60"/>
          <path id="Path_1031293" data-name="Path 1031293" d="M3704.922,1889.395a3.275,3.275,0,0,1,.256-1.022,10.7,10.7,0,0,1,.663-1.568,3.809,3.809,0,0,1,1.083-1.3,1.361,1.361,0,0,1,1.216-.3c.332.134.427.523.239,1.02a5.049,5.049,0,0,1-1.242,1.682,12.894,12.894,0,0,1-1.578,1.306C3705.158,1889.479,3704.95,1889.564,3704.922,1889.395Z" transform="translate(-3693.751 -1882.421)" fill="#465b60"/>
        </g>
        <g id="Group_1184339" data-name="Group 1184339" transform="translate(122.292 101.898)">
          <path id="Path_1031294" data-name="Path 1031294" d="M3324.14,2372.03c-2.946,3.388-11.742,6.881-14.159,11.268a.089.089,0,0,0,.08.132c4.215-.047,13.646.844,13.229,4.909s-9.747,7.53-13.612,7.864a.087.087,0,0,0-.072.125c1.531,3.289,2.354,7.1,1.195,10.538a8.656,8.656,0,0,1-3.078,4.152,7.749,7.749,0,0,1-1.814.99h-4.492c-.779-.287-1.529-.672-2.3-.99a7.569,7.569,0,0,0-1.8-.535,5.825,5.825,0,0,0-2.792.535c-.685.269-1.412.615-2.154.99h-9.81a5.641,5.641,0,0,1,.044-.99c.359-2.907,2.527-7.115,2.705-9.728.262-3.859-.825-7.677-.792-11.533.025-2.922.823-6.1,3.177-7.827,2.176-1.6,5.863-1.062,6.962,1.266a.088.088,0,0,0,.168-.044c-.215-2.985-.332-6.055.763-8.826,1.176-2.974,4.19-5.483,7.348-4.976,2.962.475,3.123,4.207,2.814,6.7a.089.089,0,0,0,.166.053c1.992-3.625,4.168-7.337,7.66-9.525a9.662,9.662,0,0,1,9.516-.509A3.936,3.936,0,0,1,3324.14,2372.03Z" transform="translate(-3282.559 -2365.038)" fill="#7bb1b1"/>
          <g id="Group_1184330" data-name="Group 1184330" transform="translate(2.542 12.376)">
            <path id="Path_1031295" data-name="Path 1031295" d="M3338.49,2671.965c.249-.42.493-.843.745-1.261s.5-.836.759-1.253q.767-1.248,1.563-2.478c1.064-1.638,2.17-3.25,3.336-4.817l0,.01a.029.029,0,0,1,0-.01h0c.764-1.024,1.553-2.029,2.381-3a34,34,0,0,1,2.631-2.785c.234-.218.473-.43.709-.644s.465-.437.689-.664q.676-.677,1.3-1.4t1.217-1.478c.392-.5.778-1.012,1.144-1.535l.555-.78.536-.793c.089-.132.18-.264.267-.4l.26-.4c.172-.269.347-.536.518-.806.334-.544.676-1.083,1-1.634l.245-.411c.082-.137.163-.274.242-.413l.477-.83c1.254-2.224,2.443-4.487,3.522-6.8q-.4.871-.822,1.73t-.859,1.712q-.875,1.7-1.818,3.373l-.476.831c-.078.139-.16.277-.241.414l-.244.412c-.322.552-.663,1.092-1,1.636-.17.27-.345.538-.517.807l-.259.4c-.087.134-.178.265-.267.4l-.536.794-.554.782c-.365.524-.751,1.033-1.143,1.538s-.8,1-1.216,1.482-.852.953-1.3,1.406c-.225.227-.457.447-.692.664s-.477.425-.71.643a33.924,33.924,0,0,0-2.632,2.778c-.829.971-1.619,1.974-2.384,3v0a.005.005,0,0,0,0,0l0,.01c-1.169,1.565-2.276,3.175-3.342,4.811q-.8,1.227-1.572,2.472-.386.623-.765,1.25C3338.987,2671.124,3338.74,2671.546,3338.49,2671.965Z" transform="translate(-3338.49 -2637.373)" fill="#fff"/>
          </g>
          <g id="Group_1184332" data-name="Group 1184332" transform="translate(18.307 12.895)">
            <g id="Group_1184331" data-name="Group 1184331">
              <path id="Path_1031296" data-name="Path 1031296" d="M3685.82,2661.971a16.884,16.884,0,0,0,.666-1.617c.2-.549.373-1.105.522-1.669a15.877,15.877,0,0,0,.542-3.448,10.1,10.1,0,0,0-.409-3.453,7.6,7.6,0,0,0-1.756-2.988,7.986,7.986,0,0,1,.576.659,7.169,7.169,0,0,1,.9,1.5,8.282,8.282,0,0,1,.312.819,10.128,10.128,0,0,1,.426,3.464,15.92,15.92,0,0,1-.558,3.453A18.408,18.408,0,0,1,3685.82,2661.971Z" transform="translate(-3685.385 -2648.797)" fill="#fff"/>
            </g>
          </g>
          <g id="Group_1184334" data-name="Group 1184334" transform="translate(14.412 27.242)">
            <g id="Group_1184333" data-name="Group 1184333">
              <path id="Path_1031297" data-name="Path 1031297" d="M3599.69,2968.238c.3.048.6.079.9.1s.6.041.9.047c.6.019,1.207.007,1.809-.033a18.8,18.8,0,0,0,3.565-.582c.583-.156,1.157-.34,1.722-.55.279-.114.562-.219.835-.346l.207-.092c.069-.031.138-.061.2-.1l.406-.2.1-.05.1-.054.2-.109.2-.109.1-.055.1-.059.387-.234.1-.059.094-.063.188-.125a16.409,16.409,0,0,0,1.452-1.079,15.7,15.7,0,0,1-3,2.022l-.405.2c-.067.035-.136.066-.205.1l-.207.093c-.273.129-.556.235-.836.351-.566.212-1.141.4-1.724.558a18.828,18.828,0,0,1-3.575.568c-.6.037-1.208.047-1.811.025-.3-.01-.6-.031-.9-.058S3599.987,2968.29,3599.69,2968.238Z" transform="translate(-3599.69 -2964.494)" fill="#fff"/>
            </g>
          </g>
          <g id="Group_1184336" data-name="Group 1184336" transform="translate(6.631 26.271)">
            <g id="Group_1184335" data-name="Group 1184335">
              <path id="Path_1031298" data-name="Path 1031298" d="M3430.795,2954.006c.114-.49.2-.986.281-1.483s.144-1,.192-1.5a17.423,17.423,0,0,0,.049-3.013c-.02-.25-.044-.5-.08-.749s-.08-.5-.134-.741a6.615,6.615,0,0,0-.482-1.423,4.2,4.2,0,0,0-.871-1.218,3.518,3.518,0,0,0-1.281-.772,3.531,3.531,0,0,1,1.3.756,4.218,4.218,0,0,1,.883,1.221,6.645,6.645,0,0,1,.492,1.428,10.41,10.41,0,0,1,.222,1.5,17.446,17.446,0,0,1-.064,3.02A22,22,0,0,1,3430.795,2954.006Z" transform="translate(-3428.468 -2943.108)" fill="#fff"/>
            </g>
          </g>
          <g id="Group_1184338" data-name="Group 1184338" transform="translate(5.013 39.972)">
            <g id="Group_1184337" data-name="Group 1184337">
              <path id="Path_1031299" data-name="Path 1031299" d="M3392.86,3247.8c.276.033.553.054.831.07s.555.025.833.029q.833.015,1.666-.032a19.935,19.935,0,0,0,3.3-.457c.272-.058.54-.13.809-.2s.534-.151.8-.242.524-.184.784-.28c.129-.052.257-.106.385-.159.064-.027.129-.052.192-.081l.189-.088.189-.088c.063-.029.126-.057.187-.091l.37-.192.092-.048.09-.052.18-.1c.12-.07.242-.137.357-.214l.351-.224c.115-.078.227-.16.341-.24l.17-.121c.055-.042.109-.086.164-.129l.327-.259-.323.263c-.054.044-.107.088-.162.131l-.168.123c-.113.081-.224.166-.338.245l-.349.229c-.115.079-.237.146-.356.217l-.18.105-.09.053-.092.049-.37.194c-.061.033-.125.062-.187.092l-.189.089-.189.089c-.063.029-.128.054-.192.082-.128.054-.256.109-.385.161-.261.1-.52.2-.785.284s-.531.167-.8.246-.538.144-.81.2a19.992,19.992,0,0,1-3.3.443A19.068,19.068,0,0,1,3392.86,3247.8Z" transform="translate(-3392.86 -3244.598)" fill="#fff"/>
            </g>
          </g>
        </g>
        <g id="Group_1184353" data-name="Group 1184353" transform="translate(16.901 67.398)">
          <g id="Group_1184340" data-name="Group 1184340" transform="translate(20.396)">
            <path id="Path_1031300" data-name="Path 1031300" d="M1491.819,1688.955c1.864-3.595.936-8.011-.69-11.72s-3.916-7.175-4.808-11.125a29.452,29.452,0,0,1-.237-9.13" transform="translate(-1482.503 -1654.659)" fill="none" stroke="#33484c" stroke-miterlimit="10" stroke-width="1"/>
            <path id="Path_1031301" data-name="Path 1031301" d="M1512.592,1838.92a2.238,2.238,0,0,0,.629-.449,7.3,7.3,0,0,0,.884-.886,2.713,2.713,0,0,0,.574-1.123,1.1,1.1,0,0,0-.159-.962c-.193-.207-.49-.176-.777.089a3.555,3.555,0,0,0-.788,1.336,9.532,9.532,0,0,0-.427,1.484C1512.463,1838.77,1512.467,1838.943,1512.592,1838.92Z" transform="translate(-1507.933 -1824.936)" fill="#465b60"/>
            <path id="Path_1031302" data-name="Path 1031302" d="M1541.572,1906.369a2.235,2.235,0,0,0,.629-.449,7.3,7.3,0,0,0,.884-.886,2.71,2.71,0,0,0,.574-1.123,1.1,1.1,0,0,0-.159-.962c-.192-.207-.49-.176-.777.089a3.556,3.556,0,0,0-.788,1.336,9.532,9.532,0,0,0-.427,1.483C1541.443,1906.219,1541.447,1906.392,1541.572,1906.369Z" transform="translate(-1535.596 -1889.32)" fill="#465b60"/>
            <path id="Path_1031303" data-name="Path 1031303" d="M1491.316,1764.8a2.232,2.232,0,0,0,.633-.443,7.288,7.288,0,0,0,.891-.878,2.71,2.71,0,0,0,.584-1.118,1.1,1.1,0,0,0-.15-.963c-.191-.208-.488-.18-.777.082a3.553,3.553,0,0,0-.8,1.329,9.539,9.539,0,0,0-.44,1.48C1491.188,1764.65,1491.19,1764.823,1491.316,1764.8Z" transform="translate(-1487.625 -1754.2)" fill="#465b60"/>
            <path id="Path_1031304" data-name="Path 1031304" d="M1485.623,1690.011a2.233,2.233,0,0,0,.662-.4,7.293,7.293,0,0,0,.949-.815,2.713,2.713,0,0,0,.659-1.076,1.1,1.1,0,0,0-.084-.971c-.176-.221-.475-.213-.781.029a3.554,3.554,0,0,0-.889,1.271,9.521,9.521,0,0,0-.54,1.446C1485.506,1689.852,1485.5,1690.025,1485.623,1690.011Z" transform="translate(-1482.2 -1682.923)" fill="#465b60"/>
            <path id="Path_1031305" data-name="Path 1031305" d="M1488.144,1608.37a1.419,1.419,0,0,0,.3-.392,4.655,4.655,0,0,0,.368-.7,1.723,1.723,0,0,0,.135-.79.7.7,0,0,0-.279-.553c-.156-.089-.33-.014-.454.2a2.257,2.257,0,0,0-.224.96,6.055,6.055,0,0,0,.022.98C1488.037,1608.3,1488.072,1608.407,1488.144,1608.37Z" transform="translate(-1484.536 -1605.894)" fill="#465b60"/>
            <path id="Path_1031306" data-name="Path 1031306" d="M1422.031,1824.188a2.236,2.236,0,0,0-.475-.61,7.308,7.308,0,0,0-.922-.846,2.71,2.71,0,0,0-1.146-.526,1.1,1.1,0,0,0-.954.2c-.2.2-.155.5.122.772a3.551,3.551,0,0,0,1.368.731,9.515,9.515,0,0,0,1.5.364C1421.886,1824.323,1422.059,1824.313,1422.031,1824.188Z" transform="translate(-1418.132 -1812.352)" fill="#465b60"/>
            <path id="Path_1031307" data-name="Path 1031307" d="M1451.6,1905.058a2.237,2.237,0,0,0-.475-.61,7.3,7.3,0,0,0-.922-.846,2.711,2.711,0,0,0-1.146-.526,1.1,1.1,0,0,0-.954.2c-.2.2-.155.5.122.772a3.553,3.553,0,0,0,1.368.731,9.534,9.534,0,0,0,1.5.364C1451.456,1905.193,1451.629,1905.182,1451.6,1905.058Z" transform="translate(-1446.358 -1889.547)" fill="#465b60"/>
            <path id="Path_1031308" data-name="Path 1031308" d="M1477.516,1984.806a2.236,2.236,0,0,0-.614-.47,7.31,7.31,0,0,0-1.105-.586,2.712,2.712,0,0,0-1.242-.221,1.1,1.1,0,0,0-.873.433c-.141.245-.025.52.312.717a3.553,3.553,0,0,0,1.508.363,9.531,9.531,0,0,0,1.543-.026C1477.41,1984.974,1477.575,1984.92,1477.516,1984.806Z" transform="translate(-1470.835 -1966.36)" fill="#465b60"/>
            <path id="Path_1031309" data-name="Path 1031309" d="M1415.617,1739.611a2.235,2.235,0,0,0-.367-.68,7.316,7.316,0,0,0-.769-.987,2.714,2.714,0,0,0-1.043-.71,1.1,1.1,0,0,0-.974.038c-.229.165-.235.464-.008.782a3.555,3.555,0,0,0,1.228.948,9.528,9.528,0,0,0,1.419.608C1415.451,1739.721,1415.624,1739.739,1415.617,1739.611Z" transform="translate(-1412.288 -1731.177)" fill="#465b60"/>
            <path id="Path_1031310" data-name="Path 1031310" d="M1429.794,1653.3a2.231,2.231,0,0,0-.175-.753,7.308,7.308,0,0,0-.481-1.155,2.714,2.714,0,0,0-.819-.959,1.1,1.1,0,0,0-.95-.22c-.265.1-.349.386-.214.752a3.555,3.555,0,0,0,.934,1.238,9.528,9.528,0,0,0,1.208.96C1429.606,1653.36,1429.768,1653.423,1429.794,1653.3Z" transform="translate(-1426.418 -1648.159)" fill="#465b60"/>
          </g>
          <g id="Group_1184341" data-name="Group 1184341" transform="translate(29.017 6.671)">
            <path id="Path_1031311" data-name="Path 1031311" d="M1603.253,1817.287c-1.767-2.646-1.424-6.176-.475-9.214s2.438-5.943,2.793-9.105a23.149,23.149,0,0,0-.605-7.152" transform="translate(-1601.996 -1790.037)" fill="none" stroke="#33484c" stroke-miterlimit="10" stroke-width="1"/>
            <path id="Path_1031312" data-name="Path 1031312" d="M1630.891,1938.888a1.757,1.757,0,0,1-.53-.3,5.757,5.757,0,0,1-.767-.615,2.131,2.131,0,0,1-.546-.828.867.867,0,0,1,.041-.765c.132-.178.367-.18.614,0a2.794,2.794,0,0,1,.731.975,7.508,7.508,0,0,1,.462,1.122C1630.979,1938.759,1630.991,1938.9,1630.891,1938.888Z" transform="translate(-1627.755 -1927.907)" fill="#465b60"/>
            <path id="Path_1031313" data-name="Path 1031313" d="M1614.1,1994.078a1.757,1.757,0,0,1-.53-.3,5.748,5.748,0,0,1-.767-.615,2.132,2.132,0,0,1-.546-.828.867.867,0,0,1,.041-.765c.132-.178.367-.18.614,0a2.8,2.8,0,0,1,.731.975,7.493,7.493,0,0,1,.462,1.122C1614.187,1993.949,1614.2,1994.085,1614.1,1994.078Z" transform="translate(-1611.727 -1980.589)" fill="#465b60"/>
            <path id="Path_1031314" data-name="Path 1031314" d="M1640.7,1879.194a1.758,1.758,0,0,1-.533-.292,5.75,5.75,0,0,1-.772-.609,2.131,2.131,0,0,1-.553-.823.867.867,0,0,1,.034-.765c.131-.179.366-.183.614,0a2.793,2.793,0,0,1,.74.969,7.5,7.5,0,0,1,.472,1.118C1640.786,1879.064,1640.8,1879.2,1640.7,1879.194Z" transform="translate(-1637.099 -1870.939)" fill="#465b60"/>
            <path id="Path_1031315" data-name="Path 1031315" d="M1635.625,1820.654a1.755,1.755,0,0,1-.552-.255,5.74,5.74,0,0,1-.812-.554,2.131,2.131,0,0,1-.608-.783.867.867,0,0,1-.018-.766c.118-.188.353-.207.613-.045a2.794,2.794,0,0,1,.8.916,7.486,7.486,0,0,1,.547,1.083C1635.7,1820.519,1635.725,1820.654,1635.625,1820.654Z" transform="translate(-1632.12 -1815.166)" fill="#465b60"/>
            <path id="Path_1031316" data-name="Path 1031316" d="M1650.613,1754.579a1.113,1.113,0,0,1-.265-.28,3.633,3.633,0,0,1-.348-.518,1.353,1.353,0,0,1-.174-.605.55.55,0,0,1,.17-.456c.114-.083.257-.039.372.118a1.774,1.774,0,0,1,.258.73,4.749,4.749,0,0,1,.067.768C1650.69,1754.518,1650.672,1754.6,1650.613,1754.579Z" transform="translate(-1647.651 -1752.678)" fill="#465b60"/>
            <path id="Path_1031317" data-name="Path 1031317" d="M1679.966,1917.723a1.753,1.753,0,0,1,.318-.518,5.75,5.75,0,0,1,.647-.74,2.132,2.132,0,0,1,.85-.51.867.867,0,0,1,.763.073c.172.14.164.375-.028.614a2.792,2.792,0,0,1-1.005.69,7.475,7.475,0,0,1-1.14.414C1680.091,1917.817,1679.955,1917.823,1679.966,1917.723Z" transform="translate(-1676.422 -1908.486)" fill="#465b60"/>
            <path id="Path_1031318" data-name="Path 1031318" d="M1663.876,1983.453a1.754,1.754,0,0,1,.318-.517,5.74,5.74,0,0,1,.647-.74,2.131,2.131,0,0,1,.85-.51.867.867,0,0,1,.763.073c.172.14.164.375-.028.614a2.8,2.8,0,0,1-1.005.69,7.48,7.48,0,0,1-1.14.414C1664,1983.547,1663.865,1983.553,1663.876,1983.453Z" transform="translate(-1661.063 -1971.229)" fill="#465b60"/>
            <path id="Path_1031319" data-name="Path 1031319" d="M1644.647,2048.516a1.756,1.756,0,0,1,.438-.421,5.742,5.742,0,0,1,.813-.553,2.131,2.131,0,0,1,.951-.28.867.867,0,0,1,.72.263c.132.179.064.4-.182.587a2.788,2.788,0,0,1-1.146.414,7.467,7.467,0,0,1-1.208.114C1644.744,2048.638,1644.611,2048.61,1644.647,2048.516Z" transform="translate(-1642.703 -2033.874)" fill="#465b60"/>
            <path id="Path_1031320" data-name="Path 1031320" d="M1683.307,1850.877a1.754,1.754,0,0,1,.228-.563,5.728,5.728,0,0,1,.515-.837,2.13,2.13,0,0,1,.753-.645.866.866,0,0,1,.764-.055c.193.109.224.342.074.61a2.794,2.794,0,0,1-.877.847,7.487,7.487,0,0,1-1.056.6C1683.445,1850.949,1683.312,1850.978,1683.307,1850.877Z" transform="translate(-1679.611 -1844.347)" fill="#465b60"/>
            <path id="Path_1031321" data-name="Path 1031321" d="M1676.008,1784.474a1.754,1.754,0,0,1,.072-.6,5.741,5.741,0,0,1,.276-.944,2.132,2.132,0,0,1,.557-.82.867.867,0,0,1,.723-.254c.215.054.306.271.232.569a2.794,2.794,0,0,1-.623,1.048,7.483,7.483,0,0,1-.861.855C1676.16,1784.507,1676.039,1784.57,1676.008,1784.474Z" transform="translate(-1672.635 -1780.513)" fill="#465b60"/>
          </g>
          <g id="Group_1184352" data-name="Group 1184352" transform="translate(0 16.899)">
            <path id="Path_1031322" data-name="Path 1031322" d="M1005.745,1996.223c-.484-2.807-1.752-5.737-4.29-7.028-2.345-1.194-5.807-.1-6.5,2.315a.086.086,0,0,1-.169-.016c-.264-2.906-.635-5.877-2.125-8.37-1.6-2.677-4.9-4.615-7.854-3.629-2.774.925-2.341,4.54-1.652,6.886a.086.086,0,0,1-.151.077c-2.488-3.173-5.166-6.4-8.87-7.956a9.417,9.417,0,0,0-9.235,1.01,3.837,3.837,0,0,0-.062,5.905c3.368,2.795,12.381,4.768,15.4,8.608a.087.087,0,0,1-.056.139c-4.062.619-13,2.964-11.953,6.808s10.564,5.708,14.334,5.419a.085.085,0,0,1,.089.109c-.955,3.405-1.146,7.206.511,10.325,1.676,3.156,5.66,5.235,8.972,3.893,1.618-.656,2.9-2.01,4.566-2.538,4.04-1.283,15.243,6.836,14.439-.834-.291-2.773-3.683-7.108-4.338-9.9C1005.94,2003.772,1006.384,1999.928,1005.745,1996.223Z" transform="translate(-963.482 -1977.748)" fill="#7bb1b1"/>
            <g id="Group_1184343" data-name="Group 1184343" transform="translate(16.578 10.494)">
              <g id="Group_1184342" data-name="Group 1184342">
                <path id="Path_1031323" data-name="Path 1031323" d="M1358.778,2240.457c-.568-.727-1.151-1.442-1.74-2.153s-1.186-1.414-1.791-2.111q-1.812-2.093-3.72-4.1c-1.276-1.333-2.589-2.631-3.961-3.865l-.517-.459c-.174-.152-.35-.3-.525-.451s-.353-.3-.531-.444-.355-.295-.538-.435c-.72-.576-1.466-1.121-2.239-1.622l-.579-.38-.289-.19c-.1-.063-.189-.133-.283-.2l-.282-.2-.141-.1-.138-.1-.549-.422c-.722-.575-1.417-1.185-2.093-1.813-1.349-1.261-2.62-2.6-3.838-3.99q-.916-1.038-1.79-2.112t-1.723-2.167q-.843-1.1-1.656-2.219c-.541-.748-1.074-1.5-1.589-2.267.517.764,1.054,1.515,1.6,2.26s1.1,1.482,1.665,2.211,1.14,1.452,1.725,2.164,1.182,1.417,1.793,2.109c1.22,1.384,2.491,2.724,3.841,3.982.677.626,1.371,1.234,2.093,1.808l.549.421.137.1.141.1.281.2c.094.066.186.136.283.2l.289.19.579.379c.775.5,1.52,1.05,2.241,1.627.183.141.359.29.537.436s.357.293.531.445.351.3.525.452l.517.461c1.371,1.237,2.683,2.536,3.958,3.872s2.51,2.708,3.715,4.1q.9,1.049,1.782,2.118C1357.632,2239.01,1358.212,2239.728,1358.778,2240.457Z" transform="translate(-1328.266 -2208.653)" fill="#fff"/>
              </g>
            </g>
            <g id="Group_1184345" data-name="Group 1184345" transform="translate(23.339 9.678)">
              <g id="Group_1184344" data-name="Group 1184344">
                <path id="Path_1031324" data-name="Path 1031324" d="M1480.048,2203.458a17.934,17.934,0,0,1-1.688-2.962,15.519,15.519,0,0,1-1.081-3.234,9.877,9.877,0,0,1-.136-3.4,8.138,8.138,0,0,1,.171-.837,7.371,7.371,0,0,1,.265-.812,7.281,7.281,0,0,1,.362-.773,7.875,7.875,0,0,1,.45-.725,7.407,7.407,0,0,0-1.218,3.151,9.844,9.844,0,0,0,.151,3.386,15.492,15.492,0,0,0,1.064,3.231q.349.778.766,1.523A16.48,16.48,0,0,0,1480.048,2203.458Z" transform="translate(-1477.052 -2190.714)" fill="#fff"/>
              </g>
            </g>
            <g id="Group_1184347" data-name="Group 1184347" transform="translate(17.637 25.004)">
              <g id="Group_1184346" data-name="Group 1184346">
                <path id="Path_1031325" data-name="Path 1031325" d="M1365.224,2529.42c-.278.1-.561.177-.846.252s-.572.141-.86.2c-.577.116-1.161.2-1.747.261a18.363,18.363,0,0,1-3.529.017c-.586-.06-1.169-.15-1.747-.266-.287-.067-.576-.124-.859-.205l-.213-.057c-.071-.019-.142-.038-.212-.061l-.422-.131-.105-.033-.1-.037-.208-.074-.208-.074-.1-.038-.1-.042-.409-.166-.1-.042-.1-.046-.2-.092a16.032,16.032,0,0,1-1.558-.829,16.1,16.1,0,0,0,1.567.809l.2.091.1.046.1.041.409.164.1.041.1.037.208.073.208.073.1.037.105.032.422.129c.07.022.141.041.212.06l.213.056c.283.08.572.136.858.2.577.113,1.159.2,1.744.258a18.327,18.327,0,0,0,3.521,0q.878-.085,1.745-.253c.289-.053.576-.118.862-.187S1364.945,2529.513,1365.224,2529.42Z" transform="translate(-1351.586 -2527.956)" fill="#fff"/>
              </g>
            </g>
            <g id="Group_1184349" data-name="Group 1184349" transform="translate(35.966 20.705)">
              <g id="Group_1184348" data-name="Group 1184348">
                <path id="Path_1031326" data-name="Path 1031326" d="M1756.434,2444.2a21.321,21.321,0,0,1-.954-2.785,17.037,17.037,0,0,1-.538-2.895,10.157,10.157,0,0,1-.022-1.474,6.471,6.471,0,0,1,.249-1.452,4.114,4.114,0,0,1,.657-1.314,3.448,3.448,0,0,1,1.128-.932,3.435,3.435,0,0,0-1.111.945,4.1,4.1,0,0,0-.646,1.309,6.44,6.44,0,0,0-.24,1.446,10.159,10.159,0,0,0,.029,1.468,17,17,0,0,0,.522,2.891c.125.474.266.944.421,1.41S1756.247,2443.749,1756.434,2444.2Z" transform="translate(-1754.903 -2433.352)" fill="#fff"/>
              </g>
            </g>
            <g id="Group_1184351" data-name="Group 1184351" transform="translate(29.614 35.617)">
              <g id="Group_1184350" data-name="Group 1184350">
                <path id="Path_1031327" data-name="Path 1031327" d="M1627.756,2762.572a18.625,18.625,0,0,1-3.189.618,19.519,19.519,0,0,1-3.249.095c-.271-.014-.541-.042-.811-.067s-.539-.064-.806-.111-.534-.1-.8-.15c-.132-.03-.264-.063-.4-.094-.066-.016-.132-.031-.2-.049l-.2-.056-.2-.056c-.065-.019-.131-.036-.195-.059l-.386-.128-.1-.032-.095-.037-.19-.073c-.126-.049-.254-.095-.377-.152l-.372-.165c-.122-.058-.242-.122-.364-.182l-.181-.092c-.059-.032-.118-.067-.177-.1l-.353-.2.355.2c.059.033.118.066.178.1l.182.089c.122.059.243.121.366.177l.373.16c.123.056.251.1.377.15l.19.072.095.036.1.032.386.126c.064.022.13.039.195.058l.2.055.2.055c.065.018.132.032.2.048.132.031.263.063.4.092.266.051.531.107.8.146s.536.074.8.107.539.051.809.063a19.424,19.424,0,0,0,3.243-.079q.808-.085,1.608-.231c.266-.048.532-.1.8-.159S1627.5,2762.647,1627.756,2762.572Z" transform="translate(-1615.131 -2761.479)" fill="#fff"/>
              </g>
            </g>
          </g>
        </g>
        <g id="Group_1184355" data-name="Group 1184355" transform="translate(42.243 31.652)">
          <g id="Group_1184354" data-name="Group 1184354">
            <path id="Path_1031328" data-name="Path 1031328" d="M1605.139,890.543a12.262,12.262,0,0,0-13.015-8.9,12.36,12.36,0,0,0-2.117.395,12.207,12.207,0,0,0-4.66,2.488,12.333,12.333,0,0,0-2.725,3.315,12.2,12.2,0,0,0-1.54,5.058,12.412,12.412,0,0,0,.418,4.271,12.278,12.278,0,0,0,10.862,8.925,12.4,12.4,0,0,0,4.271-.418,12.2,12.2,0,0,0,4.664-2.491,12.335,12.335,0,0,0,2.724-3.316,12.2,12.2,0,0,0,1.537-5.054,12.412,12.412,0,0,0-.418-4.271Zm-5.089,6.063a7.3,7.3,0,0,1-2.724,3.316,7.2,7.2,0,0,1-1.2.639,7.279,7.279,0,1,1,3.919-3.955Z" transform="translate(-1578.322 -878.753)" fill="#89bcbf"/>
            <path id="Path_1031329" data-name="Path 1031329" d="M1823.313,1299.22l.71,7.257a.8.8,0,0,1-.717.873l-2.68.262a.8.8,0,0,1-.873-.717l-.71-7.257a7.32,7.32,0,0,0,4.271-.418Z" transform="translate(-1805.503 -1277.411)" fill="#89bcbf"/>
            <path id="Path_1031330" data-name="Path 1031330" d="M1777.8,820.04l.711,7.258a7.319,7.319,0,0,0-4.271.418l-.71-7.258a.8.8,0,0,1,.717-.873l2.68-.262A.8.8,0,0,1,1777.8,820.04Z" transform="translate(-1762.055 -819.319)" fill="#89bcbf"/>
            <path id="Path_1031331" data-name="Path 1031331" d="M1528.885,1121.729a7.274,7.274,0,0,0,.529,2.1l-7.152.7a.8.8,0,0,1-.873-.717l-.262-2.68a.8.8,0,0,1,.717-.873l7.152-.7A7.273,7.273,0,0,0,1528.885,1121.729Z" transform="translate(-1521.123 -1105.917)" fill="#89bcbf"/>
            <path id="Path_1031332" data-name="Path 1031332" d="M2006.935,1074.54l.262,2.68a.8.8,0,0,1-.718.873l-7.363.721a7.32,7.32,0,0,0-.418-4.271l7.363-.721A.8.8,0,0,1,2006.935,1074.54Z" transform="translate(-1976.995 -1062.253)" fill="#89bcbf"/>
            <path id="Path_1031333" data-name="Path 1031333" d="M1630.087,1249.6l-3.136,4.1-1.328,1.735a.8.8,0,0,1-1.12.149l-2.138-1.638a.8.8,0,0,1-.149-1.12l1.3-1.694,3.112-4.064A7.3,7.3,0,0,0,1630.087,1249.6Z" transform="translate(-1617.464 -1227.622)" fill="#89bcbf"/>
            <path id="Path_1031334" data-name="Path 1031334" d="M1917.423,871.1a.8.8,0,0,1,.149,1.12l-1.325,1.731-3.136,4.094a7.3,7.3,0,0,0-3.352-2.681l3.112-4.064,1.293-1.689a.8.8,0,0,1,1.12-.149Z" transform="translate(-1892.097 -867.026)" fill="#89bcbf"/>
            <path id="Path_1031335" data-name="Path 1031335" d="M1582.875,918.3a7.3,7.3,0,0,0-2.725,3.315l-3.969-3.261-1.591-1.307a.8.8,0,0,1-.11-1.125l1.71-2.081a.8.8,0,0,1,1.125-.11Z" transform="translate(-1571.882 -909.268)" fill="#89bcbf"/>
            <path id="Path_1031336" data-name="Path 1031336" d="M1947.86,1218l-1.71,2.081a.8.8,0,0,1-1.125.11l-1.74-1.429-3.969-3.261a7.3,7.3,0,0,0,2.724-3.316l5.709,4.691A.8.8,0,0,1,1947.86,1218Z" transform="translate(-1920.312 -1194.333)" fill="#89bcbf"/>
          </g>
        </g>
        <g id="Group_1184357" data-name="Group 1184357" transform="translate(108.185 34.833)">
          <g id="Group_1184356" data-name="Group 1184356">
            <path id="Path_1031337" data-name="Path 1031337" d="M3026.3,935.21a7.867,7.867,0,0,0-1.719-3.136,7.948,7.948,0,0,0-2.175-1.709,7.859,7.859,0,0,0-3.105-.907,7.911,7.911,0,0,0-4.169,14.955,7.862,7.862,0,0,0,2.934.818,7.992,7.992,0,0,0,2.752-.27,7.861,7.861,0,0,0,3.006-1.605,7.946,7.946,0,0,0,1.755-2.137,7.865,7.865,0,0,0,.991-3.257,8,8,0,0,0-.27-2.752Zm-3.279,3.908a4.706,4.706,0,0,1-1.755,2.137,4.68,4.68,0,0,1-4.113.519,4.693,4.693,0,0,1-3.061-5.369,4.648,4.648,0,0,1,.255-.836,4.693,4.693,0,0,1,5.277-2.816,4.642,4.642,0,0,1,.777.231,4.705,4.705,0,0,1,2.16,1.728,4.679,4.679,0,0,1,.461,4.4Z" transform="translate(-3009.014 -927.612)" fill="#89bcbf"/>
            <path id="Path_1031338" data-name="Path 1031338" d="M3166.9,1198.59l.458,4.677a.515.515,0,0,1-.462.563l-1.727.169a.515.515,0,0,1-.563-.462l-.458-4.677a4.716,4.716,0,0,0,2.752-.27Z" transform="translate(-3155.417 -1184.535)" fill="#89bcbf"/>
            <path id="Path_1031339" data-name="Path 1031339" d="M3137.564,889.773l.458,4.677a4.717,4.717,0,0,0-2.752.269l-.458-4.677a.515.515,0,0,1,.462-.563l1.727-.169A.515.515,0,0,1,3137.564,889.773Z" transform="translate(-3127.417 -889.308)" fill="#89bcbf"/>
            <path id="Path_1031340" data-name="Path 1031340" d="M2977.149,1084.2a4.682,4.682,0,0,0,.341,1.356l-4.609.451a.515.515,0,0,1-.562-.462l-.169-1.727a.515.515,0,0,1,.462-.563l4.609-.451A4.687,4.687,0,0,0,2977.149,1084.2Z" transform="translate(-2972.147 -1074.009)" fill="#89bcbf"/>
            <path id="Path_1031341" data-name="Path 1031341" d="M3285.23,1053.8l.169,1.727a.515.515,0,0,1-.462.563l-4.745.464a4.716,4.716,0,0,0-.27-2.752l4.745-.465A.515.515,0,0,1,3285.23,1053.8Z" transform="translate(-3265.935 -1045.878)" fill="#89bcbf"/>
            <path id="Path_1031342" data-name="Path 1031342" d="M3042.368,1166.605l-2.021,2.639-.856,1.118a.515.515,0,0,1-.722.1l-1.378-1.055a.515.515,0,0,1-.1-.722l.836-1.092,2.006-2.619A4.7,4.7,0,0,0,3042.368,1166.605Z" transform="translate(-3034.234 -1152.443)" fill="#89bcbf"/>
            <path id="Path_1031343" data-name="Path 1031343" d="M3227.545,922.679a.515.515,0,0,1,.1.722l-.854,1.116-2.021,2.639a4.707,4.707,0,0,0-2.16-1.728l2.006-2.619.833-1.088a.515.515,0,0,1,.722-.1Z" transform="translate(-3211.224 -920.054)" fill="#89bcbf"/>
            <path id="Path_1031344" data-name="Path 1031344" d="M3011.937,953.1a4.7,4.7,0,0,0-1.756,2.136l-2.558-2.1-1.025-.843a.515.515,0,0,1-.071-.725l1.1-1.341a.515.515,0,0,1,.725-.071Z" transform="translate(-3004.852 -947.277)" fill="#89bcbf"/>
            <path id="Path_1031345" data-name="Path 1031345" d="M3247.169,1146.244l-1.1,1.341a.515.515,0,0,1-.725.071l-1.121-.921-2.558-2.1a4.706,4.706,0,0,0,1.755-2.137l3.679,3.023A.515.515,0,0,1,3247.169,1146.244Z" transform="translate(-3229.415 -1130.99)" fill="#89bcbf"/>
          </g>
        </g>
        <rect id="Rectangle_459315" data-name="Rectangle 459315" width="167.126" height="2.154" transform="translate(10.437 147.876)"/>
        <g id="Group_1184388" data-name="Group 1184388" transform="translate(9.512 94.579)">
          <g id="Group_1184358" data-name="Group 1184358" transform="translate(0 8.527)">
            <path id="Path_1031346" data-name="Path 1031346" d="M867.893,2412.312a9.246,9.246,0,0,0,.047-2.754c-.612-4.365-3.881-8.381-8.911-11.5-5.926-3.676-14.287-6.11-23.621-6.412a58.3,58.3,0,0,0-8.738.365c-.246.029-7.036,1.339-7.315,1.416-6.137,1.68-11.147,4.43-14.271,7.859a.722.722,0,0,0-.087-.01,3.52,3.52,0,0,0-2.631,1.088,4.153,4.153,0,0,0-1.169,2.79l-.3,9.172a3.848,3.848,0,0,0,3.541,4.115,3.317,3.317,0,0,0,.608-.037.6.6,0,0,1,.527.179,30.685,30.685,0,0,0,11.372,7.111h0q1.777.676,3.7,1.23a.6.6,0,0,1,.433.59l-.151,4.683a3.847,3.847,0,0,0,3.541,4.115l.607.02a3.845,3.845,0,0,0,3.8-3.878l.1-3.211a.6.6,0,0,1,.662-.571c1.487.165,3.009.276,4.554.325a57.687,57.687,0,0,0,9.6-.48.6.6,0,0,1,.678.607l-.1,3.223a3.845,3.845,0,0,0,3.541,4.115l.6.02a3.845,3.845,0,0,0,3.8-3.878l.183-5.663a.6.6,0,0,1,.4-.542c7.58-2.606,13.039-6.952,14.647-12.142C867.578,2414.242,867.759,2413.143,867.893,2412.312Z" transform="translate(-800.898 -2391.614)" fill="#faccb2"/>
            <path id="Path_1031347" data-name="Path 1031347" d="M1253.9,2557.946c-1.608,5.19-7.066,9.536-14.647,12.142a.6.6,0,0,0-.4.542l-.183,5.663a3.845,3.845,0,0,1-3.8,3.878l-.6-.02a3.845,3.845,0,0,1-3.541-4.115l.1-3.223a.6.6,0,0,0-.677-.607,57.714,57.714,0,0,1-9.6.48c-1.545-.05-3.067-.161-4.554-.325a.6.6,0,0,0-.662.571l-.1,3.21a3.845,3.845,0,0,1-3.8,3.878l-.607-.02a3.847,3.847,0,0,1-3.541-4.115l.151-4.683a.6.6,0,0,0-.433-.59q-.473-.136-.938-.28a.6.6,0,0,1,.121-1.161c32.7-2.92,38.222-22.176,39.058-26.546a.6.6,0,0,1,.912-.384c5.264,3.491,8.392,8.006,8.235,12.843" transform="translate(-1187.243 -2535.302)" fill="#fab895"/>
          </g>
          <g id="Group_1184359" data-name="Group 1184359" transform="translate(8.711 17.499)">
            <path id="Path_1031348" data-name="Path 1031348" d="M996.482,2591.111c-.455-.937-.961-1.427-1.505-1.457-.816-.042-1.633.966-1.879,1.359l-.516-.324c.044-.07,1.091-1.716,2.428-1.644.782.042,1.461.647,2.021,1.8Z" transform="translate(-992.581 -2589.043)" fill="#ed815a"/>
          </g>
          <g id="Group_1184360" data-name="Group 1184360" transform="translate(19.064 2.722)">
            <path id="Path_1031349" data-name="Path 1031349" d="M1220.39,2271.832s1.866,1.844,1.91,2.349c0,0,.549-7.265-1.69-9.833Z" transform="translate(-1220.39 -2264.326)" fill="#ed815a"/>
            <path id="Path_1031350" data-name="Path 1031350" d="M1226.895,2273.643s3.711-2.341,4.852-2.385c0,0-1.888-7.835-6.519-7.353C1225.228,2263.9,1227.507,2266.458,1226.895,2273.643Z" transform="translate(-1225.008 -2263.884)" fill="#faccb2"/>
          </g>
          <g id="Group_1184368" data-name="Group 1184368" transform="translate(32.979 0.368)">
            <path id="Path_1031351" data-name="Path 1031351" d="M1542.007,2230.8l0-.018h8.737c.041-.092.082-.185.125-.277q.157-.345.32-.688l0,0q.158-.333.322-.665.208-.42.426-.84a49.178,49.178,0,0,1,6.183-9.155l-.49-.2q-.568-.231-1.146-.451h0l-.487-.183h0a56.44,56.44,0,0,0-5.711-1.773h0q-.263-.067-.527-.131h0q-.246-.061-.495-.119l-.106.152q-.756,1.081-1.449,2.176-.211.335-.418.671-.151.246-.3.493l0,0q-.149.248-.294.5-1.051,1.8-1.936,3.625-.2.407-.388.816l0,0q-.077.166-.153.333c-.077.168-.152.336-.226.5-.008.017-.016.034-.023.052-.026.059-.053.119-.078.179h0c-.019.041-.036.081-.053.122-.06.136-.118.272-.176.408l-.049.115q-.394.933-.745,1.868-.272.722-.519,1.444l-.019.056q-.166.486-.32.973l-.006.018Z" transform="translate(-1541.301 -2216.099)" fill="#587f78"/>
            <path id="Path_1031352" data-name="Path 1031352" d="M1571.161,2256.678q-.184.236-.364.473h0a49.121,49.121,0,0,0-4.59,7.28q-.088.171-.173.341-.073.144-.143.288l0,0h0q-.16.323-.313.646-.363.766-.695,1.536h-7.139q.186-.57.388-1.141.04-.114.081-.227.2-.553.411-1.106.163-.423.335-.847h0l.049-.121h0c.026-.063.052-.125.079-.189q.078-.19.159-.38h0l.016-.039q.063-.15.128-.3l0,0,0-.005q.123-.285.25-.57l.054-.12.072-.159,0,0q.171-.376.349-.751h0l.039-.083q.128-.271.261-.541c.052-.1.1-.211.156-.316q.723-1.452,1.553-2.888.146-.252.295-.5l0,0q.148-.25.3-.5.314-.517.641-1.031.3-.464.6-.925.727.168,1.442.354h0q1.725.447,3.382.993.853.28,1.686.585Q1570.821,2256.549,1571.161,2256.678Z" transform="translate(-1556.325 -2252.565)" fill="#4bcf69"/>
            <g id="Group_1184362" data-name="Group 1184362" transform="translate(3.243 9.093)">
              <path id="Path_1031353" data-name="Path 1031353" d="M1599.817,2417.182a2.1,2.1,0,0,1-1.692-2.976,3.592,3.592,0,0,1,3.935-1.968,2.1,2.1,0,0,1,1.447,3.1A3.518,3.518,0,0,1,1599.817,2417.182Z" transform="translate(-1597.932 -2412.158)" fill="#058633"/>
              <g id="Group_1184361" data-name="Group 1184361" transform="translate(1.535 1.819)">
                <path id="Path_1031354" data-name="Path 1031354" d="M1634.256,2453.048a.555.555,0,0,0,.009-.42.443.443,0,0,0-.323-.216.8.8,0,0,0-.333-.008l-.034.007a.8.8,0,0,0-.242.091q-.113.066-.377.265l-.006,0a.752.752,0,0,1-.186.11.21.21,0,0,1-.055.013,1.106,1.106,0,0,1-.277-.029.171.171,0,0,1-.1-.047.076.076,0,0,1,0-.084.1.1,0,0,1,.088-.066,1.4,1.4,0,0,1,.285.04l.135.028.094-.208.044-.1.093-.2-.016,0-.092-.019a.843.843,0,0,0-.59.047c-.019.011-.038.022-.056.034l-.024.016a.821.821,0,0,0-.185.174.709.709,0,0,0-.055.082l-.011.019-.173-.032-.044-.008-.077.175c-.008.021-.017.04-.026.061l.209.038a.5.5,0,0,0,.038.433.405.405,0,0,0,.074.08.554.554,0,0,0,.146.085.988.988,0,0,0,.187.054l.064.01a.861.861,0,0,0,.264,0l.009,0,.059-.012a.648.648,0,0,0,.173-.066,3.1,3.1,0,0,0,.31-.221,2.644,2.644,0,0,1,.323-.228.293.293,0,0,1,.187-.01l.015,0a.193.193,0,0,1,.1.049.066.066,0,0,1,.007.077.1.1,0,0,1-.079.064.46.46,0,0,1-.131-.011l-.065-.014-.09-.02-.011.025c-.055.121-.109.241-.163.363l-.052.115c.044.013.078.022.1.027a.676.676,0,0,0,.428-.032.637.637,0,0,0,.166-.11.929.929,0,0,0,.16-.2l.173.041.107-.229Z" transform="translate(-1631.718 -2452.177)" fill="#4bcf69"/>
              </g>
            </g>
            <g id="Group_1184367" data-name="Group 1184367">
              <g id="Group_1184363" data-name="Group 1184363">
                <path id="Path_1031355" data-name="Path 1031355" d="M1541.536,2214.372l-.038-.014a56.2,56.2,0,0,0-6.158-1.912l-.026-.007-.016,0q-.747-.186-1.507-.354-.438.631-.854,1.267t-.793,1.247q-.151.244-.3.487l0,0q-.148.246-.293.492-1.027,1.74-1.9,3.506-.2.4-.388.8l0,0q-.093.2-.184.392-.1.214-.2.427c-.018.039-.036.078-.053.117q-.066.147-.131.294-.044.1-.086.2c-.03.068-.06.136-.089.2q-.067.155-.133.31-.192.45-.374.9-.214.528-.413,1.057-.1.253-.189.506-.255.694-.486,1.389c-.023.068-.046.135-.068.2q-.146.441-.282.882h.706l-.006.018h.005l0-.018h8.224q.221-.505.457-1.01.154-.332.316-.664a.007.007,0,0,1,0,0q.156-.322.319-.644l.078-.153a49.092,49.092,0,0,1,5.323-8.248l0-.005,0-.005q.439-.553.9-1.1l.014-.017Q1542.237,2214.635,1541.536,2214.372Z" transform="translate(-1526.574 -2212.081)" fill="#749791"/>
                <path id="Path_1031356" data-name="Path 1031356" d="M1553.987,2251.91q-1.651-.543-3.37-.99-1.084-.281-2.193-.523-.256.39-.5.781-.212.335-.418.671-.151.246-.3.493l0,0q-.149.248-.294.5-1.051,1.8-1.937,3.624-.2.408-.388.816l0,0q-.078.166-.153.332-.115.252-.227.5c-.008.017-.016.034-.023.052-.026.059-.052.118-.078.177l-.054.123h0c-.06.136-.118.272-.176.408l-.048.115q-.393.931-.744,1.864-.271.721-.518,1.444l-.019.055q-.166.487-.32.975h7.136q.519-1.24,1.122-2.474l0-.009q.152-.311.309-.621h0l0,0q.154-.3.313-.605a49.651,49.651,0,0,1,3.943-6.294q.3-.41.612-.816l.013-.017Q1554.843,2252.191,1553.987,2251.91Z" transform="translate(-1541.513 -2248.656)" fill="#aac7c2"/>
              </g>
              <g id="Group_1184364" data-name="Group 1184364" transform="translate(6.153 0.303)">
                <path id="Path_1031357" data-name="Path 1031357" d="M1800.243,2262.422a1.009,1.009,0,0,1-.538-1.644,2.139,2.139,0,0,1,2.315-.657,1.006,1.006,0,0,1,.471,1.665A2.141,2.141,0,0,1,1800.243,2262.422Z" transform="translate(-1793.211 -2258.132)" fill="#41a195"/>
                <path id="Path_1031358" data-name="Path 1031358" d="M1662.869,2221.292a.981.981,0,0,1-.688-1.588,2.367,2.367,0,0,1,2.376-.91.979.979,0,0,1,.623,1.615A2.385,2.385,0,0,1,1662.869,2221.292Z" transform="translate(-1661.972 -2218.739)" fill="#749791"/>
              </g>
              <g id="Group_1184366" data-name="Group 1184366" transform="translate(2.559 8.925)">
                <path id="Path_1031359" data-name="Path 1031359" d="M1584.792,2413.526a2.1,2.1,0,0,1-1.723-2.958,3.642,3.642,0,0,1,3.947-2.023,2.087,2.087,0,0,1,1.48,3.087A3.572,3.572,0,0,1,1584.792,2413.526Z" transform="translate(-1582.881 -2408.473)" fill="#058633"/>
                <g id="Group_1184365" data-name="Group 1184365" transform="translate(1.541 1.834)">
                  <path id="Path_1031360" data-name="Path 1031360" d="M1619.354,2449.673a.551.551,0,0,0,.005-.42.308.308,0,0,0-.028-.045l-.007-.008a.277.277,0,0,0-.037-.04.542.542,0,0,0-.256-.119.861.861,0,0,0-.223-.018.826.826,0,0,0-.111.014.846.846,0,0,0-.277.1l-.052.033c-.055.036-.127.087-.215.153l-.11.084a.554.554,0,0,1-.248.13.533.533,0,0,1-.1,0,1.691,1.691,0,0,1-.18-.024l-.015,0a.15.15,0,0,1-.086-.042.077.077,0,0,1,0-.084.1.1,0,0,1,.088-.067.584.584,0,0,1,.116.008c.046.006.1.015.171.028l.021,0,.116.022.037-.083q.043-.1.087-.194l.01-.022.1-.211-.109-.021a1.01,1.01,0,0,0-.466,0,.562.562,0,0,0-.125.052l0,0a.926.926,0,0,0-.2.149.787.787,0,0,0-.136.181l-.218-.037-.036.082,0,.006c-.022.05-.043.1-.065.15l.131.022h0l.075.013a.792.792,0,0,0-.024.12.057.057,0,0,0,0,.008.434.434,0,0,0,.066.305.386.386,0,0,0,.081.084l.006,0a.761.761,0,0,0,.323.125.946.946,0,0,0,.329.008h.007a.787.787,0,0,0,.106-.026.6.6,0,0,0,.13-.056,3.175,3.175,0,0,0,.31-.226q.105-.082.179-.136a1.194,1.194,0,0,1,.145-.1.172.172,0,0,1,.041-.014.362.362,0,0,1,.162,0,.194.194,0,0,1,.106.048.066.066,0,0,1,.007.077.1.1,0,0,1-.078.065.715.715,0,0,1-.2-.022l-.091-.019q-.114.253-.224.506c.045.013.078.021.1.026l.034.006a.78.78,0,0,0,.134.012.625.625,0,0,0,.263-.055.772.772,0,0,0,.326-.312l.019,0,.156.034.012-.026.084-.182.011-.023Z" transform="translate(-1616.797 -2448.821)" fill="#4bcf69"/>
                </g>
              </g>
            </g>
          </g>
          <g id="Group_1184379" data-name="Group 1184379" transform="translate(22.124)">
            <path id="Path_1031361" data-name="Path 1031361" d="M1299.273,2223.069h.005l0-.018h4.669q-.086-.276-.174-.552c-.012-.038-.024-.075-.036-.112q-.293-.9-.625-1.809-.051-.141-.1-.281c-.05-.134-.1-.269-.153-.4l-.051-.132c-.022-.06-.046-.119-.069-.178q-.145-.372-.3-.744h0l-.012-.03q-.121-.295-.246-.59-.08-.191-.164-.382-.073-.17-.148-.338h0s0,0,0,0a0,0,0,0,1,0,0c-.074-.167-.149-.333-.225-.5a.009.009,0,0,0,0,0q-.186-.411-.382-.821-.88-1.848-1.928-3.672c-.1-.178-.206-.356-.312-.534l-.008-.013q-.256-.435-.523-.868h0l-.129-.208-.008-.013q-.106-.172-.214-.343-.692-1.095-1.449-2.176l-.106-.152c-.165.039-.33.078-.494.119h0q-.266.064-.53.132h0a56.206,56.206,0,0,0-5.71,1.773l-.491.184h0q-.577.22-1.145.451c-.164.067-.328.134-.491.2a49.087,49.087,0,0,1,6.372,9.523q.627,1.231,1.168,2.474h4.021Z" transform="translate(-1287.717 -2208.001)" fill="#587f78"/>
            <path id="Path_1031362" data-name="Path 1031362" d="M1341.089,2259.528l-.005.018h.005l0-.018h3.962q-.112-.355-.231-.709c-.01-.031-.021-.062-.032-.093q-.281-.835-.6-1.671-.192-.511-.4-1.023c-.026-.065-.052-.13-.078-.2v0c-.079-.2-.161-.389-.242-.584h0l-.031-.072-.011-.025s0,0,0,0l-.045-.106v0q-.155-.364-.317-.726l0,0q-.187-.42-.383-.839-.918-1.969-2.029-3.914v0l-.145-.253q-.18-.311-.365-.621l-.008-.013q-.32-.535-.655-1.067l-.008-.013h0c-.054-.087-.109-.173-.164-.259q-.3-.464-.6-.925-.727.168-1.442.354-1.725.448-3.382.992-.853.28-1.686.585-.343.125-.682.254.184.236.364.473h0a48.965,48.965,0,0,1,4.946,7.99q.606,1.233,1.127,2.474Z" transform="translate(-1329.527 -2244.477)" fill="#4bcf69"/>
            <g id="Group_1184370" data-name="Group 1184370" transform="translate(7.747 9.092)">
              <path id="Path_1031363" data-name="Path 1031363" d="M1462.142,2409.083a2.1,2.1,0,0,0,1.693-2.976,3.592,3.592,0,0,0-3.936-1.969,2.1,2.1,0,0,0-1.447,3.1A3.517,3.517,0,0,0,1462.142,2409.083Z" transform="translate(-1458.191 -2404.058)" fill="#058633"/>
              <g id="Group_1184369" data-name="Group 1184369" transform="translate(1.59 1.819)">
                <path id="Path_1031364" data-name="Path 1031364" d="M1495.885,2444.68l-.027-.061-.077-.176-.216.041-.011-.019a.807.807,0,0,0-.24-.255.885.885,0,0,0-.081-.051.842.842,0,0,0-.59-.047l-.092.019-.016,0q.118.253.232.506l.135-.028a1.385,1.385,0,0,1,.285-.04.1.1,0,0,1,.088.066.076.076,0,0,1,0,.084.169.169,0,0,1-.1.047,1.093,1.093,0,0,1-.276.029.23.23,0,0,1-.056-.013.752.752,0,0,1-.185-.11l-.006,0c-.175-.133-.3-.22-.377-.265a.819.819,0,0,0-.241-.091l-.034-.007a.811.811,0,0,0-.333.009.443.443,0,0,0-.324.216.555.555,0,0,0,.009.42l-.173.041c.036.076.072.153.107.229l.173-.041a.756.756,0,0,0,.326.307.675.675,0,0,0,.428.032c.022-.005.056-.014.1-.027-.071-.159-.142-.319-.214-.478l-.011-.025-.09.02-.065.014a.461.461,0,0,1-.131.011.1.1,0,0,1-.079-.064.066.066,0,0,1,.006-.077.194.194,0,0,1,.1-.049l.015,0a.293.293,0,0,1,.187.01,2.6,2.6,0,0,1,.324.228,3.063,3.063,0,0,0,.309.221.643.643,0,0,0,.173.066c.022.005.045.01.069.013a.931.931,0,0,0,.327-.012.729.729,0,0,0,.332-.139.38.38,0,0,0,.074-.08.5.5,0,0,0,.038-.433Z" transform="translate(-1493.174 -2444.083)" fill="#4bcf69"/>
              </g>
            </g>
            <g id="Group_1184378" data-name="Group 1184378" transform="translate(0.476)">
              <g id="Group_1184371" data-name="Group 1184371">
                <path id="Path_1031365" data-name="Path 1031365" d="M1309.284,2219.035l-.006.018h.005l0-.018h5.372q-.078-.26-.16-.521c-.025-.082-.051-.163-.076-.245q-.272-.854-.578-1.708c-.008-.021-.015-.043-.024-.064-.013-.037-.026-.074-.04-.111q-.1-.278-.205-.558c-.024-.065-.049-.13-.074-.2a.119.119,0,0,0-.007-.019c-.017-.046-.035-.092-.053-.138-.036-.095-.073-.19-.11-.285l-.073-.185q-.145-.368-.3-.736h0q-.1-.237-.2-.475-.172-.405-.351-.808c0-.009-.008-.019-.013-.028q-.089-.2-.181-.4h0c-.059-.131-.12-.262-.181-.393a.009.009,0,0,0,0,0q-.187-.4-.383-.805-.888-1.828-1.94-3.633l-.008-.013q-.317-.545-.65-1.086l-.008-.013q-.419-.682-.862-1.358-.416-.636-.854-1.267-.763.168-1.513.355l-.009,0-.008,0a56.436,56.436,0,0,0-6.177,1.917l-.038.014q-.7.263-1.388.543l.014.017q.455.541.891,1.089l0,.006.021.026,0,0a49.011,49.011,0,0,1,5.5,8.6q.615,1.232,1.144,2.474Z" transform="translate(-1298.199 -2203.985)" fill="#749791"/>
                <path id="Path_1031366" data-name="Path 1031366" d="M1352.712,2255.617h2.431l-.006.018h.005l0-.018h4.664q-.085-.276-.174-.553l-.036-.112q-.293-.9-.625-1.809-.053-.143-.106-.286c-.049-.13-.1-.26-.148-.39-.018-.047-.036-.094-.054-.141l-.067-.172q-.148-.379-.3-.758s0,0,0,0l-.007-.018q-.121-.3-.247-.59c-.054-.127-.108-.253-.163-.38q-.072-.167-.147-.334-.111-.253-.227-.507l0-.005q-.187-.411-.383-.821-.88-1.848-1.928-3.673-.154-.268-.312-.536l-.008-.013q-.258-.437-.526-.871l-.127-.206-.008-.013c-.071-.114-.141-.227-.214-.34q-.247-.392-.5-.781-1.109.241-2.192.523-1.718.446-3.37.99-.856.281-1.692.587l.014.018q.311.406.612.816a49.189,49.189,0,0,1,4.75,7.9Q1352.206,2254.376,1352.712,2255.617Z" transform="translate(-1344.057 -2240.566)" fill="#aac7c2"/>
              </g>
              <g id="Group_1184372" data-name="Group 1184372" transform="translate(0.644 0.303)">
                <path id="Path_1031367" data-name="Path 1031367" d="M1314.888,2254.322a1.009,1.009,0,0,0,.538-1.644,2.139,2.139,0,0,0-2.315-.657,1.006,1.006,0,0,0-.471,1.665A2.141,2.141,0,0,0,1314.888,2254.322Z" transform="translate(-1312.367 -2250.032)" fill="#749791"/>
                <path id="Path_1031368" data-name="Path 1031368" d="M1449.357,2213.2a.981.981,0,0,0,.688-1.588,2.366,2.366,0,0,0-2.376-.909.979.979,0,0,0-.623,1.615A2.387,2.387,0,0,0,1449.357,2213.2Z" transform="translate(-1440.701 -2210.651)" fill="#749791"/>
              </g>
              <g id="Group_1184377" data-name="Group 1184377" transform="translate(7.922 8.925)">
                <path id="Path_1031369" data-name="Path 1031369" d="M1476.487,2405.437a2.1,2.1,0,0,0,1.723-2.958,3.642,3.642,0,0,0-3.947-2.023,2.087,2.087,0,0,0-1.479,3.087A3.573,3.573,0,0,0,1476.487,2405.437Z" transform="translate(-1472.529 -2400.384)" fill="#749791"/>
                <g id="Group_1184376" data-name="Group 1184376" transform="translate(1.596 1.834)">
                  <g id="Group_1184375" data-name="Group 1184375">
                    <g id="Group_1184374" data-name="Group 1184374">
                      <g id="Group_1184373" data-name="Group 1184373">
                        <path id="Path_1031370" data-name="Path 1031370" d="M1510.388,2441.34c-.034-.079-.068-.158-.1-.237l-.218.037a.8.8,0,0,0-.112-.155.9.9,0,0,0-.219-.174.857.857,0,0,0-.594-.055l-.109.021q.054.116.106.233.063.138.124.276l.116-.021.02,0a1.4,1.4,0,0,1,.287-.036.1.1,0,0,1,.088.067.076.076,0,0,1,0,.084.152.152,0,0,1-.087.042l-.015,0a1.12,1.12,0,0,1-.278.025.556.556,0,0,1-.248-.131c-.176-.135-.3-.225-.377-.27a.846.846,0,0,0-.277-.1.791.791,0,0,0-.112-.014.839.839,0,0,0-.223.018.478.478,0,0,0-.3.167.313.313,0,0,0-.028.046.553.553,0,0,0,.006.42l-.174.039.01.023.084.182.012.026.155-.034.019,0a.768.768,0,0,0,.326.312.668.668,0,0,0,.4.043l.034-.006c.022,0,.056-.014.1-.026q-.11-.253-.224-.506l-.091.019a.7.7,0,0,1-.2.022.1.1,0,0,1-.079-.065.067.067,0,0,1,.007-.077.2.2,0,0,1,.106-.048.375.375,0,0,1,.162,0,.178.178,0,0,1,.041.014,1.212,1.212,0,0,1,.144.1q.074.054.18.137a3.17,3.17,0,0,0,.31.226.707.707,0,0,0,.235.082h.007a.738.738,0,0,0,.146.011,1.067,1.067,0,0,0,.183-.019.609.609,0,0,0,.411-.214.5.5,0,0,0,.041-.433Z" transform="translate(-1507.657 -2440.729)" fill="#fcffff"/>
                      </g>
                    </g>
                  </g>
                </g>
              </g>
            </g>
          </g>
          <g id="Group_1184387" data-name="Group 1184387" transform="translate(30.716 1.475)">
            <path id="Path_1031371" data-name="Path 1031371" d="M1483.248,2252.892q-.141-.43-.3-.86-.08-.223-.165-.446-.215-.568-.454-1.134l-.014-.033c-.011-.027-.022-.053-.034-.08q-.231-.54-.484-1.079l-.014-.03q-.186-.4-.385-.791l0,0q-.2-.4-.412-.789-.106-.2-.215-.394a35.493,35.493,0,0,0-3.993-5.744l.352-.145q.406-.166.82-.323h0l.192-.073.157-.059h0q.26-.1.522-.189h0q.343-.122.69-.237,1.409-.471,2.887-.846h0l.373-.093h0l.36-.086.076.109q.543.775,1.04,1.562l.054.086q.214.34.419.682l0,0q.209.347.408.7a37.625,37.625,0,0,1,2.7,5.785h0q.131.355.252.711h0q.119.347.23.694.1.317.2.634.043.144.084.288.074.255.143.509.1.354.185.707.122.485.229.969Z" transform="translate(-1476.778 -2239.317)" fill="#587f78"/>
            <path id="Path_1031372" data-name="Path 1031372" d="M1518.689,2279.077h-4.833q-.108-.344-.225-.688l-.015-.045q-.3-.872-.654-1.741-.222-.543-.467-1.085c-.074-.164-.15-.328-.227-.492q-.056-.119-.114-.238a.021.021,0,0,0,0-.006l-.032-.065-.06-.123v0q-.165-.338-.34-.675l0,0q-.2-.388-.413-.774a35.494,35.494,0,0,0-2.826-4.344q-.129-.17-.261-.34c.163-.062.326-.123.49-.182l.109-.04q.338-.122.679-.239h0q.208-.071.418-.14l.27-.088q1.059-.339,2.156-.625.514-.133,1.035-.254.22.331.433.664l.215.342q.214.343.418.687l0,0q.208.35.407.7a37.679,37.679,0,0,1,1.916,3.879q.1.245.2.491l.057.141q.529,1.316.941,2.634c.018.055.035.111.052.167a.06.06,0,0,1,0,.009q.144.469.274.938.073.263.141.526c.064.244.124.489.182.732C1518.646,2278.892,1518.667,2278.985,1518.689,2279.077Z" transform="translate(-1506.788 -2265.502)" fill="#4bcf69"/>
            <g id="Group_1184381" data-name="Group 1184381" transform="translate(5.561 6.527)">
              <path id="Path_1031373" data-name="Path 1031373" d="M1601.974,2383.655a1.511,1.511,0,0,0,1.215-2.136,2.578,2.578,0,0,0-2.825-1.413,1.5,1.5,0,0,0-1.039,2.227A2.525,2.525,0,0,0,1601.974,2383.655Z" transform="translate(-1599.138 -2380.048)" fill="#058633"/>
              <g id="Group_1184380" data-name="Group 1184380" transform="translate(1.141 1.305)">
                <path id="Path_1031374" data-name="Path 1031374" d="M1626.2,2409.2l-.019-.043-.056-.126-.155.029-.008-.013a.542.542,0,0,0-.049-.07.584.584,0,0,0-.123-.113.67.67,0,0,0-.058-.037.444.444,0,0,0-.194-.054h0a.828.828,0,0,0-.228.02l-.068.014-.01,0,0,.007c.047.1.092.2.137.3l.026.058.1-.02a1.05,1.05,0,0,1,.2-.029.073.073,0,0,1,.063.047.055.055,0,0,1,0,.061.122.122,0,0,1-.072.034.8.8,0,0,1-.2.021.15.15,0,0,1-.041-.01.528.528,0,0,1-.133-.078l0,0-.054-.041c-.1-.073-.17-.122-.216-.149a.567.567,0,0,0-.174-.065l-.025,0-.055-.008h0a.58.58,0,0,0-.184.014.327.327,0,0,0-.225.141l-.008.014a.4.4,0,0,0,.006.3l-.124.03.077.164.124-.029v0a.539.539,0,0,0,.233.219.485.485,0,0,0,.307.023c.016,0,.04-.01.072-.019-.051-.115-.1-.229-.154-.343l-.008-.018-.065.014-.047.009a.327.327,0,0,1-.094.008.065.065,0,0,1-.04-.021.11.11,0,0,1-.016-.025.046.046,0,0,1,0-.055.141.141,0,0,1,.075-.035l.01,0a.21.21,0,0,1,.132.006h0a1.835,1.835,0,0,1,.232.163,2.242,2.242,0,0,0,.223.159.457.457,0,0,0,.124.047h0l.049.01a.658.658,0,0,0,.235-.009.526.526,0,0,0,.239-.1.285.285,0,0,0,.053-.057.36.36,0,0,0,.027-.311Z" transform="translate(-1624.253 -2408.774)" fill="#4bcf69"/>
              </g>
            </g>
            <g id="Group_1184386" data-name="Group 1184386" transform="translate(0.342)">
              <g id="Group_1184382" data-name="Group 1184382">
                <path id="Path_1031375" data-name="Path 1031375" d="M1490.773,2250.009q-.118-.369-.246-.737l-.054-.155q-.281-.792-.608-1.582c-.076-.181-.152-.363-.232-.543-.028-.066-.057-.131-.087-.2q-.185-.417-.384-.832l0-.006q-.193-.405-.4-.809h0l0,0q-.086-.168-.174-.336-.117-.223-.239-.445a35.469,35.469,0,0,0-3.384-5.091q-.317-.4-.649-.793l-.01-.012q.493-.2,1-.39l.019-.007q.339-.127.682-.249h0q.343-.122.69-.237,1.5-.5,3.069-.892h0q.541-.135,1.091-.256.314.452.612.909h0q.162.248.321.5.214.338.419.676l0,0q.208.344.409.689a37.9,37.9,0,0,1,3.2,7.086q.149.449.284.9.052.171.1.341l.044.153q.1.343.189.686.217.819.389,1.634Z" transform="translate(-1484.302 -2236.433)" fill="#749791"/>
                <path id="Path_1031376" data-name="Path 1031376" d="M1529.254,2276.261h-4.84q-.087-.286-.18-.571c-.009-.03-.019-.06-.03-.09q-.3-.907-.658-1.813-.317-.8-.684-1.6-.139-.3-.285-.606c-.041-.084-.082-.168-.124-.253q-.194-.394-.4-.787l0,0q-.2-.382-.413-.762a35.715,35.715,0,0,0-2.225-3.487v0q-.089-.124-.181-.248-.216-.294-.439-.586l-.01-.013.111-.04q.338-.123.679-.239l0,0,.42-.141.268-.087q1.056-.339,2.151-.623.778-.2,1.574-.375.184.28.361.561l.054.086q.214.34.419.682l0,0q.208.347.408.7a37.7,37.7,0,0,1,2.7,5.77q.136.371.263.742.116.341.225.681h0q.1.315.195.63.044.146.086.291h0q.074.255.144.509.1.354.185.707Q1529.147,2275.78,1529.254,2276.261Z" transform="translate(-1517.213 -2262.686)" fill="#aac7c2"/>
              </g>
              <g id="Group_1184383" data-name="Group 1184383" transform="translate(0.462 0.217)">
                <path id="Path_1031377" data-name="Path 1031377" d="M1496.279,2272.564a.724.724,0,0,0,.386-1.18,1.536,1.536,0,0,0-1.661-.472.722.722,0,0,0-.338,1.2A1.536,1.536,0,0,0,1496.279,2272.564Z" transform="translate(-1494.47 -2269.486)" fill="#749791"/>
                <path id="Path_1031378" data-name="Path 1031378" d="M1592.807,2243.051a.7.7,0,0,0,.494-1.14,1.7,1.7,0,0,0-1.706-.653.7.7,0,0,0-.447,1.159A1.714,1.714,0,0,0,1592.807,2243.051Z" transform="translate(-1586.594 -2241.219)" fill="#749791"/>
              </g>
              <g id="Group_1184385" data-name="Group 1184385" transform="translate(5.687 6.407)">
                <path id="Path_1031379" data-name="Path 1031379" d="M1612.278,2381.038a1.5,1.5,0,0,0,1.237-2.123,2.614,2.614,0,0,0-2.833-1.452,1.5,1.5,0,0,0-1.062,2.216A2.565,2.565,0,0,0,1612.278,2381.038Z" transform="translate(-1609.437 -2377.411)" fill="#749791"/>
                <g id="Group_1184384" data-name="Group 1184384" transform="translate(1.146 1.316)">
                  <path id="Path_1031380" data-name="Path 1031380" d="M1636.618,2406.807l-.073-.171-.157.027-.019-.031a.587.587,0,0,0-.113-.13h0a.7.7,0,0,0-.106-.074.616.616,0,0,0-.426-.04l-.078.015.029.064.047.1.056.125c.011.024.022.049.033.073l.083-.015.015,0a.991.991,0,0,1,.206-.026.074.074,0,0,1,.063.048.055.055,0,0,1,0,.061.117.117,0,0,1-.062.031l-.011,0a.816.816,0,0,1-.2.018.4.4,0,0,1-.178-.094l-.085-.065c-.082-.061-.144-.1-.185-.129a.619.619,0,0,0-.2-.073l-.052-.008-.03,0a.591.591,0,0,0-.158.013.415.415,0,0,0-.165.069h0a.253.253,0,0,0-.05.051.208.208,0,0,0-.02.032.4.4,0,0,0,0,.3l-.125.028.008.017.028.061.032.07.008.019.111-.025.014,0a.553.553,0,0,0,.234.224.481.481,0,0,0,.285.031h0l.024,0,.073-.019q-.079-.182-.16-.363l-.066.013a.482.482,0,0,1-.142.016.072.072,0,0,1-.057-.047.047.047,0,0,1,.005-.055.138.138,0,0,1,.076-.034.274.274,0,0,1,.116,0,.128.128,0,0,1,.03.01.87.87,0,0,1,.1.068l.129.1a2.372,2.372,0,0,0,.223.162.516.516,0,0,0,.169.058h.005a.683.683,0,0,0,.236-.005.438.438,0,0,0,.295-.154.359.359,0,0,0,.03-.311Z" transform="translate(-1634.658 -2406.369)" fill="#fcffff"/>
                </g>
              </g>
            </g>
          </g>
          <path id="Path_1031381" data-name="Path 1031381" d="M1408.325,2483.717v2.065a.2.2,0,0,1-.2.2h-20.253a.2.2,0,0,1-.2-.2v-2.065a.2.2,0,0,1,.2-.2h20.254A.2.2,0,0,1,1408.325,2483.717Z" transform="translate(-1360.997 -2470.81)" fill="#ed815a"/>
        </g>
        <g id="Group_1184418" data-name="Group 1184418" transform="translate(54.747 29.823)">
          <path id="Path_1031382" data-name="Path 1031382" d="M2395.313,779.062a11.511,11.511,0,1,0,11.511,11.511A11.511,11.511,0,0,0,2395.313,779.062Zm.052,18.126a6.614,6.614,0,1,1,6.615-6.615A6.615,6.615,0,0,1,2395.365,797.188Z" transform="translate(-2357.102 -779.062)" fill="#244145"/>
          <path id="Path_1031383" data-name="Path 1031383" d="M1869.587,1207.405h-70.208a3.107,3.107,0,0,1-3.107-3.108v-97.109a3.107,3.107,0,0,1,3.107-3.108h70.208a3.108,3.108,0,0,1,3.108,3.108V1204.3A3.108,3.108,0,0,1,1869.587,1207.405Z" transform="translate(-1796.271 -1089.31)" fill="#244145"/>
          <rect id="Rectangle_459316" data-name="Rectangle 459316" width="69.067" height="93.379" transform="translate(3.678 19.743)" fill="#b0d0cb"/>
          <path id="Path_1031384" data-name="Path 1031384" d="M2266.544,1040.592h-37.065l-.179-8.232h37.065Z" transform="translate(-2209.621 -1020.849)" fill="#244145"/>
          <g id="Group_1184417" data-name="Group 1184417" transform="translate(5.25 25.075)">
            <rect id="Rectangle_459317" data-name="Rectangle 459317" width="62.249" height="80.684" transform="translate(2.021 3.902)" fill="#fff"/>
            <g id="Group_1184395" data-name="Group 1184395" transform="translate(7.219 23.606)">
              <g id="Group_1184394" data-name="Group 1184394" transform="translate(0 2.386)">
                <rect id="Rectangle_459318" data-name="Rectangle 459318" width="6.453" height="6.453" transform="translate(52.212 6.481) rotate(180)" fill="#91bbb9"/>
                <g id="Group_1184393" data-name="Group 1184393">
                  <g id="Group_1184389" data-name="Group 1184389" transform="translate(23.907)">
                    <rect id="Rectangle_459319" data-name="Rectangle 459319" width="18.099" height="0.495" fill="#52847f"/>
                  </g>
                  <g id="Group_1184390" data-name="Group 1184390" transform="translate(20.439 3.007)">
                    <rect id="Rectangle_459320" data-name="Rectangle 459320" width="21.695" height="0.495" fill="#52847f"/>
                  </g>
                  <g id="Group_1184391" data-name="Group 1184391" transform="translate(19.441 6.233)">
                    <rect id="Rectangle_459321" data-name="Rectangle 459321" width="22.694" height="0.495" fill="#52847f"/>
                  </g>
                  <g id="Group_1184392" data-name="Group 1184392" transform="translate(0 3.148)">
                    <rect id="Rectangle_459322" data-name="Rectangle 459322" width="15.815" height="0.495" fill="#52847f"/>
                  </g>
                </g>
              </g>
              <path id="Path_1031385" data-name="Path 1031385" d="M3082.66,1853.85l2.032,1.511,7.389-5.091-7.2,7.2Z" transform="translate(-3036.669 -1850.27)" fill="#52847f"/>
            </g>
            <g id="Group_1184402" data-name="Group 1184402" transform="translate(7.219 39.39)">
              <g id="Group_1184401" data-name="Group 1184401" transform="translate(0 2.386)">
                <rect id="Rectangle_459323" data-name="Rectangle 459323" width="6.453" height="6.453" transform="translate(52.212 6.481) rotate(180)" fill="#91bbb9"/>
                <g id="Group_1184400" data-name="Group 1184400">
                  <g id="Group_1184396" data-name="Group 1184396" transform="translate(23.907)">
                    <rect id="Rectangle_459324" data-name="Rectangle 459324" width="18.099" height="0.495" fill="#52847f"/>
                  </g>
                  <g id="Group_1184397" data-name="Group 1184397" transform="translate(20.439 3.007)">
                    <rect id="Rectangle_459325" data-name="Rectangle 459325" width="21.695" height="0.495" fill="#52847f"/>
                  </g>
                  <g id="Group_1184398" data-name="Group 1184398" transform="translate(19.441 6.234)">
                    <rect id="Rectangle_459326" data-name="Rectangle 459326" width="22.694" height="0.495" fill="#52847f"/>
                  </g>
                  <g id="Group_1184399" data-name="Group 1184399" transform="translate(0 3.148)">
                    <rect id="Rectangle_459327" data-name="Rectangle 459327" width="15.815" height="0.495" fill="#52847f"/>
                  </g>
                </g>
              </g>
              <path id="Path_1031386" data-name="Path 1031386" d="M3082.66,2201.159l2.032,1.511,7.389-5.09-7.2,7.2Z" transform="translate(-3036.669 -2197.58)" fill="#52847f"/>
            </g>
            <g id="Group_1184409" data-name="Group 1184409" transform="translate(7.219 54.771)">
              <g id="Group_1184408" data-name="Group 1184408" transform="translate(0 2.386)">
                <rect id="Rectangle_459328" data-name="Rectangle 459328" width="6.453" height="6.453" transform="translate(52.212 6.481) rotate(180)" fill="#91bbb9"/>
                <g id="Group_1184407" data-name="Group 1184407">
                  <g id="Group_1184403" data-name="Group 1184403" transform="translate(23.907)">
                    <rect id="Rectangle_459329" data-name="Rectangle 459329" width="18.099" height="0.495" fill="#52847f"/>
                  </g>
                  <g id="Group_1184404" data-name="Group 1184404" transform="translate(20.439 3.007)">
                    <rect id="Rectangle_459330" data-name="Rectangle 459330" width="21.695" height="0.495" fill="#52847f"/>
                  </g>
                  <g id="Group_1184405" data-name="Group 1184405" transform="translate(19.441 6.234)">
                    <rect id="Rectangle_459331" data-name="Rectangle 459331" width="22.694" height="0.495" fill="#52847f"/>
                  </g>
                  <g id="Group_1184406" data-name="Group 1184406" transform="translate(0 3.148)">
                    <rect id="Rectangle_459332" data-name="Rectangle 459332" width="15.815" height="0.495" fill="#52847f"/>
                  </g>
                </g>
              </g>
              <path id="Path_1031387" data-name="Path 1031387" d="M3082.66,2539.609l2.032,1.511,7.389-5.09-7.2,7.2Z" transform="translate(-3036.669 -2536.03)" fill="#52847f"/>
            </g>
            <g id="Group_1184416" data-name="Group 1184416" transform="translate(7.219 70.152)">
              <g id="Group_1184415" data-name="Group 1184415" transform="translate(0 2.386)">
                <rect id="Rectangle_459333" data-name="Rectangle 459333" width="6.453" height="6.453" transform="translate(52.212 6.481) rotate(180)" fill="#91bbb9"/>
                <g id="Group_1184414" data-name="Group 1184414">
                  <g id="Group_1184410" data-name="Group 1184410" transform="translate(23.907)">
                    <rect id="Rectangle_459334" data-name="Rectangle 459334" width="18.099" height="0.495" fill="#52847f"/>
                  </g>
                  <g id="Group_1184411" data-name="Group 1184411" transform="translate(20.439 3.007)">
                    <rect id="Rectangle_459335" data-name="Rectangle 459335" width="21.695" height="0.495" fill="#52847f"/>
                  </g>
                  <g id="Group_1184412" data-name="Group 1184412" transform="translate(19.441 6.233)">
                    <rect id="Rectangle_459336" data-name="Rectangle 459336" width="22.694" height="0.495" fill="#52847f"/>
                  </g>
                  <g id="Group_1184413" data-name="Group 1184413" transform="translate(0 3.148)">
                    <rect id="Rectangle_459337" data-name="Rectangle 459337" width="15.815" height="0.495" fill="#52847f"/>
                  </g>
                </g>
              </g>
              <path id="Path_1031388" data-name="Path 1031388" d="M3082.66,2878.059l2.032,1.511,7.389-5.09-7.2,7.2Z" transform="translate(-3036.669 -2874.48)" fill="#52847f"/>
            </g>
            <rect id="Rectangle_459338" data-name="Rectangle 459338" width="26.944" height="1.642" transform="translate(31.28 9.145)" fill="#52847f"/>
            <rect id="Rectangle_459339" data-name="Rectangle 459339" width="22.084" height="1.642" transform="translate(36.141 12.968)" fill="#52847f"/>
            <rect id="Rectangle_459340" data-name="Rectangle 459340" width="19.257" height="1.642" transform="translate(38.967 16.376)" fill="#52847f"/>
            <rect id="Rectangle_459341" data-name="Rectangle 459341" width="66.028" height="3.998" fill="#44797d"/>
            <circle id="Ellipse_13767" data-name="Ellipse 13767" cx="1.175" cy="1.175" r="1.175" transform="translate(2.737 0.728)" fill="#fff"/>
            <circle id="Ellipse_13768" data-name="Ellipse 13768" cx="1.175" cy="1.175" r="1.175" transform="translate(6.339 0.728)" fill="#fff"/>
            <circle id="Ellipse_13769" data-name="Ellipse 13769" cx="1.175" cy="1.175" r="1.175" transform="translate(10.03 0.728)" fill="#fff"/>
          </g>
        </g>
        <g id="Group_1184424" data-name="Group 1184424" transform="translate(35 118.473)">
          <g id="Group_1184419" data-name="Group 1184419" transform="translate(0.258 21.309)">
            <path id="Path_1031389" data-name="Path 1031389" d="M1395.541,3250.05v4.668c-.069.055-.142.109-.218.162a8.2,8.2,0,0,1-1.812.906h-24.882a2.884,2.884,0,0,1-1.108-.906,1.378,1.378,0,0,1-.092-.162v-4.668Z" transform="translate(-1367.428 -3247.715)" fill="#f5ac28"/>
            <path id="Path_1031390" data-name="Path 1031390" d="M1395.528,3201.243c0,1.422-4.989,3.22-14.056,3.213-10.808-.009-14.056-1.791-14.056-3.213s6.293-2.574,14.056-2.574S1395.528,3199.821,1395.528,3201.243Z" transform="translate(-1367.416 -3198.669)" fill="#ffda31"/>
            <path id="Path_1031391" data-name="Path 1031391" d="M1429.67,3207.808c0,1.249-5.529,2.534-12.349,2.534s-12.349-1.285-12.349-2.534,5.529-2.261,12.349-2.261S1429.67,3206.558,1429.67,3207.808Z" transform="translate(-1403.264 -3205.234)" fill="#dd9522"/>
          </g>
          <g id="Group_1184420" data-name="Group 1184420" transform="translate(2.434 15.892)">
            <path id="Path_1031392" data-name="Path 1031392" d="M1443.4,3135.515c-4.736,3.761-26.324,3.743-28.112,0v-4.669H1443.4Z" transform="translate(-1415.286 -3128.511)" fill="#f5ac28"/>
            <path id="Path_1031393" data-name="Path 1031393" d="M1443.4,3082.043c0,1.422-4.988,3.22-14.056,3.213-10.808-.009-14.056-1.791-14.056-3.213s6.293-2.574,14.056-2.574S1443.4,3080.622,1443.4,3082.043Z" transform="translate(-1415.286 -3079.469)" fill="#ffda31"/>
            <path id="Path_1031394" data-name="Path 1031394" d="M1477.54,3088.608c0,1.249-5.529,2.534-12.349,2.534s-12.349-1.285-12.349-2.534,5.529-2.261,12.349-2.261S1477.54,3087.359,1477.54,3088.608Z" transform="translate(-1451.134 -3086.034)" fill="#dd9522"/>
          </g>
          <g id="Group_1184421" data-name="Group 1184421" transform="translate(0 10.593)">
            <path id="Path_1031395" data-name="Path 1031395" d="M1389.848,3018.915c-4.736,3.761-26.324,3.743-28.112,0v-4.669h28.112Z" transform="translate(-1361.736 -3011.911)" fill="#f5ac28"/>
            <path id="Path_1031396" data-name="Path 1031396" d="M1389.848,2965.443c0,1.422-4.989,3.22-14.056,3.213-10.808-.009-14.056-1.791-14.056-3.213s6.293-2.574,14.056-2.574S1389.848,2964.021,1389.848,2965.443Z" transform="translate(-1361.736 -2962.869)" fill="#ffda31"/>
            <path id="Path_1031397" data-name="Path 1031397" d="M1423.99,2972.008c0,1.249-5.529,2.534-12.349,2.534s-12.349-1.285-12.349-2.534,5.529-2.262,12.349-2.262S1423.99,2970.759,1423.99,2972.008Z" transform="translate(-1397.584 -2969.434)" fill="#dd9522"/>
          </g>
          <g id="Group_1184422" data-name="Group 1184422" transform="translate(3.959 5.299)">
            <path id="Path_1031398" data-name="Path 1031398" d="M1476.958,2902.425c-4.736,3.761-26.324,3.743-28.112,0v-4.669h28.112Z" transform="translate(-1448.846 -2895.421)" fill="#f5ac28"/>
            <path id="Path_1031399" data-name="Path 1031399" d="M1476.958,2848.953c0,1.422-4.988,3.22-14.056,3.212-10.808-.009-14.056-1.791-14.056-3.212s6.293-2.574,14.056-2.574S1476.958,2847.531,1476.958,2848.953Z" transform="translate(-1448.846 -2846.379)" fill="#ffda31"/>
            <path id="Path_1031400" data-name="Path 1031400" d="M1511.1,2855.518c0,1.249-5.529,2.534-12.349,2.534s-12.349-1.285-12.349-2.534,5.529-2.262,12.349-2.262S1511.1,2854.269,1511.1,2855.518Z" transform="translate(-1484.694 -2852.943)" fill="#dd9522"/>
          </g>
          <g id="Group_1184423" data-name="Group 1184423" transform="translate(0.007)">
            <path id="Path_1031401" data-name="Path 1031401" d="M1390.018,2785.825c-4.736,3.76-26.324,3.743-28.112,0v-4.669h28.112Z" transform="translate(-1361.906 -2778.821)" fill="#f5ac28"/>
            <path id="Path_1031402" data-name="Path 1031402" d="M1390.008,2732.353c0,1.422-4.988,3.22-14.056,3.213-10.808-.009-14.056-1.791-14.056-3.213s6.293-2.574,14.056-2.574S1390.008,2730.931,1390.008,2732.353Z" transform="translate(-1361.896 -2729.779)" fill="#ffda31"/>
            <path id="Path_1031403" data-name="Path 1031403" d="M1424.15,2738.917c0,1.249-5.529,2.534-12.349,2.534s-12.349-1.285-12.349-2.534,5.529-2.261,12.349-2.261S1424.15,2737.669,1424.15,2738.917Z" transform="translate(-1397.744 -2736.344)" fill="#dd9522"/>
          </g>
        </g>
        <g id="Group_1184428" data-name="Group 1184428" transform="translate(50.27 120.534)">
          <ellipse id="Ellipse_13770" data-name="Ellipse 13770" cx="11.332" cy="11.332" rx="11.332" ry="11.332" transform="translate(0 16.026) rotate(-45)" fill="#ffda31"/>
          <circle id="Ellipse_13771" data-name="Ellipse 13771" cx="10.245" cy="10.245" r="10.245" transform="translate(5.782 5.781)" fill="#f5ac28"/>
          <g id="Group_1184427" data-name="Group 1184427" transform="translate(12.825 9.086)">
            <g id="Group_1184425" data-name="Group 1184425" transform="translate(0.122 0.52)">
              <path id="Path_1031404" data-name="Path 1031404" d="M1989.507,2990.909l-2.811-.12.02-.466a3.043,3.043,0,0,0-.056-.979.4.4,0,0,0-.408-.247.43.43,0,0,0-.395.182,1.106,1.106,0,0,0-.154.589,1.291,1.291,0,0,0,.225.937,10.278,10.278,0,0,0,1.473,1.095,11.369,11.369,0,0,1,1.419,1.054,2.684,2.684,0,0,1,.616,1,4.028,4.028,0,0,1,.2,1.58,3.544,3.544,0,0,1-.825,2.328,3.32,3.32,0,0,1-2.216.964l-.045,1.058-1.294-.055.047-1.092a3.379,3.379,0,0,1-1.932-.95,3.421,3.421,0,0,1-.729-2.67l.024-.55,2.811.12-.029.689a6.506,6.506,0,0,0,.027,1.413.391.391,0,0,0,.409.293.49.49,0,0,0,.432-.173.961.961,0,0,0,.163-.561,4.861,4.861,0,0,0-.074-1.359,2,2,0,0,0-.866-.926,19.649,19.649,0,0,1-1.7-1.261,3.14,3.14,0,0,1-.754-1.1,3.5,3.5,0,0,1-.271-1.573,2.68,2.68,0,0,1,.8-1.946,3.506,3.506,0,0,1,2.177-.792l.038-.9,1.294.056-.039.9a3.078,3.078,0,0,1,1.911.956,2.784,2.784,0,0,1,.563,1.979Q1989.55,2990.555,1989.507,2990.909Z" transform="translate(-1982.635 -2986.493)" fill="#d38d1c"/>
            </g>
            <g id="Group_1184426" data-name="Group 1184426">
              <path id="Path_1031405" data-name="Path 1031405" d="M1986.828,2979.47l-2.811-.12.02-.466a3.043,3.043,0,0,0-.056-.979.4.4,0,0,0-.408-.247.429.429,0,0,0-.395.181,1.106,1.106,0,0,0-.154.589,1.291,1.291,0,0,0,.225.937,10.263,10.263,0,0,0,1.473,1.095,11.379,11.379,0,0,1,1.419,1.054,2.682,2.682,0,0,1,.616,1,4.022,4.022,0,0,1,.2,1.58,3.543,3.543,0,0,1-.824,2.328,3.322,3.322,0,0,1-2.216.965l-.045,1.058-1.294-.055.047-1.092a3.379,3.379,0,0,1-1.932-.95,3.421,3.421,0,0,1-.729-2.669l.024-.55,2.811.12-.029.688a6.5,6.5,0,0,0,.027,1.413.392.392,0,0,0,.409.293.49.49,0,0,0,.432-.173.96.96,0,0,0,.163-.562,4.861,4.861,0,0,0-.074-1.359,2,2,0,0,0-.866-.926,19.669,19.669,0,0,1-1.7-1.261,3.139,3.139,0,0,1-.754-1.1,3.5,3.5,0,0,1-.271-1.573,2.681,2.681,0,0,1,.8-1.946,3.5,3.5,0,0,1,2.177-.792l.038-.9,1.294.055-.039.9a3.078,3.078,0,0,1,1.911.957,2.784,2.784,0,0,1,.563,1.979C1986.874,2979.058,1986.856,2979.234,1986.828,2979.47Z" transform="translate(-1979.956 -2975.054)" fill="#ffda31"/>
            </g>
          </g>
        </g>
        <g id="Group_1184431" data-name="Group 1184431" transform="translate(120.052 47.2)">
          <rect id="Rectangle_459342" data-name="Rectangle 459342" width="35.048" height="26.43" transform="translate(1.11 2.051)" fill="#d8eae9"/>
          <g id="Group_1184430" data-name="Group 1184430" transform="translate(6.475 4.025)">
            <rect id="Rectangle_459343" data-name="Rectangle 459343" width="4.953" height="10.61" transform="translate(0 11.871)" fill="#44797d"/>
            <rect id="Rectangle_459344" data-name="Rectangle 459344" width="4.953" height="14.649" transform="translate(6.041 7.832)" fill="#44797d"/>
            <rect id="Rectangle_459345" data-name="Rectangle 459345" width="4.953" height="14.209" transform="translate(12.663 8.273)" fill="#44797d"/>
            <rect id="Rectangle_459346" data-name="Rectangle 459346" width="4.953" height="17.976" transform="translate(19.759 4.505)" fill="#44797d"/>
            <g id="Group_1184429" data-name="Group 1184429" transform="translate(2.11)">
              <path id="Path_1031406" data-name="Path 1031406" d="M3448.623,1250.082l-1.094.072.543.759-6.885,5.343-6.627-1.864-6.091,5.451.161.159,5.992-5.363,6.617,1.86,6.964-5.4.551.769.481-.928.481-.927Z" transform="translate(-3428.184 -1250.01)" fill="#44797d"/>
              <ellipse id="Ellipse_13772" data-name="Ellipse 13772" cx="0.366" cy="0.345" rx="0.366" ry="0.345" transform="translate(12.663 5.963)" fill="#44797d"/>
              <ellipse id="Ellipse_13773" data-name="Ellipse 13773" cx="0.366" cy="0.345" rx="0.366" ry="0.345" transform="translate(6.046 4.234)" fill="#44797d"/>
              <ellipse id="Ellipse_13774" data-name="Ellipse 13774" cx="0.366" cy="0.345" rx="0.366" ry="0.345" transform="translate(0 9.519)" fill="#44797d"/>
            </g>
          </g>
          <rect id="Rectangle_459347" data-name="Rectangle 459347" width="37.791" height="2.207" fill="#44797d"/>
          <circle id="Ellipse_13775" data-name="Ellipse 13775" cx="0.466" cy="0.466" r="0.466" transform="translate(31.836 1.155) rotate(-45)" fill="#fff"/>
          <circle id="Ellipse_13776" data-name="Ellipse 13776" cx="0.466" cy="0.466" r="0.466" transform="translate(33.525 1.512) rotate(-76.714)" fill="#fff"/>
          <circle id="Ellipse_13777" data-name="Ellipse 13777" cx="0.466" cy="0.466" r="0.466" transform="translate(35.088 1.462) rotate(-76.714)" fill="#fff"/>
        </g>
        <g id="Group_1184432" data-name="Group 1184432" transform="translate(66.374 62.13)">
          <path id="Path_1031407" data-name="Path 1031407" d="M2107.993,1536.166a8.008,8.008,0,1,1-16.017,0h8.009v-8.008A8.008,8.008,0,0,1,2107.993,1536.166Z" transform="translate(-2090.164 -1526.422)" fill="#244145"/>
          <path id="Path_1031408" data-name="Path 1031408" d="M2155.8,1490.2v8.008l-4.573-6.936A4.364,4.364,0,0,1,2155.8,1490.2Z" transform="translate(-2146.725 -1489.963)" fill="#b0d0cb"/>
          <path id="Path_1031409" data-name="Path 1031409" d="M2060.123,1540.991l-4.573-6.936a7.714,7.714,0,0,0-3.435,6.936Z" transform="translate(-2052.112 -1532.051)" fill="#44797d"/>
        </g>
        <g id="Group_1184437" data-name="Group 1184437" transform="translate(112.873 76.052)">
          <g id="Group_1184435" data-name="Group 1184435" transform="translate(13.822 24.271)">
            <g id="Group_1184433" data-name="Group 1184433" transform="translate(12.053 33.305)">
              <path id="Path_1031410" data-name="Path 1031410" d="M3675.784,3076.128s2.6-1.66,2.286-4.479a54.073,54.073,0,0,0-2.286-8.4l3.5.587s.059,6.54,2.378,8.35l-3.771,4.745S3673.161,3078.5,3675.784,3076.128Z" transform="translate(-3673.614 -3063.246)" fill="#ffc592"/>
              <path id="Path_1031411" data-name="Path 1031411" d="M3652.015,3254.281v-2.791a.146.146,0,0,0-.119-.145.569.569,0,0,0-.374.1,3.864,3.864,0,0,0-1.466,1.633,2.124,2.124,0,0,1-.925,1.062,5.255,5.255,0,0,1-1.875.143,10.565,10.565,0,0,1-1.937-.157s-1.5-.231,0-.852l1.506-.633s-.471.276.816.471c0,0,.782.15,1.7-1.173l1.23-1.748a22.266,22.266,0,0,1,1.662-2.03s1.381,1.219.869,2.438a2.209,2.209,0,0,0-.169.621c-.073.694-.218,2.179-.217,3.077Z" transform="translate(-3644.654 -3239.76)"/>
            </g>
            <g id="Group_1184434" data-name="Group 1184434" transform="translate(0 33.305)">
              <path id="Path_1031412" data-name="Path 1031412" d="M3410.57,3076.128s2.6-1.66,2.286-4.479a54.073,54.073,0,0,0-2.286-8.4l3.5.587s.059,6.54,2.378,8.35l-3.771,4.745S3407.946,3078.5,3410.57,3076.128Z" transform="translate(-3408.398 -3063.246)" fill="#ffc592"/>
              <path id="Path_1031413" data-name="Path 1031413" d="M3386.794,3254.281v-2.791a.146.146,0,0,0-.119-.145.569.569,0,0,0-.374.1,3.864,3.864,0,0,0-1.466,1.633,2.124,2.124,0,0,1-.925,1.062,5.257,5.257,0,0,1-1.875.143,10.566,10.566,0,0,1-1.937-.157s-1.495-.231,0-.852l1.507-.633s-.471.276.816.471c0,0,.782.15,1.7-1.173l1.23-1.748a22.266,22.266,0,0,1,1.662-2.03s1.381,1.219.869,2.438a2.2,2.2,0,0,0-.169.621c-.073.694-.218,2.179-.217,3.077Z" transform="translate(-3379.433 -3239.76)"/>
            </g>
            <path id="Path_1031414" data-name="Path 1031414" d="M3424.793,2330.39h8.381c2.959,13.4,5.682,27.279,6.853,41.117h-7.864l-2.333-20.975-2.545,21.152H3420.5v-26.938a17.364,17.364,0,0,1,.757-5.07Z" transform="translate(-3418.632 -2330.39)"/>
          </g>
          <g id="Group_1184436" data-name="Group 1184436" transform="translate(0 0)">
            <path id="Path_1031415" data-name="Path 1031415" d="M3674.531,2044.66s-3.342,4.491.333,7.763c0,0,3.423,2.92,2.919,4.38a5.055,5.055,0,0,1-3.876,3.423l.805,1.661s7.249,1.259,8-5.135C3682.717,2056.752,3683.612,2049.129,3674.531,2044.66Z" transform="translate(-3645.971 -2033.374)" fill="#3e8170"/>
            <path id="Path_1031416" data-name="Path 1031416" d="M3173.235,2029.38a18.109,18.109,0,0,0-4.795,5.185l-10.344-3.1-1.133,1.737s5.847,8.053,11.062,8.306c0,0,3.736-.233,4.19-2.023l-.565-4.043.793-2.316,1.095-2.529Z" transform="translate(-3153.251 -2018.788)" fill="#3e8170"/>
            <path id="Path_1031417" data-name="Path 1031417" d="M3080.133,1992.873s-.3-.831,0-1.133.227-2.744-.642-.957c-.049.1-.3.032-.367.008a1.48,1.48,0,0,1-.479-.333c-.267-.255-1.073-1.315-1.139-1.358-.088-.058-.3-.214-.412-.13-.126.1.016.4.056.5l.642,1.007-1.174-.878c-.031,0-.111-.083-.137-.1l-.162-.122a.3.3,0,0,0-.08-.056.206.206,0,0,0-.075,0,.217.217,0,0,0-.188.144.5.5,0,0,0,.076.342,9.234,9.234,0,0,0,.929,1.084c-.1-.063-.96-.659-1.139-.767-.072-.043-.157-.129-.251-.116a.23.23,0,0,0-.171.232.752.752,0,0,0,.2.352,4.793,4.793,0,0,0,.393.431c.069.068.139.136.21.2.039.037.006.188-.024.188a.816.816,0,0,1-.443-.188c-.529-.359-.462-.085-.462-.085a2.684,2.684,0,0,0,.982,1.048,3.5,3.5,0,0,0,2.161,1.7l.566.717Z" transform="translate(-3075.288 -1980.192)" fill="#ffc592"/>
            <path id="Path_1031418" data-name="Path 1031418" d="M3627.016,2378.88s-1.045-.655-1.422-.277a2.7,2.7,0,0,1-1.378-.076c-.448-.179-.04.412.212.744a.8.8,0,0,0,.408.282l.349.1a.23.23,0,0,1,.16.174c.095.452.48,1.911,1.559,2.286a.386.386,0,0,0,.453-.154c.221-.348.59-1.017.464-1.422Z" transform="translate(-3599.079 -2352.029)" fill="#ffc592"/>
            <path id="Path_1031419" data-name="Path 1031419" d="M3522.443,1831.314s1.133-.29.717-1.724c0,0-2.794-.075-2.378-4.191,0,0-.3-4.417,2.945-2.869l2.265,3.247v3.171a2.071,2.071,0,0,0,1.485,2.366v.541c-1.469,1.1-2.934,1.883-4.008.36l-1.063-.172Z" transform="translate(-3500.496 -1821.025)" fill="#ffc592"/>
            <path id="Path_1031420" data-name="Path 1031420" d="M3467.373,2036.714h8.381l.878-4.689a3.092,3.092,0,0,0,.053-.569v-7.264l-2.315-1.46c0,.665-4.436,1.252-5.034,0l-1.963.3s-1.2,3.609-1.871,5.034a4.024,4.024,0,0,0-.318,2.523,7.1,7.1,0,0,0,1.359,2.812S3467.927,2035.947,3467.373,2036.714Z" transform="translate(-3447.389 -2012.443)" fill="#529d89"/>
            <path id="Path_1031421" data-name="Path 1031421" d="M3504.97,1797.969a6.729,6.729,0,0,0-.9,2.716s-2.718-2.139,1.636-3.977c0,0,2.315-1.183,3.852.527a3.144,3.144,0,0,1,2.206-.381c.3.126,1.491.81.913,2.673-.247.8-1.912,1.133-1.912,1.133s1.485,1.913-1.485,3.322a3.3,3.3,0,0,1-.352-1.384c0-.73.453-2.089-.554-1.485,0,0-.655-.377-.5-1.711a7.843,7.843,0,0,1-2.408-1.508A.313.313,0,0,0,3504.97,1797.969Z" transform="translate(-3483.781 -1796.309)"/>
          </g>
        </g>
      </g>
    </g>
  </g>
</svg>
