<svg xmlns="http://www.w3.org/2000/svg" xmlns:xlink="http://www.w3.org/1999/xlink" width="127.921" height="128" viewBox="0 0 127.921 128">
  <defs>
    <clipPath id="clip-path">
      <rect id="Rectangle_458699" data-name="Rectangle 458699" width="68.615" height="57.874" fill="none"/>
    </clipPath>
  </defs>
  <g id="img9" transform="translate(-705.978 -1710.001)">
    <g id="Group_1180300" data-name="Group 1180300" transform="translate(705.936 1710.002)">
      <g id="Grupo_155253" data-name="Grupo 155253" transform="matrix(0.999, 0.035, -0.035, 0.999, 4.319, 0)">
        <path id="Trazado_196478" data-name="Trazado 196478" d="M17.389,19.468q-.386.412-.764.831A64.6,64.6,0,0,0,.044,66.072L25.8,65.147C25.1,44.584,40.69,27.331,60.618,26.613S97.267,41.982,97.965,62.546l25.755-.925c-.869-25.6-16.481-48.187-39.655-57.372A60.525,60.525,0,0,0,17.389,19.475" transform="translate(0 0)" fill="#f9ce5d"/>
        <path id="Trazado_196479" data-name="Trazado 196479" d="M0,4.454C1.195,39.7,29.849,67.266,64,66.036S124.871,35.241,123.676,0L97.92.925c.7,20.563-14.891,37.815-34.819,38.533S26.453,24.089,25.755,3.526Z" transform="translate(0.042 57.68)" fill="#70f5c8"/>
      </g>
      <ellipse id="Ellipse_13685" data-name="Ellipse 13685" cx="49.806" cy="49.887" rx="49.806" ry="49.887" transform="translate(14.269 14.359)" fill="#fff"/>
    </g>
    <g id="Group_1183506" data-name="Group 1183506" transform="translate(735.629 1745.065)">
      <g id="Group_1183505" data-name="Group 1183505" transform="translate(0 0)" clip-path="url(#clip-path)">
        <path id="Path_1029273" data-name="Path 1029273" d="M72.777,29.655,58.8,24.823a1.706,1.706,0,0,1-.478-2.967l3.106-2.376C57.664,12.04,45.5,5.81,28.259,1.977A.978.978,0,0,1,28.438.043c18.338-.685,35.9,7.073,39.836,14.2l3.016-2.307a1.705,1.705,0,0,1,2.738,1.238l1.009,14.75a1.705,1.705,0,0,1-2.259,1.728" transform="translate(-13.035 0)" fill="#14a0de"/>
        <path id="Path_1029274" data-name="Path 1029274" d="M104.036,65.276A1.575,1.575,0,0,1,105.61,63.7h7.016a1.574,1.574,0,0,1,1.574,1.575v6.5H104.036Z" transform="translate(-49.337 -30.209)" fill="#203a72"/>
        <path id="Path_1029275" data-name="Path 1029275" d="M86.617,58.181a1.574,1.574,0,0,1,1.574,1.574v9.407H78.027V59.755A1.575,1.575,0,0,1,79.6,58.181Z" transform="translate(-37.003 -27.591)" fill="#203a72"/>
        <path id="Path_1029276" data-name="Path 1029276" d="M62.176,28.016v26.1h-6.97a16.414,16.414,0,0,0-3.2-7.61V28.016a1.58,1.58,0,0,1,1.577-1.577H60.6a1.58,1.58,0,0,1,1.577,1.577" transform="translate(-24.663 -12.538)" fill="#203a72"/>
        <path id="Path_1029277" data-name="Path 1029277" d="M36.185,17.759V38.143a16.932,16.932,0,0,0-10.169-3.382v-17a1.58,1.58,0,0,1,1.577-1.577h7.015a1.58,1.58,0,0,1,1.577,1.577" transform="translate(-12.338 -7.674)" fill="#203a72"/>
        <path id="Path_1029278" data-name="Path 1029278" d="M95.917,85.558v1.1a1.477,1.477,0,0,1-1.485,1.462H57.571a15.812,15.812,0,0,0,.5-4.045H94.432a1.483,1.483,0,0,1,1.485,1.486" transform="translate(-27.302 -39.869)" fill="#203a72"/>
        <path id="Path_1029279" data-name="Path 1029279" d="M13.675,58.056A13.675,13.675,0,1,0,27.35,71.73,13.675,13.675,0,0,0,13.675,58.056m-.692,12.185h1.37a4.861,4.861,0,0,1,4.834,5.331,4.93,4.93,0,0,1-4.028,4.256v1.946a.389.389,0,0,1-.39.389H12.581a.4.4,0,0,1-.4-.389v-1.92a4.836,4.836,0,0,1-4.014-4.338.4.4,0,0,1,.4-.43h2.188a.377.377,0,0,1,.389.309,1.864,1.864,0,0,0,1.84,1.557h1.263a1.931,1.931,0,0,0,1.947-1.544,1.864,1.864,0,0,0-1.84-2.188H13.212a4.991,4.991,0,0,1-5.048-4.363,4.835,4.835,0,0,1,4.014-5.252V61.7a.4.4,0,0,1,.4-.4h2.188a.393.393,0,0,1,.39.4v1.9a4.839,4.839,0,0,1,4.028,4.351.4.4,0,0,1-.4.417h-2.2a.377.377,0,0,1-.375-.3,1.891,1.891,0,0,0-1.853-1.572H13.091a1.951,1.951,0,0,0-1.947,1.557,1.868,1.868,0,0,0,1.84,2.176" transform="translate(0 -27.532)" fill="#14a0de"/>
      </g>
    </g>
  </g>
</svg>
