<svg id="img3" xmlns="http://www.w3.org/2000/svg" xmlns:xlink="http://www.w3.org/1999/xlink" width="84" height="84" viewBox="0 0 84 84">
  <defs>
    <clipPath id="clip-path">
      <rect id="Rectangle_458779" data-name="Rectangle 458779" width="63.945" height="53.079" fill="none"/>
    </clipPath>
  </defs>
  <rect id="Rectangle_456663" data-name="Rectangle 456663" width="84" height="84" fill="#ff9e74"/>
  <g id="Group_1183669" data-name="Group 1183669" transform="translate(10 15)">
    <g id="Group_1183668" data-name="Group 1183668" clip-path="url(#clip-path)">
      <path id="Path_1029725" data-name="Path 1029725" d="M26.752,39.447a2.136,2.136,0,0,0-1.372-2.691l-3.808-1.235-3.116-3.84a5.8,5.8,0,0,0-4.522-2.153H9.782c-4.9,0-8.609,8.38-9.631,10.949A2.136,2.136,0,0,0,4.12,42.056a30.07,30.07,0,0,1,3.175-5.929L7,44.464,3.635,60.128a2.372,2.372,0,1,0,4.639,1L11.6,45.653h.931V60.627a2.373,2.373,0,0,0,4.746,0V44.674l-.283-8.024L18.655,38.7a2.128,2.128,0,0,0,1,.686l4.409,1.43a2.127,2.127,0,0,0,2.69-1.371" transform="translate(0 -14.764)" fill="#203a72"/>
      <path id="Path_1029726" data-name="Path 1029726" d="M19.517,17.451A4.748,4.748,0,1,0,14.769,12.7a4.748,4.748,0,0,0,4.748,4.748" transform="translate(-7.384 -3.978)" fill="#203a72"/>
      <path id="Path_1029727" data-name="Path 1029727" d="M60.724,91.256a4.389,4.389,0,0,0-1.74-1.111,6.162,6.162,0,0,1-6.989,0,4.545,4.545,0,0,0-3.049,4.3v2.815a.885.885,0,0,0,.889.889h10.2a3.5,3.5,0,0,1-.124-.877V94.441a6.577,6.577,0,0,1,.814-3.186" transform="translate(-24.473 -45.072)" fill="#203a72"/>
      <path id="Path_1029728" data-name="Path 1029728" d="M58.089,79.965a3.954,3.954,0,1,0-3.955-3.955,3.954,3.954,0,0,0,3.955,3.955" transform="translate(-27.067 -36.028)" fill="#203a72"/>
      <path id="Path_1029729" data-name="Path 1029729" d="M113.063,90.145a6.142,6.142,0,0,1-6.976,0,4.392,4.392,0,0,0-1.729,1.111,6.7,6.7,0,0,1,.8,3.186v2.827a3.473,3.473,0,0,1-.123.877h10.21a.882.882,0,0,0,.877-.889V94.441a4.556,4.556,0,0,0-3.062-4.3" transform="translate(-52.179 -45.072)" fill="#203a72"/>
      <path id="Path_1029730" data-name="Path 1029730" d="M110.838,79.965a3.954,3.954,0,1,0-3.955-3.955,3.954,3.954,0,0,0,3.955,3.955" transform="translate(-53.441 -36.028)" fill="#203a72"/>
      <path id="Path_1029731" data-name="Path 1029731" d="M85.363,90.16a6.154,6.154,0,0,1-6.988,0,4.548,4.548,0,0,0-3.056,4.288v2.827a.884.884,0,0,0,.884.884H87.534a.884.884,0,0,0,.884-.884V94.448a4.549,4.549,0,0,0-3.056-4.288" transform="translate(-37.659 -45.08)" fill="#203a72"/>
      <path id="Path_1029732" data-name="Path 1029732" d="M84.464,79.973a3.955,3.955,0,1,0-3.954-3.954,3.954,3.954,0,0,0,3.954,3.954" transform="translate(-40.254 -36.032)" fill="#203a72"/>
      <path id="Path_1029733" data-name="Path 1029733" d="M87.1,0H54.205a1.325,1.325,0,0,0-1.333,1.323V19.032a5.281,5.281,0,0,1,0,9.992v2.618a1.325,1.325,0,0,0,1.333,1.323H87.1a1.322,1.322,0,0,0,1.323-1.323V1.324A1.322,1.322,0,0,0,87.1,0M58.646,16.206a.327.327,0,0,1,.327-.35h1.783a.307.307,0,0,1,.317.252,1.518,1.518,0,0,0,1.5,1.269H63.6a1.573,1.573,0,0,0,1.586-1.258,1.518,1.518,0,0,0-1.5-1.781h-.929a4.063,4.063,0,0,1-4.111-3.553,3.936,3.936,0,0,1,3.269-4.276V4.956a.328.328,0,0,1,.328-.327h1.782a.32.32,0,0,1,.317.327V6.508a3.939,3.939,0,0,1,3.28,3.543.325.325,0,0,1-.327.339H65.5a.306.306,0,0,1-.306-.241A1.539,1.539,0,0,0,63.687,8.87H62.659a1.588,1.588,0,0,0-1.586,1.268,1.522,1.522,0,0,0,1.5,1.772h1.116a3.958,3.958,0,0,1,3.936,4.341,4.013,4.013,0,0,1-3.28,3.465V21.3a.318.318,0,0,1-.317.317H62.243a.326.326,0,0,1-.328-.317V19.737a3.935,3.935,0,0,1-3.269-3.531m24,11.737h-21.5a1.379,1.379,0,0,1,0-2.758h21.5a1.379,1.379,0,0,1,0,2.758m0-6.722H72.973a1.379,1.379,0,1,1,0-2.757h9.672a1.379,1.379,0,1,1,0,2.757m0-6.719H72.973a1.379,1.379,0,0,1,0-2.759h9.672a1.379,1.379,0,0,1,0,2.759m0-6.721H72.973a1.379,1.379,0,1,1,0-2.757h9.672a1.379,1.379,0,1,1,0,2.757" transform="translate(-26.436 -0.001)" fill="#14a0de"/>
    </g>
  </g>
</svg>
