<svg xmlns="http://www.w3.org/2000/svg" width="149.908" height="150" viewBox="0 0 149.908 150">
  <g id="img19" transform="translate(-705.985 -1710.001)">
    <g id="Group_1180300" data-name="Group 1180300" transform="translate(705.936 1710.002)">
      <g id="Grupo_155253" data-name="Grupo 155253" transform="matrix(0.999, 0.035, -0.035, 0.999, 5.061, 0)">
        <path id="Trazado_196478" data-name="Trazado 196478" d="M20.378,22.814q-.452.483-.9.974A75.7,75.7,0,0,0,.051,77.428l30.182-1.084c-.818-24.1,17.45-44.315,40.8-45.157S113.984,49.2,114.8,73.3l30.181-1.084c-1.018-30-19.313-56.469-46.471-67.233A70.928,70.928,0,0,0,20.378,22.822" transform="translate(0 0)" fill="#f9ce5d"/>
        <path id="Trazado_196479" data-name="Trazado 196479" d="M0,5.22c1.4,41.3,34.98,73.608,75,72.166S146.333,41.3,144.933,0L114.75,1.084c.818,24.1-17.451,44.314-40.8,45.156S31,28.229,30.182,4.132Z" transform="translate(0.049 67.594)" fill="#70f5c8"/>
      </g>
      <ellipse id="Ellipse_13685" data-name="Ellipse 13685" cx="58.366" cy="58.462" rx="58.366" ry="58.462" transform="translate(16.722 16.827)" fill="#fff"/>
    </g>
    <g id="Group_1184694" data-name="Group 1184694" transform="translate(744.514 1748.579)">
      <circle id="Ellipse_13816" data-name="Ellipse 13816" cx="8.262" cy="8.262" r="8.262" transform="translate(50.548 31.747)" fill="#f9ac00"/>
      <path id="Path_1032896" data-name="Path 1032896" d="M376.839,235.2a8.262,8.262,0,1,1,8-8.258A8.262,8.262,0,0,1,376.839,235.2Z" transform="translate(-318.287 -186.936)" fill="#fcdb35" fill-rule="evenodd"/>
      <circle id="Ellipse_13817" data-name="Ellipse 13817" cx="6.592" cy="6.592" r="6.592" transform="translate(49.993 36.923) rotate(-25.668)" fill="#f19a00"/>
      <path id="Path_1032897" data-name="Path 1032897" d="M395.118,232.1a6.592,6.592,0,1,1-6.168,6.578A6.592,6.592,0,0,1,395.118,232.1Z" transform="translate(-335.884 -198.674)" fill="#f9ac00" fill-rule="evenodd"/>
      <rect id="Rectangle_459442" data-name="Rectangle 459442" width="16.491" height="4.632" rx="2.316" transform="translate(50.548 57.83)" fill="#f19a00"/>
      <rect id="Rectangle_459443" data-name="Rectangle 459443" width="16.491" height="4.632" rx="2.316" transform="translate(50.548 62.462)" fill="#fdc72e"/>
      <rect id="Rectangle_459444" data-name="Rectangle 459444" width="16.491" height="4.632" rx="2.316" transform="translate(50.548 53.199)" fill="#fdc72e"/>
      <rect id="Rectangle_459445" data-name="Rectangle 459445" width="16.491" height="4.632" rx="2.316" transform="translate(50.548 48.567)" fill="#f19a00"/>
      <g id="Group_1184689" data-name="Group 1184689" transform="translate(10.938 39.969)">
        <path id="Path_1032898" data-name="Path 1032898" d="M369.957,353.012h12.634a.316.316,0,0,1,.315.315v2.368a1.126,1.126,0,0,1-1.123,1.123H369.149a.316.316,0,0,1-.315-.315v-2.368a1.126,1.126,0,0,1,1.123-1.123Z" transform="translate(-329.225 -344.414)" fill="#f9ac00" fill-rule="evenodd"/>
        <path id="Path_1032899" data-name="Path 1032899" d="M369.957,390.008h12.634a.316.316,0,0,1,.315.315v2.368a1.126,1.126,0,0,1-1.123,1.123H369.149a.316.316,0,0,1-.315-.315v-2.368a1.126,1.126,0,0,1,1.123-1.123Z" transform="translate(-329.225 -376.779)" fill="#fcdb35" fill-rule="evenodd"/>
        <path id="Path_1032900" data-name="Path 1032900" d="M369.957,427.007h12.634a.316.316,0,0,1,.315.315v2.368a1.126,1.126,0,0,1-1.123,1.123H369.149a.316.316,0,0,1-.315-.315V428.13a1.126,1.126,0,0,1,1.123-1.123Z" transform="translate(-329.225 -409.146)" fill="#f9ac00" fill-rule="evenodd"/>
        <path id="Path_1032901" data-name="Path 1032901" d="M369.957,464h12.634a.316.316,0,0,1,.315.315v2.368a1.126,1.126,0,0,1-1.123,1.123H369.149a.316.316,0,0,1-.315-.315v-2.368A1.126,1.126,0,0,1,369.957,464Z" transform="translate(-329.225 -441.511)" fill="#fcdb35" fill-rule="evenodd"/>
        <path id="Path_1032902" data-name="Path 1032902" d="M68.583,306.9l.028-1.763a7.09,7.09,0,0,1,2.471-5.334,7.926,7.926,0,0,0,2.361-6.5l-.257-7.584c-.039-1.141-.866-1.387-1.85-1.387h-18.9V293.5a8.966,8.966,0,0,0,2.343,5.914c2.053,2.053,1.766,4.871,1.53,7.488H68.583Z" transform="translate(-52.436 -284.331)" fill="#fdd7ad" fill-rule="evenodd"/>
      </g>
      <path id="Path_1032903" data-name="Path 1032903" d="M11,247.038H42.57v13.833H11Z" transform="translate(-5.246 -211.738)" fill="#2dd62d"/>
      <path id="Path_1032904" data-name="Path 1032904" d="M52.875,258.33a1.4,1.4,0,0,0,1.238,1.732v2.306H26.321v-2.306a1.4,1.4,0,0,0,1.238-1.732Z" transform="translate(-18.652 -221.616)" fill="#29b933" fill-rule="evenodd"/>
      <path id="Path_1032905" data-name="Path 1032905" d="M28.05,272.358a1.729,1.729,0,0,0-1.729-1.729v-6.538a1.729,1.729,0,0,0,1.729-1.729H52.328a1.729,1.729,0,0,0,1.729,1.729v6.538a1.729,1.729,0,0,0-1.729,1.729Z" transform="translate(-18.652 -225.143)" fill="#96ff96" fill-rule="evenodd"/>
      <rect id="Rectangle_459446" data-name="Rectangle 459446" width="3.963" height="6.812" rx="1.982" transform="translate(11.262 30.931)" fill="#fdd7ad"/>
      <path id="Path_1032906" data-name="Path 1032906" d="M70.852,212.134a1.987,1.987,0,0,1,1.982,1.982v2.849a1.987,1.987,0,0,1-1.982,1.982Z" transform="translate(-57.608 -181.203)" fill="#e6b17c" fill-rule="evenodd"/>
      <rect id="Rectangle_459447" data-name="Rectangle 459447" width="3.964" height="7.774" rx="1.982" transform="translate(15.226 29.969)" fill="#fdd7ad"/>
      <rect id="Rectangle_459448" data-name="Rectangle 459448" width="3.963" height="8.581" rx="1.982" transform="translate(19.189 29.162)" fill="#fdd7ad"/>
      <g id="Group_1184692" data-name="Group 1184692" transform="translate(17.208 29.162)">
        <path id="Path_1032907" data-name="Path 1032907" d="M151.986,212.134a1.987,1.987,0,0,1,1.982,1.982v2.848a1.982,1.982,0,1,1-3.963,0v-2.848A1.988,1.988,0,0,1,151.986,212.134Z" transform="translate(-144.059 -210.365)" fill="#fdd7ad" fill-rule="evenodd"/>
        <g id="Group_1184690" data-name="Group 1184690" transform="translate(0)">
          <path id="Path_1032908" data-name="Path 1032908" d="M102.514,204.452a1.987,1.987,0,0,1,1.982,1.982v3.81a1.987,1.987,0,0,1-1.982,1.982v-7.774Z" transform="translate(-102.514 -203.645)" fill="#e6b17c" fill-rule="evenodd"/>
          <path id="Path_1032909" data-name="Path 1032909" d="M134.174,198a1.987,1.987,0,0,1,1.982,1.982V204.6a1.987,1.987,0,0,1-1.982,1.982Z" transform="translate(-130.211 -198.002)" fill="#e6b17c" fill-rule="evenodd"/>
          <path id="Path_1032910" data-name="Path 1032910" d="M165.834,212.134a1.987,1.987,0,0,1,1.982,1.982v2.849a1.987,1.987,0,0,1-1.982,1.982Z" transform="translate(-157.907 -210.365)" fill="#e6b17c" fill-rule="evenodd"/>
        </g>
        <path id="Path_1032911" data-name="Path 1032911" d="M147.453,295.364v11.287H151.7l.028-1.763a7.089,7.089,0,0,1,2.471-5.334,7.927,7.927,0,0,0,2.361-6.5l-.257-7.584a1.5,1.5,0,0,0-2.168-1.3c-3.695,1.372-1.6,5.379-3.381,8.511a5.132,5.132,0,0,1-3.3,2.679Z" transform="translate(-141.827 -273.278)" fill="#fdd7ad" fill-rule="evenodd"/>
        <g id="Group_1184691" data-name="Group 1184691" transform="translate(3.405 10.772)">
          <path id="Path_1032912" data-name="Path 1032912" d="M134.883,357.534a6.94,6.94,0,0,1-1.771,2.113,5.906,5.906,0,0,1-2.149,1.039,1,1,0,1,1-.509-1.933,3.951,3.951,0,0,0,1.437-.687,4.072,4.072,0,0,0,.563-.532h2.428Z" transform="translate(-129.71 -348.335)" fill="#e6b17c" fill-rule="evenodd"/>
          <path id="Path_1032913" data-name="Path 1032913" d="M165.085,306.652l.022-2.1a8.133,8.133,0,0,1,.738-3.32,8.407,8.407,0,0,1,2.065-2.741A5.717,5.717,0,0,0,169.533,296c.741-2.2.574-7.339.572-10.444a2.282,2.282,0,0,0-.523-1.385,1.493,1.493,0,0,1,2.151,1.3l.257,7.584a7.926,7.926,0,0,1-2.361,6.5,7.09,7.09,0,0,0-2.471,5.334l-.028,1.763h-2.044Z" transform="translate(-160.657 -284.051)" fill="#e6b17c" fill-rule="evenodd"/>
        </g>
      </g>
      <path id="Path_1032914" data-name="Path 1032914" d="M67,451.932H81.228a1.041,1.041,0,0,1,1.04,1.04v4.062a1.041,1.041,0,0,1-1.04,1.04H67a1.041,1.041,0,0,1-1.04-1.04v-4.062A1.041,1.041,0,0,1,67,451.932Z" transform="translate(-53.326 -390.981)" fill="#2a92fa"/>
      <path id="Path_1032915" data-name="Path 1032915" d="M82.269,468.286v2.747a1.043,1.043,0,0,1-1.04,1.04H67a1.043,1.043,0,0,1-1.04-1.04v-2.747a1.088,1.088,0,0,1,.8-.353h14.7a1.089,1.089,0,0,1,.8.353Z" transform="translate(-53.326 -404.979)" fill="#5caeff" fill-rule="evenodd"/>
      <circle id="Ellipse_13818" data-name="Ellipse 13818" cx="1.567" cy="1.567" r="1.567" transform="matrix(0.987, -0.16, 0.16, 0.987, 13.866, 62.723)" fill="#0062d9"/>
      <path id="Path_1032916" data-name="Path 1032916" d="M258.208,247.038h.625v13.833h-.625Z" transform="translate(-221.509 -211.738)" fill="#29b933"/>
      <path id="Path_1032917" data-name="Path 1032917" d="M47.677,11H14.455L11,14.459V33.175h36.68Z" transform="translate(-5.246 -5.25)" fill="#cfe8ff" fill-rule="evenodd"/>
      <path id="Path_1032918" data-name="Path 1032918" d="M295.719,11h1.036V33.175h-1.036Z" transform="translate(-254.324 -5.25)" fill="#b6dbff"/>
      <g id="Group_1184693" data-name="Group 1184693" transform="translate(5.751 5.751)">
        <path id="Path_1032919" data-name="Path 1032919" d="M11,14.459h3.458V11Z" transform="translate(-10.997 -11.001)" fill="#4eb1fc" fill-rule="evenodd"/>
        <path id="Path_1032920" data-name="Path 1032920" d="M270.154,150.536l-4.121,8.7,3.215-1,1.562,2.982,3.25-9.061Z" transform="translate(-234.106 -133.068)" fill="#e8333c" fill-rule="evenodd"/>
        <path id="Path_1032921" data-name="Path 1032921" d="M273.552,150.536l-3.634,7.673,2.334-.726,1.4,2.67,2.99-8.335Z" transform="translate(-237.504 -133.068)" fill="#fb545c" fill-rule="evenodd"/>
        <path id="Path_1032922" data-name="Path 1032922" d="M335.492,152.232l3.238,9.065,1.566-2.98,3.213,1-4.109-8.705Z" transform="translate(-294.869 -133.138)" fill="#e8333c" fill-rule="evenodd"/>
        <path id="Path_1032923" data-name="Path 1032923" d="M335.492,154.622l2.823,7.9,1.1-2.094,2.934.917-3.776-8Z" transform="translate(-294.869 -135.528)" fill="#fb545c" fill-rule="evenodd"/>
        <path id="Path_1032924" data-name="Path 1032924" d="M265.177,38.563a2.362,2.362,0,0,1-2.367.98,2.417,2.417,0,0,0-2.884,2.883,2.361,2.361,0,0,1-.98,2.367,2.417,2.417,0,0,0,0,4.078,2.361,2.361,0,0,1,.98,2.367,2.417,2.417,0,0,0,2.883,2.884,2.361,2.361,0,0,1,2.367.98,2.417,2.417,0,0,0,4.078,0,2.362,2.362,0,0,1,2.367-.98,2.417,2.417,0,0,0,2.884-2.883,2.361,2.361,0,0,1,.98-2.367,2.417,2.417,0,0,0,0-4.078,2.361,2.361,0,0,1-.98-2.367,2.417,2.417,0,0,0-2.883-2.884,2.361,2.361,0,0,1-2.367-.98,2.417,2.417,0,0,0-4.078,0Z" transform="translate(-226.927 -34.134)" fill="#f9ac00" fill-rule="evenodd"/>
        <path id="Path_1032925" data-name="Path 1032925" d="M265.177,38.919a2.361,2.361,0,0,1-2.367.98,2.417,2.417,0,0,0-2.884,2.883,2.361,2.361,0,0,1-.98,2.367,2.417,2.417,0,0,0,0,4.078,2.361,2.361,0,0,1,.98,2.367,2.417,2.417,0,0,0,2.883,2.883,2.361,2.361,0,0,1,2.367.98,1.6,1.6,0,0,0,3.023,0,2.361,2.361,0,0,1,2.367-.98l.119.018a2.455,2.455,0,0,1,.936-.018l.012,0a2.268,2.268,0,0,0,1.166-.652,2.356,2.356,0,0,0,.65-2.233,2.361,2.361,0,0,1,.98-2.367,2.417,2.417,0,0,0,0-4.078,2.361,2.361,0,0,1-.98-2.367,2.356,2.356,0,0,0-.65-2.233,2.267,2.267,0,0,0-1.166-.652l-.012,0a2.454,2.454,0,0,1-.936-.018l-.119.018a2.361,2.361,0,0,1-2.367-.98,1.6,1.6,0,0,0-3.023,0Z" transform="translate(-226.927 -34.49)" fill="#fdc72e" fill-rule="evenodd"/>
      </g>
      <circle id="Ellipse_13819" data-name="Ellipse 13819" cx="4.535" cy="4.535" r="4.535" transform="translate(40.724 13.924)" fill="#f9ac00"/>
      <circle id="Ellipse_13820" data-name="Ellipse 13820" cx="4.535" cy="4.535" r="4.535" transform="translate(41.505 13.916)" fill="#f3f3ff"/>
      <path id="Path_1032926" data-name="Path 1032926" d="M14.894,42.216a.751.751,0,0,1-.751.751H11.782a.751.751,0,1,1,0-1.5h2.361A.751.751,0,0,1,14.894,42.216Zm43.916,3.96a.751.751,0,0,1-.751-.751V44.7a3.28,3.28,0,0,1-2.88-2.3.751.751,0,1,1,1.463-.341,1.736,1.736,0,0,0,1.417,1.106v-2.5A4.861,4.861,0,0,1,56.3,39.9a2.484,2.484,0,0,1-1.008-1.774,2.367,2.367,0,0,1,.688-1.822,3.571,3.571,0,0,1,2.079-.965v-.71a.751.751,0,1,1,1.5,0v.7a4.838,4.838,0,0,1,.629.127,2.912,2.912,0,0,1,2.237,2.052.751.751,0,0,1-1.465.333c-.134-.59-.865-.852-1.174-.938-.074-.021-.15-.038-.227-.053v2.63c.062.016.125.032.185.049a3.831,3.831,0,0,1,2.449,1.608,2.239,2.239,0,0,1,.159,1.747,3.046,3.046,0,0,1-2.793,1.85v.683a.751.751,0,0,1-.751.751h0Zm.751-5.125v2.178c.7-.106,1.245-.4,1.351-.759a.727.727,0,0,0-.032-.6A2.317,2.317,0,0,0,59.561,41.052Zm-1.5-1.947v-2.24a1.964,1.964,0,0,0-1,.484.887.887,0,0,0-.274.672,1,1,0,0,0,.43.7,2.706,2.706,0,0,0,.839.389Zm9.785,10.507a1.881,1.881,0,0,0-1.879-1.879H63.524A9.031,9.031,0,0,0,55.135,31.78a.744.744,0,0,0-.066-.231L52.527,26.18a3.292,3.292,0,0,0,.676-.525,3.09,3.09,0,0,0,.859-2.887,1.6,1.6,0,0,1,.674-1.627,3.164,3.164,0,0,0,0-5.3,1.6,1.6,0,0,1-.674-1.627,3.164,3.164,0,0,0-3.746-3.746A1.6,1.6,0,0,1,48.689,9.8a3.164,3.164,0,0,0-5.3,0,1.806,1.806,0,0,1-.21.245V5.751A.751.751,0,0,0,42.43,5H9.209a.751.751,0,0,0-.531.22L5.22,8.678A.751.751,0,0,0,5,9.209V27.925a.751.751,0,0,0,.751.751H20a2.752,2.752,0,0,0-1.176,1.071,2.73,2.73,0,0,0-4.026.918,2.732,2.732,0,0,0-4.286,2.248v1.637H5.751A.751.751,0,0,0,5,35.3V49.133a.751.751,0,0,0,.751.751H10.26a9.279,9.279,0,0,0,2.49,5.694A5.946,5.946,0,0,1,14.221,60.2h-.549a1.793,1.793,0,0,0-1.791,1.791v4.062a1.793,1.793,0,0,0,1.791,1.791H27.9a1.793,1.793,0,0,0,1.791-1.791V61.991A1.793,1.793,0,0,0,27.9,60.2h0A6.331,6.331,0,0,1,30.085,56a8.24,8.24,0,0,0,2.608-6.114h4.631a.751.751,0,0,0,.751-.751V35.3a.751.751,0,0,0-.751-.751H27.868V32.912a2.732,2.732,0,0,0-4.037-2.4,2.743,2.743,0,0,0-1.487-1.835H38.4l-1.364,2.889a.751.751,0,0,0,.9,1.038l2.608-.815,1.271,2.419a.751.751,0,0,0,.665.4l.053,0a.751.751,0,0,0,.655-.5l2-5.594a3.412,3.412,0,0,0,1.722-.007L48.919,34.1a.751.751,0,0,0,.655.5l.052,0a.751.751,0,0,0,.665-.4l1.268-2.42,2.287.711A9.026,9.026,0,0,0,54.1,47.732H51.655a1.881,1.881,0,0,0-1.879,1.879v2.4a1.867,1.867,0,0,0,.38,1.128,1.866,1.866,0,0,0-.38,1.128v2.4a1.867,1.867,0,0,0,.38,1.128,1.867,1.867,0,0,0-.38,1.128v2.4a1.867,1.867,0,0,0,.38,1.128,1.866,1.866,0,0,0-.38,1.128v2.4a1.881,1.881,0,0,0,1.879,1.879h14.31a1.881,1.881,0,0,0,1.879-1.879v-2.4a1.867,1.867,0,0,0-.38-1.128,1.867,1.867,0,0,0,.38-1.128v-2.4a1.867,1.867,0,0,0-.38-1.128,1.867,1.867,0,0,0,.38-1.128v-2.4a1.867,1.867,0,0,0-.38-1.128,1.867,1.867,0,0,0,.38-1.128ZM20.787,40v1.266a1.494,1.494,0,0,1-.372-.194.623.623,0,0,1-.267-.415.518.518,0,0,1,.164-.388A1.15,1.15,0,0,1,20.787,40Zm1.5,4.486V43.248a1.3,1.3,0,0,1,.7.474.389.389,0,0,1,.011.332c-.049.168-.318.336-.708.428Zm-1.538-6.02a2.73,2.73,0,0,1-1.561-.82,2.729,2.729,0,0,1-3.965,0l-.05.052a2.723,2.723,0,0,1-3.537.279h-1.6a2.491,2.491,0,0,1-1.613,1.613V44.85a2.492,2.492,0,0,1,1.613,1.613H20.791a.768.768,0,0,1,0-.08v-.419a2.653,2.653,0,0,1-2.219-1.879.751.751,0,1,1,1.463-.341,1.053,1.053,0,0,0,.757.664V42.838a3.686,3.686,0,0,1-1.293-.584,2.087,2.087,0,0,1-.844-1.492,2,2,0,0,1,.579-1.538,2.837,2.837,0,0,1,1.522-.763Zm-4.774-2.7h0V31.95a1.231,1.231,0,0,1,2.461,0v3.81a1.231,1.231,0,1,1-2.461,0Zm-3.964-2.848a1.231,1.231,0,1,1,2.461,0v2.849a1.231,1.231,0,1,1-2.461,0ZM6.5,48.382H25.376c.037-.061.073-.122.11-.185s.084-.153.122-.231H9.4a.751.751,0,0,1-.751-.751.979.979,0,0,0-.978-.978.751.751,0,0,1-.751-.751V38.948A.751.751,0,0,1,7.67,38.2a.979.979,0,0,0,.978-.978.751.751,0,0,1,.751-.751H10.6a2.7,2.7,0,0,1-.077-.416H6.5V48.382h0ZM27.9,61.7a.293.293,0,0,1,.289.289v4.062a.293.293,0,0,1-.289.289H13.672a.293.293,0,0,1-.289-.289V61.99a.293.293,0,0,1,.289-.289ZM31.2,48.965l-.257-7.584a.66.66,0,0,0-.262-.57,1.042,1.042,0,0,0-.895-.049c-1.69.627-1.854,1.84-2,3.93a9.583,9.583,0,0,1-.992,4.249,5.906,5.906,0,0,1-3.765,3.033.751.751,0,1,1-.385-1.452,4.274,4.274,0,0,0,1.4-.637H11.776a7.492,7.492,0,0,0,2.037,4.631A7.367,7.367,0,0,1,15.723,60.2H26.391a7.776,7.776,0,0,1,2.693-5.322c1.51-1.348,2.2-3.282,2.111-5.912h0Zm.318-9.4h0a2.529,2.529,0,0,0-2.254-.209c-2.68,1-2.836,3.247-2.974,5.234a16.815,16.815,0,0,1-.2,1.876h-3.8a.766.766,0,0,0,0-.08v-.378a2.449,2.449,0,0,0,2.15-1.531A1.9,1.9,0,0,0,24.3,43a3.116,3.116,0,0,0-1.994-1.323l-.018,0V39.986c.226.068.665.242.743.585a.751.751,0,0,0,1.465-.333,2.414,2.414,0,0,0-1.848-1.712c-.115-.032-.236-.058-.36-.079v-.193a2.745,2.745,0,0,0,.864-.613,2.727,2.727,0,0,0,3.588.329h6.3a2.492,2.492,0,0,0,1.613,1.613V44.85a2.491,2.491,0,0,0-1.613,1.613h-.429l-.174-5.134A2.142,2.142,0,0,0,31.513,39.562Zm5.06-3.511V48.382H32.678l-.014-.416h1.013a.751.751,0,0,0,.751-.751.979.979,0,0,1,.978-.978.751.751,0,0,0,.751-.751V38.947a.751.751,0,0,0-.751-.751.979.979,0,0,1-.978-.978.751.751,0,0,0-.751-.751h-5.9a2.734,2.734,0,0,0,.077-.416ZM23.9,32.912a1.231,1.231,0,0,1,2.461,0v2.849a1.231,1.231,0,1,1-2.461,0Zm-1.5-1.769v4.618a1.231,1.231,0,1,1-2.461,0V31.143a1.231,1.231,0,0,1,2.461,0ZM7.564,8.458l.893-.893v.893ZM39.112,27.174H6.5V9.96H9.209a.751.751,0,0,0,.751-.751V6.5H41.68v3.956a3.159,3.159,0,0,0-3.661,3.759,1.6,1.6,0,0,1-.674,1.627,3.164,3.164,0,0,0,0,5.3,1.6,1.6,0,0,1,.674,1.627,3.09,3.09,0,0,0,.859,2.887,3.282,3.282,0,0,0,.7.537l-.463.981Zm4.757.577h0l-1.515,4.241-.766-1.457a.751.751,0,0,0-.889-.368l-1.571.491,1.927-4.083a4.12,4.12,0,0,0,.709-.06,1.6,1.6,0,0,1,1.626.674,4.1,4.1,0,0,0,.478.562Zm2.171-.63h0a1.6,1.6,0,0,1-1.424-.8,3.084,3.084,0,0,0-2.545-1.333,3.338,3.338,0,0,0-.557.047A1.666,1.666,0,0,1,39.5,23.02a3.1,3.1,0,0,0-1.285-3.1,1.666,1.666,0,0,1,0-2.849,3.1,3.1,0,0,0,1.285-3.1,1.666,1.666,0,0,1,2.014-2.014,3.1,3.1,0,0,0,3.1-1.285,1.666,1.666,0,0,1,2.849,0,3.1,3.1,0,0,0,3.1,1.285,1.666,1.666,0,0,1,2.014,2.014,3.1,3.1,0,0,0,1.285,3.1,1.666,1.666,0,0,1,0,2.849,3.1,3.1,0,0,0-1.285,3.1,1.666,1.666,0,0,1-2.014,2.014,3.1,3.1,0,0,0-3.1,1.285A1.6,1.6,0,0,1,46.04,27.121Zm6.939,3.524-1.572-.489a.751.751,0,0,0-.889.369l-.764,1.458-1.525-4.25a4.133,4.133,0,0,0,.459-.544,1.6,1.6,0,0,1,1.627-.674,4.093,4.093,0,0,0,.735.059l1.928,4.07ZM58.81,47.561a7.532,7.532,0,1,0-7.532-7.532A7.54,7.54,0,0,0,58.81,47.561Zm-7.532,4.447v-2.4a.382.382,0,0,1,.377-.377h14.31a.382.382,0,0,1,.377.377v2.4a.382.382,0,0,1-.377.377H51.655a.382.382,0,0,1-.377-.377Zm14.687,1.879a.382.382,0,0,1,.377.377v2.4a.382.382,0,0,1-.377.377H51.655a.382.382,0,0,1-.377-.377v-2.4a.382.382,0,0,1,.377-.377Zm0,4.652a.382.382,0,0,1,.377.377v2.4a.382.382,0,0,1-.377.377H51.655a.382.382,0,0,1-.377-.377v-2.4a.382.382,0,0,1,.377-.377Zm.377,5.029v2.4a.382.382,0,0,1-.377.377H51.655a.382.382,0,0,1-.377-.377v-2.4a.382.382,0,0,1,.377-.377h14.31A.382.382,0,0,1,66.342,63.569ZM46.04,23.76a5.267,5.267,0,1,1,5.267-5.267A5.273,5.273,0,0,1,46.04,23.76ZM49.8,18.493a3.764,3.764,0,1,1-3.764-3.764A3.769,3.769,0,0,1,49.8,18.493Zm-39.73-4.5a.751.751,0,0,1,0-1.5H35.2a.751.751,0,1,1,0,1.5Zm0,7.2a.751.751,0,1,1,0-1.5h23a.751.751,0,1,1,0,1.5Zm25.127,2.1a.751.751,0,1,1,0,1.5H10.074a.751.751,0,1,1,0-1.5ZM13.952,10.391a.751.751,0,0,1,0-1.5h23a.751.751,0,1,1,0,1.5Zm-3.878,7.2a.751.751,0,1,1,0-1.5h23a.751.751,0,1,1,0,1.5Zm3.692,46.433a1.909,1.909,0,1,1,1.909,1.909A1.911,1.911,0,0,1,13.766,64.022Zm1.5,0a.407.407,0,1,1,.407.407A.407.407,0,0,1,15.269,64.022Z" fill-rule="evenodd"/>
    </g>
  </g>
</svg>
