<svg xmlns="http://www.w3.org/2000/svg" width="83.947" height="83.994" viewBox="0 0 83.947 83.994">
  <g id="img1" transform="translate(-706.028 -1710)">
    <g id="Group_1180300" data-name="Group 1180300" transform="translate(706 1710)">
      <g id="Grupo_155253" data-name="Grupo 155253" transform="matrix(0.999, 0.035, -0.035, 0.999, 2.834, 0)">
        <path id="Trazado_196478" data-name="Trazado 196478" d="M11.413,12.382q-.253.262-.5.529A40.338,40.338,0,0,0,.029,42.021l16.9-.589a23.694,23.694,0,0,1,47.359-1.656l16.9-.589a40.606,40.606,0,0,0-69.778-26.8" transform="translate(0 0)" fill="#f9ce5d"/>
        <path id="Trazado_196479" data-name="Trazado 196479" d="M0,2.836A40.606,40.606,0,0,0,81.162,0L64.26.589A23.694,23.694,0,0,1,16.9,2.245Z" transform="translate(0.028 39.185)" fill="#70f5c8"/>
      </g>
      <ellipse id="Ellipse_13685" data-name="Ellipse 13685" cx="33.016" cy="33.016" rx="33.016" ry="33.016" transform="translate(8.983 9.09)" fill="#fff"/>
    </g>
    <g id="Group_1184621" data-name="Group 1184621" transform="translate(727.378 1720.033)">
      <g id="Group_1184619" data-name="Group 1184619" transform="translate(0.604 12.94)">
        <g id="Group_1184618" data-name="Group 1184618">
          <g id="Group_1184611" data-name="Group 1184611" transform="translate(0 25.096)">
            <g id="Group_1184610" data-name="Group 1184610" transform="translate(3.838)">
              <g id="Group_1184608" data-name="Group 1184608" transform="translate(5.877)">
                <path id="Path_1032627" data-name="Path 1032627" d="M136.382,338.8h-8.27v-6.435a.988.988,0,0,1,.987-.987,3.24,3.24,0,0,1,3.239,3.24v.137Z" transform="translate(-128.112 -331.38)" fill="#fdb0a0"/>
              </g>
              <g id="Group_1184609" data-name="Group 1184609">
                <path id="Path_1032628" data-name="Path 1032628" d="M63.419,338.8h-5.87l-2.4-2.4v-4.035a.988.988,0,0,1,.987-.987,3.24,3.24,0,0,1,3.239,3.24v.137Z" transform="translate(-55.149 -331.38)" fill="#ffcec0"/>
              </g>
            </g>
            <path id="Path_1032629" data-name="Path 1032629" d="M35.358,338.559a1.978,1.978,0,0,1-1.747-.7,4.2,4.2,0,0,0-3.209-1.491h-.909a5.059,5.059,0,0,1-3.577-1.482l-2.8-2.8a2.387,2.387,0,0,0-3.376,0,1.631,1.631,0,0,0,0,2.306l3.241,3.241a3.175,3.175,0,0,1,.744,1.174H15.77l-4.044-4.044v-.138a3.24,3.24,0,0,0-3.24-3.24.987.987,0,0,0-.987.987V335.7a1.7,1.7,0,0,0,.5,1.205l6.642,6.642a2.694,2.694,0,0,0,1.905.789H47.535v-7.246Z" transform="translate(-7.5 -331.385)" fill="#ffdfd0"/>
            <path id="Path_1032630" data-name="Path 1032630" d="M470.577,402.545v6.916h2.733v-7.246Z" transform="translate(-433.275 -396.51)" fill="#ffcec0"/>
          </g>
          <g id="Group_1184617" data-name="Group 1184617" transform="translate(5.85)">
            <g id="Group_1184612" data-name="Group 1184612">
              <path id="Path_1032631" data-name="Path 1032631" d="M106.074,22.21a8.14,8.14,0,0,0-11.512,0l-.271.271-.271-.271A8.14,8.14,0,0,0,82.508,33.722L93.577,44.79a1.011,1.011,0,0,0,1.429,0l11.068-11.068a8.14,8.14,0,0,0,0-11.512Z" transform="translate(-80.124 -19.826)" fill="#fb3a82"/>
              <path id="Path_1032632" data-name="Path 1032632" d="M244.788,33.807,233.719,44.875a1.01,1.01,0,0,1-1.429,0l-1.3-1.3L241.563,33a8.144,8.144,0,0,0-2.206-13.083,8.139,8.139,0,0,1,5.43,13.889Z" transform="translate(-218.837 -19.911)" fill="#e01058"/>
            </g>
            <g id="Group_1184616" data-name="Group 1184616" transform="translate(18.858 12.555)">
              <g id="Group_1184613" data-name="Group 1184613" transform="translate(0 0)">
                <path id="Path_1032633" data-name="Path 1032633" d="M325.934,176.671a.4.4,0,0,0-.282-.355,24.469,24.469,0,0,0-11.056,0,.4.4,0,0,0-.282.355c-.291,4.194-.182,9.607,5.677,11.7a.4.4,0,0,0,.265,0C326.116,186.277,326.225,180.864,325.934,176.671Z" transform="translate(-314.228 -175.683)" fill="#27d1b3"/>
              </g>
              <g id="Group_1184614" data-name="Group 1184614" transform="translate(4.627 0.175)">
                <path id="Path_1032634" data-name="Path 1032634" d="M373.072,190.364a.389.389,0,0,1-.265,0,10.319,10.319,0,0,1-1.137-.481c4.751-2.415,4.826-7.869,4.556-11.777a.41.41,0,0,0-.111-.25,13.8,13.8,0,0,1,2.352.458.4.4,0,0,1,.281.355C379.04,182.862,378.931,188.275,373.072,190.364Z" transform="translate(-371.67 -177.856)" fill="#20b69f"/>
              </g>
              <path id="Path_1032635" data-name="Path 1032635" d="M326.155,179.629h-4.122v-3.9c-.532-.032-1.118-.051-1.762-.051s-1.23.019-1.762.051v3.9h-4.122a13.123,13.123,0,0,0,.557,3.524h3.565v4.467a9.958,9.958,0,0,0,1.63.745.4.4,0,0,0,.265,0,9.956,9.956,0,0,0,1.63-.745v-4.467H325.6A13.123,13.123,0,0,0,326.155,179.629Z" transform="translate(-314.374 -175.683)" fill="#e8edf1"/>
              <g id="Group_1184615" data-name="Group 1184615" transform="translate(4.627 3.946)">
                <path id="Path_1032636" data-name="Path 1032636" d="M373.072,296.655a9.953,9.953,0,0,0,1.63-.745v-2.45a7.639,7.639,0,0,1-3.032,2.714,10.281,10.281,0,0,0,1.137.481A.388.388,0,0,0,373.072,296.655Z" transform="translate(-371.67 -287.919)" fill="#c5d3dd"/>
                <path id="Path_1032637" data-name="Path 1032637" d="M424.275,224.675h-2.546a13.777,13.777,0,0,1-.626,3.524h2.615A13.119,13.119,0,0,0,424.275,224.675Z" transform="translate(-417.121 -224.675)" fill="#c5d3dd"/>
              </g>
            </g>
          </g>
        </g>
      </g>
      <g id="Group_1184620" data-name="Group 1184620" transform="translate(0 12.337)">
        <path id="Path_1032638" data-name="Path 1032638" d="M12.313,336.834H9.651a2.076,2.076,0,0,1-1.478-.612l-6.642-6.642a1.093,1.093,0,0,1-.322-.778v-3.328a.383.383,0,0,1,.382-.382,2.639,2.639,0,0,1,2.636,2.636v.138a.6.6,0,0,0,.177.427l4.044,4.044a.6.6,0,0,0,.427.177h7.493a2.6,2.6,0,0,1,.043.466.6.6,0,1,0,1.208,0,3.755,3.755,0,0,0-1.107-2.672l-3.241-3.241a1.028,1.028,0,0,1,0-1.452,1.783,1.783,0,0,1,2.522,0l2.8,2.8a5.626,5.626,0,0,0,4,1.659h.909a3.587,3.587,0,0,1,2.747,1.276,2.579,2.579,0,0,0,2.281.911l12.176-1.468a.6.6,0,0,0-.145-1.2L28.39,331.06a1.373,1.373,0,0,1-1.213-.491,4.793,4.793,0,0,0-3.67-1.705H22.6a4.426,4.426,0,0,1-3.15-1.3l-2.8-2.8a2.993,2.993,0,0,0-3.621-.471,3.835,3.835,0,0,0-1.719-.406,1.592,1.592,0,0,0-1.591,1.591v2.584l-.445-.445a3.849,3.849,0,0,0-3.842-3.73,1.594,1.594,0,0,0-1.415.864,3.826,3.826,0,0,0-2.424-.863A1.592,1.592,0,0,0,0,325.473V328.8a2.293,2.293,0,0,0,.676,1.632l6.642,6.642a3.277,3.277,0,0,0,2.332.966h2.662a.6.6,0,1,0,0-1.208Zm-1.389-11.361a.384.384,0,0,1,.382-.383,2.64,2.64,0,0,1,.764.114,2.239,2.239,0,0,0,.345,2.715l3.241,3.241c.046.046.09.094.132.143H12.963l-2.039-2.039v-3.792ZM5.16,325.2a.376.376,0,0,1,.269-.111,2.639,2.639,0,0,1,2.635,2.636v.137a.6.6,0,0,0,.177.427l3.013,3.013H9.125l-3.692-3.692a3.817,3.817,0,0,0-.386-1.566v-.573A.378.378,0,0,1,5.16,325.2Z" transform="translate(0 -298.786)"/>
        <path id="Path_1032639" data-name="Path 1032639" d="M204.467,484.666H178.785a.6.6,0,0,0,0,1.208h25.682a.6.6,0,0,0,0-1.208Z" transform="translate(-163.828 -446.619)"/>
        <path id="Path_1032640" data-name="Path 1032640" d="M315.516,99.708a.6.6,0,0,0-.6.6v.508H314.4a.6.6,0,0,0,0,1.208h.508v.508a.6.6,0,1,0,1.208,0v-.508h.508a.6.6,0,0,0,0-1.208h-.508v-.508A.6.6,0,0,0,315.516,99.708Z" transform="translate(-288.522 -92.67)"/>
        <path id="Path_1032641" data-name="Path 1032641" d="M79.87,31.9a.6.6,0,1,0,.854-.854l-2.992-2.992h3.311a.6.6,0,0,0,.587-.459l.832-3.37,2.733,8.509a.6.6,0,0,0,.575.419l.046,0a.6.6,0,0,0,.551-.506L88.084,22l1.2,5.413a.6.6,0,0,0,.59.473h1.665a15.866,15.866,0,0,0,.568,5.211l-4.38,4.38a.407.407,0,0,1-.575,0l-4.56-4.56a.6.6,0,0,0-.854.854l4.56,4.56a1.617,1.617,0,0,0,2.284,0l4.006-4.006a8.182,8.182,0,0,0,3.334,3.6.6.6,0,0,0,.071.042,10.505,10.505,0,0,0,1.7.776,1,1,0,0,0,.67,0,10.5,10.5,0,0,0,1.7-.775.6.6,0,0,0,.071-.042,8.249,8.249,0,0,0,3.744-4.617c.018-.054.036-.109.053-.163l0-.007a18.193,18.193,0,0,0,.507-6.7,1.009,1.009,0,0,0-.708-.891,14.542,14.542,0,0,0-2.481-.482,8.746,8.746,0,0,0-9.237-12.611.6.6,0,0,0,.2,1.192,7.536,7.536,0,0,1,7.722,11.3c-.572-.036-1.208-.058-1.907-.058a20.149,20.149,0,0,0-5.7.659,1.009,1.009,0,0,0-.708.891q-.008.118-.016.237h-1.24L88.58,18.658a.6.6,0,0,0-1.186.035L85.575,29.966,82.96,21.829a.6.6,0,0,0-.575-.419h-.021a.6.6,0,0,0-.566.459L80.57,26.847H76.524l-.438-.438A7.536,7.536,0,0,1,86.743,15.751l.271.271a.6.6,0,0,0,.854,0l.271-.271a7.543,7.543,0,0,1,1.768-1.315.6.6,0,1,0-.571-1.065,8.739,8.739,0,0,0-1.895,1.373,8.744,8.744,0,0,0-12.21,12.519Zm13.7,1.668h2.089V36.3A6.858,6.858,0,0,1,93.574,33.57ZM100.4,36.3V33.57h2.089A6.858,6.858,0,0,1,100.4,36.3Zm2.922-7.464H100.4V26.194a15.476,15.476,0,0,1,2.85.471C103.293,27.4,103.322,28.123,103.317,28.837Zm-4.13-2.716v3.321a.6.6,0,0,0,.6.6h3.48a12.443,12.443,0,0,1-.37,2.316h-3.11a.6.6,0,0,0-.6.6v4.11a9.6,9.6,0,0,1-1.158.508,9.6,9.6,0,0,1-1.158-.508v-4.11a.6.6,0,0,0-.6-.6H93.157a12.443,12.443,0,0,1-.37-2.316h3.48a.6.6,0,0,0,.6-.6V26.12c.363-.014.748-.022,1.158-.022s.8.008,1.158.022Zm-6.374.545a15.484,15.484,0,0,1,2.85-.471v2.643H92.741C92.735,28.122,92.764,27.4,92.812,26.665Z" transform="translate(-66.82 -12.337)"/>
      </g>
    </g>
  </g>
</svg>
