<svg xmlns="http://www.w3.org/2000/svg" xmlns:xlink="http://www.w3.org/1999/xlink" width="292" height="139" viewBox="0 0 292 139">
  <defs>
    <clipPath id="clip-path">
      <rect id="Rectangle_457782" data-name="Rectangle 457782" width="175.225" height="133.394" fill="none"/>
    </clipPath>
  </defs>
  <g id="img10" transform="translate(2429.259 3033.745)">
    <rect id="Rectangle_456645" data-name="Rectangle 456645" width="292" height="139" transform="translate(-2429.259 -3033.745)" fill="#ffd8c7"/>
    <g id="Group_1181084" data-name="Group 1181084" transform="translate(-2370.872 -3028.139)">
      <g id="Group_1181083" data-name="Group 1181083" clip-path="url(#clip-path)">
        <path id="Path_1026539" data-name="Path 1026539" d="M141.635,193.471c20.38,0,39.134.3,54.017.8,36.422-20.339,23.81-59.985,10.732-82.41-18.2-31.21-61.208-42.428-79-17.526-24.145,33.8-47.437,22.005-60.016,47.675s6.524,50.278,20.247,52.262c14.883-.5,33.637-.8,54.016-.8m-31.913-86.55c-9.322,6.932-24.743,12.3-29.863,4.934-3.826-5.506.887-15.837,10.116-23.669s21.58-12.564,28.314-6.8c7.993,6.839-1.388,20.2-8.567,25.536" transform="translate(-54.022 -67.575)" fill="#e9eff8" fill-rule="evenodd"/>
        <path id="Path_1026540" data-name="Path 1026540" d="M109.323,485.507a14.4,14.4,0,0,1-17-10.957,14.083,14.083,0,0,1,11.215-16.609,14.4,14.4,0,0,1,17,10.957,14.082,14.082,0,0,1-11.215,16.609M71.266,473.92a40.115,40.115,0,0,0,2.83,7.736l3.333.362a29.826,29.826,0,0,0,4.095,7.506l-.916,1.721a31.531,31.531,0,0,0,7.466,6.066l1.091-.607a31.279,31.279,0,0,0,5.592,2.924c9.18-.305,19.817-.534,31.389-.664l-.734-3.474,1.06-.847,4.974-5.28.693.112,6.536,1.069a36.533,36.533,0,0,0,2.828-5.673l-5.414-4.821a29.509,29.509,0,0,0,1.2-8.426l6.555-3.19-1.132-6.214-7.281-.79a29.555,29.555,0,0,0-4.094-7.507l3.384-6.348a37.258,37.258,0,0,0-4.653-4.374l-6.372,3.545-7.82-3.722-1.086-7.086a37.689,37.689,0,0,0-6.4-.866L105.37,441.6,96.8,443.084l-5.141-5.111-5.7,2.969,1.479,7.016a30.545,30.545,0,0,0-6.03,6.125l-1.943-.315-5.288-.866a36.414,36.414,0,0,0-2.826,5.673l5.415,4.821a29.186,29.186,0,0,0-1.2,8.426Z" transform="translate(-60.85 -372.944)" fill="#c1cbe6" fill-rule="evenodd"/>
        <path id="Path_1026541" data-name="Path 1026541" d="M87.612,881.64c48.387,0,87.612,1.678,87.612,3.749S136,889.138,87.612,889.138,0,887.459,0,885.389s39.225-3.749,87.612-3.749" transform="translate(0 -755.744)" fill="#dce6f2" fill-rule="evenodd"/>
        <path id="Path_1026542" data-name="Path 1026542" d="M422.7,73.245h62.166a8.749,8.749,0,0,1,8.823,8.621v83.486a8.749,8.749,0,0,1-8.823,8.62H422.7a8.749,8.749,0,0,1-8.824-8.62V81.866a8.75,8.75,0,0,1,8.824-8.621" transform="translate(-353.383 -62.786)" fill="#bcc9e7" fill-rule="evenodd"/>
        <path id="Path_1026543" data-name="Path 1026543" d="M437.269,90.308h62.166a6.277,6.277,0,0,1,6.329,6.184v83.485a6.277,6.277,0,0,1-6.329,6.184H437.269a6.277,6.277,0,0,1-6.33-6.184V96.492a6.277,6.277,0,0,1,6.33-6.184" transform="translate(-367.952 -77.412)" fill="#cbd4eb" fill-rule="evenodd"/>
        <path id="Path_1026544" data-name="Path 1026544" d="M462.154,100.908l64.491.5-.758,86.122-64.492-.5Z" transform="translate(-393.957 -86.498)" fill="#fff" fill-rule="evenodd"/>
        <path id="Path_1026545" data-name="Path 1026545" d="M565.338,6.657h10.933V4.406a4.51,4.51,0,0,1,9.018,0V6.657h10.933a2.7,2.7,0,0,1,2.725,2.662V14.39a2.7,2.7,0,0,1-2.725,2.662H565.338a2.7,2.7,0,0,1-2.725-2.662V9.318a2.7,2.7,0,0,1,2.725-2.662M580.78,2.631a1.972,1.972,0,0,0-2,1.949,2,2,0,0,0,3.99,0,1.972,1.972,0,0,0-1.995-1.949" transform="translate(-480.381)" fill="#bcc9e7" fill-rule="evenodd"/>
        <path id="Path_1026546" data-name="Path 1026546" d="M559.687,257.148h-7.093a.756.756,0,1,1,0-1.512h7.093a.757.757,0,1,1,0,1.513m-30.055,8.641H509.953a.757.757,0,1,1,0-1.513h19.679a.757.757,0,1,1,0,1.513m22.342,0H532.805a.757.757,0,1,1,0-1.513h19.168a.757.757,0,1,1,0,1.513m-29.836-4.321H509.953a.756.756,0,1,1,0-1.512h12.185a.756.756,0,1,1,0,1.512m37.549,0H525.544a.756.756,0,1,1,0-1.512h34.143a.756.756,0,1,1,0,1.512m-10.376-4.32H509.953a.756.756,0,1,1,0-1.512H549.31a.757.757,0,1,1,0,1.513" transform="translate(-434.756 -219.131)" fill="#bcc9e7" fill-rule="evenodd"/>
        <path id="Path_1026547" data-name="Path 1026547" d="M559.687,350.028h-7.093a.757.757,0,1,1,0-1.513h7.093a.757.757,0,1,1,0,1.513m-30.055,8.64H509.953a.757.757,0,1,1,0-1.513h19.679a.757.757,0,1,1,0,1.513m22.342,0H532.805a.757.757,0,1,1,0-1.513h19.168a.757.757,0,1,1,0,1.513m-29.836-4.32H509.953a.757.757,0,1,1,0-1.513h12.185a.757.757,0,1,1,0,1.513m37.549,0H525.544a.757.757,0,1,1,0-1.513h34.143a.757.757,0,1,1,0,1.513m-10.376-4.32H509.953a.757.757,0,1,1,0-1.513H549.31a.757.757,0,1,1,0,1.513" transform="translate(-434.756 -298.748)" fill="#bcc9e7" fill-rule="evenodd"/>
        <path id="Path_1026548" data-name="Path 1026548" d="M559.687,442.9h-7.093a.756.756,0,1,1,0-1.512h7.093a.757.757,0,1,1,0,1.513m-30.055,8.641H509.953a.757.757,0,1,1,0-1.513h19.679a.757.757,0,1,1,0,1.513m22.342,0H532.805a.757.757,0,1,1,0-1.513h19.168a.757.757,0,1,1,0,1.513m-29.836-4.32H509.953a.756.756,0,1,1,0-1.512h12.185a.756.756,0,1,1,0,1.512m37.549,0H525.544a.756.756,0,1,1,0-1.512h34.143a.756.756,0,1,1,0,1.512M549.31,442.9H509.953a.756.756,0,1,1,0-1.512H549.31a.757.757,0,1,1,0,1.513" transform="translate(-434.756 -378.361)" fill="#bcc9e7" fill-rule="evenodd"/>
        <path id="Path_1026549" data-name="Path 1026549" d="M532.727,200.609h47.505a.574.574,0,0,1,.579.566h0a.573.573,0,0,1-.579.566H532.727a.574.574,0,0,1-.58-.566h0a.574.574,0,0,1,.58-.566" transform="translate(-454.368 -171.962)" fill="#bcc9e7" fill-rule="evenodd"/>
        <path id="Path_1026550" data-name="Path 1026550" d="M486.7,650.522h20.237a.574.574,0,0,1,.579.566v0a.574.574,0,0,1-.579.566H486.7a.574.574,0,0,1-.579-.566v0a.573.573,0,0,1,.579-.566" transform="translate(-415.065 -557.629)" fill="#bcc9e7" fill-rule="evenodd"/>
        <path id="Path_1026551" data-name="Path 1026551" d="M139.562,843.745s-1.489,1.506-1.126,2.5,1.819,1.59,2.081,2.814,1.065,1.855,1.753,1.818l3.286-.179s.457-.9-.782-1.091-1.784-1.62-1.784-2.97a23.6,23.6,0,0,0-.293-3.135l-2.637-.458Z" transform="translate(-118.153 -722.658)" fill="#142d4d" fill-rule="evenodd"/>
        <path id="Path_1026552" data-name="Path 1026552" d="M279.971,861.887a6.222,6.222,0,0,0,1.5.088l7.428-.4c-.038-.215-.254-.975-1.479-1.1-1.385-.143-3.806-.793-4.434-2.479-.021-.053-.039-.109-.056-.164-.524-1.809-3.449.749-3.449.749s0,.074-.012.2c-.033.677-.091,2.861.506,3.112" transform="translate(-238.602 -734.776)" fill="#142d4d" fill-rule="evenodd"/>
        <path id="Path_1026553" data-name="Path 1026553" d="M236.632,543.753s-.143,5.694-.3,12.537c-.216,9.3-.462,20.715-.429,22.873.061,3.749-.211,9.765-.211,9.765a4.891,4.891,0,0,1-4.318,1.059,96.225,96.225,0,0,1-4.333-17.4c-.02-.147-.04-.3-.059-.444-1.213-9.162-3.386-28.474-3.386-28.474Z" transform="translate(-190.912 -466.038)" fill="#003d81" fill-rule="evenodd"/>
        <path id="Path_1026554" data-name="Path 1026554" d="M236.632,543.753s-.143,5.694-.3,12.537l-9.291,16.3c-.02-.147-.04-.3-.059-.444-1.213-9.162-3.386-28.474-3.386-28.474Z" transform="translate(-190.912 -466.038)" fill="#0f3970" fill-rule="evenodd"/>
        <path id="Path_1026555" data-name="Path 1026555" d="M168.429,531.895s-7.214,20.985-12.176,30.932-6.533,12.732-6.533,12.732-3.227-1.062-3.562-1.887c0,0,1.047-18.741,4.48-23.481,1.94-2.678,3.951-10.511,3.913-13.21s.289-8.061.289-8.061Z" transform="translate(-124.796 -453.391)" fill="#003d81" fill-rule="evenodd"/>
        <path id="Path_1026556" data-name="Path 1026556" d="M430.607,404.952a25.383,25.383,0,0,1,2.494-1.026,5.614,5.614,0,0,1,1.849.3c.041.1,0,.2-.226.261s-.988.129-.922.207c0,0,.836-.185.965.27.23.8.575,1.456-.4,1.9-.981.264-3.187-.446-3.358-.426-1.447.181-.4-1.483-.4-1.483" transform="translate(-367.355 -346.24)" fill="#f4ae7c" fill-rule="evenodd"/>
        <path id="Path_1026557" data-name="Path 1026557" d="M264.116,336.912c.1-1.062-.013-1.2-.013-1.2s-9-2.906-9.931-3.214-12.417-8.011-12.417-8.011l-8.972,4.6s17.228,7.846,19.608,8.579c3.936,1.211,11.2.655,11.2.655a2.937,2.937,0,0,0,.525-1.408" transform="translate(-198.758 -278.148)" fill="#9aa8d0" fill-rule="evenodd"/>
        <path id="Path_1026558" data-name="Path 1026558" d="M270.607,277.922s4.66,4.685,8.1,4.738a8.926,8.926,0,0,1-1.688-2.7c.242-.446.451-.852.63-1.214a19.522,19.522,0,0,0,.844-1.921l-1.761-2.679-1.2-1.818a9.654,9.654,0,0,1-.807,1.908,8.152,8.152,0,0,1-4.122,3.685" transform="translate(-231.055 -233.441)" fill="#f4ae7c" fill-rule="evenodd"/>
        <path id="Path_1026559" data-name="Path 1026559" d="M194.818,336.865c2.65,2.4,18.576,2.976,17.96,1.053a21.334,21.334,0,0,1-.862-3.869c-.057-.429-.1-.885-.138-1.371a30.84,30.84,0,0,1,1.152-10.434c.089-.319.181-.643.28-.972a30.108,30.108,0,0,0,1.067-5.035c.386-3.173.177-6.085-.763-7.818a.263.263,0,0,0-.013-.024c-3.47-.752-5.926-6.015-5.926-6.015s-8.967,1.215-9.538,17.044c0,0-5.526,15.35-3.22,17.441" transform="translate(-165.863 -259.201)" fill="#8d9fca" fill-rule="evenodd"/>
        <path id="Path_1026560" data-name="Path 1026560" d="M282.564,410.243c-.057-.429-.1-.885-.138-1.371a30.817,30.817,0,0,1,1.151-10.434,14,14,0,0,0-2.374-4.264c-2.846-2.684-4.205-2.908-4.205-2.908s-.258,13.939,5.566,18.977" transform="translate(-236.51 -335.395)" fill="#9aa8d0" fill-rule="evenodd"/>
        <path id="Path_1026561" data-name="Path 1026561" d="M310.46,234.318s.591,2.211-.02,2.388c-.5.146-.025,2.292.022,2.636s-.935.35-1.182.505-1.451,2.5-2.233,2.39a11.749,11.749,0,0,1-4.623-3.268c-.7-1.174-.394-5.65.684-7.312s6.3-1.208,7.352,2.661" transform="translate(-257.902 -197.796)" fill="#f4ae7c" fill-rule="evenodd"/>
        <path id="Path_1026562" data-name="Path 1026562" d="M296.292,223.559c1.924-.55,1.686-4.635-.645-5.9-1.679,2.249-5.339,1.85-5.78,1.855s-3.232-.278-4.56,3.408a9.243,9.243,0,0,1,2.227,4.182s.917-1.8,1.708-1.793c.86.008,2.248.151,2.248.151s-.249-2,.919-2,2.868-.582,3.882.089" transform="translate(-243.606 -186.581)" fill="#0f3970" fill-rule="evenodd"/>
        <path id="Path_1026563" data-name="Path 1026563" d="M311.813,257.972c-.034-.274,0-1.137-1.107-.73s-.156,2.518,0,2.583,1.394.456,1.1-1.853" transform="translate(-264.842 -220.417)" fill="#f4ae7c" fill-rule="evenodd"/>
        <path id="Path_1026564" data-name="Path 1026564" d="M308.093,292.263c-.083.229-.176.434-.318.747a16.9,16.9,0,0,1-2.416-2.892,17.4,17.4,0,0,0,2.735,2.145" transform="translate(-260.727 -248.69)" fill="#ed7d5b" fill-rule="evenodd"/>
        <path id="Path_1026565" data-name="Path 1026565" d="M353.229,272.227c-.241-.038-.267-1,.318-.9.312.051.077.963-.318.9" transform="translate(-301.464 -232.576)" fill="#0f3970" fill-rule="evenodd"/>
        <path id="Path_1026566" data-name="Path 1026566" d="M349.313,265.661c.385.076.319.387.022.426a8.936,8.936,0,0,1-1.629-.021,2.047,2.047,0,0,1,1.606-.4" transform="translate(-296.883 -227.697)" fill="#0f3970" fill-rule="evenodd"/>
        <path id="Path_1026567" data-name="Path 1026567" d="M335.745,295.262c-1.705,1.733-2.334-.439-1.993-.4,1.735.2,2.2.189,1.993.4" transform="translate(-284.894 -252.756)" fill="#fff" fill-rule="evenodd"/>
        <path id="Path_1026568" data-name="Path 1026568" d="M381.425,271.867a8.048,8.048,0,0,1-9.5-6.125,7.873,7.873,0,0,1,6.269-9.285,8.048,8.048,0,0,1,9.5,6.125,7.872,7.872,0,0,1-6.269,9.285m-11.27,6.26a17.482,17.482,0,0,0,4.375,2.08l.607,3.961,3.573.485L380.4,281l.937-.057,3.851-.773,2.875,2.858,2.806-1.425.1-.058.283-.177-.829-3.923.592-.474,2.781-2.951.388.063,3.654.6a20.426,20.426,0,0,0,1.581-3.171l-3.026-2.7a16.474,16.474,0,0,0,.669-4.71l3.665-1.784-.632-3.474-4.071-.442a16.528,16.528,0,0,0-2.288-4.2l1.892-3.549a20.83,20.83,0,0,0-2.6-2.445l-3.562,1.981-4.372-2.081-.607-3.961a21.014,21.014,0,0,0-3.575-.484l-1.689,3.647-4.789.833-2.874-2.858-3.185,1.66.827,3.922a17.053,17.053,0,0,0-3.371,3.424l-1.087-.176-2.956-.484a20.353,20.353,0,0,0-1.579,3.172l3.026,2.695a16.318,16.318,0,0,0-.668,4.71L358.894,266l.632,3.474,4.069.442a16.688,16.688,0,0,0,2.289,4.2l-1.891,3.549a20.91,20.91,0,0,0,2.6,2.445Z" transform="translate(-306.438 -208.875)" fill="#325194" fill-rule="evenodd"/>
        <path id="Path_1026569" data-name="Path 1026569" d="M421.187,474.227a33.622,33.622,0,0,1,3.506-.419,7.25,7.25,0,0,1,2.213,1.025c.015.139-.076.247-.379.248s-1.288-.184-1.233-.063,2.883.846,2.878,1.41-1.639,1.515-2.969,1.5-3.837-1.674-4.06-1.706c-1.883-.278.044-2,.044-2" transform="translate(-358.884 -406.144)" fill="#f4ae7c" fill-rule="evenodd"/>
        <path id="Path_1026570" data-name="Path 1026570" d="M265.008,348.865c.385-1.067-.139-1.4-.139-1.4s-10.761-5.072-11.64-5.628-6.741-11.156-6.741-11.156-2.171-4.332-4.973-4.264a5.034,5.034,0,0,0-4.559,3.083,4.9,4.9,0,0,0,.884,5.549c3.21,3.363,9.655,10.023,11.33,11.039,3.729,2.26,14.933,4.14,14.933,4.14a3.549,3.549,0,0,0,.906-1.359" transform="translate(-201.897 -279.801)" fill="#8d9fca" fill-rule="evenodd"/>
        <path id="Path_1026571" data-name="Path 1026571" d="M448.876,411.234q1.118,1.2.947,1.721a1.411,1.411,0,0,1-1.45.086,1.165,1.165,0,0,1-.316-1.154.816.816,0,0,1,.819-.652" transform="translate(-382.533 -352.509)" fill="#f4ae7c" fill-rule="evenodd"/>
        <path id="Path_1026572" data-name="Path 1026572" d="M470.522,282.915a15.477,15.477,0,0,1,17.967,8.393,14.821,14.821,0,0,1-5.6,18.672,14.709,14.709,0,0,0,6.529-19.08,15.351,15.351,0,0,0-18.9-7.986" transform="translate(-401.75 -241.807)" fill="#8d9fca" fill-rule="evenodd"/>
        <path id="Path_1026573" data-name="Path 1026573" d="M990.059,671.347q.55-21.741.551-21.739,4.073.035,4.108.033l-4.659,21.706" transform="translate(-845.351 -556.845)" fill="#cbd4eb" fill-rule="evenodd"/>
        <path id="Path_1026574" data-name="Path 1026574" d="M778.44,615.768l-20.2.047v21a2.607,2.607,0,0,0,.78,2.114,2.738,2.738,0,0,0,2.164.762l31.561.067q-.068-23.878-.068-23.879l-3.457.067V612.9l-1.338.005c-3.033.013-5.183.017-6.439.026-2.778.02-2.967-.321-3,2.833" transform="translate(-647.403 -525.382)" fill="#8d9fca" fill-rule="evenodd"/>
        <path id="Path_1026575" data-name="Path 1026575" d="M852.162,702a5.675,5.675,0,0,0,.058-.907v-7.7c0-.283-.006-.511-.019-.688a2.12,2.12,0,0,0-.068-.436.613.613,0,0,0-.144-.267,1,1,0,0,0-.258-.187,1.738,1.738,0,0,0-.83-.21h-.433v-.324h4.552V702h1.164v.479h-5.647V702Z" transform="translate(-726.164 -592.562)" fill="#fff" fill-rule="evenodd"/>
        <path id="Path_1026576" data-name="Path 1026576" d="M861.527,663.449a1.606,1.606,0,1,1-1.643,1.605,1.624,1.624,0,0,1,1.643-1.605" transform="translate(-734.202 -568.71)" fill="#fff" fill-rule="evenodd"/>
        <rect id="Rectangle_457777" data-name="Rectangle 457777" width="15.84" height="2.543" transform="translate(87.33 20.43)" fill="#325194"/>
        <rect id="Rectangle_457778" data-name="Rectangle 457778" width="5.749" height="2.543" transform="translate(105.048 20.43)" fill="#bcc9e7"/>
        <path id="Path_1026577" data-name="Path 1026577" d="M993.758,492.533a7.54,7.54,0,1,1-7.715,7.537,7.627,7.627,0,0,1,7.715-7.537" transform="translate(-841.922 -422.2)" fill="#aab9de" fill-rule="evenodd"/>
        <path id="Path_1026578" data-name="Path 1026578" d="M1027.56,517.147a1.885,1.885,0,1,1-1.929,1.884,1.907,1.907,0,0,1,1.929-1.884" transform="translate(-875.724 -443.3)" fill="#fff" fill-rule="evenodd"/>
        <path id="Path_1026579" data-name="Path 1026579" d="M1014.365,547.093h3.858a1.912,1.912,0,0,1,1.928,1.884v1.885h-7.715v-1.885a1.912,1.912,0,0,1,1.928-1.884" transform="translate(-864.458 -468.969)" fill="#fff" fill-rule="evenodd"/>
        <rect id="Rectangle_457779" data-name="Rectangle 457779" width="12.437" height="12.151" transform="translate(154.388 53.505)" fill="#aab9de"/>
        <path id="Path_1030011" data-name="Path 1030011" d="M0,0,5.473,0l0,8.182L0,8.182Z" transform="translate(156.294 61.522) rotate(-88.729)" fill="#8d9fca"/>
        <path id="Path_1026580" data-name="Path 1026580" d="M1069.329,413l4.159-2.971,4.022,3.148Z" transform="translate(-913.035 -351.479)" fill="#d0d7ed" fill-rule="evenodd"/>
        <path id="Path_1026581" data-name="Path 1026581" d="M1078.358,392.692l-4.168,3.32-4.012-3.5Z" transform="translate(-913.76 -336.464)" fill="#fff" fill-rule="evenodd"/>
        <rect id="Rectangle_457781" data-name="Rectangle 457781" width="12.789" height="12.495" transform="translate(146.43 34.278)" fill="#aab9de"/>
        <path id="Path_1026582" data-name="Path 1026582" d="M1036.488,258.306a1.647,1.647,0,1,1-1.723,1.609,1.665,1.665,0,0,1,1.723-1.609" transform="translate(-883.522 -221.42)" fill="#fff" fill-rule="evenodd"/>
        <path id="Path_1026583" data-name="Path 1026583" d="M1024.156,284.21l3.371.074a1.668,1.668,0,0,1,1.647,1.683l-.038,1.647-6.741-.148.038-1.646a1.672,1.672,0,0,1,1.723-1.61" transform="translate(-872.961 -243.625)" fill="#fff" fill-rule="evenodd"/>
        <path id="Path_1026584" data-name="Path 1026584" d="M188.755,120.3a.68.68,0,0,1-.851.427.658.658,0,0,1-.437-.831,35.622,35.622,0,0,1,10.049-15.88,38.487,38.487,0,0,1,17.307-8.524.679.679,0,0,1,.814.495.662.662,0,0,1-.506.8,37.144,37.144,0,0,0-16.7,8.213,34.328,34.328,0,0,0-9.674,15.305" transform="translate(-160.039 -81.838)" fill="#fff" fill-rule="evenodd"/>
      </g>
    </g>
  </g>
</svg>
