<svg xmlns="http://www.w3.org/2000/svg" xmlns:xlink="http://www.w3.org/1999/xlink" width="159.902" height="160" viewBox="0 0 159.902 160">
  <defs>
    <clipPath id="clip-path">
      <rect id="Rectangle_458696" data-name="Rectangle 458696" width="63.813" height="75.98" fill="none"/>
    </clipPath>
  </defs>
  <g id="img35" transform="translate(-705.988 -1710.002)">
    <g id="Group_1180300" data-name="Group 1180300" transform="translate(705.936 1710.002)">
      <g id="Grupo_155253" data-name="Grupo 155253" transform="matrix(0.999, 0.035, -0.035, 0.999, 5.399, 0)">
        <path id="Trazado_196478" data-name="Trazado 196478" d="M21.736,24.335q-.482.515-.955,1.039A80.745,80.745,0,0,0,.055,82.589l32.194-1.156c-.873-25.7,18.614-47.269,43.524-48.167s45.811,19.211,46.683,44.915l32.194-1.156c-1.086-32-20.6-60.234-49.569-71.716S43.3,1.322,21.736,24.344" transform="translate(0 0)" fill="#f9ce5d"/>
        <path id="Trazado_196479" data-name="Trazado 196479" d="M0,5.568C1.493,49.619,37.312,84.083,80,82.545S156.089,44.051,154.595,0L122.4,1.156c.872,25.7-18.614,47.269-43.524,48.166S33.066,30.111,32.194,4.408Z" transform="translate(0.052 72.101)" fill="#ff9e74"/>
      </g>
      <ellipse id="Ellipse_13685" data-name="Ellipse 13685" cx="62.257" cy="62.359" rx="62.257" ry="62.359" transform="translate(17.837 17.949)" fill="#fff"/>
    </g>
    <g id="Group_1183499" data-name="Group 1183499" transform="translate(754.03 1752.012)">
      <g id="Group_1183498" data-name="Group 1183498" transform="translate(0 0)" clip-path="url(#clip-path)">
        <path id="Path_1029262" data-name="Path 1029262" d="M20.654,12.926H39.934a2.277,2.277,0,0,0,2.277-2.277V7.035a2.277,2.277,0,0,0-2.277-2.277H36.356a6.24,6.24,0,0,0-12.123,0H20.654a2.277,2.277,0,0,0-2.277,2.277v3.613a2.278,2.278,0,0,0,2.277,2.277m9.64-9.238a2.575,2.575,0,1,1-2.575,2.575,2.576,2.576,0,0,1,2.575-2.575" transform="translate(-6.527 0)" fill="#203a72"/>
        <path id="Path_1029263" data-name="Path 1029263" d="M47.534,50.08V18.153a5.681,5.681,0,0,0-5.669-5.669H39.03v2.6A5.62,5.62,0,0,1,33.409,20.7H14.125A5.63,5.63,0,0,1,8.5,15.079v-2.6H5.669A5.682,5.682,0,0,0,0,18.153V62.836A5.682,5.682,0,0,0,5.669,68.5H33.345a14.673,14.673,0,0,1-.1-1.672A16.991,16.991,0,0,1,47.534,50.08M22.644,30.971H37.916a1.672,1.672,0,1,1,0,3.344H22.644a1.672,1.672,0,1,1,0-3.344m0,12.342H37.916a1.672,1.672,0,0,1,0,3.344H22.644a1.672,1.672,0,0,1,0-3.344M18.329,54.125,13.44,59.571a1.695,1.695,0,0,1-2.484,0l-2.58-2.882a1.674,1.674,0,1,1,2.484-2.245l1.337,1.5,3.646-4.061a1.674,1.674,0,0,1,2.484,2.245m0-12.341L13.44,47.23a1.663,1.663,0,0,1-2.484,0l-2.58-2.882a1.669,1.669,0,0,1,2.484-2.23l1.337,1.5,3.646-4.061a1.669,1.669,0,0,1,2.484,2.23m0-12.341L13.44,34.889a1.663,1.663,0,0,1-2.484,0l-2.58-2.882a1.669,1.669,0,0,1,2.484-2.23l1.337,1.5,3.646-4.061a1.669,1.669,0,1,1,2.484,2.23M28.393,59H22.644a1.672,1.672,0,0,1,0-3.344h5.749a1.672,1.672,0,0,1,0,3.344" transform="translate(0 -4.434)" fill="#203a72"/>
        <path id="Path_1029264" data-name="Path 1029264" d="M70.366,75.657A13.6,13.6,0,1,0,83.972,89.263,13.607,13.607,0,0,0,70.366,75.657M65.227,92.786a.372.372,0,0,1,.376-.393h2.049a.355.355,0,0,1,.36.28,1.744,1.744,0,0,0,1.718,1.459H70.9a1.811,1.811,0,0,0,1.815-1.446A1.741,1.741,0,0,0,71,90.655H69.931a4.658,4.658,0,0,1-4.7-4.066,4.521,4.521,0,0,1,3.744-4.9V79.908a.371.371,0,0,1,.37-.371h2.038a.371.371,0,0,1,.371.371v1.779a4.521,4.521,0,0,1,3.75,4.053.374.374,0,0,1-.376.395H73.081a.357.357,0,0,1-.36-.281A1.743,1.743,0,0,0,71,84.394H69.828a1.811,1.811,0,0,0-1.815,1.445,1.742,1.742,0,0,0,1.716,2.034H71a4.523,4.523,0,0,1,4.5,4.969,4.587,4.587,0,0,1-3.745,3.966v1.812a.37.37,0,0,1-.371.37H69.347a.37.37,0,0,1-.37-.37V96.839a4.521,4.521,0,0,1-3.75-4.053" transform="translate(-20.16 -26.872)" fill="#14a0de"/>
      </g>
    </g>
  </g>
</svg>
