<svg xmlns="http://www.w3.org/2000/svg" width="243.966" height="187" viewBox="0 0 243.966 187">
  <g id="img37" transform="translate(-314.975 -13172)">
    <rect id="Rectangle_458866" data-name="Rectangle 458866" width="243.966" height="187" rx="10" transform="translate(314.975 13172)" fill="#f9ce5d"/>
    <g id="_4737351_45223" data-name="4737351_45223" transform="translate(280.702 13146.14)">
      <path id="Path_1031057" data-name="Path 1031057" d="M409.886,375.282v-7.415h-5.929c-.1-.659-.237-1.307-.392-1.948l5.535-2.186-2.723-6.9-5.6,2.211a25.364,25.364,0,0,0-1.547-2.315l4.274-4.274-5.243-5.243-4.315,4.315q-.935-.683-1.933-1.281l2.344-5.644-6.848-2.843-2.354,5.67c-.755-.185-1.522-.339-2.3-.454v-6.145h-7.415v6.145c-.634.094-1.259.216-1.877.356l-2.256-5.714-6.9,2.723,2.246,5.689a25.181,25.181,0,0,0-2.31,1.5l-4.315-4.315-5.243,5.243,4.274,4.274q-.7.936-1.321,1.939l-5.563-2.31-2.843,6.848,5.494,2.282q-.3,1.166-.494,2.375H348.4v7.415h5.857q.139,1.009.356,1.99l-5.426,2.142,2.723,6.9,5.362-2.117a25.236,25.236,0,0,0,1.571,2.435l-4.06,4.06,5.243,5.243,4.02-4.02q.991.747,2.056,1.4l-2.173,5.233,6.848,2.843,2.161-5.206a25.17,25.17,0,0,0,2.5.5v5.635h7.415V396.68c.7-.1,1.384-.24,2.061-.4l2.072,5.248,6.9-2.723-2.082-5.274a25.206,25.206,0,0,0,2.441-1.619l4.02,4.02,5.243-5.243-4.06-4.06q.724-.99,1.35-2.052l5.32,2.209,2.843-6.849-5.384-2.236q.285-1.19.455-2.421h5.857ZM379.145,386.1a14.521,14.521,0,1,1,14.521-14.521A14.521,14.521,0,0,1,379.145,386.1Z" transform="translate(-298.54 -292.911)" fill="#8fd7f4" opacity="0.6"/>
      <path id="Path_1031058" data-name="Path 1031058" d="M1772.76,787.673v-6.578h-2.593a23.132,23.132,0,0,0-.471-2.4l2.4-.983-2.5-6.086-2.408.988a23.362,23.362,0,0,0-1.435-2.154l1.841-1.841-4.652-4.652-1.844,1.844a23.289,23.289,0,0,0-2.027-1.357l1.006-2.407-6.07-2.537L1753,761.915a23.193,23.193,0,0,0-2.536-.5V758.8h-6.579v2.614a23.16,23.16,0,0,0-2.392.467l-.991-2.414-6.086,2.5.992,2.415a23.205,23.205,0,0,0-2.154,1.43l-1.844-1.844-4.652,4.652,1.841,1.841a23.07,23.07,0,0,0-1.362,2.026l-2.4-1-2.537,6.07,2.39,1a23.146,23.146,0,0,0-.507,2.543h-2.593v6.578h2.587a23.179,23.179,0,0,0,.466,2.4l-2.386.98,2.5,6.086,2.384-.978a23.35,23.35,0,0,0,1.437,2.166l-1.819,1.819,4.652,4.652,1.816-1.816a23.39,23.39,0,0,0,2.038,1.369l-.99,2.367,6.07,2.537.988-2.361a23.213,23.213,0,0,0,2.554.506v2.566h6.579V807.4a23.181,23.181,0,0,0,2.411-.471l.972,2.369,6.086-2.5-.975-2.376a23.354,23.354,0,0,0,2.166-1.442l1.816,1.816,4.652-4.652-1.82-1.819a23.266,23.266,0,0,0,1.363-2.038l2.376.993,2.537-6.07-2.376-.993a23.339,23.339,0,0,0,.5-2.548h2.587Zm-25.584,11.014a14.279,14.279,0,1,1,14.279-14.279A14.279,14.279,0,0,1,1747.176,798.687Z" transform="translate(-1507.673 -660.943)" fill="#8fd7f4" opacity="0.6"/>
      <path id="Path_1031059" data-name="Path 1031059" d="M1599.854,321.45v-5.658h-2.23a20.074,20.074,0,0,0-.405-2.063l2.061-.846-2.148-5.234-2.07.85a19.947,19.947,0,0,0-1.234-1.852l1.583-1.583-4-4-1.585,1.585a19.973,19.973,0,0,0-1.743-1.167l.865-2.07-5.22-2.182-.864,2.069a19.84,19.84,0,0,0-2.181-.43V296.62h-5.657v2.249a19.812,19.812,0,0,0-2.057.4l-.852-2.076-5.234,2.148.853,2.078a19.86,19.86,0,0,0-1.853,1.229l-1.585-1.585-4,4,1.583,1.583a20.066,20.066,0,0,0-1.17,1.742l-2.064-.863-2.181,5.22,2.055.859a19.975,19.975,0,0,0-.436,2.186h-2.23v5.658h2.225a19.746,19.746,0,0,0,.4,2.067l-2.052.842,2.148,5.234,2.05-.842a19.94,19.94,0,0,0,1.235,1.863l-1.564,1.564,4,4,1.562-1.562a20.11,20.11,0,0,0,1.752,1.177l-.851,2.036,5.22,2.182.849-2.031a19.9,19.9,0,0,0,2.2.435v2.206h5.657v-2.206a19.93,19.93,0,0,0,2.073-.405l.836,2.037,5.234-2.148-.839-2.043a20.119,20.119,0,0,0,1.862-1.24l1.562,1.562,4-4-1.564-1.564a20.1,20.1,0,0,0,1.173-1.753l2.043.854,2.181-5.22-2.044-.854a19.784,19.784,0,0,0,.43-2.191h2.225Zm-22,9.471a12.279,12.279,0,1,1,12.279-12.278A12.278,12.278,0,0,1,1577.854,330.92Z" transform="translate(-1361.735 -253.979)" fill="#989ecc" opacity="0.6"/>
      <g id="Group_1184262" data-name="Group 1184262" transform="translate(47.424 41.477)">
        <g id="Group_1184216" data-name="Group 1184216" transform="translate(57.388)">
          <rect id="Rectangle_459285" data-name="Rectangle 459285" width="107.448" height="141.811" fill="#fff"/>
          <rect id="Rectangle_459286" data-name="Rectangle 459286" width="90.566" height="6.776" transform="translate(8.734 10.164)" fill="#976ea2"/>
          <rect id="Rectangle_459287" data-name="Rectangle 459287" width="62.656" height="4.356" transform="translate(8.734 19.844)" fill="#4965a2"/>
          <rect id="Rectangle_459288" data-name="Rectangle 459288" width="57.16" height="4.356" transform="translate(42.139 85.667)" fill="#4965a2"/>
          <rect id="Rectangle_459289" data-name="Rectangle 459289" width="56.945" height="4.356" transform="translate(42.355 93.628)" fill="#c2c4c6"/>
          <rect id="Rectangle_459290" data-name="Rectangle 459290" width="51.137" height="4.356" transform="translate(8.634 75.88)" fill="#c2c4c6"/>
          <rect id="Rectangle_459291" data-name="Rectangle 459291" width="47.91" height="4.356" transform="translate(8.634 69.265)" fill="#c2c4c6"/>
          <rect id="Rectangle_459292" data-name="Rectangle 459292" width="39.52" height="4.356" transform="translate(8.85 62.381)" fill="#c2c4c6"/>
          <rect id="Rectangle_459293" data-name="Rectangle 459293" width="57.16" height="4.356" transform="translate(42.139 101.264)" fill="#c2c4c6"/>
          <rect id="Rectangle_459294" data-name="Rectangle 459294" width="55.886" height="4.356" transform="translate(8.734 109.547)" fill="#c2c4c6"/>
          <rect id="Rectangle_459295" data-name="Rectangle 459295" width="55.886" height="4.356" transform="translate(8.734 117.291)" fill="#c2c4c6"/>
          <rect id="Rectangle_459296" data-name="Rectangle 459296" width="55.886" height="4.356" transform="translate(8.734 125.465)" fill="#c2c4c6"/>
          <rect id="Rectangle_459297" data-name="Rectangle 459297" width="90.566" height="3.872" transform="translate(8.734 29.04)" fill="#c2c4c6"/>
          <rect id="Rectangle_459298" data-name="Rectangle 459298" width="25.388" height="21.296" transform="translate(8.734 85.184)" fill="#916ea2" opacity="0.7"/>
          <path id="Path_1031060" data-name="Path 1031060" d="M966.97,646.464,982.137,634.1l17.855-3.872" transform="translate(-948.018 -589.203)" fill="none" stroke="#4965a2" stroke-miterlimit="10" stroke-width="4.755"/>
          <rect id="Rectangle_459299" data-name="Rectangle 459299" width="5.808" height="5.809" transform="translate(16.048 54.357)" fill="#e27ca3"/>
          <rect id="Rectangle_459300" data-name="Rectangle 459300" width="5.808" height="5.808" transform="translate(48.961 38.438)" fill="#e27ca3"/>
          <rect id="Rectangle_459301" data-name="Rectangle 459301" width="5.808" height="5.808" transform="translate(31.214 41.988)" fill="#e27ca3"/>
          <g id="Group_1184213" data-name="Group 1184213" transform="translate(59.613 40.324)">
            <path id="Path_1031061" data-name="Path 1031061" d="M1325.064,624.4c-.123,0-.246,0-.37,0a17.377,17.377,0,0,0-17.374,17.008h17.744Z" transform="translate(-1307.321 -624.396)" fill="#4865a2" opacity="0.7"/>
            <path id="Path_1031062" data-name="Path 1031062" d="M1328.953,794.617q-.005.185-.005.37a17.378,17.378,0,0,0,34.756,0c0-.124,0-.247,0-.37Z" transform="translate(-1326.364 -774.281)" fill="#916ea2" opacity="0.7"/>
            <path id="Path_1031063" data-name="Path 1031063" d="M1491.741,794.617h-17.379v17.748h.005a17.378,17.378,0,0,0,17.378-17.378C1491.746,794.863,1491.745,794.74,1491.741,794.617Z" transform="translate(-1454.406 -774.281)" fill="#4965a2"/>
            <path id="Path_1031064" data-name="Path 1031064" d="M1492.473,669.382c-.192-9.18-8.147-16.61-17.28-16.992v16.992Z" transform="translate(-1455.137 -649.046)" fill="#e76c63"/>
          </g>
          <g id="Group_1184215" data-name="Group 1184215" transform="translate(68.091 109.566)">
            <g id="Group_1184214" data-name="Group 1184214">
              <rect id="Rectangle_459302" data-name="Rectangle 459302" width="6.099" height="20.428" transform="translate(25.11)" fill="#916ea2" opacity="0.7"/>
              <rect id="Rectangle_459303" data-name="Rectangle 459303" width="6.099" height="15.636" transform="translate(16.836 4.792)" fill="#4865a2" opacity="0.7"/>
              <rect id="Rectangle_459304" data-name="Rectangle 459304" width="6.099" height="6.378" transform="translate(0 14.05)" fill="#4865a2" opacity="0.7"/>
              <rect id="Rectangle_459305" data-name="Rectangle 459305" width="6.099" height="11.171" transform="translate(8.132 9.258)" fill="#976ea2" opacity="0.7"/>
            </g>
          </g>
        </g>
        <g id="Group_1184232" data-name="Group 1184232" transform="translate(0 24.268)">
          <path id="Path_1031065" data-name="Path 1031065" d="M349.033,743.789a4.2,4.2,0,0,0-.231.7c-.347,1.511.228,3.756.483,5.283.405,1.923-2.7,3.486-3.976,4.456a5.71,5.71,0,0,0-2.207,5.333,6.275,6.275,0,0,0,3.338,4.981c1.2.53,2.54.147,3.579,1.1,1.081.986,1.14,3.194,3.165,2.184,1.34-.668,2.291-2.918,3.072-4.12,1.254-1.926,1.528-4.329,2.839-6.212,1.419-2.038,3.369-2.152,2.233-5.1-.561-1.454.272-2.753.629-4.157a6.651,6.651,0,0,0-.66-4.616c-.4-.83-.249-1.682-.724-2.5a5.712,5.712,0,0,0-1.851-2.239,5.771,5.771,0,0,0-6.5.875A14.3,14.3,0,0,0,349.033,743.789Z" transform="translate(-341.271 -708.581)" fill="#e76c63"/>
          <g id="Group_1184219" data-name="Group 1184219" transform="translate(27.806 45.637)">
            <g id="Group_1184218" data-name="Group 1184218">
              <g id="Group_1184217" data-name="Group 1184217">
                <path id="Path_1031066" data-name="Path 1031066" d="M561.97,877.194c-.411-.323-1.468-1.462-1.2-2.188.223-.608.538-.669.537-.669,1.691-.636,3.406-1.21,5.143-1.706.549-.157,1.812-.755,2.365-.615.7.176,1.107,1.246,1.427,1.8-.476-.035-1.154.535-1.588.763-.61.32-1.225.627-1.852.91A31.312,31.312,0,0,1,561.97,877.194Z" transform="translate(-560.726 -871.996)" fill="#eab1b8"/>
              </g>
            </g>
          </g>
          <g id="Group_1184221" data-name="Group 1184221" transform="translate(15.095 45.61)">
            <g id="Group_1184220" data-name="Group 1184220">
              <path id="Path_1031067" data-name="Path 1031067" d="M467.172,873.755c-1.722-.353-3.988-.5-4.65-.7-3.862-1.138-7.563-2.06-8.123-.3-.635,2,3.38,3.856,6.747,4.684,2.927.719,5.037.587,8.2.738A7.533,7.533,0,0,0,467.172,873.755Z" transform="translate(-454.331 -871.773)" fill="#9cd4f0"/>
            </g>
          </g>
          <g id="Group_1184223" data-name="Group 1184223" transform="translate(12.432 36.007)">
            <g id="Group_1184222" data-name="Group 1184222">
              <path id="Path_1031068" data-name="Path 1031068" d="M432.059,792.818c.129.646,1.064,1.509,1.3.956a3.374,3.374,0,0,0,.142-1.728c-.129-.646-.021-.729-.61-.611A1.144,1.144,0,0,0,432.059,792.818Z" transform="translate(-432.033 -791.39)" fill="#eab1b8"/>
            </g>
          </g>
          <path id="Path_1031069" data-name="Path 1031069" d="M438.872,818.531c.1-1.3,3.919,1.119,3.919,1.119l-.408,4.97s-.04-.2-1.918-.155c-1.144.027-2.116-.028-2.058-1.1C438.441,822.706,438.838,818.981,438.872,818.531Z" transform="translate(-425.211 -778.943)" fill="#eab1b8"/>
          <path id="Path_1031070" data-name="Path 1031070" d="M441.438,819.788a3.826,3.826,0,0,0,3.716,2.875l.26-3.013s-3.819-2.421-3.919-1.119c-.01.138-.055.584-.113,1.153A.291.291,0,0,1,441.438,819.788Z" transform="translate(-427.834 -778.943)" fill="#e5958a"/>
          <path id="Path_1031071" data-name="Path 1031071" d="M443.987,767.823A3.515,3.515,0,0,1,440,766.532a3.621,3.621,0,0,1-.528-2.193c.06-.883.318-1.67.387-2.557a5.487,5.487,0,0,1,.177-1.136,3.187,3.187,0,0,1,1.011-1.533,4.784,4.784,0,0,1,1.669-.7,4.381,4.381,0,0,1,1.563-.339c.36.022.544.284.788.53,1.324,1.335,1.582,3.72,1.205,5.492C446,765.421,445.284,767.207,443.987,767.823Z" transform="translate(-426.146 -726.049)" fill="#eab1b8"/>
          <path id="Path_1031072" data-name="Path 1031072" d="M394.239,1073.678a16.035,16.035,0,0,1-1.4,5.527c-2.81,7.36-4.847,14.34-6.037,16.344-1.3,2.191-5.14-1.746-5.14-1.746s5.3-21.94,6.516-23.35S394.335,1071.687,394.239,1073.678Z" transform="translate(-375.247 -1000.757)" fill="#eab1b8"/>
          <path id="Path_1031073" data-name="Path 1031073" d="M391.865,1074.558a16.034,16.034,0,0,1-1.4,5.527c-2.81,7.36-4.847,14.34-6.037,16.343-1.3,2.191-5.462-.855-5.462-.855s4.7-22.7,5.921-24.107S391.96,1072.567,391.865,1074.558Z" transform="translate(-372.873 -1001.637)" fill="#3f578e"/>
          <path id="Path_1031074" data-name="Path 1031074" d="M345.194,1281.7s-.971,3.151-8.579,12.532c-1.018,1.254-1.424-.56-1.424-.56s5.93-14,6.941-15.344S345.194,1281.7,345.194,1281.7Z" transform="translate(-334.329 -1183.937)" fill="#eab1b8"/>
          <path id="Path_1031075" data-name="Path 1031075" d="M351.972,1282.977a38.676,38.676,0,0,0,3.619-11.121s-4.582-2-5.593-.658c-.51.68-2.354,4.718-4.08,8.62C347.261,1280.485,351.958,1282.971,351.972,1282.977Z" transform="translate(-343.775 -1177.459)" fill="#3f578e"/>
          <path id="Path_1031076" data-name="Path 1031076" d="M435.315,1084.276a16.06,16.06,0,0,1,2.185,5.267,111.467,111.467,0,0,1,3.485,15.711c.268,2.534-3.7,2.671-3.7,2.671s-8.888-20.746-8.754-22.606S434.2,1082.624,435.315,1084.276Z" transform="translate(-416.514 -1012.498)" fill="#eab1b8"/>
          <path id="Path_1031077" data-name="Path 1031077" d="M500.522,1304.264s.544,3.368-2.393,15.085c-.393,1.567-1.62-.009-1.62-.009s-.5-13.077-.155-14.724S500.522,1304.264,500.522,1304.264Z" transform="translate(-476.131 -1206.558)" fill="#eab1b8"/>
          <path id="Path_1031078" data-name="Path 1031078" d="M489.246,1288.679a51.42,51.42,0,0,0-.494-14.609s-4.39.13-4.738,1.777a104.455,104.455,0,0,0-1.777,12.832Z" transform="translate(-463.808 -1180.398)" fill="#4865a2"/>
          <path id="Path_1031079" data-name="Path 1031079" d="M416.085,1051.193a89.331,89.331,0,0,0-2.268-9.58,87.26,87.26,0,0,0-3.418-10.13c-.377-.878.121-4.608-.453-4.989-1.336-.886-4.754.2-6.576.555a3.075,3.075,0,0,0-1.086.543c-.612.386-1.421,2.465-1.629,3.158a7.59,7.59,0,0,0,.864,5.84c.8,1.283,1.563,2.594,2.3,3.916.635,1.136,1.42,2.149,2.072,3.29a58.661,58.661,0,0,1,3.459,8.05c.359.926,2.638,5.316,2.648,5.958.056,3.4,3.093-1.43,4.135-1.734.6-.176.566-.287.529-.934-.028-.494-.1-.985-.173-1.473Q416.307,1052.425,416.085,1051.193Z" transform="translate(-391.75 -962.1)" fill="#4865a2"/>
          <path id="Path_1031080" data-name="Path 1031080" d="M421.59,874.932c.294-5.881,1.438-14.533.7-15.37-1.3-1.473-1.366-4.69-2.31-5.87-1.412-1.765-2.632-2.594-4.4-.039-.6.866-1.337,6.058-1.479,6.707-.313,1.437-.431,8.6-.786,14.366Z" transform="translate(-403.12 -808.785)" fill="#eab1b8"/>
          <path id="Path_1031081" data-name="Path 1031081" d="M420.807,879.11c.3-4.307.595-7.869.969-10.415.113-.771.348-1.518.476-2.278a4.634,4.634,0,0,0-.5-2.305c-.288-.647-.59-1.294-.865-1.948s-.48-1.309-.691-1.974c-.065-.207-.415-1.712-.622-1.73-.023,0-.81-.069-1.121-.136a5.2,5.2,0,0,1-1.57-.63c-.134-.079-1.2-.947-1.23-.912a12.13,12.13,0,0,0-2.977,6.736c-.1.837.05,13.631-.251,15.43Z" transform="translate(-402.336 -812.963)" fill="#cfe5f3"/>
          <path id="Path_1031082" data-name="Path 1031082" d="M405.632,871.244a24.007,24.007,0,0,0-.774-7.781,26.646,26.646,0,0,0-2.84-6.1,6.744,6.744,0,0,0-.792-.58,12.129,12.129,0,0,0-2.977,6.736c-.1.837-1.908,16.247-2.208,18.046l8.225,1.579C404.707,880.413,405.55,873.987,405.632,871.244Z" transform="translate(-387.909 -812.958)" fill="#9cd4f0"/>
          <g id="Group_1184226" data-name="Group 1184226" transform="translate(15.755 55.944)">
            <g id="Group_1184225" data-name="Group 1184225">
              <g id="Group_1184224" data-name="Group 1184224">
                <path id="Path_1031083" data-name="Path 1031083" d="M461.349,965.038c-.45-.266-1.649-1.255-1.48-2.01.141-.632.445-.734.445-.734a59.508,59.508,0,0,1,8.6-3.825c2.457-.84,1.19,1.29,1.19,1.29A36.651,36.651,0,0,1,461.349,965.038Z" transform="translate(-459.853 -958.273)" fill="#eab1b8"/>
              </g>
            </g>
          </g>
          <g id="Group_1184229" data-name="Group 1184229" transform="translate(11.319 47.435)">
            <g id="Group_1184228" data-name="Group 1184228">
              <g id="Group_1184227" data-name="Group 1184227">
                <path id="Path_1031084" data-name="Path 1031084" d="M428.921,902.207c-.158.16-2.107,1.021-2.465.223a74.088,74.088,0,0,1-2.981-7.752c-1.1-3.287-1.168-7.3.9-7.62,1.828-.285,2.492,4.7,3.2,8.661.15.843.652,1.824,1.263,4.537C428.837,900.255,429.239,901.691,428.921,902.207Z" transform="translate(-422.717 -887.045)" fill="#eab1b8"/>
              </g>
            </g>
          </g>
          <g id="Group_1184231" data-name="Group 1184231" transform="translate(11.144 47.332)">
            <g id="Group_1184230" data-name="Group 1184230">
              <path id="Path_1031085" data-name="Path 1031085" d="M427.752,898.077c-.452-1.7-1.327-3.794-1.448-4.475-.7-3.964-1.528-7.687-3.356-7.4-2.071.322-1.945,4.745-1.185,8.127.661,2.941,1.72,4.771,2.994,7.666A7.534,7.534,0,0,0,427.752,898.077Z" transform="translate(-421.256 -886.184)" fill="#d2e6f3"/>
            </g>
          </g>
          <path id="Path_1031086" data-name="Path 1031086" d="M436.168,739.962a5.008,5.008,0,0,1,.614.58,3.945,3.945,0,0,1,1.159,1.653,7.3,7.3,0,0,1,.23,1.385,2.269,2.269,0,0,1-.883,2.073,3.577,3.577,0,0,1-1.681.659,2.194,2.194,0,0,0-.98.333c-.189.147-.217.414-.4.549-.611.461-.609-.523-.666-.838q.045.248-.106-.372a6.634,6.634,0,0,0-.739-2.431,2.713,2.713,0,0,1-.159-2.678c.546-.822,2.072-1.073,2.973-1.08A1.08,1.08,0,0,1,436.168,739.962Z" transform="translate(-419.814 -709.952)" fill="#e76c63"/>
          <path id="Path_1031087" data-name="Path 1031087" d="M501.375,1430.4c-.463-.068-.607,0-1.072-.08a4.72,4.72,0,0,1-1.323-.442,9.221,9.221,0,0,1-1.36-.9,1.156,1.156,0,0,0-.134-.093,1.705,1.705,0,0,1-1.657-.014.242.242,0,0,1-.129-.111.315.315,0,0,0-.053.053,1.035,1.035,0,0,0-.152.494,11.118,11.118,0,0,0-.129,1.908c.09.432,2.444.948,3.216,1a11.862,11.862,0,0,0,2.86-.058C502.443,1431.995,502.159,1430.518,501.375,1430.4Z" transform="translate(-475.354 -1316.61)" fill="#374d7e"/>
          <path id="Path_1031088" data-name="Path 1031088" d="M333.9,1403.464c-.411-.225-.568-.215-.977-.448a4.712,4.712,0,0,1-1.087-.874,9.1,9.1,0,0,1-.962-1.318,1.048,1.048,0,0,0-.094-.133,1.7,1.7,0,0,1-1.549-.59.242.242,0,0,1-.082-.149.275.275,0,0,0-.068.032,1.043,1.043,0,0,0-.315.41,11.1,11.1,0,0,0-.784,1.744c-.066.437,1.961,1.738,2.669,2.052a11.858,11.858,0,0,0,2.7.94C334.346,1405.328,334.592,1403.845,333.9,1403.464Z" transform="translate(-327.977 -1291.242)" fill="#374d7e"/>
          <path id="Path_1031089" data-name="Path 1031089" d="M465.945,744.692a8.057,8.057,0,0,0-1.079-3.133,4.889,4.889,0,0,0-1.842-1.7,3.118,3.118,0,0,0-1.409-.357c-.531,1.048.464,2.526.933,3.479.319.646.872.809,1.34,1.265a10.544,10.544,0,0,1,.906,1.175,6.52,6.52,0,0,1,.933,1.212C466.156,746.433,466.008,745.058,465.945,744.692Z" transform="translate(-445.516 -709.684)" fill="#e76c63"/>
          <path id="Path_1031090" data-name="Path 1031090" d="M623.832,866.56a1.624,1.624,0,0,0-1.529-1.473c-.719.011-.924.791-1.04,1.362a1.411,1.411,0,0,0,.9,1.9C623.525,869.011,624.067,867.71,623.832,866.56Z" transform="translate(-586.158 -820.276)" fill="#eab1b8"/>
          <path id="Path_1031091" data-name="Path 1031091" d="M477.029,507.776l16.137-4.262c-.021-.093-.047-.2-.056-.236a5.145,5.145,0,0,0-1.473-1.961,6.275,6.275,0,0,1,2-11.113v0l.032-.007.032-.009v0a6.275,6.275,0,0,1,7.228,8.675,5.126,5.126,0,0,0-.313,2.432c.01.037.04.142.068.234l16.138-4.262,4.262,16.137c.093-.021.2-.047.236-.057a5.137,5.137,0,0,0,1.961-1.473,6.275,6.275,0,0,1,11.113,2h0c0,.01,0,.021.008.032s.006.021.009.031h0a6.275,6.275,0,0,1-8.675,7.228,5.138,5.138,0,0,0-2.433-.313c-.037.01-.141.04-.233.068l4.262,16.138-39.794,10.51Z" transform="translate(-459.222 -490.002)" fill="#e76c63"/>
          <path id="Path_1031092" data-name="Path 1031092" d="M546.233,956.586c-1.145.2-1.883.3-1.883.3l-.812-.5s.217-.285,1.188-.411c.378-.049,1.369-.222,1.185-.547s-1.817-.033-2.747-.13a2.652,2.652,0,0,0-1.1.183h0l-2.936.248.337,1.355,4.566.874,2.86-.964S547.378,956.382,546.233,956.586Z" transform="translate(-513.902 -899.681)" fill="#eab1b8"/>
        </g>
        <g id="Group_1184261" data-name="Group 1184261" transform="translate(146.724 43.447)">
          <g id="Group_1184235" data-name="Group 1184235" transform="translate(16.441 29.499)">
            <g id="Group_1184234" data-name="Group 1184234">
              <g id="Group_1184233" data-name="Group 1184233">
                <path id="Path_1031093" data-name="Path 1031093" d="M1693.72,905.68c3.606-4.383,4.8-4.141,7.116-5.828,3.4-2.472,9.06-3.495,8.746-.8-.154,1.321-12.445,7.7-14.517,9.093C1694.467,907.6,1694.329,906.442,1693.72,905.68Z" transform="translate(-1693.72 -897.455)" fill="#eab1b8"/>
              </g>
            </g>
          </g>
          <g id="Group_1184237" data-name="Group 1184237" transform="translate(16.073 28.453)">
            <g id="Group_1184236" data-name="Group 1184236">
              <path id="Path_1031094" data-name="Path 1031094" d="M1692.254,901.218c1.773-1.124,9-5.573,9.718-5.944,4.193-2.162,6.1-3.008,5.5-5.325-.683-2.625-5.637-.587-9.208,1.435a36.989,36.989,0,0,0-7.211,5.28C1690.214,897.861,1690.661,901.2,1692.254,901.218Z" transform="translate(-1690.638 -888.704)" fill="#f0928b"/>
            </g>
          </g>
          <path id="Path_1031095" data-name="Path 1031095" d="M1825.482,769.764a3.975,3.975,0,0,1,2.451.46,4.688,4.688,0,0,0,.99.4c1.3.347,1.589,2.287,1.487,3.405a9.824,9.824,0,0,1-.476,1.809c-.453,1.543-1.712,3.106-3.468,3.028a4.161,4.161,0,0,1-2.961-1.542C1821.776,775.132,1822.237,770.3,1825.482,769.764Z" transform="translate(-1790.687 -755.482)" fill="#4865a2"/>
          <g id="Group_1184240" data-name="Group 1184240" transform="translate(9.429 30.295)">
            <g id="Group_1184239" data-name="Group 1184239">
              <g id="Group_1184238" data-name="Group 1184238">
                <path id="Path_1031096" data-name="Path 1031096" d="M1642.957,913.563c.546-.16,2.072-.881,2.1-1.721.021-.7-.272-.893-.272-.892a64.71,64.71,0,0,0-8.035-6.334c-2.364-1.543-1.6,1.04-1.6,1.04A39.862,39.862,0,0,0,1642.957,913.563Z" transform="translate(-1635.03 -904.125)" fill="#eab1b8"/>
              </g>
            </g>
          </g>
          <path id="Path_1031097" data-name="Path 1031097" d="M1619.551,884.817c.349.764.646,1.56.458,1.75l-.038.038-.158-.132s.111.175-.061-.052l-.048-.04a.573.573,0,0,1-.147.643c-.656.569-1.514-.361-1.975-.773a6.844,6.844,0,0,1-.979-1.149c-.341-.477-.37-1.664.259-1.95.645-.294.725.763,1.247.528.288-.131.2-1.134.686-.386C1618.879,883.465,1619.236,884.129,1619.551,884.817Z" transform="translate(-1609.165 -855.245)" fill="#eab1b8"/>
          <g id="Group_1184242" data-name="Group 1184242" transform="translate(10.108 31.087)">
            <g id="Group_1184241" data-name="Group 1184241">
              <path id="Path_1031098" data-name="Path 1031098" d="M1642.279,910.754a63.807,63.807,0,0,1,7.913,5.875c.147,1.03-.114.347-.134,1.051a5.285,5.285,0,0,1-2.016,2.919c-3.69-2.755-5.532-6.025-7.329-8.221Z" transform="translate(-1640.712 -910.754)" fill="#f0928b"/>
            </g>
          </g>
          <g id="Group_1184244" data-name="Group 1184244" transform="translate(10.108 31.087)">
            <g id="Group_1184243" data-name="Group 1184243">
              <path id="Path_1031099" data-name="Path 1031099" d="M1641.419,913.287c-.24-.319-.474-.624-.708-.91l1.567-1.623c.319.214.648.44.986.676Z" transform="translate(-1640.71 -910.754)" fill="#fff"/>
            </g>
          </g>
          <path id="Path_1031100" data-name="Path 1031100" d="M1920.8,1151.37v3.686h-.751v-2.8h-4.725v2.8h-.751v-3.686Z" transform="translate(-1871.745 -1091.536)" fill="#f7d48d"/>
          <path id="Path_1031101" data-name="Path 1031101" d="M1791.828,1322.414s1.548,3.956-1.643,16.69c-.255,1.02-1.05.955-1.474.626a.883.883,0,0,1-.286-.636s-1.5-14.508-1.125-16.3S1791.828,1322.414,1791.828,1322.414Z" transform="translate(-1759.625 -1241.683)" fill="#eab1b8"/>
          <path id="Path_1031102" data-name="Path 1031102" d="M1785.125,1081.15h7.395c0,.033,0,.065,0,.1q-.009,2.123-.035,4.246c-.048,3.58.032,2.659-.176,6.234-.177,3.04-2.4,16.856-2.718,17.593s-.17,2.106-.813,2.672c-1.024.9-3.026,1.376-3.886.252-.58-.758-.318-4.649-.424-5.616-.089-.822-.086-1.663-.124-2.431-.151-3.086.058-6.18.071-9.267A102.8,102.8,0,0,1,1785.125,1081.15Z" transform="translate(-1757.027 -1029.706)" fill="#3a507b"/>
          <path id="Path_1031103" data-name="Path 1031103" d="M1755.387,1463.787c.5-.073.66,0,1.165-.087a5.153,5.153,0,0,0,1.438-.479,9.985,9.985,0,0,0,1.478-.98,1.362,1.362,0,0,1,.146-.1,1.854,1.854,0,0,0,1.8-.015.27.27,0,0,0,.14-.121.325.325,0,0,1,.057.058,1.12,1.12,0,0,1,.165.538,12.088,12.088,0,0,1,.141,2.073c-.1.47-2.656,1.03-3.5,1.082a12.858,12.858,0,0,1-3.109-.063C1754.226,1465.517,1754.536,1463.913,1755.387,1463.787Z" transform="translate(-1730.9 -1365.06)" fill="#374d7e"/>
          <g id="Group_1184246" data-name="Group 1184246" transform="translate(36.406 19.559)">
            <g id="Group_1184245" data-name="Group 1184245">
              <path id="Path_1031104" data-name="Path 1031104" d="M1862.48,816.07c-.3.651-1.506,1.327-1.616.684a3.676,3.676,0,0,1,.285-1.863c.3-.651.206-.766.8-.493A1.244,1.244,0,0,1,1862.48,816.07Z" transform="translate(-1860.838 -814.261)" fill="#eab1b8"/>
            </g>
          </g>
          <path id="Path_1031105" data-name="Path 1031105" d="M1829.853,836.732c-.109-1.416-4.259,1.216-4.259,1.216l.444,5.4s.043-.217,2.084-.169c1.244.029,2.018.421,1.956-.741C1830.04,841.721,1829.89,837.222,1829.853,836.732Z" transform="translate(-1793.398 -814.12)" fill="#eab1b8"/>
          <path id="Path_1031106" data-name="Path 1031106" d="M1829.915,838.1a4.156,4.156,0,0,1-4.038,3.124l-.282-3.274s4.15-2.632,4.259-1.216c.011.15-.015-.293.048.326C1829.874,837.089,1829.928,838.053,1829.915,838.1Z" transform="translate(-1793.398 -814.12)" fill="#e5958a"/>
          <path id="Path_1031107" data-name="Path 1031107" d="M1806.845,779.9a3.821,3.821,0,0,0,4.538-.362,3.938,3.938,0,0,0,1.111-2.186c.158-.949.083-1.846.235-2.8a6,6,0,0,0,.1-1.246,3.468,3.468,0,0,0-.684-1.875,5.2,5.2,0,0,0-1.589-1.156,4.787,4.787,0,0,0-1.567-.752c-.386-.067-.647.163-.966.362-1.736,1.079-2.61,3.535-2.658,5.5C1805.327,776.853,1805.629,778.92,1806.845,779.9Z" transform="translate(-1775.582 -755.297)" fill="#eab1b8"/>
          <path id="Path_1031108" data-name="Path 1031108" d="M1812,812.181a20.849,20.849,0,0,1-1.764,1.472,2.03,2.03,0,0,1-2.432.006,3.111,3.111,0,0,0-2.4-.515c.05,1.392.414,3.084,1.479,3.941a3.821,3.821,0,0,0,4.538-.362,3.937,3.937,0,0,0,1.11-2.186c.158-.947.084-1.843.235-2.8A2.827,2.827,0,0,0,1812,812.181Z" transform="translate(-1775.626 -792.484)" fill="#4865a2"/>
          <path id="Path_1031109" data-name="Path 1031109" d="M1867.564,1317.486s-1.548,3.956,1.643,16.69c.255,1.019,1.05.955,1.474.627a.885.885,0,0,0,.286-.636s.767-14.77.388-16.56S1867.564,1317.486,1867.564,1317.486Z" transform="translate(-1830.024 -1237.184)" fill="#eab1b8"/>
          <path id="Path_1031110" data-name="Path 1031110" d="M1849.966,1081.15a3.5,3.5,0,0,1,.311.953,86.719,86.719,0,0,1,.644,12.4c.013,3.088-.326,12.64-.514,16.229-.074,1.412-3.215,2.413-4.239,1.514a4.873,4.873,0,0,1-1.42-1.8c-.318-.737-1.475-17.169-1.652-20.209-.208-3.575-.2-1.594-.246-5.173q-.027-1.957-.033-3.914Z" transform="translate(-1808.564 -1029.706)" fill="#3a507b"/>
          <path id="Path_1031111" data-name="Path 1031111" d="M1805,913.949c-.32-6.392-1.563-15.794-.757-16.7,1.418-1.6-.591-.4.435-1.679,1.535-1.918,6.306-3.92,8.224-1.144.65.941.084,2.984.237,3.69.34,1.562.469,9.344.854,15.612Z" transform="translate(-1774.363 -864.082)" fill="#eab1b8"/>
          <path id="Path_1031112" data-name="Path 1031112" d="M1784.448,881.929a7.491,7.491,0,0,1,1.16-.3c.486.439,1.079-.2,1.8-.227.754-.03,1.639.53,2.141.14a.637.637,0,0,0,.075-.072q.557.03,1.131.08a7.781,7.781,0,0,1,2.817.8c2.634,1.625,2.216,5.077,2.16,6.005-.147,2.468-.382,21.992.064,24.657h-16.015c-.271-.236.382-21.835.572-24.975C1780.611,883.852,1782.4,882.65,1784.448,881.929Z" transform="translate(-1753.005 -853.823)" fill="#f0928b"/>
          <g id="Group_1184249" data-name="Group 1184249" transform="translate(44.831 45.597)">
            <g id="Group_1184248" data-name="Group 1184248">
              <g id="Group_1184247" data-name="Group 1184247">
                <path id="Path_1031113" data-name="Path 1031113" d="M1934.5,1032.73c-.5-.275-2.086-.849-2.7-.275-.514.481-.441.822-.441.822a64.555,64.555,0,0,0,1.169,10.164c.571,2.764,1.865.4,1.865.4A39.862,39.862,0,0,0,1934.5,1032.73Z" transform="translate(-1931.359 -1032.209)" fill="#eab1b8"/>
              </g>
            </g>
          </g>
          <g id="Group_1184252" data-name="Group 1184252" transform="translate(38.123 28.613)">
            <g id="Group_1184251" data-name="Group 1184251">
              <g id="Group_1184250" data-name="Group 1184250">
                <path id="Path_1031114" data-name="Path 1031114" d="M1883.626,909.142c.253-.027,1.538-.514,1.431-1.593a31.479,31.479,0,0,0-2.993-11.46c-1.532-3.911-4.472-7.381-6.46-5.536-1.755,1.629,2.748,5.163,4.623,11.042a40.412,40.412,0,0,0,2.638,6.831A.929.929,0,0,0,1883.626,909.142Z" transform="translate(-1875.205 -890.044)" fill="#eab1b8"/>
              </g>
            </g>
          </g>
          <g id="Group_1184254" data-name="Group 1184254" transform="translate(37.805 28.418)">
            <g id="Group_1184253" data-name="Group 1184253">
              <path id="Path_1031115" data-name="Path 1031115" d="M1879.758,906.991c-.889-1.9-3.914-10.993-4.321-11.693-2.37-4.08-3.885-4.782-2.13-6.41,1.989-1.845,5.189,2.032,7.077,5.676,1.641,3.169,2.3,5.882,3.188,10.9C1883.635,906.926,1881.11,907.829,1879.758,906.991Z" transform="translate(-1872.545 -888.412)" fill="#f0928b"/>
            </g>
          </g>
          <path id="Path_1031116" data-name="Path 1031116" d="M1843,1465.108c.5-.073.66,0,1.165-.086a5.17,5.17,0,0,0,1.438-.479,9.971,9.971,0,0,0,1.478-.98,1.345,1.345,0,0,1,.147-.1,1.854,1.854,0,0,0,1.8-.015.272.272,0,0,0,.14-.121.342.342,0,0,1,.057.058,1.124,1.124,0,0,1,.166.537,12.127,12.127,0,0,1,.141,2.073c-.1.47-2.656,1.03-3.5,1.082a12.886,12.886,0,0,1-3.109-.063C1841.836,1466.838,1842.146,1465.233,1843,1465.108Z" transform="translate(-1808.044 -1366.223)" fill="#374d7e"/>
          <path id="Path_1031117" data-name="Path 1031117" d="M1788,1339.11c-.41-4.239-1.036-14.989-.757-16.308.378-1.79,4.529-.383,4.529-.383s1.852,3.965-1.437,16.6Z" transform="translate(-1759.568 -1241.687)" fill="#3a507b"/>
          <path id="Path_1031118" data-name="Path 1031118" d="M1860.683,1328.57c-2.643-11.41-2.765-17.976-2.765-17.976s5.872-2.169,5.719,1.144c-.064,1.393-.2,12.462-.47,16.889Z" transform="translate(-1821.861 -1231.124)" fill="#3a507b"/>
          <rect id="Rectangle_459306" data-name="Rectangle 459306" width="13.726" height="12.058" transform="translate(38.441 63.265)" fill="#4865a2"/>
          <rect id="Rectangle_459307" data-name="Rectangle 459307" width="13.727" height="12.058" transform="translate(39.203 63.265)" fill="#6379ad"/>
          <rect id="Rectangle_459308" data-name="Rectangle 459308" width="13.727" height="5.513" transform="translate(39.203 63.265)" fill="#778fc1"/>
          <path id="Path_1031119" data-name="Path 1031119" d="M1939.358,1126.491a2.829,2.829,0,0,1,.637-1.656h.054c.005.068.012.136.018.2,0,0,.045-.2.007.08,0,.021,0,.042.005.062a.574.574,0,0,1,.56-.348c.866.065.81,1.329.843,1.946a6.9,6.9,0,0,1-.126,1.5c-.1.565-.5.809-.955,1.143-.181.021-1.312.1-1.193-.363.021-.079.385-.217.456-.33.284-.456.093-.934.132-1.413-.154.25-.174.711-.49.831S1939.257,1126.913,1939.358,1126.491Z" transform="translate(-1893.398 -1068.169)" fill="#eab1b8"/>
          <path id="Path_1031120" data-name="Path 1031120" d="M1937.18,1223.621a.445.445,0,0,0,.445.445h1.4a.445.445,0,0,0,.445-.445h0a.445.445,0,0,0-.445-.445h-1.4a.444.444,0,0,0-.445.445Z" transform="translate(-1891.653 -1154.764)" fill="#f7d48d"/>
          <g id="Group_1184256" data-name="Group 1184256" transform="translate(44.701 45.118)">
            <g id="Group_1184255" data-name="Group 1184255">
              <path id="Path_1031121" data-name="Path 1031121" d="M1931.41,1039.319a68.141,68.141,0,0,1-1.144-9.882,7.225,7.225,0,0,0,.575-.517,5.287,5.287,0,0,1,3.492-.627c.646,4.559-.376,8.171-.667,10.994Z" transform="translate(-1930.266 -1028.195)" fill="#f0928b"/>
            </g>
          </g>
          <g id="Group_1184258" data-name="Group 1184258" transform="translate(45.629 55.067)">
            <g id="Group_1184257" data-name="Group 1184257">
              <path id="Path_1031122" data-name="Path 1031122" d="M1940.65,1111.47c-.058.394-.108.776-.146,1.144l-2.256.032c-.073-.377-.146-.77-.216-1.175Z" transform="translate(-1938.033 -1111.47)" fill="#fff"/>
            </g>
          </g>
          <path id="Path_1031123" data-name="Path 1031123" d="M1846.158,869.443l-2.065,1.43,1.557,2.383,2.351-2.192S1847.238,869.538,1846.158,869.443Z" transform="translate(-1809.687 -843.291)" fill="#fff"/>
          <path id="Path_1031124" data-name="Path 1031124" d="M1818.8,874.856l-1.08,2.383-2.351-1.684s.445-1.43,1.43-1.589Z" transform="translate(-1784.393 -847.274)" fill="#fff"/>
          <path id="Path_1031125" data-name="Path 1031125" d="M1804.4,757c.051-.688.465-.7,1.059-.607a16.555,16.555,0,0,0,1.741.285,8.969,8.969,0,0,0,1.872-.2,5.293,5.293,0,0,1,3.241.631c1.5.785,2.417,3.389,2.145,5.1-.09.565-.311.432-.742.809a2.452,2.452,0,0,1-.705.475,1.9,1.9,0,0,1-.752-.049c-.093-.129-.354.1-.434.214-.128.177-.206.525-.5.437-.266-.08-.359-.419-.386-.656-.058-.505.013-1.011,0-1.516-.037-1.039-.991-1.041-1.812-1.191a8.067,8.067,0,0,1-3.873-1.391A2.85,2.85,0,0,1,1804.4,757Z" transform="translate(-1774.729 -743.714)" fill="#4865a2"/>
          <g id="Group_1184260" data-name="Group 1184260">
            <g id="Group_1184259" data-name="Group 1184259" transform="translate(1.246 3.736)">
              <rect id="Rectangle_459309" data-name="Rectangle 459309" width="40.781" height="3.204" transform="matrix(0.575, -0.818, 0.818, 0.575, 0, 33.371)" fill="#ffd686"/>
              <rect id="Rectangle_459310" data-name="Rectangle 459310" width="40.781" height="0.554" transform="matrix(0.575, -0.818, 0.818, 0.575, 0, 33.371)" fill="#fff7c2"/>
              <rect id="Rectangle_459311" data-name="Rectangle 459311" width="40.781" height="1.051" transform="matrix(0.575, -0.818, 0.818, 0.575, 1.938, 34.732)" fill="#fec463"/>
            </g>
            <path id="Path_1031126" data-name="Path 1031126" d="M1762.7,654.277h0l2.357-1.867,2.357-1.867-.957,2.851-.956,2.851h0a11.493,11.493,0,0,1-2.8-1.967Z" transform="translate(-1738.014 -650.542)" fill="#f3dabf"/>
            <path id="Path_1031127" data-name="Path 1031127" d="M1785.39,652.125l2.006-1.581-.825,2.456A1.809,1.809,0,0,1,1785.39,652.125Z" transform="translate(-1757.997 -650.543)" fill="#39312a"/>
            <rect id="Rectangle_459312" data-name="Rectangle 459312" width="0.986" height="3.45" transform="translate(1.076 37.34) rotate(-54.919)" fill="#67686b"/>
            <path id="Path_1031128" data-name="Path 1031128" d="M1556.509,964h0l.681-.968,2.823,1.983-.72,1.025c-.014.022-.026.044-.041.064a1.73,1.73,0,0,1-2.832-1.989C1556.448,964.075,1556.478,964.038,1556.509,964Z" transform="translate(-1556.105 -925.7)" fill="#e76c63"/>
          </g>
          <path id="Path_1031129" data-name="Path 1031129" d="M1611.91,871.87a1.282,1.282,0,0,1,2.085,0c1.04,1.419-.366,2.618-1.733,2.868a1.067,1.067,0,0,1-1.22-.908A2.358,2.358,0,0,1,1611.91,871.87Z" transform="translate(-1604.454 -844.954)" fill="#eab1b8"/>
        </g>
      </g>
      <g id="Group_1184305" data-name="Group 1184305" transform="translate(92.236 150.227)">
        <g id="Group_1184283" data-name="Group 1184283" transform="translate(0 14.727)">
          <g id="Group_1184267" data-name="Group 1184267" transform="translate(0 11.311)">
            <path id="Path_1031130" data-name="Path 1031130" d="M737.749,1441.092c-2.979-2.04-9.2-3.443-16.39-3.443s-13.411,1.4-16.389,3.443h-1.9v2.722h.029c0,3.4,8.177,6.165,18.263,6.165s18.263-2.76,18.263-6.165v-2.722Z" transform="translate(-703.067 -1434.956)" fill="#f9a65d"/>
            <ellipse id="Ellipse_13761" data-name="Ellipse 13761" cx="18.263" cy="6.165" rx="18.263" ry="6.165" transform="translate(0.029)" fill="#fec463"/>
            <g id="Group_1184263" data-name="Group 1184263" transform="translate(3.12 1.043)">
              <path id="Path_1031131" data-name="Path 1031131" d="M759.529,1428.961c0,2.828-6.793,5.122-15.172,5.122s-15.172-2.293-15.172-5.122,6.793-5.122,15.172-5.122S759.529,1426.133,759.529,1428.961Z" transform="translate(-729.185 -1423.839)" fill="#ffd686"/>
              <path id="Path_1031132" data-name="Path 1031132" d="M737.964,1435.563q12.891-4.361,25.8-8.714-.949-.344-2.043-.637-12.861,4.317-25.669,8.652C736.638,1435.114,737.277,1435.347,737.964,1435.563Z" transform="translate(-735.236 -1425.929)" fill="#ffda67"/>
              <path id="Path_1031133" data-name="Path 1031133" d="M785.951,1434.619a13.506,13.506,0,0,0-1.954-.964q-12.887,4.333-25.716,8.684c.9.252,1.869.476,2.9.667Q773.582,1438.819,785.951,1434.619Z" transform="translate(-754.804 -1432.482)" fill="#ffda67"/>
              <path id="Path_1031134" data-name="Path 1031134" d="M759.529,1428.961c0,2.828-6.793,5.122-15.172,5.122s-15.172-2.293-15.172-5.122,6.793-5.122,15.172-5.122S759.529,1426.133,759.529,1428.961Z" transform="translate(-729.185 -1423.839)" fill="#ffd686"/>
              <path id="Path_1031135" data-name="Path 1031135" d="M752.636,1424.669a39.148,39.148,0,0,0-8.279-.83c-8.379,0-15.172,2.293-15.172,5.122,0,1.028.9,1.985,2.447,2.787Q742.116,1428.2,752.636,1424.669Z" transform="translate(-729.185 -1423.839)" fill="#ffd686"/>
              <path id="Path_1031136" data-name="Path 1031136" d="M809.959,1457.645a42.374,42.374,0,0,0,5.522.351c8.38,0,15.172-2.293,15.172-5.122A2.547,2.547,0,0,0,829.6,1451Q819.791,1454.325,809.959,1457.645Z" transform="translate(-800.309 -1447.751)" fill="#ffd686"/>
              <path id="Path_1031137" data-name="Path 1031137" d="M729.841,1429.318c0-2.829,6.793-5.122,15.172-5.122,5.164,0,9.723.872,12.464,2.2-2.628-1.525-7.518-2.55-13.119-2.55-8.379,0-15.172,2.293-15.172,5.122,0,1.085,1,2.091,2.709,2.919C730.591,1431.132,729.841,1430.254,729.841,1429.318Z" transform="translate(-729.185 -1423.847)" fill="#faa955"/>
            </g>
            <g id="Group_1184264" data-name="Group 1184264" transform="translate(12.353 2.569)">
              <path id="Path_1031138" data-name="Path 1031138" d="M811.883,1436.61h2.068v.576a16.63,16.63,0,0,1,4.336.643l-2.28.959a12.8,12.8,0,0,0-2.094-.442v1.216q4.747.488,4.747,1.808,0,.665-1.209,1.119a12.929,12.929,0,0,1-3.563.6v.732h-2.03v-.723h-.337a19.319,19.319,0,0,1-2.679-.219,10.692,10.692,0,0,1-2.38-.56l2.181-.921a12.233,12.233,0,0,0,3.215.606v-1.413a12.568,12.568,0,0,1-3.458-.673q-1.19-.48-1.19-1.111,0-.669,1.153-1.129a10.52,10.52,0,0,1,3.52-.5v-.567Zm-.025,2.738v-1.035q-1.159.135-1.159.5Q810.7,1439.209,811.858,1439.348Zm2.055,1.489v1.094q1.283-.11,1.284-.542Q815.2,1440.991,813.914,1440.837Z" transform="translate(-806.463 -1436.61)" fill="#fec463"/>
            </g>
            <g id="Group_1184265" data-name="Group 1184265" transform="translate(11.853 2.569)">
              <path id="Path_1031139" data-name="Path 1031139" d="M807.7,1436.61h2.068v.576a16.633,16.633,0,0,1,4.336.643l-2.28.959a12.778,12.778,0,0,0-2.093-.442v1.216q4.746.488,4.747,1.808,0,.665-1.209,1.119a12.922,12.922,0,0,1-3.563.6v.732h-2.031v-.723h-.336a19.326,19.326,0,0,1-2.679-.219,10.671,10.671,0,0,1-2.379-.56l2.181-.921a12.225,12.225,0,0,0,3.214.606v-1.413a12.558,12.558,0,0,1-3.457-.673q-1.191-.48-1.19-1.111,0-.669,1.153-1.129a10.516,10.516,0,0,1,3.52-.5v-.567Zm-.025,2.738v-1.035q-1.158.135-1.158.5Q806.52,1439.209,807.679,1439.348Zm2.056,1.489v1.094q1.283-.11,1.284-.542Q811.018,1440.991,809.734,1440.837Z" transform="translate(-802.284 -1436.61)" fill="#f9a65d"/>
            </g>
            <g id="Group_1184266" data-name="Group 1184266" transform="translate(12.353 2.569)">
              <path id="Path_1031140" data-name="Path 1031140" d="M811.883,1436.61h2.068v.576a16.63,16.63,0,0,1,4.336.643l-2.28.959a12.8,12.8,0,0,0-2.094-.442v1.216q4.747.488,4.747,1.808,0,.665-1.209,1.119a12.929,12.929,0,0,1-3.563.6v.732h-2.03v-.723h-.337a19.319,19.319,0,0,1-2.679-.219,10.692,10.692,0,0,1-2.38-.56l2.181-.921a12.233,12.233,0,0,0,3.215.606v-1.413a12.568,12.568,0,0,1-3.458-.673q-1.19-.48-1.19-1.111,0-.669,1.153-1.129a10.52,10.52,0,0,1,3.52-.5v-.567Zm-.025,2.738v-1.035q-1.159.135-1.159.5Q810.7,1439.209,811.858,1439.348Zm2.055,1.489v1.094q1.283-.11,1.284-.542Q815.2,1440.991,813.914,1440.837Z" transform="translate(-806.463 -1436.61)" fill="#fec463"/>
            </g>
            <path id="Path_1031141" data-name="Path 1031141" d="M756.381,1440.29q10.706-3.622,21.429-7.238a21.163,21.163,0,0,0-2.061-.631q-10.647,3.577-21.257,7.165A16.464,16.464,0,0,0,756.381,1440.29Z" transform="translate(-748.348 -1430.352)" fill="#fff3ce" opacity="0.4"/>
            <path id="Path_1031142" data-name="Path 1031142" d="M799.826,1440.844a9.9,9.9,0,0,0-1.867-1q-10.681,3.6-21.324,7.2a29,29,0,0,0,3,.635Q789.741,1444.266,799.826,1440.844Z" transform="translate(-767.846 -1436.888)" fill="#fff3ce" opacity="0.4"/>
          </g>
          <g id="Group_1184272" data-name="Group 1184272" transform="translate(0 7.663)">
            <path id="Path_1031143" data-name="Path 1031143" d="M737.749,1410.552c-2.979-2.04-9.2-3.443-16.39-3.443s-13.411,1.4-16.389,3.443h-1.9v2.722h.029c0,3.4,8.177,6.165,18.263,6.165s18.263-2.76,18.263-6.165v-2.722Z" transform="translate(-703.067 -1404.416)" fill="#f9a65d"/>
            <ellipse id="Ellipse_13762" data-name="Ellipse 13762" cx="18.263" cy="6.165" rx="18.263" ry="6.165" transform="translate(0.029)" fill="#fec463"/>
            <g id="Group_1184268" data-name="Group 1184268" transform="translate(3.12 1.043)">
              <path id="Path_1031144" data-name="Path 1031144" d="M759.529,1398.421c0,2.828-6.793,5.122-15.172,5.122s-15.172-2.293-15.172-5.122,6.793-5.122,15.172-5.122S759.529,1395.592,759.529,1398.421Z" transform="translate(-729.185 -1393.299)" fill="#ffd686"/>
              <path id="Path_1031145" data-name="Path 1031145" d="M737.964,1405.015q12.891-4.361,25.8-8.714-.949-.344-2.043-.637-12.861,4.317-25.669,8.652A20.135,20.135,0,0,0,737.964,1405.015Z" transform="translate(-735.236 -1395.381)" fill="#ffda67"/>
              <path id="Path_1031146" data-name="Path 1031146" d="M785.951,1404.079a13.481,13.481,0,0,0-1.954-.964q-12.887,4.332-25.716,8.684c.9.253,1.869.476,2.9.668Q773.582,1408.279,785.951,1404.079Z" transform="translate(-754.804 -1401.942)" fill="#ffda67"/>
              <path id="Path_1031147" data-name="Path 1031147" d="M759.529,1398.421c0,2.828-6.793,5.122-15.172,5.122s-15.172-2.293-15.172-5.122,6.793-5.122,15.172-5.122S759.529,1395.592,759.529,1398.421Z" transform="translate(-729.185 -1393.299)" fill="#ffd686"/>
              <path id="Path_1031148" data-name="Path 1031148" d="M752.636,1394.13a39.131,39.131,0,0,0-8.279-.831c-8.379,0-15.172,2.292-15.172,5.122,0,1.028.9,1.985,2.447,2.787Q742.116,1397.663,752.636,1394.13Z" transform="translate(-729.185 -1393.299)" fill="#ffd686"/>
              <path id="Path_1031149" data-name="Path 1031149" d="M809.959,1427.095a42.352,42.352,0,0,0,5.522.351c8.38,0,15.172-2.293,15.172-5.122a2.547,2.547,0,0,0-1.056-1.879Q819.791,1423.776,809.959,1427.095Z" transform="translate(-800.309 -1417.202)" fill="#ffd686"/>
              <path id="Path_1031150" data-name="Path 1031150" d="M729.841,1398.767c0-2.829,6.793-5.122,15.172-5.122,5.164,0,9.723.871,12.464,2.2-2.628-1.525-7.518-2.55-13.119-2.55-8.379,0-15.172,2.292-15.172,5.122,0,1.086,1,2.091,2.709,2.92C730.591,1400.583,729.841,1399.7,729.841,1398.767Z" transform="translate(-729.185 -1393.297)" fill="#faa955"/>
            </g>
            <g id="Group_1184269" data-name="Group 1184269" transform="translate(12.353 2.568)">
              <path id="Path_1031151" data-name="Path 1031151" d="M811.883,1406.06h2.068v.576a16.625,16.625,0,0,1,4.336.643l-2.28.958a12.867,12.867,0,0,0-2.094-.442v1.216q4.747.488,4.747,1.808,0,.665-1.209,1.119a12.919,12.919,0,0,1-3.563.6v.732h-2.03v-.723h-.337a19.357,19.357,0,0,1-2.679-.219,10.683,10.683,0,0,1-2.38-.56l2.181-.921a12.209,12.209,0,0,0,3.215.605v-1.413a12.534,12.534,0,0,1-3.458-.673q-1.19-.479-1.19-1.11,0-.669,1.153-1.13a10.525,10.525,0,0,1,3.52-.5v-.567Zm-.025,2.738v-1.035q-1.159.135-1.159.5Q810.7,1408.66,811.858,1408.8Zm2.055,1.489v1.093q1.283-.109,1.284-.542Q815.2,1410.443,813.914,1410.287Z" transform="translate(-806.463 -1406.06)" fill="#fec463"/>
            </g>
            <g id="Group_1184270" data-name="Group 1184270" transform="translate(11.853 2.568)">
              <path id="Path_1031152" data-name="Path 1031152" d="M807.7,1406.06h2.068v.576a16.627,16.627,0,0,1,4.336.643l-2.28.958a12.847,12.847,0,0,0-2.093-.442v1.216q4.746.488,4.747,1.808,0,.665-1.209,1.119a12.912,12.912,0,0,1-3.563.6v.732h-2.031v-.723h-.336a19.364,19.364,0,0,1-2.679-.219,10.661,10.661,0,0,1-2.379-.56l2.181-.921a12.2,12.2,0,0,0,3.214.605v-1.413a12.524,12.524,0,0,1-3.457-.673q-1.191-.479-1.19-1.11,0-.669,1.153-1.13a10.521,10.521,0,0,1,3.52-.5v-.567Zm-.025,2.738v-1.035q-1.158.135-1.158.5Q806.52,1408.66,807.679,1408.8Zm2.056,1.489v1.093q1.283-.109,1.284-.542Q811.018,1410.443,809.734,1410.287Z" transform="translate(-802.284 -1406.06)" fill="#f9a65d"/>
            </g>
            <g id="Group_1184271" data-name="Group 1184271" transform="translate(12.353 2.568)">
              <path id="Path_1031153" data-name="Path 1031153" d="M811.883,1406.06h2.068v.576a16.625,16.625,0,0,1,4.336.643l-2.28.958a12.867,12.867,0,0,0-2.094-.442v1.216q4.747.488,4.747,1.808,0,.665-1.209,1.119a12.919,12.919,0,0,1-3.563.6v.732h-2.03v-.723h-.337a19.357,19.357,0,0,1-2.679-.219,10.683,10.683,0,0,1-2.38-.56l2.181-.921a12.209,12.209,0,0,0,3.215.605v-1.413a12.534,12.534,0,0,1-3.458-.673q-1.19-.479-1.19-1.11,0-.669,1.153-1.13a10.525,10.525,0,0,1,3.52-.5v-.567Zm-.025,2.738v-1.035q-1.159.135-1.159.5Q810.7,1408.66,811.858,1408.8Zm2.055,1.489v1.093q1.283-.109,1.284-.542Q815.2,1410.443,813.914,1410.287Z" transform="translate(-806.463 -1406.06)" fill="#fec463"/>
            </g>
            <path id="Path_1031154" data-name="Path 1031154" d="M756.381,1409.75q10.706-3.622,21.429-7.238a20.962,20.962,0,0,0-2.061-.631q-10.647,3.576-21.257,7.165A16.673,16.673,0,0,0,756.381,1409.75Z" transform="translate(-748.348 -1399.812)" fill="#fff3ce" opacity="0.4"/>
            <path id="Path_1031155" data-name="Path 1031155" d="M799.826,1410.3a9.887,9.887,0,0,0-1.867-1q-10.681,3.6-21.324,7.2a29.036,29.036,0,0,0,3,.635Q789.741,1413.722,799.826,1410.3Z" transform="translate(-767.846 -1406.344)" fill="#fff3ce" opacity="0.4"/>
          </g>
          <g id="Group_1184277" data-name="Group 1184277" transform="translate(0 3.649)">
            <path id="Path_1031156" data-name="Path 1031156" d="M737.749,1376.952c-2.979-2.04-9.2-3.443-16.39-3.443s-13.411,1.4-16.389,3.443h-1.9v2.722h.029c0,3.4,8.177,6.165,18.263,6.165s18.263-2.76,18.263-6.165v-2.722Z" transform="translate(-703.067 -1370.816)" fill="#f9a65d"/>
            <ellipse id="Ellipse_13763" data-name="Ellipse 13763" cx="18.263" cy="6.165" rx="18.263" ry="6.165" transform="translate(0.029)" fill="#fec463"/>
            <g id="Group_1184273" data-name="Group 1184273" transform="translate(3.12 1.043)">
              <path id="Path_1031157" data-name="Path 1031157" d="M759.529,1364.821c0,2.829-6.793,5.122-15.172,5.122s-15.172-2.293-15.172-5.122,6.793-5.122,15.172-5.122S759.529,1361.993,759.529,1364.821Z" transform="translate(-729.185 -1359.699)" fill="#ffd686"/>
              <path id="Path_1031158" data-name="Path 1031158" d="M737.964,1371.414q12.891-4.361,25.8-8.714-.949-.343-2.043-.637-12.861,4.317-25.669,8.652A20.1,20.1,0,0,0,737.964,1371.414Z" transform="translate(-735.236 -1361.781)" fill="#ffda67"/>
              <path id="Path_1031159" data-name="Path 1031159" d="M785.951,1370.479a13.506,13.506,0,0,0-1.954-.964q-12.887,4.333-25.716,8.684c.9.252,1.869.476,2.9.668Q773.582,1374.678,785.951,1370.479Z" transform="translate(-754.804 -1368.342)" fill="#ffda67"/>
              <path id="Path_1031160" data-name="Path 1031160" d="M759.529,1364.821c0,2.829-6.793,5.122-15.172,5.122s-15.172-2.293-15.172-5.122,6.793-5.122,15.172-5.122S759.529,1361.993,759.529,1364.821Z" transform="translate(-729.185 -1359.699)" fill="#ffd686"/>
              <path id="Path_1031161" data-name="Path 1031161" d="M752.636,1360.529a39.147,39.147,0,0,0-8.279-.83c-8.379,0-15.172,2.293-15.172,5.122,0,1.028.9,1.985,2.447,2.787Q742.116,1364.063,752.636,1360.529Z" transform="translate(-729.185 -1359.699)" fill="#ffd686"/>
              <path id="Path_1031162" data-name="Path 1031162" d="M809.959,1393.5a42.418,42.418,0,0,0,5.522.351c8.38,0,15.172-2.293,15.172-5.122a2.546,2.546,0,0,0-1.056-1.878Q819.791,1390.176,809.959,1393.5Z" transform="translate(-800.309 -1383.603)" fill="#ffd686"/>
              <path id="Path_1031163" data-name="Path 1031163" d="M729.841,1365.167c0-2.829,6.793-5.122,15.172-5.122,5.164,0,9.723.872,12.464,2.2-2.628-1.525-7.518-2.55-13.119-2.55-8.379,0-15.172,2.293-15.172,5.122,0,1.086,1,2.091,2.709,2.92C730.591,1366.984,729.841,1366.1,729.841,1365.167Z" transform="translate(-729.185 -1359.697)" fill="#faa955"/>
            </g>
            <g id="Group_1184274" data-name="Group 1184274" transform="translate(12.353 2.568)">
              <path id="Path_1031164" data-name="Path 1031164" d="M811.883,1372.46h2.068v.577a16.625,16.625,0,0,1,4.336.643l-2.28.958a12.946,12.946,0,0,0-2.094-.442v1.216q4.747.487,4.747,1.808,0,.665-1.209,1.119a12.919,12.919,0,0,1-3.563.6v.732h-2.03v-.723h-.337a19.338,19.338,0,0,1-2.679-.219,10.691,10.691,0,0,1-2.38-.56l2.181-.921a12.233,12.233,0,0,0,3.215.606v-1.413a12.564,12.564,0,0,1-3.458-.673q-1.19-.48-1.19-1.11,0-.669,1.153-1.13a10.529,10.529,0,0,1,3.52-.5v-.567Zm-.025,2.738v-1.034q-1.159.135-1.159.5Q810.7,1375.06,811.858,1375.2Zm2.055,1.49v1.094q1.283-.11,1.284-.543C815.2,1376.976,814.769,1376.791,813.914,1376.688Z" transform="translate(-806.463 -1372.46)" fill="#fec463"/>
            </g>
            <g id="Group_1184275" data-name="Group 1184275" transform="translate(11.853 2.568)">
              <path id="Path_1031165" data-name="Path 1031165" d="M807.7,1372.46h2.068v.577a16.628,16.628,0,0,1,4.336.643l-2.28.958a12.926,12.926,0,0,0-2.093-.442v1.216q4.746.487,4.747,1.808,0,.665-1.209,1.119a12.912,12.912,0,0,1-3.563.6v.732h-2.031v-.723h-.336a19.345,19.345,0,0,1-2.679-.219,10.669,10.669,0,0,1-2.379-.56l2.181-.921a12.225,12.225,0,0,0,3.214.606v-1.413a12.555,12.555,0,0,1-3.457-.673q-1.191-.48-1.19-1.11,0-.669,1.153-1.13a10.525,10.525,0,0,1,3.52-.5v-.567Zm-.025,2.738v-1.034q-1.158.135-1.158.5Q806.52,1375.06,807.679,1375.2Zm2.056,1.49v1.094q1.283-.11,1.284-.543C811.018,1376.976,810.59,1376.791,809.734,1376.688Z" transform="translate(-802.284 -1372.46)" fill="#f9a65d"/>
            </g>
            <g id="Group_1184276" data-name="Group 1184276" transform="translate(12.353 2.568)">
              <path id="Path_1031166" data-name="Path 1031166" d="M811.883,1372.46h2.068v.577a16.625,16.625,0,0,1,4.336.643l-2.28.958a12.946,12.946,0,0,0-2.094-.442v1.216q4.747.487,4.747,1.808,0,.665-1.209,1.119a12.919,12.919,0,0,1-3.563.6v.732h-2.03v-.723h-.337a19.338,19.338,0,0,1-2.679-.219,10.691,10.691,0,0,1-2.38-.56l2.181-.921a12.233,12.233,0,0,0,3.215.606v-1.413a12.564,12.564,0,0,1-3.458-.673q-1.19-.48-1.19-1.11,0-.669,1.153-1.13a10.529,10.529,0,0,1,3.52-.5v-.567Zm-.025,2.738v-1.034q-1.159.135-1.159.5Q810.7,1375.06,811.858,1375.2Zm2.055,1.49v1.094q1.283-.11,1.284-.543C815.2,1376.976,814.769,1376.791,813.914,1376.688Z" transform="translate(-806.463 -1372.46)" fill="#fec463"/>
            </g>
            <path id="Path_1031167" data-name="Path 1031167" d="M756.381,1376.15q10.706-3.622,21.429-7.238a21.1,21.1,0,0,0-2.061-.631q-10.647,3.576-21.257,7.165A16.464,16.464,0,0,0,756.381,1376.15Z" transform="translate(-748.348 -1366.212)" fill="#fff3ce" opacity="0.4"/>
            <path id="Path_1031168" data-name="Path 1031168" d="M799.826,1376.7a9.873,9.873,0,0,0-1.867-1q-10.681,3.6-21.324,7.2a29.034,29.034,0,0,0,3,.635Q789.741,1380.122,799.826,1376.7Z" transform="translate(-767.846 -1372.744)" fill="#fff3ce" opacity="0.4"/>
          </g>
          <g id="Group_1184282" data-name="Group 1184282">
            <path id="Path_1031169" data-name="Path 1031169" d="M737.749,1346.412c-2.979-2.04-9.2-3.443-16.39-3.443s-13.411,1.4-16.389,3.443h-1.9v2.722h.029c0,3.405,8.177,6.165,18.263,6.165s18.263-2.76,18.263-6.165v-2.722Z" transform="translate(-703.067 -1340.276)" fill="#f9a65d"/>
            <ellipse id="Ellipse_13764" data-name="Ellipse 13764" cx="18.263" cy="6.165" rx="18.263" ry="6.165" transform="translate(0.029)" fill="#fec463"/>
            <g id="Group_1184278" data-name="Group 1184278" transform="translate(3.12 1.043)">
              <path id="Path_1031170" data-name="Path 1031170" d="M759.529,1334.281c0,2.829-6.793,5.122-15.172,5.122s-15.172-2.293-15.172-5.122,6.793-5.122,15.172-5.122S759.529,1331.452,759.529,1334.281Z" transform="translate(-729.185 -1329.159)" fill="#ffd686"/>
              <path id="Path_1031171" data-name="Path 1031171" d="M737.964,1340.874q12.891-4.361,25.8-8.714-.949-.344-2.043-.637-12.861,4.317-25.669,8.652C736.638,1340.424,737.277,1340.657,737.964,1340.874Z" transform="translate(-735.236 -1331.241)" fill="#ffda67"/>
              <path id="Path_1031172" data-name="Path 1031172" d="M785.951,1339.929a13.519,13.519,0,0,0-1.954-.964q-12.887,4.333-25.716,8.684c.9.253,1.869.477,2.9.668Q773.582,1344.128,785.951,1339.929Z" transform="translate(-754.804 -1337.793)" fill="#ffda67"/>
              <path id="Path_1031173" data-name="Path 1031173" d="M759.529,1334.281c0,2.829-6.793,5.122-15.172,5.122s-15.172-2.293-15.172-5.122,6.793-5.122,15.172-5.122S759.529,1331.452,759.529,1334.281Z" transform="translate(-729.185 -1329.159)" fill="#ffd686"/>
              <path id="Path_1031174" data-name="Path 1031174" d="M752.636,1329.989a39.139,39.139,0,0,0-8.279-.83c-8.379,0-15.172,2.293-15.172,5.122,0,1.029.9,1.985,2.447,2.788Q742.116,1333.523,752.636,1329.989Z" transform="translate(-729.185 -1329.159)" fill="#ffd686"/>
              <path id="Path_1031175" data-name="Path 1031175" d="M809.959,1362.955a42.374,42.374,0,0,0,5.522.351c8.38,0,15.172-2.293,15.172-5.122a2.546,2.546,0,0,0-1.056-1.878Q819.791,1359.635,809.959,1362.955Z" transform="translate(-800.309 -1353.063)" fill="#ffd686"/>
              <path id="Path_1031176" data-name="Path 1031176" d="M729.841,1334.628c0-2.829,6.793-5.122,15.172-5.122,5.164,0,9.723.872,12.464,2.2-2.628-1.525-7.518-2.55-13.119-2.55-8.379,0-15.172,2.293-15.172,5.122,0,1.086,1,2.091,2.709,2.92C730.591,1336.443,729.841,1335.566,729.841,1334.628Z" transform="translate(-729.185 -1329.158)" fill="#faa955"/>
            </g>
            <g id="Group_1184279" data-name="Group 1184279" transform="translate(12.353 2.568)">
              <path id="Path_1031177" data-name="Path 1031177" d="M811.883,1341.92h2.068v.576a16.63,16.63,0,0,1,4.336.643l-2.28.959a12.839,12.839,0,0,0-2.094-.442v1.216q4.747.488,4.747,1.808,0,.665-1.209,1.119a12.915,12.915,0,0,1-3.563.6v.732h-2.03v-.723h-.337a19.323,19.323,0,0,1-2.679-.219,10.686,10.686,0,0,1-2.38-.56l2.181-.921a12.214,12.214,0,0,0,3.215.605V1345.9a12.574,12.574,0,0,1-3.458-.673q-1.19-.48-1.19-1.111,0-.669,1.153-1.129a10.514,10.514,0,0,1,3.52-.5v-.568Zm-.025,2.738v-1.035q-1.159.135-1.159.5Q810.7,1344.519,811.858,1344.658Zm2.055,1.489v1.094q1.283-.11,1.284-.543Q815.2,1346.3,813.914,1346.147Z" transform="translate(-806.463 -1341.92)" fill="#fec463"/>
            </g>
            <g id="Group_1184280" data-name="Group 1184280" transform="translate(11.853 2.568)">
              <path id="Path_1031178" data-name="Path 1031178" d="M807.7,1341.92h2.068v.576a16.632,16.632,0,0,1,4.336.643l-2.28.959a12.819,12.819,0,0,0-2.093-.442v1.216q4.746.488,4.747,1.808,0,.665-1.209,1.119a12.908,12.908,0,0,1-3.563.6v.732h-2.031v-.723h-.336a19.33,19.33,0,0,1-2.679-.219,10.664,10.664,0,0,1-2.379-.56l2.181-.921a12.206,12.206,0,0,0,3.214.605V1345.9a12.564,12.564,0,0,1-3.457-.673q-1.191-.48-1.19-1.111,0-.669,1.153-1.129a10.51,10.51,0,0,1,3.52-.5v-.568Zm-.025,2.738v-1.035q-1.158.135-1.158.5Q806.52,1344.519,807.679,1344.658Zm2.056,1.489v1.094q1.283-.11,1.284-.543Q811.018,1346.3,809.734,1346.147Z" transform="translate(-802.284 -1341.92)" fill="#f9a65d"/>
            </g>
            <g id="Group_1184281" data-name="Group 1184281" transform="translate(12.353 2.568)">
              <path id="Path_1031179" data-name="Path 1031179" d="M811.883,1341.92h2.068v.576a16.63,16.63,0,0,1,4.336.643l-2.28.959a12.839,12.839,0,0,0-2.094-.442v1.216q4.747.488,4.747,1.808,0,.665-1.209,1.119a12.915,12.915,0,0,1-3.563.6v.732h-2.03v-.723h-.337a19.323,19.323,0,0,1-2.679-.219,10.686,10.686,0,0,1-2.38-.56l2.181-.921a12.214,12.214,0,0,0,3.215.605V1345.9a12.574,12.574,0,0,1-3.458-.673q-1.19-.48-1.19-1.111,0-.669,1.153-1.129a10.514,10.514,0,0,1,3.52-.5v-.568Zm-.025,2.738v-1.035q-1.159.135-1.159.5Q810.7,1344.519,811.858,1344.658Zm2.055,1.489v1.094q1.283-.11,1.284-.543Q815.2,1346.3,813.914,1346.147Z" transform="translate(-806.463 -1341.92)" fill="#fec463"/>
            </g>
            <path id="Path_1031180" data-name="Path 1031180" d="M756.381,1345.61q10.706-3.622,21.429-7.238a21,21,0,0,0-2.061-.631q-10.647,3.576-21.257,7.165A16.671,16.671,0,0,0,756.381,1345.61Z" transform="translate(-748.348 -1335.672)" fill="#fff3ce" opacity="0.4"/>
            <path id="Path_1031181" data-name="Path 1031181" d="M799.826,1346.155a9.915,9.915,0,0,0-1.867-1q-10.681,3.6-21.324,7.2a29.067,29.067,0,0,0,3,.635Q789.741,1349.578,799.826,1346.155Z" transform="translate(-767.846 -1342.2)" fill="#fff3ce" opacity="0.4"/>
          </g>
        </g>
        <g id="Group_1184304" data-name="Group 1184304">
          <g id="Group_1184288" data-name="Group 1184288" transform="translate(0 11.311)">
            <path id="Path_1031182" data-name="Path 1031182" d="M737.749,1317.822c-2.979-2.04-9.2-3.443-16.39-3.443s-13.411,1.4-16.389,3.443h-1.9v2.722h.029c0,3.406,8.177,6.166,18.263,6.166s18.263-2.76,18.263-6.166v-2.722Z" transform="translate(-703.067 -1311.686)" fill="#f9a65d"/>
            <ellipse id="Ellipse_13765" data-name="Ellipse 13765" cx="18.263" cy="6.165" rx="18.263" ry="6.165" transform="translate(0.029)" fill="#fec463"/>
            <g id="Group_1184284" data-name="Group 1184284" transform="translate(3.12 1.043)">
              <path id="Path_1031183" data-name="Path 1031183" d="M759.529,1305.691c0,2.829-6.793,5.122-15.172,5.122s-15.172-2.293-15.172-5.122,6.793-5.122,15.172-5.122S759.529,1302.862,759.529,1305.691Z" transform="translate(-729.185 -1300.569)" fill="#ffd686"/>
              <path id="Path_1031184" data-name="Path 1031184" d="M737.964,1312.283q12.891-4.361,25.8-8.714-.949-.344-2.043-.637-12.861,4.317-25.669,8.652A19.737,19.737,0,0,0,737.964,1312.283Z" transform="translate(-735.236 -1302.651)" fill="#ffda67"/>
              <path id="Path_1031185" data-name="Path 1031185" d="M785.951,1311.344a13.468,13.468,0,0,0-1.954-.964q-12.887,4.333-25.716,8.684c.9.253,1.869.476,2.9.668Q773.582,1315.544,785.951,1311.344Z" transform="translate(-754.804 -1309.208)" fill="#ffda67"/>
              <path id="Path_1031186" data-name="Path 1031186" d="M759.529,1305.691c0,2.829-6.793,5.122-15.172,5.122s-15.172-2.293-15.172-5.122,6.793-5.122,15.172-5.122S759.529,1302.862,759.529,1305.691Z" transform="translate(-729.185 -1300.569)" fill="#ffd686"/>
              <path id="Path_1031187" data-name="Path 1031187" d="M752.636,1301.4a39.139,39.139,0,0,0-8.279-.83c-8.379,0-15.172,2.293-15.172,5.122,0,1.029.9,1.985,2.447,2.788Q742.116,1304.933,752.636,1301.4Z" transform="translate(-729.185 -1300.569)" fill="#ffd686"/>
              <path id="Path_1031188" data-name="Path 1031188" d="M809.959,1334.371a42.46,42.46,0,0,0,5.522.351c8.38,0,15.172-2.293,15.172-5.122a2.547,2.547,0,0,0-1.056-1.878Q819.791,1331.05,809.959,1334.371Z" transform="translate(-800.309 -1324.477)" fill="#ffd686"/>
              <path id="Path_1031189" data-name="Path 1031189" d="M729.841,1306.037c0-2.828,6.793-5.122,15.172-5.122,5.164,0,9.723.871,12.464,2.2-2.628-1.524-7.518-2.55-13.119-2.55-8.379,0-15.172,2.293-15.172,5.122,0,1.086,1,2.091,2.709,2.92C730.591,1307.854,729.841,1306.975,729.841,1306.037Z" transform="translate(-729.185 -1300.568)" fill="#faa955"/>
            </g>
            <g id="Group_1184285" data-name="Group 1184285" transform="translate(12.353 2.568)">
              <path id="Path_1031190" data-name="Path 1031190" d="M811.883,1313.33h2.068v.576a16.645,16.645,0,0,1,4.336.643l-2.28.959a12.789,12.789,0,0,0-2.094-.442v1.216q4.747.488,4.747,1.809,0,.664-1.209,1.118a12.915,12.915,0,0,1-3.563.6v.732h-2.03v-.723h-.337a19.265,19.265,0,0,1-2.679-.219,10.723,10.723,0,0,1-2.38-.559l2.181-.921a12.224,12.224,0,0,0,3.215.606v-1.413a12.547,12.547,0,0,1-3.458-.673q-1.19-.479-1.19-1.11,0-.669,1.153-1.129a10.533,10.533,0,0,1,3.52-.5v-.568Zm-.025,2.738v-1.035q-1.159.135-1.159.5Q810.7,1315.93,811.858,1316.068Zm2.055,1.489v1.094q1.283-.109,1.284-.542Q815.2,1317.715,813.914,1317.557Z" transform="translate(-806.463 -1313.33)" fill="#fec463"/>
            </g>
            <g id="Group_1184286" data-name="Group 1184286" transform="translate(11.853 2.568)">
              <path id="Path_1031191" data-name="Path 1031191" d="M807.7,1313.33h2.068v.576a16.648,16.648,0,0,1,4.336.643l-2.28.959a12.77,12.77,0,0,0-2.093-.442v1.216q4.746.488,4.747,1.809,0,.664-1.209,1.118a12.908,12.908,0,0,1-3.563.6v.732h-2.031v-.723h-.336a19.271,19.271,0,0,1-2.679-.219,10.7,10.7,0,0,1-2.379-.559l2.181-.921a12.215,12.215,0,0,0,3.214.606v-1.413a12.537,12.537,0,0,1-3.457-.673q-1.191-.479-1.19-1.11,0-.669,1.153-1.129a10.529,10.529,0,0,1,3.52-.5v-.568Zm-.025,2.738v-1.035q-1.158.135-1.158.5Q806.52,1315.93,807.679,1316.068Zm2.056,1.489v1.094q1.283-.109,1.284-.542Q811.018,1317.715,809.734,1317.557Z" transform="translate(-802.284 -1313.33)" fill="#f9a65d"/>
            </g>
            <g id="Group_1184287" data-name="Group 1184287" transform="translate(12.353 2.568)">
              <path id="Path_1031192" data-name="Path 1031192" d="M811.883,1313.33h2.068v.576a16.645,16.645,0,0,1,4.336.643l-2.28.959a12.789,12.789,0,0,0-2.094-.442v1.216q4.747.488,4.747,1.809,0,.664-1.209,1.118a12.915,12.915,0,0,1-3.563.6v.732h-2.03v-.723h-.337a19.265,19.265,0,0,1-2.679-.219,10.723,10.723,0,0,1-2.38-.559l2.181-.921a12.224,12.224,0,0,0,3.215.606v-1.413a12.547,12.547,0,0,1-3.458-.673q-1.19-.479-1.19-1.11,0-.669,1.153-1.129a10.533,10.533,0,0,1,3.52-.5v-.568Zm-.025,2.738v-1.035q-1.159.135-1.159.5Q810.7,1315.93,811.858,1316.068Zm2.055,1.489v1.094q1.283-.109,1.284-.542Q815.2,1317.715,813.914,1317.557Z" transform="translate(-806.463 -1313.33)" fill="#fec463"/>
            </g>
            <path id="Path_1031193" data-name="Path 1031193" d="M756.381,1317.025q10.706-3.622,21.429-7.237a20.832,20.832,0,0,0-2.061-.631q-10.647,3.576-21.257,7.165A16.582,16.582,0,0,0,756.381,1317.025Z" transform="translate(-748.348 -1307.087)" fill="#fff3ce" opacity="0.4"/>
            <path id="Path_1031194" data-name="Path 1031194" d="M799.826,1317.57a9.936,9.936,0,0,0-1.867-1q-10.681,3.6-21.324,7.2a29.168,29.168,0,0,0,3,.635Q789.741,1320.993,799.826,1317.57Z" transform="translate(-767.846 -1313.614)" fill="#fff3ce" opacity="0.4"/>
          </g>
          <g id="Group_1184293" data-name="Group 1184293" transform="translate(0 7.663)">
            <path id="Path_1031195" data-name="Path 1031195" d="M737.749,1287.282c-2.979-2.04-9.2-3.443-16.39-3.443s-13.411,1.4-16.389,3.443h-1.9V1290h.029c0,3.406,8.177,6.166,18.263,6.166s18.263-2.76,18.263-6.166v-2.722Z" transform="translate(-703.067 -1281.146)" fill="#f9a65d"/>
            <path id="Path_1031196" data-name="Path 1031196" d="M739.835,1267.46c0,3.405-8.176,6.166-18.263,6.166s-18.263-2.761-18.263-6.166,8.177-6.165,18.263-6.165S739.835,1264.055,739.835,1267.46Z" transform="translate(-703.281 -1261.295)" fill="#fec463"/>
            <g id="Group_1184289" data-name="Group 1184289" transform="translate(3.12 1.043)">
              <path id="Path_1031197" data-name="Path 1031197" d="M759.529,1275.151c0,2.829-6.793,5.122-15.172,5.122s-15.172-2.293-15.172-5.122,6.793-5.122,15.172-5.122S759.529,1272.322,759.529,1275.151Z" transform="translate(-729.185 -1270.029)" fill="#ffd686"/>
              <path id="Path_1031198" data-name="Path 1031198" d="M737.964,1281.748q12.891-4.361,25.8-8.714-.949-.344-2.043-.636-12.861,4.317-25.669,8.651C736.638,1281.3,737.277,1281.532,737.964,1281.748Z" transform="translate(-735.236 -1272.115)" fill="#ffda67"/>
              <path id="Path_1031199" data-name="Path 1031199" d="M785.951,1280.8a13.493,13.493,0,0,0-1.954-.964q-12.887,4.333-25.716,8.684c.9.252,1.869.476,2.9.668Q773.582,1285,785.951,1280.8Z" transform="translate(-754.804 -1278.663)" fill="#ffda67"/>
              <path id="Path_1031200" data-name="Path 1031200" d="M759.529,1275.151c0,2.829-6.793,5.122-15.172,5.122s-15.172-2.293-15.172-5.122,6.793-5.122,15.172-5.122S759.529,1272.322,759.529,1275.151Z" transform="translate(-729.185 -1270.029)" fill="#ffd686"/>
              <path id="Path_1031201" data-name="Path 1031201" d="M752.636,1270.859a39.139,39.139,0,0,0-8.279-.83c-8.379,0-15.172,2.293-15.172,5.122,0,1.029.9,1.985,2.447,2.788Q742.116,1274.393,752.636,1270.859Z" transform="translate(-729.185 -1270.029)" fill="#ffd686"/>
              <path id="Path_1031202" data-name="Path 1031202" d="M809.959,1303.82a42.46,42.46,0,0,0,5.522.351c8.38,0,15.172-2.293,15.172-5.122a2.547,2.547,0,0,0-1.056-1.878Q819.791,1300.5,809.959,1303.82Z" transform="translate(-800.309 -1293.928)" fill="#ffd686"/>
              <path id="Path_1031203" data-name="Path 1031203" d="M729.841,1275.5c0-2.828,6.793-5.122,15.172-5.122,5.164,0,9.723.871,12.464,2.2-2.628-1.524-7.518-2.55-13.119-2.55-8.379,0-15.172,2.293-15.172,5.122,0,1.085,1,2.091,2.709,2.92C730.591,1277.314,729.841,1276.436,729.841,1275.5Z" transform="translate(-729.185 -1270.028)" fill="#faa955"/>
            </g>
            <g id="Group_1184290" data-name="Group 1184290" transform="translate(12.353 2.568)">
              <path id="Path_1031204" data-name="Path 1031204" d="M811.883,1282.79h2.068v.576a16.645,16.645,0,0,1,4.336.644l-2.28.959a12.787,12.787,0,0,0-2.094-.442v1.215q4.747.487,4.747,1.808,0,.665-1.209,1.119a12.923,12.923,0,0,1-3.563.6V1290h-2.03v-.723h-.337a19.283,19.283,0,0,1-2.679-.219,10.723,10.723,0,0,1-2.38-.559l2.181-.921a12.224,12.224,0,0,0,3.215.606v-1.413a12.547,12.547,0,0,1-3.458-.673q-1.19-.48-1.19-1.111,0-.669,1.153-1.129a10.531,10.531,0,0,1,3.52-.5v-.568Zm-.025,2.738v-1.035q-1.159.135-1.159.5C810.7,1285.257,811.086,1285.436,811.858,1285.528Zm2.055,1.489v1.094q1.283-.11,1.284-.543Q815.2,1287.173,813.914,1287.017Z" transform="translate(-806.463 -1282.79)" fill="#fec463"/>
            </g>
            <g id="Group_1184291" data-name="Group 1184291" transform="translate(11.853 2.568)">
              <path id="Path_1031205" data-name="Path 1031205" d="M807.7,1282.79h2.068v.576a16.648,16.648,0,0,1,4.336.644l-2.28.959a12.768,12.768,0,0,0-2.093-.442v1.215q4.746.487,4.747,1.808,0,.665-1.209,1.119a12.916,12.916,0,0,1-3.563.6V1290h-2.031v-.723h-.336a19.29,19.29,0,0,1-2.679-.219,10.7,10.7,0,0,1-2.379-.559l2.181-.921a12.215,12.215,0,0,0,3.214.606v-1.413a12.538,12.538,0,0,1-3.457-.673q-1.191-.48-1.19-1.111,0-.669,1.153-1.129a10.527,10.527,0,0,1,3.52-.5v-.568Zm-.025,2.738v-1.035q-1.158.135-1.158.5C806.52,1285.257,806.907,1285.436,807.679,1285.528Zm2.056,1.489v1.094q1.283-.11,1.284-.543Q811.018,1287.173,809.734,1287.017Z" transform="translate(-802.284 -1282.79)" fill="#f9a65d"/>
            </g>
            <g id="Group_1184292" data-name="Group 1184292" transform="translate(12.353 2.568)">
              <path id="Path_1031206" data-name="Path 1031206" d="M811.883,1282.79h2.068v.576a16.645,16.645,0,0,1,4.336.644l-2.28.959a12.787,12.787,0,0,0-2.094-.442v1.215q4.747.487,4.747,1.808,0,.665-1.209,1.119a12.923,12.923,0,0,1-3.563.6V1290h-2.03v-.723h-.337a19.283,19.283,0,0,1-2.679-.219,10.723,10.723,0,0,1-2.38-.559l2.181-.921a12.224,12.224,0,0,0,3.215.606v-1.413a12.547,12.547,0,0,1-3.458-.673q-1.19-.48-1.19-1.111,0-.669,1.153-1.129a10.531,10.531,0,0,1,3.52-.5v-.568Zm-.025,2.738v-1.035q-1.159.135-1.159.5C810.7,1285.257,811.086,1285.436,811.858,1285.528Zm2.055,1.489v1.094q1.283-.11,1.284-.543Q815.2,1287.173,813.914,1287.017Z" transform="translate(-806.463 -1282.79)" fill="#fec463"/>
            </g>
            <path id="Path_1031207" data-name="Path 1031207" d="M756.381,1286.475q10.706-3.622,21.429-7.238a20.967,20.967,0,0,0-2.061-.631q-10.647,3.576-21.257,7.164A16.24,16.24,0,0,0,756.381,1286.475Z" transform="translate(-748.348 -1276.538)" fill="#fff3ce" opacity="0.4"/>
            <path id="Path_1031208" data-name="Path 1031208" d="M799.826,1287.03a9.95,9.95,0,0,0-1.867-1q-10.681,3.6-21.324,7.2a29.067,29.067,0,0,0,3,.635Q789.741,1290.451,799.826,1287.03Z" transform="translate(-767.846 -1283.074)" fill="#fff3ce" opacity="0.4"/>
          </g>
          <g id="Group_1184298" data-name="Group 1184298" transform="translate(0 3.649)">
            <path id="Path_1031209" data-name="Path 1031209" d="M737.749,1253.682c-2.979-2.04-9.2-3.443-16.39-3.443s-13.411,1.4-16.389,3.443h-1.9v2.722h.029c0,3.405,8.177,6.166,18.263,6.166s18.263-2.76,18.263-6.166v-2.722Z" transform="translate(-703.067 -1247.546)" fill="#f9a65d"/>
            <path id="Path_1031210" data-name="Path 1031210" d="M739.835,1233.86c0,3.406-8.176,6.166-18.263,6.166s-18.263-2.76-18.263-6.166,8.177-6.165,18.263-6.165S739.835,1230.456,739.835,1233.86Z" transform="translate(-703.281 -1227.695)" fill="#fec463"/>
            <g id="Group_1184294" data-name="Group 1184294" transform="translate(3.12 1.043)">
              <path id="Path_1031211" data-name="Path 1031211" d="M759.529,1241.551c0,2.829-6.793,5.122-15.172,5.122s-15.172-2.293-15.172-5.122,6.793-5.122,15.172-5.122S759.529,1238.722,759.529,1241.551Z" transform="translate(-729.185 -1236.429)" fill="#ffd686"/>
              <path id="Path_1031212" data-name="Path 1031212" d="M737.964,1248.148q12.891-4.361,25.8-8.713-.949-.344-2.043-.636-12.861,4.317-25.669,8.651A19.7,19.7,0,0,0,737.964,1248.148Z" transform="translate(-735.236 -1238.515)" fill="#ffda67"/>
              <path id="Path_1031213" data-name="Path 1031213" d="M785.951,1247.2a13.443,13.443,0,0,0-1.954-.964q-12.887,4.333-25.716,8.684c.9.253,1.869.476,2.9.668Q773.582,1251.4,785.951,1247.2Z" transform="translate(-754.804 -1245.068)" fill="#ffda67"/>
              <path id="Path_1031214" data-name="Path 1031214" d="M759.529,1241.551c0,2.829-6.793,5.122-15.172,5.122s-15.172-2.293-15.172-5.122,6.793-5.122,15.172-5.122S759.529,1238.722,759.529,1241.551Z" transform="translate(-729.185 -1236.429)" fill="#ffd686"/>
              <path id="Path_1031215" data-name="Path 1031215" d="M752.636,1237.259a39.14,39.14,0,0,0-8.279-.83c-8.379,0-15.172,2.293-15.172,5.122,0,1.028.9,1.985,2.447,2.788Q742.116,1240.793,752.636,1237.259Z" transform="translate(-729.185 -1236.429)" fill="#ffd686"/>
              <path id="Path_1031216" data-name="Path 1031216" d="M809.959,1270.22a42.437,42.437,0,0,0,5.522.351c8.38,0,15.172-2.293,15.172-5.122a2.547,2.547,0,0,0-1.056-1.878Q819.791,1266.9,809.959,1270.22Z" transform="translate(-800.309 -1260.328)" fill="#ffd686"/>
              <path id="Path_1031217" data-name="Path 1031217" d="M729.841,1241.9c0-2.829,6.793-5.122,15.172-5.122,5.164,0,9.723.872,12.464,2.2-2.628-1.524-7.518-2.55-13.119-2.55-8.379,0-15.172,2.293-15.172,5.122,0,1.085,1,2.091,2.709,2.92C730.591,1243.714,729.841,1242.835,729.841,1241.9Z" transform="translate(-729.185 -1236.428)" fill="#faa955"/>
            </g>
            <g id="Group_1184295" data-name="Group 1184295" transform="translate(12.353 2.568)">
              <path id="Path_1031218" data-name="Path 1031218" d="M811.883,1249.19h2.068v.576a16.655,16.655,0,0,1,4.336.644l-2.28.959a12.8,12.8,0,0,0-2.094-.442v1.215q4.747.488,4.747,1.809,0,.664-1.209,1.118a12.921,12.921,0,0,1-3.563.6v.732h-2.03v-.724h-.337a19.263,19.263,0,0,1-2.679-.219,10.709,10.709,0,0,1-2.38-.559l2.181-.921a12.219,12.219,0,0,0,3.215.606v-1.413a12.556,12.556,0,0,1-3.458-.673q-1.19-.479-1.19-1.111,0-.669,1.153-1.13a10.531,10.531,0,0,1,3.52-.5v-.568Zm-.025,2.738v-1.035q-1.159.135-1.159.5Q810.7,1251.79,811.858,1251.928Zm2.055,1.489v1.094q1.283-.109,1.284-.543C815.2,1253.7,814.769,1253.522,813.914,1253.417Z" transform="translate(-806.463 -1249.19)" fill="#fec463"/>
            </g>
            <g id="Group_1184296" data-name="Group 1184296" transform="translate(11.853 2.568)">
              <path id="Path_1031219" data-name="Path 1031219" d="M807.7,1249.19h2.068v.576a16.658,16.658,0,0,1,4.336.644l-2.28.959a12.783,12.783,0,0,0-2.093-.442v1.215q4.746.488,4.747,1.809,0,.664-1.209,1.118a12.913,12.913,0,0,1-3.563.6v.732h-2.031v-.724h-.336a19.269,19.269,0,0,1-2.679-.219,10.688,10.688,0,0,1-2.379-.559l2.181-.921a12.21,12.21,0,0,0,3.214.606v-1.413a12.546,12.546,0,0,1-3.457-.673q-1.191-.479-1.19-1.111,0-.669,1.153-1.13a10.527,10.527,0,0,1,3.52-.5v-.568Zm-.025,2.738v-1.035q-1.158.135-1.158.5Q806.52,1251.79,807.679,1251.928Zm2.056,1.489v1.094q1.283-.109,1.284-.543C811.018,1253.7,810.59,1253.522,809.734,1253.417Z" transform="translate(-802.284 -1249.19)" fill="#f9a65d"/>
            </g>
            <g id="Group_1184297" data-name="Group 1184297" transform="translate(12.353 2.568)">
              <path id="Path_1031220" data-name="Path 1031220" d="M811.883,1249.19h2.068v.576a16.655,16.655,0,0,1,4.336.644l-2.28.959a12.8,12.8,0,0,0-2.094-.442v1.215q4.747.488,4.747,1.809,0,.664-1.209,1.118a12.921,12.921,0,0,1-3.563.6v.732h-2.03v-.724h-.337a19.263,19.263,0,0,1-2.679-.219,10.709,10.709,0,0,1-2.38-.559l2.181-.921a12.219,12.219,0,0,0,3.215.606v-1.413a12.556,12.556,0,0,1-3.458-.673q-1.19-.479-1.19-1.111,0-.669,1.153-1.13a10.531,10.531,0,0,1,3.52-.5v-.568Zm-.025,2.738v-1.035q-1.159.135-1.159.5Q810.7,1251.79,811.858,1251.928Zm2.055,1.489v1.094q1.283-.109,1.284-.543C815.2,1253.7,814.769,1253.522,813.914,1253.417Z" transform="translate(-806.463 -1249.19)" fill="#fec463"/>
            </g>
            <path id="Path_1031221" data-name="Path 1031221" d="M756.381,1252.885q10.706-3.622,21.429-7.238a20.865,20.865,0,0,0-2.061-.631q-10.647,3.576-21.257,7.165A16.793,16.793,0,0,0,756.381,1252.885Z" transform="translate(-748.348 -1242.947)" fill="#fff3ce" opacity="0.4"/>
            <path id="Path_1031222" data-name="Path 1031222" d="M799.826,1253.43a9.943,9.943,0,0,0-1.867-1q-10.681,3.6-21.324,7.2a29.135,29.135,0,0,0,3,.635Q789.741,1256.852,799.826,1253.43Z" transform="translate(-767.846 -1249.474)" fill="#fff3ce" opacity="0.4"/>
          </g>
          <g id="Group_1184303" data-name="Group 1184303">
            <path id="Path_1031223" data-name="Path 1031223" d="M737.749,1223.132c-2.979-2.04-9.2-3.443-16.39-3.443s-13.411,1.4-16.389,3.443h-1.9v2.722h.029c0,3.406,8.177,6.166,18.263,6.166s18.263-2.76,18.263-6.166v-2.722Z" transform="translate(-703.067 -1216.997)" fill="#f9a65d"/>
            <ellipse id="Ellipse_13766" data-name="Ellipse 13766" cx="18.263" cy="6.165" rx="18.263" ry="6.165" transform="translate(0.029)" fill="#fec463"/>
            <g id="Group_1184299" data-name="Group 1184299" transform="translate(3.12 1.042)">
              <path id="Path_1031224" data-name="Path 1031224" d="M759.529,1211.011c0,2.829-6.793,5.122-15.172,5.122s-15.172-2.293-15.172-5.122,6.793-5.122,15.172-5.122S759.529,1208.182,759.529,1211.011Z" transform="translate(-729.185 -1205.888)" fill="#ffd686"/>
              <path id="Path_1031225" data-name="Path 1031225" d="M737.964,1217.6q12.891-4.361,25.8-8.714-.949-.344-2.043-.637-12.861,4.318-25.669,8.652C736.638,1217.154,737.277,1217.387,737.964,1217.6Z" transform="translate(-735.236 -1207.969)" fill="#ffda67"/>
              <path id="Path_1031226" data-name="Path 1031226" d="M785.951,1216.664A13.455,13.455,0,0,0,784,1215.7q-12.887,4.333-25.716,8.684c.9.252,1.869.476,2.9.668Q773.582,1220.862,785.951,1216.664Z" transform="translate(-754.804 -1214.527)" fill="#ffda67"/>
              <path id="Path_1031227" data-name="Path 1031227" d="M759.529,1211.011c0,2.829-6.793,5.122-15.172,5.122s-15.172-2.293-15.172-5.122,6.793-5.122,15.172-5.122S759.529,1208.182,759.529,1211.011Z" transform="translate(-729.185 -1205.888)" fill="#ffd686"/>
              <path id="Path_1031228" data-name="Path 1031228" d="M752.636,1206.709a39.148,39.148,0,0,0-8.279-.83c-8.379,0-15.172,2.293-15.172,5.122,0,1.028.9,1.985,2.447,2.788Q742.116,1210.245,752.636,1206.709Z" transform="translate(-729.185 -1205.879)" fill="#ffd686"/>
              <path id="Path_1031229" data-name="Path 1031229" d="M809.959,1239.681a42.526,42.526,0,0,0,5.522.351c8.38,0,15.172-2.293,15.172-5.122a2.547,2.547,0,0,0-1.056-1.878Q819.791,1236.36,809.959,1239.681Z" transform="translate(-800.309 -1229.787)" fill="#ffd686"/>
              <path id="Path_1031230" data-name="Path 1031230" d="M729.841,1211.357c0-2.829,6.793-5.122,15.172-5.122,5.164,0,9.723.872,12.464,2.2-2.628-1.524-7.518-2.55-13.119-2.55-8.379,0-15.172,2.293-15.172,5.122,0,1.086,1,2.091,2.709,2.92C730.591,1213.173,729.841,1212.295,729.841,1211.357Z" transform="translate(-729.185 -1205.886)" fill="#faa955"/>
            </g>
            <g id="Group_1184300" data-name="Group 1184300" transform="translate(12.353 2.568)">
              <path id="Path_1031231" data-name="Path 1031231" d="M811.883,1218.65h2.068v.576a16.645,16.645,0,0,1,4.336.644l-2.28.959a12.774,12.774,0,0,0-2.094-.442v1.216q4.747.488,4.747,1.809,0,.664-1.209,1.118a12.92,12.92,0,0,1-3.563.6v.732h-2.03v-.723h-.337a19.246,19.246,0,0,1-2.679-.219,10.724,10.724,0,0,1-2.38-.559l2.181-.922a12.224,12.224,0,0,0,3.215.606v-1.413a12.542,12.542,0,0,1-3.458-.673q-1.19-.479-1.19-1.11,0-.669,1.153-1.13a10.531,10.531,0,0,1,3.52-.5v-.568Zm-.025,2.738v-1.035q-1.159.135-1.159.5Q810.7,1221.25,811.858,1221.388Zm2.055,1.489v1.094q1.283-.109,1.284-.542Q815.2,1223.033,813.914,1222.877Z" transform="translate(-806.463 -1218.65)" fill="#fec463"/>
            </g>
            <g id="Group_1184301" data-name="Group 1184301" transform="translate(11.853 2.568)">
              <path id="Path_1031232" data-name="Path 1031232" d="M807.7,1218.65h2.068v.576a16.648,16.648,0,0,1,4.336.644l-2.28.959a12.755,12.755,0,0,0-2.093-.442v1.216q4.746.488,4.747,1.809,0,.664-1.209,1.118a12.913,12.913,0,0,1-3.563.6v.732h-2.031v-.723h-.336a19.252,19.252,0,0,1-2.679-.219,10.7,10.7,0,0,1-2.379-.559l2.181-.922a12.215,12.215,0,0,0,3.214.606v-1.413a12.532,12.532,0,0,1-3.457-.673q-1.191-.479-1.19-1.11,0-.669,1.153-1.13a10.527,10.527,0,0,1,3.52-.5v-.568Zm-.025,2.738v-1.035q-1.158.135-1.158.5Q806.52,1221.25,807.679,1221.388Zm2.056,1.489v1.094q1.283-.109,1.284-.542Q811.018,1223.033,809.734,1222.877Z" transform="translate(-802.284 -1218.65)" fill="#f9a65d"/>
            </g>
            <g id="Group_1184302" data-name="Group 1184302" transform="translate(12.353 2.568)">
              <path id="Path_1031233" data-name="Path 1031233" d="M811.883,1218.65h2.068v.576a16.645,16.645,0,0,1,4.336.644l-2.28.959a12.774,12.774,0,0,0-2.094-.442v1.216q4.747.488,4.747,1.809,0,.664-1.209,1.118a12.92,12.92,0,0,1-3.563.6v.732h-2.03v-.723h-.337a19.246,19.246,0,0,1-2.679-.219,10.724,10.724,0,0,1-2.38-.559l2.181-.922a12.224,12.224,0,0,0,3.215.606v-1.413a12.542,12.542,0,0,1-3.458-.673q-1.19-.479-1.19-1.11,0-.669,1.153-1.13a10.531,10.531,0,0,1,3.52-.5v-.568Zm-.025,2.738v-1.035q-1.159.135-1.159.5Q810.7,1221.25,811.858,1221.388Zm2.055,1.489v1.094q1.283-.109,1.284-.542Q815.2,1223.033,813.914,1222.877Z" transform="translate(-806.463 -1218.65)" fill="#fec463"/>
            </g>
            <path id="Path_1031234" data-name="Path 1031234" d="M756.381,1222.334q10.706-3.622,21.429-7.238a20.967,20.967,0,0,0-2.061-.631q-10.647,3.576-21.257,7.165A16.285,16.285,0,0,0,756.381,1222.334Z" transform="translate(-748.348 -1212.397)" fill="#fff3ce" opacity="0.4"/>
            <path id="Path_1031235" data-name="Path 1031235" d="M799.826,1222.89a9.915,9.915,0,0,0-1.867-1q-10.681,3.6-21.324,7.2a29.034,29.034,0,0,0,3,.635Q789.741,1226.311,799.826,1222.89Z" transform="translate(-767.846 -1218.934)" fill="#fff3ce" opacity="0.4"/>
          </g>
        </g>
      </g>
      <g id="Group_1184327" data-name="Group 1184327" transform="translate(125.365 176.319)">
        <g id="Group_1184308" data-name="Group 1184308" transform="translate(0 10.231)">
          <path id="Path_1031236" data-name="Path 1031236" d="M1056.044,1511.884H980.366l10.781-10.694h54.115Z" transform="translate(-980.366 -1501.19)" fill="#5470b4"/>
          <path id="Path_1031237" data-name="Path 1031237" d="M1094.235,1508.6c-1.485,0-2.976-.364-3.319-.8a.311.311,0,0,1-.063-.129H1047.3a.286.286,0,0,1-.069.168c-.344.438-1.837.8-3.324.8-.091,0-.18,0-.267,0l-5.487,6.161c.285-.026.572-.041.854-.041,1.806,0,2.842.554,2.3,1.262a1.345,1.345,0,0,1-.144.153h56.905a1.5,1.5,0,0,1-.226-.219c-.549-.684.4-1.222,2.1-1.254l-5.437-6.1C1094.415,1508.6,1094.325,1508.6,1094.235,1508.6Z" transform="translate(-1031.251 -1506.894)" fill="#88abd8"/>
          <path id="Path_1031238" data-name="Path 1031238" d="M1227.5,1514.482c.744,2.148-4.064,4.118-10.837,4.118s-11.58-1.971-10.837-4.118c.655-1.888,5.475-3.26,10.837-3.26S1226.841,1512.593,1227.5,1514.482Z" transform="translate(-1178.82 -1510.023)" fill="#5470b4"/>
          <g id="Group_1184306" data-name="Group 1184306" transform="translate(32.772 1.87)">
            <path id="Path_1031239" data-name="Path 1031239" d="M1259.26,1516.84h1.494l.013.384a13.667,13.667,0,0,1,3.236.442l-1.634.684a10.43,10.43,0,0,0-1.6-.319l.031.895c2.479.249,3.787.72,3.9,1.435.057.372-.228.692-.862.956a9.812,9.812,0,0,1-2.956.534l.023.679h-1.757l.012-.671h-.286a15.017,15.017,0,0,1-2.254-.2,7.822,7.822,0,0,1-1.93-.5l1.889-.785a9.346,9.346,0,0,0,2.6.512l.021-1.169a9.554,9.554,0,0,1-2.692-.528c-.589-.245-.859-.523-.817-.834s.365-.589.961-.8a8.528,8.528,0,0,1,2.611-.341Zm-.052,1.925.014-.757q-.875.1-.888.361C1258.324,1518.563,1258.615,1518.7,1259.207,1518.765Zm1.624,1.159.03.909q1.05-.093,1.025-.457C1261.873,1520.158,1261.519,1520.008,1260.831,1519.924Z" transform="translate(-1254.683 -1516.84)" fill="#88abd8"/>
          </g>
          <g id="Group_1184307" data-name="Group 1184307" transform="translate(15.045 3.499)">
            <path id="Path_1031240" data-name="Path 1031240" d="M1443.33,1531.438c.4.557-.621,1.023-2.3,1.023s-3.3-.466-3.594-1.023c-.289-.538.764-.96,2.343-.96S1442.94,1530.9,1443.33,1531.438Z" transform="translate(-1397.83 -1530.478)" fill="#5470b4"/>
            <path id="Path_1031241" data-name="Path 1031241" d="M1112.283,1531.438c-.3.557-1.913,1.023-3.594,1.023s-2.707-.466-2.3-1.023c.39-.538,1.976-.96,3.555-.96S1112.571,1530.9,1112.283,1531.438Z" transform="translate(-1106.297 -1530.478)" fill="#5470b4"/>
          </g>
        </g>
        <g id="Group_1184311" data-name="Group 1184311" transform="translate(0 10.231)">
          <path id="Path_1031242" data-name="Path 1031242" d="M1056.044,1511.884H980.366l10.781-10.694h54.115Z" transform="translate(-980.366 -1501.19)" fill="#4a63a0"/>
          <path id="Path_1031243" data-name="Path 1031243" d="M1094.235,1508.6c-1.485,0-2.976-.364-3.319-.8a.311.311,0,0,1-.063-.129H1047.3a.286.286,0,0,1-.069.168c-.344.438-1.837.8-3.324.8-.091,0-.18,0-.267,0l-5.487,6.161c.285-.026.572-.041.854-.041,1.806,0,2.842.554,2.3,1.262a1.345,1.345,0,0,1-.144.153h56.905a1.5,1.5,0,0,1-.226-.219c-.549-.684.4-1.222,2.1-1.254l-5.437-6.1C1094.415,1508.6,1094.325,1508.6,1094.235,1508.6Z" transform="translate(-1031.251 -1506.894)" fill="#88abd8"/>
          <path id="Path_1031244" data-name="Path 1031244" d="M1227.5,1514.482c.744,2.148-4.064,4.118-10.837,4.118s-11.58-1.971-10.837-4.118c.655-1.888,5.475-3.26,10.837-3.26S1226.841,1512.593,1227.5,1514.482Z" transform="translate(-1178.82 -1510.023)" fill="#5470b4"/>
          <g id="Group_1184309" data-name="Group 1184309" transform="translate(32.772 1.87)">
            <path id="Path_1031245" data-name="Path 1031245" d="M1259.26,1516.84h1.494l.013.384a13.667,13.667,0,0,1,3.236.442l-1.634.684a10.43,10.43,0,0,0-1.6-.319l.031.895c2.479.249,3.787.72,3.9,1.435.057.372-.228.692-.862.956a9.812,9.812,0,0,1-2.956.534l.023.679h-1.757l.012-.671h-.286a15.017,15.017,0,0,1-2.254-.2,7.822,7.822,0,0,1-1.93-.5l1.889-.785a9.346,9.346,0,0,0,2.6.512l.021-1.169a9.554,9.554,0,0,1-2.692-.528c-.589-.245-.859-.523-.817-.834s.365-.589.961-.8a8.528,8.528,0,0,1,2.611-.341Zm-.052,1.925.014-.757q-.875.1-.888.361C1258.324,1518.563,1258.615,1518.7,1259.207,1518.765Zm1.624,1.159.03.909q1.05-.093,1.025-.457C1261.873,1520.158,1261.519,1520.008,1260.831,1519.924Z" transform="translate(-1254.683 -1516.84)" fill="#88abd8"/>
          </g>
          <g id="Group_1184310" data-name="Group 1184310" transform="translate(15.045 3.499)">
            <path id="Path_1031246" data-name="Path 1031246" d="M1443.33,1531.438c.4.557-.621,1.023-2.3,1.023s-3.3-.466-3.594-1.023c-.289-.538.764-.96,2.343-.96S1442.94,1530.9,1443.33,1531.438Z" transform="translate(-1397.83 -1530.478)" fill="#5470b4"/>
            <path id="Path_1031247" data-name="Path 1031247" d="M1112.283,1531.438c-.3.557-1.913,1.023-3.594,1.023s-2.707-.466-2.3-1.023c.39-.538,1.976-.96,3.555-.96S1112.571,1530.9,1112.283,1531.438Z" transform="translate(-1106.297 -1530.478)" fill="#5470b4"/>
          </g>
        </g>
        <g id="Group_1184314" data-name="Group 1184314" transform="translate(0 8.185)">
          <path id="Path_1031248" data-name="Path 1031248" d="M1056.044,1494.754H980.366l10.781-10.694h54.115Z" transform="translate(-980.366 -1484.06)" fill="#506bad"/>
          <path id="Path_1031249" data-name="Path 1031249" d="M1094.235,1491.468c-1.485,0-2.976-.364-3.319-.8a.313.313,0,0,1-.063-.129H1047.3a.286.286,0,0,1-.069.168c-.344.438-1.837.8-3.324.8-.091,0-.18,0-.267,0l-5.487,6.161c.285-.026.572-.041.854-.041,1.806,0,2.842.554,2.3,1.262a1.345,1.345,0,0,1-.144.153h56.905a1.488,1.488,0,0,1-.226-.219c-.549-.685.4-1.223,2.1-1.254l-5.437-6.1C1094.415,1491.466,1094.325,1491.468,1094.235,1491.468Z" transform="translate(-1031.251 -1489.764)" fill="#88abd8"/>
          <path id="Path_1031250" data-name="Path 1031250" d="M1227.5,1497.356c.744,2.148-4.064,4.118-10.837,4.118s-11.58-1.97-10.837-4.118c.655-1.888,5.475-3.26,10.837-3.26S1226.841,1495.467,1227.5,1497.356Z" transform="translate(-1178.82 -1492.897)" fill="#5470b4"/>
          <g id="Group_1184312" data-name="Group 1184312" transform="translate(32.772 1.87)">
            <path id="Path_1031251" data-name="Path 1031251" d="M1259.26,1499.71h1.494l.013.384a13.648,13.648,0,0,1,3.236.442l-1.634.684a10.442,10.442,0,0,0-1.6-.319l.031.895c2.479.249,3.787.72,3.9,1.435.057.372-.228.692-.862.956a9.8,9.8,0,0,1-2.956.534l.023.679h-1.757l.012-.671h-.286a15.032,15.032,0,0,1-2.254-.2,7.82,7.82,0,0,1-1.93-.5l1.889-.785a9.347,9.347,0,0,0,2.6.512l.021-1.169a9.536,9.536,0,0,1-2.692-.528c-.589-.245-.859-.523-.817-.834s.365-.588.961-.8a8.529,8.529,0,0,1,2.611-.341Zm-.052,1.925.014-.757c-.583.065-.879.184-.888.362C1258.324,1501.434,1258.615,1501.565,1259.207,1501.635Zm1.624,1.16.03.909c.7-.062,1.042-.215,1.025-.457C1261.873,1503.028,1261.519,1502.878,1260.831,1502.795Z" transform="translate(-1254.683 -1499.71)" fill="#88abd8"/>
          </g>
          <g id="Group_1184313" data-name="Group 1184313" transform="translate(15.045 3.499)">
            <path id="Path_1031252" data-name="Path 1031252" d="M1443.33,1514.307c.4.557-.621,1.023-2.3,1.023s-3.3-.466-3.594-1.023c-.289-.537.764-.96,2.343-.96S1442.94,1513.769,1443.33,1514.307Z" transform="translate(-1397.83 -1513.347)" fill="#5470b4"/>
            <path id="Path_1031253" data-name="Path 1031253" d="M1112.283,1514.307c-.3.557-1.913,1.023-3.594,1.023s-2.707-.466-2.3-1.023c.39-.537,1.976-.96,3.555-.96S1112.571,1513.769,1112.283,1514.307Z" transform="translate(-1106.297 -1513.347)" fill="#5470b4"/>
          </g>
        </g>
        <g id="Group_1184317" data-name="Group 1184317" transform="translate(0 6.14)">
          <path id="Path_1031254" data-name="Path 1031254" d="M1056.044,1477.632H980.366l10.781-10.693h54.115Z" transform="translate(-980.366 -1466.94)" fill="#4a63a0"/>
          <path id="Path_1031255" data-name="Path 1031255" d="M1094.235,1474.348c-1.485,0-2.976-.364-3.319-.8a.31.31,0,0,1-.063-.129H1047.3a.286.286,0,0,1-.069.168c-.344.438-1.837.8-3.324.8-.091,0-.18,0-.267,0l-5.487,6.161c.285-.026.572-.04.854-.04,1.806,0,2.842.554,2.3,1.262a1.355,1.355,0,0,1-.144.153h56.905a1.5,1.5,0,0,1-.226-.219c-.549-.684.4-1.223,2.1-1.254l-5.437-6.1C1094.415,1474.346,1094.325,1474.348,1094.235,1474.348Z" transform="translate(-1031.251 -1472.644)" fill="#88abd8"/>
          <path id="Path_1031256" data-name="Path 1031256" d="M1227.5,1480.222c.744,2.147-4.064,4.118-10.837,4.118s-11.58-1.97-10.837-4.118c.655-1.889,5.475-3.26,10.837-3.26S1226.841,1478.333,1227.5,1480.222Z" transform="translate(-1178.82 -1475.765)" fill="#5470b4"/>
          <g id="Group_1184315" data-name="Group 1184315" transform="translate(32.772 1.869)">
            <path id="Path_1031257" data-name="Path 1031257" d="M1259.26,1482.58h1.494l.013.384a13.648,13.648,0,0,1,3.236.442l-1.634.684a10.472,10.472,0,0,0-1.6-.319l.031.895c2.479.249,3.787.72,3.9,1.435.057.372-.228.692-.862.956a9.813,9.813,0,0,1-2.956.534l.023.679h-1.757l.012-.671h-.286a15.046,15.046,0,0,1-2.254-.2,7.836,7.836,0,0,1-1.93-.5l1.889-.785a9.351,9.351,0,0,0,2.6.512l.021-1.169a9.547,9.547,0,0,1-2.692-.528c-.589-.244-.859-.523-.817-.834s.365-.589.961-.8a8.531,8.531,0,0,1,2.611-.341Zm-.052,1.924.014-.756q-.875.1-.888.362C1258.324,1484.3,1258.615,1484.437,1259.207,1484.5Zm1.624,1.16.03.909c.7-.062,1.042-.215,1.025-.457C1261.873,1485.9,1261.519,1485.748,1260.831,1485.665Z" transform="translate(-1254.683 -1482.58)" fill="#88abd8"/>
          </g>
          <g id="Group_1184316" data-name="Group 1184316" transform="translate(15.045 3.497)">
            <path id="Path_1031258" data-name="Path 1031258" d="M1443.33,1497.173c.4.557-.621,1.022-2.3,1.022s-3.3-.466-3.594-1.022c-.289-.538.764-.96,2.343-.96S1442.94,1496.636,1443.33,1497.173Z" transform="translate(-1397.83 -1496.213)" fill="#5470b4"/>
            <path id="Path_1031259" data-name="Path 1031259" d="M1112.283,1497.173c-.3.557-1.913,1.022-3.594,1.022s-2.707-.466-2.3-1.022c.39-.538,1.976-.96,3.555-.96S1112.571,1496.636,1112.283,1497.173Z" transform="translate(-1106.297 -1496.213)" fill="#5470b4"/>
          </g>
        </g>
        <g id="Group_1184320" data-name="Group 1184320" transform="translate(0 4.093)">
          <path id="Path_1031260" data-name="Path 1031260" d="M1056.044,1460.5H980.366l10.781-10.693h54.115Z" transform="translate(-980.366 -1449.81)" fill="#5470b4"/>
          <path id="Path_1031261" data-name="Path 1031261" d="M1094.235,1457.218c-1.485,0-2.976-.364-3.319-.8a.311.311,0,0,1-.063-.129H1047.3a.286.286,0,0,1-.069.168c-.344.438-1.837.8-3.324.8-.091,0-.18,0-.267,0l-5.487,6.161c.285-.025.572-.04.854-.04,1.806,0,2.842.554,2.3,1.262a1.345,1.345,0,0,1-.144.153h56.905a1.5,1.5,0,0,1-.226-.219c-.549-.685.4-1.223,2.1-1.254l-5.437-6.1C1094.415,1457.215,1094.325,1457.218,1094.235,1457.218Z" transform="translate(-1031.251 -1455.514)" fill="#88abd8"/>
          <path id="Path_1031262" data-name="Path 1031262" d="M1227.5,1463.1c.744,2.148-4.064,4.119-10.837,4.119s-11.58-1.97-10.837-4.119c.655-1.888,5.475-3.26,10.837-3.26S1226.841,1461.207,1227.5,1463.1Z" transform="translate(-1178.82 -1458.638)" fill="#5470b4"/>
          <g id="Group_1184318" data-name="Group 1184318" transform="translate(32.772 1.868)">
            <path id="Path_1031263" data-name="Path 1031263" d="M1259.26,1465.45h1.494l.013.384a13.655,13.655,0,0,1,3.236.442l-1.634.684a10.442,10.442,0,0,0-1.6-.319l.031.895c2.479.249,3.787.72,3.9,1.435.057.372-.228.692-.862.956a9.8,9.8,0,0,1-2.956.534l.023.679h-1.757l.012-.671h-.286a15.033,15.033,0,0,1-2.254-.2,7.8,7.8,0,0,1-1.93-.5l1.889-.784a9.379,9.379,0,0,0,2.6.511l.021-1.169a9.539,9.539,0,0,1-2.692-.528c-.589-.245-.859-.523-.817-.833s.365-.589.961-.8a8.529,8.529,0,0,1,2.611-.341Zm-.052,1.926.014-.757c-.583.064-.879.184-.888.361C1258.324,1467.174,1258.615,1467.307,1259.207,1467.376Zm1.624,1.159.03.909c.7-.062,1.042-.215,1.025-.457C1261.873,1468.769,1261.519,1468.618,1260.831,1468.535Z" transform="translate(-1254.683 -1465.45)" fill="#88abd8"/>
          </g>
          <g id="Group_1184319" data-name="Group 1184319" transform="translate(15.045 3.498)">
            <path id="Path_1031264" data-name="Path 1031264" d="M1443.33,1480.047c.4.557-.621,1.023-2.3,1.023s-3.3-.466-3.594-1.023c-.289-.537.764-.96,2.343-.96S1442.94,1479.51,1443.33,1480.047Z" transform="translate(-1397.83 -1479.087)" fill="#5470b4"/>
            <path id="Path_1031265" data-name="Path 1031265" d="M1112.283,1480.047c-.3.557-1.913,1.023-3.594,1.023s-2.707-.466-2.3-1.023c.39-.537,1.976-.96,3.555-.96S1112.571,1479.51,1112.283,1480.047Z" transform="translate(-1106.297 -1479.087)" fill="#5470b4"/>
          </g>
        </g>
        <g id="Group_1184323" data-name="Group 1184323" transform="translate(0 2.047)">
          <path id="Path_1031266" data-name="Path 1031266" d="M1056.044,1443.373H980.366l10.781-10.693h54.115Z" transform="translate(-980.366 -1432.68)" fill="#4a63a0"/>
          <path id="Path_1031267" data-name="Path 1031267" d="M1094.235,1440.088c-1.485,0-2.976-.364-3.319-.8a.309.309,0,0,1-.063-.129H1047.3a.285.285,0,0,1-.069.168c-.344.438-1.837.8-3.324.8-.091,0-.18,0-.267,0l-5.487,6.161c.285-.026.572-.04.854-.04,1.806,0,2.842.554,2.3,1.261a1.336,1.336,0,0,1-.144.153h56.905a1.5,1.5,0,0,1-.226-.219c-.549-.685.4-1.223,2.1-1.254l-5.437-6.1C1094.415,1440.087,1094.325,1440.088,1094.235,1440.088Z" transform="translate(-1031.251 -1438.384)" fill="#88abd8"/>
          <path id="Path_1031268" data-name="Path 1031268" d="M1227.5,1445.972c.744,2.148-4.064,4.118-10.837,4.118s-11.58-1.97-10.837-4.118c.655-1.889,5.475-3.26,10.837-3.26S1226.841,1444.083,1227.5,1445.972Z" transform="translate(-1178.82 -1441.514)" fill="#5470b4"/>
          <g id="Group_1184321" data-name="Group 1184321" transform="translate(32.772 1.87)">
            <path id="Path_1031269" data-name="Path 1031269" d="M1259.26,1448.33h1.494l.013.385a13.648,13.648,0,0,1,3.236.442l-1.634.684a10.425,10.425,0,0,0-1.6-.319l.031.895c2.479.249,3.787.72,3.9,1.435.057.372-.228.692-.862.956a9.8,9.8,0,0,1-2.956.534l.023.679h-1.757l.012-.671h-.286a15.017,15.017,0,0,1-2.254-.2,7.821,7.821,0,0,1-1.93-.5l1.889-.784a9.37,9.37,0,0,0,2.6.511l.021-1.169a9.54,9.54,0,0,1-2.692-.528c-.589-.245-.859-.523-.817-.834s.365-.589.961-.8a8.533,8.533,0,0,1,2.611-.341Zm-.052,1.923.014-.757c-.583.064-.879.184-.888.362C1258.324,1450.053,1258.615,1450.186,1259.207,1450.253Zm1.624,1.16.03.909c.7-.062,1.042-.215,1.025-.457C1261.873,1451.648,1261.519,1451.5,1260.831,1451.414Z" transform="translate(-1254.683 -1448.33)" fill="#88abd8"/>
          </g>
          <g id="Group_1184322" data-name="Group 1184322" transform="translate(15.045 3.498)">
            <path id="Path_1031270" data-name="Path 1031270" d="M1443.33,1462.923c.4.556-.621,1.022-2.3,1.022s-3.3-.466-3.594-1.022c-.289-.537.764-.96,2.343-.96S1442.94,1462.386,1443.33,1462.923Z" transform="translate(-1397.83 -1461.963)" fill="#5470b4"/>
            <path id="Path_1031271" data-name="Path 1031271" d="M1112.283,1462.923c-.3.556-1.913,1.022-3.594,1.022s-2.707-.466-2.3-1.022c.39-.537,1.976-.96,3.555-.96S1112.571,1462.386,1112.283,1462.923Z" transform="translate(-1106.297 -1461.963)" fill="#5470b4"/>
          </g>
        </g>
        <g id="Group_1184326" data-name="Group 1184326">
          <path id="Path_1031272" data-name="Path 1031272" d="M1056.044,1426.243H980.366l10.781-10.693h54.115Z" transform="translate(-980.366 -1415.55)" fill="#5470b4"/>
          <path id="Path_1031273" data-name="Path 1031273" d="M1094.235,1422.962c-1.485,0-2.976-.364-3.319-.8a.312.312,0,0,1-.063-.129H1047.3a.286.286,0,0,1-.069.168c-.344.438-1.837.8-3.324.8-.091,0-.18,0-.267,0l-5.487,6.161c.285-.025.572-.04.854-.04,1.806,0,2.842.554,2.3,1.262a1.353,1.353,0,0,1-.144.153h56.905a1.488,1.488,0,0,1-.226-.219c-.549-.684.4-1.223,2.1-1.254l-5.437-6.1C1094.415,1422.961,1094.325,1422.962,1094.235,1422.962Z" transform="translate(-1031.251 -1421.259)" fill="#88abd8"/>
          <path id="Path_1031274" data-name="Path 1031274" d="M1227.5,1428.841c.744,2.147-4.064,4.118-10.837,4.118s-11.58-1.97-10.837-4.118c.655-1.889,5.475-3.26,10.837-3.26S1226.841,1426.953,1227.5,1428.841Z" transform="translate(-1178.82 -1424.383)" fill="#5470b4"/>
          <g id="Group_1184324" data-name="Group 1184324" transform="translate(32.772 1.87)">
            <path id="Path_1031275" data-name="Path 1031275" d="M1259.26,1431.2h1.494l.013.384a13.661,13.661,0,0,1,3.236.442l-1.634.684a10.472,10.472,0,0,0-1.6-.319l.031.9c2.479.248,3.787.72,3.9,1.435.057.372-.228.692-.862.957a9.821,9.821,0,0,1-2.956.535l.023.678h-1.757l.012-.671h-.286a15.066,15.066,0,0,1-2.254-.2,7.81,7.81,0,0,1-1.93-.5l1.889-.784a9.361,9.361,0,0,0,2.6.511l.021-1.169a9.536,9.536,0,0,1-2.692-.528c-.589-.245-.859-.523-.817-.833s.365-.589.961-.8a8.525,8.525,0,0,1,2.611-.341Zm-.052,1.925.014-.757q-.875.1-.888.362C1258.324,1432.923,1258.615,1433.055,1259.207,1433.125Zm1.624,1.159.03.909q1.05-.093,1.025-.457C1261.873,1434.518,1261.519,1434.367,1260.831,1434.284Z" transform="translate(-1254.683 -1431.2)" fill="#88abd8"/>
          </g>
          <g id="Group_1184325" data-name="Group 1184325" transform="translate(15.045 3.498)">
            <path id="Path_1031276" data-name="Path 1031276" d="M1443.33,1445.793c.4.556-.621,1.022-2.3,1.022s-3.3-.466-3.594-1.022c-.289-.538.764-.96,2.343-.96S1442.94,1445.256,1443.33,1445.793Z" transform="translate(-1397.83 -1444.833)" fill="#5470b4"/>
            <path id="Path_1031277" data-name="Path 1031277" d="M1112.283,1445.793c-.3.556-1.913,1.022-3.594,1.022s-2.707-.466-2.3-1.022c.39-.538,1.976-.96,3.555-.96S1112.571,1445.256,1112.283,1445.793Z" transform="translate(-1106.297 -1444.833)" fill="#5470b4"/>
          </g>
        </g>
      </g>
    </g>
  </g>
</svg>
