<svg xmlns="http://www.w3.org/2000/svg" width="243.966" height="163" viewBox="0 0 243.966 163">
  <g id="img30" transform="translate(-314.686 -10557)">
    <rect id="Rectangle_458860" data-name="Rectangle 458860" width="243.966" height="163" rx="10" transform="translate(314.686 10557)" fill="#f9ce5d"/>
    <g id="_5213521_48799" data-name="5213521_48799" transform="translate(192.979 10264.124)">
      <g id="Group_1184100" data-name="Group 1184100" transform="translate(184.02 302.121)">
        <rect id="Rectangle_459257" data-name="Rectangle 459257" width="99.145" height="130.856" transform="translate(0 0)" fill="#fdebf3" stroke="#976ea2" stroke-miterlimit="10" stroke-width="2"/>
        <rect id="Rectangle_459258" data-name="Rectangle 459258" width="83.568" height="6.252" transform="translate(8.059 9.38)" fill="#976ea2"/>
        <rect id="Rectangle_459259" data-name="Rectangle 459259" width="57.814" height="4.019" transform="translate(8.059 18.312)" fill="#4965a2"/>
        <rect id="Rectangle_459260" data-name="Rectangle 459260" width="52.743" height="4.019" transform="translate(38.884 79.05)" fill="#4965a2"/>
        <rect id="Rectangle_459261" data-name="Rectangle 459261" width="52.545" height="4.019" transform="translate(39.082 86.394)" fill="#c2c4c6"/>
        <rect id="Rectangle_459262" data-name="Rectangle 459262" width="47.185" height="4.02" transform="translate(7.967 70.018)" fill="#c2c4c6"/>
        <rect id="Rectangle_459263" data-name="Rectangle 459263" width="44.209" height="4.019" transform="translate(7.967 63.914)" fill="#c2c4c6"/>
        <rect id="Rectangle_459264" data-name="Rectangle 459264" width="36.466" height="4.019" transform="translate(8.165 57.562)" fill="#c2c4c6"/>
        <rect id="Rectangle_459265" data-name="Rectangle 459265" width="52.743" height="4.019" transform="translate(38.884 93.441)" fill="#c2c4c6"/>
        <rect id="Rectangle_459266" data-name="Rectangle 459266" width="51.567" height="4.019" transform="translate(8.059 101.083)" fill="#c2c4c6"/>
        <rect id="Rectangle_459267" data-name="Rectangle 459267" width="51.567" height="4.019" transform="translate(8.059 108.23)" fill="#c2c4c6"/>
        <rect id="Rectangle_459268" data-name="Rectangle 459268" width="51.567" height="4.019" transform="translate(8.059 115.773)" fill="#c2c4c6"/>
        <rect id="Rectangle_459269" data-name="Rectangle 459269" width="83.568" height="3.573" transform="translate(8.059 26.797)" fill="#c2c4c6"/>
        <rect id="Rectangle_459270" data-name="Rectangle 459270" width="23.426" height="19.65" transform="translate(8.059 78.603)" fill="#916ea2" opacity="0.7"/>
        <path id="Path_1030829" data-name="Path 1030829" d="M613.782,717.2l13.994-11.413,16.475-3.573" transform="translate(-596.295 -664.364)" fill="none" stroke="#4965a2" stroke-miterlimit="10" stroke-width="5.54"/>
        <rect id="Rectangle_459271" data-name="Rectangle 459271" width="5.36" height="5.359" transform="translate(14.807 50.158)" fill="#e27ca3"/>
        <rect id="Rectangle_459272" data-name="Rectangle 459272" width="5.36" height="5.36" transform="translate(45.178 35.469)" fill="#e27ca3"/>
        <rect id="Rectangle_459273" data-name="Rectangle 459273" width="5.36" height="5.359" transform="translate(28.802 38.745)" fill="#e27ca3"/>
        <g id="Group_1184097" data-name="Group 1184097" transform="translate(55.007 37.209)">
          <path id="Path_1030830" data-name="Path 1030830" d="M1026.751,695.432c-.113,0-.227,0-.341,0a16.034,16.034,0,0,0-16.031,15.694h16.372Z" transform="translate(-1010.379 -695.428)" fill="#4865a2" opacity="0.7"/>
          <path id="Path_1030831" data-name="Path 1030831" d="M1035.585,893.78c0,.114,0,.227,0,.341a16.035,16.035,0,1,0,32.07,0c0-.114,0-.227,0-.341Z" transform="translate(-1033.197 -875.015)" fill="#916ea2" opacity="0.7"/>
          <path id="Path_1030832" data-name="Path 1030832" d="M1221.066,893.78H1205.03v16.377h0a16.035,16.035,0,0,0,16.036-16.036C1221.069,894.007,1221.067,893.894,1221.066,893.78Z" transform="translate(-1186.615 -875.015)" fill="#4965a2"/>
          <path id="Path_1030833" data-name="Path 1030833" d="M1221.935,743.726c-.177-8.471-7.518-15.326-15.945-15.679v15.679Z" transform="translate(-1187.484 -724.961)" fill="#e76c63"/>
        </g>
        <g id="Group_1184099" data-name="Group 1184099" transform="translate(62.829 101.101)">
          <g id="Group_1184098" data-name="Group 1184098">
            <rect id="Rectangle_459274" data-name="Rectangle 459274" width="5.627" height="18.85" transform="translate(23.17)" fill="#916ea2" opacity="0.7"/>
            <rect id="Rectangle_459275" data-name="Rectangle 459275" width="5.628" height="14.428" transform="translate(15.534 4.422)" fill="#4865a2" opacity="0.7"/>
            <rect id="Rectangle_459276" data-name="Rectangle 459276" width="5.627" height="5.885" transform="translate(0 12.965)" fill="#4865a2" opacity="0.7"/>
            <rect id="Rectangle_459277" data-name="Rectangle 459277" width="5.628" height="10.307" transform="translate(7.504 8.543)" fill="#976ea2" opacity="0.7"/>
          </g>
        </g>
      </g>
      <g id="Group_1184143" data-name="Group 1184143" transform="translate(158.429 407.753)">
        <g id="Group_1184121" data-name="Group 1184121" transform="translate(0 13.59)">
          <g id="Group_1184105" data-name="Group 1184105" transform="translate(0 10.439)">
            <path id="Path_1030834" data-name="Path 1030834" d="M190.431,1702.11c-2.748-1.883-8.487-3.178-15.123-3.178s-12.375,1.295-15.123,3.178h-1.757v2.511h.028c0,3.142,7.545,5.689,16.852,5.689s16.851-2.547,16.851-5.689v-2.511Z" transform="translate(-158.429 -1696.447)" fill="#f9a65d"/>
            <path id="Path_1030835" data-name="Path 1030835" d="M192.426,1678.353c0,3.142-7.544,5.689-16.851,5.689s-16.852-2.547-16.852-5.689,7.545-5.689,16.852-5.689S192.426,1675.211,192.426,1678.353Z" transform="translate(-158.695 -1672.664)" fill="#fec463"/>
            <g id="Group_1184101" data-name="Group 1184101" transform="translate(2.88 0.962)">
              <path id="Path_1030836" data-name="Path 1030836" d="M216.869,1687.564c0,2.609-6.267,4.726-14,4.726s-14-2.116-14-4.726,6.267-4.727,14-4.727S216.869,1684.953,216.869,1687.564Z" transform="translate(-188.87 -1682.837)" fill="#ffd686"/>
              <path id="Path_1030837" data-name="Path 1030837" d="M198.636,1694.223q11.9-4.024,23.811-8.04-.875-.316-1.886-.588-11.868,3.984-23.685,7.984C197.412,1693.807,198,1694.024,198.636,1694.223Z" transform="translate(-196.119 -1685.333)" fill="#ffda67"/>
              <path id="Path_1030838" data-name="Path 1030838" d="M248.308,1695.166a12.559,12.559,0,0,0-1.8-.889q-11.89,4-23.729,8.013c.827.233,1.724.439,2.675.616Q236.894,1699.041,248.308,1695.166Z" transform="translate(-219.567 -1693.194)" fill="#ffda67"/>
              <path id="Path_1030839" data-name="Path 1030839" d="M216.869,1687.564c0,2.609-6.267,4.726-14,4.726s-14-2.116-14-4.726,6.267-4.727,14-4.727S216.869,1684.953,216.869,1687.564Z" transform="translate(-188.87 -1682.837)" fill="#ffd686"/>
              <path id="Path_1030840" data-name="Path 1030840" d="M210.509,1683.6a36.145,36.145,0,0,0-7.639-.767c-7.732,0-14,2.116-14,4.727,0,.949.831,1.831,2.257,2.572Q200.8,1686.86,210.509,1683.6Z" transform="translate(-188.87 -1682.833)" fill="#ffd686"/>
              <path id="Path_1030841" data-name="Path 1030841" d="M282.994,1720.61a39.226,39.226,0,0,0,5.1.323c7.732,0,14-2.116,14-4.726a2.349,2.349,0,0,0-.975-1.734Q292.066,1717.546,282.994,1720.61Z" transform="translate(-274.089 -1711.48)" fill="#ffd686"/>
              <path id="Path_1030842" data-name="Path 1030842" d="M189.475,1687.878c0-2.61,6.268-4.725,14-4.725,4.766,0,8.972.8,11.5,2.032-2.425-1.408-6.937-2.353-12.106-2.353-7.732,0-14,2.116-14,4.727,0,1,.926,1.93,2.5,2.693C190.167,1689.554,189.475,1688.744,189.475,1687.878Z" transform="translate(-188.87 -1682.831)" fill="#faa955"/>
            </g>
            <g id="Group_1184102" data-name="Group 1184102" transform="translate(11.398 2.369)">
              <path id="Path_1030843" data-name="Path 1030843" d="M283.911,1697.71h1.908v.531a15.355,15.355,0,0,1,4,.594l-2.1.885a11.854,11.854,0,0,0-1.932-.408v1.122q4.38.45,4.381,1.669,0,.614-1.116,1.033a11.9,11.9,0,0,1-3.287.55v.676h-1.874v-.667h-.311a17.9,17.9,0,0,1-2.472-.2,9.943,9.943,0,0,1-2.2-.517l2.013-.85a11.253,11.253,0,0,0,2.966.559v-1.3a11.573,11.573,0,0,1-3.191-.62q-1.1-.444-1.1-1.025,0-.617,1.063-1.043a9.721,9.721,0,0,1,3.248-.46v-.523Zm-.023,2.527v-.955q-1.069.125-1.069.462C282.819,1699.987,283.175,1700.151,283.888,1700.237Zm1.9,1.374v1.009q1.184-.1,1.184-.5Q286.969,1701.755,285.785,1701.61Z" transform="translate(-278.909 -1697.71)" fill="#fec463"/>
            </g>
            <g id="Group_1184103" data-name="Group 1184103" transform="translate(10.938 2.369)">
              <path id="Path_1030844" data-name="Path 1030844" d="M279.045,1697.71h1.91v.531a15.361,15.361,0,0,1,4,.594l-2.1.885a11.825,11.825,0,0,0-1.93-.408v1.122q4.379.45,4.379,1.669,0,.614-1.115,1.033a11.908,11.908,0,0,1-3.288.55v.676h-1.873v-.667h-.31a17.9,17.9,0,0,1-2.472-.2,9.918,9.918,0,0,1-2.2-.517l2.011-.85a11.265,11.265,0,0,0,2.967.559v-1.3a11.563,11.563,0,0,1-3.19-.62q-1.1-.444-1.1-1.025,0-.617,1.064-1.043a9.714,9.714,0,0,1,3.247-.46v-.523Zm-.022,2.527v-.955q-1.069.125-1.07.462C277.953,1699.987,278.31,1700.151,279.022,1700.237Zm1.9,1.374v1.009q1.184-.1,1.185-.5Q282.1,1701.755,280.919,1701.61Z" transform="translate(-274.044 -1697.71)" fill="#f9a65d"/>
            </g>
            <g id="Group_1184104" data-name="Group 1184104" transform="translate(11.398 2.369)">
              <path id="Path_1030845" data-name="Path 1030845" d="M283.911,1697.71h1.908v.531a15.355,15.355,0,0,1,4,.594l-2.1.885a11.854,11.854,0,0,0-1.932-.408v1.122q4.38.45,4.381,1.669,0,.614-1.116,1.033a11.9,11.9,0,0,1-3.287.55v.676h-1.874v-.667h-.311a17.9,17.9,0,0,1-2.472-.2,9.943,9.943,0,0,1-2.2-.517l2.013-.85a11.253,11.253,0,0,0,2.966.559v-1.3a11.573,11.573,0,0,1-3.191-.62q-1.1-.444-1.1-1.025,0-.617,1.063-1.043a9.721,9.721,0,0,1,3.248-.46v-.523Zm-.023,2.527v-.955q-1.069.125-1.069.462C282.819,1699.987,283.175,1700.151,283.888,1700.237Zm1.9,1.374v1.009q1.184-.1,1.184-.5Q286.969,1701.755,285.785,1701.61Z" transform="translate(-278.909 -1697.71)" fill="#fec463"/>
            </g>
            <path id="Path_1030846" data-name="Path 1030846" d="M220.1,1700.1q9.878-3.341,19.773-6.679a19.673,19.673,0,0,0-1.9-.583q-9.823,3.3-19.613,6.612A15.072,15.072,0,0,0,220.1,1700.1Z" transform="translate(-212.69 -1690.928)" fill="#fff3ce" opacity="0.4"/>
            <path id="Path_1030847" data-name="Path 1030847" d="M265.553,1702.4a9.158,9.158,0,0,0-1.722-.923q-9.856,3.319-19.678,6.646a27.028,27.028,0,0,0,2.768.587Q256.247,1705.563,265.553,1702.4Z" transform="translate(-236.044 -1698.755)" fill="#fff3ce" opacity="0.4"/>
          </g>
          <g id="Group_1184110" data-name="Group 1184110" transform="translate(0 7.072)">
            <path id="Path_1030848" data-name="Path 1030848" d="M190.431,1666.52c-2.748-1.882-8.487-3.178-15.123-3.178s-12.375,1.3-15.123,3.178h-1.757v2.511h.028c0,3.142,7.545,5.689,16.852,5.689s16.851-2.547,16.851-5.689v-2.511Z" transform="translate(-158.429 -1660.857)" fill="#f9a65d"/>
            <path id="Path_1030849" data-name="Path 1030849" d="M192.426,1642.768c0,3.142-7.544,5.689-16.851,5.689s-16.852-2.547-16.852-5.689,7.545-5.689,16.852-5.689S192.426,1639.626,192.426,1642.768Z" transform="translate(-158.695 -1637.079)" fill="#fec463"/>
            <g id="Group_1184106" data-name="Group 1184106" transform="translate(2.88 0.961)">
              <path id="Path_1030850" data-name="Path 1030850" d="M216.869,1651.974c0,2.61-6.267,4.725-14,4.725s-14-2.116-14-4.725,6.267-4.727,14-4.727S216.869,1649.363,216.869,1651.974Z" transform="translate(-188.87 -1647.246)" fill="#ffd686"/>
              <path id="Path_1030851" data-name="Path 1030851" d="M198.636,1658.632q11.9-4.022,23.811-8.04-.875-.316-1.886-.587-11.868,3.983-23.685,7.984A18.6,18.6,0,0,0,198.636,1658.632Z" transform="translate(-196.119 -1649.743)" fill="#ffda67"/>
              <path id="Path_1030852" data-name="Path 1030852" d="M248.308,1659.57a12.509,12.509,0,0,0-1.8-.888q-11.89,4-23.729,8.013c.827.234,1.724.439,2.675.616Q236.894,1663.447,248.308,1659.57Z" transform="translate(-219.567 -1657.6)" fill="#ffda67"/>
              <path id="Path_1030853" data-name="Path 1030853" d="M216.869,1651.974c0,2.61-6.267,4.725-14,4.725s-14-2.116-14-4.725,6.267-4.727,14-4.727S216.869,1649.363,216.869,1651.974Z" transform="translate(-188.87 -1647.246)" fill="#ffd686"/>
              <path id="Path_1030854" data-name="Path 1030854" d="M210.509,1648.01a36.1,36.1,0,0,0-7.639-.767c-7.732,0-14,2.116-14,4.727,0,.949.831,1.832,2.257,2.572Q200.8,1651.27,210.509,1648.01Z" transform="translate(-188.87 -1647.243)" fill="#ffd686"/>
              <path id="Path_1030855" data-name="Path 1030855" d="M282.994,1685.019a38.988,38.988,0,0,0,5.1.324c7.732,0,14-2.116,14-4.725a2.348,2.348,0,0,0-.975-1.733Q292.066,1681.956,282.994,1685.019Z" transform="translate(-274.089 -1675.891)" fill="#ffd686"/>
              <path id="Path_1030856" data-name="Path 1030856" d="M189.475,1652.288c0-2.61,6.268-4.726,14-4.726,4.766,0,8.972.8,11.5,2.033-2.425-1.408-6.937-2.354-12.106-2.354-7.732,0-14,2.116-14,4.727,0,1,.926,1.93,2.5,2.694C190.167,1653.964,189.475,1653.154,189.475,1652.288Z" transform="translate(-188.87 -1647.241)" fill="#faa955"/>
            </g>
            <g id="Group_1184107" data-name="Group 1184107" transform="translate(11.398 2.369)">
              <path id="Path_1030857" data-name="Path 1030857" d="M283.911,1662.12h1.908v.532a15.329,15.329,0,0,1,4,.594l-2.1.884a11.89,11.89,0,0,0-1.932-.407v1.122q4.38.45,4.381,1.669,0,.613-1.116,1.033a11.934,11.934,0,0,1-3.287.551v.676h-1.874v-.667h-.311a17.873,17.873,0,0,1-2.472-.2,9.913,9.913,0,0,1-2.2-.517l2.013-.849a11.243,11.243,0,0,0,2.966.559v-1.3a11.537,11.537,0,0,1-3.191-.621q-1.1-.443-1.1-1.024,0-.617,1.063-1.042a9.7,9.7,0,0,1,3.248-.461v-.523Zm-.023,2.527v-.955q-1.069.125-1.069.462Q282.819,1664.519,283.888,1664.647Zm1.9,1.375v1.008q1.184-.1,1.184-.5Q286.969,1666.164,285.785,1666.022Z" transform="translate(-278.909 -1662.12)" fill="#fec463"/>
            </g>
            <g id="Group_1184108" data-name="Group 1184108" transform="translate(10.938 2.369)">
              <path id="Path_1030858" data-name="Path 1030858" d="M279.045,1662.12h1.91v.532a15.336,15.336,0,0,1,4,.594l-2.1.884a11.86,11.86,0,0,0-1.93-.407v1.122q4.379.45,4.379,1.669,0,.613-1.115,1.033a11.942,11.942,0,0,1-3.288.551v.676h-1.873v-.667h-.31a17.865,17.865,0,0,1-2.472-.2,9.889,9.889,0,0,1-2.2-.517l2.011-.849a11.254,11.254,0,0,0,2.967.559v-1.3a11.526,11.526,0,0,1-3.19-.621q-1.1-.443-1.1-1.024,0-.617,1.064-1.042a9.7,9.7,0,0,1,3.247-.461v-.523Zm-.022,2.527v-.955q-1.069.125-1.07.462Q277.953,1664.519,279.022,1664.647Zm1.9,1.375v1.008q1.184-.1,1.185-.5Q282.1,1666.164,280.919,1666.022Z" transform="translate(-274.044 -1662.12)" fill="#f9a65d"/>
            </g>
            <g id="Group_1184109" data-name="Group 1184109" transform="translate(11.398 2.369)">
              <path id="Path_1030859" data-name="Path 1030859" d="M283.911,1662.12h1.908v.532a15.329,15.329,0,0,1,4,.594l-2.1.884a11.89,11.89,0,0,0-1.932-.407v1.122q4.38.45,4.381,1.669,0,.613-1.116,1.033a11.934,11.934,0,0,1-3.287.551v.676h-1.874v-.667h-.311a17.873,17.873,0,0,1-2.472-.2,9.913,9.913,0,0,1-2.2-.517l2.013-.849a11.243,11.243,0,0,0,2.966.559v-1.3a11.537,11.537,0,0,1-3.191-.621q-1.1-.443-1.1-1.024,0-.617,1.063-1.042a9.7,9.7,0,0,1,3.248-.461v-.523Zm-.023,2.527v-.955q-1.069.125-1.069.462Q282.819,1664.519,283.888,1664.647Zm1.9,1.375v1.008q1.184-.1,1.184-.5Q286.969,1666.164,285.785,1666.022Z" transform="translate(-278.909 -1662.12)" fill="#fec463"/>
            </g>
            <path id="Path_1030860" data-name="Path 1030860" d="M220.1,1664.507q9.878-3.342,19.773-6.679a19.274,19.274,0,0,0-1.9-.582q-9.823,3.3-19.613,6.611A15.205,15.205,0,0,0,220.1,1664.507Z" transform="translate(-212.69 -1655.338)" fill="#fff3ce" opacity="0.4"/>
            <path id="Path_1030861" data-name="Path 1030861" d="M265.553,1666.812a9.06,9.06,0,0,0-1.722-.925q-9.856,3.319-19.678,6.646a26.963,26.963,0,0,0,2.768.587Q256.247,1669.97,265.553,1666.812Z" transform="translate(-236.044 -1663.162)" fill="#fff3ce" opacity="0.4"/>
          </g>
          <g id="Group_1184115" data-name="Group 1184115" transform="translate(0 3.368)">
            <path id="Path_1030862" data-name="Path 1030862" d="M190.431,1627.359c-2.748-1.882-8.487-3.177-15.123-3.177s-12.375,1.3-15.123,3.177h-1.757v2.511h.028c0,3.142,7.545,5.689,16.852,5.689s16.851-2.547,16.851-5.689v-2.511Z" transform="translate(-158.429 -1621.698)" fill="#f9a65d"/>
            <path id="Path_1030863" data-name="Path 1030863" d="M192.426,1603.618c0,3.142-7.544,5.689-16.851,5.689s-16.852-2.547-16.852-5.689,7.545-5.689,16.852-5.689S192.426,1600.476,192.426,1603.618Z" transform="translate(-158.695 -1597.929)" fill="#fec463"/>
            <g id="Group_1184111" data-name="Group 1184111" transform="translate(2.88 0.962)">
              <path id="Path_1030864" data-name="Path 1030864" d="M216.869,1612.828c0,2.61-6.267,4.725-14,4.725s-14-2.116-14-4.725,6.267-4.726,14-4.726S216.869,1610.217,216.869,1612.828Z" transform="translate(-188.87 -1608.101)" fill="#ffd686"/>
              <path id="Path_1030865" data-name="Path 1030865" d="M198.636,1619.488q11.9-4.023,23.811-8.041-.875-.316-1.886-.587-11.868,3.983-23.685,7.984C197.412,1619.074,198,1619.288,198.636,1619.488Z" transform="translate(-196.119 -1610.599)" fill="#ffda67"/>
              <path id="Path_1030866" data-name="Path 1030866" d="M248.308,1620.426a12.5,12.5,0,0,0-1.8-.889q-11.89,4-23.729,8.013c.827.233,1.724.439,2.675.616Q236.894,1624.3,248.308,1620.426Z" transform="translate(-219.567 -1618.455)" fill="#ffda67"/>
              <path id="Path_1030867" data-name="Path 1030867" d="M216.869,1612.828c0,2.61-6.267,4.725-14,4.725s-14-2.116-14-4.725,6.267-4.726,14-4.726S216.869,1610.217,216.869,1612.828Z" transform="translate(-188.87 -1608.101)" fill="#ffd686"/>
              <path id="Path_1030868" data-name="Path 1030868" d="M210.509,1608.864a36.131,36.131,0,0,0-7.639-.766c-7.732,0-14,2.116-14,4.726,0,.949.831,1.832,2.257,2.572Q200.8,1612.125,210.509,1608.864Z" transform="translate(-188.87 -1608.098)" fill="#ffd686"/>
              <path id="Path_1030869" data-name="Path 1030869" d="M282.994,1645.868a38.988,38.988,0,0,0,5.1.324c7.732,0,14-2.116,14-4.726a2.349,2.349,0,0,0-.975-1.733Q292.066,1642.805,282.994,1645.868Z" transform="translate(-274.089 -1636.74)" fill="#ffd686"/>
              <path id="Path_1030870" data-name="Path 1030870" d="M189.475,1613.142c0-2.61,6.268-4.725,14-4.725,4.766,0,8.972.8,11.5,2.032-2.425-1.408-6.937-2.353-12.106-2.353-7.732,0-14,2.116-14,4.726,0,1,.926,1.929,2.5,2.694C190.167,1614.819,189.475,1614.008,189.475,1613.142Z" transform="translate(-188.87 -1608.096)" fill="#faa955"/>
            </g>
            <g id="Group_1184112" data-name="Group 1184112" transform="translate(11.398 2.37)">
              <path id="Path_1030871" data-name="Path 1030871" d="M283.911,1622.98h1.908v.531a15.361,15.361,0,0,1,4,.594l-2.1.885a11.925,11.925,0,0,0-1.932-.407v1.122q4.38.45,4.381,1.668,0,.614-1.116,1.033a11.9,11.9,0,0,1-3.287.551v.676h-1.874v-.667h-.311a17.871,17.871,0,0,1-2.472-.2,9.894,9.894,0,0,1-2.2-.517l2.013-.85a11.233,11.233,0,0,0,2.966.559v-1.3a11.569,11.569,0,0,1-3.191-.62q-1.1-.444-1.1-1.025,0-.617,1.063-1.042a9.718,9.718,0,0,1,3.248-.461v-.523Zm-.023,2.526v-.955q-1.069.124-1.069.462C282.819,1625.256,283.175,1625.42,283.888,1625.506Zm1.9,1.374v1.01q1.184-.1,1.184-.5Q286.969,1627.024,285.785,1626.88Z" transform="translate(-278.909 -1622.98)" fill="#fec463"/>
            </g>
            <g id="Group_1184113" data-name="Group 1184113" transform="translate(10.938 2.37)">
              <path id="Path_1030872" data-name="Path 1030872" d="M279.045,1622.98h1.91v.531a15.368,15.368,0,0,1,4,.594l-2.1.885a11.9,11.9,0,0,0-1.93-.407v1.122q4.379.45,4.379,1.668,0,.614-1.115,1.033a11.9,11.9,0,0,1-3.288.551v.676h-1.873v-.667h-.31a17.863,17.863,0,0,1-2.472-.2,9.869,9.869,0,0,1-2.2-.517l2.011-.85a11.245,11.245,0,0,0,2.967.559v-1.3a11.558,11.558,0,0,1-3.19-.62q-1.1-.444-1.1-1.025,0-.617,1.064-1.042a9.712,9.712,0,0,1,3.247-.461v-.523Zm-.022,2.526v-.955q-1.069.124-1.07.462C277.953,1625.256,278.31,1625.42,279.022,1625.506Zm1.9,1.374v1.01q1.184-.1,1.185-.5Q282.1,1627.024,280.919,1626.88Z" transform="translate(-274.044 -1622.98)" fill="#f9a65d"/>
            </g>
            <g id="Group_1184114" data-name="Group 1184114" transform="translate(11.398 2.37)">
              <path id="Path_1030873" data-name="Path 1030873" d="M283.911,1622.98h1.908v.531a15.361,15.361,0,0,1,4,.594l-2.1.885a11.925,11.925,0,0,0-1.932-.407v1.122q4.38.45,4.381,1.668,0,.614-1.116,1.033a11.9,11.9,0,0,1-3.287.551v.676h-1.874v-.667h-.311a17.871,17.871,0,0,1-2.472-.2,9.894,9.894,0,0,1-2.2-.517l2.013-.85a11.233,11.233,0,0,0,2.966.559v-1.3a11.569,11.569,0,0,1-3.191-.62q-1.1-.444-1.1-1.025,0-.617,1.063-1.042a9.718,9.718,0,0,1,3.248-.461v-.523Zm-.023,2.526v-.955q-1.069.124-1.069.462C282.819,1625.256,283.175,1625.42,283.888,1625.506Zm1.9,1.374v1.01q1.184-.1,1.184-.5Q286.969,1627.024,285.785,1626.88Z" transform="translate(-278.909 -1622.98)" fill="#fec463"/>
            </g>
            <path id="Path_1030874" data-name="Path 1030874" d="M220.1,1625.357q9.878-3.342,19.773-6.679a19.6,19.6,0,0,0-1.9-.583q-9.823,3.3-19.613,6.612A15.3,15.3,0,0,0,220.1,1625.357Z" transform="translate(-212.69 -1616.188)" fill="#fff3ce" opacity="0.4"/>
            <path id="Path_1030875" data-name="Path 1030875" d="M265.553,1627.662a9.1,9.1,0,0,0-1.722-.924q-9.856,3.318-19.678,6.646a26.966,26.966,0,0,0,2.768.586Q256.247,1630.818,265.553,1627.662Z" transform="translate(-236.044 -1624.012)" fill="#fff3ce" opacity="0.4"/>
          </g>
          <g id="Group_1184120" data-name="Group 1184120">
            <path id="Path_1030876" data-name="Path 1030876" d="M190.431,1591.77c-2.748-1.883-8.487-3.178-15.123-3.178s-12.375,1.295-15.123,3.178h-1.757v2.511h.028c0,3.142,7.545,5.689,16.852,5.689s16.851-2.547,16.851-5.689v-2.511Z" transform="translate(-158.429 -1586.107)" fill="#f9a65d"/>
            <path id="Path_1030877" data-name="Path 1030877" d="M192.426,1568.013c0,3.142-7.544,5.689-16.851,5.689s-16.852-2.547-16.852-5.689,7.545-5.689,16.852-5.689S192.426,1564.871,192.426,1568.013Z" transform="translate(-158.695 -1562.324)" fill="#fec463"/>
            <g id="Group_1184116" data-name="Group 1184116" transform="translate(2.88 0.962)">
              <path id="Path_1030878" data-name="Path 1030878" d="M216.869,1577.224c0,2.609-6.267,4.725-14,4.725s-14-2.116-14-4.725,6.267-4.727,14-4.727S216.869,1574.615,216.869,1577.224Z" transform="translate(-188.87 -1572.497)" fill="#ffd686"/>
              <path id="Path_1030879" data-name="Path 1030879" d="M198.636,1583.883q11.9-4.024,23.811-8.04-.875-.317-1.886-.588-11.868,3.984-23.685,7.985C197.412,1583.469,198,1583.685,198.636,1583.883Z" transform="translate(-196.119 -1574.994)" fill="#ffda67"/>
              <path id="Path_1030880" data-name="Path 1030880" d="M248.308,1584.826a12.572,12.572,0,0,0-1.8-.889q-11.89,4-23.729,8.013c.827.233,1.724.439,2.675.617Q236.894,1588.7,248.308,1584.826Z" transform="translate(-219.567 -1582.855)" fill="#ffda67"/>
              <path id="Path_1030881" data-name="Path 1030881" d="M216.869,1577.224c0,2.609-6.267,4.725-14,4.725s-14-2.116-14-4.725,6.267-4.727,14-4.727S216.869,1574.615,216.869,1577.224Z" transform="translate(-188.87 -1572.497)" fill="#ffd686"/>
              <path id="Path_1030882" data-name="Path 1030882" d="M210.509,1573.27a36.145,36.145,0,0,0-7.639-.767c-7.732,0-14,2.116-14,4.727,0,.949.831,1.831,2.257,2.571Q200.8,1576.531,210.509,1573.27Z" transform="translate(-188.87 -1572.502)" fill="#ffd686"/>
              <path id="Path_1030883" data-name="Path 1030883" d="M282.994,1610.279a39.2,39.2,0,0,0,5.1.323c7.732,0,14-2.117,14-4.726a2.35,2.35,0,0,0-.975-1.734Q292.066,1607.215,282.994,1610.279Z" transform="translate(-274.089 -1601.149)" fill="#ffd686"/>
              <path id="Path_1030884" data-name="Path 1030884" d="M189.475,1577.548c0-2.611,6.268-4.726,14-4.726,4.766,0,8.972.8,11.5,2.033-2.425-1.408-6.937-2.354-12.106-2.354-7.732,0-14,2.116-14,4.727,0,1,.926,1.93,2.5,2.693C190.167,1579.224,189.475,1578.414,189.475,1577.548Z" transform="translate(-188.87 -1572.501)" fill="#faa955"/>
            </g>
            <g id="Group_1184117" data-name="Group 1184117" transform="translate(11.398 2.37)">
              <path id="Path_1030885" data-name="Path 1030885" d="M283.911,1587.38h1.908v.532a15.319,15.319,0,0,1,4,.594l-2.1.884a11.94,11.94,0,0,0-1.932-.407v1.122q4.38.451,4.381,1.669,0,.615-1.116,1.033a11.923,11.923,0,0,1-3.287.551v.675h-1.874v-.667h-.311a17.848,17.848,0,0,1-2.472-.2,9.939,9.939,0,0,1-2.2-.517l2.013-.85a11.243,11.243,0,0,0,2.966.559v-1.3a11.573,11.573,0,0,1-3.191-.62q-1.1-.444-1.1-1.025,0-.617,1.063-1.043a9.7,9.7,0,0,1,3.248-.459v-.525Zm-.023,2.527v-.955q-1.069.124-1.069.462Q282.819,1589.779,283.888,1589.907Zm1.9,1.374v1.01q1.184-.1,1.184-.5C286.969,1591.546,286.574,1591.376,285.785,1591.281Z" transform="translate(-278.909 -1587.38)" fill="#fec463"/>
            </g>
            <g id="Group_1184118" data-name="Group 1184118" transform="translate(10.938 2.37)">
              <path id="Path_1030886" data-name="Path 1030886" d="M279.045,1587.38h1.91v.532a15.325,15.325,0,0,1,4,.594l-2.1.884a11.91,11.91,0,0,0-1.93-.407v1.122q4.379.451,4.379,1.669,0,.615-1.115,1.033a11.931,11.931,0,0,1-3.288.551v.675h-1.873v-.667h-.31a17.84,17.84,0,0,1-2.472-.2,9.914,9.914,0,0,1-2.2-.517l2.011-.85a11.255,11.255,0,0,0,2.967.559v-1.3a11.562,11.562,0,0,1-3.19-.62q-1.1-.444-1.1-1.025,0-.617,1.064-1.043a9.693,9.693,0,0,1,3.247-.459v-.525Zm-.022,2.527v-.955q-1.069.124-1.07.462Q277.953,1589.779,279.022,1589.907Zm1.9,1.374v1.01q1.184-.1,1.185-.5C282.1,1591.546,281.709,1591.376,280.919,1591.281Z" transform="translate(-274.044 -1587.38)" fill="#f9a65d"/>
            </g>
            <g id="Group_1184119" data-name="Group 1184119" transform="translate(11.398 2.37)">
              <path id="Path_1030887" data-name="Path 1030887" d="M283.911,1587.38h1.908v.532a15.319,15.319,0,0,1,4,.594l-2.1.884a11.94,11.94,0,0,0-1.932-.407v1.122q4.38.451,4.381,1.669,0,.615-1.116,1.033a11.923,11.923,0,0,1-3.287.551v.675h-1.874v-.667h-.311a17.848,17.848,0,0,1-2.472-.2,9.939,9.939,0,0,1-2.2-.517l2.013-.85a11.243,11.243,0,0,0,2.966.559v-1.3a11.573,11.573,0,0,1-3.191-.62q-1.1-.444-1.1-1.025,0-.617,1.063-1.043a9.7,9.7,0,0,1,3.248-.459v-.525Zm-.023,2.527v-.955q-1.069.124-1.069.462Q282.819,1589.779,283.888,1589.907Zm1.9,1.374v1.01q1.184-.1,1.184-.5C286.969,1591.546,286.574,1591.376,285.785,1591.281Z" transform="translate(-278.909 -1587.38)" fill="#fec463"/>
            </g>
            <path id="Path_1030888" data-name="Path 1030888" d="M220.1,1589.757q9.878-3.341,19.773-6.679a19.3,19.3,0,0,0-1.9-.583q-9.823,3.3-19.613,6.611A15.071,15.071,0,0,0,220.1,1589.757Z" transform="translate(-212.69 -1580.588)" fill="#fff3ce" opacity="0.4"/>
            <path id="Path_1030889" data-name="Path 1030889" d="M265.553,1592.074a9.158,9.158,0,0,0-1.722-.923q-9.856,3.319-19.678,6.646a27.1,27.1,0,0,0,2.768.587Q256.247,1595.233,265.553,1592.074Z" transform="translate(-236.044 -1588.424)" fill="#fff3ce" opacity="0.4"/>
          </g>
        </g>
        <g id="Group_1184142" data-name="Group 1184142" transform="translate(0)">
          <g id="Group_1184126" data-name="Group 1184126" transform="translate(0 10.439)">
            <path id="Path_1030890" data-name="Path 1030890" d="M190.431,1558.459c-2.748-1.881-8.487-3.177-15.123-3.177s-12.375,1.3-15.123,3.177h-1.757v2.513h.028c0,3.142,7.545,5.689,16.852,5.689s16.851-2.547,16.851-5.689v-2.513Z" transform="translate(-158.429 -1552.797)" fill="#f9a65d"/>
            <path id="Path_1030891" data-name="Path 1030891" d="M192.426,1534.708c0,3.142-7.544,5.689-16.851,5.689s-16.852-2.547-16.852-5.689,7.545-5.689,16.852-5.689S192.426,1531.566,192.426,1534.708Z" transform="translate(-158.695 -1529.019)" fill="#fec463"/>
            <g id="Group_1184122" data-name="Group 1184122" transform="translate(2.88 0.963)">
              <path id="Path_1030892" data-name="Path 1030892" d="M216.869,1543.927c0,2.611-6.267,4.727-14,4.727s-14-2.116-14-4.727,6.267-4.725,14-4.725S216.869,1541.317,216.869,1543.927Z" transform="translate(-188.87 -1539.201)" fill="#ffd686"/>
              <path id="Path_1030893" data-name="Path 1030893" d="M198.636,1550.583q11.9-4.025,23.811-8.041-.875-.317-1.886-.588-11.868,3.984-23.685,7.983A18.661,18.661,0,0,0,198.636,1550.583Z" transform="translate(-196.119 -1541.693)" fill="#ffda67"/>
              <path id="Path_1030894" data-name="Path 1030894" d="M248.308,1551.516a12.37,12.37,0,0,0-1.8-.889q-11.89,4-23.729,8.013c.827.233,1.724.439,2.675.616Q236.894,1555.392,248.308,1551.516Z" transform="translate(-219.567 -1549.545)" fill="#ffda67"/>
              <path id="Path_1030895" data-name="Path 1030895" d="M216.869,1543.927c0,2.611-6.267,4.727-14,4.727s-14-2.116-14-4.727,6.267-4.725,14-4.725S216.869,1541.317,216.869,1543.927Z" transform="translate(-188.87 -1539.201)" fill="#ffd686"/>
              <path id="Path_1030896" data-name="Path 1030896" d="M210.509,1539.959a36.092,36.092,0,0,0-7.639-.766c-7.732,0-14,2.116-14,4.725,0,.95.831,1.833,2.257,2.573Q200.8,1543.221,210.509,1539.959Z" transform="translate(-188.87 -1539.193)" fill="#ffd686"/>
              <path id="Path_1030897" data-name="Path 1030897" d="M282.994,1576.964a39.224,39.224,0,0,0,5.1.324c7.732,0,14-2.116,14-4.727a2.352,2.352,0,0,0-.975-1.733Q292.066,1573.9,282.994,1576.964Z" transform="translate(-274.089 -1567.835)" fill="#ffd686"/>
              <path id="Path_1030898" data-name="Path 1030898" d="M189.475,1544.248c0-2.611,6.268-4.727,14-4.727,4.766,0,8.972.8,11.5,2.032-2.425-1.407-6.937-2.352-12.106-2.352-7.732,0-14,2.116-14,4.725,0,1,.926,1.93,2.5,2.694C190.167,1545.923,189.475,1545.113,189.475,1544.248Z" transform="translate(-188.87 -1539.2)" fill="#faa955"/>
            </g>
            <g id="Group_1184123" data-name="Group 1184123" transform="translate(11.398 2.37)">
              <path id="Path_1030899" data-name="Path 1030899" d="M283.911,1554.07h1.908v.532a15.344,15.344,0,0,1,4,.594l-2.1.884a11.833,11.833,0,0,0-1.932-.407v1.122q4.38.45,4.381,1.669,0,.613-1.116,1.032a11.9,11.9,0,0,1-3.287.552v.675h-1.874v-.667h-.311a17.652,17.652,0,0,1-2.472-.2,9.836,9.836,0,0,1-2.2-.516l2.013-.849a11.313,11.313,0,0,0,2.966.559v-1.3a11.535,11.535,0,0,1-3.191-.622q-1.1-.442-1.1-1.025,0-.617,1.063-1.042a9.744,9.744,0,0,1,3.248-.459v-.524Zm-.023,2.526v-.954q-1.069.125-1.069.462Q282.819,1556.467,283.888,1556.6Zm1.9,1.374v1.01q1.184-.1,1.184-.5Q286.969,1558.115,285.785,1557.969Z" transform="translate(-278.909 -1554.07)" fill="#fec463"/>
            </g>
            <g id="Group_1184124" data-name="Group 1184124" transform="translate(10.938 2.37)">
              <path id="Path_1030900" data-name="Path 1030900" d="M279.045,1554.07h1.91v.532a15.35,15.35,0,0,1,4,.594l-2.1.884a11.8,11.8,0,0,0-1.93-.407v1.122q4.379.45,4.379,1.669,0,.613-1.115,1.032a11.909,11.909,0,0,1-3.288.552v.675h-1.873v-.667h-.31a17.644,17.644,0,0,1-2.472-.2,9.811,9.811,0,0,1-2.2-.516l2.011-.849a11.325,11.325,0,0,0,2.967.559v-1.3a11.524,11.524,0,0,1-3.19-.622q-1.1-.442-1.1-1.025,0-.617,1.064-1.042a9.738,9.738,0,0,1,3.247-.459v-.524Zm-.022,2.526v-.954q-1.069.125-1.07.462Q277.953,1556.467,279.022,1556.6Zm1.9,1.374v1.01q1.184-.1,1.185-.5Q282.1,1558.115,280.919,1557.969Z" transform="translate(-274.044 -1554.07)" fill="#f9a65d"/>
            </g>
            <g id="Group_1184125" data-name="Group 1184125" transform="translate(11.398 2.37)">
              <path id="Path_1030901" data-name="Path 1030901" d="M283.911,1554.07h1.908v.532a15.344,15.344,0,0,1,4,.594l-2.1.884a11.833,11.833,0,0,0-1.932-.407v1.122q4.38.45,4.381,1.669,0,.613-1.116,1.032a11.9,11.9,0,0,1-3.287.552v.675h-1.874v-.667h-.311a17.652,17.652,0,0,1-2.472-.2,9.836,9.836,0,0,1-2.2-.516l2.013-.849a11.313,11.313,0,0,0,2.966.559v-1.3a11.535,11.535,0,0,1-3.191-.622q-1.1-.442-1.1-1.025,0-.617,1.063-1.042a9.744,9.744,0,0,1,3.248-.459v-.524Zm-.023,2.526v-.954q-1.069.125-1.069.462Q282.819,1556.467,283.888,1556.6Zm1.9,1.374v1.01q1.184-.1,1.184-.5Q286.969,1558.115,285.785,1557.969Z" transform="translate(-278.909 -1554.07)" fill="#fec463"/>
            </g>
            <path id="Path_1030902" data-name="Path 1030902" d="M220.1,1556.457q9.878-3.343,19.773-6.679a19.337,19.337,0,0,0-1.9-.583q-9.823,3.3-19.613,6.611A15.44,15.44,0,0,0,220.1,1556.457Z" transform="translate(-212.69 -1547.287)" fill="#fff3ce" opacity="0.4"/>
            <path id="Path_1030903" data-name="Path 1030903" d="M265.553,1558.765a9.13,9.13,0,0,0-1.722-.923q-9.856,3.316-19.678,6.646a26.621,26.621,0,0,0,2.768.585Q256.247,1561.924,265.553,1558.765Z" transform="translate(-236.044 -1555.115)" fill="#fff3ce" opacity="0.4"/>
          </g>
          <g id="Group_1184131" data-name="Group 1184131" transform="translate(0 7.071)">
            <path id="Path_1030904" data-name="Path 1030904" d="M190.431,1522.879c-2.748-1.882-8.487-3.177-15.123-3.177s-12.375,1.295-15.123,3.177h-1.757v2.512h.028c0,3.142,7.545,5.689,16.852,5.689s16.851-2.547,16.851-5.689v-2.512Z" transform="translate(-158.429 -1517.216)" fill="#f9a65d"/>
            <path id="Path_1030905" data-name="Path 1030905" d="M192.426,1499.113c0,3.142-7.544,5.69-16.851,5.69s-16.852-2.548-16.852-5.69,7.545-5.689,16.852-5.689S192.426,1495.971,192.426,1499.113Z" transform="translate(-158.695 -1493.424)" fill="#fec463"/>
            <g id="Group_1184127" data-name="Group 1184127" transform="translate(2.88 0.963)">
              <path id="Path_1030906" data-name="Path 1030906" d="M216.869,1508.333c0,2.61-6.267,4.726-14,4.726s-14-2.116-14-4.726,6.267-4.726,14-4.726S216.869,1505.723,216.869,1508.333Z" transform="translate(-188.87 -1503.607)" fill="#ffd686"/>
              <path id="Path_1030907" data-name="Path 1030907" d="M198.636,1514.993q11.9-4.025,23.811-8.04-.875-.318-1.886-.587-11.868,3.982-23.685,7.983C197.412,1514.578,198,1514.793,198.636,1514.993Z" transform="translate(-196.119 -1506.104)" fill="#ffda67"/>
              <path id="Path_1030908" data-name="Path 1030908" d="M248.308,1515.917a12.482,12.482,0,0,0-1.8-.89q-11.89,4-23.729,8.014c.827.233,1.724.439,2.675.616Q236.894,1519.793,248.308,1515.917Z" transform="translate(-219.567 -1513.947)" fill="#ffda67"/>
              <path id="Path_1030909" data-name="Path 1030909" d="M216.869,1508.333c0,2.61-6.267,4.726-14,4.726s-14-2.116-14-4.726,6.267-4.726,14-4.726S216.869,1505.723,216.869,1508.333Z" transform="translate(-188.87 -1503.607)" fill="#ffd686"/>
              <path id="Path_1030910" data-name="Path 1030910" d="M210.509,1504.373a36.15,36.15,0,0,0-7.639-.766c-7.732,0-14,2.116-14,4.726,0,.948.831,1.832,2.257,2.572Q200.8,1507.634,210.509,1504.373Z" transform="translate(-188.87 -1503.607)" fill="#ffd686"/>
              <path id="Path_1030911" data-name="Path 1030911" d="M282.994,1541.375a39.267,39.267,0,0,0,5.1.324c7.732,0,14-2.116,14-4.726a2.352,2.352,0,0,0-.975-1.734Q292.066,1538.312,282.994,1541.375Z" transform="translate(-274.089 -1532.246)" fill="#ffd686"/>
              <path id="Path_1030912" data-name="Path 1030912" d="M189.475,1508.652c0-2.61,6.268-4.726,14-4.726,4.766,0,8.972.8,11.5,2.032-2.425-1.406-6.937-2.352-12.106-2.352-7.732,0-14,2.116-14,4.726,0,1,.926,1.929,2.5,2.694C190.167,1510.329,189.475,1509.518,189.475,1508.652Z" transform="translate(-188.87 -1503.606)" fill="#faa955"/>
            </g>
            <g id="Group_1184128" data-name="Group 1184128" transform="translate(11.398 2.369)">
              <path id="Path_1030913" data-name="Path 1030913" d="M283.911,1518.47h1.908V1519a15.319,15.319,0,0,1,4,.594l-2.1.885a11.814,11.814,0,0,0-1.932-.408v1.122q4.38.45,4.381,1.669,0,.613-1.116,1.032a11.935,11.935,0,0,1-3.287.552v.674h-1.874v-.667h-.311a17.773,17.773,0,0,1-2.472-.2,9.88,9.88,0,0,1-2.2-.516l2.013-.85a11.312,11.312,0,0,0,2.966.559v-1.3a11.59,11.59,0,0,1-3.191-.621q-1.1-.443-1.1-1.025,0-.617,1.063-1.042a9.737,9.737,0,0,1,3.248-.459v-.524Zm-.023,2.527v-.954q-1.069.125-1.069.462Q282.819,1520.869,283.888,1521Zm1.9,1.374v1.01q1.184-.1,1.184-.5Q286.969,1522.515,285.785,1522.37Z" transform="translate(-278.909 -1518.47)" fill="#fec463"/>
            </g>
            <g id="Group_1184129" data-name="Group 1184129" transform="translate(10.938 2.369)">
              <path id="Path_1030914" data-name="Path 1030914" d="M279.045,1518.47h1.91V1519a15.326,15.326,0,0,1,4,.594l-2.1.885a11.784,11.784,0,0,0-1.93-.408v1.122q4.379.45,4.379,1.669,0,.613-1.115,1.032a11.943,11.943,0,0,1-3.288.552v.674h-1.873v-.667h-.31a17.765,17.765,0,0,1-2.472-.2,9.855,9.855,0,0,1-2.2-.516l2.011-.85a11.324,11.324,0,0,0,2.967.559v-1.3a11.579,11.579,0,0,1-3.19-.621q-1.1-.443-1.1-1.025,0-.617,1.064-1.042a9.73,9.73,0,0,1,3.247-.459v-.524Zm-.022,2.527v-.954q-1.069.125-1.07.462Q277.953,1520.869,279.022,1521Zm1.9,1.374v1.01q1.184-.1,1.185-.5Q282.1,1522.515,280.919,1522.37Z" transform="translate(-274.044 -1518.47)" fill="#f9a65d"/>
            </g>
            <g id="Group_1184130" data-name="Group 1184130" transform="translate(11.398 2.369)">
              <path id="Path_1030915" data-name="Path 1030915" d="M283.911,1518.47h1.908V1519a15.319,15.319,0,0,1,4,.594l-2.1.885a11.814,11.814,0,0,0-1.932-.408v1.122q4.38.45,4.381,1.669,0,.613-1.116,1.032a11.935,11.935,0,0,1-3.287.552v.674h-1.874v-.667h-.311a17.773,17.773,0,0,1-2.472-.2,9.88,9.88,0,0,1-2.2-.516l2.013-.85a11.312,11.312,0,0,0,2.966.559v-1.3a11.59,11.59,0,0,1-3.191-.621q-1.1-.443-1.1-1.025,0-.617,1.063-1.042a9.737,9.737,0,0,1,3.248-.459v-.524Zm-.023,2.527v-.954q-1.069.125-1.069.462Q282.819,1520.869,283.888,1521Zm1.9,1.374v1.01q1.184-.1,1.184-.5Q286.969,1522.515,285.785,1522.37Z" transform="translate(-278.909 -1518.47)" fill="#fec463"/>
            </g>
            <path id="Path_1030916" data-name="Path 1030916" d="M220.1,1520.867q9.878-3.343,19.773-6.679a19.174,19.174,0,0,0-1.9-.582q-9.823,3.3-19.613,6.611A15.391,15.391,0,0,0,220.1,1520.867Z" transform="translate(-212.69 -1511.697)" fill="#fff3ce" opacity="0.4"/>
            <path id="Path_1030917" data-name="Path 1030917" d="M265.553,1523.174a9.151,9.151,0,0,0-1.722-.923q-9.856,3.317-19.678,6.646a26.9,26.9,0,0,0,2.768.586Q256.247,1526.332,265.553,1523.174Z" transform="translate(-236.044 -1519.524)" fill="#fff3ce" opacity="0.4"/>
          </g>
          <g id="Group_1184136" data-name="Group 1184136" transform="translate(0 3.367)">
            <path id="Path_1030918" data-name="Path 1030918" d="M190.431,1483.729c-2.748-1.882-8.487-3.177-15.123-3.177s-12.375,1.3-15.123,3.177h-1.757v2.512h.028c0,3.142,7.545,5.689,16.852,5.689s16.851-2.547,16.851-5.689v-2.512Z" transform="translate(-158.429 -1478.066)" fill="#f9a65d"/>
            <path id="Path_1030919" data-name="Path 1030919" d="M192.426,1459.963c0,3.142-7.544,5.689-16.851,5.689s-16.852-2.547-16.852-5.689,7.545-5.689,16.852-5.689S192.426,1456.821,192.426,1459.963Z" transform="translate(-158.695 -1454.274)" fill="#fec463"/>
            <g id="Group_1184132" data-name="Group 1184132" transform="translate(2.88 0.963)">
              <path id="Path_1030920" data-name="Path 1030920" d="M216.869,1469.183c0,2.61-6.267,4.726-14,4.726s-14-2.116-14-4.726,6.267-4.726,14-4.726S216.869,1466.573,216.869,1469.183Z" transform="translate(-188.87 -1464.456)" fill="#ffd686"/>
              <path id="Path_1030921" data-name="Path 1030921" d="M198.636,1475.843q11.9-4.025,23.811-8.04-.875-.318-1.886-.587-11.868,3.983-23.685,7.983A18.7,18.7,0,0,0,198.636,1475.843Z" transform="translate(-196.119 -1466.953)" fill="#ffda67"/>
              <path id="Path_1030922" data-name="Path 1030922" d="M248.308,1476.767a12.482,12.482,0,0,0-1.8-.89q-11.89,4-23.729,8.014c.827.234,1.724.439,2.675.616Q236.894,1480.643,248.308,1476.767Z" transform="translate(-219.567 -1474.796)" fill="#ffda67"/>
              <path id="Path_1030923" data-name="Path 1030923" d="M216.869,1469.183c0,2.61-6.267,4.726-14,4.726s-14-2.116-14-4.726,6.267-4.726,14-4.726S216.869,1466.573,216.869,1469.183Z" transform="translate(-188.87 -1464.456)" fill="#ffd686"/>
              <path id="Path_1030924" data-name="Path 1030924" d="M210.509,1465.223a36.142,36.142,0,0,0-7.639-.766c-7.732,0-14,2.116-14,4.726,0,.949.831,1.832,2.257,2.572Q200.8,1468.484,210.509,1465.223Z" transform="translate(-188.87 -1464.456)" fill="#ffd686"/>
              <path id="Path_1030925" data-name="Path 1030925" d="M282.994,1502.22a39.267,39.267,0,0,0,5.1.324c7.732,0,14-2.116,14-4.726a2.351,2.351,0,0,0-.975-1.733Q292.066,1499.157,282.994,1502.22Z" transform="translate(-274.089 -1493.091)" fill="#ffd686"/>
              <path id="Path_1030926" data-name="Path 1030926" d="M189.475,1469.5c0-2.61,6.268-4.727,14-4.727,4.766,0,8.972.8,11.5,2.032-2.425-1.406-6.937-2.353-12.106-2.353-7.732,0-14,2.116-14,4.726,0,1,.926,1.929,2.5,2.694C190.167,1471.174,189.475,1470.364,189.475,1469.5Z" transform="translate(-188.87 -1464.451)" fill="#faa955"/>
            </g>
            <g id="Group_1184133" data-name="Group 1184133" transform="translate(11.398 2.369)">
              <path id="Path_1030927" data-name="Path 1030927" d="M283.911,1479.32h1.908v.532a15.32,15.32,0,0,1,4,.594l-2.1.885a11.838,11.838,0,0,0-1.932-.407v1.122q4.38.45,4.381,1.669,0,.613-1.116,1.032a11.93,11.93,0,0,1-3.287.552v.675h-1.874v-.668h-.311a17.7,17.7,0,0,1-2.472-.2,9.874,9.874,0,0,1-2.2-.516l2.013-.85a11.321,11.321,0,0,0,2.966.56v-1.3a11.576,11.576,0,0,1-3.191-.621q-1.1-.442-1.1-1.025,0-.617,1.063-1.042a9.728,9.728,0,0,1,3.248-.46v-.524Zm-.023,2.527v-.954q-1.069.125-1.069.462Q282.819,1481.72,283.888,1481.847Zm1.9,1.374v1.009q1.184-.1,1.184-.5Q286.969,1483.364,285.785,1483.221Z" transform="translate(-278.909 -1479.32)" fill="#fec463"/>
            </g>
            <g id="Group_1184134" data-name="Group 1184134" transform="translate(10.938 2.369)">
              <path id="Path_1030928" data-name="Path 1030928" d="M279.045,1479.32h1.91v.532a15.326,15.326,0,0,1,4,.594l-2.1.885a11.808,11.808,0,0,0-1.93-.407v1.122q4.379.45,4.379,1.669,0,.613-1.115,1.032a11.938,11.938,0,0,1-3.288.552v.675h-1.873v-.668h-.31a17.688,17.688,0,0,1-2.472-.2,9.849,9.849,0,0,1-2.2-.516l2.011-.85a11.333,11.333,0,0,0,2.967.56v-1.3a11.566,11.566,0,0,1-3.19-.621q-1.1-.442-1.1-1.025,0-.617,1.064-1.042a9.721,9.721,0,0,1,3.247-.46v-.524Zm-.022,2.527v-.954q-1.069.125-1.07.462Q277.953,1481.72,279.022,1481.847Zm1.9,1.374v1.009q1.184-.1,1.185-.5Q282.1,1483.364,280.919,1483.221Z" transform="translate(-274.044 -1479.32)" fill="#f9a65d"/>
            </g>
            <g id="Group_1184135" data-name="Group 1184135" transform="translate(11.398 2.369)">
              <path id="Path_1030929" data-name="Path 1030929" d="M283.911,1479.32h1.908v.532a15.32,15.32,0,0,1,4,.594l-2.1.885a11.838,11.838,0,0,0-1.932-.407v1.122q4.38.45,4.381,1.669,0,.613-1.116,1.032a11.93,11.93,0,0,1-3.287.552v.675h-1.874v-.668h-.311a17.7,17.7,0,0,1-2.472-.2,9.874,9.874,0,0,1-2.2-.516l2.013-.85a11.321,11.321,0,0,0,2.966.56v-1.3a11.576,11.576,0,0,1-3.191-.621q-1.1-.442-1.1-1.025,0-.617,1.063-1.042a9.728,9.728,0,0,1,3.248-.46v-.524Zm-.023,2.527v-.954q-1.069.125-1.069.462Q282.819,1481.72,283.888,1481.847Zm1.9,1.374v1.009q1.184-.1,1.184-.5Q286.969,1483.364,285.785,1483.221Z" transform="translate(-278.909 -1479.32)" fill="#fec463"/>
            </g>
            <path id="Path_1030930" data-name="Path 1030930" d="M220.1,1481.717q9.878-3.344,19.773-6.679a19.241,19.241,0,0,0-1.9-.582q-9.823,3.3-19.613,6.611A15.344,15.344,0,0,0,220.1,1481.717Z" transform="translate(-212.69 -1472.547)" fill="#fff3ce" opacity="0.4"/>
            <path id="Path_1030931" data-name="Path 1030931" d="M265.553,1484.02a9.123,9.123,0,0,0-1.722-.924q-9.856,3.317-19.678,6.646a26.616,26.616,0,0,0,2.768.586Q256.247,1487.178,265.553,1484.02Z" transform="translate(-236.044 -1480.369)" fill="#fff3ce" opacity="0.4"/>
          </g>
          <g id="Group_1184141" data-name="Group 1184141">
            <path id="Path_1030932" data-name="Path 1030932" d="M190.431,1448.133c-2.748-1.881-8.487-3.176-15.123-3.176s-12.375,1.295-15.123,3.176h-1.757v2.513h.028c0,3.142,7.545,5.689,16.852,5.689s16.851-2.547,16.851-5.689v-2.513Z" transform="translate(-158.429 -1442.471)" fill="#f9a65d"/>
            <path id="Path_1030933" data-name="Path 1030933" d="M192.426,1424.368c0,3.142-7.544,5.689-16.851,5.689s-16.852-2.547-16.852-5.689,7.545-5.689,16.852-5.689S192.426,1421.226,192.426,1424.368Z" transform="translate(-158.695 -1418.679)" fill="#fec463"/>
            <g id="Group_1184137" data-name="Group 1184137" transform="translate(2.88 0.963)">
              <path id="Path_1030934" data-name="Path 1030934" d="M216.869,1433.587c0,2.61-6.267,4.727-14,4.727s-14-2.116-14-4.727,6.267-4.725,14-4.725S216.869,1430.977,216.869,1433.587Z" transform="translate(-188.87 -1428.861)" fill="#ffd686"/>
              <path id="Path_1030935" data-name="Path 1030935" d="M198.636,1440.254q11.9-4.025,23.811-8.041-.875-.318-1.886-.588-11.868,3.984-23.685,7.983C197.412,1439.838,198,1440.053,198.636,1440.254Z" transform="translate(-196.119 -1431.363)" fill="#ffda67"/>
              <path id="Path_1030936" data-name="Path 1030936" d="M248.308,1441.187a12.42,12.42,0,0,0-1.8-.89q-11.89,4-23.729,8.014c.827.232,1.724.439,2.675.616Q236.894,1445.06,248.308,1441.187Z" transform="translate(-219.567 -1439.215)" fill="#ffda67"/>
              <path id="Path_1030937" data-name="Path 1030937" d="M216.869,1433.587c0,2.61-6.267,4.727-14,4.727s-14-2.116-14-4.727,6.267-4.725,14-4.725S216.869,1430.977,216.869,1433.587Z" transform="translate(-188.87 -1428.861)" fill="#ffd686"/>
              <path id="Path_1030938" data-name="Path 1030938" d="M210.509,1429.628a36.117,36.117,0,0,0-7.639-.766c-7.732,0-14,2.116-14,4.725,0,.949.831,1.833,2.257,2.573Q200.8,1432.89,210.509,1429.628Z" transform="translate(-188.87 -1428.862)" fill="#ffd686"/>
              <path id="Path_1030939" data-name="Path 1030939" d="M282.994,1466.624a39.268,39.268,0,0,0,5.1.323c7.732,0,14-2.116,14-4.727a2.351,2.351,0,0,0-.975-1.733Q292.066,1463.562,282.994,1466.624Z" transform="translate(-274.089 -1457.496)" fill="#ffd686"/>
              <path id="Path_1030940" data-name="Path 1030940" d="M189.475,1433.908c0-2.611,6.268-4.727,14-4.727,4.766,0,8.972.8,11.5,2.032-2.425-1.407-6.937-2.352-12.106-2.352-7.732,0-14,2.116-14,4.725,0,1,.926,1.93,2.5,2.695C190.167,1435.584,189.475,1434.773,189.475,1433.908Z" transform="translate(-188.87 -1428.861)" fill="#faa955"/>
            </g>
            <g id="Group_1184138" data-name="Group 1184138" transform="translate(11.398 2.37)">
              <path id="Path_1030941" data-name="Path 1030941" d="M283.911,1443.73h1.908v.532a15.354,15.354,0,0,1,4,.594l-2.1.884a11.89,11.89,0,0,0-1.932-.407v1.122q4.38.45,4.381,1.669,0,.614-1.116,1.032a11.89,11.89,0,0,1-3.287.551v.675h-1.874v-.667h-.311a17.652,17.652,0,0,1-2.472-.2,9.8,9.8,0,0,1-2.2-.516l2.013-.849a11.313,11.313,0,0,0,2.966.558v-1.3a11.553,11.553,0,0,1-3.191-.622q-1.1-.441-1.1-1.024,0-.617,1.063-1.042a9.745,9.745,0,0,1,3.248-.46v-.524Zm-.023,2.527v-.954q-1.069.124-1.069.462Q282.819,1446.13,283.888,1446.257Zm1.9,1.374v1.01q1.184-.1,1.184-.5Q286.969,1447.776,285.785,1447.63Z" transform="translate(-278.909 -1443.73)" fill="#fec463"/>
            </g>
            <g id="Group_1184139" data-name="Group 1184139" transform="translate(10.938 2.37)">
              <path id="Path_1030942" data-name="Path 1030942" d="M279.045,1443.73h1.91v.532a15.36,15.36,0,0,1,4,.594l-2.1.884a11.86,11.86,0,0,0-1.93-.407v1.122q4.379.45,4.379,1.669,0,.614-1.115,1.032a11.9,11.9,0,0,1-3.288.551v.675h-1.873v-.667h-.31a17.644,17.644,0,0,1-2.472-.2,9.776,9.776,0,0,1-2.2-.516l2.011-.849a11.325,11.325,0,0,0,2.967.558v-1.3a11.542,11.542,0,0,1-3.19-.622q-1.1-.441-1.1-1.024,0-.617,1.064-1.042a9.739,9.739,0,0,1,3.247-.46v-.524Zm-.022,2.527v-.954q-1.069.124-1.07.462Q277.953,1446.13,279.022,1446.257Zm1.9,1.374v1.01q1.184-.1,1.185-.5Q282.1,1447.776,280.919,1447.63Z" transform="translate(-274.044 -1443.73)" fill="#f9a65d"/>
            </g>
            <g id="Group_1184140" data-name="Group 1184140" transform="translate(11.398 2.37)">
              <path id="Path_1030943" data-name="Path 1030943" d="M283.911,1443.73h1.908v.532a15.354,15.354,0,0,1,4,.594l-2.1.884a11.89,11.89,0,0,0-1.932-.407v1.122q4.38.45,4.381,1.669,0,.614-1.116,1.032a11.89,11.89,0,0,1-3.287.551v.675h-1.874v-.667h-.311a17.652,17.652,0,0,1-2.472-.2,9.8,9.8,0,0,1-2.2-.516l2.013-.849a11.313,11.313,0,0,0,2.966.558v-1.3a11.553,11.553,0,0,1-3.191-.622q-1.1-.441-1.1-1.024,0-.617,1.063-1.042a9.745,9.745,0,0,1,3.248-.46v-.524Zm-.023,2.527v-.954q-1.069.124-1.069.462Q282.819,1446.13,283.888,1446.257Zm1.9,1.374v1.01q1.184-.1,1.184-.5Q286.969,1447.776,285.785,1447.63Z" transform="translate(-278.909 -1443.73)" fill="#fec463"/>
            </g>
            <path id="Path_1030944" data-name="Path 1030944" d="M220.1,1446.127q9.878-3.343,19.773-6.679a19.336,19.336,0,0,0-1.9-.583q-9.823,3.3-19.613,6.612A15.656,15.656,0,0,0,220.1,1446.127Z" transform="translate(-212.69 -1436.956)" fill="#fff3ce" opacity="0.4"/>
            <path id="Path_1030945" data-name="Path 1030945" d="M265.553,1448.434a9.151,9.151,0,0,0-1.722-.923q-9.856,3.316-19.678,6.646a26.621,26.621,0,0,0,2.768.585Q256.247,1451.591,265.553,1448.434Z" transform="translate(-236.044 -1444.783)" fill="#fff3ce" opacity="0.4"/>
          </g>
        </g>
      </g>
      <g id="Group_1184165" data-name="Group 1184165" transform="translate(259.307 424.908)">
        <g id="Group_1184146" data-name="Group 1184146" transform="translate(0 9.441)">
          <path id="Path_1030946" data-name="Path 1030946" d="M1294.573,1709.667H1224.74l9.949-9.867h49.933Z" transform="translate(-1224.74 -1699.8)" fill="#5470b4"/>
          <path id="Path_1030947" data-name="Path 1030947" d="M1343.829,1708.211a5.05,5.05,0,0,1-3.062-.739.279.279,0,0,1-.058-.119h-40.185a.257.257,0,0,1-.065.154,5.057,5.057,0,0,1-3.068.741c-.084,0-.166,0-.246,0l-5.063,5.686c.263-.024.527-.038.788-.038,1.667,0,2.623.512,2.118,1.165a1.267,1.267,0,0,1-.134.141h52.509a1.444,1.444,0,0,1-.209-.2c-.506-.631.366-1.128,1.936-1.158l-5.018-5.633C1344,1708.209,1343.913,1708.211,1343.829,1708.211Z" transform="translate(-1285.711 -1706.639)" fill="#88abd8"/>
          <path id="Path_1030948" data-name="Path 1030948" d="M1507.438,1714.5c.687,1.982-3.75,3.8-10,3.8s-10.686-1.818-10-3.8c.6-1.742,5.053-3.007,10-3.007S1506.833,1712.756,1507.438,1714.5Z" transform="translate(-1462.522 -1710.384)" fill="#5470b4"/>
          <g id="Group_1184144" data-name="Group 1184144" transform="translate(30.241 1.726)">
            <path id="Path_1030949" data-name="Path 1030949" d="M1548.614,1718.04h1.378l.012.355a12.594,12.594,0,0,1,2.986.407l-1.508.632a9.62,9.62,0,0,0-1.478-.294l.029.826c2.287.229,3.494.664,3.6,1.324.053.344-.21.639-.8.882a9.012,9.012,0,0,1-2.728.493l.021.627H1548.5l.011-.62h-.262a13.965,13.965,0,0,1-2.081-.182,7.2,7.2,0,0,1-1.781-.457l1.743-.724a8.637,8.637,0,0,0,2.4.472l.02-1.079a8.774,8.774,0,0,1-2.483-.487c-.544-.225-.794-.482-.755-.769s.338-.543.886-.741a7.874,7.874,0,0,1,2.409-.314Zm-.048,1.776.013-.7q-.807.09-.82.333C1547.751,1719.629,1548.019,1719.752,1548.566,1719.816Zm1.5,1.07.028.838q.968-.086.946-.422C1551.025,1721.1,1550.7,1720.963,1550.064,1720.886Z" transform="translate(-1544.391 -1718.04)" fill="#88abd8"/>
          </g>
          <g id="Group_1184145" data-name="Group 1184145" transform="translate(13.883 3.228)">
            <path id="Path_1030950" data-name="Path 1030950" d="M1762.774,1734.807c.372.514-.573.944-2.126.944s-3.04-.43-3.317-.944c-.266-.5.706-.886,2.163-.886S1762.415,1734.312,1762.774,1734.807Z" transform="translate(-1720.79 -1733.921)" fill="#5470b4"/>
            <path id="Path_1030951" data-name="Path 1030951" d="M1377.014,1734.807c-.275.514-1.764.944-3.317.944s-2.5-.43-2.125-.944c.36-.5,1.824-.886,3.28-.886S1377.28,1734.312,1377.014,1734.807Z" transform="translate(-1371.491 -1733.921)" fill="#5470b4"/>
          </g>
        </g>
        <g id="Group_1184149" data-name="Group 1184149" transform="translate(0 9.441)">
          <path id="Path_1030952" data-name="Path 1030952" d="M1294.573,1709.667H1224.74l9.949-9.867h49.933Z" transform="translate(-1224.74 -1699.8)" fill="#4a63a0"/>
          <path id="Path_1030953" data-name="Path 1030953" d="M1343.829,1708.211a5.05,5.05,0,0,1-3.062-.739.279.279,0,0,1-.058-.119h-40.185a.257.257,0,0,1-.065.154,5.057,5.057,0,0,1-3.068.741c-.084,0-.166,0-.246,0l-5.063,5.686c.263-.024.527-.038.788-.038,1.667,0,2.623.512,2.118,1.165a1.267,1.267,0,0,1-.134.141h52.509a1.444,1.444,0,0,1-.209-.2c-.506-.631.366-1.128,1.936-1.158l-5.018-5.633C1344,1708.209,1343.913,1708.211,1343.829,1708.211Z" transform="translate(-1285.711 -1706.639)" fill="#88abd8"/>
          <path id="Path_1030954" data-name="Path 1030954" d="M1507.438,1714.5c.687,1.982-3.75,3.8-10,3.8s-10.686-1.818-10-3.8c.6-1.742,5.053-3.007,10-3.007S1506.833,1712.756,1507.438,1714.5Z" transform="translate(-1462.522 -1710.384)" fill="#5470b4"/>
          <g id="Group_1184147" data-name="Group 1184147" transform="translate(30.241 1.726)">
            <path id="Path_1030955" data-name="Path 1030955" d="M1548.614,1718.04h1.378l.012.355a12.594,12.594,0,0,1,2.986.407l-1.508.632a9.62,9.62,0,0,0-1.478-.294l.029.826c2.287.229,3.494.664,3.6,1.324.053.344-.21.639-.8.882a9.012,9.012,0,0,1-2.728.493l.021.627H1548.5l.011-.62h-.262a13.965,13.965,0,0,1-2.081-.182,7.2,7.2,0,0,1-1.781-.457l1.743-.724a8.637,8.637,0,0,0,2.4.472l.02-1.079a8.774,8.774,0,0,1-2.483-.487c-.544-.225-.794-.482-.755-.769s.338-.543.886-.741a7.874,7.874,0,0,1,2.409-.314Zm-.048,1.776.013-.7q-.807.09-.82.333C1547.751,1719.629,1548.019,1719.752,1548.566,1719.816Zm1.5,1.07.028.838q.968-.086.946-.422C1551.025,1721.1,1550.7,1720.963,1550.064,1720.886Z" transform="translate(-1544.391 -1718.04)" fill="#88abd8"/>
          </g>
          <g id="Group_1184148" data-name="Group 1184148" transform="translate(13.883 3.228)">
            <path id="Path_1030956" data-name="Path 1030956" d="M1762.774,1734.807c.372.514-.573.944-2.126.944s-3.04-.43-3.317-.944c-.266-.5.706-.886,2.163-.886S1762.415,1734.312,1762.774,1734.807Z" transform="translate(-1720.79 -1733.921)" fill="#5470b4"/>
            <path id="Path_1030957" data-name="Path 1030957" d="M1377.014,1734.807c-.275.514-1.764.944-3.317.944s-2.5-.43-2.125-.944c.36-.5,1.824-.886,3.28-.886S1377.28,1734.312,1377.014,1734.807Z" transform="translate(-1371.491 -1733.921)" fill="#5470b4"/>
          </g>
        </g>
        <g id="Group_1184152" data-name="Group 1184152" transform="translate(0 7.553)">
          <path id="Path_1030958" data-name="Path 1030958" d="M1294.573,1689.716H1224.74l9.949-9.866h49.933Z" transform="translate(-1224.74 -1679.85)" fill="#506bad"/>
          <path id="Path_1030959" data-name="Path 1030959" d="M1343.829,1688.255a5.059,5.059,0,0,1-3.062-.738.284.284,0,0,1-.058-.119h-40.185a.262.262,0,0,1-.065.155,5.069,5.069,0,0,1-3.068.74c-.084,0-.166,0-.246,0l-5.063,5.685c.263-.024.527-.037.788-.037,1.667,0,2.623.511,2.118,1.164a1.078,1.078,0,0,1-.134.141h52.509a1.354,1.354,0,0,1-.209-.2c-.506-.631.366-1.128,1.936-1.157l-5.018-5.632C1344,1688.254,1343.913,1688.255,1343.829,1688.255Z" transform="translate(-1285.711 -1686.684)" fill="#88abd8"/>
          <path id="Path_1030960" data-name="Path 1030960" d="M1507.438,1694.543c.687,1.982-3.75,3.8-10,3.8s-10.686-1.818-10-3.8c.6-1.743,5.053-3.008,10-3.008S1506.833,1692.8,1507.438,1694.543Z" transform="translate(-1462.522 -1690.429)" fill="#5470b4"/>
          <g id="Group_1184150" data-name="Group 1184150" transform="translate(30.241 1.725)">
            <path id="Path_1030961" data-name="Path 1030961" d="M1548.614,1698.08h1.378l.012.354a12.616,12.616,0,0,1,2.986.409l-1.508.63a9.645,9.645,0,0,0-1.478-.293l.029.825c2.287.229,3.494.664,3.6,1.325.053.343-.21.637-.8.882a9.029,9.029,0,0,1-2.728.492l.021.627H1548.5l.011-.619h-.262a13.76,13.76,0,0,1-2.081-.183,7.244,7.244,0,0,1-1.781-.456l1.743-.725a8.627,8.627,0,0,0,2.4.473l.02-1.079a8.816,8.816,0,0,1-2.483-.487c-.544-.227-.794-.484-.755-.77s.338-.542.886-.74a7.866,7.866,0,0,1,2.409-.315Zm-.048,1.776.013-.7q-.807.089-.82.334C1547.751,1699.67,1548.019,1699.792,1548.566,1699.856Zm1.5,1.07.028.838q.968-.087.946-.422C1551.025,1701.141,1550.7,1701,1550.064,1700.926Z" transform="translate(-1544.391 -1698.08)" fill="#88abd8"/>
          </g>
          <g id="Group_1184151" data-name="Group 1184151" transform="translate(13.883 3.228)">
            <path id="Path_1030962" data-name="Path 1030962" d="M1762.774,1714.852c.372.513-.573.944-2.126.944s-3.04-.43-3.317-.944c-.266-.5.706-.886,2.163-.886S1762.415,1714.356,1762.774,1714.852Z" transform="translate(-1720.79 -1713.966)" fill="#5470b4"/>
            <path id="Path_1030963" data-name="Path 1030963" d="M1377.014,1714.852c-.275.513-1.764.944-3.317.944s-2.5-.43-2.125-.944c.36-.5,1.824-.886,3.28-.886S1377.28,1714.356,1377.014,1714.852Z" transform="translate(-1371.491 -1713.966)" fill="#5470b4"/>
          </g>
        </g>
        <g id="Group_1184155" data-name="Group 1184155" transform="translate(0 5.665)">
          <path id="Path_1030964" data-name="Path 1030964" d="M1294.573,1669.756H1224.74l9.949-9.866h49.933Z" transform="translate(-1224.74 -1659.89)" fill="#4a63a0"/>
          <path id="Path_1030965" data-name="Path 1030965" d="M1343.829,1668.3a5.052,5.052,0,0,1-3.062-.739.284.284,0,0,1-.058-.119h-40.185a.258.258,0,0,1-.065.154,5.061,5.061,0,0,1-3.068.741c-.084,0-.166,0-.246,0l-5.063,5.686c.263-.023.527-.038.788-.038,1.667,0,2.623.512,2.118,1.165a1.213,1.213,0,0,1-.134.141h52.509a1.406,1.406,0,0,1-.209-.2c-.506-.632.366-1.128,1.936-1.158l-5.018-5.633C1344,1668.3,1343.913,1668.3,1343.829,1668.3Z" transform="translate(-1285.711 -1666.728)" fill="#88abd8"/>
          <path id="Path_1030966" data-name="Path 1030966" d="M1507.438,1674.584c.687,1.981-3.75,3.8-10,3.8s-10.686-1.818-10-3.8c.6-1.744,5.053-3.009,10-3.009S1506.833,1672.84,1507.438,1674.584Z" transform="translate(-1462.522 -1670.469)" fill="#5470b4"/>
          <g id="Group_1184153" data-name="Group 1184153" transform="translate(30.241 1.725)">
            <path id="Path_1030967" data-name="Path 1030967" d="M1548.614,1678.12h1.378l.012.355a12.6,12.6,0,0,1,2.986.407l-1.508.632a9.62,9.62,0,0,0-1.478-.294l.029.826c2.287.229,3.494.664,3.6,1.324.053.344-.21.639-.8.882a9.006,9.006,0,0,1-2.728.493l.021.627H1548.5l.011-.62h-.262a13.974,13.974,0,0,1-2.081-.182,7.217,7.217,0,0,1-1.781-.458l1.743-.724a8.606,8.606,0,0,0,2.4.472l.02-1.079a8.777,8.777,0,0,1-2.483-.487c-.544-.225-.794-.482-.755-.769s.338-.544.886-.741a7.877,7.877,0,0,1,2.409-.314Zm-.048,1.777.013-.7c-.538.06-.812.17-.82.333S1548.019,1679.832,1548.566,1679.9Zm1.5,1.069.028.839q.968-.086.946-.422C1551.025,1681.181,1550.7,1681.043,1550.064,1680.966Z" transform="translate(-1544.391 -1678.12)" fill="#88abd8"/>
          </g>
          <g id="Group_1184154" data-name="Group 1184154" transform="translate(13.883 3.228)">
            <path id="Path_1030968" data-name="Path 1030968" d="M1762.774,1694.893c.372.513-.573.943-2.126.943s-3.04-.43-3.317-.943c-.266-.5.706-.887,2.163-.887S1762.415,1694.4,1762.774,1694.893Z" transform="translate(-1720.79 -1694.006)" fill="#5470b4"/>
            <path id="Path_1030969" data-name="Path 1030969" d="M1377.014,1694.893c-.275.513-1.764.943-3.317.943s-2.5-.43-2.125-.943c.36-.5,1.824-.887,3.28-.887S1377.28,1694.4,1377.014,1694.893Z" transform="translate(-1371.491 -1694.006)" fill="#5470b4"/>
          </g>
        </g>
        <g id="Group_1184158" data-name="Group 1184158" transform="translate(0 3.777)">
          <path id="Path_1030970" data-name="Path 1030970" d="M1294.573,1649.8H1224.74l9.949-9.866h49.933Z" transform="translate(-1224.74 -1639.93)" fill="#5470b4"/>
          <path id="Path_1030971" data-name="Path 1030971" d="M1343.829,1648.331a5.06,5.06,0,0,1-3.062-.738.284.284,0,0,1-.058-.12h-40.185a.264.264,0,0,1-.065.156,5.063,5.063,0,0,1-3.068.741c-.084,0-.166,0-.246,0l-5.063,5.685c.263-.024.527-.037.788-.037,1.667,0,2.623.511,2.118,1.165a1.1,1.1,0,0,1-.134.141h52.509a1.339,1.339,0,0,1-.209-.2c-.506-.631.366-1.128,1.936-1.157l-5.018-5.632C1344,1648.33,1343.913,1648.331,1343.829,1648.331Z" transform="translate(-1285.711 -1646.759)" fill="#88abd8"/>
          <path id="Path_1030972" data-name="Path 1030972" d="M1507.438,1654.623c.687,1.982-3.75,3.8-10,3.8s-10.686-1.818-10-3.8c.6-1.742,5.053-3.008,10-3.008S1506.833,1652.88,1507.438,1654.623Z" transform="translate(-1462.522 -1650.51)" fill="#5470b4"/>
          <g id="Group_1184156" data-name="Group 1184156" transform="translate(30.241 1.725)">
            <path id="Path_1030973" data-name="Path 1030973" d="M1548.614,1658.16h1.378l.012.354a12.634,12.634,0,0,1,2.986.409l-1.508.631a9.62,9.62,0,0,0-1.478-.294l.029.825c2.287.229,3.494.665,3.6,1.325.053.343-.21.638-.8.882a9.023,9.023,0,0,1-2.728.493l.021.626H1548.5l.011-.62h-.262a13.738,13.738,0,0,1-2.081-.182,7.193,7.193,0,0,1-1.781-.457l1.743-.724a8.655,8.655,0,0,0,2.4.472l.02-1.079a8.8,8.8,0,0,1-2.483-.487c-.544-.227-.794-.483-.755-.769s.338-.544.886-.741a7.87,7.87,0,0,1,2.409-.315Zm-.048,1.777.013-.7q-.807.089-.82.334C1547.751,1659.75,1548.019,1659.872,1548.566,1659.937Zm1.5,1.068.028.839c.646-.058.961-.2.946-.422C1551.025,1661.221,1550.7,1661.083,1550.064,1661Z" transform="translate(-1544.391 -1658.16)" fill="#88abd8"/>
          </g>
          <g id="Group_1184157" data-name="Group 1184157" transform="translate(13.883 3.228)">
            <path id="Path_1030974" data-name="Path 1030974" d="M1762.774,1674.937c.372.514-.573.944-2.126.944s-3.04-.43-3.317-.944c-.266-.5.706-.885,2.163-.885S1762.415,1674.441,1762.774,1674.937Z" transform="translate(-1720.79 -1674.051)" fill="#5470b4"/>
            <path id="Path_1030975" data-name="Path 1030975" d="M1377.014,1674.937c-.275.514-1.764.944-3.317.944s-2.5-.43-2.125-.944c.36-.5,1.824-.885,3.28-.885S1377.28,1674.441,1377.014,1674.937Z" transform="translate(-1371.491 -1674.051)" fill="#5470b4"/>
          </g>
        </g>
        <g id="Group_1184161" data-name="Group 1184161" transform="translate(0 1.888)">
          <path id="Path_1030976" data-name="Path 1030976" d="M1294.573,1629.836H1224.74l9.949-9.866h49.933Z" transform="translate(-1224.74 -1619.97)" fill="#4a63a0"/>
          <path id="Path_1030977" data-name="Path 1030977" d="M1343.829,1628.376a5.049,5.049,0,0,1-3.062-.739.283.283,0,0,1-.058-.119h-40.185a.261.261,0,0,1-.065.155,5.061,5.061,0,0,1-3.068.741c-.084,0-.166,0-.246,0l-5.063,5.685c.263-.023.527-.037.788-.037,1.667,0,2.623.511,2.118,1.165a1.223,1.223,0,0,1-.134.141h52.509a1.392,1.392,0,0,1-.209-.2c-.506-.632.366-1.129,1.936-1.158l-5.018-5.633C1344,1628.374,1343.913,1628.376,1343.829,1628.376Z" transform="translate(-1285.711 -1626.804)" fill="#88abd8"/>
          <path id="Path_1030978" data-name="Path 1030978" d="M1507.438,1634.654c.687,1.982-3.75,3.8-10,3.8s-10.686-1.817-10-3.8c.6-1.743,5.053-3.009,10-3.009S1506.833,1632.911,1507.438,1634.654Z" transform="translate(-1462.522 -1630.541)" fill="#5470b4"/>
          <g id="Group_1184159" data-name="Group 1184159" transform="translate(30.241 1.725)">
            <path id="Path_1030979" data-name="Path 1030979" d="M1548.614,1638.2h1.378l.012.355a12.6,12.6,0,0,1,2.986.407l-1.508.632a9.676,9.676,0,0,0-1.478-.3l.029.826c2.287.23,3.494.665,3.6,1.324.053.344-.21.639-.8.882a9.014,9.014,0,0,1-2.728.494l.021.626H1548.5l.011-.62h-.262a13.922,13.922,0,0,1-2.081-.182,7.193,7.193,0,0,1-1.781-.458l1.743-.723a8.628,8.628,0,0,0,2.4.472l.02-1.079a8.766,8.766,0,0,1-2.483-.487c-.544-.225-.794-.482-.755-.769s.338-.544.886-.741a7.889,7.889,0,0,1,2.409-.314Zm-.048,1.776.013-.7q-.807.089-.82.334C1547.751,1639.79,1548.019,1639.912,1548.566,1639.976Zm1.5,1.07.028.838c.646-.057.961-.2.946-.422C1551.025,1641.262,1550.7,1641.123,1550.064,1641.046Z" transform="translate(-1544.391 -1638.2)" fill="#88abd8"/>
          </g>
          <g id="Group_1184160" data-name="Group 1184160" transform="translate(13.883 3.227)">
            <path id="Path_1030980" data-name="Path 1030980" d="M1762.774,1654.967c.372.513-.573.943-2.126.943s-3.04-.43-3.317-.943c-.266-.5.706-.886,2.163-.886S1762.415,1654.472,1762.774,1654.967Z" transform="translate(-1720.79 -1654.081)" fill="#5470b4"/>
            <path id="Path_1030981" data-name="Path 1030981" d="M1377.014,1654.967c-.275.513-1.764.943-3.317.943s-2.5-.43-2.125-.943c.36-.5,1.824-.886,3.28-.886S1377.28,1654.472,1377.014,1654.967Z" transform="translate(-1371.491 -1654.081)" fill="#5470b4"/>
          </g>
        </g>
        <g id="Group_1184164" data-name="Group 1184164" transform="translate(0 0)">
          <path id="Path_1030982" data-name="Path 1030982" d="M1294.573,1609.877H1224.74l9.949-9.867h49.933Z" transform="translate(-1224.74 -1600.01)" fill="#5470b4"/>
          <path id="Path_1030983" data-name="Path 1030983" d="M1343.829,1608.415a5.058,5.058,0,0,1-3.062-.738.284.284,0,0,1-.058-.119h-40.185a.263.263,0,0,1-.065.155,5.068,5.068,0,0,1-3.068.741c-.084,0-.166,0-.246,0l-5.063,5.685c.263-.023.527-.037.788-.037,1.667,0,2.623.511,2.118,1.164a1.1,1.1,0,0,1-.134.141h52.509a1.352,1.352,0,0,1-.209-.2c-.506-.631.366-1.128,1.936-1.157l-5.018-5.632C1344,1608.414,1343.913,1608.415,1343.829,1608.415Z" transform="translate(-1285.711 -1606.844)" fill="#88abd8"/>
          <path id="Path_1030984" data-name="Path 1030984" d="M1507.438,1614.708c.687,1.982-3.75,3.8-10,3.8s-10.686-1.818-10-3.8c.6-1.742,5.053-3.008,10-3.008S1506.833,1612.965,1507.438,1614.708Z" transform="translate(-1462.522 -1610.594)" fill="#5470b4"/>
          <g id="Group_1184162" data-name="Group 1184162" transform="translate(30.241 1.726)">
            <path id="Path_1030985" data-name="Path 1030985" d="M1548.614,1618.25h1.378l.012.354a12.573,12.573,0,0,1,2.986.408l-1.508.631a9.6,9.6,0,0,0-1.478-.294l.029.825c2.287.229,3.494.665,3.6,1.324.053.343-.21.639-.8.883a9.08,9.08,0,0,1-2.728.494l.021.625H1548.5l.011-.619h-.262a13.83,13.83,0,0,1-2.081-.182,7.2,7.2,0,0,1-1.781-.457l1.743-.724a8.655,8.655,0,0,0,2.4.472l.02-1.078a8.8,8.8,0,0,1-2.483-.488c-.544-.226-.794-.483-.755-.769s.338-.543.886-.741a7.877,7.877,0,0,1,2.409-.315Zm-.048,1.776.013-.7c-.538.059-.812.17-.82.334S1548.019,1619.961,1548.566,1620.026Zm1.5,1.069.028.838c.646-.057.961-.2.946-.422C1551.025,1621.31,1550.7,1621.172,1550.064,1621.095Z" transform="translate(-1544.391 -1618.25)" fill="#88abd8"/>
          </g>
          <g id="Group_1184163" data-name="Group 1184163" transform="translate(13.883 3.228)">
            <path id="Path_1030986" data-name="Path 1030986" d="M1762.774,1635.021c.372.514-.573.944-2.126.944s-3.04-.43-3.317-.944c-.266-.495.706-.885,2.163-.885S1762.415,1634.526,1762.774,1635.021Z" transform="translate(-1720.79 -1634.136)" fill="#5470b4"/>
            <path id="Path_1030987" data-name="Path 1030987" d="M1377.014,1635.021c-.275.514-1.764.944-3.317.944s-2.5-.43-2.125-.944c.36-.495,1.824-.885,3.28-.885S1377.28,1634.526,1377.014,1635.021Z" transform="translate(-1371.491 -1634.136)" fill="#5470b4"/>
          </g>
        </g>
      </g>
      <g id="Group_1184181" data-name="Group 1184181" transform="translate(161.114 309.227)">
        <path id="Path_1030988" data-name="Path 1030988" d="M209.9,671.618a3.884,3.884,0,0,0-.213.647c-.321,1.394.21,3.465.445,4.875.373,1.775-2.5,3.218-3.669,4.112a5.269,5.269,0,0,0-2.037,4.922,5.792,5.792,0,0,0,3.08,4.6c1.1.49,2.345.136,3.3,1.01,1,.91,1.051,2.947,2.92,2.016,1.237-.616,2.114-2.692,2.835-3.8,1.157-1.777,1.41-3.993,2.62-5.732,1.309-1.881,3.109-1.985,2.06-4.706-.517-1.342.252-2.54.58-3.836a6.133,6.133,0,0,0-.609-4.26c-.366-.766-.229-1.552-.669-2.3a5.257,5.257,0,0,0-1.706-2.066,5.328,5.328,0,0,0-6,.808A13.205,13.205,0,0,0,209.9,671.618Z" transform="translate(-202.734 -639.13)" fill="#e76c63"/>
        <g id="Group_1184168" data-name="Group 1184168" transform="translate(25.658 42.111)">
          <g id="Group_1184167" data-name="Group 1184167">
            <g id="Group_1184166" data-name="Group 1184166">
              <path id="Path_1030989" data-name="Path 1030989" d="M459.169,827.154c-.38-.3-1.355-1.35-1.108-2.019.206-.561.5-.617.495-.617,1.561-.586,3.144-1.116,4.747-1.573.506-.145,1.671-.7,2.181-.567.642.163,1.022,1.15,1.318,1.665-.439-.033-1.066.493-1.466.7-.562.295-1.13.578-1.709.839A28.894,28.894,0,0,1,459.169,827.154Z" transform="translate(-458.021 -822.357)" fill="#eab1b8"/>
            </g>
          </g>
        </g>
        <g id="Group_1184170" data-name="Group 1184170" transform="translate(13.929 42.086)">
          <g id="Group_1184169" data-name="Group 1184169">
            <path id="Path_1030990" data-name="Path 1030990" d="M345.893,823.924c-1.589-.326-3.68-.465-4.292-.645-3.562-1.05-6.977-1.9-7.495-.274-.585,1.844,3.119,3.559,6.225,4.322,2.7.664,4.648.543,7.564.681A6.954,6.954,0,0,0,345.893,823.924Z" transform="translate(-334.045 -822.096)" fill="#9cd4f0"/>
          </g>
        </g>
        <g id="Group_1184172" data-name="Group 1184172" transform="translate(11.471 33.224)">
          <g id="Group_1184171" data-name="Group 1184171">
            <path id="Path_1030991" data-name="Path 1030991" d="M308.086,729.746c.118.6.982,1.392,1.2.882a3.111,3.111,0,0,0,.131-1.595c-.119-.6-.019-.672-.563-.564A1.056,1.056,0,0,0,308.086,729.746Z" transform="translate(-308.062 -728.428)" fill="#eab1b8"/>
          </g>
        </g>
        <path id="Path_1030992" data-name="Path 1030992" d="M315.917,759.967c.092-1.2,3.616,1.032,3.616,1.032l-.377,4.586s-.037-.184-1.77-.143c-1.056.026-1.952-.025-1.9-1.013C315.519,763.819,315.886,760.383,315.917,759.967Z" transform="translate(-303.311 -723.437)" fill="#eab1b8"/>
        <path id="Path_1030993" data-name="Path 1030993" d="M319,761.125a3.531,3.531,0,0,0,3.429,2.654l.24-2.78s-3.524-2.234-3.616-1.032c-.009.127-.05.539-.1,1.063A.28.28,0,0,1,319,761.125Z" transform="translate(-306.448 -723.437)" fill="#e5958a"/>
        <path id="Path_1030994" data-name="Path 1030994" d="M320.89,698.6a3.243,3.243,0,0,1-3.677-1.19,3.346,3.346,0,0,1-.487-2.024c.057-.815.294-1.54.357-2.359a5.128,5.128,0,0,1,.164-1.049,2.947,2.947,0,0,1,.932-1.414,4.415,4.415,0,0,1,1.541-.642,4.037,4.037,0,0,1,1.441-.313c.333.021.5.262.727.489A5.847,5.847,0,0,1,323,695.168C322.743,696.387,322.087,698.035,320.89,698.6Z" transform="translate(-304.427 -660.057)" fill="#eab1b8"/>
        <path id="Path_1030995" data-name="Path 1030995" d="M260.964,1056.487a14.781,14.781,0,0,1-1.294,5.1c-2.593,6.791-4.472,13.233-5.57,15.08-1.2,2.022-4.743-1.611-4.743-1.611s4.887-20.244,6.014-21.545S261.052,1054.65,260.964,1056.487Z" transform="translate(-243.439 -989.2)" fill="#eab1b8"/>
        <path id="Path_1030996" data-name="Path 1030996" d="M258.123,1057.536a14.783,14.783,0,0,1-1.294,5.1c-2.593,6.791-4.472,13.233-5.57,15.08-1.2,2.022-5.04-.789-5.04-.789s4.338-20.943,5.464-22.245S258.211,1055.7,258.123,1057.536Z" transform="translate(-240.598 -990.25)" fill="#3f578e"/>
        <path id="Path_1030997" data-name="Path 1030997" d="M204.439,1298.891s-.9,2.907-7.917,11.564c-.939,1.158-1.315-.517-1.315-.517s5.472-12.916,6.4-14.158S204.439,1298.891,204.439,1298.891Z" transform="translate(-194.413 -1208.679)" fill="#eab1b8"/>
        <path id="Path_1030998" data-name="Path 1030998" d="M213.3,1298.282a35.694,35.694,0,0,0,3.339-10.262s-4.228-1.849-5.16-.608c-.471.628-2.173,4.354-3.765,7.955C208.95,1295.983,213.284,1298.276,213.3,1298.282Z" transform="translate(-205.733 -1200.917)" fill="#3f578e"/>
        <path id="Path_1030999" data-name="Path 1030999" d="M310.233,1069.5a14.817,14.817,0,0,1,2.016,4.86,102.707,102.707,0,0,1,3.215,14.5c.248,2.339-3.417,2.466-3.417,2.466s-8.2-19.143-8.077-20.86S309.2,1067.979,310.233,1069.5Z" transform="translate(-292.884 -1003.271)" fill="#eab1b8"/>
        <path id="Path_1031000" data-name="Path 1031000" d="M386.827,1325.933s.5,3.108-2.208,13.92c-.361,1.445-1.494-.008-1.494-.008s-.464-12.066-.144-13.586S386.827,1325.933,386.827,1325.933Z" transform="translate(-364.32 -1235.778)" fill="#eab1b8"/>
        <path id="Path_1031001" data-name="Path 1031001" d="M373.031,1304.37a47.453,47.453,0,0,0-.456-13.479s-4.051.119-4.372,1.639a96.585,96.585,0,0,0-1.639,11.84Z" transform="translate(-349.558 -1204.455)" fill="#4865a2"/>
        <path id="Path_1031002" data-name="Path 1031002" d="M285.676,1025.09a82.889,82.889,0,0,0-2.094-8.84,80.475,80.475,0,0,0-3.155-9.348c-.347-.81.112-4.252-.418-4.6-1.233-.818-4.387.18-6.069.512a2.867,2.867,0,0,0-1,.5c-.565.355-1.312,2.275-1.5,2.914a7,7,0,0,0,.8,5.389c.742,1.183,1.442,2.393,2.123,3.613.585,1.048,1.31,1.983,1.912,3.036a54.17,54.17,0,0,1,3.191,7.428c.332.855,2.435,4.905,2.444,5.5.052,3.135,2.854-1.32,3.816-1.6.554-.161.522-.264.488-.861-.025-.455-.091-.909-.16-1.359Q285.88,1026.227,285.676,1025.09Z" transform="translate(-263.221 -942.881)" fill="#4865a2"/>
        <path id="Path_1031003" data-name="Path 1031003" d="M293.884,820.218c.272-5.427,1.327-13.41.643-14.183-1.2-1.358-1.261-4.327-2.132-5.416-1.3-1.629-2.429-2.394-4.057-.036-.552.8-1.234,5.59-1.365,6.189-.289,1.326-.4,7.932-.725,13.255Z" transform="translate(-276.84 -759.182)" fill="#eab1b8"/>
        <path id="Path_1031004" data-name="Path 1031004" d="M292.943,825.228c.281-3.974.549-7.261.894-9.611.1-.712.322-1.4.439-2.1a4.281,4.281,0,0,0-.46-2.128c-.266-.6-.546-1.194-.8-1.8s-.443-1.208-.637-1.821c-.061-.19-.383-1.58-.574-1.6-.022,0-.748-.064-1.035-.126a4.819,4.819,0,0,1-1.449-.58c-.123-.074-1.1-.874-1.135-.842a11.194,11.194,0,0,0-2.747,6.215c-.091.773.047,12.578-.231,14.238Z" transform="translate(-275.9 -764.192)" fill="#cfe5f3"/>
        <path id="Path_1031005" data-name="Path 1031005" d="M274.971,817.975a22.137,22.137,0,0,0-.714-7.18,24.563,24.563,0,0,0-2.621-5.632,6.126,6.126,0,0,0-.731-.536,11.194,11.194,0,0,0-2.747,6.215c-.091.773-1.76,14.992-2.037,16.652l7.59,1.457C274.118,826.435,274.9,820.506,274.971,817.975Z" transform="translate(-258.618 -764.193)" fill="#9cd4f0"/>
        <g id="Group_1184175" data-name="Group 1184175" transform="translate(14.538 51.622)">
          <g id="Group_1184174" data-name="Group 1184174">
            <g id="Group_1184173" data-name="Group 1184173">
              <path id="Path_1031006" data-name="Path 1031006" d="M341.862,929.137c-.416-.245-1.521-1.158-1.365-1.854.13-.584.41-.678.409-.678a54.986,54.986,0,0,1,7.938-3.53c2.268-.775,1.1,1.19,1.1,1.19A33.781,33.781,0,0,1,341.862,929.137Z" transform="translate(-340.482 -922.894)" fill="#eab1b8"/>
            </g>
          </g>
        </g>
        <g id="Group_1184178" data-name="Group 1184178" transform="translate(10.444 43.77)">
          <g id="Group_1184177" data-name="Group 1184177">
            <g id="Group_1184176" data-name="Group 1184176">
              <path id="Path_1031007" data-name="Path 1031007" d="M302.928,853.887c-.146.147-1.944.941-2.275.206a68.54,68.54,0,0,1-2.75-7.154c-1.014-3.033-1.078-6.734.832-7.031,1.687-.263,2.3,4.333,2.949,7.991.138.778.6,1.683,1.165,4.186C302.85,852.085,303.222,853.409,302.928,853.887Z" transform="translate(-297.203 -839.897)" fill="#eab1b8"/>
            </g>
          </g>
        </g>
        <g id="Group_1184180" data-name="Group 1184180" transform="translate(10.283 43.674)">
          <g id="Group_1184179" data-name="Group 1184179">
            <path id="Path_1031008" data-name="Path 1031008" d="M301.5,849.862c-.417-1.568-1.225-3.5-1.336-4.129-.649-3.658-1.41-7.094-3.1-6.831-1.911.3-1.794,4.378-1.093,7.5.61,2.714,1.587,4.4,2.763,7.074A6.947,6.947,0,0,0,301.5,849.862Z" transform="translate(-295.504 -838.888)" fill="#d2e6f3"/>
          </g>
        </g>
        <path id="Path_1031009" data-name="Path 1031009" d="M311.931,668.463a4.717,4.717,0,0,1,.566.536,3.642,3.642,0,0,1,1.069,1.526,6.72,6.72,0,0,1,.212,1.278,2.093,2.093,0,0,1-.815,1.912,3.293,3.293,0,0,1-1.551.608,2.027,2.027,0,0,0-.9.308c-.175.136-.2.382-.365.506-.564.425-.562-.483-.615-.773.028.153,0,.038-.1-.343a6.109,6.109,0,0,0-.682-2.244,2.5,2.5,0,0,1-.148-2.471c.505-.759,1.913-.99,2.744-1A1.006,1.006,0,0,1,311.931,668.463Z" transform="translate(-296.84 -640.773)" fill="#e76c63"/>
        <path id="Path_1031010" data-name="Path 1031010" d="M387.4,1472.643c-.427-.063-.56,0-.989-.074a4.307,4.307,0,0,1-1.22-.407,8.367,8.367,0,0,1-1.255-.831,1.2,1.2,0,0,0-.124-.085,1.573,1.573,0,0,1-1.529-.013.228.228,0,0,1-.119-.1.4.4,0,0,0-.049.049.96.96,0,0,0-.14.456,10.3,10.3,0,0,0-.119,1.76c.083.4,2.255.875,2.968.92a10.947,10.947,0,0,0,2.639-.054C388.388,1474.111,388.126,1472.749,387.4,1472.643Z" transform="translate(-363.392 -1367.642)" fill="#374d7e"/>
        <path id="Path_1031011" data-name="Path 1031011" d="M192.27,1440.809c-.379-.208-.524-.2-.9-.414a4.336,4.336,0,0,1-1-.806,8.436,8.436,0,0,1-.887-1.216.9.9,0,0,0-.087-.123,1.571,1.571,0,0,1-1.429-.544.22.22,0,0,1-.076-.137.266.266,0,0,0-.063.029.954.954,0,0,0-.29.379,10.207,10.207,0,0,0-.724,1.609c-.061.4,1.81,1.6,2.463,1.894a10.97,10.97,0,0,0,2.493.867C192.683,1442.527,192.912,1441.158,192.27,1440.809Z" transform="translate(-186.807 -1337.256)" fill="#374d7e"/>
        <path id="Path_1031012" data-name="Path 1031012" d="M346.49,672.755a7.42,7.42,0,0,0-1-2.891,4.507,4.507,0,0,0-1.7-1.571,2.877,2.877,0,0,0-1.3-.33c-.49.967.428,2.331.861,3.21.294.6.8.746,1.237,1.167a9.732,9.732,0,0,1,.836,1.084,6.02,6.02,0,0,1,.861,1.118C346.685,674.362,346.548,673.092,346.49,672.755Z" transform="translate(-327.639 -640.451)" fill="#e76c63"/>
        <path id="Path_1031013" data-name="Path 1031013" d="M530.916,815.669a1.5,1.5,0,0,0-1.411-1.358c-.663.009-.853.729-.959,1.257a1.3,1.3,0,0,0,.832,1.753C530.632,817.931,531.132,816.73,530.916,815.669Z" transform="translate(-496.152 -772.961)" fill="#eab1b8"/>
        <path id="Path_1031014" data-name="Path 1031014" d="M360.494,393.637l14.89-3.933c-.019-.087-.043-.184-.051-.218a4.74,4.74,0,0,0-1.359-1.809,5.79,5.79,0,0,1,1.846-10.255v0l.03-.006.03-.009v0a5.791,5.791,0,0,1,6.669,8.005,4.733,4.733,0,0,0-.289,2.244c.009.034.037.131.062.216l14.891-3.934,3.933,14.891c.086-.019.184-.044.218-.053a4.731,4.731,0,0,0,1.809-1.359,5.791,5.791,0,0,1,10.255,1.847h0a.289.289,0,0,0,.007.03l.008.029h0a5.79,5.79,0,0,1-8.005,6.67,4.747,4.747,0,0,0-2.244-.289c-.034.009-.131.037-.215.063l3.933,14.891-36.719,9.7Z" transform="translate(-344.062 -377.237)" fill="#e76c63"/>
        <path id="Path_1031015" data-name="Path 1031015" d="M439.409,920.6c-1.057.187-1.737.273-1.737.273l-.749-.46s.2-.263,1.1-.38c.348-.045,1.263-.205,1.094-.5s-1.677-.031-2.534-.12a2.466,2.466,0,0,0-1.016.169h0l-2.709.229.311,1.25,4.214.806,2.638-.89S440.466,920.414,439.409,920.6Z" transform="translate(-409.576 -868.095)" fill="#eab1b8"/>
      </g>
      <g id="Group_1184210" data-name="Group 1184210" transform="translate(262.384 337.285)">
        <g id="Group_1184184" data-name="Group 1184184" transform="translate(15.17 27.219)">
          <g id="Group_1184183" data-name="Group 1184183">
            <g id="Group_1184182" data-name="Group 1184182">
              <path id="Path_1031016" data-name="Path 1031016" d="M1417.62,969.109c3.327-4.044,4.427-3.821,6.566-5.378,3.133-2.281,8.36-3.225,8.07-.739-.142,1.219-11.483,7.107-13.4,8.39C1418.309,970.885,1418.182,969.813,1417.62,969.109Z" transform="translate(-1417.62 -961.52)" fill="#eab1b8"/>
            </g>
          </g>
        </g>
        <g id="Group_1184186" data-name="Group 1184186" transform="translate(14.83 26.254)">
          <g id="Group_1184185" data-name="Group 1184185">
            <path id="Path_1031017" data-name="Path 1031017" d="M1415.517,962.871c1.636-1.037,8.3-5.142,8.967-5.485,3.869-1.994,5.633-2.776,5.077-4.914-.63-2.422-5.2-.541-8.5,1.325a34.107,34.107,0,0,0-6.654,4.872C1413.635,959.774,1414.049,962.852,1415.517,962.871Z" transform="translate(-1414.026 -951.323)" fill="#f0928b"/>
          </g>
        </g>
        <path id="Path_1031018" data-name="Path 1031018" d="M1570.437,812.718a3.659,3.659,0,0,1,2.261.425,4.313,4.313,0,0,0,.913.37c1.2.32,1.466,2.111,1.372,3.142a9.02,9.02,0,0,1-.439,1.67c-.417,1.423-1.58,2.865-3.2,2.794a3.837,3.837,0,0,1-2.732-1.423C1567.016,817.67,1567.441,813.215,1570.437,812.718Z" transform="translate(-1538.329 -799.539)" fill="#4865a2"/>
        <g id="Group_1184189" data-name="Group 1184189" transform="translate(8.7 27.954)">
          <g id="Group_1184188" data-name="Group 1184188">
            <g id="Group_1184187" data-name="Group 1184187">
              <path id="Path_1031019" data-name="Path 1031019" d="M1356.545,978c.5-.147,1.913-.813,1.935-1.588.02-.649-.251-.823-.251-.823a59.726,59.726,0,0,0-7.413-5.844c-2.182-1.423-1.475.96-1.475.96A36.755,36.755,0,0,0,1356.545,978Z" transform="translate(-1349.231 -969.29)" fill="#eab1b8"/>
            </g>
          </g>
        </g>
        <path id="Path_1031020" data-name="Path 1031020" d="M1330.42,946.362c.323.705.6,1.439.423,1.614l-.036.036-.146-.122s.1.16-.056-.048l-.044-.037a.532.532,0,0,1-.136.594c-.606.525-1.4-.334-1.822-.714a6.336,6.336,0,0,1-.9-1.061c-.314-.44-.342-1.535.239-1.8s.668.7,1.15.486c.266-.121.184-1.046.633-.356C1329.8,945.113,1330.128,945.726,1330.42,946.362Z" transform="translate(-1320.836 -919.074)" fill="#eab1b8"/>
        <g id="Group_1184191" data-name="Group 1184191" transform="translate(9.326 28.685)">
          <g id="Group_1184190" data-name="Group 1184190">
            <path id="Path_1031021" data-name="Path 1031021" d="M1357.3,977.019a58.861,58.861,0,0,1,7.3,5.42c.136.95-.1.321-.124.97a4.864,4.864,0,0,1-1.86,2.693c-3.4-2.542-5.1-5.559-6.763-7.586Z" transform="translate(-1355.85 -977.019)" fill="#f0928b"/>
          </g>
        </g>
        <g id="Group_1184193" data-name="Group 1184193" transform="translate(9.327 28.685)">
          <g id="Group_1184192" data-name="Group 1184192">
            <path id="Path_1031022" data-name="Path 1031022" d="M1356.5,979.356c-.222-.294-.438-.575-.654-.839l1.446-1.5c.295.2.6.406.91.623Z" transform="translate(-1355.851 -977.019)" fill="#fff"/>
          </g>
        </g>
        <path id="Path_1031023" data-name="Path 1031023" d="M1680.716,1257.39v3.4h-.693v-2.58h-4.36v2.58h-.693v-3.4Z" transform="translate(-1635.453 -1202.18)" fill="#f7d48d"/>
        <path id="Path_1031024" data-name="Path 1031024" d="M1530.833,1456.582s1.428,3.651-1.516,15.4c-.236.941-.969.882-1.361.579a.815.815,0,0,1-.264-.587s-1.389-13.387-1.039-15.038S1530.833,1456.582,1530.833,1456.582Z" transform="translate(-1501.117 -1382.089)" fill="#eab1b8"/>
        <path id="Path_1031025" data-name="Path 1031025" d="M1523.932,1175.57h6.823c0,.03,0,.06,0,.09q-.007,1.96-.033,3.918c-.044,3.3.03,2.454-.163,5.753-.162,2.8-2.213,15.553-2.507,16.233s-.156,1.943-.75,2.465c-.945.829-2.792,1.27-3.586.232-.535-.7-.293-4.289-.391-5.181-.083-.759-.08-1.534-.115-2.243-.139-2.848.053-5.7.065-8.551A94.763,94.763,0,0,1,1523.932,1175.57Z" transform="translate(-1498.004 -1128.101)" fill="#3a507b"/>
        <path id="Path_1031026" data-name="Path 1031026" d="M1489.3,1621.016c.465-.068.609,0,1.075-.08a4.741,4.741,0,0,0,1.327-.442,9.226,9.226,0,0,0,1.363-.9,1.13,1.13,0,0,1,.136-.092,1.711,1.711,0,0,0,1.662-.014.246.246,0,0,0,.129-.112.289.289,0,0,1,.052.053,1.033,1.033,0,0,1,.153.5,11.2,11.2,0,0,1,.13,1.913c-.09.434-2.451.951-3.226,1a11.837,11.837,0,0,1-2.868-.058C1488.227,1622.612,1488.513,1621.132,1489.3,1621.016Z" transform="translate(-1466.703 -1529.917)" fill="#374d7e"/>
        <g id="Group_1184195" data-name="Group 1184195" transform="translate(33.594 18.048)">
          <g id="Group_1184194" data-name="Group 1184194">
            <path id="Path_1031027" data-name="Path 1031027" d="M1613.883,866.251c-.276.6-1.389,1.224-1.49.631a3.388,3.388,0,0,1,.262-1.719c.277-.6.191-.706.737-.454A1.148,1.148,0,0,1,1613.883,866.251Z" transform="translate(-1612.368 -864.581)" fill="#eab1b8"/>
          </g>
        </g>
        <path id="Path_1031028" data-name="Path 1031028" d="M1575.206,890.661c-.1-1.306-3.93,1.122-3.93,1.122l.411,4.985s.04-.2,1.922-.156c1.149.027,1.864.389,1.806-.684C1575.379,895.265,1575.241,891.113,1575.206,890.661Z" transform="translate(-1541.569 -869.797)" fill="#eab1b8"/>
        <path id="Path_1031029" data-name="Path 1031029" d="M1575.27,891.92a3.835,3.835,0,0,1-3.726,2.883l-.261-3.021s3.83-2.428,3.93-1.122c.01.138-.014-.271.045.3C1575.233,890.99,1575.283,891.879,1575.27,891.92Z" transform="translate(-1541.575 -869.796)" fill="#e5958a"/>
        <path id="Path_1031030" data-name="Path 1031030" d="M1549.072,822.019a3.526,3.526,0,0,0,4.187-.334,3.622,3.622,0,0,0,1.023-2.017c.147-.876.079-1.7.218-2.584a5.557,5.557,0,0,0,.092-1.15,3.2,3.2,0,0,0-.631-1.73,4.775,4.775,0,0,0-1.468-1.067,4.4,4.4,0,0,0-1.445-.694c-.357-.062-.6.15-.892.334-1.6,1-2.408,3.262-2.453,5.079C1547.671,819.208,1547.95,821.116,1549.072,822.019Z" transform="translate(-1520.225 -799.318)" fill="#eab1b8"/>
        <path id="Path_1031031" data-name="Path 1031031" d="M1553.847,862.044a19.26,19.26,0,0,1-1.627,1.359,1.874,1.874,0,0,1-2.244.006,2.874,2.874,0,0,0-2.211-.476,4.982,4.982,0,0,0,1.365,3.637,3.526,3.526,0,0,0,4.187-.334,3.622,3.622,0,0,0,1.023-2.017c.147-.874.078-1.7.218-2.58A2.657,2.657,0,0,0,1553.847,862.044Z" transform="translate(-1520.282 -843.869)" fill="#4865a2"/>
        <path id="Path_1031032" data-name="Path 1031032" d="M1620.107,1450.794s-1.428,3.65,1.516,15.4c.235.941.969.882,1.361.579a.817.817,0,0,0,.264-.587s.707-13.629.358-15.281S1620.107,1450.794,1620.107,1450.794Z" transform="translate(-1585.467 -1376.697)" fill="#eab1b8"/>
        <path id="Path_1031033" data-name="Path 1031033" d="M1597.958,1175.57a3.256,3.256,0,0,1,.287.879,80.176,80.176,0,0,1,.594,11.44c.013,2.849-.3,11.663-.474,14.975-.069,1.3-2.967,2.226-3.912,1.4a4.476,4.476,0,0,1-1.311-1.658c-.294-.68-1.361-15.842-1.524-18.647-.191-3.3-.182-1.47-.227-4.773q-.025-1.805-.03-3.612Z" transform="translate(-1559.754 -1128.101)" fill="#3a507b"/>
        <path id="Path_1031034" data-name="Path 1031034" d="M1547.049,975.678c-.295-5.9-1.441-14.574-.7-15.413,1.308-1.478-.546-.367.4-1.55,1.415-1.77,5.819-3.616,7.589-1.055.6.868.077,2.754.219,3.4.313,1.44.432,8.622.788,14.406Z" transform="translate(-1518.779 -929.663)" fill="#eab1b8"/>
        <path id="Path_1031035" data-name="Path 1031035" d="M1522.188,943.306a6.977,6.977,0,0,1,1.071-.275c.448.406,1-.182,1.664-.209.7-.027,1.512.49,1.976.129a.571.571,0,0,0,.07-.067q.514.028,1.043.074a7.2,7.2,0,0,1,2.6.744c2.43,1.5,2.045,4.685,1.993,5.542-.136,2.277-.353,20.292.059,22.751h-14.776c-.25-.217.352-20.148.527-23.045C1518.649,945.079,1520.3,943.971,1522.188,943.306Z" transform="translate(-1493.176 -917.371)" fill="#f0928b"/>
        <g id="Group_1184198" data-name="Group 1184198" transform="translate(41.367 42.074)">
          <g id="Group_1184197" data-name="Group 1184197">
            <g id="Group_1184196" data-name="Group 1184196">
              <path id="Path_1031036" data-name="Path 1031036" d="M1697.429,1119.03c-.46-.254-1.925-.783-2.491-.254-.474.443-.406.759-.406.758a59.793,59.793,0,0,0,1.078,9.379c.527,2.55,1.721.371,1.721.371A36.776,36.776,0,0,0,1697.429,1119.03Z" transform="translate(-1694.529 -1118.549)" fill="#eab1b8"/>
            </g>
          </g>
        </g>
        <g id="Group_1184201" data-name="Group 1184201" transform="translate(35.177 26.402)">
          <g id="Group_1184200" data-name="Group 1184200">
            <g id="Group_1184199" data-name="Group 1184199">
              <path id="Path_1031037" data-name="Path 1031037" d="M1636.87,970.512c.233-.025,1.419-.474,1.321-1.469a29.054,29.054,0,0,0-2.763-10.575c-1.413-3.609-4.126-6.81-5.961-5.107-1.62,1.5,2.536,4.765,4.265,10.188a37.325,37.325,0,0,0,2.435,6.3A.858.858,0,0,0,1636.87,970.512Z" transform="translate(-1629.1 -952.89)" fill="#eab1b8"/>
            </g>
          </g>
        </g>
        <g id="Group_1184203" data-name="Group 1184203" transform="translate(34.883 26.221)">
          <g id="Group_1184202" data-name="Group 1184202">
            <path id="Path_1031038" data-name="Path 1031038" d="M1632.65,968.118c-.82-1.756-3.612-10.144-3.987-10.79-2.188-3.764-3.585-4.412-1.965-5.915,1.835-1.7,4.789,1.876,6.53,5.237,1.514,2.924,2.12,5.428,2.941,10.061C1636.227,968.059,1633.9,968.892,1632.65,968.118Z" transform="translate(-1625.994 -950.974)" fill="#f0928b"/>
          </g>
        </g>
        <path id="Path_1031039" data-name="Path 1031039" d="M1591.375,1622.555c.465-.067.609,0,1.075-.08a4.733,4.733,0,0,0,1.327-.442,9.277,9.277,0,0,0,1.363-.9,1.115,1.115,0,0,1,.135-.092,1.712,1.712,0,0,0,1.662-.014.239.239,0,0,0,.128-.112.344.344,0,0,1,.054.053,1.039,1.039,0,0,1,.152.5,11.135,11.135,0,0,1,.13,1.912c-.09.434-2.451.951-3.226,1a11.89,11.89,0,0,1-2.869-.058C1590.3,1624.151,1590.589,1622.671,1591.375,1622.555Z" transform="translate(-1559.123 -1531.311)" fill="#374d7e"/>
        <path id="Path_1031040" data-name="Path 1031040" d="M1527.28,1471.981c-.379-3.912-.956-13.832-.7-15.047.349-1.653,4.179-.354,4.179-.354s1.709,3.659-1.326,15.313Z" transform="translate(-1501.045 -1382.086)" fill="#3a507b"/>
        <path id="Path_1031041" data-name="Path 1031041" d="M1611.513,1459.348a89.369,89.369,0,0,1-2.55-16.588s5.419-2,5.277,1.056c-.059,1.285-.183,11.5-.434,15.583Z" transform="translate(-1575.691 -1369.432)" fill="#3a507b"/>
        <rect id="Rectangle_459278" data-name="Rectangle 459278" width="12.665" height="11.127" transform="translate(35.47 58.376)" fill="#4865a2"/>
        <rect id="Rectangle_459279" data-name="Rectangle 459279" width="12.665" height="11.127" transform="translate(36.174 58.376)" fill="#6379ad"/>
        <rect id="Rectangle_459280" data-name="Rectangle 459280" width="12.665" height="5.087" transform="translate(36.174 58.376)" fill="#778fc1"/>
        <path id="Path_1031042" data-name="Path 1031042" d="M1703.806,1228a2.6,2.6,0,0,1,.588-1.527h.049c0,.062.011.125.016.188,0,0,.042-.187.006.074,0,.02,0,.039.005.057a.529.529,0,0,1,.517-.321c.8.06.748,1.226.778,1.8a6.338,6.338,0,0,1-.116,1.388c-.088.521-.466.746-.88,1.054-.167.019-1.211.093-1.1-.335.019-.073.355-.2.419-.3.264-.421.087-.862.122-1.3-.142.231-.161.655-.451.766S1703.712,1228.391,1703.806,1228Z" transform="translate(-1661.397 -1174.185)" fill="#eab1b8"/>
        <path id="Path_1031043" data-name="Path 1031043" d="M1701.31,1341.48a.411.411,0,0,0,.41.411h1.29a.411.411,0,0,0,.411-.411h0a.41.41,0,0,0-.411-.411h-1.29a.41.41,0,0,0-.41.411Z" transform="translate(-1659.302 -1277.943)" fill="#f7d48d"/>
        <g id="Group_1184205" data-name="Group 1184205" transform="translate(41.246 41.632)">
          <g id="Group_1184204" data-name="Group 1184204">
            <path id="Path_1031044" data-name="Path 1031044" d="M1694.309,1124.138a62.923,62.923,0,0,1-1.056-9.118,6.874,6.874,0,0,0,.531-.477,4.874,4.874,0,0,1,3.223-.578c.6,4.207-.347,7.54-.616,10.144Z" transform="translate(-1693.253 -1113.873)" fill="#f0928b"/>
          </g>
        </g>
        <g id="Group_1184207" data-name="Group 1184207" transform="translate(42.103 50.812)">
          <g id="Group_1184206" data-name="Group 1184206">
            <path id="Path_1031045" data-name="Path 1031045" d="M1704.726,1210.91c-.053.364-.1.716-.135,1.056l-2.081.029q-.1-.523-.2-1.085Z" transform="translate(-1702.311 -1210.91)" fill="#fff"/>
          </g>
        </g>
        <path id="Path_1031046" data-name="Path 1031046" d="M1594.74,928.883l-1.906,1.32,1.437,2.2,2.169-2.022S1595.737,928.971,1594.74,928.883Z" transform="translate(-1561.088 -904.752)" fill="#fff"/>
        <path id="Path_1031047" data-name="Path 1031047" d="M1562.535,934.977l-1,2.2-2.17-1.554s.41-1.319,1.32-1.466Z" transform="translate(-1530.789 -909.526)" fill="#fff"/>
        <path id="Path_1031048" data-name="Path 1031048" d="M1546.589,797.7c.047-.635.43-.643.978-.56a15.11,15.11,0,0,0,1.606.262,8.253,8.253,0,0,0,1.727-.187,4.882,4.882,0,0,1,2.989.583c1.387.725,2.231,3.128,1.98,4.706-.083.521-.287.4-.685.747a2.239,2.239,0,0,1-.651.438,1.74,1.74,0,0,1-.694-.045c-.086-.119-.326.1-.4.2-.119.162-.191.485-.465.4-.246-.074-.331-.387-.355-.6-.053-.467.012-.933,0-1.4-.034-.96-.914-.961-1.672-1.1a7.442,7.442,0,0,1-3.574-1.283A2.632,2.632,0,0,1,1546.589,797.7Z" transform="translate(-1519.211 -785.44)" fill="#4865a2"/>
        <g id="Group_1184209" data-name="Group 1184209" transform="translate(0 0)">
          <g id="Group_1184208" data-name="Group 1184208" transform="translate(1.148 3.446)">
            <rect id="Rectangle_459281" data-name="Rectangle 459281" width="37.63" height="2.956" transform="matrix(0.575, -0.818, 0.818, 0.575, 0.001, 30.793)" fill="#ffd686"/>
            <path id="Path_1031049" data-name="Path 1031049" d="M1269.4,741.027l21.629-30.792.419.3-21.629,30.792Z" transform="translate(-1269.4 -710.235)" fill="#fff7c2"/>
            <rect id="Rectangle_459282" data-name="Rectangle 459282" width="37.63" height="0.97" transform="matrix(0.575, -0.818, 0.818, 0.575, 1.791, 32.05)" fill="#fec463"/>
          </g>
          <path id="Path_1031050" data-name="Path 1031050" d="M1498,677.257h0l2.174-1.723,2.176-1.723-.883,2.63-.883,2.631h0a10.666,10.666,0,0,1-2.584-1.815Z" transform="translate(-1475.223 -673.811)" fill="#f3dabf"/>
          <path id="Path_1031051" data-name="Path 1031051" d="M1524.44,675.269l1.851-1.458-.761,2.266A1.672,1.672,0,0,1,1524.44,675.269Z" transform="translate(-1499.164 -673.811)" fill="#39312a"/>
          <path id="Path_1031052" data-name="Path 1031052" d="M1267.84,1030.824l2.606,1.83.522-.745-2.6-1.829Z" transform="translate(-1266.839 -996.375)" fill="#67686b"/>
          <path id="Path_1031053" data-name="Path 1031053" d="M1257.64,1038.836h0l.627-.893,2.605,1.829-.664.946c-.012.019-.024.04-.038.059a1.6,1.6,0,0,1-2.614-1.835C1257.584,1038.9,1257.612,1038.87,1257.64,1038.836Z" transform="translate(-1257.267 -1003.494)" fill="#e76c63"/>
        </g>
        <path id="Path_1031054" data-name="Path 1031054" d="M1322.074,931.578a1.182,1.182,0,0,1,1.923,0c.96,1.309-.338,2.416-1.6,2.646a.983.983,0,0,1-1.126-.838A2.174,2.174,0,0,1,1322.074,931.578Z" transform="translate(-1315.195 -906.741)" fill="#eab1b8"/>
      </g>
    </g>
  </g>
</svg>
