<svg xmlns="http://www.w3.org/2000/svg" width="149.909" height="150.001" viewBox="0 0 149.909 150.001">
  <g id="img4" transform="translate(-705.985 -1710.002)">
    <g id="Group_1180300" data-name="Group 1180300" transform="translate(705.936 1710.002)">
      <g id="Grupo_155253" data-name="Grupo 155253" transform="matrix(0.999, 0.035, -0.035, 0.999, 5.062, 0)">
        <path id="Trazado_196478" data-name="Trazado 196478" d="M20.377,22.814q-.452.483-.9.974A75.7,75.7,0,0,0,.051,77.428l30.182-1.084c-.818-24.1,17.45-44.315,40.8-45.157S113.985,49.2,114.8,73.3l30.182-1.084c-1.018-30-19.313-56.469-46.471-67.234A70.928,70.928,0,0,0,20.377,22.822" transform="translate(0 0)" fill="#ff9e74"/>
        <path id="Trazado_196479" data-name="Trazado 196479" d="M0,5.22c1.4,41.3,34.98,73.608,75,72.167S146.334,41.3,144.933,0L114.751,1.084c.818,24.1-17.451,44.315-40.8,45.156S31,28.229,30.182,4.132Z" transform="translate(0.049 67.595)" fill="#70f5c8"/>
      </g>
      <ellipse id="Ellipse_13685" data-name="Ellipse 13685" cx="58.366" cy="58.462" rx="58.366" ry="58.462" transform="translate(16.722 16.827)" fill="#fff"/>
    </g>
    <g id="Group_1184634" data-name="Group 1184634" transform="translate(717.324 1744.982)">
      <g id="Group_1184633" data-name="Group 1184633" transform="translate(29.133 1.172)">
        <g id="Group_1184622" data-name="Group 1184622" transform="translate(23.972)">
          <path id="Path_1032642" data-name="Path 1032642" d="M204.708,59.861h-10.82a5.1,5.1,0,0,0-5.1,5.1V75.417H209.8V64.956a5.1,5.1,0,0,0-5.1-5.1Z" transform="translate(-188.793 -51.675)" fill="#fe76a8"/>
          <path id="Path_1032643" data-name="Path 1032643" d="M199.391,59.86a5.1,5.1,0,0,0-5.095,5.095V75.416h-5.5V64.955a5.1,5.1,0,0,1,5.095-5.095Z" transform="translate(-188.793 -51.675)" fill="#fe5694"/>
          <path id="Path_1032644" data-name="Path 1032644" d="M228.644,34.761a6.22,6.22,0,1,1-11.992-2.321c2.531,1.037,3.156.466,5.772.466s2.895.75,5.772-.466A6.2,6.2,0,0,1,228.644,34.761Z" transform="translate(-211.918 -28.541)" fill="#ffdfcf"/>
          <path id="Path_1032645" data-name="Path 1032645" d="M230.616,11.4a6.221,6.221,0,0,1-11.543,0,6.221,6.221,0,0,1,11.543,0Z" transform="translate(-214.339 -7.5)" fill="#7a6d79"/>
        </g>
        <path id="Path_1032646" data-name="Path 1032646" d="M204.708,368.186h-10.82a5.1,5.1,0,0,1-5.1-5.1V352.63H209.8v10.461A5.1,5.1,0,0,1,204.708,368.186Z" transform="translate(-164.821 -298.676)" fill="#8ac9fe"/>
        <path id="Path_1032647" data-name="Path 1032647" d="M199.391,368.186a5.1,5.1,0,0,1-5.095-5.095V352.63h-5.5v10.462a5.1,5.1,0,0,0,5.095,5.095Z" transform="translate(-164.821 -298.676)" fill="#60b7ff"/>
        <path id="Path_1032648" data-name="Path 1032648" d="M228.644,431.132a6.22,6.22,0,1,0-11.992,2.321c2.531-1.037,3.156-.466,5.772-.466s2.895-.75,5.772.466A6.2,6.2,0,0,0,228.644,431.132Z" transform="translate(-187.946 -359.657)" fill="#ffdfcf"/>
        <path id="Path_1032649" data-name="Path 1032649" d="M230.616,458.51a6.221,6.221,0,0,0-11.543,0,6.221,6.221,0,0,0,11.543,0Z" transform="translate(-190.367 -384.714)" fill="#7a6d79"/>
        <g id="Group_1184625" data-name="Group 1184625" transform="translate(0 16.283)">
          <g id="Group_1184623" data-name="Group 1184623">
            <path id="Path_1032650" data-name="Path 1032650" d="M70.55,114.207l-5.41,9.371A5.1,5.1,0,0,0,67,130.537l9.059,5.23,10.505-18.2-9.059-5.23A5.1,5.1,0,0,0,70.55,114.207Z" transform="translate(-59.921 -111.658)" fill="#8ac9fe"/>
            <path id="Path_1032651" data-name="Path 1032651" d="M67.889,157.419a5.1,5.1,0,0,0,1.865,6.96l9.06,5.231-2.751,4.766L67,169.144a5.1,5.1,0,0,1-1.865-6.96Z" transform="translate(-59.919 -150.265)" fill="#60b7ff"/>
            <path id="Path_1032652" data-name="Path 1032652" d="M51.931,113.018a6.22,6.22,0,1,1-8.006,9.225c2.163-1.673,1.981-2.5,3.289-4.766s2.1-2.132,2.483-5.231A6.2,6.2,0,0,1,51.931,113.018Z" transform="translate(-42.6 -112.154)" fill="#ae6c6c"/>
            <path id="Path_1032653" data-name="Path 1032653" d="M42.544,111.914a6.221,6.221,0,0,1-5.772,10,6.222,6.222,0,0,1,5.772-10Z" transform="translate(-35.447 -111.822)" fill="#7a6d79"/>
          </g>
          <g id="Group_1184624" data-name="Group 1184624" transform="translate(42.307 21.02)">
            <path id="Path_1032654" data-name="Path 1032654" d="M327.507,258.309l-5.41,9.371a5.1,5.1,0,0,1-6.96,1.865l-9.059-5.23,10.505-18.2,9.059,5.23A5.1,5.1,0,0,1,327.507,258.309Z" transform="translate(-306.077 -246.118)" fill="#9be69d"/>
            <path id="Path_1032655" data-name="Path 1032655" d="M324.848,335.394a5.1,5.1,0,0,1-6.96,1.865l-9.06-5.231-2.751,4.766,9.06,5.231a5.1,5.1,0,0,0,6.96-1.865Z" transform="translate(-306.077 -318.598)" fill="#6fd7a3"/>
            <path id="Path_1032656" data-name="Path 1032656" d="M406.269,321.39a6.22,6.22,0,1,0-3.986,11.546c.367-2.71,1.175-2.966,2.483-5.231s.8-2.882,3.289-4.766a6.192,6.192,0,0,0-1.786-1.549Z" transform="translate(-382.732 -308.919)" fill="#ffdfcf"/>
            <path id="Path_1032657" data-name="Path 1032657" d="M429.756,335.472a6.222,6.222,0,1,0,.491,6.948,6.218,6.218,0,0,0-.491-6.948Z" transform="translate(-404.433 -321.451)" fill="#7a6d79"/>
          </g>
        </g>
        <g id="Group_1184628" data-name="Group 1184628" transform="translate(0 16.283)">
          <g id="Group_1184626" data-name="Group 1184626" transform="translate(0 21.02)">
            <path id="Path_1032658" data-name="Path 1032658" d="M65.14,258.309l5.41,9.371a5.1,5.1,0,0,0,6.96,1.865l9.059-5.23-10.505-18.2L67,251.348A5.1,5.1,0,0,0,65.14,258.309Z" transform="translate(-59.921 -246.118)" fill="#7a6d79"/>
            <path id="Path_1032659" data-name="Path 1032659" d="M85.836,335.394a5.1,5.1,0,0,0,6.96,1.865l9.06-5.231,2.751,4.766-9.06,5.231a5.1,5.1,0,0,1-6.96-1.865Z" transform="translate(-77.959 -318.598)" fill="#685e68"/>
            <path id="Path_1032660" data-name="Path 1032660" d="M45.711,321.39A6.22,6.22,0,1,1,49.7,332.936c-.367-2.71-1.175-2.966-2.483-5.231s-.8-2.882-3.289-4.766a6.192,6.192,0,0,1,1.786-1.549Z" transform="translate(-42.6 -308.919)" fill="#ffdfcf"/>
            <path id="Path_1032661" data-name="Path 1032661" d="M36.773,335.472a6.221,6.221,0,0,1,5.772,10,6.222,6.222,0,0,1-5.772-10Z" transform="translate(-35.448 -321.451)" fill="#7a6d79"/>
          </g>
          <g id="Group_1184627" data-name="Group 1184627" transform="translate(42.307)">
            <path id="Path_1032662" data-name="Path 1032662" d="M322.1,114.207l5.41,9.371a5.1,5.1,0,0,1-1.865,6.96l-9.059,5.23-10.505-18.2,9.059-5.23A5.1,5.1,0,0,1,322.1,114.207Z" transform="translate(-306.077 -111.658)" fill="#ffe177"/>
            <path id="Path_1032663" data-name="Path 1032663" d="M366.6,157.419a5.1,5.1,0,0,1-1.865,6.96l-9.06,5.231,2.751,4.766,9.06-5.231a5.1,5.1,0,0,0,1.865-6.96Z" transform="translate(-347.923 -150.265)" fill="#fece85"/>
            <path id="Path_1032664" data-name="Path 1032664" d="M400.048,113.018a6.22,6.22,0,1,0,8.006,9.225c-2.163-1.673-1.981-2.5-3.289-4.766s-2.1-2.132-2.483-5.231a6.2,6.2,0,0,0-2.235.772Z" transform="translate(-382.732 -112.154)" fill="#ae6c6c"/>
            <path id="Path_1032665" data-name="Path 1032665" d="M423.984,111.914a6.221,6.221,0,0,0,5.772,10,6.222,6.222,0,0,0-5.772-10Z" transform="translate(-404.433 -111.822)" fill="#7a6d79"/>
          </g>
        </g>
        <circle id="Ellipse_13803" data-name="Ellipse 13803" cx="21.139" cy="21.139" r="21.139" transform="translate(13.339 17.709)" fill="#dc8758"/>
        <path id="Path_1032666" data-name="Path 1032666" d="M184.8,189.32l-3.495,8.289a1.007,1.007,0,0,1-1.319.537L168.3,193.218a1.007,1.007,0,0,1-.537-1.319l3.495-8.289a1.007,1.007,0,0,1,1.319-.537L184.265,188A1.007,1.007,0,0,1,184.8,189.32Z" transform="translate(-147.011 -155.559)" fill="#d8ecfe"/>
        <path id="Path_1032667" data-name="Path 1032667" d="M265.91,211.012l-8.25,3.586a1.007,1.007,0,0,1-1.325-.522l-5.056-11.633a1.007,1.007,0,0,1,.522-1.325l8.25-3.586a1.007,1.007,0,0,1,1.325.522l5.056,11.633A1.007,1.007,0,0,1,265.91,211.012Z" transform="translate(-217.468 -167.754)" fill="#f5f8f9"/>
        <path id="Path_1032668" data-name="Path 1032668" d="M256.676,250.755l-8.25,3.586a1.007,1.007,0,0,1-1.325-.522l-5.056-11.633a1.007,1.007,0,0,1,.522-1.325l8.25-3.586a1.007,1.007,0,0,1,1.325.522L257.2,249.43A1.007,1.007,0,0,1,256.676,250.755Z" transform="translate(-209.677 -201.284)" fill="#f5f8f9"/>
        <path id="Path_1032669" data-name="Path 1032669" d="M143.727,162.495q-.905.08-1.832.08a21.139,21.139,0,1,1,0-42.278q.926,0,1.832.08a21.139,21.139,0,0,0,0,42.118Z" transform="translate(-107.42 -102.664)" fill="#c57a44"/>
        <g id="Group_1184629" data-name="Group 1184629" transform="translate(36.349 51.066)">
          <path id="Path_1032670" data-name="Path 1032670" d="M277.463,347.4l1.851,1.851v6.266h5.3v-7.476a2.385,2.385,0,0,0-.7-1.685l-2.7-2.7-2.664,1.131Z" transform="translate(-275.978 -342.171)" fill="#8ac9fe"/>
          <path id="Path_1032671" data-name="Path 1032671" d="M268.741,338.679l.71.71,3.747-3.747-.71-.71a2.65,2.65,0,0,0-3.747,3.747Z" transform="translate(-267.966 -334.156)" fill="#ffdfcf"/>
        </g>
        <g id="Group_1184630" data-name="Group 1184630" transform="translate(42.444 16.967)">
          <path id="Path_1032672" data-name="Path 1032672" d="M320.758,120.619l-5.426,3.133-.613,2.287-2.089.9a1.085,1.085,0,1,1-2.119-.469l-.911-1.8.925-3.451a2.382,2.382,0,0,1,1.11-1.447l6.474-3.738" transform="translate(-309.186 -116.031)" fill="#ffe177"/>
          <path id="Path_1032673" data-name="Path 1032673" d="M309.6,175.816a2.683,2.683,0,0,1-.688-.091,2.651,2.651,0,0,1-1.873-3.244l.324-1.212,5.118,1.373-.324,1.21A2.649,2.649,0,0,1,309.6,175.816Z" transform="translate(-306.953 -162.635)" fill="#9b5e5e"/>
        </g>
        <g id="Group_1184631" data-name="Group 1184631" transform="translate(7.083 38.477)">
          <path id="Path_1032674" data-name="Path 1032674" d="M83.407,262.271l5.426-3.133,2.286.612s2.522-.554,2.9-1.967-1.528-3.151-1.528-3.151l-3.452-.925a2.383,2.383,0,0,0-1.808.238l-6.474,3.738Z" transform="translate(-80.758 -253.626)" fill="#7a6d79"/>
          <path id="Path_1032675" data-name="Path 1032675" d="M151.58,262.947a2.683,2.683,0,0,1-.091.688,2.651,2.651,0,0,1-3.244,1.873l-1.212-.324,1.373-5.118,1.21.324A2.649,2.649,0,0,1,151.58,262.947Z" transform="translate(-136.673 -259.059)" fill="#ffdfcf"/>
        </g>
        <g id="Group_1184632" data-name="Group 1184632" transform="translate(23.971 51.067)">
          <path id="Path_1032676" data-name="Path 1032676" d="M195.935,347.412l-1.851,1.851v6.266h-5.3v-7.476a2.385,2.385,0,0,1,.7-1.685l2.7-2.7,2.664,1.131Z" transform="translate(-188.786 -342.18)" fill="#60b7ff"/>
          <path id="Path_1032677" data-name="Path 1032677" d="M215,338.688l-.71.71-3.747-3.747.71-.71A2.65,2.65,0,1,1,215,338.688Z" transform="translate(-207.145 -334.165)" fill="#ffdfcf"/>
        </g>
      </g>
      <path id="Path_1032678" data-name="Path 1032678" d="M95.563,49.931a7.414,7.414,0,0,0-.98-.473,6.234,6.234,0,0,0-2.991-6.767l-4.625-2.67,4.626-2.671a6.234,6.234,0,0,0,2.991-6.768,7.385,7.385,0,0,0,4.655-7.466A1.172,1.172,0,0,0,96.9,23.3a5.063,5.063,0,0,1-.788,3.125,5.044,5.044,0,0,1-4.478-7.757,5.065,5.065,0,0,1,3.1.882,1.172,1.172,0,1,0,1.331-1.931,7.407,7.407,0,0,0-8.8.294,6.234,6.234,0,0,0-7.354-.792L75.3,19.787l-.011.006V14.453a6.234,6.234,0,0,0-4.365-5.974,7.393,7.393,0,1,0-14.626,0,6.234,6.234,0,0,0-4.365,5.974v5.341l-4.625-2.671a6.234,6.234,0,0,0-7.356.793,7.394,7.394,0,1,0-7.313,12.665A6.234,6.234,0,0,0,35.63,37.35l4.626,2.671L35.63,42.691a6.234,6.234,0,0,0-2.991,6.767,7.393,7.393,0,1,0,7.314,12.666,6.231,6.231,0,0,0,7.355.794l4.625-2.671v2.605a1.172,1.172,0,0,0,2.345,0v-4.74a1.224,1.224,0,0,1,.354-.856l1.874-1.874,2.09,2.09-1.021,1.022a1.172,1.172,0,0,0-.343.829v4.171a1.172,1.172,0,1,0,2.345,0V61.966a22.416,22.416,0,0,0,8.07,0v1.527a1.172,1.172,0,1,0,2.345,0V59.321a1.172,1.172,0,0,0-.343-.829L68.626,57.47l2.089-2.089,1.875,1.875a1.2,1.2,0,0,1,.355.856v7.475h0a3.9,3.9,0,0,1-2.73,3.738,7.388,7.388,0,0,0-13.2,0,3.938,3.938,0,0,1-2.166-1.706,1.172,1.172,0,1,0-2.007,1.213A6.292,6.292,0,0,0,56.3,71.556a7.394,7.394,0,1,0,14.626.005,6.234,6.234,0,0,0,4.365-5.974V60.247l4.625,2.671a6.231,6.231,0,0,0,7.355-.794,7.423,7.423,0,0,0,.9.613,7.394,7.394,0,1,0,7.393-12.806ZM63.611,67.6a5.056,5.056,0,0,1,4.979,4.217,7.416,7.416,0,0,0-9.958,0A5.056,5.056,0,0,1,63.611,67.6Zm0,10.1a5.052,5.052,0,0,1-4.481-2.727,5.044,5.044,0,0,1,8.961,0A5.052,5.052,0,0,1,63.611,77.7ZM88.657,19.809a7.411,7.411,0,0,0,4.984,8.624,5.049,5.049,0,0,1-4.984-8.624Zm-2.973-.161A7.4,7.4,0,0,0,91.878,31.1c.139,0,.277-.006.415-.014a3.9,3.9,0,0,1-1.874,4.229L85.828,37.97A22.158,22.158,0,0,0,80.6,25.554l1.44-.832a1.172,1.172,0,0,0-1.172-2.031l-3.729,2.153a1.172,1.172,0,0,0-.546.712l-.31,1.155-2.854-.764.622-2.32a1.2,1.2,0,0,1,.564-.735l6.474-3.738h0a3.9,3.9,0,0,1,4.6.494Zm-18.6,34.2a1.475,1.475,0,0,1,1.961-.113L66.975,55.8a1.479,1.479,0,0,1,.113-1.961Zm3.35-2a3.792,3.792,0,0,0-2.306-.774h0a3.821,3.821,0,0,0-1.339.241l-4.152-9.549,7.947-3.453,4.925,11.329ZM61.554,39.674A2.185,2.185,0,0,0,60.246,41.7l-9.216-3.885,3.365-7.985L63,33.46h0a2.183,2.183,0,0,0-1.129,2.868l1.172,2.7Zm11.12-2.452a2.177,2.177,0,0,0-2.868-1.133l-4.614,2-1.107-2.547,7.947-3.455,4.924,11.33L75.621,44Zm1.17-7.125A1.477,1.477,0,0,1,72.8,28.288l.02-.077,2.853.764-.021.077A1.479,1.479,0,0,1,73.844,30.1ZM63.611,2.345a5.052,5.052,0,0,1,4.481,2.727,5.044,5.044,0,0,1-8.961,0,5.052,5.052,0,0,1,4.481-2.727Zm4.979,5.88a5.048,5.048,0,0,1-9.958,0,7.416,7.416,0,0,0,9.958,0Zm-11.581,2.49a7.388,7.388,0,0,0,13.205,0,3.9,3.9,0,0,1,2.73,3.738v5.3a22.389,22.389,0,0,0-18.666-.011V14.453A3.9,3.9,0,0,1,57.008,10.714ZM39.727,26.231a5.056,5.056,0,0,1-6.147,2.2,7.411,7.411,0,0,0,4.984-8.622A5.056,5.056,0,0,1,39.727,26.231Zm-8.744-5.048a5.052,5.052,0,0,1,4.381-2.523c.074,0,.148,0,.222.007a5.044,5.044,0,0,1-4.485,7.76,5.057,5.057,0,0,1-.117-5.244Zm0,37.675a5.056,5.056,0,0,1,.117-5.244,5.044,5.044,0,0,1,4.485,7.76A5.052,5.052,0,0,1,30.983,58.858Zm7.581,1.372a7.416,7.416,0,0,0-4.977-8.623,5.047,5.047,0,0,1,4.977,8.623Zm7.571.657a3.9,3.9,0,0,1-4.6-.5,7.388,7.388,0,0,0-6.6-11.434A3.9,3.9,0,0,1,36.8,44.721h0l6.474-3.738a1.2,1.2,0,0,1,.918-.121l2.319.621-.764,2.854-1.155-.309a1.173,1.173,0,0,0-.89.117l-3.444,1.989a1.172,1.172,0,1,0,1.172,2.031l1.153-.666a22.564,22.564,0,0,0,8.141,10.735Zm2.722-18.775a1.477,1.477,0,0,1-.764,2.853l-.077-.021.764-2.853ZM60.246,55.806l-2.074-2.074a1.476,1.476,0,0,1,2.074,2.074Zm-.477,3.809,2.023-2.024a3.822,3.822,0,0,0-5.405-5.405L52.972,55.6a3.553,3.553,0,0,0-.645.892,20.183,20.183,0,0,1-7.61-10l2.768.741a3.822,3.822,0,0,0,1.978-7.383L44.8,38.6a3.556,3.556,0,0,0-1.1-.116A19.934,19.934,0,0,1,46.278,30.1a1.172,1.172,0,1,0-2.034-1.167A22.276,22.276,0,0,0,41.4,37.971L36.8,35.319a3.9,3.9,0,0,1-1.873-4.233c.138.008.276.013.413.013a7.389,7.389,0,0,0,6.191-11.448,3.9,3.9,0,0,1,4.6-.5L50.721,21.8a22.619,22.619,0,0,0-3.027,2.583,1.172,1.172,0,1,0,1.672,1.644A19.97,19.97,0,0,1,72.232,22.01a3.564,3.564,0,0,0-.449,1.009l-1.249,4.662a3.792,3.792,0,0,0,.155,2.437l-4.715,2.05L55.153,27.605A2.183,2.183,0,0,0,52.3,28.767L48.8,37.058a2.185,2.185,0,0,0,1.161,2.855l11.407,4.809,3.532,8.124a3.827,3.827,0,0,0,.524,4.745l2.024,2.024a20.263,20.263,0,0,1-7.685,0Zm12.487-6.008L76.6,51.719a2.182,2.182,0,0,0,1.129-2.868l-1.174-2.7,1.485-.645a2.178,2.178,0,0,0,1.132-2.868L74.747,32.454a3.826,3.826,0,0,0,3.17-2.793l.741-2.765A19.966,19.966,0,0,1,74.9,56.49a3.56,3.56,0,0,0-.649-.891Zm8.831,7.28-4.592-2.651a22.4,22.4,0,0,0,9.331-16.166l4.594,2.653a3.9,3.9,0,0,1,1.873,4.234,7.388,7.388,0,0,0-6.6,11.434,3.9,3.9,0,0,1-4.6.5Zm6.408-7.077a5.044,5.044,0,0,1,6.14-2.2,7.416,7.416,0,0,0-4.977,8.623,5.056,5.056,0,0,1-1.163-6.421Zm8.744,5.048a5.053,5.053,0,0,1-4.6,2.517,5.044,5.044,0,0,1,4.485-7.761,5.057,5.057,0,0,1,.117,5.244Z"/>
    </g>
  </g>
</svg>
