<svg xmlns="http://www.w3.org/2000/svg" width="149.909" height="150.001" viewBox="0 0 149.909 150.001">
  <g id="img6" transform="translate(-705.985 -1710.002)">
    <g id="Group_1180300" data-name="Group 1180300" transform="translate(705.936 1710.002)">
      <g id="Grupo_155253" data-name="Grupo 155253" transform="matrix(0.999, 0.035, -0.035, 0.999, 5.062, 0)">
        <path id="Trazado_196478" data-name="Trazado 196478" d="M20.377,22.814q-.452.483-.9.974A75.7,75.7,0,0,0,.051,77.428l30.182-1.084c-.818-24.1,17.45-44.315,40.8-45.157S113.985,49.2,114.8,73.3l30.182-1.084c-1.018-30-19.313-56.469-46.471-67.234A70.928,70.928,0,0,0,20.377,22.822" transform="translate(0 0)" fill="#f9ce5d"/>
        <path id="Trazado_196479" data-name="Trazado 196479" d="M0,5.22c1.4,41.3,34.98,73.608,75,72.167S146.334,41.3,144.933,0L114.751,1.084c.818,24.1-17.451,44.315-40.8,45.156S31,28.229,30.182,4.132Z" transform="translate(0.049 67.595)" fill="#70f5c8"/>
      </g>
      <ellipse id="Ellipse_13685" data-name="Ellipse 13685" cx="58.366" cy="58.462" rx="58.366" ry="58.462" transform="translate(16.722 16.827)" fill="#fff"/>
    </g>
    <g id="Group_1184641" data-name="Group 1184641" transform="translate(722.531 1748.038)">
      <path id="Path_1032713" data-name="Path 1032713" d="M201.4,13.334H157.642a1.459,1.459,0,0,1-1.459-1.459V8.959A1.459,1.459,0,0,1,157.642,7.5H201.4a1.459,1.459,0,0,1,1.459,1.459v2.917A1.459,1.459,0,0,1,201.4,13.334Z" transform="translate(-112.19 -6.417)" fill="#7a6d79"/>
      <path id="Path_1032714" data-name="Path 1032714" d="M438.219,7.5h-5.251a1.459,1.459,0,0,1,1.459,1.459v2.917a1.459,1.459,0,0,1-1.459,1.459h5.251a1.459,1.459,0,0,0,1.459-1.459V8.959A1.459,1.459,0,0,0,438.219,7.5Z" transform="translate(-349.01 -6.417)" fill="#685e68"/>
      <path id="Path_1032715" data-name="Path 1032715" d="M198.482,53.741V47.907H160.56v5.834l-3.077,2.051a2.917,2.917,0,0,0-1.3,2.427v52.7a2.917,2.917,0,0,0,2.917,2.917h40.84a2.917,2.917,0,0,0,2.917-2.917V58.22a2.917,2.917,0,0,0-1.3-2.427Z" transform="translate(-112.191 -40.99)" fill="#dff6fd"/>
      <path id="Path_1032716" data-name="Path 1032716" d="M424.55,55.792l-3.077-2.051V47.907h-4.667v5.054a1.459,1.459,0,0,0,.649,1.214l2.427,1.618a2.917,2.917,0,0,1,1.3,2.427v52.7a2.917,2.917,0,0,1-2.917,2.917h4.667a2.917,2.917,0,0,0,2.917-2.917V58.22a2.916,2.916,0,0,0-1.3-2.427Z" transform="translate(-335.182 -40.99)" fill="#c8effe"/>
      <g id="Group_1184635" data-name="Group 1184635" transform="translate(54.68 12.706)">
        <circle id="Ellipse_13807" data-name="Ellipse 13807" cx="12.65" cy="12.65" r="12.65" fill="#ffd15b"/>
        <path id="Path_1032717" data-name="Path 1032717" d="M262.152,102.43a12.648,12.648,0,0,1-17.519,17.519,12.649,12.649,0,1,0,17.519-17.519Z" transform="translate(-242.549 -100.346)" fill="#ffc344"/>
      </g>
      <g id="Group_1184636" data-name="Group 1184636" transform="translate(53.838 55.342)">
        <path id="Path_1032718" data-name="Path 1032718" d="M250.187,469.928h-24.65a1.167,1.167,0,0,1-1.167-1.167v-3.5a1.167,1.167,0,0,1,1.167-1.167h24.65a1.167,1.167,0,0,1,1.167,1.167v3.5A1.167,1.167,0,0,1,250.187,469.928Z" transform="translate(-224.37 -452.426)" fill="#ffd15b"/>
        <path id="Path_1032719" data-name="Path 1032719" d="M270.988,429.5h-24.65a1.167,1.167,0,0,1-1.167-1.167v-3.5a1.167,1.167,0,0,1,1.167-1.167h24.65a1.167,1.167,0,0,1,1.167,1.167v3.5A1.167,1.167,0,0,1,270.988,429.5Z" transform="translate(-242.168 -417.835)" fill="#ffd15b"/>
        <path id="Path_1032720" data-name="Path 1032720" d="M250.187,389.115h-24.65a1.167,1.167,0,0,1-1.167-1.167v-3.5a1.167,1.167,0,0,1,1.167-1.167h24.65a1.167,1.167,0,0,1,1.167,1.167v3.5A1.167,1.167,0,0,1,250.187,389.115Z" transform="translate(-224.37 -383.281)" fill="#ffd15b"/>
      </g>
      <path id="Path_1032721" data-name="Path 1032721" d="M375.51,383.2h-4.667a1.167,1.167,0,0,1,1.167,1.167v3.5a1.167,1.167,0,0,1-1.167,1.167h4.667a1.167,1.167,0,0,0,1.167-1.167v-3.5A1.167,1.167,0,0,0,375.51,383.2Z" transform="translate(-295.856 -327.866)" fill="#ffc344"/>
      <path id="Path_1032722" data-name="Path 1032722" d="M396.312,423.708h-4.667a1.167,1.167,0,0,1,1.167,1.167v3.5a1.167,1.167,0,0,1-1.167,1.167h4.667a1.167,1.167,0,0,0,1.167-1.167v-3.5A1.167,1.167,0,0,0,396.312,423.708Z" transform="translate(-313.654 -362.529)" fill="#ffc344"/>
      <path id="Path_1032723" data-name="Path 1032723" d="M375.51,464.051h-4.667a1.167,1.167,0,0,1,1.167,1.167v3.5a1.167,1.167,0,0,1-1.167,1.167h4.667a1.167,1.167,0,0,0,1.167-1.167v-3.5A1.167,1.167,0,0,0,375.51,464.051Z" transform="translate(-295.856 -397.047)" fill="#ffc344"/>
      <g id="Group_1184638" data-name="Group 1184638" transform="translate(26.143 28.333)">
        <path id="Path_1032724" data-name="Path 1032724" d="M32.564,405.565v7.981h30.7v-7.981a7.368,7.368,0,0,0-7.367-7.367H39.931A7.368,7.368,0,0,0,32.564,405.565Z" transform="translate(-32.564 -369.035)" fill="#62dbfb"/>
        <path id="Path_1032725" data-name="Path 1032725" d="M165.038,398.2h-4.912a7.368,7.368,0,0,1,7.367,7.367v7.981h4.912v-7.981A7.367,7.367,0,0,0,165.038,398.2Z" transform="translate(-141.707 -369.036)" fill="#01d0fb"/>
        <path id="Path_1032726" data-name="Path 1032726" d="M123.745,365.456V359.93h-6.14v5.526a3.07,3.07,0,0,0,6.14,0Z" transform="translate(-105.326 -336.293)" fill="#f6a96c"/>
        <path id="Path_1032727" data-name="Path 1032727" d="M80.656,196.226a9.823,9.823,0,0,0-9.823,9.823v5.525l2.149-3.07v6.754a7.674,7.674,0,1,0,15.349,0v-6.754l2.149,3.07v-5.525a9.823,9.823,0,0,0-9.823-9.823Z" transform="translate(-65.307 -196.226)" fill="#fed2a4"/>
        <path id="Path_1032728" data-name="Path 1032728" d="M127.952,196.226a9.86,9.86,0,0,0-1.842.175,9.825,9.825,0,0,1,7.981,9.648v1.135a2.565,2.565,0,0,1-1.074,2.088,2.566,2.566,0,0,0-1.074,2.088v3.9a7.676,7.676,0,0,1-5.833,7.45,7.675,7.675,0,0,0,9.516-7.45V208.5l2.149,3.07v-5.525A9.823,9.823,0,0,0,127.952,196.226Z" transform="translate(-112.603 -196.226)" fill="#ffbd86"/>
        <path id="Path_1032729" data-name="Path 1032729" d="M181.386,234.966v2.388a1.842,1.842,0,0,0,.28.976l1.255,2.008,2.149,3.07h2.456v-4.451a10.676,10.676,0,0,0-1.057-4.644,1.545,1.545,0,0,0-1.39-.882h-2.158A1.535,1.535,0,0,0,181.386,234.966Z" transform="translate(-159.898 -228.059)" fill="#c8effe"/>
        <path id="Path_1032730" data-name="Path 1032730" d="M59.964,234.966v2.388a1.842,1.842,0,0,1-.28.976l-1.255,2.008-2.149,3.07H53.824v-4.451a10.676,10.676,0,0,1,1.057-4.644,1.545,1.545,0,0,1,1.39-.882h2.158a1.535,1.535,0,0,1,1.535,1.535Z" transform="translate(-50.754 -228.059)" fill="#dff6fd"/>
        <g id="Group_1184637" data-name="Group 1184637" transform="translate(3.07 12.279)">
          <path id="Path_1032731" data-name="Path 1032731" d="M193.552,287.407h-1.535v-6.14h1.535a3.07,3.07,0,0,1,0,6.14Z" transform="translate(-172.064 -281.267)" fill="#f6a96c"/>
          <path id="Path_1032732" data-name="Path 1032732" d="M56.895,287.407H58.43v-6.14H56.895a3.07,3.07,0,0,0,0,6.14Z" transform="translate(-53.825 -281.267)" fill="#f6a96c"/>
        </g>
      </g>
      <g id="Group_1184639" data-name="Group 1184639" transform="translate(56.842 49.501)">
        <path id="Path_1032733" data-name="Path 1032733" d="M270.988,348.666h-24.65a1.167,1.167,0,0,1-1.167-1.167V344a1.167,1.167,0,0,1,1.167-1.167h24.65A1.167,1.167,0,0,1,272.155,344v3.5A1.167,1.167,0,0,1,270.988,348.666Z" transform="translate(-245.171 -342.832)" fill="#ffd15b"/>
        <path id="Path_1032734" data-name="Path 1032734" d="M396.312,342.874h-4.667a1.167,1.167,0,0,1,1.167,1.167v3.5a1.167,1.167,0,0,1-1.167,1.167h4.667a1.167,1.167,0,0,0,1.167-1.167v-3.5A1.167,1.167,0,0,0,396.312,342.874Z" transform="translate(-370.496 -342.868)" fill="#ffc344"/>
      </g>
      <g id="Group_1184640" data-name="Group 1184640" transform="translate(25.06 0)">
        <path id="Path_1032735" data-name="Path 1032735" d="M89.208,8a2.546,2.546,0,0,0,2.543-2.543V2.541A2.545,2.545,0,0,0,89.208,0H54.349a1.083,1.083,0,1,0,0,2.166H89.208a.377.377,0,0,1,.377.375V5.458a.377.377,0,0,1-.377.377H45.452a.377.377,0,0,1-.377-.377V2.541a.377.377,0,0,1,.377-.375H49.3A1.083,1.083,0,1,0,49.3,0H45.452a2.545,2.545,0,0,0-2.543,2.541V5.458A2.546,2.546,0,0,0,45.452,8h1.833v4.171L44.692,13.9a3.991,3.991,0,0,0-1.782,3.328V27.344a11.068,11.068,0,0,0-1.418-.094,10.861,10.861,0,0,0-9.4,5.372H31.66a2.643,2.643,0,0,0-2.365,1.495,11.706,11.706,0,0,0-1.164,5.114v4.451a4.157,4.157,0,0,0,4.153,4.153h.465a8.769,8.769,0,0,0,4.592,7.239v1.339H33.511a8.46,8.46,0,0,0-8.451,8.45v.851a1.083,1.083,0,0,0,2.166,0v-.851a6.292,6.292,0,0,1,6.285-6.284h3.973a4.152,4.152,0,0,0,8.017,0h3.973a6.292,6.292,0,0,1,6.285,6.284v6.9H51.478V68.24a1.083,1.083,0,1,0-2.166,0v3.522H33.673V68.24a1.083,1.083,0,1,0-2.166,0v3.522H27.226v-.995a1.083,1.083,0,0,0-2.166,0v2.078a1.083,1.083,0,0,0,1.083,1.083H87.75a4,4,0,0,0,4-4V30.86a1.083,1.083,0,1,0-2.166,0V69.928a1.837,1.837,0,0,1-1.835,1.834H81.9c0-.028,0-.056,0-.084v-3.5c0-.029,0-.058,0-.087h.758a2.252,2.252,0,0,0,2.25-2.25v-3.5a2.252,2.252,0,0,0-2.25-2.25H81.9c0-.027,0-.054,0-.081v-3.5c0-.03,0-.06,0-.09h.758a2.252,2.252,0,0,0,2.25-2.25v-3.5a2.252,2.252,0,0,0-2.25-2.25H58.008a2.252,2.252,0,0,0-2.25,2.25v3.5c0,.03,0,.06,0,.09h-.758a2.252,2.252,0,0,0-2.25,2.25v.568a8.406,8.406,0,0,0-3.282-.663H45.645V55.074a8.769,8.769,0,0,0,4.592-7.239H50.7a4.157,4.157,0,0,0,4.153-4.153V39.231a11.71,11.71,0,0,0-1.165-5.114,2.643,2.643,0,0,0-2.365-1.494h-.434a10.915,10.915,0,0,0-5.815-4.771V17.229a1.83,1.83,0,0,1,.817-1.526l3.076-2.051a1.083,1.083,0,0,0,.482-.9V8H85.208v4.75a1.083,1.083,0,0,0,.482.9L88.768,15.7a1.829,1.829,0,0,1,.817,1.526v8.577a1.083,1.083,0,1,0,2.166,0V17.23A3.99,3.99,0,0,0,89.969,13.9l-2.595-1.73V8ZM57.924,71.762V68.093H79.655a.084.084,0,0,1,.084.084v3.5a.084.084,0,0,1-.084.084ZM82.742,62.34v3.5a.084.084,0,0,1-.084.084H57.924V64.862a8.414,8.414,0,0,0-.412-2.6l25.146,0A.084.084,0,0,1,82.742,62.34ZM57.925,50.668a.084.084,0,0,1,.084-.084h24.65a.084.084,0,0,1,.084.084v3.5a.084.084,0,0,1-.084.084H58.008a.084.084,0,0,1-.084-.084Zm-3,5.84a.084.084,0,0,1,.084-.084h24.65a.084.084,0,0,1,.084.084v3.5a.083.083,0,0,1-.069.081l-23.226,0a8.52,8.52,0,0,0-1.523-1.683ZM31.246,35.056a.459.459,0,0,1,.413-.268h2.158a.452.452,0,0,1,.452.452v2.388a.76.76,0,0,1-.115.4l-.937,1.5h-.935a4.127,4.127,0,0,0-1.987.507v-.806a9.561,9.561,0,0,1,.951-4.175Zm-.95,8.626a1.989,1.989,0,0,1,1.987-1.987h.452v3.974h-.452A1.989,1.989,0,0,1,30.3,43.682ZM43.479,57.5a1.987,1.987,0,0,1-3.973.007s0,0,0-.007,0-.009,0-.014V55.893a8.691,8.691,0,0,0,3.974,0ZM50.7,45.668H50.25V41.695H50.7a1.987,1.987,0,1,1,0,3.974Zm1.036-10.613a9.559,9.559,0,0,1,.951,4.175v.806a4.127,4.127,0,0,0-1.987-.507h-.935l-.937-1.5a.763.763,0,0,1-.115-.4V35.24a.452.452,0,0,1,.452-.452h2.158a.46.46,0,0,1,.413.267ZM48.362,32.75a2.621,2.621,0,0,0-1.813,2.49v2.388a2.927,2.927,0,0,0,.444,1.55l1.091,1.744v6.443a6.591,6.591,0,0,1-13.183,0V40.923l1.092-1.746a2.925,2.925,0,0,0,.443-1.549V35.24a2.621,2.621,0,0,0-1.814-2.49,8.745,8.745,0,0,1,13.051-.775,8.823,8.823,0,0,1,.689.775Z" transform="translate(-25.06 0)"/>
        <path id="Path_1032736" data-name="Path 1032736" d="M222.7,94.229A13.733,13.733,0,1,0,236.433,80.5,13.748,13.748,0,0,0,222.7,94.229Zm25.3,0a11.567,11.567,0,1,1-11.567-11.567A11.58,11.58,0,0,1,248,94.229Z" transform="translate(-194.163 -68.873)"/>
        <path id="Path_1032737" data-name="Path 1032737" d="M289.786,112.216v.562c-.076.016-.151.035-.227.056a3.889,3.889,0,0,0-2.909,3.017A3.724,3.724,0,0,0,287.9,119.5a8.869,8.869,0,0,0,1.888,1.086v5.1a3.552,3.552,0,0,1-1.788-.7,1.083,1.083,0,1,0-1.186,1.813,5.591,5.591,0,0,0,2.973,1.065v.809a1.083,1.083,0,0,0,2.166,0v-.934a4.687,4.687,0,0,0,3.4-3.73,4.069,4.069,0,0,0-2.8-4.657c-.2-.07-.4-.143-.6-.218v-4a4.5,4.5,0,0,1,.95.532,1.083,1.083,0,0,0,1.333-1.707,6.867,6.867,0,0,0-2.282-1.1v-.638a1.083,1.083,0,0,0-2.166,0Zm3.431,11.429a2.517,2.517,0,0,1-1.265,1.784v-3.994A1.937,1.937,0,0,1,293.217,123.645Zm-3.983-5.846a1.615,1.615,0,0,1-.46-1.527,1.657,1.657,0,0,1,1.012-1.224v3.117A4.84,4.84,0,0,1,289.234,117.8Z" transform="translate(-248.599 -95.087)"/>
      </g>
    </g>
  </g>
</svg>
