<svg xmlns="http://www.w3.org/2000/svg" width="84" height="84" viewBox="0 0 84 84">
  <g id="img8" transform="translate(-319.686 -4761)">
    <rect id="Rectangle_456605" data-name="Rectangle 456605" width="84" height="84" transform="translate(319.686 4761)" fill="#ff9e74"/>
    <g id="Group_1184642" data-name="Group 1184642" transform="translate(329.371 4770.678)">
      <path id="Path_1032738" data-name="Path 1032738" d="M448.287,294.491,444.5,307.745,448.287,321h3.787V294.491Z" transform="translate(-388.392 -257.31)" fill="#70c18f"/>
      <path id="Path_1032739" data-name="Path 1032739" d="M418.287,294.491,414.5,307.745,418.287,321h3.787V294.491Z" transform="translate(-362.178 -257.31)" fill="#82d97e"/>
      <path id="Path_1032740" data-name="Path 1032740" d="M388.287,294.491,384.5,307.745,388.287,321h3.787V294.491Z" transform="translate(-335.965 -257.31)" fill="#70c18f"/>
      <path id="Path_1032741" data-name="Path 1032741" d="M358.287,294.491,354.5,307.745,358.287,321h3.787V294.491Z" transform="translate(-309.752 -257.31)" fill="#82d97e"/>
      <path id="Path_1032742" data-name="Path 1032742" d="M7.5,294.491V321H55.088v-3.787L51.3,307.745l3.787-9.467v-3.787Z" transform="translate(-6.553 -257.31)" fill="#94f06d"/>
      <path id="Path_1032743" data-name="Path 1032743" d="M37.5,324.491H81.3v18.934H37.5Z" transform="translate(-32.766 -283.523)" fill="#caf599"/>
      <path id="Path_1032744" data-name="Path 1032744" d="M311.393,354.491l-1.893,5.68,1.893,5.68h3.787V354.491Z" transform="translate(-270.432 -309.737)" fill="#f2f2f2"/>
      <path id="Path_1032745" data-name="Path 1032745" d="M67.5,354.491H99.941v11.361H67.5Z" transform="translate(-58.98 -309.737)" fill="#fff"/>
      <circle id="Ellipse_13808" data-name="Ellipse 13808" cx="1.893" cy="1.893" r="1.893" transform="translate(37.174 48.541)" fill="#94f06d"/>
      <circle id="Ellipse_13809" data-name="Ellipse 13809" cx="1.893" cy="1.893" r="1.893" transform="translate(12.307 48.541)" fill="#94f06d"/>
      <path id="Path_1032746" data-name="Path 1032746" d="M211,354.491v11.361c3.73,0,6.753-2.543,6.753-5.68S214.73,354.491,211,354.491Z" transform="translate(-184.366 -309.737)" fill="#82d97e"/>
      <path id="Path_1032747" data-name="Path 1032747" d="M167.22,360.171c0-3.137-1.328-5.68-2.966-5.68-3.73,0-6.753,2.543-6.753,5.68s3.024,5.68,6.753,5.68C165.892,365.852,167.22,363.308,167.22,360.171Z" transform="translate(-137.619 -309.737)" fill="#94f06d"/>
      <path id="Path_1032748" data-name="Path 1032748" d="M325.467,127.491a1.893,1.893,0,0,0-1.893,1.893L316,144.784h3.787a7.574,7.574,0,0,0,7.574-7.574v-7.826A1.893,1.893,0,0,0,325.467,127.491Z" transform="translate(-276.112 -111.39)" fill="#fab85f"/>
      <path id="Path_1032749" data-name="Path 1032749" d="M140.082,137.211v-7.826H109.787a1.893,1.893,0,0,0-3.787,0v7.826a7.574,7.574,0,0,0,7.574,7.574h18.934A7.574,7.574,0,0,0,140.082,137.211Z" transform="translate(-92.62 -111.39)" fill="#fdd56f"/>
      <path id="Path_1032750" data-name="Path 1032750" d="M288.921,27.064l7.2,22.4a3.787,3.787,0,0,0,3.787-3.787V41.634A15.154,15.154,0,0,0,288.921,27.064Z" transform="translate(-252.451 -23.64)" fill="#fc945a"/>
      <path id="Path_1032751" data-name="Path 1032751" d="M145.409,40.76a5.712,5.712,0,0,1-5.622,4.7A3.787,3.787,0,0,1,136,41.678V37.638a15.16,15.16,0,0,1,19.3-14.57c4.159,1.806,7.2,7.646,7.2,14.57v7.826a5.712,5.712,0,0,1-5.622-4.7Z" transform="translate(-118.833 -19.644)" fill="#fab85f"/>
      <path id="Path_1032752" data-name="Path 1032752" d="M218.414,7.917a17.043,17.043,0,0,0-7.574,0L208.65,20.06H220.6Z" transform="translate(-182.312 -6.538)" fill="#fdd56f"/>
      <path id="Path_1032753" data-name="Path 1032753" d="M184.993,81.664l-1.655-9.178a6.073,6.073,0,0,0-11.954,0l-1.655,9.178A3.788,3.788,0,0,1,166,84.784h22.721A3.788,3.788,0,0,1,184.993,81.664Z" transform="translate(-145.046 -58.964)" fill="#fff07e"/>
      <path id="Path_1032754" data-name="Path 1032754" d="M107.021,34.341h22.721a8.53,8.53,0,0,0,8.52-8.52V17.994a2.838,2.838,0,0,0-3.994-2.594,15.92,15.92,0,0,0-3.1-7.186,16.225,16.225,0,0,0-7.8-5.525L123.1,1.211a.947.947,0,0,0-.721-.755,18.077,18.077,0,0,0-7.995,0,.946.946,0,0,0-.721.755L113.4,2.688a16.12,16.12,0,0,0-6.548,4.081.947.947,0,1,0,1.357,1.321,14.242,14.242,0,0,1,4.8-3.242l-1.534,8.505-1.656,9.182a2.84,2.84,0,0,1-5.636-.5V17.994a14.193,14.193,0,0,1,1.885-7.07.947.947,0,1,0-1.641-.944A16.064,16.064,0,0,0,102.5,15.4a2.838,2.838,0,0,0-4,2.593V25.82A8.53,8.53,0,0,0,107.021,34.341Zm25.561-16.347v4.039a2.84,2.84,0,0,1-5.637.5l-1.655-9.178-1.534-8.506A14.266,14.266,0,0,1,132.583,17.994ZM115.413,2.176a16.162,16.162,0,0,1,5.937,0l1.225,6.794a7.021,7.021,0,0,0-8.388,0Zm-3.732,20.692,1.655-9.179a5.127,5.127,0,0,1,10.09,0l1.655,9.178a4.716,4.716,0,0,0,.871,2.008H110.811a4.71,4.71,0,0,0,.87-2.005Zm-11.287-4.874a.947.947,0,1,1,1.893,0v4.039a4.739,4.739,0,0,0,4.734,4.734h22.721a4.739,4.739,0,0,0,4.734-4.734V17.994a.947.947,0,1,1,1.893,0V25.82a6.635,6.635,0,0,1-6.627,6.627H107.021a6.634,6.634,0,0,1-6.627-6.627Z" transform="translate(-86.067)"/>
      <path id="Path_1032755" data-name="Path 1032755" d="M63.682,286.991H12.307a.947.947,0,0,0,0,1.893H51.375V313.5H1.893V288.884H8.52a.947.947,0,0,0,0-1.893H.947a.947.947,0,0,0-.947.947v26.508a.947.947,0,0,0,.947.947H63.682a.947.947,0,0,0,.947-.947V287.938A.947.947,0,0,0,63.682,286.991ZM55.162,313.5H53.268V288.884h1.893Zm3.787,0H57.055V288.884h1.893Zm3.787,0H60.842V288.884h1.893Z" transform="translate(0 -250.757)"/>
      <path id="Path_1032756" data-name="Path 1032756" d="M30,317.938v18.934a.947.947,0,0,0,.947.947h43.8a.947.947,0,0,0,.947-.947V317.938a.947.947,0,0,0-.947-.947h-43.8A.947.947,0,0,0,30,317.938Zm1.893.947H73.8v17.041H31.893Z" transform="translate(-26.213 -276.97)"/>
      <path id="Path_1032757" data-name="Path 1032757" d="M289.84,382.671a2.84,2.84,0,1,0-2.84-2.84A2.843,2.843,0,0,0,289.84,382.671Zm0-3.787a.947.947,0,1,1-.947.947A.948.948,0,0,1,289.84,378.884Z" transform="translate(-250.772 -329.396)"/>
      <path id="Path_1032758" data-name="Path 1032758" d="M92.84,376.991a2.84,2.84,0,1,0,2.84,2.84A2.843,2.843,0,0,0,92.84,376.991Zm0,3.787a.947.947,0,1,1,.947-.947A.948.948,0,0,1,92.84,380.778Z" transform="translate(-78.639 -329.396)"/>
      <path id="Path_1032759" data-name="Path 1032759" d="M97.174,346.991H60.947a.947.947,0,0,0-.947.947V359.3a.947.947,0,0,0,.947.947H97.174a.947.947,0,0,0,.947-.947V347.938A.947.947,0,0,0,97.174,346.991ZM61.893,358.352v-9.467H73.679a5.991,5.991,0,0,0,0,9.467Zm17.167,0c-3.2,0-5.807-2.123-5.807-4.734s2.6-4.734,5.807-4.734,5.807,2.123,5.807,4.734S82.262,358.352,79.06,358.352Zm17.167,0H84.442a5.991,5.991,0,0,0,0-9.467H96.228Z" transform="translate(-52.426 -303.183)"/>
    </g>
  </g>
</svg>
