<svg xmlns="http://www.w3.org/2000/svg" xmlns:xlink="http://www.w3.org/1999/xlink" width="84" height="84" viewBox="0 0 84 84">
  <defs>
    <clipPath id="clip-path">
      <rect id="Rectangle_458751" data-name="Rectangle 458751" width="48.256" height="57.471" fill="none"/>
    </clipPath>
  </defs>
  <g id="img14" transform="translate(-309.686 -7023)">
    <rect id="Rectangle_456608" data-name="Rectangle 456608" width="84" height="84" transform="translate(309.686 7023)" fill="#ff9e74"/>
    <g id="Group_1183612" data-name="Group 1183612" transform="translate(327.686 7036)">
      <g id="Group_1183611" data-name="Group 1183611" clip-path="url(#clip-path)">
        <path id="Path_1029557" data-name="Path 1029557" d="M19.789,9.774H34.368A1.722,1.722,0,0,0,36.09,8.052V5.32A1.722,1.722,0,0,0,34.368,3.6H31.663a4.719,4.719,0,0,0-9.167,0H19.789A1.722,1.722,0,0,0,18.067,5.32V8.052a1.722,1.722,0,0,0,1.722,1.722m7.29-6.985a1.948,1.948,0,1,1-1.948,1.948,1.948,1.948,0,0,1,1.948-1.948" transform="translate(-9.105)" fill="#14a0de"/>
        <path id="Path_1029558" data-name="Path 1029558" d="M66.088,94.954A10.29,10.29,0,1,0,55.8,84.664a10.29,10.29,0,0,0,10.289,10.29m-1.1-16.039v-1.4a.327.327,0,0,1,.327-.327h1.545a.327.327,0,0,1,.327.327v1.4a3.436,3.436,0,0,1,3.139,3.035.333.333,0,0,1-.326.376H68.437a.32.32,0,0,1-.315-.251,1.24,1.24,0,0,0-1.212-.987H65.341A1.289,1.289,0,0,0,64.036,82.2a1.24,1.24,0,0,0,1.231,1.367h1.5a3.531,3.531,0,0,1,3.55,3.012,3.429,3.429,0,0,1-3.133,3.836v1.4a.327.327,0,0,1-.327.328H65.316a.327.327,0,0,1-.327-.328v-1.4a3.435,3.435,0,0,1-3.138-3.034A.333.333,0,0,1,62.176,87H63.74a.319.319,0,0,1,.315.25,1.239,1.239,0,0,0,1.212.987h1.641a1.238,1.238,0,0,0,1.231-1.366,1.287,1.287,0,0,0-1.3-1.109H65.4a3.532,3.532,0,0,1-3.55-3.012,3.43,3.43,0,0,1,3.133-3.837" transform="translate(-28.121 -37.483)" fill="#14a0de"/>
        <path id="Path_1029559" data-name="Path 1029559" d="M31.659,12.271H29.516v1.963a4.25,4.25,0,0,1-4.251,4.251H10.682A4.258,4.258,0,0,1,6.43,14.234V12.271H4.288A4.3,4.3,0,0,0,0,16.558v33.79a4.3,4.3,0,0,0,4.288,4.287H25.216a11.132,11.132,0,0,1-.072-1.264A12.848,12.848,0,0,1,35.946,40.7V16.558a4.3,4.3,0,0,0-4.287-4.287M7.1,25.157a1.261,1.261,0,1,1,1.784-1.784l2.164,2.164,2.164-2.164a1.261,1.261,0,0,1,1.784,1.784l-2.164,2.164,2.164,2.164a1.261,1.261,0,0,1-1.784,1.784L11.042,29.1,8.879,31.269A1.261,1.261,0,0,1,7.1,29.485l2.164-2.164ZM18.046,48.683a1.261,1.261,0,1,1-1.784,1.784L14.1,48.3l-2.164,2.164a1.261,1.261,0,1,1-1.784-1.784l2.164-2.164-2.164-2.164a1.261,1.261,0,0,1,1.784-1.784L14.1,44.736l2.164-2.164a1.261,1.261,0,0,1,1.784,1.784l-2.164,2.164Zm12.931-19.71a1.262,1.262,0,0,1-1.785,0l-2.145-2.145v4.456a6.573,6.573,0,0,1-6.083,6.533l-15.342,1.1c-.03,0-.061,0-.091,0a1.261,1.261,0,0,1-.089-2.52l15.342-1.1a4.041,4.041,0,0,0,3.74-4.016V26.825l-2.147,2.146a1.261,1.261,0,1,1-1.784-1.784l4.3-4.3a1.263,1.263,0,0,1,1.785,0l4.3,4.3a1.262,1.262,0,0,1,0,1.785" transform="translate(0 -6.184)" fill="#203a72"/>
      </g>
    </g>
  </g>
</svg>
