<svg xmlns="http://www.w3.org/2000/svg" width="60" height="60" viewBox="0 0 60 60">
  <g id="img16" transform="translate(-517.711 -3973)">
    <rect id="Rectangle_456510" data-name="Rectangle 456510" width="60" height="60" rx="5" transform="translate(517.711 3973)" fill="#ff9e74"/>
    <g id="Group_1184523" data-name="Group 1184523" transform="translate(526.409 3981.688)">
      <path id="Path_1032401" data-name="Path 1032401" d="M111.1,288a7.1,7.1,0,1,0,7.1,7.1A7.1,7.1,0,0,0,111.1,288Zm0,12.788a5.683,5.683,0,1,1,5.683-5.684A5.683,5.683,0,0,1,111.1,300.788Zm0,0" transform="translate(-94.765 -262.425)" fill="#2d6250"/>
      <path id="Path_1032402" data-name="Path 1032402" d="M154.842,322.131c.868,0,1.421.42,1.421.71h1.421a2.319,2.319,0,0,0-2.131-2.06V320h-1.421v.782a2.316,2.316,0,0,0-2.131,2.06c0,1.2,1.248,2.131,2.842,2.131.868,0,1.421.42,1.421.71s-.553.71-1.421.71-1.421-.42-1.421-.71H152a2.319,2.319,0,0,0,2.131,2.06v.782h1.421v-.782a2.316,2.316,0,0,0,2.131-2.06c0-1.2-1.248-2.131-2.842-2.131-.868,0-1.421-.42-1.421-.71S153.974,322.131,154.842,322.131Zm0,0" transform="translate(-138.502 -291.584)" fill="#2d6250"/>
      <path id="Path_1032403" data-name="Path 1032403" d="M36.232,41.2H6.393V24.154H17.76a2.131,2.131,0,0,0,2.131-2.131V4.262h7.815v8.525h8.525v9.946h1.421V11.782L28.711,2.841H19.892V2.13A2.131,2.131,0,0,0,17.76,0H2.131A2.131,2.131,0,0,0,0,2.13V22.023a2.131,2.131,0,0,0,2.131,2.131H4.973V42.625h32.68V32.679H36.232Zm-7.1-35.938,6.1,6.1h-6.1ZM1.42,22.023V2.13a.71.71,0,0,1,.71-.71H17.76a.71.71,0,0,1,.71.71V22.023a.71.71,0,0,1-.71.71H2.131a.71.71,0,0,1-.71-.71Zm0,0" transform="translate(0 0)" fill="#2d6250"/>
      <path id="Path_1032404" data-name="Path 1032404" d="M256,200h1.421v1.421H256Zm0,0" transform="translate(-233.266 -182.24)" fill="#2d6250"/>
      <path id="Path_1032405" data-name="Path 1032405" d="M288,200h8.525v1.421H288Zm0,0" transform="translate(-262.425 -182.24)" fill="#2d6250"/>
      <path id="Path_1032406" data-name="Path 1032406" d="M256,168h1.421v1.421H256Zm0,0" transform="translate(-233.266 -153.082)" fill="#2d6250"/>
      <path id="Path_1032407" data-name="Path 1032407" d="M288,168h8.525v1.421H288Zm0,0" transform="translate(-262.425 -153.082)" fill="#2d6250"/>
      <path id="Path_1032408" data-name="Path 1032408" d="M256,232h1.421v1.421H256Zm0,0" transform="translate(-233.266 -211.398)" fill="#2d6250"/>
      <path id="Path_1032409" data-name="Path 1032409" d="M288,232h8.525v1.421H288Zm0,0" transform="translate(-262.425 -211.398)" fill="#2d6250"/>
      <path id="Path_1032410" data-name="Path 1032410" d="M256,264h1.421v1.421H256Zm0,0" transform="translate(-233.266 -240.556)" fill="#2d6250"/>
      <path id="Path_1032411" data-name="Path 1032411" d="M288,264h8.525v1.421H288Zm0,0" transform="translate(-262.425 -240.556)" fill="#2d6250"/>
      <path id="Path_1032412" data-name="Path 1032412" d="M39.63,24H24v4.973H39.63Zm-1.421,3.552H25.421V25.421H38.209Zm0,0" transform="translate(-21.869 -21.87)" fill="#2d6250"/>
      <path id="Path_1032413" data-name="Path 1032413" d="M34.842,88H33.421A1.421,1.421,0,0,0,32,89.421v1.421a1.421,1.421,0,0,0,1.421,1.421h1.421a1.421,1.421,0,0,0,1.421-1.421V89.421A1.421,1.421,0,0,0,34.842,88Zm-1.421,2.842V89.421h1.421v1.421Zm0,0" transform="translate(-29.159 -80.186)" fill="#2d6250"/>
      <path id="Path_1032414" data-name="Path 1032414" d="M90.842,88H89.421A1.421,1.421,0,0,0,88,89.421v1.421a1.421,1.421,0,0,0,1.421,1.421h1.421a1.421,1.421,0,0,0,1.421-1.421V89.421A1.421,1.421,0,0,0,90.842,88Zm-1.421,2.842V89.421h1.421v1.421Zm0,0" transform="translate(-80.186 -80.186)" fill="#2d6250"/>
      <path id="Path_1032415" data-name="Path 1032415" d="M146.842,88h-1.421A1.421,1.421,0,0,0,144,89.421v1.421a1.421,1.421,0,0,0,1.421,1.421h1.421a1.421,1.421,0,0,0,1.421-1.421V89.421A1.421,1.421,0,0,0,146.842,88Zm-1.421,2.842V89.421h1.421v1.421Zm0,0" transform="translate(-131.213 -80.186)" fill="#2d6250"/>
      <path id="Path_1032416" data-name="Path 1032416" d="M34.842,144H33.421A1.421,1.421,0,0,0,32,145.421v1.421a1.421,1.421,0,0,0,1.421,1.421h1.421a1.421,1.421,0,0,0,1.421-1.421v-1.421A1.421,1.421,0,0,0,34.842,144Zm-1.421,2.842v-1.421h1.421v1.421Zm0,0" transform="translate(-29.159 -131.213)" fill="#2d6250"/>
      <path id="Path_1032417" data-name="Path 1032417" d="M90.842,144H89.421A1.421,1.421,0,0,0,88,145.421v1.421a1.421,1.421,0,0,0,1.421,1.421h1.421a1.421,1.421,0,0,0,1.421-1.421v-1.421A1.421,1.421,0,0,0,90.842,144Zm-1.421,2.842v-1.421h1.421v1.421Zm0,0" transform="translate(-80.186 -131.213)" fill="#2d6250"/>
      <path id="Path_1032418" data-name="Path 1032418" d="M146.842,144h-1.421A1.421,1.421,0,0,0,144,145.421v1.421a1.421,1.421,0,0,0,1.421,1.421h1.421a1.421,1.421,0,0,0,1.421-1.421v-1.421A1.421,1.421,0,0,0,146.842,144Zm-1.421,2.842v-1.421h1.421v1.421Zm0,0" transform="translate(-131.213 -131.213)" fill="#2d6250"/>
      <path id="Path_1032419" data-name="Path 1032419" d="M34.842,200H33.421A1.421,1.421,0,0,0,32,201.421v1.421a1.421,1.421,0,0,0,1.421,1.421h1.421a1.421,1.421,0,0,0,1.421-1.421v-1.421A1.421,1.421,0,0,0,34.842,200Zm-1.421,2.842v-1.421h1.421v1.421Zm0,0" transform="translate(-29.159 -182.24)" fill="#2d6250"/>
      <path id="Path_1032420" data-name="Path 1032420" d="M90.842,200H89.421A1.421,1.421,0,0,0,88,201.421v1.421a1.421,1.421,0,0,0,1.421,1.421h1.421a1.421,1.421,0,0,0,1.421-1.421v-1.421A1.421,1.421,0,0,0,90.842,200Zm-1.421,2.842v-1.421h1.421v1.421Zm0,0" transform="translate(-80.186 -182.24)" fill="#2d6250"/>
      <path id="Path_1032421" data-name="Path 1032421" d="M146.842,200h-1.421A1.421,1.421,0,0,0,144,201.421v1.421a1.421,1.421,0,0,0,1.421,1.421h1.421a1.421,1.421,0,0,0,1.421-1.421v-1.421A1.421,1.421,0,0,0,146.842,200Zm-1.421,2.842v-1.421h1.421v1.421Zm0,0" transform="translate(-131.213 -182.24)" fill="#2d6250"/>
      <path id="Path_1032422" data-name="Path 1032422" d="M297.127,249.07a2.182,2.182,0,0,0-3.013,0l-12.179,12.179a.718.718,0,0,0-.142.205l-1.715,3.724a.711.711,0,0,0,.942.942l3.724-1.715a.713.713,0,0,0,.205-.142l12.178-12.179A2.131,2.131,0,0,0,297.127,249.07Zm-13.094,14.1-1.861.858.857-1.861,9.081-9.081,1,1Zm10.088-10.088-1-1,.5-.5,1,1Zm2-2-.5.5-1-1,.5-.5a.726.726,0,0,1,1,0A.711.711,0,0,1,296.125,251.076Zm0,0" transform="translate(-255.147 -226.402)" fill="#2d6250"/>
    </g>
  </g>
</svg>
