<svg xmlns="http://www.w3.org/2000/svg" xmlns:xlink="http://www.w3.org/1999/xlink" width="127.921" height="128" viewBox="0 0 127.921 128">
  <defs>
    <clipPath id="clip-path">
      <rect id="Rectangle_458698" data-name="Rectangle 458698" width="58.01" height="71.449" fill="none"/>
    </clipPath>
  </defs>
  <g id="img10" transform="translate(-705.978 -1710.001)">
    <g id="Group_1180300" data-name="Group 1180300" transform="translate(705.936 1710.002)">
      <g id="Grupo_155253" data-name="Grupo 155253" transform="matrix(0.999, 0.035, -0.035, 0.999, 4.319, 0)">
        <path id="Trazado_196478" data-name="Trazado 196478" d="M17.389,19.468q-.386.412-.764.831A64.6,64.6,0,0,0,.044,66.072L25.8,65.147C25.1,44.584,40.69,27.331,60.618,26.613S97.267,41.982,97.965,62.546l25.755-.925c-.869-25.6-16.481-48.187-39.655-57.372A60.525,60.525,0,0,0,17.389,19.475" transform="translate(0 0)" fill="#f9ce5d"/>
        <path id="Trazado_196479" data-name="Trazado 196479" d="M0,4.454C1.195,39.7,29.849,67.266,64,66.036S124.871,35.241,123.676,0L97.92.925c.7,20.563-14.891,37.815-34.819,38.533S26.453,24.089,25.755,3.526Z" transform="translate(0.042 57.68)" fill="#70f5c8"/>
      </g>
      <ellipse id="Ellipse_13685" data-name="Ellipse 13685" cx="49.806" cy="49.887" rx="49.806" ry="49.887" transform="translate(14.269 14.359)" fill="#fff"/>
    </g>
    <g id="Group_1183503" data-name="Group 1183503" transform="translate(740.937 1738.277)">
      <g id="Group_1183502" data-name="Group 1183502" transform="translate(0 0)" clip-path="url(#clip-path)">
        <path id="Path_1029268" data-name="Path 1029268" d="M38.677,55.092V49.521a1.4,1.4,0,0,0-1.2-1.39l-3.956-.582-1-2.427,2.386-3.2a1.4,1.4,0,0,0-.131-1.831l-3.509-3.519a1.405,1.405,0,0,0-1.837-.133l-3.206,2.4-2.435-1.008-.571-3.952a1.406,1.406,0,0,0-1.391-1.2H16.853a1.405,1.405,0,0,0-1.39,1.2l-.571,3.952-2.437,1.006-3.191-2.4a1.4,1.4,0,0,0-1.837.13L3.908,40.087a1.405,1.405,0,0,0-.133,1.833l2.395,3.215-1,2.414L1.2,48.131A1.406,1.406,0,0,0,0,49.521v4.973a1.406,1.406,0,0,0,1.205,1.391l3.954.569,1.009,2.431-2.391,3.2a1.4,1.4,0,0,0,.132,1.834l3.52,3.52a1.4,1.4,0,0,0,1.835.131l3.2-2.391,2.432,1.008.57,3.955a1.4,1.4,0,0,0,1.39,1.2h5.569A16.255,16.255,0,0,1,38.677,55.092m-19.332,3.5A6.589,6.589,0,1,1,25.921,52a6.589,6.589,0,0,1-6.575,6.589" transform="translate(0 -13.334)" fill="#203a72"/>
        <path id="Path_1029269" data-name="Path 1029269" d="M56.081,75.305A13.439,13.439,0,1,0,69.52,88.745a13.454,13.454,0,0,0-13.439-13.44M60.793,90.15H56.081a1.4,1.4,0,0,1-1.405-1.405V81.416a1.4,1.4,0,1,1,2.81,0V87.34h3.308a1.4,1.4,0,1,1,0,2.81" transform="translate(-17.403 -30.734)" fill="#14a0de"/>
        <path id="Path_1029270" data-name="Path 1029270" d="M70.052,9.075h4.116L60.843,22.4a1.4,1.4,0,1,0,1.986,1.986L76.155,11.062v4.116a1.4,1.4,0,0,0,2.81,0V7.67a1.4,1.4,0,0,0-1.405-1.4H70.052a1.4,1.4,0,1,0,0,2.81" transform="translate(-24.663 -2.557)" fill="#203a72"/>
        <path id="Path_1029271" data-name="Path 1029271" d="M42.513,15.813a1.4,1.4,0,0,0,.993-.412L54.111,4.8V8.912a1.405,1.405,0,0,0,2.81,0V1.4A1.4,1.4,0,0,0,55.516,0H48.009a1.4,1.4,0,0,0,0,2.81h4.115L41.52,13.415a1.405,1.405,0,0,0,.993,2.4" transform="translate(-16.778 0)" fill="#203a72"/>
        <path id="Path_1029272" data-name="Path 1029272" d="M85.7,30.185H78.194a1.4,1.4,0,0,0,0,2.81h4.115l-10.6,10.6a1.4,1.4,0,1,0,1.986,1.987l10.6-10.6V39.1a1.405,1.405,0,0,0,2.81,0V31.59A1.4,1.4,0,0,0,85.7,30.185" transform="translate(-29.097 -12.319)" fill="#203a72"/>
      </g>
    </g>
  </g>
</svg>
