<svg xmlns="http://www.w3.org/2000/svg" xmlns:xlink="http://www.w3.org/1999/xlink" width="60" height="60" viewBox="0 0 60 60">
  <defs>
    <clipPath id="clip-path">
      <rect id="Rectangle_458781" data-name="Rectangle 458781" width="46.84" height="39.007" fill="#2d6250"/>
    </clipPath>
  </defs>
  <g id="img18" transform="translate(-1141.711 -3973)">
    <rect id="Rectangle_456512" data-name="Rectangle 456512" width="60" height="60" rx="5" transform="translate(1141.711 3973)" fill="#ff9e74"/>
    <g id="Group_1183676" data-name="Group 1183676" transform="translate(1148.291 3983.496)">
      <g id="Group_1183675" data-name="Group 1183675" clip-path="url(#clip-path)">
        <path id="Path_1029734" data-name="Path 1029734" d="M8.932,39.007a8.987,8.987,0,0,0,.929-.048,4.355,4.355,0,0,0,.618.048H42.171a3.007,3.007,0,0,0,2.5-4.685,3.008,3.008,0,0,0-.838-5.9h-.749a2.992,2.992,0,0,0-.073-3.233,3.008,3.008,0,0,0-.837-5.9h-4.2V4.254A4.259,4.259,0,0,0,33.717,0H10.479A4.259,4.259,0,0,0,6.225,4.254v17.31A8.931,8.931,0,0,0,8.932,39.007m33.239-1.455H30.241a1.555,1.555,0,0,1,0-3.109h11.93a1.555,1.555,0,0,1,0,3.109m1.661-7.673a1.555,1.555,0,0,1,0,3.109H31.9a1.555,1.555,0,0,1,0-3.109ZM28.581,28.423a1.555,1.555,0,0,1,0-3.109h11.93a1.555,1.555,0,1,1,0,3.109H28.581ZM42.171,20.75a1.554,1.554,0,1,1,0,3.109H30.241a1.554,1.554,0,1,1,0-3.109ZM7.679,4.254a2.8,2.8,0,0,1,2.8-2.8H33.717a2.8,2.8,0,0,1,2.8,2.8V19.294H30.241a3.008,3.008,0,0,0-2.5,4.686,3.008,3.008,0,0,0,.837,5.9h.749A2.991,2.991,0,0,0,29.4,33.11a3,3,0,0,0-1.734,4.443H13.809a8.927,8.927,0,0,0-6.129-16.32ZM8.932,22.6a7.478,7.478,0,1,1-7.478,7.478A7.487,7.487,0,0,1,8.932,22.6" transform="translate(0 0.001)" fill="#2d6250"/>
        <path id="Path_1029735" data-name="Path 1029735" d="M26.162,99.469a1.141,1.141,0,0,1-1.14-1.14.727.727,0,1,0-1.454,0,2.6,2.6,0,0,0,1.885,2.493v.566a.728.728,0,0,0,1.455,0v-.575a2.594,2.594,0,0,0-.746-5.078A1.14,1.14,0,1,1,27.3,94.6a.728.728,0,0,0,1.455,0,2.6,2.6,0,0,0-1.849-2.484v-.579a.728.728,0,0,0-1.455,0V92.1a2.593,2.593,0,0,0,.709,5.087,1.14,1.14,0,0,1,0,2.279" transform="translate(-17.23 -66.385)" fill="#2d6250"/>
        <path id="Path_1029736" data-name="Path 1029736" d="M43.159,14.57H63.077a.727.727,0,1,0,0-1.454H43.159a.727.727,0,1,0,0,1.454" transform="translate(-31.021 -9.589)" fill="#2d6250"/>
        <path id="Path_1029737" data-name="Path 1029737" d="M43.159,30.769H63.077a.727.727,0,1,0,0-1.454H43.159a.727.727,0,0,0,0,1.454" transform="translate(-31.021 -21.431)" fill="#2d6250"/>
        <path id="Path_1029738" data-name="Path 1029738" d="M43.159,46.97H63.077a.727.727,0,1,0,0-1.454H43.159a.727.727,0,0,0,0,1.454" transform="translate(-31.021 -33.275)" fill="#2d6250"/>
        <path id="Path_1029739" data-name="Path 1029739" d="M43.159,63.171H63.077a.727.727,0,1,0,0-1.454H43.159a.727.727,0,1,0,0,1.454" transform="translate(-31.021 -45.119)" fill="#2d6250"/>
        <path id="Path_1029740" data-name="Path 1029740" d="M76.359,77.919H71.9a.728.728,0,0,0,0,1.455h4.461a.728.728,0,0,0,0-1.455" transform="translate(-52.031 -56.964)" fill="#2d6250"/>
        <path id="Path_1029741" data-name="Path 1029741" d="M76.359,94.12H71.9a.727.727,0,0,0,0,1.455h4.461a.727.727,0,0,0,0-1.455" transform="translate(-52.031 -68.808)" fill="#2d6250"/>
        <path id="Path_1029742" data-name="Path 1029742" d="M76.359,110.321H71.9a.727.727,0,0,0,0,1.455h4.461a.727.727,0,0,0,0-1.455" transform="translate(-52.031 -80.652)" fill="#2d6250"/>
        <path id="Path_1029743" data-name="Path 1029743" d="M76.359,126.521H71.9a.728.728,0,0,0,0,1.455h4.461a.728.728,0,0,0,0-1.455" transform="translate(-52.031 -92.495)" fill="#2d6250"/>
      </g>
    </g>
  </g>
</svg>
