<svg xmlns="http://www.w3.org/2000/svg" width="103.935" height="103.993" viewBox="0 0 103.935 103.993">
  <g id="img18" transform="translate(-706.035 -1710)">
    <g id="Group_1180300" data-name="Group 1180300" transform="translate(706 1710)">
      <g id="Grupo_155253" data-name="Grupo 155253" transform="matrix(0.999, 0.035, -0.035, 0.999, 3.509, 0)">
        <path id="Trazado_196478" data-name="Trazado 196478" d="M14.13,15.33q-.314.324-.621.654A49.942,49.942,0,0,0,.036,52.027L20.962,51.3A29.335,29.335,0,0,1,79.6,49.247l20.926-.729A50.274,50.274,0,0,0,14.13,15.336" transform="translate(0 0)" fill="#f9ce5d"/>
        <path id="Trazado_196479" data-name="Trazado 196479" d="M0,3.512A50.274,50.274,0,0,0,100.486,0L79.56.729A29.335,29.335,0,0,1,20.926,2.78Z" transform="translate(0.035 48.515)" fill="#ff9e74"/>
      </g>
      <ellipse id="Ellipse_13685" data-name="Ellipse 13685" cx="40.877" cy="40.877" rx="40.877" ry="40.877" transform="translate(11.122 11.255)" fill="#fff"/>
    </g>
    <g id="Group_1184688" data-name="Group 1184688" transform="translate(760.463 1757.067)">
      <path id="Path_1032887" data-name="Path 1032887" d="M280.684,282.015l14.572,13.4a1.923,1.923,0,0,1,.069,2.765l-1.1,1.121a1.923,1.923,0,0,1-2.766-.026l-13.622-14.361-5.3-6.009,2.712-2.335Z" transform="translate(-271.737 -268.302)" fill="#e1dee2"/>
      <path id="Path_1032888" data-name="Path 1032888" d="M280.685,282.015l-5.438-5.448-2.712,2.335,5.3,6.009,1.414,1.49q.736-.619,1.426-1.306a22.3,22.3,0,0,0,1.524-1.689Z" transform="translate(-271.738 -268.302)" fill="#cac5cb"/>
      <circle id="Ellipse_13810" data-name="Ellipse 13810" cx="19.882" cy="19.882" r="19.882" transform="translate(-26.453 -18.596)" fill="#b3adb5"/>
      <path id="Path_1032889" data-name="Path 1032889" d="M13.383,35.695A21.353,21.353,0,0,1,28.358,15.318q-.5-.025-1-.025a19.882,19.882,0,0,0-1.8,39.683A21.345,21.345,0,0,1,13.383,35.695Z" transform="translate(-33.93 -33.889)" fill="#a59ca6"/>
      <path id="Path_1032890" data-name="Path 1032890" d="M247.792,21.028v6.249a2.972,2.972,0,0,0,2.969,2.969h9.349a19.924,19.924,0,0,0-12.319-9.218Z" transform="translate(-249.539 -39.034)" fill="#a59ca6"/>
      <ellipse id="Ellipse_13811" data-name="Ellipse 13811" cx="16.807" cy="16.807" rx="16.807" ry="16.807" transform="translate(-30.34 1.285) rotate(-45)" fill="#cfeffc"/>
      <path id="Path_1032891" data-name="Path 1032891" d="M47.227,59.913A16.8,16.8,0,0,0,45.135,89.36a21.346,21.346,0,0,1,2.092-29.447Z" transform="translate(-60.763 -73.922)" fill="#a9e4f9"/>
      <path id="Path_1032892" data-name="Path 1032892" d="M247.8,52.078v3.057a2.972,2.972,0,0,0,2.969,2.969h5.65A16.866,16.866,0,0,0,247.8,52.078Z" transform="translate(-249.545 -66.892)" fill="#a9e4f9"/>
      <circle id="Ellipse_13812" data-name="Ellipse 13812" cx="1.843" cy="1.843" r="1.843" transform="translate(-19.798 -2.944)" fill="#ee878a"/>
      <circle id="Ellipse_13813" data-name="Ellipse 13813" cx="1.843" cy="1.843" r="1.843" transform="translate(-12.527 7.126)" fill="#fbe88c"/>
      <circle id="Ellipse_13814" data-name="Ellipse 13814" cx="1.843" cy="1.843" r="1.843" transform="translate(-7.064 -2.4)" fill="#ee878a"/>
      <path id="Path_1032893" data-name="Path 1032893" d="M268.664,8.746h22.5a.919.919,0,0,1,.919.919v6.593a.919.919,0,0,1-.919.919h-22.5a.919.919,0,0,1-.919-.919V9.665a.919.919,0,0,1,.919-.919Z" transform="translate(-267.44 -28.015)" fill="#ee878a"/>
      <circle id="Ellipse_13815" data-name="Ellipse 13815" cx="1.843" cy="1.843" r="1.843" transform="translate(-0.444 2.663)" fill="#fbe88c"/>
      <g id="Group_1184687" data-name="Group 1184687" transform="translate(-27.221 -20.038)">
        <path id="Path_1032894" data-name="Path 1032894" d="M47.482,39.262a16.067,16.067,0,0,1,3.627.414.769.769,0,1,0,.347-1.5A17.572,17.572,0,0,0,32.065,63.732a.769.769,0,1,0,1.348-.74,16.033,16.033,0,0,1,14.069-23.73Z" transform="translate(-26.832 -33.977)"/>
        <path id="Path_1032895" data-name="Path 1032895" d="M50.949,1.269h-22.5a1.69,1.69,0,0,0-1.688,1.688V9.549a1.69,1.69,0,0,0,1.688,1.688h6.736a.769.769,0,0,0,0-1.537H28.445a.151.151,0,0,1-.151-.15V2.957a.151.151,0,0,1,.151-.151h22.5a.151.151,0,0,1,.151.151V9.549a.151.151,0,0,1-.151.15H38.457a.769.769,0,0,0,0,1.537h3.949L39.479,14.1c-.138-.306-.283-.61-.437-.911a.769.769,0,0,0-1.368.7c.229.448.438.9.63,1.361l-1.2,1.171a17.5,17.5,0,0,0-1.653-3.3.769.769,0,0,0-1.294.83A15.958,15.958,0,0,1,35.9,17.613l-6.031,5.905a2.6,2.6,0,0,0-2.759.169l-2.657-2.032a2.612,2.612,0,1,0-4.357.875l-2.981,5.2A2.6,2.6,0,0,0,15.7,27.8l-4.35-6.025a2.612,2.612,0,1,0-1.246.9l4.35,6.025a2.612,2.612,0,1,0,3.991-.208l2.981-5.2a2.6,2.6,0,0,0,2.089-.421l2.657,2.032a2.612,2.612,0,1,0,4.769-.291l5.41-5.3a16.031,16.031,0,0,1-28,13.55.769.769,0,0,0-1.179.987A17.569,17.569,0,0,0,37.631,18.065l1.252-1.226A19.117,19.117,0,1,1,20.65,3.479a19.262,19.262,0,0,1,3.655.35A.769.769,0,0,0,24.6,2.321,20.651,20.651,0,1,0,20.65,43.242a20.544,20.544,0,0,0,12.589-4.293L46.382,52.805a2.67,2.67,0,0,0,1.928.839h.026a2.67,2.67,0,0,0,1.917-.8l1.1-1.121a2.692,2.692,0,0,0-.1-3.87l-9.108-8.374a.769.769,0,1,0-1.041,1.132l9.108,8.374a1.155,1.155,0,0,1,.041,1.66l-1.1,1.121a1.154,1.154,0,0,1-1.66-.015L34.423,37.964a20.816,20.816,0,0,0,1.812-1.839l2.427,2.232a.769.769,0,1,0,1.04-1.132l-2.5-2.3a20.659,20.659,0,0,0,2.9-19.282l4.5-4.407h6.346a1.69,1.69,0,0,0,1.688-1.688V2.957a1.689,1.689,0,0,0-1.687-1.688ZM9.269,21.275A1.071,1.071,0,1,1,10.34,20.2,1.071,1.071,0,0,1,9.269,21.275Zm7.266,10.074a1.071,1.071,0,1,1,1.071-1.071A1.071,1.071,0,0,1,16.534,31.348Zm5.458-9.532a1.071,1.071,0,1,1,1.071-1.071A1.071,1.071,0,0,1,21.993,21.816Zm6.624,5.075a1.071,1.071,0,1,1,1.071-1.071A1.071,1.071,0,0,1,28.617,26.892Z" transform="translate(0 -1.269)"/>
      </g>
    </g>
  </g>
</svg>
