<svg xmlns="http://www.w3.org/2000/svg" width="60" height="60" viewBox="0 0 60 60">
  <g id="img17" transform="translate(-829.711 -3973)">
    <rect id="Rectangle_456511" data-name="Rectangle 456511" width="60" height="60" rx="5" transform="translate(829.711 3973)" fill="#ff9e74"/>
    <g id="Group_1184529" data-name="Group 1184529" transform="translate(827.515 3980)">
      <path id="Path_1032439" data-name="Path 1032439" d="M222.019,122.373h-8.144a.674.674,0,1,0,0,1.349h8.144a.674.674,0,1,0,0-1.349Z" transform="translate(-184.853 -111.368)" fill="#2d6250"/>
      <path id="Path_1032440" data-name="Path 1032440" d="M50.981,291.3a.675.675,0,0,0-.674-.674H36.754a.675.675,0,0,0-.674.674v4.415a.675.675,0,0,0,.674.674H50.306a.675.675,0,0,0,.674-.674Zm-1.349,3.741h-12.2v-3.066h12.2Z" transform="translate(-23.662 -264.491)" fill="#2d6250"/>
      <path id="Path_1032441" data-name="Path 1032441" d="M38.895,440.462H37.363a1.283,1.283,0,0,0-1.282,1.282v1.532a1.283,1.283,0,0,0,1.282,1.282h1.532a1.283,1.283,0,0,0,1.282-1.282v-1.532A1.283,1.283,0,0,0,38.895,440.462Zm-.067,2.746h-1.4v-1.4h1.4Z" transform="translate(-23.663 -400.85)" fill="#2d6250"/>
      <path id="Path_1032442" data-name="Path 1032442" d="M98.971,440.462H97.439a1.283,1.283,0,0,0-1.282,1.282v1.532a1.283,1.283,0,0,0,1.282,1.282h1.532a1.283,1.283,0,0,0,1.282-1.282v-1.532A1.283,1.283,0,0,0,98.971,440.462Zm-.067,2.746h-1.4v-1.4h1.4Z" transform="translate(-78.336 -400.85)" fill="#2d6250"/>
      <path id="Path_1032443" data-name="Path 1032443" d="M40.176,384.906a1.283,1.283,0,0,0-1.282-1.282H37.363a1.283,1.283,0,0,0-1.282,1.282v1.532a1.283,1.283,0,0,0,1.282,1.282h1.532a1.283,1.283,0,0,0,1.282-1.282Zm-1.349,1.465h-1.4v-1.4h1.4Z" transform="translate(-23.663 -349.124)" fill="#2d6250"/>
      <path id="Path_1032444" data-name="Path 1032444" d="M100.253,384.906a1.283,1.283,0,0,0-1.282-1.282H97.44a1.283,1.283,0,0,0-1.282,1.282v1.532a1.283,1.283,0,0,0,1.282,1.282h1.532a1.283,1.283,0,0,0,1.282-1.282ZM98.9,386.37h-1.4v-1.4h1.4Z" transform="translate(-78.337 -349.124)" fill="#2d6250"/>
      <path id="Path_1032445" data-name="Path 1032445" d="M159.048,383.624h-1.532a1.283,1.283,0,0,0-1.282,1.282v6.644a1.283,1.283,0,0,0,1.282,1.282h1.532a1.283,1.283,0,0,0,1.282-1.282v-6.644A1.283,1.283,0,0,0,159.048,383.624Zm-.067,7.858h-1.4v-6.509h1.4Z" transform="translate(-133.01 -349.124)" fill="#2d6250"/>
      <path id="Path_1032446" data-name="Path 1032446" d="M53.611,7.654l-.979-.566a.045.045,0,0,1,0-.078l.979-.565a1.4,1.4,0,0,0,.513-1.914L52.962,2.518a1.4,1.4,0,0,0-1.914-.513l-.979.565A.045.045,0,0,1,50,2.532V1.4A1.4,1.4,0,0,0,48.6,0H46.276a1.4,1.4,0,0,0-1.4,1.4V2.532a.039.039,0,0,1-.022.039.039.039,0,0,1-.045,0l-.979-.565a1.4,1.4,0,0,0-1.914.513l-.489.847H21.811a1.985,1.985,0,0,0-1.983,1.983V6.4h-.914a1.985,1.985,0,0,0-1.982,1.983V24.473a.675.675,0,0,0,.674.674H27.66a.649.649,0,0,1,.649.649V44.047a.649.649,0,0,1-.649.649H12.078a.649.649,0,0,1-.649-.649V25.8a.649.649,0,0,1,.649-.649h2.375a.674.674,0,1,0,0-1.349H12.078a2,2,0,0,0-2,2V44.047a2,2,0,0,0,2,2h35.19a1.985,1.985,0,0,0,1.983-1.983V43.014h.913a1.985,1.985,0,0,0,1.983-1.983V14.771a.674.674,0,0,0-1.349,0V41.031a.635.635,0,0,1-.634.634H49.25V13.937A1.4,1.4,0,0,0,50,12.7V11.566a.045.045,0,0,1,.067-.039l.979.565a1.4,1.4,0,0,0,1.914-.513l1.162-2.013a1.4,1.4,0,0,0-.513-1.914ZM21.177,5.348a.635.635,0,0,1,.634-.634H40.665A1.395,1.395,0,0,0,41.189,6.4H21.177Zm8.48,35.906V39.438h4.8v1.817ZM26.81,23.8V21.556h7.643v2.227ZM22.778,17.98h2.683v2.227H22.778Zm6.88,16.532V32.285h4.8v2.227Zm4.8,1.349v2.227h-4.8V35.861Zm9.042-7.153v2.227H35.8V28.709ZM35.8,27.36V25.132h7.693V27.36Zm-1.349,3.576h-4.8V28.709h4.8ZM35.8,32.285h7.693v2.227H35.8Zm7.693-8.5H35.8V21.556h7.693Zm0-3.576H35.8V17.98h7.692ZM26.81,17.98h7.643v2.227H26.81Zm7.643,7.152V27.36h-4.8V25.8a1.987,1.987,0,0,0-.114-.664h4.91ZM35.8,39.438h1.882a.674.674,0,0,0,0-1.349H35.8V35.861h7.693v2.227H40.847a.674.674,0,0,0,0,1.349h2.648v1.817H35.8ZM22.777,21.556h2.683V23.8H22.777ZM47.9,44.062a.635.635,0,0,1-.634.634H29.549a1.988,1.988,0,0,0,.109-.649V42.6H44.169a.674.674,0,0,0,.674-.674V17.306a.675.675,0,0,0-.675-.675H22.1a.675.675,0,0,0-.675.675V23.8H18.282V8.379a.634.634,0,0,1,.633-.634H41.128a1.4,1.4,0,0,0-.375,1.822l1.162,2.013a1.4,1.4,0,0,0,1.914.513l.979-.565a.045.045,0,0,1,.067.039V12.7a1.4,1.4,0,0,0,1.4,1.4H47.9V44.062ZM52.955,8.893l-1.162,2.013a.052.052,0,0,1-.071.019l-.979-.565a1.394,1.394,0,0,0-2.091,1.207V12.7a.052.052,0,0,1-.052.052H46.276a.052.052,0,0,1-.052-.052V11.566a1.391,1.391,0,0,0-2.091-1.207l-.98.565a.048.048,0,0,1-.039.005.05.05,0,0,1-.032-.024L41.92,8.893a.052.052,0,0,1,.019-.071l.98-.565a1.394,1.394,0,0,0,0-2.414l-.98-.565a.052.052,0,0,1-.019-.071L42.4,4.37l.007-.012.673-1.166a.052.052,0,0,1,.071-.019l.979.565a1.394,1.394,0,0,0,2.091-1.207V1.4a.052.052,0,0,1,.052-.052H48.6a.052.052,0,0,1,.052.052V2.532a1.394,1.394,0,0,0,2.091,1.207l.979-.565a.052.052,0,0,1,.071.019l1.162,2.013a.052.052,0,0,1-.019.071l-.979.565a1.394,1.394,0,0,0,0,2.414l.979.565a.052.052,0,0,1,.019.071Z" fill="#2d6250"/>
      <circle id="Ellipse_13792" data-name="Ellipse 13792" cx="0.674" cy="0.674" r="0.674" transform="translate(46.763 6.396)" fill="#2d6250"/>
    </g>
  </g>
</svg>
