<svg xmlns="http://www.w3.org/2000/svg" width="292" height="236.787" viewBox="0 0 292 236.787">
  <g id="img19" transform="translate(-1122 -9396.635)">
    <rect id="Rectangle_458883" data-name="Rectangle 458883" width="292" height="236.787" rx="10" transform="translate(1122 9396.635)" fill="#f9ce5d"/>
    <g id="OBJECTS" transform="translate(1095.417 9322.565)">
      <g id="Group_1184453" data-name="Group 1184453" transform="translate(91.579 113.75)">
        <path id="Path_1031710" data-name="Path 1031710" d="M299.165,255.86H130.612a6.588,6.588,0,0,1-6.588-6.588V128.419a6.588,6.588,0,0,1,6.588-6.588H299.165a6.588,6.588,0,0,1,6.588,6.588V249.271A6.588,6.588,0,0,1,299.165,255.86Z" transform="translate(-124.024 -121.831)" fill="#cacaff"/>
        <g id="Group_1184452" data-name="Group 1184452" transform="translate(17.282 18.151)">
          <rect id="Rectangle_459351" data-name="Rectangle 459351" width="6.842" height="16.675" transform="translate(17.975 40.484)" fill="#fff"/>
          <rect id="Rectangle_459352" data-name="Rectangle 459352" width="6.842" height="18.999" transform="translate(27.687 38.159)" fill="#41bcbc"/>
          <rect id="Rectangle_459353" data-name="Rectangle 459353" width="6.842" height="22.641" transform="translate(37.398 34.518)" fill="#6a6ae2"/>
          <rect id="Rectangle_459354" data-name="Rectangle 459354" width="6.842" height="30.975" transform="translate(47.109 26.184)" fill="#171659"/>
          <rect id="Rectangle_459355" data-name="Rectangle 459355" width="6.842" height="39.526" transform="translate(56.82 17.633)" fill="#fff"/>
          <rect id="Rectangle_459356" data-name="Rectangle 459356" width="6.842" height="35.118" transform="translate(66.531 22.041)" fill="#41bcbc"/>
          <rect id="Rectangle_459357" data-name="Rectangle 459357" width="6.842" height="37.87" transform="translate(76.242 19.288)" fill="#6a6ae2"/>
          <path id="Path_1031711" data-name="Path 1031711" d="M150.9,159.642v51h91.482" transform="translate(-150.9 -153.48)" fill="none" stroke="#130f40" stroke-linecap="round" stroke-linejoin="round" stroke-miterlimit="10" stroke-width="0.75"/>
          <path id="Path_1031712" data-name="Path 1031712" d="M160.866,202.894l17.9-21.014,7.513,7.988L216.9,164.011l9.811,8.949L241.962,161.1" transform="translate(-154.458 -154.002)" fill="none" stroke="#6a6ae2" stroke-linecap="round" stroke-linejoin="round" stroke-miterlimit="10" stroke-width="2"/>
          <circle id="Ellipse_13782" data-name="Ellipse 13782" cx="0.939" cy="0.939" r="0.939" transform="translate(86.564 6.162)" fill="#130f40"/>
          <path id="Path_1031713" data-name="Path 1031713" d="M161.285,225.574a.939.939,0,1,1-.939-.939A.939.939,0,0,1,161.285,225.574Z" transform="translate(-153.937 -176.682)" fill="#130f40"/>
          <rect id="Rectangle_459358" data-name="Rectangle 459358" width="42.205" height="22.041" transform="translate(0 71.365)" fill="#fff"/>
          <g id="Group_1184444" data-name="Group 1184444" transform="translate(55.243 71.365)">
            <line id="Line_3269" data-name="Line 3269" x2="24.413" fill="none" stroke="#6a6ae2" stroke-linecap="round" stroke-linejoin="round" stroke-miterlimit="10" stroke-width="0.75"/>
            <line id="Line_3270" data-name="Line 3270" x2="36.239" transform="translate(0 4.408)" fill="none" stroke="#6a6ae2" stroke-linecap="round" stroke-linejoin="round" stroke-miterlimit="10" stroke-width="0.75"/>
            <line id="Line_3271" data-name="Line 3271" x2="36.239" transform="translate(0 8.816)" fill="none" stroke="#6a6ae2" stroke-linecap="round" stroke-linejoin="round" stroke-miterlimit="10" stroke-width="0.75"/>
            <line id="Line_3272" data-name="Line 3272" x2="36.239" transform="translate(0 13.225)" fill="none" stroke="#6a6ae2" stroke-linecap="round" stroke-linejoin="round" stroke-miterlimit="10" stroke-width="0.75"/>
            <line id="Line_3273" data-name="Line 3273" x2="36.239" transform="translate(0 17.633)" fill="none" stroke="#6a6ae2" stroke-linecap="round" stroke-linejoin="round" stroke-miterlimit="10" stroke-width="0.75"/>
            <line id="Line_3274" data-name="Line 3274" x2="36.239" transform="translate(0 22.041)" fill="none" stroke="#6a6ae2" stroke-linecap="round" stroke-linejoin="round" stroke-miterlimit="10" stroke-width="0.75"/>
          </g>
          <g id="Group_1184447" data-name="Group 1184447" transform="translate(110.926)">
            <g id="Group_1184445" data-name="Group 1184445">
              <line id="Line_3275" data-name="Line 3275" x2="24.414" fill="none" stroke="#6a6ae2" stroke-linecap="round" stroke-linejoin="round" stroke-miterlimit="10" stroke-width="0.75"/>
              <line id="Line_3276" data-name="Line 3276" x2="36.239" transform="translate(0 4.408)" fill="none" stroke="#6a6ae2" stroke-linecap="round" stroke-linejoin="round" stroke-miterlimit="10" stroke-width="0.75"/>
              <line id="Line_3277" data-name="Line 3277" x2="36.239" transform="translate(0 8.816)" fill="none" stroke="#6a6ae2" stroke-linecap="round" stroke-linejoin="round" stroke-miterlimit="10" stroke-width="0.75"/>
              <line id="Line_3278" data-name="Line 3278" x2="36.239" transform="translate(0 13.224)" fill="none" stroke="#6a6ae2" stroke-linecap="round" stroke-linejoin="round" stroke-miterlimit="10" stroke-width="0.75"/>
              <line id="Line_3279" data-name="Line 3279" x2="36.239" transform="translate(0 17.633)" fill="none" stroke="#6a6ae2" stroke-linecap="round" stroke-linejoin="round" stroke-miterlimit="10" stroke-width="0.75"/>
              <line id="Line_3280" data-name="Line 3280" x2="36.239" transform="translate(0 22.041)" fill="none" stroke="#6a6ae2" stroke-linecap="round" stroke-linejoin="round" stroke-miterlimit="10" stroke-width="0.75"/>
            </g>
            <g id="Group_1184446" data-name="Group 1184446" transform="translate(0 35.118)">
              <line id="Line_3281" data-name="Line 3281" x2="24.414" fill="none" stroke="#6a6ae2" stroke-linecap="round" stroke-linejoin="round" stroke-miterlimit="10" stroke-width="0.75"/>
              <line id="Line_3282" data-name="Line 3282" x2="36.239" transform="translate(0 4.408)" fill="none" stroke="#6a6ae2" stroke-linecap="round" stroke-linejoin="round" stroke-miterlimit="10" stroke-width="0.75"/>
              <line id="Line_3283" data-name="Line 3283" x2="36.239" transform="translate(0 8.816)" fill="none" stroke="#6a6ae2" stroke-linecap="round" stroke-linejoin="round" stroke-miterlimit="10" stroke-width="0.75"/>
              <line id="Line_3284" data-name="Line 3284" x2="36.239" transform="translate(0 13.225)" fill="none" stroke="#6a6ae2" stroke-linecap="round" stroke-linejoin="round" stroke-miterlimit="10" stroke-width="0.75"/>
              <line id="Line_3285" data-name="Line 3285" x2="36.239" transform="translate(0 17.633)" fill="none" stroke="#6a6ae2" stroke-linecap="round" stroke-linejoin="round" stroke-miterlimit="10" stroke-width="0.75"/>
              <line id="Line_3286" data-name="Line 3286" x2="36.239" transform="translate(0 22.041)" fill="none" stroke="#6a6ae2" stroke-linecap="round" stroke-linejoin="round" stroke-miterlimit="10" stroke-width="0.75"/>
            </g>
          </g>
          <g id="Group_1184451" data-name="Group 1184451" transform="translate(110.926 67.044)">
            <path id="Path_1031714" data-name="Path 1031714" d="M355.27,285.007H327.789a4.379,4.379,0,0,1-4.379-4.379V258.7a4.379,4.379,0,0,1,4.379-4.379H355.27a4.379,4.379,0,0,1,4.379,4.379v21.925A4.379,4.379,0,0,1,355.27,285.007Z" transform="translate(-323.41 -254.324)" fill="#6a6ae2"/>
            <g id="Group_1184450" data-name="Group 1184450" transform="translate(9.819 3.209)">
              <path id="Path_1031715" data-name="Path 1031715" d="M355.282,267.615a8.3,8.3,0,1,0-13.046,6.8,2.728,2.728,0,0,1,1.14,2.245v.457a1.16,1.16,0,0,0,1.16,1.16h4.889a1.16,1.16,0,0,0,1.16-1.16v-.458a2.758,2.758,0,0,1,1.164-2.26A8.276,8.276,0,0,0,355.282,267.615Z" transform="translate(-338.681 -259.315)" fill="#fff"/>
              <g id="Group_1184448" data-name="Group 1184448" transform="translate(6.788 11.696)">
                <path id="Path_1031716" data-name="Path 1031716" d="M349.238,277.815h.621l.311.559.67-.871.366.767.373-.476.684-.021" transform="translate(-349.238 -277.504)" fill="none" stroke="#f4cc4d" stroke-linecap="round" stroke-linejoin="round" stroke-miterlimit="10" stroke-width="0.75"/>
                <line id="Line_3287" data-name="Line 3287" x1="0.373" y1="6.829" transform="translate(0 0.437)" fill="none" stroke="#6a6ae2" stroke-linecap="round" stroke-linejoin="round" stroke-miterlimit="10" stroke-width="0.75"/>
                <line id="Line_3288" data-name="Line 3288" y1="6.829" x2="0.373" transform="translate(2.651 0.437)" fill="none" stroke="#6a6ae2" stroke-linecap="round" stroke-linejoin="round" stroke-miterlimit="10" stroke-width="0.75"/>
              </g>
              <path id="Path_1031717" data-name="Path 1031717" d="M351.163,294.107H349.1a1.6,1.6,0,0,1-1.6-1.6V288.8h5.262v3.706A1.6,1.6,0,0,1,351.163,294.107Z" transform="translate(-341.829 -269.842)" fill="#cacaff"/>
              <g id="Group_1184449" data-name="Group 1184449" transform="translate(5.67 20.06)">
                <line id="Line_3289" data-name="Line 3289" x2="5.262" fill="none" stroke="#6a6ae2" stroke-linecap="round" stroke-linejoin="round" stroke-miterlimit="10" stroke-width="0.75"/>
                <line id="Line_3290" data-name="Line 3290" x2="5.262" transform="translate(0 1.036)" fill="none" stroke="#6a6ae2" stroke-linecap="round" stroke-linejoin="round" stroke-miterlimit="10" stroke-width="0.75"/>
                <line id="Line_3291" data-name="Line 3291" x2="5.262" transform="translate(0 2.072)" fill="none" stroke="#6a6ae2" stroke-linecap="round" stroke-linejoin="round" stroke-miterlimit="10" stroke-width="0.75"/>
                <line id="Line_3292" data-name="Line 3292" x2="5.262" transform="translate(0 3.108)" fill="none" stroke="#6a6ae2" stroke-linecap="round" stroke-linejoin="round" stroke-miterlimit="10" stroke-width="0.75"/>
              </g>
            </g>
          </g>
        </g>
      </g>
      <g id="Group_1184455" data-name="Group 1184455" transform="translate(33.137 208.791)">
        <g id="Group_1184454" data-name="Group 1184454">
          <path id="Path_1031718" data-name="Path 1031718" d="M35.968,320.523A35.516,35.516,0,1,0,61.35,277.182,35.516,35.516,0,0,0,35.968,320.523Z" transform="translate(-33.732 -271.915)" fill="#c9a645"/>
          <path id="Path_1031719" data-name="Path 1031719" d="M34.3,314.139A35.515,35.515,0,1,0,59.681,270.8,35.516,35.516,0,0,0,34.3,314.139Z" transform="translate(-33.137 -269.636)" fill="#f4cc4d"/>
          <path id="Path_1031720" data-name="Path 1031720" d="M42.4,315.747A30.2,30.2,0,1,0,63.979,278.9,30.2,30.2,0,0,0,42.4,315.747Z" transform="translate(-36.09 -272.589)" fill="#c9a645"/>
          <path id="Path_1031721" data-name="Path 1031721" d="M70.051,317.975a10.018,10.018,0,0,1,3.091-3.619,39.421,39.421,0,0,1,4.364-2.676c.276-.151.564-.305.856-.461,1.384-.751,2.505-1.388,3.358-1.928.116-.075.226-.149.332-.217a7.055,7.055,0,0,0,2.063-1.956A2.844,2.844,0,0,0,84.5,304.7a3.671,3.671,0,0,0-2.456-2.616,6.107,6.107,0,0,0-2.29-.316,13.9,13.9,0,0,0-3.067.491,15.57,15.57,0,0,0-1.517.482A17.652,17.652,0,0,0,72.559,304a18.4,18.4,0,0,0-3.77,2.922l-2.979-3.992a16.084,16.084,0,0,1,4.2-3.27,23.62,23.62,0,0,1,3.907-1.726l-1.193-4.565,4.529-1.184,1.233,4.719a14.721,14.721,0,0,1,4.108.039,9.736,9.736,0,0,1,5.072,2.236,8.565,8.565,0,0,1,2.609,4.3,7.331,7.331,0,0,1-.3,5.251,9.783,9.783,0,0,1-3.07,3.608,39.82,39.82,0,0,1-3.767,2.345c-.477.271-.985.551-1.516.831q-1.589.856-2.7,1.536c-.367.215-.7.419-.987.608a7.022,7.022,0,0,0-2.058,1.977,2.924,2.924,0,0,0-.38,2.436,3.463,3.463,0,0,0,2.464,2.472,7.208,7.208,0,0,0,2.978.227,16.439,16.439,0,0,0,2.465-.464,17.076,17.076,0,0,0,2.072-.689,17.97,17.97,0,0,0,3.227-1.713,16.19,16.19,0,0,0,4.019-3.675l3.154,3.946a14.936,14.936,0,0,1-4.573,4.08,23.85,23.85,0,0,1-4.569,2.176l1.206,4.613L83.4,334.231l-1.214-4.645a15.364,15.364,0,0,1-4.765.06,9.77,9.77,0,0,1-5.089-2.215,8.4,8.4,0,0,1-2.6-4.277A7.148,7.148,0,0,1,70.051,317.975Z" transform="translate(-44.801 -277.686)" fill="#f4cc4d"/>
        </g>
      </g>
      <g id="Group_1184458" data-name="Group 1184458" transform="translate(66.643 193.42)">
        <path id="Path_1031722" data-name="Path 1031722" d="M144.057,344.7l26.479-18.44A9.58,9.58,0,0,1,184.7,330.1l12.577,27.144H182.214l-7.377-18.062-21.464,16.413Z" transform="translate(-106.24 -273.866)" fill="#41bcbc"/>
        <path id="Path_1031723" data-name="Path 1031723" d="M240.438,364.99s6.928-9.079,13.747-10.423l-5.5,20.541H238.458Z" transform="translate(-139.94 -284.584)" fill="#171659"/>
        <path id="Path_1031724" data-name="Path 1031724" d="M142.983,299.639a15.189,15.189,0,0,0-10.549-11.248v14.49l2.049.025,5.6,28.037.673,3.385,8.994-4.454Z" transform="translate(-102.091 -260.96)" fill="#fff"/>
        <path id="Path_1031725" data-name="Path 1031725" d="M105.354,357.569l1.193,7.083a11.288,11.288,0,0,0,11.131,9.412h74.941l1.485-12.042H134.387l-3.794-10.375Z" transform="translate(-92.424 -283.542)" fill="#41bcbc"/>
        <path id="Path_1031726" data-name="Path 1031726" d="M128.738,326.508l1.22,3.629-1.835.574-24.588,7.682a.68.68,0,0,1-.878-.565l-.414-3.323a3.344,3.344,0,0,1-1.676-2.745c-.574-11.937.323-27.47,1.016-36.767a6.587,6.587,0,0,0-2.64-4.038,15.094,15.094,0,0,1,6.519-2.989l1.175-.224,9.376,10.313,3.926-10.05.363.1c.059.014.119.04.172.053a15.026,15.026,0,0,1,6.552,3.919,83.7,83.7,0,0,1,.046,18.588,12.5,12.5,0,0,0,1.089,6.552l1.9,4.091A4.238,4.238,0,0,1,128.738,326.508Z" transform="translate(-90.136 -260.729)" fill="#fff"/>
        <path id="Path_1031727" data-name="Path 1031727" d="M124.214,287.254l-2.31,5.919-1.617,4.131-3.3-3.629-6.077-6.684.831-.158a2.366,2.366,0,0,0,1.623-1.194c.482.105,1.181.251,2.019.383a22.767,22.767,0,0,0,7.04.139,1.1,1.1,0,0,0,.4.627,1.133,1.133,0,0,0,.37.185Z" transform="translate(-94.408 -259.978)" fill="#fff"/>
        <path id="Path_1031728" data-name="Path 1031728" d="M130.792,251.886v-.006a9.571,9.571,0,1,0-15.263,10.6l-.014.086-.943,5.411-.467,2.694a2.342,2.342,0,0,1-.252.718,25.571,25.571,0,0,0,9.063.518,1.079,1.079,0,0,1-.023-.356l.278-2.426c5.266,1.709,6.757-3.886,8.142-12.352H131.3A9.524,9.524,0,0,0,130.792,251.886Z" transform="translate(-94.896 -245.732)" fill="#ffcfc0"/>
        <path id="Path_1031729" data-name="Path 1031729" d="M130.792,251.88v.006c-1.062,3-9.945-1.346-9.945-1.346a27.508,27.508,0,0,1-5.331,12.029l.014-.086a9.57,9.57,0,1,1,15.263-10.6Z" transform="translate(-94.896 -245.732)" fill="#171659"/>
        <path id="Path_1031730" data-name="Path 1031730" d="M134.173,263.247s-1.821,3.277,2.323,5.185l-3.312,1.451" transform="translate(-102.359 -251.984)" fill="none" stroke="#ff8e77" stroke-linecap="round" stroke-linejoin="round" stroke-miterlimit="10" stroke-width="0.75"/>
        <path id="Path_1031731" data-name="Path 1031731" d="M138.34,267.2c-.086.434,0,.817.2.855s.423-.282.509-.716,0-.817-.2-.855S138.426,266.762,138.34,267.2Z" transform="translate(-104.188 -253.137)" fill="#130f40"/>
        <path id="Path_1031732" data-name="Path 1031732" d="M127.882,265.141c-.086.434,0,.817.2.855s.423-.282.509-.716,0-.817-.2-.855S127.968,264.707,127.882,265.141Z" transform="translate(-100.454 -252.403)" fill="#130f40"/>
        <path id="Path_1031733" data-name="Path 1031733" d="M117.5,264.6s-1.051-4.634-4.089-3.718-1.929,10.1,3.251,7.98Z" transform="translate(-94.703 -251.097)" fill="#ffcfc0"/>
        <path id="Path_1031734" data-name="Path 1031734" d="M116.645,267.12s-.122-2.588-1.539-3.286-1.5,1.2-1.5,1.2" transform="translate(-95.371 -252.138)" fill="none" stroke="#ff8e77" stroke-linecap="round" stroke-linejoin="round" stroke-miterlimit="10" stroke-width="0.75"/>
        <path id="Path_1031735" data-name="Path 1031735" d="M116.292,264.843s-1.808.966-.34,3.651" transform="translate(-96.002 -252.554)" fill="none" stroke="#ff8e77" stroke-linecap="round" stroke-linejoin="round" stroke-miterlimit="10" stroke-width="0.75"/>
        <path id="Path_1031736" data-name="Path 1031736" d="M128.451,259.151a3.237,3.237,0,0,1,2.676.536" transform="translate(-100.669 -250.49)" fill="none" stroke="#130f40" stroke-linecap="round" stroke-linejoin="round" stroke-miterlimit="10" stroke-width="0.75"/>
        <path id="Path_1031737" data-name="Path 1031737" d="M138.909,261.437a1.556,1.556,0,0,1,2.014.7" transform="translate(-104.402 -251.292)" fill="none" stroke="#130f40" stroke-linecap="round" stroke-linejoin="round" stroke-miterlimit="10" stroke-width="0.75"/>
        <path id="Path_1031738" data-name="Path 1031738" d="M128.058,273.566a3.094,3.094,0,0,0,2.6,2.557" transform="translate(-100.529 -255.668)" fill="none" stroke="#ff8e77" stroke-linecap="round" stroke-linejoin="round" stroke-miterlimit="10" stroke-width="0.75"/>
        <path id="Path_1031739" data-name="Path 1031739" d="M125.865,279.293l-.3,2.62a7.457,7.457,0,0,1-5.727-7.707A9.927,9.927,0,0,0,125.865,279.293Z" transform="translate(-97.59 -255.896)" fill="#ff8e77"/>
        <g id="Group_1184456" data-name="Group 1184456" transform="translate(22.085 54.455)">
          <path id="Path_1031740" data-name="Path 1031740" d="M119.592,334.374l7.812-3.622a3.6,3.6,0,0,1,3.833.516c2.011,1.694,3.98,2.716,4.74,4.671,1.155,2.969-5.772,2.724-5.772,2.724s-4.38,2.969-8.871,1.7Z" transform="translate(-119.592 -330.418)" fill="#ffcfc0"/>
          <path id="Path_1031741" data-name="Path 1031741" d="M135.669,339.973s4.128-.336,5.446,1.179" transform="translate(-125.331 -333.818)" fill="none" stroke="#ff8e77" stroke-linecap="round" stroke-linejoin="round" stroke-miterlimit="10" stroke-width="0.75"/>
          <path id="Path_1031742" data-name="Path 1031742" d="M135.242,336.618s3.846-.555,6.322,1.51" transform="translate(-125.179 -332.607)" fill="none" stroke="#ff8e77" stroke-linecap="round" stroke-linejoin="round" stroke-miterlimit="10" stroke-width="0.75"/>
          <path id="Path_1031743" data-name="Path 1031743" d="M134.814,332.808a10.621,10.621,0,0,1,5.258,2.06" transform="translate(-125.026 -331.271)" fill="none" stroke="#ff8e77" stroke-linecap="round" stroke-linejoin="round" stroke-miterlimit="10" stroke-width="0.75"/>
        </g>
        <path id="Path_1031744" data-name="Path 1031744" d="M94.053,292.743a15.133,15.133,0,0,0-5.2,7.829,91.787,91.787,0,0,0-3.563,27.073,7.351,7.351,0,0,0,9.812,6.585l15.394-5.444-3.016-10.142-11.039,4.117.825-18.555C97.268,298.15,96.92,294.738,94.053,292.743Z" transform="translate(-85.245 -262.514)" fill="#fff"/>
        <path id="Path_1031745" data-name="Path 1031745" d="M122.936,291.637l1.452,1.748-1.617,4.131-3.3-3.629,1.155-2.25-2.758-5.4a22.768,22.768,0,0,0,7.04.139,1.1,1.1,0,0,0,.4.627Z" transform="translate(-96.891 -260.19)" fill="#171659"/>
        <path id="Path_1031746" data-name="Path 1031746" d="M128.4,287.543l-1.55,3.965-4.21-4.87a19.123,19.123,0,0,0,3.973-.192,1.085,1.085,0,0,0,.765.811Z" transform="translate(-98.595 -260.266)" fill="#fff"/>
        <path id="Path_1031747" data-name="Path 1031747" d="M118.453,286.35l-3.51,5.074-4.032-4.434.831-.158a2.366,2.366,0,0,0,1.623-1.194A31.6,31.6,0,0,0,118.453,286.35Z" transform="translate(-94.408 -259.978)" fill="#fff"/>
        <path id="Path_1031748" data-name="Path 1031748" d="M117.181,291.82l3.51-5.074,4.21,4.87" transform="translate(-96.646 -260.373)" fill="none" stroke="#130f40" stroke-linecap="round" stroke-linejoin="round" stroke-miterlimit="10" stroke-width="0.75"/>
        <path id="Path_1031749" data-name="Path 1031749" d="M99.18,339.43a21.672,21.672,0,0,0-6.269,3.468" transform="translate(-87.982 -279.181)" fill="none" stroke="#130f40" stroke-linecap="round" stroke-linejoin="round" stroke-miterlimit="10" stroke-width="0.75"/>
        <path id="Path_1031750" data-name="Path 1031750" d="M142.837,335.7l1.835-.574-1.22-3.629a4.24,4.24,0,0,0,1.327-5.2l-1.9-4.091a13.1,13.1,0,0,1-1.089-6.552c.406-5.272-.035-10.551-1.629-13.933" transform="translate(-104.849 -265.72)" fill="none" stroke="#130f40" stroke-linecap="round" stroke-linejoin="round" stroke-miterlimit="10" stroke-width="0.75"/>
        <path id="Path_1031751" data-name="Path 1031751" d="M103.485,310.574l-.825,18.555,11.039-4.117.624,1.919" transform="translate(-91.462 -268.879)" fill="none" stroke="#130f40" stroke-linecap="round" stroke-linejoin="round" stroke-miterlimit="10" stroke-width="0.75"/>
        <path id="Path_1031752" data-name="Path 1031752" d="M115.859,346.379l.463,1.556-14.764,5.221" transform="translate(-91.069 -281.661)" fill="none" stroke="#130f40" stroke-linecap="round" stroke-linejoin="round" stroke-miterlimit="10" stroke-width="0.75"/>
        <line id="Line_3293" data-name="Line 3293" y1="7.094" x2="22.848" transform="translate(12.93 66.274)" fill="none" stroke="#130f40" stroke-linecap="round" stroke-linejoin="round" stroke-miterlimit="10" stroke-width="0.75"/>
        <g id="Group_1184457" data-name="Group 1184457" transform="translate(27.044 54.455)">
          <path id="Path_1031753" data-name="Path 1031753" d="M128.277,354.493h30.94a.972.972,0,0,0,.939-.719l5.972-22.13a.973.973,0,0,0-.939-1.226h-30.94a.972.972,0,0,0-.939.719l-5.972,22.13A.972.972,0,0,0,128.277,354.493Z" transform="translate(-127.304 -330.419)" fill="#6a6ae2"/>
          <line id="Line_3294" data-name="Line 3294" x1="5.972" y2="22.13" transform="translate(1.25 1.146)" fill="none" stroke="#130f40" stroke-linecap="round" stroke-linejoin="round" stroke-miterlimit="10" stroke-width="0.75"/>
          <path id="Path_1031754" data-name="Path 1031754" d="M135.617,347.3l2.756,10.624a3.462,3.462,0,0,0,3.351,2.593H167.9a1.181,1.181,0,0,0,1.143-1.477L166,347.3Z" transform="translate(-130.271 -336.447)" fill="#cacaff"/>
        </g>
        <line id="Line_3295" data-name="Line 3295" x2="14.82" y2="0.048" transform="translate(73.975 78.481)" fill="none" stroke="#130f40" stroke-linecap="round" stroke-linejoin="round" stroke-miterlimit="10" stroke-width="0.75"/>
        <path id="Path_1031755" data-name="Path 1031755" d="M110.911,287.741l9.376,10.313,4.289-9.951" transform="translate(-94.408 -260.728)" fill="none" stroke="#130f40" stroke-linecap="round" stroke-linejoin="round" stroke-miterlimit="10" stroke-width="0.75"/>
      </g>
      <g id="Group_1184460" data-name="Group 1184460" transform="translate(38.457 153.451)">
        <path id="Path_1031756" data-name="Path 1031756" d="M85.925,190.283v20.355a6.71,6.71,0,0,1-6.71,6.71H73.138V228.34L62.154,217.349H48.12a6.711,6.711,0,0,1-6.71-6.71V190.283a6.711,6.711,0,0,1,6.71-6.71H79.215A6.711,6.711,0,0,1,85.925,190.283Z" transform="translate(-41.41 -183.573)" fill="#41bcbc"/>
        <g id="Group_1184459" data-name="Group 1184459" transform="translate(9.35 20.159)">
          <path id="Path_1031757" data-name="Path 1031757" d="M60.4,217.149a2.225,2.225,0,1,1-2.225-2.225A2.225,2.225,0,0,1,60.4,217.149Z" transform="translate(-55.951 -214.924)" fill="#fff"/>
          <path id="Path_1031758" data-name="Path 1031758" d="M77.014,217.149a2.225,2.225,0,1,1-2.225-2.225A2.225,2.225,0,0,1,77.014,217.149Z" transform="translate(-61.882 -214.924)" fill="#fff"/>
          <path id="Path_1031759" data-name="Path 1031759" d="M93.627,217.149a2.225,2.225,0,1,1-2.225-2.225A2.225,2.225,0,0,1,93.627,217.149Z" transform="translate(-67.812 -214.924)" fill="#fff"/>
        </g>
      </g>
      <g id="Group_1184464" data-name="Group 1184464" transform="translate(197.345 236.481)">
        <rect id="Rectangle_459359" data-name="Rectangle 459359" width="45.191" height="31.392" transform="translate(0.096 16.022)" fill="#f4cc4d"/>
        <path id="Path_1031760" data-name="Path 1031760" d="M342.669,337.616v31.392H326.832c-13.664-7.009-13.992-23.38-13.24-31.392Z" transform="translate(-297.382 -321.594)" fill="#c9a645"/>
        <g id="Group_1184461" data-name="Group 1184461" transform="translate(0 23.376)">
          <line id="Line_3296" data-name="Line 3296" x2="45.379" transform="translate(0 16.682)" fill="none" stroke="#130f40" stroke-linecap="round" stroke-linejoin="round" stroke-miterlimit="10" stroke-width="0.75"/>
          <line id="Line_3297" data-name="Line 3297" x2="45.379" transform="translate(0 8.341)" fill="none" stroke="#130f40" stroke-linecap="round" stroke-linejoin="round" stroke-miterlimit="10" stroke-width="0.75"/>
          <line id="Line_3298" data-name="Line 3298" x2="45.379" fill="none" stroke="#130f40" stroke-linecap="round" stroke-linejoin="round" stroke-miterlimit="10" stroke-width="0.75"/>
        </g>
        <g id="Group_1184463" data-name="Group 1184463" transform="translate(22.699)">
          <g id="Group_1184462" data-name="Group 1184462">
            <path id="Path_1031761" data-name="Path 1031761" d="M367.785,326.911a22.583,22.583,0,1,1-31.107-7.236A22.583,22.583,0,0,1,367.785,326.911Z" transform="translate(-324.602 -313.97)" fill="#c9a645"/>
            <path id="Path_1031762" data-name="Path 1031762" d="M365.568,323.349a22.583,22.583,0,1,1-31.106-7.236A22.584,22.584,0,0,1,365.568,323.349Z" transform="translate(-323.811 -312.699)" fill="#f4cc4d"/>
            <path id="Path_1031763" data-name="Path 1031763" d="M364.575,327.014a19.2,19.2,0,1,1-26.448-6.153A19.2,19.2,0,0,1,364.575,327.014Z" transform="translate(-325.688 -314.576)" fill="#c9a645"/>
            <path id="Path_1031764" data-name="Path 1031764" d="M360.25,338.4a6.368,6.368,0,0,0-3.022-.156,25.053,25.053,0,0,0-3.144.844c-.191.062-.388.127-.587.194-.952.311-1.736.549-2.358.707l-.246.059a4.5,4.5,0,0,1-1.8.1,1.81,1.81,0,0,1-1.283-.878,2.335,2.335,0,0,1-.134-2.278,3.891,3.891,0,0,1,.856-1.2,8.823,8.823,0,0,1,1.568-1.2,9.937,9.937,0,0,1,.885-.49,11.237,11.237,0,0,1,1.723-.656,11.685,11.685,0,0,1,3-.462l-.54-3.121a10.245,10.245,0,0,0-3.346.507,15.03,15.03,0,0,0-2.506,1.049l-1.586-2.548-2.527,1.573,1.639,2.633a9.374,9.374,0,0,0-1.779,1.914,6.2,6.2,0,0,0-1.186,3.319,5.448,5.448,0,0,0,.845,3.086,4.661,4.661,0,0,0,2.557,2.155,6.212,6.212,0,0,0,3.009.16,25.2,25.2,0,0,0,2.73-.714c.334-.1.685-.214,1.047-.336.727-.24,1.355-.431,1.891-.576.26-.076.5-.139.712-.19a4.471,4.471,0,0,1,1.813-.086,1.86,1.86,0,0,1,1.291.89,2.2,2.2,0,0,1,.064,2.219,4.58,4.58,0,0,1-1.2,1.474,10.445,10.445,0,0,1-1.292.935,10.939,10.939,0,0,1-1.224.655,11.48,11.48,0,0,1-2.2.741,10.306,10.306,0,0,1-3.454.248l.442,3.182a9.5,9.5,0,0,0,3.883-.327,15.181,15.181,0,0,0,3-1.157l1.6,2.574,2.526-1.573L360.3,349.08a9.782,9.782,0,0,0,2.112-2.173,6.211,6.211,0,0,0,1.2-3.319,5.342,5.342,0,0,0-.836-3.071A4.552,4.552,0,0,0,360.25,338.4Z" transform="translate(-330.971 -318.472)" fill="#f4cc4d"/>
          </g>
        </g>
        <path id="Path_1031765" data-name="Path 1031765" d="M346.4,369.007h-.058a22.559,22.559,0,0,1-17.689-10.6c-.238-.386-.463-.772-.675-1.17q-.4-.54-.752-1.119a22.515,22.515,0,0,1-2.431-18.5" transform="translate(-301.113 -321.593)" fill="none" stroke="#130f40" stroke-linecap="round" stroke-linejoin="round" stroke-miterlimit="10" stroke-width="0.75"/>
      </g>
      <g id="Group_1184465" data-name="Group 1184465" transform="translate(251.149 128.527)">
        <path id="Path_1031766" data-name="Path 1031766" d="M433.27,375.115c-2.1-.193-2.373-1.177-5.17-1.177-3.093,0-3.331,1.653-5.061,1.653a1.712,1.712,0,0,1-1.3-.489l.5-5.343h7.915A27.076,27.076,0,0,1,433.27,375.115Z" transform="translate(-389.875 -225.114)" fill="#ffcfc0"/>
        <path id="Path_1031767" data-name="Path 1031767" d="M435.173,382.85H420.95l.508-5.427a1.712,1.712,0,0,0,1.3.489c1.73,0,1.968-1.653,5.061-1.653,2.8,0,3.074.984,5.17,1.177A56.809,56.809,0,0,1,435.173,382.85Z" transform="translate(-389.593 -227.435)" fill="#171659"/>
        <path id="Path_1031768" data-name="Path 1031768" d="M385.691,377.237c3.371-1.089,9.3-2.948,12.352-2.394l-.095-5.081h-7.716a59.156,59.156,0,0,0-8.376,6.795C382.146,377.225,383.02,378.1,385.691,377.237Z" transform="translate(-375.637 -225.115)" fill="#ffcfc0"/>
        <path id="Path_1031769" data-name="Path 1031769" d="M383.469,380c-2.671.864-3.546-.012-3.834-.68-2.336,2.2-4,3.976-4,3.976h20.3l-.106-5.689C392.766,377.054,386.84,378.912,383.469,380Z" transform="translate(-373.415 -227.88)" fill="#171659"/>
        <path id="Path_1031770" data-name="Path 1031770" d="M426.368,173.225c-.1,2.714-5.356,6.668-5.356,6.668s-13.773-1.4-17.2-2.411-4.662-4.559-2.521-6.488,3.273-5.684-.264-5.691-2.894-3.138-2.894-3.138a3.489,3.489,0,0,1-2.894-3.549c-.058-2.366,2.836-3.408,2.836-3.408-.694-.514-1.929-5.967,7.453-9.343a20.488,20.488,0,0,1,2.81-.8c6.79-1.357,7.645,3.266,7.645,3.266,9.491,1.074,4.385,13.838,4.385,13.838a1.9,1.9,0,0,1,2.038,1.9c0,1.968-2.411,2.977-2.411,2.977a3.722,3.722,0,0,1,2.366.437,1.574,1.574,0,0,1,.63,1c.36,1.717-1.575,3.144-1.8,3.305C423.442,170.672,426.477,170.518,426.368,173.225Z" transform="translate(-380.414 -144.811)" fill="#130f40"/>
        <path id="Path_1031771" data-name="Path 1031771" d="M423.677,211.259,423,213.67l-6.173,2.636-1.633.7-1.935-7.523-1-3.884H392.979l-5.228,5.562-2.7,2.874-.952-.977-6.289-6.417a58.831,58.831,0,0,1,5.466-6.777,34.078,34.078,0,0,1,6.057-5.157,23.093,23.093,0,0,1,13.008-3.929,34.409,34.409,0,0,1,7.652.868,15.806,15.806,0,0,1,8.481,5.151,16.028,16.028,0,0,1,3.3,6.218c.058.206.109.418.161.63Z" transform="translate(-374.192 -161.221)" fill="#6a6ae2"/>
        <path id="Path_1031772" data-name="Path 1031772" d="M444.663,226.379l-3.286,11.761a4.764,4.764,0,0,1-.553-1.228l-2.334-7.9Z" transform="translate(-395.854 -173.93)" fill="#ffcfc0"/>
        <path id="Path_1031773" data-name="Path 1031773" d="M392.366,234.174l-3.781,6.353L374.8,228.772a7.416,7.416,0,0,1-1.479-9.607q1.235-1.948,2.476-3.717l6.289,6.417-1.7,1.7Z" transform="translate(-372.184 -170.028)" fill="#ffcfc0"/>
        <path id="Path_1031774" data-name="Path 1031774" d="M417.343,213.314a13.411,13.411,0,0,0-.547,8.694,67.039,67.039,0,0,1,1.723,8.108H394.941c1.2-6.81,1.376-10.6-.932-15.529a8.714,8.714,0,0,1-.759-3.035c-.373-4.707,2.2-9.909,2.2-9.909l-.617-6.546a23.63,23.63,0,0,1,6.938-3.151c-.148,1.254-.09,4.4,4.36,4.4,4.276,0,7.375-3.061,8.584-4.475.264.051.521.109.778.167a15.807,15.807,0,0,1,8.481,5.151l-5.215,12.687Z" transform="translate(-379.691 -161.61)" fill="#6a6ae2"/>
        <path id="Path_1031775" data-name="Path 1031775" d="M416.821,251.35H393.243c-.051.291-.1.578-.157.88-1.344,7.382-4.636,75.863-4.636,75.863h13.979l2.251-61.247,2.739,61.247h13.015s-1.762-55.216-2.4-64.944C417.741,258.794,417.371,254.924,416.821,251.35Z" transform="translate(-377.991 -182.844)" fill="#171659"/>
        <path id="Path_1031776" data-name="Path 1031776" d="M416.052,166.323l-.147,9.009a1.015,1.015,0,0,0,.851,1.011q.551.095,1.083.2c-1.209,1.415-4.308,4.475-8.584,4.475-4.45,0-4.508-3.144-4.36-4.4.48-.129.966-.24,1.46-.336a1.015,1.015,0,0,0,.809-.921l.053-.665.283-3.459c-5.356.643-5.736-4.983-5.466-13.343l.013.006a9.322,9.322,0,1,1,14,8.417Z" transform="translate(-382.818 -146.288)" fill="#ffcfc0"/>
        <path id="Path_1031777" data-name="Path 1031777" d="M429.4,167.482H422.99c-3.1-3.614-2.816-10.2-2.816-10.2-7.433-3.093-4.745-10.449-4.745-10.449l-.051-1.768c6.79-1.357,7.645,3.266,7.645,3.266,9.491,1.074,4.385,13.838,4.385,13.838a1.905,1.905,0,0,1,2.038,1.9c0,1.968-2.411,2.977-2.411,2.977A3.723,3.723,0,0,1,429.4,167.482Z" transform="translate(-387.452 -144.811)" fill="#130f40"/>
        <path id="Path_1031778" data-name="Path 1031778" d="M414.382,174.759a12.763,12.763,0,0,1-.971,1.035c-1.28,1.209-3.427,2.7-3.871-.412l.219-.026Z" transform="translate(-385.519 -155.502)" fill="#ff8e77"/>
        <path id="Path_1031779" data-name="Path 1031779" d="M414.5,174.759a12.756,12.756,0,0,1-.971,1.035c-2.778,1.029-3.479.148-3.652-.437Z" transform="translate(-385.641 -155.502)" fill="#fff"/>
        <path id="Path_1031780" data-name="Path 1031780" d="M406.251,165.57a2.749,2.749,0,1,1-2.723-2.371A2.566,2.566,0,0,1,406.251,165.57Z" transform="translate(-382.401 -151.375)" fill="none" stroke="#fff" stroke-linecap="round" stroke-linejoin="round" stroke-miterlimit="10" stroke-width="0.75"/>
        <ellipse id="Ellipse_13783" data-name="Ellipse 13783" cx="2.723" cy="2.371" rx="2.723" ry="2.371" transform="translate(25.642 11.824)" fill="none" stroke="#fff" stroke-linecap="round" stroke-linejoin="round" stroke-miterlimit="10" stroke-width="0.75"/>
        <path id="Path_1031781" data-name="Path 1031781" d="M408.234,163.824s1.125,3.476-3.2,4.521l2.894,2.009" transform="translate(-383.913 -151.599)" fill="none" stroke="#ff8e77" stroke-linecap="round" stroke-linejoin="round" stroke-miterlimit="10" stroke-width="0.75"/>
        <path id="Path_1031782" data-name="Path 1031782" d="M409.274,166.669s.6-.884,1.793,0" transform="translate(-385.424 -152.474)" fill="none" stroke="#fff" stroke-linecap="round" stroke-linejoin="round" stroke-miterlimit="10" stroke-width="0.75"/>
        <path id="Path_1031783" data-name="Path 1031783" d="M406.273,166.417c0,.431-.158.781-.352.781s-.352-.349-.352-.781.158-.781.352-.781S406.273,165.986,406.273,166.417Z" transform="translate(-384.102 -152.245)" fill="#130f40"/>
        <ellipse id="Ellipse_13784" data-name="Ellipse 13784" cx="0.352" cy="0.781" rx="0.352" ry="0.781" transform="translate(28.146 13.391)" fill="#130f40"/>
        <path id="Path_1031784" data-name="Path 1031784" d="M402.495,159.591a3.374,3.374,0,0,1,3.3-.44" transform="translate(-383.004 -149.84)" fill="none" stroke="#130f40" stroke-linecap="round" stroke-linejoin="round" stroke-miterlimit="10" stroke-width="0.75"/>
        <path id="Path_1031785" data-name="Path 1031785" d="M411.758,158.926a4.715,4.715,0,0,1,4.2,0" transform="translate(-386.311 -149.675)" fill="none" stroke="#130f40" stroke-linecap="round" stroke-linejoin="round" stroke-miterlimit="10" stroke-width="0.75"/>
        <line id="Line_3299" data-name="Line 3299" x2="4.958" y2="1.004" transform="translate(31.087 14.195)" fill="none" stroke="#fff" stroke-linecap="round" stroke-linejoin="round" stroke-miterlimit="10" stroke-width="0.75"/>
        <path id="Path_1031786" data-name="Path 1031786" d="M417.64,179.389a15.369,15.369,0,0,1-7.51,6.179l.283-3.459C415.293,181.845,417.505,179.53,417.64,179.389Z" transform="translate(-385.73 -157.155)" fill="#ff8e77"/>
        <path id="Path_1031787" data-name="Path 1031787" d="M423.237,171.152s1.876-4.233,4.608-2.786-.053,10.02-4.608,7.02Z" transform="translate(-390.409 -153.112)" fill="#ffcfc0"/>
        <path id="Path_1031788" data-name="Path 1031788" d="M425.07,173.9s.6-2.452,2.09-2.854,1.206,1.427,1.206,1.427" transform="translate(-391.063 -154.155)" fill="none" stroke="#ff8e77" stroke-linecap="round" stroke-linejoin="round" stroke-miterlimit="10" stroke-width="0.75"/>
        <path id="Path_1031789" data-name="Path 1031789" d="M427.119,171.795s1.547,1.264-.361,3.555" transform="translate(-391.666 -154.444)" fill="none" stroke="#ff8e77" stroke-linecap="round" stroke-linejoin="round" stroke-miterlimit="10" stroke-width="0.75"/>
        <path id="Path_1031790" data-name="Path 1031790" d="M393.249,216.978c-.373-4.707,2.2-9.909,2.2-9.909" transform="translate(-379.691 -167.036)" fill="none" stroke="#130f40" stroke-linecap="round" stroke-linejoin="round" stroke-miterlimit="10" stroke-width="0.75"/>
        <line id="Line_3300" data-name="Line 3300" x2="0.996" y2="3.884" transform="translate(38.071 44.379)" fill="none" stroke="#130f40" stroke-linecap="round" stroke-linejoin="round" stroke-miterlimit="10" stroke-width="0.75"/>
        <path id="Path_1031791" data-name="Path 1031791" d="M455.454,198.8a23.841,23.841,0,0,1-.842,6.109c-.334,2.874-.752,5.716-1.215,8.456a.333.333,0,0,1-.013.071c-.566,3.35-1.209,6.559-1.858,9.51a4.776,4.776,0,0,1-.437,1.215,4.722,4.722,0,0,1-8.108.341l3.961-14.172,1.807-6.456-1.235-5.839a4.888,4.888,0,0,1,.392-3.151c1.235-2.533,3.729-7.247,4.938-6.655,1.646.8-1.646,2.945-2.212,6.8,0,0,4.3-7.536,5.787-6.321s-1.678,2.476-3.447,6.655c.206-.27,3.755-5.016,4.733-4.038,1.01,1.01-2.244,2.855-3.408,5.543.154-.186,2.842-3.427,3.852-2.8C459.19,194.706,455.577,197.278,455.454,198.8Z" transform="translate(-397.457 -160.293)" fill="#ffcfc0"/>
        <line id="Line_3301" data-name="Line 3301" x1="1.539" y2="5.511" transform="translate(47.27 52.449)" fill="none" stroke="#ff8e77" stroke-linecap="round" stroke-linejoin="round" stroke-miterlimit="10" stroke-width="0.75"/>
        <path id="Path_1031792" data-name="Path 1031792" d="M452.2,199.794s4.008-4.07,5.138-2.7-1.843,2.3-2,3.18a7.413,7.413,0,0,1,.241,3.131" transform="translate(-400.747 -163.375)" fill="#ffcfc0" stroke="#ff8e77" stroke-linecap="round" stroke-linejoin="round" stroke-miterlimit="10" stroke-width="0.75"/>
      </g>
      <g id="Group_1184466" data-name="Group 1184466" transform="translate(278.088 108.386)">
        <path id="Path_1031793" data-name="Path 1031793" d="M423.386,132.124s.126-9.318,9.329-9.307c0,0-9.318-.126-9.307-9.329,0,0-.126,9.318-9.33,9.307C414.079,122.795,423.4,122.922,423.386,132.124Z" transform="translate(-414.079 -113.488)" fill="#f4cc4d"/>
        <path id="Path_1031794" data-name="Path 1031794" d="M441.958,147.825s.063-4.661,4.667-4.656c0,0-4.661-.063-4.656-4.667,0,0-.063,4.661-4.667,4.656C437.3,143.158,441.964,143.221,441.958,147.825Z" transform="translate(-422.369 -122.418)" fill="#f4cc4d"/>
      </g>
      <line id="Line_3302" data-name="Line 3302" x2="276.837" transform="translate(33.137 283.944)" fill="none" stroke="#130f40" stroke-linecap="round" stroke-linejoin="round" stroke-miterlimit="10" stroke-width="0.75"/>
      <g id="Group_1184467" data-name="Group 1184467" transform="translate(57.977 99.195)">
        <path id="Path_1031795" data-name="Path 1031795" d="M287.266,329.581H225.022a9.163,9.163,0,0,1,9.163-9.163h.109c-.045-.45-.064-.907-.064-1.37a14.066,14.066,0,0,1,27.283-4.81,11.254,11.254,0,0,1,2.964-.392,11.444,11.444,0,0,1,11.362,10.1,7.03,7.03,0,0,1,4.321-1.473A7.108,7.108,0,0,1,287.266,329.581Z" transform="translate(-126.477 -172.659)" fill="#6a6ae2"/>
        <path id="Path_1031796" data-name="Path 1031796" d="M145.436,128.306H71.767A10.845,10.845,0,0,1,82.612,117.46h.129c-.053-.532-.076-1.073-.076-1.621a16.648,16.648,0,0,1,32.292-5.693,13.307,13.307,0,0,1,3.508-.464,13.545,13.545,0,0,1,13.448,11.956,8.322,8.322,0,0,1,5.115-1.743A8.412,8.412,0,0,1,145.436,128.306Z" transform="translate(-71.767 -99.195)" fill="#6a6ae2"/>
      </g>
    </g>
  </g>
</svg>
