<svg xmlns="http://www.w3.org/2000/svg" width="83.947" height="83.994" viewBox="0 0 83.947 83.994">
  <g id="img14" transform="translate(-706.028 -1710)">
    <g id="Group_1180300" data-name="Group 1180300" transform="translate(706 1710)">
      <g id="Grupo_155253" data-name="Grupo 155253" transform="matrix(0.999, 0.035, -0.035, 0.999, 2.834, 0)">
        <path id="Trazado_196478" data-name="Trazado 196478" d="M11.413,12.382q-.253.262-.5.529A40.338,40.338,0,0,0,.029,42.021l16.9-.589a23.694,23.694,0,0,1,47.359-1.656l16.9-.589a40.606,40.606,0,0,0-69.778-26.8" transform="translate(0 0)" fill="#f9ce5d"/>
        <path id="Trazado_196479" data-name="Trazado 196479" d="M0,2.836A40.606,40.606,0,0,0,81.162,0L64.26.589A23.694,23.694,0,0,1,16.9,2.245Z" transform="translate(0.028 39.185)" fill="#70f5c8"/>
      </g>
      <ellipse id="Ellipse_13685" data-name="Ellipse 13685" cx="33.016" cy="33.016" rx="33.016" ry="33.016" transform="translate(8.983 9.09)" fill="#fff"/>
    </g>
    <g id="Group_1184522" data-name="Group 1184522" transform="translate(696.058 1729.489)">
      <g id="Group_1184520" data-name="Group 1184520" transform="translate(32.931 2.753)">
        <path id="Path_1032375" data-name="Path 1032375" d="M68.675,33.274V70.95a1.965,1.965,0,0,1-1.965,1.965H41.737a1.964,1.964,0,0,1-1.964-1.965V33.274a1.964,1.964,0,0,1,1.964-1.964H66.71A1.965,1.965,0,0,1,68.675,33.274Z" transform="translate(-39.773 -31.31)" fill="#eaf6ff"/>
        <path id="Path_1032376" data-name="Path 1032376" d="M329.145,33.274V70.95a1.965,1.965,0,0,1-1.965,1.965h-1.827a1.965,1.965,0,0,0,1.965-1.965V33.274a1.965,1.965,0,0,0-1.965-1.964h1.827A1.965,1.965,0,0,1,329.145,33.274Z" transform="translate(-300.243 -31.31)" fill="#c8effe"/>
        <path id="Path_1032377" data-name="Path 1032377" d="M277.034,202.13v14.124h-6.869a1.944,1.944,0,0,1-1.684-2.916l6.02-10.428a1.946,1.946,0,0,1,2.532-.78Z" transform="translate(-248.132 -186.935)" fill="#c8effe"/>
        <path id="Path_1032378" data-name="Path 1032378" d="M95.126,92.87h19.168v4.294H95.126Z" transform="translate(-90.259 -87.457)" fill="#ffd15b"/>
        <path id="Path_1032379" data-name="Path 1032379" d="M290.983,92.87h1.947v4.294h-1.947Z" transform="translate(-268.895 -87.457)" fill="#ffc344"/>
        <g id="Group_1184519" data-name="Group 1184519" transform="translate(4.867 14.216)">
          <path id="Path_1032380" data-name="Path 1032380" d="M95.126,192.989h2.86v2.86h-2.86Z" transform="translate(-95.126 -192.989)" fill="#fd3581"/>
          <path id="Path_1032381" data-name="Path 1032381" d="M95.126,270.742h2.86v2.86h-2.86Z" transform="translate(-95.126 -263.906)" fill="#fd3581"/>
          <path id="Path_1032382" data-name="Path 1032382" d="M95.126,348.494h2.86v2.86h-2.86Z" transform="translate(-95.126 -334.821)" fill="#fd3581"/>
          <path id="Path_1032383" data-name="Path 1032383" d="M95.126,426.247h2.86v2.86h-2.86Z" transform="translate(-95.126 -405.738)" fill="#fd3581"/>
        </g>
        <path id="Path_1032384" data-name="Path 1032384" d="M297.268,202.91l-6.02,10.428a1.944,1.944,0,0,0,1.684,2.916h12.041a1.944,1.944,0,0,0,1.684-2.916l-6.02-10.428A1.944,1.944,0,0,0,297.268,202.91Z" transform="translate(-268.896 -186.936)" fill="#ffd15b"/>
        <path id="Path_1032385" data-name="Path 1032385" d="M377.226,216.254H375.22a1.944,1.944,0,0,0,1.684-2.916l-6.02-10.428a1.924,1.924,0,0,0-.681-.7,1.945,1.945,0,0,1,2.685.7l6.021,10.428A1.944,1.944,0,0,1,377.226,216.254Z" transform="translate(-341.15 -186.936)" fill="#ffc344"/>
      </g>
      <g id="Group_1184521" data-name="Group 1184521" transform="translate(32.271 0)">
        <path id="Path_1032386" data-name="Path 1032386" d="M88.286,90.983h19.168a.659.659,0,0,0,.659-.659V86.029a.659.659,0,0,0-.659-.659H88.286a.659.659,0,0,0-.659.659v4.294A.659.659,0,0,0,88.286,90.983Zm.659-4.294h17.849v2.975H88.946Z" transform="translate(-82.76 -77.864)"/>
        <path id="Path_1032387" data-name="Path 1032387" d="M91.146,185.489h-2.86a.659.659,0,0,0-.659.659v2.86a.659.659,0,0,0,.659.659h2.86a.659.659,0,0,0,.659-.659v-2.86A.659.659,0,0,0,91.146,185.489Zm-.659,2.86H88.946v-1.541h1.541Z" transform="translate(-82.76 -169.18)"/>
        <path id="Path_1032388" data-name="Path 1032388" d="M158.345,186.808h5.494a.659.659,0,0,0,0-1.319h-5.494a.659.659,0,0,0,0,1.319Z" transform="translate(-146.659 -169.18)"/>
        <path id="Path_1032389" data-name="Path 1032389" d="M91.146,263.241h-2.86a.659.659,0,0,0-.659.659v2.86a.659.659,0,0,0,.659.659h2.86a.659.659,0,0,0,.659-.659V263.9A.659.659,0,0,0,91.146,263.241Zm-.659,2.86H88.946V264.56h1.541Z" transform="translate(-82.76 -240.096)"/>
        <path id="Path_1032390" data-name="Path 1032390" d="M158.345,264.56h5.494a.659.659,0,1,0,0-1.319h-5.494a.659.659,0,0,0,0,1.319Z" transform="translate(-146.659 -240.096)"/>
        <path id="Path_1032391" data-name="Path 1032391" d="M91.146,340.994h-2.86a.659.659,0,0,0-.659.659v2.86a.659.659,0,0,0,.659.659h2.86a.659.659,0,0,0,.659-.659v-2.86A.659.659,0,0,0,91.146,340.994Zm-.659,2.86H88.946v-1.541h1.541Z" transform="translate(-82.76 -311.012)"/>
        <path id="Path_1032392" data-name="Path 1032392" d="M158.345,342.313h5.494a.659.659,0,1,0,0-1.319h-5.494a.659.659,0,0,0,0,1.319Z" transform="translate(-146.659 -311.012)"/>
        <path id="Path_1032393" data-name="Path 1032393" d="M91.146,418.747h-2.86a.659.659,0,0,0-.659.659v2.86a.659.659,0,0,0,.659.659h2.86a.659.659,0,0,0,.659-.659v-2.86A.659.659,0,0,0,91.146,418.747Zm-.659,2.86H88.946v-1.541h1.541Z" transform="translate(-82.76 -381.929)"/>
        <path id="Path_1032394" data-name="Path 1032394" d="M158.345,418.747a.659.659,0,0,0,0,1.319h5.494a.659.659,0,1,0,0-1.319Z" transform="translate(-146.659 -381.929)"/>
        <path id="Path_1032395" data-name="Path 1032395" d="M71.261,28.825,65.24,18.4a2.62,2.62,0,0,0-2.749-1.255V4.718a2.627,2.627,0,0,0-2.624-2.624H57.625V.659a.659.659,0,1,0-1.319,0V2.093H38.457V.659a.659.659,0,1,0-1.319,0V2.093H34.9a2.627,2.627,0,0,0-2.624,2.624V42.393A2.627,2.627,0,0,0,34.9,45.018H59.868a2.627,2.627,0,0,0,2.624-2.624V32.731h6.514a2.6,2.6,0,0,0,2.255-3.905ZM61.173,42.393A1.307,1.307,0,0,1,59.868,43.7H34.9a1.307,1.307,0,0,1-1.305-1.305V4.718A1.307,1.307,0,0,1,34.9,3.412h2.243V4.846a.659.659,0,1,0,1.319,0V3.412H56.306V4.846a.659.659,0,1,0,1.319,0V3.412h2.243a1.307,1.307,0,0,1,1.305,1.305V17.829a2.646,2.646,0,0,0-.442.569L54.71,28.826a2.6,2.6,0,0,0,2.255,3.905h4.208v9.663Zm8.946-11.624a1.272,1.272,0,0,1-1.113.642H56.965a1.285,1.285,0,0,1-1.113-1.927l6.02-10.428a1.285,1.285,0,0,1,2.225,0l6.02,10.428A1.272,1.272,0,0,1,70.119,30.769Z" transform="translate(-32.271 0)"/>
        <path id="Path_1032396" data-name="Path 1032396" d="M374.758,249.4a.659.659,0,0,0,.659-.659v-4.6a.659.659,0,0,0-1.319,0v4.6A.659.659,0,0,0,374.758,249.4Z" transform="translate(-344.044 -222.077)"/>
        <path id="Path_1032397" data-name="Path 1032397" d="M169.856,218.013h-11.51a.659.659,0,0,0,0,1.319h11.51a.659.659,0,0,0,0-1.319Z" transform="translate(-146.659 -198.844)"/>
        <path id="Path_1032398" data-name="Path 1032398" d="M158.345,297.084h7.984a.659.659,0,1,0,0-1.319h-7.984a.659.659,0,0,0,0,1.319Z" transform="translate(-146.659 -269.76)"/>
        <path id="Path_1032399" data-name="Path 1032399" d="M168.064,374.177a.659.659,0,0,0-.659-.659h-9.059a.659.659,0,0,0,0,1.319H167.4A.659.659,0,0,0,168.064,374.177Z" transform="translate(-146.659 -340.676)"/>
        <path id="Path_1032400" data-name="Path 1032400" d="M169.856,451.271h-11.51a.659.659,0,0,0,0,1.319h11.51a.659.659,0,0,0,0-1.319Z" transform="translate(-146.659 -411.593)"/>
        <circle id="Ellipse_13791" data-name="Ellipse 13791" cx="0.659" cy="0.659" r="0.659" transform="translate(30.055 28.504)"/>
      </g>
    </g>
  </g>
</svg>
