<svg xmlns="http://www.w3.org/2000/svg" width="149.908" height="150" viewBox="0 0 149.908 150">
  <g id="img21" transform="translate(-705.985 -1710.001)">
    <g id="Group_1180300" data-name="Group 1180300" transform="translate(705.936 1710.002)">
      <g id="Grupo_155253" data-name="Grupo 155253" transform="matrix(0.999, 0.035, -0.035, 0.999, 5.061, 0)">
        <path id="Trazado_196478" data-name="Trazado 196478" d="M20.378,22.814q-.452.483-.9.974A75.7,75.7,0,0,0,.051,77.428l30.182-1.084c-.818-24.1,17.45-44.315,40.8-45.157S113.984,49.2,114.8,73.3l30.181-1.084c-1.018-30-19.313-56.469-46.471-67.233A70.928,70.928,0,0,0,20.378,22.822" transform="translate(0 0)" fill="#f9ce5d"/>
        <path id="Trazado_196479" data-name="Trazado 196479" d="M0,5.22c1.4,41.3,34.98,73.608,75,72.166S146.333,41.3,144.933,0L114.75,1.084c.818,24.1-17.451,44.314-40.8,45.156S31,28.229,30.182,4.132Z" transform="translate(0.049 67.594)" fill="#70f5c8"/>
      </g>
      <ellipse id="Ellipse_13685" data-name="Ellipse 13685" cx="58.366" cy="58.462" rx="58.366" ry="58.462" transform="translate(16.722 16.827)" fill="#fff"/>
    </g>
    <g id="Group_1184723" data-name="Group 1184723" transform="translate(732.654 1751.148)">
      <g id="Group_1184721" data-name="Group 1184721" transform="translate(17.614 0.991)">
        <g id="Group_1184717" data-name="Group 1184717" transform="translate(0 10.093)">
          <path id="Path_1032944" data-name="Path 1032944" d="M61.376,124.135,60.142,119.2a35.054,35.054,0,0,0-7.075-13.936l-1.441-1.73L51.3,99.152a31.594,31.594,0,0,0,4.517-8.872l.143-.44a1.026,1.026,0,0,0-.494-1.229,9.371,9.371,0,0,0-5.367-.982h0q.14-.533.256-1.071l.162-.757a1.023,1.023,0,0,0-.875-1.129,27.284,27.284,0,0,0-13.55,0,1.022,1.022,0,0,0-.875,1.129l.162.757q.115.538.256,1.071h0a9.371,9.371,0,0,0-5.367.982,1.026,1.026,0,0,0-.494,1.229l.143.44a31.594,31.594,0,0,0,4.517,8.872l-.328,4.381-1.441,1.73A35.052,35.052,0,0,0,25.583,119.2l-1.234,4.936a8.761,8.761,0,0,0,2.308,8.323l.079.079a7.227,7.227,0,0,0,4.556,2.094l.281.022a146.659,146.659,0,0,0,22.739-.022l.212-.017a7.028,7.028,0,0,0,4.41-2.03l.133-.133A8.747,8.747,0,0,0,61.376,124.135Z" transform="translate(-24.088 -83.817)" fill="#ea9b58"/>
          <path id="Path_1032945" data-name="Path 1032945" d="M94.021,288.509l2.192-.4,5.219-3.494,2.533-8.822-3.625-6.093-5.469-2.842H92.665a10.952,10.952,0,0,0,0,21.693Z" transform="translate(-75.411 -242.657)" fill="#ffe177"/>
          <path id="Path_1032946" data-name="Path 1032946" d="M219.97,148.752l-1.234-4.936a35.054,35.054,0,0,0-7.075-13.936l-1.441-1.73-.328-4.381a31.594,31.594,0,0,0,4.517-8.872l.143-.44a1.026,1.026,0,0,0-.494-1.229,9.371,9.371,0,0,0-5.165-1,9.425,9.425,0,0,1,2.209.807,1.026,1.026,0,0,1,.494,1.228l-.143.44a32.949,32.949,0,0,1-4.6,9.068l.328,4.381,1.441,1.73a35.054,35.054,0,0,1,7.075,13.936l1.277,5.14a8.747,8.747,0,0,1-2.31,8.316l-.133.133a7.028,7.028,0,0,1-4.41,2.03l-.21.017q1.5-.087,3-.2l.212-.017a7.028,7.028,0,0,0,4.41-2.03l.133-.133A8.747,8.747,0,0,0,219.97,148.752Z" transform="translate(-182.682 -108.435)" fill="#d88a55"/>
          <path id="Path_1032947" data-name="Path 1032947" d="M156.087,266.05a11.031,11.031,0,0,0-1.521.108,10.952,10.952,0,0,1,0,21.693,10.953,10.953,0,1,0,1.521-21.8Z" transform="translate(-137.312 -241.952)" fill="#ffd15b"/>
          <g id="Group_1184712" data-name="Group 1184712" transform="translate(7.821 15.335)">
            <g id="Group_1184711" data-name="Group 1184711">
              <path id="Path_1032948" data-name="Path 1032948" d="M102.552,204.164H85.423a2.191,2.191,0,1,1,0-4.382h17.129a2.191,2.191,0,1,1,0,4.382Z" transform="translate(-83.232 -199.782)" fill="#ffe177"/>
            </g>
          </g>
          <path id="Path_1032949" data-name="Path 1032949" d="M212.374,199.783h-3.042a2.191,2.191,0,0,1,0,4.382h3.042a2.191,2.191,0,1,0,0-4.382Z" transform="translate(-184.835 -184.448)" fill="#ffd15b"/>
          <g id="Group_1184716" data-name="Group 1184716" transform="translate(9.496 3.75)">
            <g id="Group_1184715" data-name="Group 1184715">
              <g id="Group_1184713" data-name="Group 1184713" transform="translate(0 0)">
                <path id="Path_1032950" data-name="Path 1032950" d="M100.008,120.064a.991.991,0,0,0,.583-1.449,25.713,25.713,0,0,1-2.65-6.378v0h0a9.336,9.336,0,0,0-2.047-.01,27.544,27.544,0,0,0,2.981,7.381A.993.993,0,0,0,100.008,120.064Z" transform="translate(-95.894 -112.178)" fill="#d88a55"/>
              </g>
              <g id="Group_1184714" data-name="Group 1184714" transform="translate(13.728)">
                <path id="Path_1032951" data-name="Path 1032951" d="M201.553,119.608a27.544,27.544,0,0,0,2.981-7.381,9.328,9.328,0,0,0-2.047.01h0l0-.016a25.706,25.706,0,0,1-2.653,6.391.992.992,0,0,0,1.716,1Z" transform="translate(-199.703 -112.176)" fill="#d88a55"/>
              </g>
            </g>
          </g>
        </g>
        <g id="Group_1184718" data-name="Group 1184718" transform="translate(36.145)">
          <path id="Path_1032952" data-name="Path 1032952" d="M306.726,22.281V16.439a.548.548,0,0,1,.548-.548h1.643a.548.548,0,0,0,.438-.876l-5.477-7.3a.548.548,0,0,0-.876,0l-5.477,7.3a.548.548,0,0,0,.438.876h1.643a.548.548,0,0,1,.548.548v5.842a.548.548,0,0,0,.548.548h5.477a.548.548,0,0,0,.548-.548Z" transform="translate(-297.414 -7.493)" fill="#6fd7a3"/>
          <path id="Path_1032953" data-name="Path 1032953" d="M338.917,15.015l-5.477-7.3a.548.548,0,0,0-.876,0l-1.083,1.444,4.394,5.859a.548.548,0,0,1-.438.876h-1.643a.548.548,0,0,0-.548.548v5.842a.548.548,0,0,1-.548.548h3.042a.548.548,0,0,0,.548-.548V16.439a.548.548,0,0,1,.548-.548h1.643A.548.548,0,0,0,338.917,15.015Z" transform="translate(-326.976 -7.493)" fill="#3ec3a4"/>
        </g>
        <g id="Group_1184719" data-name="Group 1184719" transform="translate(47.052 13.143)">
          <path id="Path_1032954" data-name="Path 1032954" d="M389.209,107.43v5.842a.548.548,0,0,0,.548.548H391.4a.548.548,0,0,1,.438.876l-5.477,7.3a.548.548,0,0,1-.876,0l-5.477-7.3a.548.548,0,0,1,.438-.876h1.643a.548.548,0,0,0,.548-.548V107.43a.548.548,0,0,1,.548-.548h5.477a.548.548,0,0,1,.548.548Z" transform="translate(-379.897 -106.882)" fill="#fd8087"/>
          <path id="Path_1032955" data-name="Path 1032955" d="M421.4,114.694l-5.477,7.3a.548.548,0,0,1-.876,0l-1.083-1.444,4.394-5.859a.548.548,0,0,0-.438-.876h-1.643a.548.548,0,0,1-.548-.548v-5.842a.548.548,0,0,0-.548-.548h3.042a.548.548,0,0,1,.548.548v5.842a.548.548,0,0,0,.548.548h1.643A.548.548,0,0,1,421.4,114.694Z" transform="translate(-409.459 -106.88)" fill="#fe646f"/>
        </g>
        <g id="Group_1184720" data-name="Group 1184720" transform="translate(30.672 35.089)">
          <path id="Path_1032956" data-name="Path 1032956" d="M282.235,303.473H260.49a4.451,4.451,0,0,1-3.982-6.441L267.38,275.3a4.453,4.453,0,0,1,7.965,0l10.872,21.736a4.451,4.451,0,0,1-3.982,6.441Z" transform="translate(-256.032 -272.836)" fill="#ffe177"/>
          <path id="Path_1032957" data-name="Path 1032957" d="M376.837,297.041l-10.872-21.736a4.446,4.446,0,0,0-5.5-2.2,4.375,4.375,0,0,1,2.461,2.2L373.8,297.041a4.451,4.451,0,0,1-3.982,6.441h3.042A4.451,4.451,0,0,0,376.837,297.041Z" transform="translate(-346.652 -272.846)" fill="#ffd15b"/>
        </g>
      </g>
      <g id="Group_1184722" data-name="Group 1184722" transform="translate(16.627 0)">
        <path id="Path_1032958" data-name="Path 1032958" d="M365.146,445.163a1.038,1.038,0,1,0-1.039-1.038A1.038,1.038,0,0,0,365.146,445.163Z" transform="translate(-318.156 -384.493)"/>
        <path id="Path_1032959" data-name="Path 1032959" d="M365.569,326.335a.992.992,0,0,0,.992-.992V312.052a.992.992,0,1,0-1.984,0v13.292A.992.992,0,0,0,365.569,326.335Z" transform="translate(-318.564 -269.926)"/>
        <path id="Path_1032960" data-name="Path 1032960" d="M79.357,125.983,68.486,104.25a5.444,5.444,0,0,0-9.738,0l-4.1,8.192-.021-.085a36.255,36.255,0,0,0-7.275-14.328l-.5-.6a3.18,3.18,0,0,0-.35-5.565,32.577,32.577,0,0,0,3.778-7.877l.142-.44a2.006,2.006,0,0,0-.984-2.416,10.349,10.349,0,0,0-4.555-1.151l.122-.569a2,2,0,0,0-1.6-2.3,28.462,28.462,0,0,0-14.046,0,2,2,0,0,0-1.6,2.3l.122.569a10.352,10.352,0,0,0-4.555,1.151,2.006,2.006,0,0,0-.984,2.416l.143.44a32.573,32.573,0,0,0,3.778,7.877,3.18,3.18,0,0,0-.35,5.565l-.5.6c-.635.762-1.246,1.561-1.817,2.374a.992.992,0,1,0,1.624,1.139c.539-.769,1.117-1.524,1.717-2.244l1.144-1.373H44.686L45.83,99.3a34.258,34.258,0,0,1,6.874,13.54l.582,2.33-5.41,10.816a5.5,5.5,0,0,0-.4,1.075,146.091,146.091,0,0,1-22.3,0l-.282-.022a6.241,6.241,0,0,1-3.931-1.808l-.077-.077a7.807,7.807,0,0,1-2.046-7.38l1.234-4.935a34.092,34.092,0,0,1,2.789-7.384.992.992,0,0,0-1.762-.911,36.09,36.09,0,0,0-2.951,7.814l-1.234,4.935a9.8,9.8,0,0,0,2.568,9.264l.079.079a8.225,8.225,0,0,0,5.18,2.381l.282.022c3.752.288,7.529.432,11.305.432,3.677,0,7.355-.138,11.007-.411a5.452,5.452,0,0,0,5.409,4.8h2.419a.992.992,0,1,0,0-1.984H52.745a3.458,3.458,0,0,1-3.095-5l10.871-21.733a3.461,3.461,0,0,1,6.189,0l10.871,21.733a3.458,3.458,0,0,1-3.095,5h-14.7a.992.992,0,1,0,0,1.984h14.7a5.442,5.442,0,0,0,4.869-7.876ZM24.383,83.375l-.143-.44a.048.048,0,0,1,0-.041,8.366,8.366,0,0,1,4.144-.928,27.116,27.116,0,0,0,3.25,7.064.992.992,0,1,0,1.668-1.073,24.748,24.748,0,0,1-3.435-8.206l-.142-.662a.451.451,0,0,1,.134-.056,26.441,26.441,0,0,1,13.051,0,.45.45,0,0,1,.133.056l-.142.662a24.741,24.741,0,0,1-3.435,8.206.992.992,0,1,0,1.668,1.073,27.108,27.108,0,0,0,3.25-7.064,8.37,8.37,0,0,1,4.143.927.045.045,0,0,1,.006.042l-.142.44a30.56,30.56,0,0,1-4.083,8.185H28.466a30.551,30.551,0,0,1-4.083-8.185Zm3.244,12.566a1.2,1.2,0,1,1,0-2.4H45.151a1.2,1.2,0,0,1,0,2.4H27.627Z" transform="translate(-16.627 -66.152)"/>
        <path id="Path_1032961" data-name="Path 1032961" d="M87.684,282.289A11.944,11.944,0,1,0,75.74,270.344,11.958,11.958,0,0,0,87.684,282.289Zm0-21.905a9.961,9.961,0,1,1-9.961,9.961A9.972,9.972,0,0,1,87.684,260.383Z" transform="translate(-67.923 -224.229)"/>
        <path id="Path_1032962" data-name="Path 1032962" d="M138.115,304.285a4.6,4.6,0,0,0,2.229.838v.537a.992.992,0,1,0,1.984,0v-.632a3.873,3.873,0,0,0,2.78-3.074,3.411,3.411,0,0,0-2.319-3.86c-.152-.054-.307-.109-.461-.167v-2.869a2.106,2.106,0,0,1,.226.11.971.971,0,0,0,.569.117l.058-.005a.974.974,0,0,0,.4-1.812,4.143,4.143,0,0,0-1.255-.476v-.477a.992.992,0,1,0-1.984,0v.546c-.046.012-.091.023-.137.037a3.216,3.216,0,0,0-2.206,2.52,2.862,2.862,0,0,0,.948,2.819,6.922,6.922,0,0,0,1.4.82v3.87a2.879,2.879,0,0,1-1.168-.518.992.992,0,0,0-1.44.407A1.006,1.006,0,0,0,138.115,304.285Zm4.212-4.239a1.4,1.4,0,0,1,.824,1.58,1.894,1.894,0,0,1-.824,1.262Zm-2.155-3.169a.921.921,0,0,1-.223-.891,1.376,1.376,0,0,1,.394-.734V297C140.284,296.96,140.226,296.918,140.173,296.877Z" transform="translate(-121.64 -252.973)"/>
        <path id="Path_1032963" data-name="Path 1032963" d="M375.142,106.325h-1.2a1.539,1.539,0,0,0-1.232,2.463l5.476,7.3a1.539,1.539,0,0,0,2.463,0l5.476-7.3a1.539,1.539,0,0,0-1.231-2.463h-1.2v-5.4a1.541,1.541,0,0,0-1.539-1.54h-5.476a1.541,1.541,0,0,0-1.539,1.54Zm1.984.444v-5.4h4.588v5.4a1.541,1.541,0,0,0,1.54,1.539h.755l-4.588,6.117-4.588-6.117h.755A1.541,1.541,0,0,0,377.125,106.769Z" transform="translate(-325.355 -86.245)"/>
        <path id="Path_1032964" data-name="Path 1032964" d="M291.457,10.381h1.2v5.4a1.541,1.541,0,0,0,1.54,1.539h5.476a1.541,1.541,0,0,0,1.54-1.539v-5.4h1.2a1.539,1.539,0,0,0,1.231-2.463l-5.476-7.3A1.527,1.527,0,0,0,296.934,0h0A1.527,1.527,0,0,0,295.7.616l-5.476,7.3a1.539,1.539,0,0,0,1.232,2.463Zm5.476-8.1L301.521,8.4h-.755a1.541,1.541,0,0,0-1.539,1.539v5.4h-4.588v-5.4A1.541,1.541,0,0,0,293.1,8.4h-.755Z" transform="translate(-253.777 0)"/>
      </g>
    </g>
  </g>
</svg>
