<svg xmlns="http://www.w3.org/2000/svg" xmlns:xlink="http://www.w3.org/1999/xlink" width="83.947" height="83.994" viewBox="0 0 83.947 83.994">
  <defs>
    <clipPath id="clip-path">
      <rect id="Rectangle_458762" data-name="Rectangle 458762" width="46.121" height="42.981" fill="none"/>
    </clipPath>
  </defs>
  <g id="img2" transform="translate(-706.028 -1710)">
    <g id="Group_1180300" data-name="Group 1180300" transform="translate(706 1710)">
      <g id="Grupo_155253" data-name="Grupo 155253" transform="matrix(0.999, 0.035, -0.035, 0.999, 2.834, 0)">
        <path id="Trazado_196478" data-name="Trazado 196478" d="M11.413,12.382q-.253.262-.5.529A40.338,40.338,0,0,0,.029,42.021l16.9-.589a23.694,23.694,0,0,1,47.359-1.656l16.9-.589a40.606,40.606,0,0,0-69.778-26.8" transform="translate(0 0)" fill="#f9ce5d"/>
        <path id="Trazado_196479" data-name="Trazado 196479" d="M0,2.836A40.606,40.606,0,0,0,81.162,0L64.26.589A23.694,23.694,0,0,1,16.9,2.245Z" transform="translate(0.028 39.185)" fill="#70f5c8"/>
      </g>
      <ellipse id="Ellipse_13685" data-name="Ellipse 13685" cx="33.016" cy="33.016" rx="33.016" ry="33.016" transform="translate(8.983 9.09)" fill="#fff"/>
    </g>
    <g id="Group_1183637" data-name="Group 1183637" transform="translate(724.94 1730.507)">
      <g id="Group_1183636" data-name="Group 1183636" clip-path="url(#clip-path)">
        <path id="Path_1029636" data-name="Path 1029636" d="M75.439,21.021a10.511,10.511,0,1,0-10.51-10.51,10.51,10.51,0,0,0,10.51,10.51M74.352,5.074v-1.2a.435.435,0,0,1,.435-.435h1.306a.435.435,0,0,1,.435.435V5.025a2.9,2.9,0,0,1,2.541,2.581.424.424,0,0,1-.109.324.448.448,0,0,1-.329.145H77.31a.426.426,0,0,1-.42-.333.73.73,0,0,0-.712-.572H75.022a1.181,1.181,0,0,0-1.2,1.006,1.129,1.129,0,0,0,1.121,1.244H75.8A3.408,3.408,0,0,1,79.221,12.4a3.288,3.288,0,0,1-2.693,3.573V17.14a.437.437,0,0,1-.435.438H74.787a.437.437,0,0,1-.435-.438V15.995a2.885,2.885,0,0,1-2.539-2.58.415.415,0,0,1,.106-.321.445.445,0,0,1,.33-.147H73.57a.422.422,0,0,1,.42.329.732.732,0,0,0,.711.576h1.155a1.179,1.179,0,0,0,1.2-1.009,1.117,1.117,0,0,0-.283-.873,1.131,1.131,0,0,0-.837-.372h-.989A3.307,3.307,0,0,1,72.5,10.513a3.273,3.273,0,0,1-.842-2.548,3.348,3.348,0,0,1,2.693-2.892" transform="translate(-39.829 0)" fill="#14a0de"/>
        <path id="Path_1029637" data-name="Path 1029637" d="M65.636,72.876h5.923a2.288,2.288,0,0,0,2.285-2.285V67.051H71.856a1.2,1.2,0,0,1-.966-1.92L74.2,60.68a1.246,1.246,0,0,1,1.931,0l3.312,4.451a1.2,1.2,0,0,1-.966,1.92H76.489v3.539a4.935,4.935,0,0,1-4.93,4.93H65.636a1.322,1.322,0,1,1,0-2.645" transform="translate(-39.452 -36.942)" fill="#203a72"/>
        <path id="Path_1029638" data-name="Path 1029638" d="M21.205,90.524H1.749A1.749,1.749,0,0,1,.013,88.568L.55,84.076A8.142,8.142,0,0,1,5.575,77.5a9.362,9.362,0,0,0,11.8,0A8.119,8.119,0,0,1,22.4,84.076l.542,4.49a1.749,1.749,0,0,1-1.736,1.958" transform="translate(0 -47.543)" fill="#203a72"/>
        <path id="Path_1029639" data-name="Path 1029639" d="M18.589,40.544a6.993,6.993,0,1,0,6.994,6.993,6.993,6.993,0,0,0-6.994-6.993" transform="translate(-7.114 -24.871)" fill="#203a72"/>
      </g>
    </g>
  </g>
</svg>
