<svg xmlns="http://www.w3.org/2000/svg" width="149.909" height="150" viewBox="0 0 149.909 150">
  <g id="img25" transform="translate(-705.985 -1710.002)">
    <g id="Group_1180300" data-name="Group 1180300" transform="translate(705.936 1710.002)">
      <g id="Grupo_155253" data-name="Grupo 155253" transform="matrix(0.999, 0.035, -0.035, 0.999, 5.062, 0)">
        <path id="Trazado_196478" data-name="Trazado 196478" d="M20.377,22.814q-.452.483-.9.974A75.7,75.7,0,0,0,.051,77.428l30.182-1.084c-.818-24.1,17.45-44.315,40.8-45.157S113.985,49.2,114.8,73.3l30.182-1.084c-1.018-30-19.313-56.469-46.471-67.234A70.928,70.928,0,0,0,20.377,22.822" transform="translate(0 0)" fill="#ff9e74"/>
        <path id="Trazado_196479" data-name="Trazado 196479" d="M0,5.22c1.4,41.3,34.98,73.608,75,72.167S146.334,41.3,144.933,0L114.751,1.084c.818,24.1-17.451,44.315-40.8,45.156S31,28.229,30.182,4.132Z" transform="translate(0.049 67.595)" fill="#70f5c8"/>
      </g>
      <ellipse id="Ellipse_13685" data-name="Ellipse 13685" cx="58.366" cy="58.462" rx="58.366" ry="58.462" transform="translate(16.722 16.827)" fill="#fff"/>
    </g>
    <g id="Group_1184874" data-name="Group 1184874" transform="translate(743.979 1748.515)">
      <path id="Path_1033482" data-name="Path 1033482" d="M148.9,20.4V63.46c0,.086,0,.172-.006.258a5.56,5.56,0,0,1-5.554,5.3H112.083a5.559,5.559,0,0,1-5.56-5.558V13.6a5.551,5.551,0,0,1,5.56-5.56H136.91a5.542,5.542,0,0,1,2.415.553c1.5.723,1.925,1.636,4.624,4.4,3.105,3.372,3.847,3.717,4.479,5.177A5.5,5.5,0,0,1,148.9,20.4Z" transform="translate(-90.87 -6.898)" fill="#ffc477"/>
      <path id="Path_1033483" data-name="Path 1033483" d="M174.761,20.4V63.459c0,.086,0,.172-.006.258a5.577,5.577,0,0,1-1.255.142H142.245a5.559,5.559,0,0,1-5.56-5.558V8.444c0-.087,0-.173.006-.259a5.585,5.585,0,0,1,1.255-.142h24.827a5.568,5.568,0,0,1,4.062,1.765l2.976,3.184,3.408,3.565a5.595,5.595,0,0,1,1.542,3.84Z" transform="translate(-116.733 -6.897)" fill="#ffdaaa"/>
      <path id="Path_1033484" data-name="Path 1033484" d="M286.544,182.753v31.258a7.857,7.857,0,0,1-7.857,7.857H258.271a7.857,7.857,0,0,1-7.857-7.857V182.753a7.853,7.853,0,0,1,7.857-7.857h20.417A7.856,7.856,0,0,1,286.544,182.753Z" transform="translate(-214.252 -149.969)" fill="#4cba68"/>
      <path id="Path_1033485" data-name="Path 1033485" d="M306.087,182.753v31.258a7.815,7.815,0,0,1-1.522,4.647,7.824,7.824,0,0,1-3.087.631H281.063a7.857,7.857,0,0,1-7.857-7.857V180.173a7.815,7.815,0,0,1,1.522-4.647,7.824,7.824,0,0,1,3.087-.631h20.417A7.856,7.856,0,0,1,306.087,182.753Z" transform="translate(-233.796 -149.969)" fill="#7ccc92"/>
      <path id="Path_1033486" data-name="Path 1033486" d="M362.06,367.144v3.671a1.175,1.175,0,0,1-1.174,1.175h-3.673a1.175,1.175,0,0,1-1.175-1.175v-3.671a1.175,1.175,0,0,1,1.175-1.175h3.673A1.174,1.174,0,0,1,362.06,367.144Z" transform="translate(-304.823 -313.809)" fill="#2c733f"/>
      <path id="Path_1033487" data-name="Path 1033487" d="M313.628,209.611v3.933a2.533,2.533,0,0,1-2.533,2.533H290.83a2.534,2.534,0,0,1-2.533-2.533v-3.933a2.534,2.534,0,0,1,2.533-2.533H311.1A2.533,2.533,0,0,1,313.628,209.611Z" transform="translate(-246.736 -177.564)" fill="#1e81ce"/>
      <path id="Path_1033488" data-name="Path 1033488" d="M339.491,209.611v3.933a2.533,2.533,0,0,1-2.533,2.533H320.991a2.534,2.534,0,0,1-2.533-2.533v-3.933a2.534,2.534,0,0,1,2.533-2.533h15.966A2.533,2.533,0,0,1,339.491,209.611Z" transform="translate(-272.598 -177.564)" fill="#3d9ae2"/>
      <g id="Group_1184870" data-name="Group 1184870" transform="translate(41.561 42.56)">
        <path id="Path_1033489" data-name="Path 1033489" d="M294.32,367.144v3.671a1.175,1.175,0,0,1-1.175,1.175h-3.673a1.176,1.176,0,0,1-1.175-1.175v-3.671a1.176,1.176,0,0,1,1.175-1.175h3.673A1.175,1.175,0,0,1,294.32,367.144Z" transform="translate(-288.297 -356.368)" fill="#2c733f"/>
        <path id="Path_1033490" data-name="Path 1033490" d="M362.06,299.783v3.671a1.175,1.175,0,0,1-1.174,1.175h-3.673a1.175,1.175,0,0,1-1.175-1.175v-3.671a1.175,1.175,0,0,1,1.175-1.175h3.673A1.175,1.175,0,0,1,362.06,299.783Z" transform="translate(-346.384 -298.608)" fill="#2c733f"/>
      </g>
      <path id="Path_1033491" data-name="Path 1033491" d="M430.617,299.783v3.671a1.175,1.175,0,0,1-1.175,1.175h-3.671a1.175,1.175,0,0,1-1.175-1.175v-3.671a1.175,1.175,0,0,1,1.175-1.175h3.671A1.175,1.175,0,0,1,430.617,299.783Z" transform="translate(-363.609 -256.048)" fill="#ee8700"/>
      <g id="Group_1184871" data-name="Group 1184871" transform="translate(41.561 42.56)">
        <path id="Path_1033492" data-name="Path 1033492" d="M294.32,299.783v3.671a1.175,1.175,0,0,1-1.175,1.175h-3.673a1.176,1.176,0,0,1-1.175-1.175v-3.671a1.176,1.176,0,0,1,1.175-1.175h3.673A1.175,1.175,0,0,1,294.32,299.783Z" transform="translate(-288.297 -298.608)" fill="#2c733f"/>
        <path id="Path_1033493" data-name="Path 1033493" d="M362.06,431.2v3.673a1.175,1.175,0,0,1-1.174,1.175h-3.673a1.175,1.175,0,0,1-1.175-1.175V431.2a1.175,1.175,0,0,1,1.175-1.174h3.673A1.174,1.174,0,0,1,362.06,431.2Z" transform="translate(-346.384 -411.3)" fill="#2c733f"/>
        <path id="Path_1033494" data-name="Path 1033494" d="M294.32,431.2v3.673a1.175,1.175,0,0,1-1.175,1.175h-3.673a1.176,1.176,0,0,1-1.175-1.175V431.2a1.175,1.175,0,0,1,1.175-1.174h3.673A1.175,1.175,0,0,1,294.32,431.2Z" transform="translate(-288.297 -411.3)" fill="#2c733f"/>
      </g>
      <path id="Path_1033495" data-name="Path 1033495" d="M430.617,367.713v11.4a2,2,0,0,1-2,2H426.6a2,2,0,0,1-2-2v-11.4a1.746,1.746,0,0,1,1.745-1.745h2.531A1.745,1.745,0,0,1,430.617,367.713Z" transform="translate(-363.609 -313.808)" fill="#ee8700"/>
      <g id="Group_1184872" data-name="Group 1184872" transform="translate(41.561 42.56)">
        <path id="Path_1033496" data-name="Path 1033496" d="M362.06,367.144v1.092a1.175,1.175,0,0,1-1.174,1.175h-3.673a1.175,1.175,0,0,1-1.175-1.175v-1.092a1.175,1.175,0,0,1,1.175-1.175h3.673A1.174,1.174,0,0,1,362.06,367.144Z" transform="translate(-346.384 -356.368)" fill="#317f46"/>
        <path id="Path_1033497" data-name="Path 1033497" d="M294.32,367.144v1.092a1.175,1.175,0,0,1-1.175,1.175h-3.673a1.176,1.176,0,0,1-1.175-1.175v-1.092a1.176,1.176,0,0,1,1.175-1.175h3.673A1.175,1.175,0,0,1,294.32,367.144Z" transform="translate(-288.297 -356.368)" fill="#317f46"/>
        <path id="Path_1033498" data-name="Path 1033498" d="M362.06,299.783v1.092a1.175,1.175,0,0,1-1.174,1.175h-3.673a1.175,1.175,0,0,1-1.175-1.175v-1.092a1.175,1.175,0,0,1,1.175-1.175h3.673A1.175,1.175,0,0,1,362.06,299.783Z" transform="translate(-346.384 -298.608)" fill="#317f46"/>
      </g>
      <path id="Path_1033499" data-name="Path 1033499" d="M430.617,299.783v1.092a1.175,1.175,0,0,1-1.175,1.175h-3.671a1.175,1.175,0,0,1-1.175-1.175v-1.092a1.175,1.175,0,0,1,1.175-1.175h3.671A1.175,1.175,0,0,1,430.617,299.783Z" transform="translate(-363.609 -256.048)" fill="#ff9811"/>
      <g id="Group_1184873" data-name="Group 1184873" transform="translate(41.561 42.56)">
        <path id="Path_1033500" data-name="Path 1033500" d="M294.32,299.783v1.092a1.175,1.175,0,0,1-1.175,1.175h-3.673a1.176,1.176,0,0,1-1.175-1.175v-1.092a1.176,1.176,0,0,1,1.175-1.175h3.673A1.175,1.175,0,0,1,294.32,299.783Z" transform="translate(-288.297 -298.608)" fill="#317f46"/>
        <path id="Path_1033501" data-name="Path 1033501" d="M362.06,431.2V432.3a1.175,1.175,0,0,1-1.174,1.175h-3.673a1.175,1.175,0,0,1-1.175-1.175V431.2a1.175,1.175,0,0,1,1.175-1.174h3.673A1.174,1.174,0,0,1,362.06,431.2Z" transform="translate(-346.384 -411.3)" fill="#317f46"/>
        <path id="Path_1033502" data-name="Path 1033502" d="M294.32,431.2V432.3a1.175,1.175,0,0,1-1.175,1.175h-3.673A1.176,1.176,0,0,1,288.3,432.3V431.2a1.175,1.175,0,0,1,1.175-1.174h3.673A1.175,1.175,0,0,1,294.32,431.2Z" transform="translate(-288.297 -411.3)" fill="#317f46"/>
      </g>
      <path id="Path_1033503" data-name="Path 1033503" d="M430.617,367.713v8.823a2,2,0,0,1-2,2H426.6a2,2,0,0,1-2-2v-8.823a1.746,1.746,0,0,1,1.745-1.745h2.531A1.745,1.745,0,0,1,430.617,367.713Z" transform="translate(-363.609 -313.808)" fill="#ff9811"/>
      <path id="Path_1033504" data-name="Path 1033504" d="M345.765,21.5H338.8a2.137,2.137,0,0,1-2.137-2.137V11.924a5.552,5.552,0,0,1,1.648,1.211l2.977,3.184,3.407,3.566A5.505,5.505,0,0,1,345.765,21.5Z" transform="translate(-288.207 -10.225)" fill="#ffb655"/>
      <path id="Path_1033505" data-name="Path 1033505" d="M91.58,464.374a2.73,2.73,0,0,1-2.723,2.723H72.179a2.723,2.723,0,0,1,0-5.445H88.858A2.731,2.731,0,0,1,91.58,464.374Z" transform="translate(-59.086 -395.853)" fill="#aa6100"/>
      <path id="Path_1033506" data-name="Path 1033506" d="M91.58,426.169a2.73,2.73,0,0,1-2.723,2.723H72.179a2.723,2.723,0,0,1,0-5.445H88.858A2.731,2.731,0,0,1,91.58,426.169Z" transform="translate(-59.086 -363.094)" fill="#cc7400"/>
      <path id="Path_1033507" data-name="Path 1033507" d="M91.58,387.965a2.73,2.73,0,0,1-2.723,2.723H72.179a2.723,2.723,0,0,1,0-5.445H88.858A2.731,2.731,0,0,1,91.58,387.965Z" transform="translate(-59.086 -330.335)" fill="#ee8700"/>
      <path id="Path_1033508" data-name="Path 1033508" d="M91.58,349.759a2.73,2.73,0,0,1-2.723,2.723H72.179a2.731,2.731,0,0,1-2.723-2.723,2.73,2.73,0,0,1,2.723-2.723H88.858A2.731,2.731,0,0,1,91.58,349.759Z" transform="translate(-59.086 -297.574)" fill="#ff9811"/>
      <path id="Path_1033509" data-name="Path 1033509" d="M88.857,314.279H72.179a2.731,2.731,0,0,1-2.723-2.723h0a2.731,2.731,0,0,1,2.723-2.723H88.857a2.731,2.731,0,0,1,2.723,2.723h0A2.731,2.731,0,0,1,88.857,314.279Z" transform="translate(-59.086 -264.817)" fill="#ffa733"/>
      <path id="Path_1033510" data-name="Path 1033510" d="M29.839,386.11a8.858,8.858,0,0,0-9.232-8.483H17.136a8.87,8.87,0,0,0,.759,17.724h2.712v0c.248.01.5.012.749,0A9.015,9.015,0,0,0,23,395.125a8.871,8.871,0,0,0,6.837-8.315v-.01C29.849,386.571,29.849,386.342,29.839,386.11Z" transform="translate(-6.923 -323.798)" fill="#cc7400"/>
      <path id="Path_1033511" data-name="Path 1033511" d="M75.233,388.2v.01a8.871,8.871,0,0,1-6.837,8.315,8.874,8.874,0,0,1-6.828-8.257c0-.02,0-.039,0-.059v-.01a8.873,8.873,0,0,1,6.835-8.947,8.873,8.873,0,0,1,6.831,8.258C75.242,387.745,75.242,387.974,75.233,388.2Z" transform="translate(-52.315 -325.201)" fill="#ee8700"/>
      <path id="Path_1033512" data-name="Path 1033512" d="M64.435,23.853h-5.26V13.5a6.723,6.723,0,0,0-1.859-4.633l-3.4-3.557C51.033,2.34,50.668,1.5,48.95.666A6.722,6.722,0,0,0,46.04,0H21.213a6.714,6.714,0,0,0-6.706,6.706V42.871H13.093a3.867,3.867,0,0,0-2.745,6.591,3.855,3.855,0,0,0-1.123,2.723,3.969,3.969,0,0,0,.076.765A9.753,9.753,0,0,0,10.694,72.4l19.078-.007A3.867,3.867,0,0,0,32.517,65.8a3.849,3.849,0,0,0,1.118-2.531h1.452v.775a8.941,8.941,0,0,0,8.931,8.931H64.435a8.941,8.941,0,0,0,8.931-8.931V32.784A8.941,8.941,0,0,0,64.435,23.853ZM49.6,4.054c4.5,4.759,5.517,5.832,5.707,6.034,0,0,0,0,0,0h0a.031.031,0,0,0,.006.007h0a.024.024,0,0,0,.009.009l0,.006s0,0,0,0,0,0,0,0,0,0,.006.006H49.6V4.054ZM13.093,45.163H29.772a1.576,1.576,0,1,1,0,3.152H13.093a1.576,1.576,0,1,1,0-3.152Zm0,5.445H29.772a1.576,1.576,0,1,1,0,3.152H18.251a9.336,9.336,0,0,0-1.452-.524,9.664,9.664,0,0,0-2.293-.337c-.225-.006-.45,0-.675.006H11.693a1.55,1.55,0,0,1-.176-.721A1.579,1.579,0,0,1,13.093,50.608ZM31.348,57.63a1.578,1.578,0,0,1-1.576,1.576H23.357a9.643,9.643,0,0,0-1.946-3.152h8.361A1.579,1.579,0,0,1,31.348,57.63ZM7.516,55.572A9.892,9.892,0,0,0,5.71,57.888H4.375A7.571,7.571,0,0,1,7.516,55.572Zm-4.36,4.465H4.825a9.9,9.9,0,0,0-.312,1.718H2.748A7.533,7.533,0,0,1,3.155,60.037Zm.185,5.682A7.52,7.52,0,0,1,2.8,63.9H4.552a8.651,8.651,0,0,0,.41,1.814Zm1.43,2.149c.7,0,1.112,0,1.208,0A9.68,9.68,0,0,0,7.52,69.731,7.573,7.573,0,0,1,4.77,67.868Zm9.781,2.38a7.6,7.6,0,1,1,4.818-13.2A7.6,7.6,0,0,1,14.551,70.248ZM29.772,70.1H20.52a9.82,9.82,0,0,0,2.463-3.152h6.789a1.576,1.576,0,0,1,0,3.152Zm1.563-6.829a1.577,1.577,0,0,1-1.563,1.384h-6a9.849,9.849,0,0,0,.139-3.152h5.859A1.578,1.578,0,0,1,31.335,63.267Zm3.751-2.293H33.018a3.8,3.8,0,0,0-.5-.622,3.86,3.86,0,0,0,0-5.445,3.861,3.861,0,0,0,0-5.445,3.872,3.872,0,0,0-2.745-6.591H16.8V6.706a4.419,4.419,0,0,1,4.413-4.413h26.1v8.98a1.146,1.146,0,0,0,1.146,1.146h8.291c.239.929.092.622.136,11.433H44.018a8.941,8.941,0,0,0-8.931,8.931v28.19Zm36.13,3.068a6.789,6.789,0,0,1-6.782,6.782H44.018a6.79,6.79,0,0,1-6.782-6.782V32.784A6.79,6.79,0,0,1,44.018,26H64.435a6.789,6.789,0,0,1,6.782,6.782V64.042Z" transform="translate(0)"/>
      <path id="Path_1033513" data-name="Path 1033513" d="M288.264,208.538h-3.9a1.463,1.463,0,0,1-1.459-1.459v-3.933a1.463,1.463,0,0,1,1.459-1.459H304.63a1.46,1.46,0,0,1,1.459,1.459v3.933a1.46,1.46,0,0,1-1.459,1.459H292.9a1.075,1.075,0,0,0,0,2.149H304.63a3.612,3.612,0,0,0,3.608-3.608v-3.933a3.612,3.612,0,0,0-3.608-3.608H284.365a3.608,3.608,0,0,0-3.608,3.608v3.933a3.608,3.608,0,0,0,3.608,3.608h3.9a1.075,1.075,0,1,0,0-2.149Z" transform="translate(-240.271 -171.098)"/>
      <path id="Path_1033514" data-name="Path 1033514" d="M283.007,366.6h3.673a2.252,2.252,0,0,0,2.25-2.25v-3.671a2.252,2.252,0,0,0-2.25-2.25h-3.673a2.253,2.253,0,0,0-2.25,2.25v3.671A2.252,2.252,0,0,0,283.007,366.6Zm-.1-5.921a.1.1,0,0,1,.1-.1h3.673a.1.1,0,0,1,.1.1v3.671a.1.1,0,0,1-.1.1h-3.673a.1.1,0,0,1-.1-.1Z" transform="translate(-240.271 -307.343)"/>
      <path id="Path_1033515" data-name="Path 1033515" d="M422.977,291.068h-3.671a2.252,2.252,0,0,0-2.25,2.25v3.671a2.252,2.252,0,0,0,2.25,2.25h3.671a2.252,2.252,0,0,0,2.25-2.25v-3.671A2.252,2.252,0,0,0,422.977,291.068Zm.1,5.921a.1.1,0,0,1-.1.1h-3.671a.1.1,0,0,1-.1-.1c.044-3.632-.093-3.772.1-3.772h3.671a.1.1,0,0,1,.1.1Z" transform="translate(-357.143 -249.583)"/>
      <path id="Path_1033516" data-name="Path 1033516" d="M283.007,299.239h3.673a2.252,2.252,0,0,0,2.25-2.25v-3.671a2.252,2.252,0,0,0-2.25-2.25h-3.673a2.253,2.253,0,0,0-2.25,2.25v3.671A2.252,2.252,0,0,0,283.007,299.239Zm-.1-5.921a.1.1,0,0,1,.1-.1h3.673a.1.1,0,0,1,.1.1v3.671a.1.1,0,0,1-.1.1h-3.673a.1.1,0,0,1-.1-.1Z" transform="translate(-240.271 -249.583)"/>
      <path id="Path_1033517" data-name="Path 1033517" d="M288.34,423.249a2.249,2.249,0,0,0-1.684-.758h-3.673a2.243,2.243,0,0,0-1.682.758,3.074,3.074,0,0,0-.567,2.293v2.87a2.253,2.253,0,0,0,2.25,2.25h3.673a2.252,2.252,0,0,0,2.25-2.25v-2.87A3.1,3.1,0,0,0,288.34,423.249Zm-1.684,5.263c-3.628-.044-3.773.093-3.773-.1,0-3.888-.043-3.772.1-3.772h3.673c.176,0,.067.245.1.9A15.283,15.283,0,0,1,286.656,428.512Z" transform="translate(-240.248 -362.275)"/>
      <path id="Path_1033518" data-name="Path 1033518" d="M422.406,358.428h-2.531a2.824,2.824,0,0,0-2.82,2.82v11.4a3.083,3.083,0,0,0,3.078,3.079h2.015a3.082,3.082,0,0,0,3.078-3.079v-11.4A2.823,2.823,0,0,0,422.406,358.428Zm.671,14.222a.93.93,0,0,1-.929.93h-2.015a.931.931,0,0,1-.929-.93v-11.4a.671.671,0,0,1,.671-.671h2.531a.671.671,0,0,1,.671.671v11.4Z" transform="translate(-357.143 -307.342)"/>
      <path id="Path_1033519" data-name="Path 1033519" d="M167.259,174.662h0c-1.31-.481-2.257-.829-2.257-2.043,0-1.106.735-1.667,2.184-1.667,1.538,0,1.952.677,2.494.677a1.032,1.032,0,0,0,.916-1.059c0-.9-1.46-1.339-2.766-1.456v-.807a1.018,1.018,0,1,0-2.037,0v.936a3.331,3.331,0,0,0-2.766,3.484c0,2.5,1.841,3.193,3.321,3.75,1.449.544,2.594.975,2.594,2.629,0,1.366-.759,2.059-2.255,2.059-2.19,0-2.211-1.479-3.046-1.479a1.074,1.074,0,0,0-.934,1.059c0,.847,1.261,1.96,3.087,2.249v.78a1.018,1.018,0,1,0,2.037,0v-.8A3.679,3.679,0,0,0,170.917,179C170.917,176.006,168.889,175.261,167.259,174.662Z" transform="translate(-139.046 -143.445)"/>
      <path id="Path_1033520" data-name="Path 1033520" d="M354.4,422.491h-3.673a2.248,2.248,0,0,0-1.684.758,3.086,3.086,0,0,0-.566,2.293v2.87a2.252,2.252,0,0,0,2.25,2.25H354.4a2.251,2.251,0,0,0,2.248-2.25v-3.673a2.252,2.252,0,0,0-2.248-2.248Zm0,6.021c-3.628-.044-3.773.093-3.773-.1v-3.673a.1.1,0,0,1,.1-.1H354.4a.1.1,0,0,1,.1.1C354.456,428.376,354.591,428.512,354.4,428.512Z" transform="translate(-298.336 -362.275)"/>
      <path id="Path_1033521" data-name="Path 1033521" d="M354.421,291.068h-3.673a2.252,2.252,0,0,0-2.25,2.25v3.671a2.252,2.252,0,0,0,2.25,2.25h3.673a2.216,2.216,0,0,0,.818-.155,2.252,2.252,0,0,0,1.43-2.1v-3.671A2.252,2.252,0,0,0,354.421,291.068Zm.1,5.921a.1.1,0,0,1-.1.1h-3.673a.1.1,0,0,1-.1-.1v-3.671c0-.193.133-.057,3.773-.1a.1.1,0,0,1,.1.1v3.671Z" transform="translate(-298.358 -249.583)"/>
      <path id="Path_1033522" data-name="Path 1033522" d="M355.24,358.583a2.216,2.216,0,0,0-.818-.155h-3.673a2.252,2.252,0,0,0-2.25,2.25v3.671a2.252,2.252,0,0,0,2.25,2.25h3.673a2.251,2.251,0,0,0,2.248-2.25v-3.671A2.252,2.252,0,0,0,355.24,358.583Zm-.719,5.766a.1.1,0,0,1-.1.1h-3.673a.1.1,0,0,1-.1-.1v-3.671a.1.1,0,0,1,.1-.1h3.673a.1.1,0,0,1,.1.1Z" transform="translate(-298.358 -307.342)"/>
      <path id="Path_1033523" data-name="Path 1033523" d="M321.122,105.191h2.7a1.075,1.075,0,0,0,0-2.149h-2.7a1.075,1.075,0,1,0,0,2.149Z" transform="translate(-273.961 -88.356)"/>
      <path id="Path_1033524" data-name="Path 1033524" d="M157.245,105.191H176.3a1.075,1.075,0,0,0,0-2.149H157.245a1.075,1.075,0,1,0,0,2.149Z" transform="translate(-133.441 -88.356)"/>
      <path id="Path_1033525" data-name="Path 1033525" d="M160.661,142.621a1.075,1.075,0,0,0,0-2.149h-3.416a1.075,1.075,0,1,0,0,2.149Z" transform="translate(-133.441 -120.451)"/>
      <path id="Path_1033526" data-name="Path 1033526" d="M230.79,141.547a1.075,1.075,0,0,0-1.075-1.075H211.374a1.075,1.075,0,0,0,0,2.149h18.342A1.075,1.075,0,0,0,230.79,141.547Z" transform="translate(-179.855 -120.451)"/>
      <path id="Path_1033527" data-name="Path 1033527" d="M79.7,402.021c0-.27.1-.348.193-.4a1.847,1.847,0,0,1,1.558.105,1.229,1.229,0,0,0,.582.177c1.06,0,1.9-1.97-.634-2.4v-.068a1.089,1.089,0,0,0-2.178,0v.207a2.444,2.444,0,0,0-1.661,2.447c0,1.833,1.332,2.333,2.3,2.7.927.348,1.248.5,1.248,1.132,0,.394-.106.759-.877.759-1.123,0-.989-.888-1.83-.888a1.123,1.123,0,0,0-1.038,1.113c0,.745.774,1.451,1.854,1.738v.082a1.089,1.089,0,0,0,2.178,0v-.11a2.692,2.692,0,0,0,1.854-2.758C83.255,402.586,79.7,403.076,79.7,402.021Z" transform="translate(-65.871 -341.568)"/>
    </g>
  </g>
</svg>
