<svg xmlns="http://www.w3.org/2000/svg" width="149.908" height="150" viewBox="0 0 149.908 150">
  <g id="img26" transform="translate(-705.985 -1710.001)">
    <g id="Group_1180300" data-name="Group 1180300" transform="translate(705.936 1710.002)">
      <g id="Grupo_155253" data-name="Grupo 155253" transform="matrix(0.999, 0.035, -0.035, 0.999, 5.061, 0)">
        <path id="Trazado_196478" data-name="Trazado 196478" d="M20.378,22.814q-.452.483-.9.974A75.7,75.7,0,0,0,.051,77.428l30.182-1.084c-.818-24.1,17.45-44.315,40.8-45.157S113.984,49.2,114.8,73.3l30.181-1.084c-1.018-30-19.313-56.469-46.471-67.233A70.928,70.928,0,0,0,20.378,22.822" transform="translate(0 0)" fill="#f9ce5d"/>
        <path id="Trazado_196479" data-name="Trazado 196479" d="M0,5.22c1.4,41.3,34.98,73.608,75,72.166S146.333,41.3,144.933,0L114.75,1.084c.818,24.1-17.451,44.314-40.8,45.156S31,28.229,30.182,4.132Z" transform="translate(0.049 67.594)" fill="#70f5c8"/>
      </g>
      <ellipse id="Ellipse_13685" data-name="Ellipse 13685" cx="58.366" cy="58.462" rx="58.366" ry="58.462" transform="translate(16.722 16.827)" fill="#fff"/>
    </g>
    <g id="Group_1184724" data-name="Group 1184724" transform="translate(743.978 1750.871)">
      <path id="Path_1032965" data-name="Path 1032965" d="M392.079,72.988V53.4H381.156v8.936Zm0,0" transform="translate(-326.13 -45.693)" fill="#ffc850"/>
      <path id="Path_1032966" data-name="Path 1032966" d="M385.487,53.4h-4.331v8.936l4.331,4.223Zm0,0" transform="translate(-326.13 -45.693)" fill="#feb644"/>
      <path id="Path_1032967" data-name="Path 1032967" d="M380.848,23.2h-9.73a2.391,2.391,0,0,0,0,4.783h9.73a2.391,2.391,0,0,0,0-4.783Zm0,0" transform="translate(-315.495 -19.854)" fill="#feb644"/>
      <path id="Path_1032968" data-name="Path 1032968" d="M380.848,30.574h-9.73a2.388,2.388,0,0,1-1.886-.929,2.373,2.373,0,0,0-.5,1.462,2.4,2.4,0,0,0,2.391,2.391h9.73a2.385,2.385,0,0,0,1.886-3.853A2.39,2.39,0,0,1,380.848,30.574Zm0,0" transform="translate(-315.495 -25.366)" fill="#fda537"/>
      <path id="Path_1032969" data-name="Path 1032969" d="M84.157,48.332,55.164,74.65v33.891h57.987V74.65Zm0,0" transform="translate(-47.201 -41.355)" fill="#e4eaf8"/>
      <path id="Path_1032970" data-name="Path 1032970" d="M84.157,48.332,55.164,74.65v33.891H59.5V77.836a3.174,3.174,0,0,1,1.041-2.351L87.3,51.188Zm0,0" transform="translate(-47.201 -41.355)" fill="#d8dce5"/>
      <path id="Path_1032971" data-name="Path 1032971" d="M8.286,42.462a2.992,2.992,0,0,1,.2-4.227L41.371,8.388a2.991,2.991,0,0,1,4.022,0L78.274,38.235a2.992,2.992,0,1,1-4.022,4.431L43.382,14.645,12.513,42.666a2.992,2.992,0,0,1-4.227-.2Zm0,0" transform="translate(-6.426 -6.513)" fill="#f77c7c"/>
      <path id="Path_1032972" data-name="Path 1032972" d="M12.617,42.462a2.992,2.992,0,0,1,.2-4.227L45.548,8.528l-.155-.14a2.991,2.991,0,0,0-4.022,0L8.49,38.235a2.992,2.992,0,0,0,4.023,4.431l.162-.147c-.019-.02-.039-.037-.058-.058Zm0,0" transform="translate(-6.426 -6.513)" fill="#f25c5c"/>
      <path id="Path_1032973" data-name="Path 1032973" d="M227.043,139.977h-7.584a1.738,1.738,0,0,0-1.732,1.732v7.583a1.738,1.738,0,0,0,1.732,1.732h7.584a1.738,1.738,0,0,0,1.732-1.732v-7.583A1.738,1.738,0,0,0,227.043,139.977Zm0,0" transform="translate(-186.295 -119.769)" fill="#ffc850"/>
      <path id="Path_1032974" data-name="Path 1032974" d="M221.674,149.292v-7.583a1.738,1.738,0,0,1,1.732-1.732H219.46a1.738,1.738,0,0,0-1.732,1.732v7.583a1.738,1.738,0,0,0,1.732,1.732h3.946A1.738,1.738,0,0,1,221.674,149.292Zm0,0" transform="translate(-186.295 -119.769)" fill="#feb644"/>
      <path id="Path_1032975" data-name="Path 1032975" d="M272.8,350.529l-2.284-.885c-.557.616-1.158,1.274-1.735,1.9a3.639,3.639,0,0,1-5.357,0c-.566-.615-1.156-1.261-1.7-1.867l-2.316.9a4.766,4.766,0,0,0-3.044,4.444v2.045a.841.841,0,0,0,.84.841H275a.841.841,0,0,0,.84-.841v-2.092a4.766,4.766,0,0,0-3.045-4.444Zm0,0" transform="translate(-219.346 -299.167)" fill="#f25c5c"/>
      <path id="Path_1032976" data-name="Path 1032976" d="M267.444,352.668a3.641,3.641,0,0,1-4.024-.918c-.566-.616-1.156-1.261-1.7-1.867l-2.316.9a4.766,4.766,0,0,0-3.044,4.444v2.045a.841.841,0,0,0,.841.84h13.217a8.783,8.783,0,0,0-2.969-5.443Zm0,0" transform="translate(-219.346 -299.371)" fill="#e54a4a"/>
      <path id="Path_1032977" data-name="Path 1032977" d="M300.221,330.51a.575.575,0,0,1-.367-.535v-2.142a4.845,4.845,0,0,1-2.759.859,5.118,5.118,0,0,1-2.783-.786v2.069a.575.575,0,0,1-.367.535l-1.445.561c.587.649,1.232,1.355,1.846,2.023a3.639,3.639,0,0,0,5.357,0c.625-.68,1.282-1.4,1.877-2.057Zm0,0" transform="translate(-250.273 -280.504)" fill="#f0a479"/>
      <path id="Path_1032978" data-name="Path 1032978" d="M298.344,334.214a1.343,1.343,0,0,1-.465-1.023v-4.129a4.855,4.855,0,0,1-.784.064,5.118,5.118,0,0,1-2.783-.786v2.069a.573.573,0,0,1-.367.535l-.564.219-.881.342c1.737,1.923,2.867,3.7,5.379,3.1v0a3.614,3.614,0,0,0,.651-.221C298.468,334.322,298.407,334.268,298.344,334.214Zm0,0" transform="translate(-250.273 -280.938)" fill="#e5966e"/>
      <path id="Path_1032979" data-name="Path 1032979" d="M294.545,240.352h-.059a4.959,4.959,0,0,0-4.884,4.975v2.2a.452.452,0,0,1,.484-.451,11.87,11.87,0,0,0,7.147-1.92.453.453,0,0,1,.579.071c1.686,1.813,1.676,1.743,1.676,1.979v-1.878a4.958,4.958,0,0,0-4.884-4.975h-.059Zm0,0" transform="translate(-247.793 -205.653)" fill="#5e6377"/>
      <path id="Path_1032980" data-name="Path 1032980" d="M293.293,245.327a4.986,4.986,0,0,1,3.1-4.618,4.859,4.859,0,0,0-1.786-.356h-.118a4.958,4.958,0,0,0-4.884,4.975v2.2a.452.452,0,0,1,.484-.451,10.957,10.957,0,0,0,3.206-.26v-1.488Zm0,0" transform="translate(-247.793 -205.653)" fill="#52586d"/>
      <path id="Path_1032981" data-name="Path 1032981" d="M297.811,272.524a.45.45,0,0,0-.577-.07,11.876,11.876,0,0,1-7.147,1.919.453.453,0,0,0-.484.451v1.76a4.943,4.943,0,0,0,9.886,0V274.5C299.488,274.266,299.5,274.337,297.811,272.524Zm0,0" transform="translate(-247.793 -233.057)" fill="#f7b594"/>
      <path id="Path_1032982" data-name="Path 1032982" d="M293.293,286.853v-2.471a10.961,10.961,0,0,1-3.207.26.453.453,0,0,0-.484.451v1.761a4.989,4.989,0,0,0,6.8,4.53A4.841,4.841,0,0,1,293.293,286.853Zm0,0" transform="translate(-247.793 -243.327)" fill="#f0a479"/>
      <path id="Path_1032983" data-name="Path 1032983" d="M135.184,350.529l-2.284-.885c-.557.616-1.158,1.274-1.735,1.9a3.639,3.639,0,0,1-5.357,0c-.566-.615-1.156-1.261-1.7-1.867l-2.317.9c-1.835.711-2.547,2.476-2.547,4.444v2.045a.841.841,0,0,0,.84.841h17.309a.841.841,0,0,0,.841-.841v-2.092a4.766,4.766,0,0,0-3.045-4.444Zm0,0" transform="translate(-102.025 -299.167)" fill="#ffc850"/>
      <path id="Path_1032984" data-name="Path 1032984" d="M121.719,359.546v-3.64a4.767,4.767,0,0,1,1.389-3.363l-1.325.514c-1.835.711-2.548,2.476-2.548,4.444v2.045a.84.84,0,0,0,.841.84h2.483A.84.84,0,0,1,121.719,359.546Zm0,0" transform="translate(-102.022 -301.648)" fill="#feb644"/>
      <path id="Path_1032985" data-name="Path 1032985" d="M159.67,330.51a.574.574,0,0,1-.367-.535v-2.142a4.845,4.845,0,0,1-2.759.859,5.12,5.12,0,0,1-2.784-.786v2.069a.574.574,0,0,1-.367.535l-1.445.561c.587.649,1.231,1.355,1.846,2.023a3.639,3.639,0,0,0,5.357,0c.625-.68,1.282-1.4,1.876-2.057Zm0,0" transform="translate(-130.014 -280.504)" fill="#f0a479"/>
      <path id="Path_1032986" data-name="Path 1032986" d="M157.328,329.063a4.86,4.86,0,0,1-.784.064,5.12,5.12,0,0,1-2.784-.786v2.069a.573.573,0,0,1-.367.535l-1.445.561c.587.649,1.231,1.355,1.846,2.023a3.635,3.635,0,0,0,3.533,1.074Zm0,0" transform="translate(-130.013 -280.939)" fill="#e5966e"/>
      <path id="Path_1032987" data-name="Path 1032987" d="M153.994,240.352h-.059a4.958,4.958,0,0,0-4.884,4.975v2.2a.452.452,0,0,1,.484-.451,11.871,11.871,0,0,0,7.147-1.92.453.453,0,0,1,.578.071c1.687,1.813,1.677,1.743,1.677,1.979v-1.878a4.959,4.959,0,0,0-4.884-4.975Zm0,0" transform="translate(-127.533 -205.653)" fill="#5e6377"/>
      <path id="Path_1032988" data-name="Path 1032988" d="M152.741,245.327a4.986,4.986,0,0,1,3.1-4.618,4.86,4.86,0,0,0-1.787-.356h-.118a4.958,4.958,0,0,0-4.884,4.975v2.2a.452.452,0,0,1,.484-.451,10.959,10.959,0,0,0,3.206-.26Zm0,0" transform="translate(-127.533 -205.653)" fill="#52586d"/>
      <path id="Path_1032989" data-name="Path 1032989" d="M157.26,272.524a.451.451,0,0,0-.578-.07,11.875,11.875,0,0,1-7.147,1.919.453.453,0,0,0-.484.451v1.76a4.943,4.943,0,0,0,9.886,0V274.5c0-.237.01-.166-1.677-1.979Zm0,0" transform="translate(-127.533 -233.057)" fill="#f7b594"/>
      <path id="Path_1032990" data-name="Path 1032990" d="M152.741,286.853v-2.471a10.957,10.957,0,0,1-3.206.26.453.453,0,0,0-.484.451v1.761a4.989,4.989,0,0,0,6.8,4.53A4.841,4.841,0,0,1,152.741,286.853Zm0,0" transform="translate(-127.533 -243.327)" fill="#f0a479"/>
      <path id="Path_1032991" data-name="Path 1032991" d="M193.6,372.594l-2.683-1.039c-.654.724-1.361,1.5-2.039,2.233a4.274,4.274,0,0,1-6.293,0c-.665-.723-1.358-1.481-2-2.193l-2.72,1.055a5.6,5.6,0,0,0-3.575,5.22v2.4a.988.988,0,0,0,.987.987h20.915a.987.987,0,0,0,.987-.987v-2.458a5.6,5.6,0,0,0-3.577-5.22Zm0,0" transform="translate(-149.129 -317.914)" fill="#00aaf0"/>
      <path id="Path_1032992" data-name="Path 1032992" d="M177.788,383.187v-4.275a5.6,5.6,0,0,1,1.632-3.951l-1.556.6a5.6,5.6,0,0,0-3.575,5.22v2.4a.987.987,0,0,0,.987.987h3.5a.987.987,0,0,1-.987-.987Zm0,0" transform="translate(-149.128 -320.828)" fill="#059adb"/>
      <path id="Path_1032993" data-name="Path 1032993" d="M225.82,349.08a.676.676,0,0,1-.431-.629v-2.516a5.689,5.689,0,0,1-3.242,1.009,6.013,6.013,0,0,1-3.269-.923v2.431a.675.675,0,0,1-.431.629l-1.7.658c.689.763,1.447,1.591,2.168,2.376a4.275,4.275,0,0,0,6.293,0c.735-.8,1.506-1.643,2.2-2.417Zm0,0" transform="translate(-185.459 -295.992)" fill="#f0a479"/>
      <path id="Path_1032994" data-name="Path 1032994" d="M223.069,347.38a5.76,5.76,0,0,1-.921.074,6.008,6.008,0,0,1-3.269-.923v2.431a.675.675,0,0,1-.431.629l-1.7.658c.689.763,1.447,1.591,2.168,2.376a4.269,4.269,0,0,0,4.15,1.261Zm0,0" transform="translate(-185.459 -296.503)" fill="#e5966e"/>
      <path id="Path_1032995" data-name="Path 1032995" d="M219.151,243.168h-.069a5.824,5.824,0,0,0-5.738,5.843v2.583a.531.531,0,0,1,.569-.53,13.947,13.947,0,0,0,8.4-2.255.53.53,0,0,1,.679.083c1.981,2.129,1.969,2.047,1.969,2.325v-2.207a5.824,5.824,0,0,0-5.737-5.843h-.07Zm0,0" transform="translate(-182.545 -208.063)" fill="#5e6377"/>
      <path id="Path_1032996" data-name="Path 1032996" d="M217.683,249.012a5.857,5.857,0,0,1,3.639-5.425,5.7,5.7,0,0,0-2.1-.418h-.139a5.824,5.824,0,0,0-5.737,5.843v2.583a.531.531,0,0,1,.569-.53,12.88,12.88,0,0,0,3.766-.305Zm0,0" transform="translate(-182.548 -208.063)" fill="#52586d"/>
      <path id="Path_1032997" data-name="Path 1032997" d="M222.987,280.961a.53.53,0,0,0-.678-.083,13.951,13.951,0,0,1-8.4,2.255.531.531,0,0,0-.569.529v2.068a5.807,5.807,0,0,0,11.613,0v-2.444c0-.278.012-.2-1.97-2.326Zm0,0" transform="translate(-182.545 -240.255)" fill="#f7b594"/>
      <path id="Path_1032998" data-name="Path 1032998" d="M217.679,297.8v-2.9a12.9,12.9,0,0,1-3.767.306.531.531,0,0,0-.569.529V297.8a5.86,5.86,0,0,0,7.992,5.321,5.685,5.685,0,0,1-3.657-5.321Zm0,0" transform="translate(-182.544 -252.322)" fill="#f0a479"/>
      <path id="Path_1032999" data-name="Path 1032999" d="M72.579,30.911l-5.544-5.032V8.77a3.473,3.473,0,0,0-1.679-6.514H55.625A3.473,3.473,0,0,0,53.946,8.77V14L39.7,1.062a4.06,4.06,0,0,0-5.478,0L1.337,30.911a4.075,4.075,0,1,0,5.478,6.035l.066-.06V66.1H5.162a1.083,1.083,0,1,0,0,2.166h63.59a1.083,1.083,0,1,0,0-2.166H67.035V51.021a1.083,1.083,0,1,0-2.166,0V66.1H9.046V34.92L36.958,9.584,64.869,34.92V45.968a1.083,1.083,0,1,0,2.166,0V36.886l.066.06a4.075,4.075,0,1,0,5.478-6.035ZM55.625,4.422h9.731a1.308,1.308,0,1,1,0,2.617H55.625a1.308,1.308,0,1,1,0-2.617Zm.487,11.541V9.2h8.758V23.913l-6.692-6.074Zm15.142,19.25a1.909,1.909,0,0,1-2.7.13L37.686,7.32a1.082,1.082,0,0,0-1.456,0L5.359,35.342a1.91,1.91,0,1,1-2.567-2.828L35.674,2.666a1.9,1.9,0,0,1,2.567,0L71.124,32.514a1.908,1.908,0,0,1,.13,2.7Zm0,0"/>
      <path id="Path_1033000" data-name="Path 1033000" d="M213.049,145.616h7.584a2.818,2.818,0,0,0,2.815-2.815v-7.583a2.818,2.818,0,0,0-2.815-2.815h-7.584a2.818,2.818,0,0,0-2.815,2.815V142.8A2.818,2.818,0,0,0,213.049,145.616Zm-.65-2.815v-2.709h3.359v3.358h-2.709A.658.658,0,0,1,212.4,142.8Zm8.234.65h-2.709v-3.358h3.359V142.8A.658.658,0,0,1,220.633,143.451Zm.65-8.233v2.709h-3.359v-3.358h2.709A.659.659,0,0,1,221.283,135.218Zm-8.234-.65h2.709v3.358H212.4v-2.709A.659.659,0,0,1,213.049,134.568Zm0,0" transform="translate(-179.884 -113.289)"/>
      <path id="Path_1033001" data-name="Path 1033001" d="M154.406,257.042c0-.113,0-.228,0-.345a9.33,9.33,0,0,0-1.253-5.341,5.644,5.644,0,0,0-2.484-1.858L147.5,248.27v-1.05a5.942,5.942,0,0,0,2.112-4.543v-3.851a6.017,6.017,0,0,0-11.044-3.332,6.849,6.849,0,0,0-10.268,0,6.016,6.016,0,0,0-11.044,3.333v3.851a5.861,5.861,0,0,0,2.229,4.634v.958l-3.295,1.277a4.021,4.021,0,0,0-2.132,1.934,8.3,8.3,0,0,0-.888,3.724v1.484a2.278,2.278,0,0,0,2.276,2.276h5.463c0,.049,0,.1,0,.147v2.4a2.073,2.073,0,0,0,2.07,2.07h8.288a1.083,1.083,0,0,0,0-2.166H123.07v-2.307a4.549,4.549,0,0,1,2.247-3.9,17.955,17.955,0,0,1,2.5-1.03c.5.555,1.065,1.168,1.674,1.831a5.358,5.358,0,0,0,7.887,0c.629-.685,1.2-1.312,1.71-1.871l1.823.705a4.548,4.548,0,0,1,2.885,4.211v2.363h-7.478a1.083,1.083,0,0,0,0,2.166h7.574a2.073,2.073,0,0,0,2.07-2.07v-2.458c0-.03,0-.061,0-.092h6.527A1.924,1.924,0,0,0,154.406,257.042Zm-8.127-6.926c-.862.943-1.4,1.712-2.693,1.712s-1.833-.77-2.66-1.675c0,0-.883-.208,4.4-1.762v.228a1.67,1.67,0,0,0,.947,1.5Zm-9.491-9.057c.773.828,1.153,1.226,1.368,1.469v2.1a4.725,4.725,0,0,1-9.448,0v-1.364a15.121,15.121,0,0,0,8.08-2.208Zm9.625-1.215c.514.55.866.922,1.031,1.1v1.729a3.794,3.794,0,0,1-3.787,3.787,3.873,3.873,0,0,1-3.336-1.756c0-.052,0-2.986,0-3.038a13.174,13.174,0,0,0,6.092-1.827Zm-8.554,11.5.9-.35q.462.508.989,1.083Zm-10.67-3.072v-.731a6.63,6.63,0,0,0,.541.941Zm12.6,0-.716.277a6.818,6.818,0,0,0,.7-1.244l.018.015Zm-11.659,2.688,1,.388-2.1.814Q127.626,251.516,128.133,250.958Zm11.76-13.253a3.848,3.848,0,0,1,7.384-.006c-1.621-.925-2.333,1.595-6.982,1.8A7.142,7.142,0,0,0,139.893,237.7Zm-6.4-2.36a4.738,4.738,0,0,1,4.589,3.925A1.613,1.613,0,0,0,136,239a12.9,12.9,0,0,1-7.29,2.1v-.995A4.746,4.746,0,0,1,133.492,235.345Zm-10.165-.407a3.878,3.878,0,0,1,3.641,2.76c-1.661-.945-2.64,1.888-7.548,1.816v-.688A3.873,3.873,0,0,1,123.327,234.938Zm-3.906,6.744a13.071,13.071,0,0,0,6.684-1.838l.438.468c0,.055,0,4.34,0,4.4a3.876,3.876,0,0,1-7.123-2.03Zm5.6,6.709a1.688,1.688,0,0,0,.947,1.726c-.861.942-1.4,1.712-2.693,1.712s-1.833-.771-2.66-1.675a1.648,1.648,0,0,0,1.031-1.534v-.211a6.293,6.293,0,0,0,3.374-.017Zm-9.689,8.3v-1.484a6.116,6.116,0,0,1,.655-2.746,1.856,1.856,0,0,1,.984-.893l1.48-.574q.61.671,1.351,1.476a4.731,4.731,0,0,0,3.474,1.525h.015a6.663,6.663,0,0,0-1.975,2.806h-5.873a.11.11,0,0,1-.11-.11Zm18.1-1.113c-1.641,0-2.313-.987-3.453-2.235a2.44,2.44,0,0,0,.559-.261,2,2,0,0,0,.791-1.967,7.184,7.184,0,0,0,4.345-.027,2.985,2.985,0,0,0,.094,1.086,1.789,1.789,0,0,0,1.154,1.128C135.778,254.554,135.085,255.577,133.431,255.577Zm18.811,1.105c0,.039,0,.078,0,.117h-6.675a6.65,6.65,0,0,0-1.931-2.807,4.73,4.73,0,0,0,3.425-1.524c.506-.55.968-1.055,1.382-1.51l1.447.561a3.678,3.678,0,0,1,1.453,1.026A7.2,7.2,0,0,1,152.242,256.682Zm0,0" transform="translate(-96.831 -199.167)"/>
    </g>
  </g>
</svg>
