<svg xmlns="http://www.w3.org/2000/svg" xmlns:xlink="http://www.w3.org/1999/xlink" width="292" height="235" viewBox="0 0 292 235">
  <defs>
    <clipPath id="clip-path">
      <rect id="Rectangle_459255" data-name="Rectangle 459255" width="179.59" height="235" fill="none"/>
    </clipPath>
  </defs>
  <g id="img23" transform="translate(-186 -8872.29)">
    <path id="Rectangle_458854" data-name="Rectangle 458854" d="M10,0H282a10,10,0,0,1,10,10V203a0,0,0,0,1,0,0H0a0,0,0,0,1,0,0V10A10,10,0,0,1,10,0Z" transform="translate(186 8904.29)" fill="#f9ce5d"/>
    <circle id="Ellipse_13759" data-name="Ellipse 13759" cx="82" cy="82" r="82" transform="translate(229.686 8892)" fill="#ffe6a5"/>
    <circle id="Ellipse_13760" data-name="Ellipse 13760" cx="35" cy="35" r="35" transform="translate(342.686 9021)" fill="#ffe6a5"/>
    <g id="Group_1184095" data-name="Group 1184095" transform="translate(252.554 8872.29)">
      <g id="Group_1184095-2" data-name="Group 1184095" clip-path="url(#clip-path)">
        <path id="Path_1030800" data-name="Path 1030800" d="M740.573,672.649a2.379,2.379,0,0,1,.173,1.04q-.006,3.709,0,7.418a25.4,25.4,0,0,0-.12,3.065c-.005.131-.03.261-.035.392-.055,1.336-.071,2.675-.171,4.008-.1,1.384-.192,2.769-.317,4.151s-.282,2.762-.469,4.136q-.3,2.218-.7,4.423a57.707,57.707,0,0,1-1.51,6.346,30.658,30.658,0,0,1-3.141,7.287A14.664,14.664,0,0,1,730.743,719a10.124,10.124,0,0,1-4.8,2.042,11.675,11.675,0,0,1-4.521-.281,16.374,16.374,0,0,1-4.935-2.21,28.041,28.041,0,0,1-4.112-3.295,48.486,48.486,0,0,1-5.7-6.712c-1.416-1.96-2.72-3.994-3.963-6.066q-1.884-3.14-3.621-6.365-2.056-3.812-4.164-7.595a1.942,1.942,0,0,1-.279-1.121c.062-.862.118-1.725.188-2.587.108-1.332.213-2.663.342-3.993.142-1.459.308-2.916.47-4.373.153-1.379.308-2.758.474-4.135.235-1.949.484-3.9.721-5.845.07-.572.116-1.147.179-1.72q.258-2.343.523-4.685.227-1.99.468-3.979c.135-1.117.284-2.232.414-3.35.084-.729.141-1.461.215-2.191.048-.469.115-.936.151-1.406a1.5,1.5,0,0,0-.066-.539c-.022-.074-.149-.138-.239-.16a.229.229,0,0,0-.185.109,1.5,1.5,0,0,0-.159.434c-.1.594-.191,1.189-.265,1.786-.183,1.482-.351,2.966-.53,4.448-.189,1.559-.388,3.117-.574,4.676-.13,1.092-.239,2.188-.368,3.28-.184,1.56-.38,3.117-.566,4.677-.074.624-.134,1.251-.2,1.876-.17,1.562-.335,3.124-.511,4.686-.191,1.691-.4,3.379-.584,5.071-.136,1.276-.264,2.552-.367,3.832-.105,1.3-.226,2.608-.315,3.915-.059.863-.074,1.73-.16,2.588-.092.917-.069,1.835-.149,2.748-.058.653-.091,1.306-.125,1.959-.06,1.178-.077,2.361-.195,3.533-.1.964-.056,1.937-.235,2.894a7.039,7.039,0,0,0-.037.787c-.06.836-.11,1.673-.193,2.507-.123,1.25-.28,2.5-.4,3.746-.089.886-.116,1.78-.233,2.662a15.374,15.374,0,0,0-.094,2.119,23.555,23.555,0,0,0,.239,2.972c.121.909.213,1.821.346,2.728.17,1.167.364,2.331.554,3.5.237,1.449.481,2.9.721,4.344s.489,2.894.72,4.344c.186,1.164.351,2.331.528,3.5.247,1.632.5,3.263.744,4.9.128.855.236,1.712.36,2.567.2,1.374.408,2.746.6,4.12.133.934.249,1.87.372,2.8.137,1.038.277,2.076.411,3.115.067.519.13,1.039.185,1.56.126,1.2.237,2.4.372,3.6.126,1.118.275,2.233.41,3.35a1.352,1.352,0,0,1-.033.275,7.714,7.714,0,0,1-1.138.177,16.662,16.662,0,0,0-2.038.134,6.657,6.657,0,0,1-1.258.046c-1.129-.016-2.249.152-3.379.138-1.471-.018-2.943.035-4.415.037-1.077,0-2.16.035-3.23-.064-1.043-.1-2.1-.037-3.131-.234a4.868,4.868,0,0,0-.551-.016,35.891,35.891,0,0,1-3.973-.5c-.255-.047-.5-.135-.755-.2a4.462,4.462,0,0,1-.21-1.014c-.136-1.3-.3-2.6-.445-3.9-.062-.546-.123-1.093-.176-1.64-.126-1.3-.242-2.608-.372-3.911q-.227-2.266-.474-4.531c-.153-1.432-.316-2.862-.468-4.294-.164-1.536-.315-3.074-.484-4.609-.134-1.223-.287-2.443-.43-3.665-.015-.13-.021-.262-.033-.392a.8.8,0,0,1,.283-.707,5.988,5.988,0,0,0,1.626-2.91,3.247,3.247,0,0,0,.074-1.938c-.133-.5-.132-1.038-.221-1.554-.107-.619-.256-1.231-.369-1.849-.358-1.959-.7-3.92-1.06-5.879-.346-1.908-.7-3.814-1.048-5.722-.084-.464-.156-.931-.224-1.4a.733.733,0,0,1,.209-.645,6.634,6.634,0,0,0,1.616-3.106,5.992,5.992,0,0,0,.213-1.709,1.172,1.172,0,0,1,.479-1.077,3.22,3.22,0,0,0,1.173-1.9,2.113,2.113,0,0,0-.5-1.816,6.078,6.078,0,0,1-.644-.723,5.318,5.318,0,0,1,.427-.473,2.383,2.383,0,0,0,.026-3.506c-.193-.212-.4-.415-.615-.644.134-.166.248-.3.359-.444a2.147,2.147,0,0,0,.459-2.059c-.092-.3-.159-.607-.259-.9a.486.486,0,0,1,.051-.515,5.561,5.561,0,0,0,.828-1.776c.918-2.655,1.735-5.341,2.52-8.038.806-2.771,1.507-5.569,2.131-8.385.527-2.381.99-4.776,1.484-7.164q.676-3.273,1.357-6.546.645-3.12,1.283-6.24c.078-.385.121-.777.165-1.168a2.587,2.587,0,0,0-.343-1.591c-.142-.251-.306-.491-.466-.731q-1.7-2.56-3.4-5.117c-.291-.437-.594-.866-.889-1.3a2.251,2.251,0,0,1-.2-.339.478.478,0,0,1,.167-.623c.62-.443,1.248-.874,1.871-1.313a16.672,16.672,0,0,0,2.129-1.743,5.487,5.487,0,0,0,.821-1.052,2.64,2.64,0,0,0,.3-1.979c-.193-.9-.4-1.79-.62-2.681-.432-1.784-.878-3.564-1.308-5.348-.135-.561-.245-1.128-.357-1.694a2.883,2.883,0,0,1-.035-.469.168.168,0,0,1,.213-.164,5.511,5.511,0,0,1,.6.174c3.163,1.2,6.326,2.408,9.431,3.756,1.854.8,3.714,1.6,5.554,2.43,1.41.639,2.795,1.333,4.188,2.009a5.4,5.4,0,0,1,2.253,2.138,27.446,27.446,0,0,1,1.733,3.532c1.456,3.4,2.727,6.876,3.952,10.367,1.19,3.392,2.347,6.8,3.521,10.193q1.749,5.059,3.508,10.115c.563,1.609,1.158,3.207,1.74,4.81a1.651,1.651,0,0,0,.179.434,1.482,1.482,0,0,1,.244,1.121c-.15,1.326-.3,2.652-.448,3.979-.068.625-.117,1.252-.174,1.878-.071.783-.135,1.566-.216,2.348-.083.807-.189,1.611-.273,2.418q-.164,1.563-.311,3.127c-.123,1.3-.237,2.608-.356,3.912-.058.626-.1,1.253-.188,1.876a.8.8,0,0,0,.1.519.287.287,0,0,0,.511,0,2.091,2.091,0,0,0,.186-.6c.084-.755.139-1.513.215-2.269.135-1.354.28-2.707.415-4.06.076-.756.138-1.513.213-2.27.083-.833.176-1.665.263-2.5.055-.521.111-1.042.161-1.563.125-1.3.231-2.609.375-3.911.167-1.51.355-3.016.482-4.531.076-.912.2-1.821.3-2.731.188-1.585.389-3.169.57-4.755.137-1.2.244-2.4.376-3.6.129-1.171.283-2.338.409-3.509.087-.808.145-1.618.22-2.427a3.07,3.07,0,0,1,.086-.619c.056-.182-.1-.478.184-.534.231-.046.339.22.473.365.731.789,1.443,1.6,2.166,2.391.212.233.441.452.664.675.65.652,1.287,1.317,1.956,1.95.953.9,1.929,1.778,2.9,2.665a83.145,83.145,0,0,0,6.679,5.386c1.032.767,2.1,1.493,3.161,2.213.388.263.822.456,1.259.694" transform="translate(-583.103 -543.434)" fill="#f25847"/>
        <path id="Path_1030801" data-name="Path 1030801" d="M36.234,711.581c-.33.063-.608.125-.89.168q-1.979.306-3.96.6c-.078.012-.157.014-.235.02a13.619,13.619,0,0,0-1.643.148.72.72,0,0,1-.669-.138,7.039,7.039,0,0,0-2.955-1.422,14.026,14.026,0,0,0-3.867-.643,2.852,2.852,0,0,1-.387-.059,1.782,1.782,0,0,0-.389-.04,14.693,14.693,0,0,0-4.688.886,1.722,1.722,0,0,0-.391.243.229.229,0,0,0-.067.206c.042.084.13.187.211.2a1.153,1.153,0,0,0,.462-.03c.279-.074.545-.2.825-.263a10.567,10.567,0,0,1,2.878-.37c.787.03,1.58-.008,2.363.062a13.893,13.893,0,0,1,3.966.927,1.485,1.485,0,0,1,.283.135.268.268,0,0,1,.122.17c0,.045-.085.111-.145.132a.643.643,0,0,1-.234.015c-.785-.032-1.568,0-2.356-.077a11.673,11.673,0,0,0-2.514.045,12.713,12.713,0,0,0-2.234.429A10.459,10.459,0,0,0,16,715.088a29.433,29.433,0,0,0-4.788,5.415c-.257.364-.5.741-.73,1.12-.091.146-.036.283.111.4a.252.252,0,0,0,.355-.009,3.693,3.693,0,0,0,.519-.581,31.162,31.162,0,0,1,2.19-2.885,19.6,19.6,0,0,1,4.129-3.862,8.068,8.068,0,0,1,4.446-1.39,2.309,2.309,0,0,0,.546-.045,1.659,1.659,0,0,1,.854,0,1.56,1.56,0,0,0,.388.047c1.524.02,3.049.065,4.572.042,1.072-.016,2.138-.16,3.2-.281,2.477-.281,4.92-.763,7.378-1.157,2.017-.324,4.024-.716,6.038-1.06,2.04-.348,4.086-.665,6.127-1.013,1.937-.331,3.87-.682,5.8-1.028,1.522-.272,3.046-.536,4.565-.826,1.211-.231,2.414-.5,3.622-.746a.81.81,0,0,1,.7.033c-.17.875-.331,1.748-.511,2.618-.361,1.746-.695,3.5-.916,5.266-.127,1.014-.226,2.029-.329,3.044a26.828,26.828,0,0,0-.106,2.748,22.08,22.08,0,0,0,.11,3.143c.085.592.081,1.2.171,1.8a10.478,10.478,0,0,0,1.032,3.531.736.736,0,0,1,.094.295.234.234,0,0,1-.1.192,2.6,2.6,0,0,1-.532.138c-.829.12-1.66.228-2.49.344-1.426.2-2.853.39-4.276.606-2.072.314-4.145.631-6.212.976-1.577.263-3.147.568-4.719.86q-2.782.518-5.562,1.05c-1.416.273-2.83.561-4.244.842q-3.471.688-6.943,1.374c-1.8.352-3.6.7-5.4,1.032-.824.149-1.658.249-2.489.353-.908.114-1.818.269-2.73.293A25.473,25.473,0,0,1,16.5,737.7a14.658,14.658,0,0,1-3.22-.692A11.113,11.113,0,0,1,9.6,734.935a7.073,7.073,0,0,1-2.428-4.3,16.923,16.923,0,0,1-.041-4.7c.093-.861.2-1.717.348-2.569.179-1.059.351-2.12.558-3.174.383-1.955.784-3.907,1.186-5.859q.524-2.542,1.068-5.08c.712-3.333,1.415-6.667,2.148-10,.423-1.921.892-3.831,1.354-5.743.69-2.856,1.369-5.716,2.1-8.562.987-3.863,2.089-7.7,3.181-11.53.877-3.078,1.752-6.157,2.6-9.243.758-2.755,1.464-5.525,2.22-8.28q.6-2.2,1.307-4.373a21.188,21.188,0,0,1,1.21-2.988,9.784,9.784,0,0,1,3.735-4.057,35.72,35.72,0,0,1,3.989-2.049c3.661-1.646,7.373-3.175,11.079-4.718,2.2-.918,4.387-1.878,6.581-2.819a2.8,2.8,0,0,1,.366-.143.281.281,0,0,1,.217.021.232.232,0,0,1,.055.2c-.17.579-.356,1.153-.527,1.731a44.757,44.757,0,0,1-1.713,4.733,6.976,6.976,0,0,0-.255.743,1.266,1.266,0,0,0,.49,1.523,6.43,6.43,0,0,0,1.162.655c.723.31,1.464.577,2.2.854.681.256.715.382.23.9-.773.827-1.639,1.553-2.482,2.3-.353.314-.7.636-1.022.982a2.752,2.752,0,0,0-.771,1.521,2.194,2.194,0,0,0,0,.536,8.013,8.013,0,0,0,.884,2.515c.5,1.073,1.035,2.125,1.547,3.19.409.851.809,1.708,1.2,2.565a2.478,2.478,0,0,1,.169.522.21.21,0,0,1-.123.166,5.14,5.14,0,0,1-.629.028c-4,0-7.994,0-11.991,0q-3.746.008-7.491.053c-.575.006-1.149.063-1.722.115a2.125,2.125,0,0,0-.528.148,4.066,4.066,0,0,0-1.994,1.7,5.654,5.654,0,0,0-.7,4.532c.236,1.369.494,2.733.742,4.1.309,1.7.624,3.4.925,5.105.346,1.962.675,3.926,1.021,5.888.373,2.117.757,4.232,1.136,6.347q.527,2.94,1.056,5.88c.346,1.908.707,3.813,1.048,5.722.346,1.935.671,3.873,1.014,5.809.229,1.29.476,2.577.708,3.866.089.49.163.983.235,1.476a2.239,2.239,0,0,1-.027.395" transform="translate(-6.079 -551.871)" fill="#ec6740"/>
        <path id="Path_1030802" data-name="Path 1030802" d="M274,1474.293c.037.258.071.411.079.566.062,1.178.1,2.358.186,3.534q.079,1.059.117,2.118c.051,1.362.151,2.723.212,4.085q.051,1.137.1,2.277c.012.315.029.629.04.944a11.545,11.545,0,0,0,.088,1.726,6.7,6.7,0,0,1,.016,1.26,1.864,1.864,0,0,1-.04.277c-.081.039-.126.08-.171.08q-44.376.012-88.751.017c-.128,0-.257-.015-.346-.021-.16-.149-.072-.272-.06-.4.022-.234.034-.471.037-.707.019-1.261-.027-2.528.071-3.783a26.056,26.056,0,0,1,.231-2.973,5.46,5.46,0,0,0,.024-.551c.118-1.33.227-2.662.365-3.99.14-1.354.3-2.707.471-4.058.09-.728.208-1.453.323-2.177a5.665,5.665,0,0,1,.163-.689c.155-.53.253-.592.791-.439a55.249,55.249,0,0,0,6.623,1.35c1.553.241,3.1.5,4.658.722,1.4.2,2.806.359,4.208.545s2.8.4,4.2.567c1.248.149,2.5.252,3.752.376.859.086,1.715.2,2.576.252.944.053,1.891.051,2.837.056a3.213,3.213,0,0,0,1.155-.21.391.391,0,0,0,.269-.357c.052-1.02.1-2.041.154-3.061.044-.863.092-1.726.138-2.589.06-1.125.071-2.256.192-3.375.113-1.042.055-2.095.234-3.132a7.88,7.88,0,0,0,.029-.866c.062-1.046.078-2.1.212-3.136.121-.937.047-1.887.237-2.817a5.185,5.185,0,0,0,.019-.708c.064-1.047.1-2.1.212-3.138.08-.784.085-1.571.163-2.352.07-.705.08-1.413.153-2.115s.109-1.41.156-2.116c.015-.228.112-.308.364-.321.157-.008.315-.005.473-.005l19.246-.05c.447,0,.894.006,1.341,0a5.175,5.175,0,0,0,1.487-.1.523.523,0,0,1,.157-.009q2.207.022,4.413.044c.1,0,.205-.021.308-.022.312,0,.625,0,.968,0a9.232,9.232,0,0,1,.232,1.552c.171,1.351.32,2.7.468,4.058.069.625.107,1.253.175,1.878.145,1.327.3,2.652.451,3.979.061.546.116,1.094.169,1.641.073.756.134,1.514.214,2.269.127,1.2.268,2.392.4,3.589.063.572.118,1.146.18,1.719.155,1.432.314,2.863.467,4.295.078.729.155,1.459.211,2.191a1.417,1.417,0,0,0,.611,1.21,2.326,2.326,0,0,0,.646.272,13.319,13.319,0,0,0,1.461.308c1.038.141,2.078.27,3.118.394.912.11,1.829.092,2.739.224a15.293,15.293,0,0,0,2.125.069q3.037.011,6.075,0a18.166,18.166,0,0,0,2.361-.071c.734-.1,1.469-.03,2.2-.127a5.609,5.609,0,0,1,.821.014" transform="translate(-161.219 -1256.178)" fill="#312854"/>
        <path id="Path_1030803" data-name="Path 1030803" d="M234.233,866.515a7.119,7.119,0,0,1-.8,0,8.324,8.324,0,0,0-2.5.014,4.619,4.619,0,0,1-.472.02,20.807,20.807,0,0,0-6.224,1.225,7.319,7.319,0,0,0-3.928,3.573,23.485,23.485,0,0,0-1.222,2.985,26.477,26.477,0,0,1-1.488,3.554,8.5,8.5,0,0,1-1.876,2.413,5.2,5.2,0,0,1-1.455.93,13.083,13.083,0,0,1-2.629.8c-2.19.4-4.377.83-6.568,1.228-1.366.248-2.739.46-4.108.693-1.318.225-2.633.46-3.95.686-1.42.243-2.842.481-4.262.721q-1.551.262-3.1.526-2.091.358-4.182.721c-.491.085-.98.18-1.47.266a.736.736,0,0,1-.309.022.351.351,0,0,1-.224-.183c-.081-.3-.133-.614-.188-.923q-.39-2.167-.776-4.334c-.22-1.239-.431-2.479-.653-3.718-.3-1.7-.618-3.4-.921-5.107-.225-1.265-.436-2.532-.662-3.8-.3-1.677-.612-3.352-.912-5.029-.281-1.574-.546-3.151-.827-4.725-.346-1.935-.7-3.868-1.053-5.8-.228-1.264-.448-2.529-.674-3.794q-.458-2.554-.922-5.107c-.162-.9-.363-1.8-.47-2.711a4.931,4.931,0,0,1,.824-3.6,3,3,0,0,1,1.336-1.068,5.968,5.968,0,0,1,1.306-.241,3.919,3.919,0,0,1,.552,0q6.982,0,13.964,0,8.4-.015,16.8-.048c2.439-.219,4.883-.078,7.325-.1s4.892,0,7.337-.006a5.229,5.229,0,0,1,3.967,1.784,3.2,3.2,0,0,1,.8,1.681q.474,2.711.956,5.421.439,2.479.882,4.956c.293,1.651.581,3.3.879,4.954.344,1.908.7,3.815,1.044,5.724.232,1.29.449,2.582.674,3.873.058.336.127.67.175,1.007a4.231,4.231,0,0,1,0,.531" transform="translate(-152.465 -727.349)" fill="#dbdbdb"/>
        <path id="Path_1030804" data-name="Path 1030804" d="M320.32,117.633a5.2,5.2,0,0,1-3.464-2.12,8.337,8.337,0,0,1-1.48-3.194,9.948,9.948,0,0,1-.093-4.527,4.391,4.391,0,0,1,.93-1.893,2.47,2.47,0,0,1,3.632-.221,5.7,5.7,0,0,1,.72.928c.337.55.319.561.989.8a20.222,20.222,0,0,0,5.943-4.462,21.639,21.639,0,0,0,3.139-4.518,52.271,52.271,0,0,0,2.2-4.792c.949-2.306,1.886-4.617,2.839-6.921.271-.654.582-1.291.876-1.936a1.3,1.3,0,0,1,.073-.14.251.251,0,0,1,.446.005c.269.6.546,1.193.772,1.807.546,1.476,1.048,2.969,1.6,4.442a16.845,16.845,0,0,0,1.615,3.238,14.457,14.457,0,0,0,3.38,3.6,25.077,25.077,0,0,0,7.271,3.862c.77.262,1.552.49,2.328.732.125.039.258.056.378.107a.277.277,0,0,1,.156.162.255.255,0,0,1-.1.2c-.1.079-.244.113-.338.2a3.442,3.442,0,0,0-.531.569.743.743,0,0,0,.053.947,1.55,1.55,0,0,0,.833.557,6.03,6.03,0,0,0,1.326.151,8.355,8.355,0,0,1,1.411.072,3.9,3.9,0,0,1,1.515.622,4.89,4.89,0,0,0,1.108.588,1.1,1.1,0,0,0,1.224-.3,1.01,1.01,0,0,0,.2-1.236,2.727,2.727,0,0,0-.447-.638c-.248-.268-.532-.5-.795-.759a.156.156,0,0,1-.013-.144.159.159,0,0,1,.123-.076,3.438,3.438,0,0,1,1.4.466,13.729,13.729,0,0,1,2.256,1.708c.552.485,1.1.973,1.623,1.49a5.375,5.375,0,0,1,1.307,2.038c.122.346.215.7.349,1.044a2.667,2.667,0,0,0,.343.613.876.876,0,0,0,.768.33,3.292,3.292,0,0,0,1.236-.2,2.5,2.5,0,0,1,1.473-.11,1.977,1.977,0,0,1,1.5,1.264,3.663,3.663,0,0,1,.306,1.453,9.826,9.826,0,0,1-2.823,7.2,9.252,9.252,0,0,1-3.158,2.033c-.146.059-.3.1-.449.149-.187.055-.429.016-.429-.072a1.029,1.029,0,0,1,.074-.37c.279-.708.57-1.412.848-2.12a2.4,2.4,0,0,0,.138-.528.657.657,0,0,0-.056-.3.273.273,0,0,0-.453-.083,2.84,2.84,0,0,0-.3.545c-.371.9-.709,1.808-1.1,2.695-.564,1.271-1.138,2.54-1.756,3.785a28.485,28.485,0,0,1-4.02,6.1,26.628,26.628,0,0,1-6.628,5.65,17.97,17.97,0,0,1-6.562,2.312,16.185,16.185,0,0,1-4,.075,15.647,15.647,0,0,1-3.735-.9,25.891,25.891,0,0,1-4.87-2.387,23.092,23.092,0,0,1-3.367-2.588,27.508,27.508,0,0,1-5.84-7.95,32.948,32.948,0,0,1-2.931-8.779,22.909,22.909,0,0,1-.36-2.568c-.035-.469-.111-.935-.11-1.408a.311.311,0,0,0-.069-.218.641.641,0,0,0-.33-.166c-.067,0-.149.127-.21.207a.273.273,0,0,0-.033.151,13.915,13.915,0,0,0,.1,2.28,3.861,3.861,0,0,1,.048,1.453m15.783-6.489a4.777,4.777,0,0,0-.3-1.156,2.319,2.319,0,0,0-.913-1.049,2.132,2.132,0,0,0-2.3-.094,3.327,3.327,0,0,0-1.624,3.254,2.47,2.47,0,0,0,1.732,2.213,2.2,2.2,0,0,0,2.435-.6,4.036,4.036,0,0,0,.965-2.569M333.592,99.5c-.106,0-.29-.009-.473,0a4.641,4.641,0,0,0-2.607.974,2.045,2.045,0,0,0-.767,1.067.725.725,0,0,0,.011.457.911.911,0,0,0,1.017.681,8.3,8.3,0,0,0,1.527-.351,4.331,4.331,0,0,1,.762-.159,5.9,5.9,0,0,1,2.323.277,3.9,3.9,0,0,0,.677.2,1.525,1.525,0,0,0,1.4-.273.97.97,0,0,0,.1-1.51,2.892,2.892,0,0,0-.865-.668,6.246,6.246,0,0,0-3.1-.692m15.279,18.036a2.721,2.721,0,0,0-.237-1.1,4.18,4.18,0,0,0-1.2-1.628c-.295-.26-.6-.512-.882-.782a1.58,1.58,0,0,1-.534-1.26,5.9,5.9,0,0,1,.176-1.556c.146-.475.271-.957.41-1.434.051-.176.121-.346.17-.523a.365.365,0,0,0-.217-.444.393.393,0,0,0-.381.218,1.2,1.2,0,0,0-.1.214c-.206.621-.438,1.236-.6,1.867a5.712,5.712,0,0,0-.224,1.787,2.394,2.394,0,0,0,.388,1.178,4.954,4.954,0,0,0,1.163,1.159,4.108,4.108,0,0,1,.919,1.065,2.164,2.164,0,0,1,.356,1.5,2.422,2.422,0,0,1-.892,1.609,2.457,2.457,0,0,0-.474.51.255.255,0,0,0,.076.351.526.526,0,0,0,.287.078.379.379,0,0,0,.213-.09,4.106,4.106,0,0,0,1.286-1.461,2.864,2.864,0,0,0,.293-1.255m22.378-2.772c.3-.281.319-.362.186-.536a1.251,1.251,0,0,0-1.241-.516,3.171,3.171,0,0,0-.679.187,3.853,3.853,0,0,0-1.554,1.032.444.444,0,0,0,.209.748c.172.056.359.066.537.106a3.125,3.125,0,0,1,.526.146.76.76,0,0,1,.416.974,1.433,1.433,0,0,1-.65.853c-.2.118-.406.239-.6.371a.384.384,0,0,0-.137.416.378.378,0,0,0,.458.2,2.552,2.552,0,0,0,1.7-1.717,1.373,1.373,0,0,0,0-.769,1.5,1.5,0,0,0-.75-.962c-.139-.073-.286-.13-.426-.2a.154.154,0,0,1-.022-.258c.618-.386,1.242-.713,1.926-.129a.578.578,0,0,0,.106.049M318.9,109.818c-.24.1-.462.183-.666.3a1.68,1.68,0,0,0-.872,1.157,2.637,2.637,0,0,0,.634,2.2.356.356,0,0,0,.434.06.337.337,0,0,0,.143-.409c-.093-.217-.2-.428-.305-.639a1.639,1.639,0,0,1-.135-1.073.815.815,0,0,1,.655-.7,3.931,3.931,0,0,0,.46-.091.676.676,0,0,0,.454-.815,3.346,3.346,0,0,0-.836-1.584,1.444,1.444,0,0,0-1.5-.467,5.23,5.23,0,0,0-.907.454.352.352,0,0,0-.1.119.253.253,0,0,0-.017.292.263.263,0,0,0,.325.153,6.388,6.388,0,0,0,.637-.3.817.817,0,0,1,.891.082,1.814,1.814,0,0,1,.706,1.269" transform="translate(-273.934 -73.472)" fill="#ea916e"/>
        <path id="Path_1030805" data-name="Path 1030805" d="M1044.226,411.222c0,.342.007.684,0,1.026-.027,1.077.12,2.146.163,3.219a7.192,7.192,0,0,0,.179,1.162,4.314,4.314,0,0,0,1.609,2.454c.668.552,1.32,1.12,1.938,1.731a14.906,14.906,0,0,1,2.564,3.376c.548.987,1.051,2,1.585,2.992a4.661,4.661,0,0,0,.437.647.273.273,0,0,0,.359.05.325.325,0,0,0,.181-.388,4.752,4.752,0,0,0-.241-.582c-.543-1.02-1.087-2.039-1.644-3.051a16.874,16.874,0,0,0-3.977-4.739c-.46-.389-.9-.806-1.335-1.222-.177-.168-.156-.268-.016-.479a9.64,9.64,0,0,0,.532-.867c.907-1.748,1.8-3.5,2.7-5.251q1.067-2.065,2.146-4.123,1.15-2.2,2.309-4.39c.586-1.115,1.162-2.236,1.758-3.346,1.255-2.335,2.5-4.675,3.956-6.9a12.276,12.276,0,0,1,1.76-2.217,3.351,3.351,0,0,1,1.483-.856,1.016,1.016,0,0,1,1.241.566,2.135,2.135,0,0,1,.191.916,8.338,8.338,0,0,1-.273,2.338,29.2,29.2,0,0,1-1.238,3.812c-1.12,2.86-2.371,5.664-3.6,8.478-.4.913-.767,1.839-1.143,2.762a2.667,2.667,0,0,0-.188.6.469.469,0,0,0,.244.463.373.373,0,0,0,.446-.023,3.719,3.719,0,0,0,.552-.556c.59-.771,1.179-1.544,1.742-2.336q3.217-4.527,6.419-9.066c.972-1.371,1.964-2.728,3.064-4a17.452,17.452,0,0,1,1.473-1.418,1.661,1.661,0,0,1,.846-.395,1.421,1.421,0,0,1,1.7,1.322,4.42,4.42,0,0,1-.22,1.705,16.662,16.662,0,0,1-1.111,2.6c-1.224,2.447-2.69,4.751-4.134,7.069q-2.312,3.711-4.639,7.413a1.567,1.567,0,0,0-.233.489.473.473,0,0,0,.141.339.236.236,0,0,0,.352-.019,3.782,3.782,0,0,0,.438-.55q1.452-2.3,2.89-4.6c1.359-2.185,2.726-4.367,4.061-6.567a32.884,32.884,0,0,0,2.78-5.378.467.467,0,0,1,.4-.329c.285-.045.567-.112.852-.148a2.215,2.215,0,0,1,1.152.194,1.057,1.057,0,0,1,.62.942,4.906,4.906,0,0,1-.1,1.643,18,18,0,0,1-.954,2.664,40.906,40.906,0,0,1-2.049,3.99c-1.437,2.567-3.007,5.054-4.554,7.556q-.559.9-1.091,1.824a7.76,7.76,0,0,0-.377.779.476.476,0,0,0,.165.563.414.414,0,0,0,.576.051c.535-.378,1.069-.761,1.569-1.184,2.142-1.813,4.25-3.668,6.453-5.408a22.4,22.4,0,0,1,2.726-1.869,5.356,5.356,0,0,1,1.316-.507,1.279,1.279,0,0,1,.39-.033.631.631,0,0,1,.6.759,5.237,5.237,0,0,1-.6,1.7,25.2,25.2,0,0,1-1.891,2.807c-1.37,1.8-2.864,3.488-4.333,5.2-.7.816-1.4,1.634-2.063,2.479a17.946,17.946,0,0,0-2.588,4.4c-.538,1.339-1.064,2.683-1.613,4.017a35.94,35.94,0,0,1-5.913,9.716,29.792,29.792,0,0,1-3.472,3.432,3.769,3.769,0,0,0-.29.266.726.726,0,0,1-.619.266c-.279-.019-.392.112-.4.37-.027.812-.135,1.617-.128,2.433.015,1.735-.024,3.469-.041,5.2-.189,1.014-.051,2.044-.144,3.063-.014.157-.01.315-.014.473a7.871,7.871,0,0,1-.1,1.8,1.323,1.323,0,0,0-.007.315q-.025,3.746-.05,7.492c0,.6,0,1.21,0,1.815,0,.131-.007.262-.017.393a.162.162,0,0,1-.239.114c-.286-.184-.58-.361-.849-.569-1.392-1.074-2.8-2.134-4.16-3.242q-1.588-1.289-3.091-2.682c-1.156-1.071-2.266-2.192-3.393-3.294-.376-.368-.752-.736-1.115-1.117-.887-.931-1.765-1.872-2.653-2.8a.705.705,0,0,1-.233-.558,6,6,0,0,1,.093-1.488,1.434,1.434,0,0,0,.016-.393c.017-1-.01-2,.065-2.994.055-.732.074-1.464.123-2.2.005-.079.014-.157.018-.236q.081-1.886.161-3.772a.913.913,0,0,1,.031-.311,2.386,2.386,0,0,0,.082-1.319c-.167-1.193-.318-2.389-.526-3.575-.316-1.807-.683-3.605-1.013-5.41-.367-2.011-.738-4.021-1.066-6.038-.223-1.37-.38-2.75-.555-4.127-.1-.778-.19-1.558-.259-2.34-.044-.5-.054-1-.057-1.5-.008-1.131-.015-2.262,0-3.393a13.127,13.127,0,0,1,.667-4.018,6.112,6.112,0,0,1,.727-1.479,2.94,2.94,0,0,1,.829-.831,1.212,1.212,0,0,1,1.87.446,4.4,4.4,0,0,1,.355.873,11.473,11.473,0,0,1,.365,2.008c.1.968.134,1.935.145,2.905" transform="translate(-903.577 -338.587)" fill="#ea916e"/>
        <path id="Path_1030806" data-name="Path 1030806" d="M381.11,41.431c0,.951,0,1.634,0,2.318a2.716,2.716,0,0,1-.029.392.167.167,0,0,1-.089.112.2.2,0,0,1-.145-.02.351.351,0,0,1-.108-.11,3.18,3.18,0,0,0-3.68-1.257,2.654,2.654,0,0,1-.922.176.481.481,0,0,1-.478-.332c-.025-.075-.068-.144-.086-.22a10.527,10.527,0,0,0-1.121-2.424,1.549,1.549,0,0,0-.264-.389,28.73,28.73,0,0,0-4.178-3.581,5.114,5.114,0,0,0-1.81-.733,14.19,14.19,0,0,0-1.479-.205,28.477,28.477,0,0,1-5.174-.928,28.119,28.119,0,0,1-4.916-1.876,21.481,21.481,0,0,1-4.721-3.112,12.952,12.952,0,0,1-3.472-4.816c-.576-1.408-1.075-2.846-1.609-4.271a30.763,30.763,0,0,0-1.568-3.61,3.7,3.7,0,0,0-.193-.343.358.358,0,0,0-.64.019,3.008,3.008,0,0,0-.244.4c-.547,1.135-1.127,2.256-1.624,3.413-.932,2.169-1.812,4.36-2.72,6.54a48.515,48.515,0,0,1-2.33,4.9,19.982,19.982,0,0,1-4.042,5.106,18.47,18.47,0,0,1-3.659,2.582,1.38,1.38,0,0,1-.216.094.451.451,0,0,1-.551-.173c-.219-.294-.415-.61-.656-.884a3.139,3.139,0,0,0-2.636-1.16,4.037,4.037,0,0,0-.766.166c-.177.046-.345.124-.522.172a.24.24,0,0,1-.323-.236,5.642,5.642,0,0,1,.055-1.413,1.982,1.982,0,0,0,.039-.468,22.382,22.382,0,0,1,.41-3.59,29.5,29.5,0,0,1,1.674-5.893,31.853,31.853,0,0,1,2.633-5.187,27.858,27.858,0,0,1,3.21-4.181,25.07,25.07,0,0,1,6.052-4.869,9.5,9.5,0,0,1,2.773-1.087,9.134,9.134,0,0,1,1.092-.109.358.358,0,0,1,.339.156c.2.287.432.218.684.067.36-.216.724-.426,1.1-.621a23.838,23.838,0,0,1,6.943-2.464,17.281,17.281,0,0,1,4.155-.231,19.772,19.772,0,0,1,3.941.694,25.415,25.415,0,0,1,9.059,4.612,29,29,0,0,1,4.661,4.672,36.264,36.264,0,0,1,4.277,6.69,32.414,32.414,0,0,1,2.331,6.343,57.674,57.674,0,0,1,1.172,6.019c.117.8.122,1.621.229,2.425a24.565,24.565,0,0,1,.149,2.718m-15.168-14.4a1.241,1.241,0,0,0-.068-.256,3.934,3.934,0,0,0-.284-.472,29.225,29.225,0,0,1-2.621-4.478,35.479,35.479,0,0,0-1.945-3.508,12.778,12.778,0,0,0-2.037-2.493,14.928,14.928,0,0,0-4.01-2.6.788.788,0,0,0-.371-.1.515.515,0,0,0-.315.185c-.035.044.014.219.077.265a5.088,5.088,0,0,0,.725.458,14.556,14.556,0,0,1,2.655,1.68,13.693,13.693,0,0,1,3.219,3.941c.635,1.117,1.218,2.264,1.787,3.416a30.2,30.2,0,0,0,2.281,3.767,1.981,1.981,0,0,0,.441.438.329.329,0,0,0,.284-.018c.081-.043.129-.15.183-.218m-31.768-2.458a2.183,2.183,0,0,0-.072-.259.276.276,0,0,0-.5-.068,2.5,2.5,0,0,0-.3.634q-.48,1.7-.931,3.414c-.5,1.876-1.1,3.719-1.778,5.537-.338.908-.732,1.8-1.1,2.694a2.165,2.165,0,0,0-.161.52.321.321,0,0,0,.156.244.293.293,0,0,0,.275-.014,2.556,2.556,0,0,0,.39-.578c.728-1.6,1.39-3.228,1.959-4.892.73-2.136,1.275-4.326,1.89-6.5.064-.227.1-.461.163-.735" transform="translate(-281.804 -6.28)" fill="#312854"/>
        <path id="Path_1030807" data-name="Path 1030807" d="M181.645,1432.874c.007-.793,0-1.518.069-2.255.239-2.4.715-4.768,1.117-7.145.349-2.067.672-4.139,1.012-6.208.281-1.706.577-3.409.853-5.116.2-1.242.377-2.487.565-3.731q.265-1.749.53-3.5c.039-.259.068-.52.1-.78.045-.344.151-.477.464-.543.539-.113,1.079-.216,1.619-.323l3.7-.729c.077-.015.152-.044.229-.055.332-.051.477.053.556.389a.778.778,0,0,1,.015.077,6.275,6.275,0,0,0,2.193,3.807,6.771,6.771,0,0,0,1.913,1.078,5.366,5.366,0,0,0,2.448.485c.919-.031,1.841,0,2.761-.008q6.231-.023,12.462-.052c.234,0,.468-.045.7-.063s.471-.038.706-.037c.3,0,.384.091.366.374-.051.784-.115,1.567-.165,2.351-.064.994-.066,2-.193,2.981-.121.937-.05,1.885-.233,2.816a6.514,6.514,0,0,0-.038.865c-.06,1.02-.073,2.046-.2,3.058-.119.938-.057,1.886-.237,2.818a7.161,7.161,0,0,0-.039.944c-.058,1.02-.068,2.047-.2,3.058-.135,1.068-.051,2.147-.238,3.21a8.586,8.586,0,0,0-.048,1.1c-.057,1.284-.108,2.568-.176,3.851-.032.6-.129,1.2-.123,1.8a.24.24,0,0,1-.261.239,22.137,22.137,0,0,1-3.067-.066c-.283-.045-.578-.011-.865-.036-1.956-.17-3.912-.332-5.857-.612-.933-.134-1.873-.216-2.808-.338-1.09-.142-2.178-.305-3.267-.455-.883-.121-1.768-.224-2.649-.356-1.58-.236-3.156-.5-4.736-.73-1.479-.22-2.945-.507-4.4-.832a39.775,39.775,0,0,1-4.092-1.137c-.148-.05-.289-.12-.488-.2" transform="translate(-157.93 -1219.379)" fill="#f25847"/>
        <path id="Path_1030808" data-name="Path 1030808" d="M297.045,1283.13c.372-.106.694-.216,1.025-.289a18.756,18.756,0,0,1,4.6-.536c1.182.034,2.369-.027,3.544.073,1.017.087,2.039.081,3.053.219a19.542,19.542,0,0,0,1.966.077,4.782,4.782,0,0,1,1.252.089,1.04,1.04,0,0,0,.547,0,5.144,5.144,0,0,1,1.173-.091,11.07,11.07,0,0,0,3.522-.75,15.2,15.2,0,0,0,2.883-1.441c.154-.1.3-.206.462-.3a.327.327,0,0,1,.534.228c.069.387.123.777.193,1.164.405,2.243.817,4.485,1.219,6.729q.561,3.134,1.1,6.271a6.942,6.942,0,0,1,.071,1.02c.011.526,0,1.052,0,1.578a5.7,5.7,0,0,1-.382,2,2.884,2.884,0,0,1-.669,1.057,1.7,1.7,0,0,1-1.244.584c-.288,0-.577.032-.865.032q-4.969,0-9.937,0a4.526,4.526,0,0,0-1.253.086,2.375,2.375,0,0,1-.628.02c-2.287,0-4.574-.006-6.861,0-2.549.009-5.1.039-7.647.046-2.732.009-5.464,0-8.2,0a4.5,4.5,0,0,0-1.253.085,2.057,2.057,0,0,1-.549.02c-2.918,0-5.836.016-8.754-.007a8.439,8.439,0,0,1-3.06-.642,4.366,4.366,0,0,1-2.034-1.794,6.03,6.03,0,0,1-.947-2.479.32.32,0,0,1,.276-.4q1.274-.246,2.55-.484,2.319-.431,4.638-.856,1.584-.29,3.17-.57c1.135-.2,2.27-.4,3.407-.583.9-.146,1.813-.272,2.72-.4q2.02-.292,4.041-.578c.8-.113,1.611-.207,2.413-.331.595-.092,1.185-.217,1.776-.332a2.644,2.644,0,0,0,1.056-.507.6.6,0,0,0,.272-.535,2.149,2.149,0,0,1,.1-.609,18.547,18.547,0,0,0,.546-3.329c.1-1.149.13-2.3.165-3.541" transform="translate(-234.668 -1112.988)" fill="#dbdbdb"/>
        <path id="Path_1030809" data-name="Path 1030809" d="M480.852,1093.157a2.182,2.182,0,0,1,.066.483,6.378,6.378,0,0,1-1.533,3.718,8.945,8.945,0,0,1-2.052,1.7,13.056,13.056,0,0,1-3.834,1.6,10.667,10.667,0,0,1-2.493.3c-1.235-.008-2.475.038-3.7-.069-1.016-.088-2.042-.046-3.051-.231a7.127,7.127,0,0,0-.943-.046c-.863-.041-1.726-.118-2.59-.118a22.723,22.723,0,0,0-4.76.5,26.693,26.693,0,0,0-4.593,1.363,2.483,2.483,0,0,1-.294.092c-.021.006-.049-.012-.073-.018a.432.432,0,0,1-.059-.143,23.911,23.911,0,0,1,.006-2.68c.1-.964.1-1.932.226-2.9q.252-1.99.575-3.967c.225-1.371.487-2.735.731-4.1.069-.387.121-.778.2-1.162a.743.743,0,0,1,.585-.638,6.786,6.786,0,0,0,2.724-1.526,9.3,9.3,0,0,0,1.71-2.146,19.88,19.88,0,0,0,1.415-3.157c.383-1,.732-2.023,1.141-3.017a7.263,7.263,0,0,1,1.371-2.192,5.637,5.637,0,0,1,1.4-1.126,11.02,11.02,0,0,1,3.25-1.151,24.566,24.566,0,0,1,5.471-.52c.315.009.631.01.947,0a5.993,5.993,0,0,1,3.087.79c.484.262.944.569,1.413.858q1.407.868,2.813,1.741c.334.208.667.42.994.64a2.1,2.1,0,0,1,.36.3.6.6,0,0,1-.089.952,2.879,2.879,0,0,1-.85.4,7.961,7.961,0,0,1-2.1.2,10.562,10.562,0,0,1-4.17-1.03,6.585,6.585,0,0,0-3.3-.566,6.556,6.556,0,0,1-2.187-.113,1.733,1.733,0,0,0-1.791.544.428.428,0,0,0,.142.711,1.93,1.93,0,0,0,.606.138,7.535,7.535,0,0,0,1.025,0,17.993,17.993,0,0,1,5.677.666,19.628,19.628,0,0,0,2.7.517,13.288,13.288,0,0,0,1.885-.023c.5-.019.993-.069,1.49-.1a1.265,1.265,0,0,1,1.254.786,4.154,4.154,0,0,1,.443,1.739,1.2,1.2,0,0,1-.382,1,4.51,4.51,0,0,1-.769.54,15.712,15.712,0,0,1-3.009,1.156c-.729.211-1.473.37-2.211.553-.076.019-.151.044-.226.07-.215.075-.364.246-.335.382a.534.534,0,0,0,.544.358,4.56,4.56,0,0,0,.541-.1,25.877,25.877,0,0,0,4.407-1.438,1.028,1.028,0,0,1,1.283.231,2.205,2.205,0,0,1,.672,1.463,1.538,1.538,0,0,1-.606,1.383,8.738,8.738,0,0,1-1.038.714,34.14,34.14,0,0,1-3.2,1.691q-.717.324-1.423.671c-.276.136-.382.3-.332.472.061.2.305.308.6.2a12.817,12.817,0,0,0,1.3-.562c1.005-.512,2-1.042,3-1.573.507-.27.681-.247,1.117.141a1.676,1.676,0,0,1,.327,2.211,3.5,3.5,0,0,1-1.076,1.136,19.9,19.9,0,0,1-1.731,1.092c-.873.481-1.771.916-2.658,1.372-.21.108-.42.218-.625.335a.623.623,0,0,0-.245.191.637.637,0,0,0-.08.36c.016.142.21.232.379.2a1.032,1.032,0,0,0,.3-.089c1.279-.67,2.554-1.345,3.833-2.015a3.2,3.2,0,0,1,.4-.142" transform="translate(-392.034 -932.036)" fill="#ea916e"/>
        <path id="Path_1030810" data-name="Path 1030810" d="M456.919,647.916c.176.083.32.135.449.213a17.393,17.393,0,0,0,6.421,2.247,21.986,21.986,0,0,0,5.339.155,22.643,22.643,0,0,0,8.2-2.312,17.754,17.754,0,0,0,3.29-2c.244-.2.471-.417.71-.621.149-.128.325-.085.357.094a7.175,7.175,0,0,1,.122.852c.032.524-.005,1.055.066,1.573.09.653.091,1.306.118,1.96.061,1.545.148,3.09.2,4.636.037.994.075,1.989.111,2.984.012.341.019.683.029,1.024a5.447,5.447,0,0,0,.1,1.488.877.877,0,0,1,.009.236c.017.919.031,1.838.052,2.758a8.587,8.587,0,0,0,.1,1.961,1.045,1.045,0,0,1,.006.236c.017,1.182.032,2.364.051,3.546a5.047,5.047,0,0,0,.093,1.409,1.168,1.168,0,0,1,.013.314q.026,2.207.052,4.414a4.269,4.269,0,0,0,.09,1.252,1.394,1.394,0,0,1,.016.393q.026,3.39.052,6.78a4.192,4.192,0,0,0,.086,1.173,2.006,2.006,0,0,1,.02.549q0,4.812,0,9.623c-.211,1.646-.034,3.3-.15,4.954-.037.523-.006,1.051-.008,1.577,0,.158,0,.315-.013.473a.227.227,0,0,1-.281.193,1.792,1.792,0,0,1-.351-.166A11.21,11.21,0,0,0,480,700.72c-.063-.236-.149-.482-.194-.735-.235-1.315-.458-2.633-.689-3.949q-.319-1.82-.647-3.638c-.242-1.34-.49-2.679-.731-4.02-.291-1.625-.575-3.251-.864-4.877q-.448-2.514-.9-5.028c-.267-1.5-.526-2.993-.8-4.487a3.632,3.632,0,0,0-.649-1.507c-.343-.463-.735-.889-1.116-1.322a1.543,1.543,0,0,0-.365-.3,12.979,12.979,0,0,0-2.177-1.09,1.825,1.825,0,0,0-.612-.1q-3.115-.011-6.23,0c-1.129,0-2.259.031-3.388.047-.208,0-.415,0-.642,0a5.9,5.9,0,0,1-.234-.613c-.4-1.549-.713-3.117-.984-4.693s-.489-3.156-.669-4.744c-.162-1.43-.327-2.86-.466-4.292-.113-1.171-.278-2.337-.406-3.508-.074-.677-.116-1.356-.182-2.034-.051-.521-.12-1.04-.172-1.561a1.864,1.864,0,0,1,.039-.351" transform="translate(-397.23 -561.246)" fill="#fff"/>
        <path id="Path_1030811" data-name="Path 1030811" d="M658.638,593.246c.115,1.143.392,2.233.6,3.336.342,1.779.779,3.536,1.218,5.292.172.687.311,1.382.477,2.07a2.337,2.337,0,0,1-.606,2.325,12.046,12.046,0,0,1-1.285,1.154c-.879.666-1.79,1.289-2.686,1.934a1.98,1.98,0,0,0-.71.721.623.623,0,0,0-.04.6c.161.3.309.608.5.89q2.207,3.313,4.43,6.617a2.039,2.039,0,0,1,.379,1.853c-.2,1.8-.665,3.556-1.017,5.331-.387,1.955-.814,3.9-1.217,5.854q-.691,3.351-1.371,6.7-.8,3.935-1.8,7.823c-.571,2.21-1.189,4.407-1.879,6.583-.468,1.475-.945,2.947-1.419,4.42a2.1,2.1,0,0,1-.136.366.339.339,0,0,1-.181.118c-.089.031-.184-.085-.135-.219a1,1,0,0,0-.193-.883,2.079,2.079,0,0,0-.723-.715c-.642-.408-1.295-.8-1.944-1.2a4.3,4.3,0,0,0-.476-.279.868.868,0,0,1-.545-.935c.043-1.366-.03-2.739.081-4.1.113-1.393.074-2.782.081-4.172.017-3.683.006-7.366,0-11.048a4.3,4.3,0,0,0-.085-1.175,2.5,2.5,0,0,1-.021-.628q-.026-2.919-.051-5.837c-.209-1.251-.038-2.517-.149-3.773-.037-.418,0-.841-.01-1.262a5.215,5.215,0,0,0-.1-1.488.866.866,0,0,1-.009-.236c-.017-1-.03-2-.052-3a9.083,9.083,0,0,0-.1-2.04,1.058,1.058,0,0,1-.006-.236c-.017-1.209-.026-2.418-.055-3.627-.011-.47-.08-.938-.1-1.408s-.009-.946-.018-1.419c-.006-.315-.026-.63-.035-.945a5.033,5.033,0,0,0-.092-1.331,1.5,1.5,0,0,1-.016-.393c-.017-.893.011-1.791-.062-2.679-.085-1.021-.07-2.046-.164-3.062-.073-.785-.049-1.575-.152-2.352-.111-.832-.07-1.674-.235-2.5a15.6,15.6,0,0,1-.171-1.561,21.207,21.207,0,0,0-.593-3.405,1.541,1.541,0,0,1-.03-.154c-.02-.131.107-.278.226-.252a3.566,3.566,0,0,1,.375.11l5.142,1.734c1.443.487,2.887.969,4.327,1.465.94.324,1.872.668,2.825,1.009" transform="translate(-561.435 -512.038)" fill="#f25847"/>
        <path id="Path_1030812" data-name="Path 1030812" d="M449.79,497.788c.341.155.58.255.811.369.588.29,1.165.606,1.761.877q2.114.961,4.243,1.889a52.012,52.012,0,0,0,5.919,2.134,38.82,38.82,0,0,0,3.885.986c.926.175,1.863.291,2.8.425.516.074,1.034.133,1.565.2a4.7,4.7,0,0,1,.139.465,8.605,8.605,0,0,0,1.138,2.918,3.907,3.907,0,0,0,.822,1.051,1.725,1.725,0,0,1,.572,1.007c.108.46.227.92.288,1.386.142,1.091.257,2.185.374,3.279a1.085,1.085,0,0,1-.232.96.54.54,0,0,0-.094.214,2.2,2.2,0,0,1-.8,1.046,16.844,16.844,0,0,1-2.569,1.677,22.2,22.2,0,0,1-6.347,2.272c-.617.116-1.247.165-1.865.279a14.485,14.485,0,0,1-2.116.139,21.787,21.787,0,0,1-2.747-.126,20.072,20.072,0,0,1-4.6-1.008,13.255,13.255,0,0,1-3.032-1.486.85.85,0,0,1-.445-.689c-.059-.7-.174-1.4-.253-2.1-.132-1.171-.253-2.344-.378-3.516-.094-.885-.181-1.771-.286-2.654a1.174,1.174,0,0,1,.175-.824,8.564,8.564,0,0,0,1.131-4.2c.165-2.127.046-4.254.1-6.381,0-.153.022-.306.043-.585" transform="translate(-389.801 -432.799)" fill="#ea916e"/>
        <path id="Path_1030813" data-name="Path 1030813" d="M357.992,619.27c-.182.179-.4.121-.605.121-1.315.005-2.63,0-3.944,0-1.946,0-3.892,0-5.838,0a6.744,6.744,0,0,0-1.646.092,5.321,5.321,0,0,1-.629.018.838.838,0,0,1-.981-.58c-.273-.653-.6-1.283-.906-1.923-.427-.9-.849-1.8-1.277-2.7-.36-.759-.734-1.511-1.082-2.275a4.121,4.121,0,0,1-.454-1.736,1.8,1.8,0,0,1,.548-1.344c.525-.515,1.064-1.015,1.6-1.517.576-.537,1.167-1.057,1.732-1.606a6.342,6.342,0,0,0,.587-.737.911.911,0,0,0,.165-.6.6.6,0,0,0-.228-.481,3.011,3.011,0,0,0-.906-.46c-.813-.293-1.618-.612-2.419-.937a3.53,3.53,0,0,1-.685-.382.645.645,0,0,1-.252-.822c.113-.349.229-.7.374-1.037a49.173,49.173,0,0,0,1.712-4.82c.2-.626.4-1.248.59-1.877a1.107,1.107,0,0,1,.476-.692.414.414,0,0,0,.2-.472.614.614,0,0,1,.336-.659c.5-.333,1.008-.668,1.539-.951q2.154-1.149,4.332-2.252a10.752,10.752,0,0,1,2.431-.905,3.223,3.223,0,0,1,.383-.084.609.609,0,0,1,.666.3,1.573,1.573,0,0,1,.265.717q.156,2.155.364,4.307c.14,1.433.311,2.863.471,4.294.1.884.2,1.768.306,2.652.14,1.222.282,2.443.415,3.666.065.6.106,1.2.172,1.8.149,1.353.328,2.7.457,4.059.159,1.671.412,3.329.7,4.981.271,1.55.586,3.092.992,4.614a1.9,1.9,0,0,1,.034.224" transform="translate(-296.159 -510.927)" fill="#ec6740"/>
        <path id="Path_1030814" data-name="Path 1030814" d="M302.2,327.936c.31,1.147.589,2.238.9,3.32a31.224,31.224,0,0,0,1.659,4.33,29.527,29.527,0,0,0,4.233,6.7,23.176,23.176,0,0,0,5.067,4.581c.765.5.68.282.682,1.25,0,1.262-.027,2.525.01,3.786.025.87-.134,1.725-.126,2.59a.317.317,0,0,1-.348.343c-.762.008-1.525.015-2.287,0a.949.949,0,0,1-.947-.689c-.1-.3-.179-.6-.276-.9s-.34-.538-.523-.52c-.221.022-.387.364-.331.72.074.465.164.927.242,1.391a.254.254,0,0,1-.326.311,13.235,13.235,0,0,0-1.8-.159,16.953,16.953,0,0,1-3.188-.392,3.68,3.68,0,0,1-2.254-1.829,15.134,15.134,0,0,1-1.115-2.938c-.307-1-.592-2.013-.9-3.014a2.269,2.269,0,0,0-.328-.615.338.338,0,0,0-.543.031.9.9,0,0,0-.2.737,29.263,29.263,0,0,0,1.384,5.56c.195.543.4,1.083.582,1.63a2.176,2.176,0,0,1,.048.467.834.834,0,0,1-.259.022,6.749,6.749,0,0,0-3.266-.053,7.528,7.528,0,0,1-.774.122,1.216,1.216,0,0,1-1.1-.485,7.548,7.548,0,0,1-1.18-2.126,15.478,15.478,0,0,1-.9-4.135c-.074-.892-.087-1.78-.092-2.671a32.878,32.878,0,0,1,.24-3.287,26.309,26.309,0,0,1,.557-3.411c.434-1.89.925-3.768,1.405-5.647s.908-3.771,1.211-5.689c.086-.542.111-1.093.175-1.639.011-.092.062-.223.13-.251a.32.32,0,0,1,.27.082c.208.2.388.427.593.63a5.92,5.92,0,0,0,3.434,1.769,1.54,1.54,0,0,1,.242.076m-.063,7.433c.014.189.016.347.039.5.135.93.282,1.858.413,2.789a77.21,77.21,0,0,0,1.616,7.674,2.3,2.3,0,0,0,.214.587.409.409,0,0,0,.311.188c.1-.008.208-.137.271-.239a.471.471,0,0,0,.035-.3c-.036-.232-.091-.461-.144-.69-.346-1.5-.707-3-1.037-4.509-.4-1.839-.707-3.7-.967-5.561a2.713,2.713,0,0,0-.2-.67.31.31,0,0,0-.252-.137c-.083.006-.172.1-.233.174a.513.513,0,0,0-.065.188" transform="translate(-255.569 -282.892)" fill="#312854"/>
        <path id="Path_1030815" data-name="Path 1030815" d="M628.756,367.967c-.183-.01-.367-.035-.55-.027a24.648,24.648,0,0,1-2.745-.172,5.49,5.49,0,0,1-1.679-.4,2.317,2.317,0,0,1-1.2-.977,6.456,6.456,0,0,1-.418-.756,12.438,12.438,0,0,1-.935-3.483c-.066-.625-.106-1.252-.163-1.878a.824.824,0,0,1,.377-.8,25.64,25.64,0,0,0,3.114-2.773,29.181,29.181,0,0,0,4-5.15,36.509,36.509,0,0,0,2.271-4.317c.116-.264.26-.516.372-.782a.494.494,0,0,1,.407-.318,9.709,9.709,0,0,0,4.739-2.508,9.59,9.59,0,0,0,2.109-2.922c.069-.14.132-.283.211-.418a.128.128,0,0,1,.224.065,4.981,4.981,0,0,1,0,.549c-.022.339-.068.676-.082,1.015-.026.63-.052,1.26-.049,1.89,0,1.1-.018,2.21.057,3.31a33.268,33.268,0,0,0,1.065,7.056,34.814,34.814,0,0,0,1.7,4.573,32.056,32.056,0,0,1,1.667,4.412,15.208,15.208,0,0,1,.6,4.82c0,.052,0,.105,0,.158-.02.264-.15.351-.429.286-.076-.018-.152-.04-.227-.063a16.326,16.326,0,0,0-5.035-.738c-1.025.018-2.051-.007-3.076.008a6.773,6.773,0,0,1-1.169-.126.9.9,0,0,1-.679-.483,2.594,2.594,0,0,1-.168-.355,14.971,14.971,0,0,0-1.316-2.507,20,20,0,0,1-1.561-3,13.628,13.628,0,0,1-.753-2.724,7.692,7.692,0,0,0-.16-.769.3.3,0,0,0-.29-.226.328.328,0,0,0-.313.292,3.633,3.633,0,0,0,.032.548,13.926,13.926,0,0,0,1.233,4.132,7.463,7.463,0,0,1,.584,1.787c.143.693.254,1.394.424,2.08a5.063,5.063,0,0,1,.069,1.253.414.414,0,0,1-.38.431,5.42,5.42,0,0,1-.629.028c-.421,0-.841,0-1.262,0,0-.007,0-.014,0-.02m4.531-17.2c.157,1.039.292,2.1.482,3.151A16.978,16.978,0,0,0,634.9,357.5a1.091,1.091,0,0,0,.335.518.283.283,0,0,0,.408-.063.629.629,0,0,0,.085-.365,2.647,2.647,0,0,0-.183-.515,19.131,19.131,0,0,1-.9-2.671,26.1,26.1,0,0,1-.584-3.39,2.335,2.335,0,0,0-.119-.533.258.258,0,0,0-.3-.192.685.685,0,0,0-.283.234.675.675,0,0,0-.065.244" transform="translate(-539.983 -295.824)" fill="#312854"/>
        <path id="Path_1030816" data-name="Path 1030816" d="M376.542,1084.956a8.5,8.5,0,0,0,1.3-4.918,9.062,9.062,0,0,0-8.868-8.719,8.2,8.2,0,0,0-8.184,8.681,9.168,9.168,0,0,0,5.34,7.944l9.1-2.117Z" transform="translate(-313.683 -931.452)" fill="#bdbdbd"/>
        <path id="Path_1030817" data-name="Path 1030817" d="M177.88,66.655c-.13.009-.259.042-.389.064a5.061,5.061,0,0,0-1.884.776,25.324,25.324,0,0,0-2.14,1.478c-1.543,1.229-3.054,2.5-4.573,3.754-.587.486-1.16.991-1.744,1.481-.064.054-.15.167-.268.007.129-.216.26-.441.4-.663,1.017-1.658,2.049-3.308,3.05-4.976a66.244,66.244,0,0,0,3.21-5.881,20.834,20.834,0,0,0,1.124-2.857,6.187,6.187,0,0,0,.255-2.259,2.108,2.108,0,0,0-2.041-2.019c-.314-.018-.631.005-.946,0-.124,0-.248-.016-.336-.022,0-.391.019-.73,0-1.067a2.394,2.394,0,0,0-3.753-1.985,5.289,5.289,0,0,0-.867.678c-.485.481-.964.973-1.4,1.5-1.726,2.09-3.26,4.324-4.827,6.533-1.232,1.737-2.451,3.483-3.679,5.223-.113.16-.246.306-.406.5a.951.951,0,0,1,.174-.728c1.067-2.458,2.159-4.905,3.124-7.406a31.338,31.338,0,0,0,1.311-4.044,8.571,8.571,0,0,0,.244-2.658,2.889,2.889,0,0,0-.323-1.128,1.971,1.971,0,0,0-2.125-1.006,4.042,4.042,0,0,0-1.971,1.095,12.292,12.292,0,0,0-1.705,2.064c-1.113,1.631-2.084,3.347-3.028,5.078-2.83,5.193-5.544,10.447-8.23,15.715-.621,1.217-1.223,2.444-1.834,3.667-.068.137-.1.306-.345.328-.06-.438-.158-.876-.175-1.318-.068-1.787-.1-3.575-.17-5.362-.03-.761-.091-1.523-.192-2.278a6.838,6.838,0,0,0-.443-1.834,5.4,5.4,0,0,0-.551-1.039,1.979,1.979,0,0,0-2.587-.647,3.174,3.174,0,0,0-1.061.8,6.219,6.219,0,0,0-1.007,1.593,12.179,12.179,0,0,0-.908,3.978,29.7,29.7,0,0,0-.087,3.625c.074,1.735.2,3.466.419,5.187.208,1.641.462,3.278.739,4.909.379,2.226.795,4.447,1.2,6.668.371,2.015.763,4.025,1.127,6.041a9.319,9.319,0,0,1,.111,1.327,7.611,7.611,0,0,1-.063.784c-.075,1.075-.152,2.151-.221,3.226-.087,1.364-.177,2.729-.245,4.094-.055,1.1-.081,2.207-.116,3.311a.845.845,0,0,1-.148.519,1.406,1.406,0,0,0-.231.741c-.069.653-.16,1.3-.237,1.957q-.194,1.644-.38,3.289c-.125,1.1-.243,2.194-.369,3.291-.132,1.149-.277,2.3-.4,3.445-.18,1.619-.346,3.24-.525,4.86-.022.2,0,.427-.21.591-.072-.174-.148-.337-.208-.507-1.167-3.321-2.346-6.637-3.494-9.964-2.133-6.182-4.2-12.387-6.5-18.512-.83-2.214-1.687-4.418-2.671-6.57a20.657,20.657,0,0,0-1.563-2.915,5.572,5.572,0,0,0-1.936-1.819c-.5-.281-1.014-.558-1.535-.806q-5.091-2.42-10.3-4.58C99.73,80.99,92.3,78.37,84.763,76.057a2.594,2.594,0,0,0-.61-.143.661.661,0,0,1-.509-.317,7.919,7.919,0,0,1-1.674-4.023.568.568,0,0,1,.053-.195.58.58,0,0,1,.16.08,4.154,4.154,0,0,0,2.625,1.309c.624.087,1.251.165,1.879.2,1.155.066,2.312.1,3.468.14a3.557,3.557,0,0,0,.472-.026,1.435,1.435,0,0,0,1.432-1.477c.014-.2-.106-.439.117-.634.083.175.16.34.239.5A1.968,1.968,0,0,0,94,72.626a11.731,11.731,0,0,0,1.888.106c.684-.011,1.368-.024,2.052-.022a17.428,17.428,0,0,1,3.76.366,15.956,15.956,0,0,1,2.342.686.515.515,0,0,0,.694-.328,1.269,1.269,0,0,0,.082-.382c.023-.709.064-1.42.046-2.129a16.848,16.848,0,0,0-.882-4.63,36.375,36.375,0,0,0-1.447-3.663,32.138,32.138,0,0,1-1.815-5.034,33.2,33.2,0,0,1-.88-6.314,63.154,63.154,0,0,1,.143-7.962c.128-1.81.265-3.618.311-5.433a50.9,50.9,0,0,0-.227-6.54q-.26-2.508-.761-4.985a38.108,38.108,0,0,0-2-6.874A36.017,36.017,0,0,0,90.28,8.525,27.178,27.178,0,0,0,79.117,1.206,21.966,21.966,0,0,0,73.184.025,17.808,17.808,0,0,0,67.87.57a24.1,24.1,0,0,0-6.1,2.51c-.227.128-.456.252-.664.367a1.506,1.506,0,0,0-1.088-.239,9.085,9.085,0,0,0-2.3.518,15.973,15.973,0,0,0-3.142,1.631A26.644,26.644,0,0,0,49.85,9.4a31.6,31.6,0,0,0-8.1,17.036,35.272,35.272,0,0,0-.346,5.112,1.761,1.761,0,0,1-.265.964,6.388,6.388,0,0,0-.867,2.757,11.11,11.11,0,0,0,.689,5.033,3.33,3.33,0,0,1,.231,1.386,24.062,24.062,0,0,1-.348,3.053c-.387,2.12-.908,4.209-1.458,6.291a51.644,51.644,0,0,0-1.859,9.9,24.38,24.38,0,0,0,.41,6.668A11.708,11.708,0,0,0,39.188,70.9a5.14,5.14,0,0,0,.929,1.268,1.9,1.9,0,0,0,1.494.586,5.872,5.872,0,0,0,.78-.091,6.48,6.48,0,0,1,3.427.065,2.367,2.367,0,0,0,.62.108.636.636,0,0,0,.681-.62c.016-.206,0-.415,0-.622a.2.2,0,0,1,.07,0,.559.559,0,0,1,.136.075,5.026,5.026,0,0,0,2.493,1.1c.465.078.936.125,1.406.176,1.1.118,2.21.045,3.3.263a2.068,2.068,0,0,0,.394.01.657.657,0,0,0,.553-.25c.063-.08.135-.154.215-.244a17.288,17.288,0,0,0,3.164.221,5.318,5.318,0,0,1-1.071,2.977,6.435,6.435,0,0,0-3.338.717,56.57,56.57,0,0,0-5.82,2.984,3.966,3.966,0,0,0-1.809,1.807.68.68,0,0,1-.393.363c-.292.119-.575.259-.866.38-2.328.971-4.661,1.93-6.984,2.911Q33.38,87.285,28.2,89.507a37.069,37.069,0,0,0-4.569,2.313,10.453,10.453,0,0,0-4.1,4.47c-.375.78-.711,1.582-1.016,2.392a62.4,62.4,0,0,0-1.873,6.18c-1.531,5.843-3.115,11.672-4.807,17.47-2.708,9.283-5,18.668-7.059,28.113-.877,4.029-1.721,8.064-2.567,12.1C1.505,165.913.793,169.279.3,172.687a26.145,26.145,0,0,0-.3,3.927,12.556,12.556,0,0,0,.2,2.354,8.141,8.141,0,0,0,2.33,4.385,12.083,12.083,0,0,0,5.094,2.887,17.237,17.237,0,0,0,6.012.595,54.288,54.288,0,0,0,6.331-.809c2.222-.4,4.437-.845,6.656-1.268.12-.023.245-.108.4.048a1.8,1.8,0,0,1,0,.27q-.1.7-.205,1.4-.359,2.337-.722,4.673c-.28,1.791-.557,3.582-.85,5.371-.284,1.737-.586,3.471-.88,5.206-.351,2.072-.717,4.141-1.048,6.216-.194,1.219-.36,2.444-.486,3.672-.069.677-.031,1.366-.04,2.049a.5.5,0,0,0,.273.449,3.2,3.2,0,0,0,.5.22c.444.162.893.312,1.335.478a3.07,3.07,0,0,1,.392.213,14.329,14.329,0,0,0-.617,2.888c-.22,1.534-.409,3.073-.6,4.611-.081.652-.137,1.307-.2,1.962-.078.864-.145,1.729-.22,2.593-.127,1.467-.259,2.934-.261,4.408,0,1.026,0,2.052.006,3.077a2.19,2.19,0,0,1-.027.237,5.414,5.414,0,0,0-.605.156l91.848-.072c-.009-.074-.01-.153-.013-.227-.051-1.34-.094-2.681-.148-4.021-.059-1.471-.114-2.943-.194-4.413-.073-1.339-.174-2.676-.268-4.013-.085-1.206-.179-2.411-.261-3.618a2.455,2.455,0,0,1,.048-.442c.754-.064,1.46-.151,2.167-.176.735-.026.666-.112.611-.755-.042-.5-.149-.987-.206-1.482-.131-1.122-.245-2.247-.373-3.369-.134-1.175-.274-2.349-.413-3.523-.121-1.018-.233-2.036-.369-3.052-.18-1.354-.381-2.706-.569-4.059-.229-1.639-.445-3.28-.685-4.918-.284-1.95-.585-3.9-.883-5.844-.333-2.181-.657-4.364-1.008-6.543-.409-2.541-.842-5.079-1.266-7.618-.333-2-.615-4-.8-6.014a26.4,26.4,0,0,1,.112-4.8c.076-.837.172-1.673.258-2.509.08-.784.162-1.569.237-2.354.08-.837.16-1.675.224-2.513.084-1.1.152-2.2.227-3.3.082-1.207.174-2.413.241-3.62.084-1.5.146-2.994.218-4.491a4.457,4.457,0,0,1,.035-.471c.01-.067.07-.126.136-.239.16.29.3.535.431.784,1.165,2.179,2.313,4.367,3.5,6.535,1.891,3.462,3.874,6.869,6.09,10.137a53.775,53.775,0,0,0,6.535,8.087,27.861,27.861,0,0,0,5.028,4.048,16.493,16.493,0,0,0,6.749,2.485,11.043,11.043,0,0,0,6.976-1.429,13.26,13.26,0,0,0,3.643-3.224,21.784,21.784,0,0,0,2.815-4.641,39.054,39.054,0,0,0,2.218-6.228,69.272,69.272,0,0,0,1.609-7.869c.3-2.028.536-4.065.726-6.1.163-1.753.257-3.513.351-5.272.1-1.943.2-3.887.245-5.832.051-2.1.049-4.208.053-6.312,0-.683-.045-1.366-.082-2.048a1.007,1.007,0,0,1,.144-.674,1.313,1.313,0,0,0,.134-1.208,4.459,4.459,0,0,0-.237-.666c-.205-.4-.425-.786-.668-1.161a19.3,19.3,0,0,0-2.177-2.7,1.368,1.368,0,0,1-.465-1.186,3.423,3.423,0,0,0,0-.473c-.011-2.947.138-5.889.222-8.834q.074-2.6.126-5.206c.017-.92.024-1.842,0-2.762a1.592,1.592,0,0,1,.344-1.1,8.486,8.486,0,0,1,.737-.818c.609-.581,1.255-1.123,1.852-1.716a35.336,35.336,0,0,0,7.478-11.033c.621-1.42,1.181-2.866,1.748-4.308a18.212,18.212,0,0,1,2.881-4.954c.785-.954,1.587-1.9,2.393-2.832,1.474-1.715,2.955-3.425,4.294-5.251A17.485,17.485,0,0,0,179.089,70a4.789,4.789,0,0,0,.489-1.573,1.522,1.522,0,0,0-1.7-1.769M84.692,77.08c4.141,1.356,8.269,2.75,12.359,4.22.261,1.318.489,2.607.777,3.883.439,1.946.92,3.883,1.382,5.824.079.332.155.665.222,1a2.254,2.254,0,0,1-.547,2.049A10.71,10.71,0,0,1,97.3,95.469c-.672.506-1.37.975-2.053,1.467a8.231,8.231,0,0,0-.81.626,1.041,1.041,0,0,0-.271,1.353,4.76,4.76,0,0,0,.4.679q2.126,3.179,4.258,6.354c.088.131.169.267.259.4a2.061,2.061,0,0,1,.335,1.65c-.322,1.622-.627,3.248-.957,4.869-.6,2.933-1.214,5.862-1.812,8.795-.824,4.039-1.628,8.082-2.677,12.071q-1.393,5.3-3.139,10.487c-.047.141-.117.275-.193.454a2.866,2.866,0,0,0-1.411-1.649c-.511-.322-1.037-.622-1.555-.933-.248-.149-.489-.309-.74-.452a.562.562,0,0,1-.317-.572c.057-2.024.082-4.049.142-6.073.113-3.76.092-7.52.037-11.281q-.06-4.1-.152-8.2c-.042-2-.1-4-.153-5.993-.039-1.5-.073-3-.124-4.494-.086-2.549-.184-5.1-.274-7.646-.067-1.918-.118-3.837-.2-5.755-.062-1.5-.155-2.993-.241-4.489-.072-1.26-.127-2.521-.238-3.777a42.35,42.35,0,0,0-.839-6.005,2.079,2.079,0,0,1-.028-.218c.06-.021.114-.061.15-.05m-.818,81.26a.418.418,0,0,0,.414.308,2.164,2.164,0,0,0,.683-.145c.437-.178.865-.382,1.287-.6,1.054-.534,2.1-1.08,3.182-1.636a3.606,3.606,0,0,1,.382.229,1.475,1.475,0,0,1,.437,2.025,3.185,3.185,0,0,1-.812.956,11.431,11.431,0,0,1-1.842,1.212c-.788.421-1.584.827-2.377,1.238-.327.17-.658.33-.979.509a1.555,1.555,0,0,0-.371.286.432.432,0,0,0-.1.507.478.478,0,0,0,.507.294,1.481,1.481,0,0,0,.446-.137q1.617-.82,3.227-1.655c.232-.12.459-.25.673-.366.189.085.144.229.131.346a6.2,6.2,0,0,1-2.281,4.248,13.183,13.183,0,0,1-3.746,2.126,11.2,11.2,0,0,1-4.018.692q-2.328.011-4.65-.165c-1.7-.128-3.41-.229-5.12-.269a25.18,25.18,0,0,0-9.327,1.692c-.147.054-.292.11-.49.185a3.068,3.068,0,0,1-.06-.39,39.866,39.866,0,0,1,.273-5.273c.265-2.3.675-4.572,1.1-6.845q.2-1.085.384-2.172a.659.659,0,0,1,.517-.6,7.517,7.517,0,0,0,4.251-3.329,16.78,16.78,0,0,0,1.526-3.195c.367-.984.714-1.977,1.1-2.953a11.9,11.9,0,0,1,.721-1.487,5.988,5.988,0,0,1,2.681-2.475,10.983,10.983,0,0,1,2.458-.829,28.093,28.093,0,0,1,6.026-.635,10.6,10.6,0,0,1,1.648.145,5.718,5.718,0,0,1,1.922.681c.411.234.816.479,1.218.729q1.676,1.038,3.346,2.085c.223.139.447.278.662.428a2.5,2.5,0,0,1,.362.3.407.407,0,0,1-.05.674,3.357,3.357,0,0,1-.845.407,5.976,5.976,0,0,1-1.164.189,9.592,9.592,0,0,1-4.386-.766c-.438-.178-.876-.357-1.318-.523a4.178,4.178,0,0,0-1.62-.286c-.656.022-1.313.047-1.969.085a1.483,1.483,0,0,1-.7-.079,3.136,3.136,0,0,0-1.163-.164,1.683,1.683,0,0,0-1.307.625.554.554,0,0,0,.087.886,1.479,1.479,0,0,0,.582.206,3.723,3.723,0,0,0,.787.019,19.418,19.418,0,0,1,6.241.694,12.923,12.923,0,0,0,2.555.464c.523.027,1.049.027,1.574.011.473-.014.944-.07,1.417-.1a5.652,5.652,0,0,1,.629.008.9.9,0,0,1,.722.423,3.769,3.769,0,0,1,.621,1.927,1.064,1.064,0,0,1-.392.911,5.887,5.887,0,0,1-.846.57,11.556,11.556,0,0,1-2.271.89c-.955.287-1.925.524-2.888.783a1.586,1.586,0,0,0-.3.086.447.447,0,0,0-.247.456.428.428,0,0,0,.291.427,1.233,1.233,0,0,0,.462.059,5.217,5.217,0,0,0,.774-.14,26,26,0,0,0,4.262-1.4.747.747,0,0,1,.925.154,3.221,3.221,0,0,1,.377.4,1.587,1.587,0,0,1-.267,2.311,7.025,7.025,0,0,1-.968.675,43.856,43.856,0,0,1-4.348,2.228,3.837,3.837,0,0,0-.492.244.5.5,0,0,0-.162.568m3.287,11.013q.615,3.412,1.225,6.824c.319,1.784.652,3.566.944,5.354a10.121,10.121,0,0,1,.044,3.377,4.915,4.915,0,0,1-.62,1.775,1.885,1.885,0,0,1-1.748,1.006c-.631-.017-1.262.011-1.894.015l-20.279.129q-2.328.015-4.656.033-9.309.061-18.618.119a9.135,9.135,0,0,1-3.148-.621,3.682,3.682,0,0,1-1.623-1.212,5.724,5.724,0,0,1-1.326-2.817c-.036-.261.006-.349.242-.4.825-.162,1.649-.324,2.475-.479,1.549-.291,3.1-.586,4.648-.862q3.064-.545,6.133-1.059,2.332-.388,4.672-.726c1.326-.192,2.659-.335,3.985-.528.883-.128,1.76-.3,2.637-.467a2.632,2.632,0,0,0,1.147-.5.779.779,0,0,0,.353-.664,2.207,2.207,0,0,1,.1-.614,15.552,15.552,0,0,0,.536-3.339q.073-1.536.15-3.072c.017-.358.041-.4.386-.489a24.367,24.367,0,0,1,3.878-.662,39.87,39.87,0,0,1,5.83.125,57.949,57.949,0,0,0,7.171.212,11.521,11.521,0,0,0,3.3-.711,15.716,15.716,0,0,0,3.03-1.505c.173-.11.353-.208.632-.371.146.781.275,1.45.4,2.12m-28.7-14.682c-2.867.524-5.733,1.053-8.6,1.556-2.9.507-5.8.98-8.7,1.475-2.3.393-4.605.8-6.908,1.2-.906.157-1.812.308-2.718.462-.285.048-.349,0-.407-.317q-.389-2.131-.773-4.263-.529-2.946-1.053-5.894c-.29-1.629-.573-3.259-.863-4.887-.337-1.887-.682-3.773-1.019-5.66-.346-1.939-.686-3.879-1.032-5.817-.337-1.887-.68-3.773-1.017-5.66-.3-1.654-.585-3.31-.88-4.964q-.5-2.792-1-5.583c-.121-.672-.271-1.339-.368-2.014a4.775,4.775,0,0,1,.448-2.914,3.686,3.686,0,0,1,.994-1.21,2.587,2.587,0,0,1,1.666-.61c1.262,0,2.525-.02,3.787-.025q8.6-.03,17.2-.056,12.5-.052,25.008-.127a5.693,5.693,0,0,1,2.645.655,4.6,4.6,0,0,1,1.507,1.248,3.178,3.178,0,0,1,.677,1.488q.644,3.726,1.31,7.448c.5,2.792,1.016,5.58,1.515,8.372q.831,4.653,1.643,9.309c.064.36.131.72.211,1.159-.233,0-.363.011-.491,0a22.393,22.393,0,0,0-4.484.13,20.779,20.779,0,0,0-4.245.827,7.887,7.887,0,0,0-3.747,2.369,8.279,8.279,0,0,0-1,1.509,21.481,21.481,0,0,0-1.1,2.614c-.319.862-.625,1.729-.97,2.581a11.82,11.82,0,0,1-1.54,2.741,6.242,6.242,0,0,1-2.879,2.12,16.962,16.962,0,0,1-2.814.743M84.443,84.83c.059.866.122,1.731.163,2.6.121,2.548.245,5.1.342,7.644.087,2.286.141,4.573.211,6.86q.081,2.681.162,5.362.086,3,.163,5.994c.059,2.445.089,4.891.164,7.335.106,3.445.108,6.89.089,10.335-.012,2.209-.075,4.417-.115,6.626-.014.763-.023,1.525-.038,2.288,0,.233-.025.467-.044.82-.524-.3-.924-.547-1.339-.764-.4-.207-.806-.383-1.254-.593a3.442,3.442,0,0,1-.156-.48q-.423-2.326-.832-4.654-.509-2.871-1.017-5.741-.524-2.948-1.051-5.895c-.338-1.887-.683-3.773-1.018-5.661-.248-1.4-.484-2.794-.727-4.191a3.866,3.866,0,0,0-.584-1.451,6.263,6.263,0,0,0-2.382-2.244,5.008,5.008,0,0,0-3.236-.763c-2.867.027-5.734.037-8.6.053-.129,0-.259-.014-.427-.024a4.183,4.183,0,0,1-.22-.575c-.272-1.2-.567-2.4-.786-3.617q-.428-2.364-.749-4.747c-.211-1.588-.355-3.186-.529-4.779q-.2-1.8-.392-3.6-.191-1.764-.377-3.528a3.347,3.347,0,0,1,0-.366c.168-.133.271-.017.37.041a17.865,17.865,0,0,0,7.081,2.25,23.335,23.335,0,0,0,4.175.1,22.722,22.722,0,0,0,8.275-2.114,20.3,20.3,0,0,0,3.026-1.689c.515-.358,1-.76,1.5-1.142.181.046.148.2.156.318m15.19-27.12a30.969,30.969,0,0,0,1.65,4.758c.443,1.039.9,2.073,1.308,3.125a17.536,17.536,0,0,1,1.093,4.183c.094.753.073,1.521.093,2.282a1.762,1.762,0,0,1-.09.4c-.259-.065-.486-.118-.712-.178a16.622,16.622,0,0,0-4.277-.625c-1.131,0-2.261.009-3.392,0-.392,0-.784-.062-1.174-.106a.873.873,0,0,1-.772-.592A28.568,28.568,0,0,0,91.236,67a13.682,13.682,0,0,1-1.593-4.508c-.036-.233-.081-.466-.141-.695a.5.5,0,0,0-.457-.37.475.475,0,0,0-.446.465,2.881,2.881,0,0,0,.023.55,14.334,14.334,0,0,0,1.25,4.214,6.954,6.954,0,0,1,.574,1.711c.143.721.3,1.44.429,2.163a6.343,6.343,0,0,1,.084,1.017c0,.294-.127.417-.436.452a4.5,4.5,0,0,1-.629.028c-1.445-.04-2.893-.054-4.331-.222a6.1,6.1,0,0,1-1.606-.377,2.47,2.47,0,0,1-1.2-.985,5.7,5.7,0,0,1-.473-.906,13.928,13.928,0,0,1-.963-4.209,4.5,4.5,0,0,0-.065-.705.7.7,0,0,1,.31-.809c.566-.427,1.11-.886,1.641-1.355A28.6,28.6,0,0,0,89.2,55.084c.685-1.21,1.278-2.473,1.909-3.714.131-.257.246-.522.354-.754.769-.272,1.52-.5,2.243-.8a9.107,9.107,0,0,0,2.09-1.257,8.618,8.618,0,0,0,1.668-1.671c.464-.631.874-1.3,1.334-2,0,.2.012.359,0,.512a38.556,38.556,0,0,0-.086,4.494,36.929,36.929,0,0,0,.925,7.813M42.508,30.121a32.758,32.758,0,0,1,1.249-7.841,30.228,30.228,0,0,1,6.156-11.344,26.226,26.226,0,0,1,5.551-4.878,13.571,13.571,0,0,1,2.648-1.387,6.684,6.684,0,0,1,1.83-.451.619.619,0,0,1,.63.21.491.491,0,0,0,.646.1c.213-.1.414-.227.619-.345a24.775,24.775,0,0,1,6.1-2.521,16.886,16.886,0,0,1,5.7-.531,21.866,21.866,0,0,1,6.842,1.747A26.461,26.461,0,0,1,89.921,9.72,34.839,34.839,0,0,1,96.53,20.477a38.2,38.2,0,0,1,1.692,5.982c.325,1.57.56,3.155.745,4.747a39.163,39.163,0,0,1,.249,4.092c.007.683,0,1.366,0,2.049a2.393,2.393,0,0,1-.072.371c-.148-.162-.249-.273-.351-.383a3.023,3.023,0,0,0-2.849-.989c-.439.072-.874.171-1.312.255-.359.069-.515.009-.61-.315a12.487,12.487,0,0,0-1.142-2.5,2.762,2.762,0,0,0-.56-.753c-1.02-.91-2.024-1.839-3.072-2.717a5.883,5.883,0,0,0-2.719-1.367c-.465-.085-.934-.158-1.4-.2A28.1,28.1,0,0,1,81,28.1a26.5,26.5,0,0,1-9.245-4.079,13.818,13.818,0,0,1-5.142-6.431q-.632-1.656-1.237-3.322a38.815,38.815,0,0,0-1.507-3.639,7.083,7.083,0,0,0-.5-.893.452.452,0,0,0-.744-.022,3.127,3.127,0,0,0-.378.6c-.52,1.061-1.07,2.111-1.535,3.2-.942,2.2-1.832,4.415-2.751,6.622a46.364,46.364,0,0,1-2.357,4.985A19.467,19.467,0,0,1,48.9,32.192c-.42.262-.858.494-1.334.766-.2-.306-.346-.524-.491-.741a3.7,3.7,0,0,0-1.059-1.046,3.2,3.2,0,0,0-2.936-.366c-.1.034-.191.088-.29.124a2.219,2.219,0,0,1-.241.058,2.417,2.417,0,0,1-.038-.866m-1.121,4.9a4.982,4.982,0,0,1,1.023-2.442,2.263,2.263,0,0,1,2.233-.879,2.341,2.341,0,0,1,1.449.883,5.334,5.334,0,0,1,.594.926,1.037,1.037,0,0,0,.893.549.836.836,0,0,0,.443-.127,21.307,21.307,0,0,0,3.37-2.184,21.088,21.088,0,0,0,5.464-6.663,59.863,59.863,0,0,0,2.511-5.523c.9-2.186,1.794-4.375,2.7-6.558.252-.6.545-1.192.853-1.861a3.068,3.068,0,0,1,.282.44c.368.928.737,1.855,1.084,2.791.384,1.034.743,2.077,1.116,3.115a15.369,15.369,0,0,0,6.2,7.742,28.423,28.423,0,0,0,8.007,3.633l.874.246c-.151.116-.255.191-.353.273a3.383,3.383,0,0,0-.351.316,1.131,1.131,0,0,0,.316,1.855,2.751,2.751,0,0,0,1.211.311,8.3,8.3,0,0,0,.868.007,4.159,4.159,0,0,1,2.745.8,2.818,2.818,0,0,0,1.211.547,1.275,1.275,0,0,0,1.383-.686,1.23,1.23,0,0,0,.034-1.068,3.812,3.812,0,0,0-.463-.724c-.139-.188-.309-.354-.474-.54.069-.138.206-.065.31-.027a6.13,6.13,0,0,1,1.564.906,36.059,36.059,0,0,1,2.846,2.5A5.641,5.641,0,0,1,92.554,35.3c.113.236.2.485.291.732.063.172.11.351.169.525.32.952.716,1.225,1.7,1.126a3.149,3.149,0,0,0,.991-.226,2.051,2.051,0,0,1,2.669,1.152,4.283,4.283,0,0,1,.307,2.009,10.323,10.323,0,0,1-1.6,4.972A9.076,9.076,0,0,1,92.334,49.2a.425.425,0,0,1-.156-.011c-.076-.162.039-.291.09-.424.255-.662.528-1.316.775-1.981a2.58,2.58,0,0,0,.141-.688.448.448,0,0,0-.353-.461.485.485,0,0,0-.549.212,4.821,4.821,0,0,0-.245.578A57.735,57.735,0,0,1,88.1,54.84a27.911,27.911,0,0,1-8.119,8.807A18.382,18.382,0,0,1,72.86,66.7a15.926,15.926,0,0,1-9.77-1.261,24.379,24.379,0,0,1-6.271-3.9,25.3,25.3,0,0,1-4.439-5.105,33.537,33.537,0,0,1-5.1-13.531c-.1-.728-.138-1.465-.2-2.2-.014-.157-.008-.317-.037-.471a.464.464,0,0,0-.471-.344.41.41,0,0,0-.424.385c0,.709.021,1.418.061,2.126.028.5.1.988.155,1.446-.092.157-.2.126-.3.1a5.233,5.233,0,0,1-2.9-1.92A8.263,8.263,0,0,1,41.593,38.7a8.994,8.994,0,0,1-.205-3.676m16.672,36.8c-.447,0-.894.008-1.341-.005-.715-.021-.894-.158-1.142-.854-.088-.247-.144-.506-.239-.749a1.106,1.106,0,0,0-.249-.391.479.479,0,0,0-.8.251,1.709,1.709,0,0,0-.009.466c.018.262.046.524.077.785.028.229.065.457.1.673-.079.04-.125.084-.168.081-.55-.035-1.1-.084-1.648-.115a19.255,19.255,0,0,1-2.819-.282,3.682,3.682,0,0,1-2.783-2.208,19.549,19.549,0,0,1-.739-1.907c-.292-.9-.532-1.813-.8-2.72-.1-.353-.2-.707-.328-1.052a2.084,2.084,0,0,0-.287-.555.537.537,0,0,0-.951.136,1.183,1.183,0,0,0-.085.694c.107.647.187,1.3.318,1.942a31.658,31.658,0,0,0,1.415,4.75c.082.219.15.445.221.668.007.021-.009.049-.019.093a1,1,0,0,1-.6-.042,7.321,7.321,0,0,0-2.819.1c-1.165.229-1.415.089-2.028-.86a10.155,10.155,0,0,1-1.319-3.272,19.644,19.644,0,0,1-.476-4.22,34.634,34.634,0,0,1,1.042-8.5c.5-2.067,1.03-4.125,1.552-6.186.355-1.4.625-2.819.845-4.247.056-.363.069-.733.111-1.1.017-.154.057-.305.115-.6a6.554,6.554,0,0,0,4.36,2.557c.122.5.235.986.354,1.467A32.452,32.452,0,0,0,52.3,58.188a24.522,24.522,0,0,0,6.282,6.029c.066.043.129.092.2.129a.579.579,0,0,1,.311.584c-.03,2-.024,4-.081,5.993-.027.93.035.9-.946.9m1.018,4.091a5.9,5.9,0,0,0,.8-2.37,30.41,30.41,0,0,0,.237-3.852c.029-1.208-.021-2.417-.035-3.626,0-.26,0-.52,0-.831a1.487,1.487,0,0,1,.262.056c2.211,1.159,4.507,2.139,6.8,3.125a50.222,50.222,0,0,0,8.91,2.862,39.307,39.307,0,0,0,4.516.678c.1.011.206.03.339.05.041.148.09.294.121.444a7.984,7.984,0,0,0,2.131,4.141,1.409,1.409,0,0,1,.366.683c.1.382.179.767.245,1.155A33.66,33.66,0,0,1,84.2,82.1a.755.755,0,0,1-.142.591.614.614,0,0,0-.15.274,1.97,1.97,0,0,1-.875,1.168,17.961,17.961,0,0,1-3.852,2.288,22.668,22.668,0,0,1-5.944,1.769,23.47,23.47,0,0,1-4.089.206,19.463,19.463,0,0,1-6.538-1.274,15.023,15.023,0,0,1-2.39-1.2,1.238,1.238,0,0,1-.65-1.083c-.029-.445-.1-.887-.144-1.331q-.32-2.9-.639-5.795c-.011-.1-.012-.21-.028-.314a2.03,2.03,0,0,1,.32-1.489m-11.713,7.2c.038-.125.078-.25.113-.377a.716.716,0,0,1,.355-.495.552.552,0,0,0,.324-.648.459.459,0,0,1,.21-.475,6.4,6.4,0,0,1,.64-.457,61.57,61.57,0,0,1,6.223-3.222,7.738,7.738,0,0,1,1.723-.546.581.581,0,0,1,.443.063,1.18,1.18,0,0,1,.423.812c0,.393.06.785.095,1.177.073.838.14,1.675.221,2.512.074.758.163,1.514.246,2.272q.192,1.762.384,3.525c.068.627.131,1.254.2,1.881.148,1.41.292,2.821.444,4.231.13,1.2.268,2.4.4,3.6.128,1.122.236,2.247.393,3.365.237,1.689.5,3.376.858,5.045.205.946.412,1.891.635,2.915-.3.013-.508.029-.715.03q-5.756.039-11.513.074c-.988.006-.819.087-1.229-.768q-1.5-3.125-2.973-6.262a8.58,8.58,0,0,1-.581-1.544,1.648,1.648,0,0,1,.355-1.546,9.975,9.975,0,0,1,.94-.953c.544-.495,1.118-.958,1.659-1.457.4-.373.79-.771,1.159-1.18a2.534,2.534,0,0,0,.426-.659.9.9,0,0,0-.391-1.221,4.8,4.8,0,0,0-.719-.315c-.686-.263-1.38-.506-2.061-.783a6.92,6.92,0,0,1-.978-.5.52.52,0,0,1-.265-.731c.072-.168.114-.35.186-.518a65.253,65.253,0,0,0,2.37-6.842M18.937,185.1a43.863,43.863,0,0,1-4.924.625,16.876,16.876,0,0,1-6.245-.571,11.984,11.984,0,0,1-3.515-1.742,7.426,7.426,0,0,1-3.129-5.672,20.348,20.348,0,0,1,.134-4.01c.3-2.666.852-5.289,1.377-7.915.53-2.652,1.088-5.3,1.649-7.944.637-3.005,1.267-6.013,1.944-9.009.8-3.534,1.634-7.06,2.469-10.586,1.108-4.677,2.361-9.316,3.686-13.935,1.8-6.26,3.558-12.529,5.2-18.83.55-2.108,1.131-4.21,1.867-6.264a19.847,19.847,0,0,1,1.334-3.025,8.958,8.958,0,0,1,3.049-3.242c.731-.464,1.489-.891,2.26-1.285,1.943-.993,3.951-1.845,5.959-2.695q5.988-2.533,11.982-5.052c.7-.295,1.391-.6,2.214-.963a55.138,55.138,0,0,1-1.9,5.674c-.168.414-.341.826-.5,1.243a1.654,1.654,0,0,0,.875,2.366,17.977,17.977,0,0,0,2.759,1.155c.214.078.423.168.659.263a1.793,1.793,0,0,1-.544.717c-.734.678-1.486,1.335-2.223,2.01-.368.337-.735.678-1.071,1.046a2.822,2.822,0,0,0-.613,2.864,13.052,13.052,0,0,0,.8,1.967c.835,1.756,1.676,3.509,2.507,5.266a1.747,1.747,0,0,1,.286.836c-.263.009-.523.026-.783.027q-4.261.011-8.522.019-5.247.018-10.494.05a15.561,15.561,0,0,0-1.884.1,3.094,3.094,0,0,0-2.21,1.216c-.325.445-.617.913-.917,1.375a1.209,1.209,0,0,0-.165.355,7.148,7.148,0,0,0-.231,3.111c.635,3.381,1.207,6.774,1.812,10.161.554,3.1,1.123,6.2,1.68,9.3q.947,5.273,1.886,10.547c.5,2.793.983,5.587,1.481,8.379.341,1.913.7,3.824,1.04,5.736.041.23.052.465.081.739a2.229,2.229,0,0,1-.432.169c-2,.323-4,.63-6.014.8a1.121,1.121,0,0,1-.936-.273,4.71,4.71,0,0,0-1.44-.8,16.657,16.657,0,0,0-7.578-1.084,11.278,11.278,0,0,0-3.288.769,1.445,1.445,0,0,0-.4.241.377.377,0,0,0-.111.432.382.382,0,0,0,.344.285,2.793,2.793,0,0,0,.614-.09c.637-.154,1.265-.365,1.909-.472a13.171,13.171,0,0,1,3.22-.148,18.329,18.329,0,0,1,3.868.7c.321.1.632.229,1.128.411a4.72,4.72,0,0,1-.527.066c-.867-.025-1.734-.06-2.6-.086a13.371,13.371,0,0,0-3.756.34,10.561,10.561,0,0,0-4.128,2.229,28.441,28.441,0,0,0-4.362,4.758c-.35.46-.678.938-1.009,1.412a2.587,2.587,0,0,0-.274.476.52.52,0,0,0,.156.636.514.514,0,0,0,.65-.075,4.536,4.536,0,0,0,.393-.491c.6-.8,1.172-1.619,1.794-2.4a22.764,22.764,0,0,1,3.629-3.719,8.793,8.793,0,0,1,3.939-1.891,13.644,13.644,0,0,1,1.878-.2c.682-.025,1.366.02,2.049.044a42.353,42.353,0,0,0,5.279-.041c1.965-.176,3.911-.469,5.854-.8,2.641-.45,5.284-.888,7.925-1.336,3.392-.575,6.785-1.144,10.174-1.738,2.871-.5,5.738-1.032,8.6-1.564.9-.168,1.8-.38,2.7-.571a.5.5,0,0,1,.488.055c-.1.538-.2,1.1-.316,1.66-.392,1.823-.744,3.655-1.011,5.5a42.652,42.652,0,0,0-.459,8.335c.057,1.1.143,2.2.287,3.3a9.745,9.745,0,0,0,1.1,3.479,2.42,2.42,0,0,1-.449.169c-.8.125-1.611.239-2.418.351-1.431.2-2.865.377-4.294.589-1.819.269-3.637.546-5.45.851-1.865.314-3.724.656-5.583,1q-3.1.578-6.19,1.188c-2.268.443-4.532.9-6.8,1.344-3.094.6-6.186,1.208-9.285,1.778m6.281,28.746a4.631,4.631,0,0,1-1.329-.509,10.351,10.351,0,0,1,.034-1.971c.146-1.146.3-2.292.489-3.432.277-1.711.583-3.417.873-5.126.3-1.786.612-3.572.9-5.361.3-1.815.574-3.632.859-5.448q.439-2.8.876-5.605c.076-.493.138-.989.206-1.483.063-.46.079-.48.506-.568q1.119-.229,2.239-.455,1.506-.3,3.013-.6c.4-.078.5-.033.54.343a6.207,6.207,0,0,0,1.892,3.55,4.032,4.032,0,0,0,1.128.852c.492.249.987.493,1.5.7a4.731,4.731,0,0,0,1.846.343c3.5-.027,7-.037,10.494-.06,1.946-.013,3.892-.04,5.838-.058.258,0,.515.014.819.023.01.272.038.5.023.73-.068,1.076-.146,2.151-.224,3.226-.075,1.023-.157,2.044-.232,3.067q-.144,1.966-.279,3.933c-.073,1.075-.138,2.151-.208,3.227-.056.866-.112,1.731-.173,2.6-.084,1.18-.178,2.359-.258,3.54q-.1,1.535-.186,3.071c-.078,1.5-.143,2.994-.218,4.491a7.3,7.3,0,0,1-.128,1.2,3.561,3.561,0,0,1-.461.062,30.1,30.1,0,0,1-3.31-.107c-1.385-.145-2.776-.236-4.161-.378-1.1-.113-2.191-.265-3.286-.4q-1.407-.179-2.813-.367c-1.328-.177-2.657-.349-3.983-.536-1.3-.184-2.6-.374-3.9-.58a61.732,61.732,0,0,1-8.928-1.909m88.292,20.941c-.166.029-.312.066-.46.077-.183.013-.368,0-.552,0q-43.563,0-87.126,0a3.665,3.665,0,0,1-.9-.036c0-.457-.006-.873,0-1.288.022-1.367.008-2.737.084-4.1.085-1.521.244-3.039.388-4.557.164-1.727.331-3.453.528-5.177.128-1.122.3-2.24.475-3.356a2.028,2.028,0,0,1,.379-1.067c.132.028.281.054.427.093a53.061,53.061,0,0,0,5.627,1.177c1.947.3,3.892.616,5.842.9,1.742.251,3.49.464,5.236.69,1.485.192,2.969.4,4.458.563,1.358.149,2.722.243,4.083.371a27.291,27.291,0,0,0,3.467.139,6.74,6.74,0,0,0,1.17-.142c.452-.1.551-.26.555-.715,0-.341.009-.683.027-1.024.075-1.365.158-2.73.234-4.1.067-1.208.119-2.416.194-3.623.077-1.233.175-2.465.259-3.7.072-1.049.137-2.1.208-3.148q.115-1.692.236-3.383t.239-3.383c.088-1.206.182-2.412.268-3.618.073-1.023.137-2.046.206-3.069.021-.31.074-.368.378-.378s.631-.009.947-.011q7.339-.031,14.679-.064c3.051-.018,6.1-.061,9.153-.087,1.1-.009,2.2,0,3.389,0,.12,1,.234,1.91.337,2.821q.226,2,.438,4c.128,1.2.244,2.406.37,3.608.13,1.229.266,2.456.4,3.684.068.627.14,1.254.2,1.881.175,1.726.338,3.453.52,5.178.2,1.882.412,3.762.622,5.642.023.209.079.415.093.624a1.2,1.2,0,0,0,.955,1.119,15.313,15.313,0,0,0,2.075.455q1.911.274,3.836.453c1.073.1,2.152.169,3.229.18q3.748.038,7.5,0c1.288-.014,2.575-.111,3.862-.166.2-.009.407.006.587.009.046.09.087.134.09.181.216,3.807.456,7.612.627,11.421.073,1.625.2,3.252.157,4.925m43.914-105.474a3.192,3.192,0,0,1,.134,1.186c.01,3.287.059,6.575-.119,9.861-.082,1.523-.117,3.048-.2,4.571-.062,1.1-.168,2.2-.259,3.3-.065.786-.125,1.572-.207,2.356-.107,1.019-.208,2.04-.358,3.054-.227,1.533-.462,3.065-.749,4.588a47.108,47.108,0,0,1-2.821,9.744,22.64,22.64,0,0,1-2.878,5.057,12.143,12.143,0,0,1-3.762,3.313,9.955,9.955,0,0,1-6.25,1.128,15.287,15.287,0,0,1-5.876-2.159,27.224,27.224,0,0,1-5.607-4.575,61.417,61.417,0,0,1-7.558-9.981c-2.019-3.2-3.849-6.517-5.652-9.846q-1.615-2.981-3.26-5.946a1.9,1.9,0,0,1-.265-1.195c.106-.966.135-1.94.214-2.909.068-.838.16-1.675.245-2.512q.1-.941.2-1.881.311-2.821.625-5.641c.227-2.037.448-4.074.685-6.11s.5-4.069.734-6.1c.184-1.566.347-3.134.527-4.7.183-1.593.379-3.183.562-4.776q.185-1.605.347-3.213a5.051,5.051,0,0,0,.016-.708.422.422,0,0,0-.33-.393.463.463,0,0,0-.521.261,1.085,1.085,0,0,0-.087.3c-.16,1.2-.32,2.4-.47,3.6-.134,1.069-.255,2.139-.382,3.209q-.212,1.8-.423,3.6c-.137,1.148-.281,2.3-.415,3.444-.128,1.1-.244,2.194-.372,3.29-.131,1.122-.273,2.243-.4,3.365-.129,1.1-.251,2.193-.377,3.289-.138,1.2-.281,2.4-.415,3.6-.131,1.175-.253,2.351-.377,3.527q-.128,1.215-.25,2.431c-.066.654-.138,1.307-.19,1.962-.074.943-.133,1.888-.2,2.832-.083,1.233-.171,2.466-.245,3.7-.08,1.339-.141,2.678-.218,4.017q-.13,2.244-.275,4.487c-.064,1-.129,1.994-.207,2.99-.072.917-.16,1.833-.248,2.749-.06.628-.136,1.254-.194,1.882-.14,1.518-.293,3.035-.4,4.555a19.02,19.02,0,0,0-.006,2.2,65.292,65.292,0,0,0,.969,7.659q.67,4.042,1.324,8.087c.356,2.2.709,4.409,1.042,6.616.3,1.974.565,3.953.85,5.929.24,1.664.5,3.326.724,4.991.193,1.405.362,2.814.536,4.222.193,1.565.386,3.129.567,4.7q.2,1.723.365,3.449a3.563,3.563,0,0,1,.1,1.075,1.313,1.313,0,0,1-.781.163c-1.758.1-3.516.235-5.277.286-2.208.064-4.418.072-6.627.081-1.71.007-3.418-.07-5.122-.2a40.483,40.483,0,0,1-5.084-.607c-.254-.053-.5-.132-.755-.2-.041-.22-.087-.4-.107-.579-.211-1.88-.424-3.76-.623-5.641-.185-1.751-.348-3.5-.531-5.255s-.386-3.5-.572-5.251c-.131-1.228-.241-2.459-.373-3.687-.124-1.149-.27-2.3-.4-3.445-.138-1.254-.257-2.51-.4-3.763a.846.846,0,0,1,.266-.782,6.205,6.205,0,0,0,1.567-2.781,4.471,4.471,0,0,0,.136-2.247c-.481-2.794-1.025-5.577-1.5-8.372-.422-2.486-.895-4.962-1.345-7.443-.014-.078-.025-.156-.04-.233a1.011,1.011,0,0,1,.249-.938A6.6,6.6,0,0,0,89.4,163.56,8.426,8.426,0,0,0,89.814,161a.87.87,0,0,1,.345-.743,3.892,3.892,0,0,0,1.033-1.28A2.536,2.536,0,0,0,90.75,156c-.1-.111-.212-.219-.42-.432.186-.137.3-.207.4-.3a2.692,2.692,0,0,0,.106-3.65,8.02,8.02,0,0,0-.667-.6c.146-.173.241-.291.341-.4a2.087,2.087,0,0,0,.507-1.685c-.066-.543-.2-1.077-.321-1.677a5.229,5.229,0,0,0,.764-1.557c.853-2.4,1.594-4.839,2.321-7.28q1.676-5.628,2.855-11.382,1.2-5.825,2.387-11.654c.375-1.826.77-3.649,1.139-5.477.135-.669.222-1.347.329-2.021a2.773,2.773,0,0,0-.449-2.029c-.638-.964-1.273-1.931-1.916-2.893-.833-1.246-1.674-2.486-2.508-3.731-.174-.26-.333-.529-.515-.819.169-.144.3-.271.444-.376.894-.647,1.806-1.271,2.683-1.941a12.689,12.689,0,0,0,1.344-1.215,3.1,3.1,0,0,0,.908-3.028q-.459-1.955-.919-3.91-.648-2.761-1.292-5.523a.753.753,0,0,1,.016-.642c.165.049.338.091.5.152q9.2,3.417,18.074,7.628c.38.181.752.377,1.126.568a5.052,5.052,0,0,1,2.139,2.039c.337.594.67,1.192.963,1.808,1.017,2.137,1.877,4.339,2.714,6.55,2.233,5.9,4.228,11.876,6.289,17.833,1.477,4.269,2.991,8.525,4.489,12.787a1.482,1.482,0,0,0,.172.437,1.543,1.543,0,0,1,.255,1.254c-.164,1.33-.3,2.664-.435,4-.128,1.229-.247,2.458-.371,3.687q-.115,1.138-.234,2.275c-.076.732-.157,1.463-.23,2.2q-.224,2.236-.44,4.472-.127,1.334-.228,2.671a2.462,2.462,0,0,0,.048.623.446.446,0,0,0,.406.319.454.454,0,0,0,.4-.213.8.8,0,0,0,.128-.283,5.839,5.839,0,0,0,.12-.7c.178-1.884.341-3.769.527-5.652.178-1.8.381-3.606.567-5.41.126-1.229.233-2.459.361-3.688s.272-2.455.407-3.683c.123-1.123.243-2.247.367-3.37q.208-1.88.421-3.76.184-1.645.368-3.29c.14-1.253.284-2.507.422-3.76.075-.679.143-1.359.213-2.038.086-.836.174-1.673.256-2.51.041-.419.071-.838.112-1.257.012-.125,0-.269.188-.36.093.1.2.2.3.315q2.55,2.856,5.31,5.509,2.14,2.046,4.422,3.93c2.087,1.728,4.249,3.359,6.456,4.93a12.8,12.8,0,0,0,2.556,1.53M178.5,68.392a4.1,4.1,0,0,1-.309.972,16.63,16.63,0,0,1-.886,1.579,35.827,35.827,0,0,1-2.9,3.833q-1.883,2.23-3.794,4.436a20.792,20.792,0,0,0-3.93,6.511c-.187.519-.4,1.026-.606,1.539a43.011,43.011,0,0,1-2.809,5.988,33.472,33.472,0,0,1-5.453,7.115c-.675.663-1.393,1.282-2.084,1.929a.706.706,0,0,1-.508.144c-.35.021-.471.144-.5.484s-.028.683-.036,1.025c-.056,2.471-.1,4.943-.17,7.413-.052,1.813-.143,3.625-.213,5.438-.022.578-.043,1.157-.045,1.735-.007,2.183-.005,4.366-.009,6.549,0,.26-.011.521-.018.853-.229-.141-.412-.234-.573-.355-2.087-1.557-4.149-3.145-6.109-4.861a104.691,104.691,0,0,1-8.2-8.079c-.656-.716-.567-.419-.537-1.466.055-1.918.154-3.835.232-5.753.027-.657.043-1.314.073-1.971.04-.866.09-1.733.137-2.6a1.3,1.3,0,0,1,.043-.389,2.782,2.782,0,0,0,.079-1.4c-.156-1.171-.325-2.342-.535-3.5-.522-2.894-1.093-5.78-1.6-8.677q-.536-3.065-.947-6.152a47.132,47.132,0,0,1-.466-7,18.876,18.876,0,0,1,.425-3.912,7.011,7.011,0,0,1,1.051-2.531,2.532,2.532,0,0,1,1-.874.914.914,0,0,1,1.253.3,3.558,3.558,0,0,1,.454.911,7.06,7.06,0,0,1,.313,1.3c.1.729.168,1.463.2,2.2.071,1.787.1,3.575.17,5.362a9.956,9.956,0,0,0,.2,1.561,4.137,4.137,0,0,0,1.385,2.33c.356.312.712.625,1.076.927a15.93,15.93,0,0,1,3.834,4.664c.466.853.911,1.718,1.364,2.578.1.186.19.375.294.558a1.381,1.381,0,0,0,.184.254.512.512,0,0,0,.581.109.427.427,0,0,0,.252-.449,2.447,2.447,0,0,0-.209-.668c-.555-1.073-1.111-2.147-1.7-3.2a18.676,18.676,0,0,0-1.07-1.653,17.9,17.9,0,0,0-3.343-3.441,7.217,7.217,0,0,1-.945-.9c.589-1.134,1.155-2.226,1.723-3.317q3.461-6.641,6.926-13.28c1.22-2.328,2.454-4.649,3.814-6.9.543-.9,1.144-1.764,1.735-2.633a7.266,7.266,0,0,1,1.341-1.439,2.625,2.625,0,0,1,1.038-.546.858.858,0,0,1,1.1.513,2.355,2.355,0,0,1,.161.683,7.29,7.29,0,0,1-.269,2.5,32.072,32.072,0,0,1-1.586,4.615c-1.079,2.567-2.186,5.121-3.281,7.682-.32.749-.643,1.5-.95,2.251a8.151,8.151,0,0,0-.322.971.649.649,0,0,0,.256.693.636.636,0,0,0,.736-.064,4.163,4.163,0,0,0,.589-.631c.815-1.1,1.629-2.2,2.42-3.31,1.934-2.722,3.847-5.458,5.786-8.176a43.542,43.542,0,0,1,3.1-3.984,14.51,14.51,0,0,1,1.067-1.05,2.882,2.882,0,0,1,.654-.434,1.232,1.232,0,0,1,1.718.609,2.166,2.166,0,0,1,.107,1.391,9.608,9.608,0,0,1-.668,2.015,40.886,40.886,0,0,1-2.539,4.717c-1.651,2.687-3.329,5.358-5,8.036-.6.959-1.2,1.917-1.8,2.876a4.568,4.568,0,0,0-.269.481.517.517,0,0,0,.167.694.539.539,0,0,0,.7-.158,6.98,6.98,0,0,0,.443-.651c1.176-1.869,2.359-3.733,3.521-5.61,1.287-2.078,2.568-4.16,3.824-6.257a28.648,28.648,0,0,0,2.2-4.357.605.605,0,0,1,.568-.451,7.013,7.013,0,0,1,1.092-.089,1.141,1.141,0,0,1,1.171,1.148,4.3,4.3,0,0,1-.139,1.4,14.865,14.865,0,0,1-.956,2.666,47.31,47.31,0,0,1-2.569,4.881c-1.291,2.168-2.618,4.314-3.927,6.471-.409.674-.817,1.349-1.211,2.032a4.627,4.627,0,0,0-.362.786.637.637,0,0,0,.174.723.589.589,0,0,0,.729.088,4.1,4.1,0,0,0,.6-.37q1.166-.94,2.315-1.9c1.675-1.4,3.335-2.816,5.024-4.2.69-.565,1.43-1.072,2.169-1.573a8.733,8.733,0,0,1,1.244-.677,3.732,3.732,0,0,1,.9-.276.508.508,0,0,1,.63.652" transform="translate(0 0)"/>
        <path id="Path_1030818" data-name="Path 1030818" d="M483.527,371.553a3.213,3.213,0,0,0-.131,1.086,3.875,3.875,0,0,0,.911,2.306,10.128,10.128,0,0,0,3.608,2.746,8.4,8.4,0,0,0,3.422.737c.411-.062,1.042-.116,1.653-.258a9.445,9.445,0,0,0,3.64-1.815,4.035,4.035,0,0,0,1.321-1.642,2.329,2.329,0,0,0-1.256-3.206,3.558,3.558,0,0,0-1.212-.307c-.838-.035-1.681,0-2.521.035-.577.023-1.152.1-1.728.139a3.28,3.28,0,0,1-1.168-.136c-.881-.261-1.763-.52-2.652-.75a9.755,9.755,0,0,0-1.7-.338,1.91,1.91,0,0,0-2.191,1.4" transform="translate(-420.284 -321.816)" fill="#fff"/>
        <path id="Path_1030819" data-name="Path 1030819" d="M437.871,267.737a2.761,2.761,0,0,0-1.344,1,3.49,3.49,0,0,0-.444,3.278,2.559,2.559,0,0,0,2.264,1.76,2.285,2.285,0,0,0,2.374-1.128,4.012,4.012,0,0,0,.551-2.166,8.371,8.371,0,0,0-.161-.932,2.614,2.614,0,0,0-3.241-1.809" transform="translate(-378.958 -232.68)"/>
        <path id="Path_1030820" data-name="Path 1030820" d="M605.861,288.182a3.424,3.424,0,0,0,.722-4.018,2.141,2.141,0,0,0-1.867-1.211c-.16-.007-.321-.022-.481-.033a2.128,2.128,0,0,0-1.742.733,3.523,3.523,0,0,0-.9,2.749,2.528,2.528,0,0,0,.788,1.681,2.584,2.584,0,0,0,3.483.1" transform="translate(-523.038 -245.981)"/>
        <path id="Path_1030821" data-name="Path 1030821" d="M427.529,201.655a3.664,3.664,0,0,0,.78-.082,6.42,6.42,0,0,0,.912-.244,4.2,4.2,0,0,1,1.631-.178,6.75,6.75,0,0,1,1.765.379,2.845,2.845,0,0,0,1.084.151,1.272,1.272,0,0,0,1.2-.865,1.2,1.2,0,0,0-.377-1.358,4.335,4.335,0,0,0-.907-.615,6.154,6.154,0,0,0-2.946-.656,5.362,5.362,0,0,0-2.753.62,3.08,3.08,0,0,0-1.076.9,1.7,1.7,0,0,0-.3.718,1,1,0,0,0,.986,1.227" transform="translate(-370.84 -172.311)"/>
        <path id="Path_1030822" data-name="Path 1030822" d="M546.556,275.644a5.35,5.35,0,0,1,.756.689,4.923,4.923,0,0,1,.654.879,2.005,2.005,0,0,1-.291,2.406c-.17.2-.379.363-.563.549a1.346,1.346,0,0,0-.244.3.487.487,0,0,0,.036.523.458.458,0,0,0,.49.174.773.773,0,0,0,.288-.115,3.554,3.554,0,0,0,1.645-2.866c-.012-.107-.025-.264-.049-.419a3.746,3.746,0,0,0-1.067-2.065,12.072,12.072,0,0,0-1.048-.953,1.893,1.893,0,0,1-.712-1.81,12.3,12.3,0,0,1,.587-2.443c.072-.225.154-.447.213-.675a.46.46,0,0,0-.212-.472.481.481,0,0,0-.579.079,1.188,1.188,0,0,0-.2.332,14.959,14.959,0,0,0-.8,2.793,2.964,2.964,0,0,0,1.1,3.086" transform="translate(-474.186 -234.134)" fill="#cf663e"/>
        <path id="Path_1030823" data-name="Path 1030823" d="M718.6,309.2a3.478,3.478,0,0,0,.53.134,4.076,4.076,0,0,1,.606.148.619.619,0,0,1,.345.783,1.343,1.343,0,0,1-.609.794c-.178.111-.369.2-.542.32a.538.538,0,0,0-.19.693.492.492,0,0,0,.606.24,2.638,2.638,0,0,0,1.674-1.453,1.72,1.72,0,0,0-.738-2.31,3.072,3.072,0,0,1-.313-.219c.588-.337,1.082-.566,1.6-.084a.281.281,0,0,0,.071.033.415.415,0,0,0,.444-.053.425.425,0,0,0,.161-.418.739.739,0,0,0-.32-.522,1.641,1.641,0,0,0-1.5-.247,4.581,4.581,0,0,0-1.8.951,1.383,1.383,0,0,0-.3.356.582.582,0,0,0,.279.852" transform="translate(-624.46 -266.886)" fill="#cf663e"/>
        <path id="Path_1030824" data-name="Path 1030824" d="M324.05,262.415c.215-.1.424-.207.638-.307a.67.67,0,0,1,.793.165,1.9,1.9,0,0,1,.527.909c-.089.057-.13.088-.176.11-.071.034-.144.063-.217.093a1.84,1.84,0,0,0-1.168,1.8,3.067,3.067,0,0,0,.631,1.827.579.579,0,0,0,.108.113.55.55,0,0,0,.59.071.488.488,0,0,0,.24-.536,2.083,2.083,0,0,0-.138-.366c-.075-.168-.163-.33-.239-.5a1.307,1.307,0,0,1-.079-.849.712.712,0,0,1,.562-.591,5.4,5.4,0,0,0,.537-.121.648.648,0,0,0,.473-.652,1.259,1.259,0,0,0-.013-.314,3.317,3.317,0,0,0-1.035-1.815,1.911,1.911,0,0,0-2.566.238.419.419,0,0,0-.028.573.446.446,0,0,0,.559.152" transform="translate(-281.17 -226.972)" fill="#cf663e"/>
        <path id="Path_1030825" data-name="Path 1030825" d="M554.276,51.784a2.172,2.172,0,0,0,.331.21c.209.11.423.21.634.316a12.309,12.309,0,0,1,4.933,4.409c.48.751.921,1.529,1.347,2.313.451.83.859,1.683,1.291,2.524a27.542,27.542,0,0,0,2.114,3.412,2.22,2.22,0,0,0,.423.458.42.42,0,0,0,.518.014,1.583,1.583,0,0,0,.268-.348,2.106,2.106,0,0,0-.119-.406,5.093,5.093,0,0,0-.345-.527,28.667,28.667,0,0,1-2.221-3.715c-.284-.562-.547-1.136-.853-1.686-.5-.895-.988-1.795-1.539-2.656a13.284,13.284,0,0,0-6.041-5,1.945,1.945,0,0,0-.37-.13.5.5,0,0,0-.5.306.466.466,0,0,0,.131.5" transform="translate(-481.776 -44.316)" fill="#0b0424"/>
        <path id="Path_1030826" data-name="Path 1030826" d="M363.4,148.927a.429.429,0,0,0,.5-.133,5.171,5.171,0,0,0,.379-.685,50.332,50.332,0,0,0,1.946-4.9c.74-2.187,1.316-4.422,1.907-6.653.047-.177.078-.359.116-.535,0-.03,0-.056,0-.082a.547.547,0,0,0-.393-.528.478.478,0,0,0-.526.26,2.37,2.37,0,0,0-.18.434q-.131.412-.239.831a70.32,70.32,0,0,1-3.68,11.116,1.784,1.784,0,0,0-.124.371.474.474,0,0,0,.3.5" transform="translate(-315.69 -117.724)" fill="#0b0424"/>
        <path id="Path_1030827" data-name="Path 1030827" d="M358.595,407.66a80.387,80.387,0,0,1-1.731-8.88,5.165,5.165,0,0,0-.174-.766.427.427,0,0,0-.447-.256.464.464,0,0,0-.406.319c-.018.076-.023.155-.033.23.009.108.014.213.027.318.1.78.2,1.563.316,2.341q.5,3.31,1.293,6.562c.144.586.275,1.175.427,1.759a3.476,3.476,0,0,0,.244.66.475.475,0,0,0,.528.254.444.444,0,0,0,.351-.461,5.4,5.4,0,0,0-.106-.856c-.082-.411-.187-.818-.289-1.226" transform="translate(-309.351 -345.828)" fill="#0b0424"/>
        <path id="Path_1030828" data-name="Path 1030828" d="M716.967,422.819c-.17-.439-.351-.874-.512-1.316a21.175,21.175,0,0,1-1.034-4.743,4.538,4.538,0,0,0-.125-.69.42.42,0,0,0-.434-.292.4.4,0,0,0-.4.3,2.361,2.361,0,0,0-.027.541,22.433,22.433,0,0,0,.38,2.878A17.432,17.432,0,0,0,716,423.312a2.443,2.443,0,0,0,.172.351.52.52,0,0,0,.948-.4,3.969,3.969,0,0,0-.158-.443" transform="translate(-621.16 -361.496)" fill="#0b0424"/>
      </g>
    </g>
  </g>
</svg>
