<svg xmlns="http://www.w3.org/2000/svg" width="83.947" height="83.994" viewBox="0 0 83.947 83.994">
  <g id="img2" transform="translate(-706.028 -1710)">
    <g id="Group_1180300" data-name="Group 1180300" transform="translate(706 1710)">
      <g id="Grupo_155253" data-name="Grupo 155253" transform="matrix(0.999, 0.035, -0.035, 0.999, 2.834, 0)">
        <path id="Trazado_196478" data-name="Trazado 196478" d="M11.413,12.382q-.253.262-.5.529A40.338,40.338,0,0,0,.029,42.021l16.9-.589a23.694,23.694,0,0,1,47.359-1.656l16.9-.589a40.606,40.606,0,0,0-69.778-26.8" transform="translate(0 0)" fill="#f9ce5d"/>
        <path id="Trazado_196479" data-name="Trazado 196479" d="M0,2.836A40.606,40.606,0,0,0,81.162,0L64.26.589A23.694,23.694,0,0,1,16.9,2.245Z" transform="translate(0.028 39.185)" fill="#70f5c8"/>
      </g>
      <ellipse id="Ellipse_13685" data-name="Ellipse 13685" cx="33.016" cy="33.016" rx="33.016" ry="33.016" transform="translate(8.983 9.09)" fill="#fff"/>
    </g>
    <g id="Group_1184495" data-name="Group 1184495" transform="translate(688.434 1730.374)">
      <g id="Group_1184493" data-name="Group 1184493" transform="translate(42.078 6.712)">
        <path id="Path_1032233" data-name="Path 1032233" d="M310.607,333.652,298,338.98l2.861,9.1h10.412a.662.662,0,0,0,.662-.662V337Z" transform="translate(-276.958 -312.174)" fill="#f2eae7"/>
        <g id="Group_1184492" data-name="Group 1184492" transform="translate(0)">
          <g id="Group_1184489" data-name="Group 1184489" transform="translate(0 0)">
            <g id="XMLID_235_">
              <g id="Group_1184488" data-name="Group 1184488">
                <path id="Path_1032234" data-name="Path 1032234" d="M83.92,80.106v24.167L72.846,115.346H49.6a.662.662,0,0,1-.662-.662V80.106a.662.662,0,0,1,.662-.662H83.259a.662.662,0,0,1,.662.662Z" transform="translate(-48.943 -79.444)" fill="#f9f7f7"/>
              </g>
            </g>
          </g>
          <g id="XMLID_239_">
            <g id="Group_1184490" data-name="Group 1184490">
              <path id="Path_1032235" data-name="Path 1032235" d="M328.018,359.641l-.5-1.262-5.927.066-6.024,2.546.068,5.564,1.308,4.16h1.792l9.282-9.281Z" transform="translate(-293.04 -334.812)" fill="#ede2dd"/>
              <path id="Path_1032236" data-name="Path 1032236" d="M73.379,102.7a2.354,2.354,0,0,0-2.339,2.351l.072,5.876a1.68,1.68,0,0,1-1.68,1.7H56.377a2.649,2.649,0,0,1-2.649-2.649V79.444H49.6a.662.662,0,0,0-.662.662v34.578a.662.662,0,0,0,.662.662H72.846L83.92,104.273v-1.69Z" transform="translate(-48.943 -79.444)" fill="#f2eae7"/>
              <path id="Path_1032237" data-name="Path 1032237" d="M341.673,373.314,330.61,384.377l-.127-10.285a.661.661,0,0,1,.662-.662Z" transform="translate(-306.696 -348.486)" fill="#f9f7f7"/>
            </g>
          </g>
          <g id="Group_1184491" data-name="Group 1184491" transform="translate(3.842 13.636)">
            <circle id="Ellipse_13785" data-name="Ellipse 13785" cx="1.511" cy="1.511" r="1.511" fill="#ee878a"/>
            <circle id="Ellipse_13786" data-name="Ellipse 13786" cx="1.511" cy="1.511" r="1.511" transform="translate(0 5.696)" fill="#ee878a"/>
            <circle id="Ellipse_13787" data-name="Ellipse 13787" cx="1.511" cy="1.511" r="1.511" transform="translate(0 11.392)" fill="#ee878a"/>
          </g>
        </g>
      </g>
      <g id="Group_1184494" data-name="Group 1184494" transform="translate(41.444)">
        <path id="Path_1032238" data-name="Path 1032238" d="M77.054,214.588a.634.634,0,0,0-.634.634v5.557H66.526a1.3,1.3,0,0,0-1.3,1.3v3.092a.634.634,0,1,0,1.267,0v-3.092a.028.028,0,0,1,.028-.028h8.882l-8.91,8.91v-3.072a.634.634,0,0,0-1.267,0v3.852H42.739a.028.028,0,0,1-.028-.028V207.9a.634.634,0,1,0-1.267,0v23.807a1.3,1.3,0,0,0,1.3,1.3H76.393a1.3,1.3,0,0,0,1.3-1.3V215.222A.633.633,0,0,0,77.054,214.588Zm-.661,17.147H67.511l8.91-8.91v8.882A.028.028,0,0,1,76.393,231.735Z" transform="translate(-41.444 -189.755)"/>
        <path id="Path_1032239" data-name="Path 1032239" d="M76.393,6.078H53.677V3.111a3.111,3.111,0,0,0-6.222,0V6.078H42.739a1.3,1.3,0,0,0-1.3,1.3v8.054a.634.634,0,1,0,1.267,0V7.374a.028.028,0,0,1,.028-.028h4.715v5.323a2.294,2.294,0,1,0,4.588,0V9.5a.634.634,0,1,0-1.267,0v3.167a1.027,1.027,0,1,1-2.053,0V7.346H76.393a.028.028,0,0,1,.028.028V22.749a.634.634,0,1,0,1.267,0V7.374a1.3,1.3,0,0,0-1.3-1.3ZM48.722,3.111a1.844,1.844,0,0,1,3.687,0V6.078H48.722V3.111Z" transform="translate(-41.444)"/>
        <path id="Path_1032240" data-name="Path 1032240" d="M89.065,237.635a2.145,2.145,0,1,0-2.145-2.145A2.148,2.148,0,0,0,89.065,237.635Zm0-3.023a.878.878,0,1,1-.878.878A.879.879,0,0,1,89.065,234.612Z" transform="translate(-83.078 -213.63)"/>
        <path id="Path_1032241" data-name="Path 1032241" d="M89.065,305.053a2.145,2.145,0,1,0-2.145-2.145A2.148,2.148,0,0,0,89.065,305.053Zm0-3.023a.878.878,0,1,1-.878.878A.879.879,0,0,1,89.065,302.03Z" transform="translate(-83.078 -275.352)"/>
        <path id="Path_1032242" data-name="Path 1032242" d="M89.065,372.471a2.145,2.145,0,1,0-2.145-2.145A2.148,2.148,0,0,0,89.065,372.471Zm0-3.023a.878.878,0,1,1-.878.878A.879.879,0,0,1,89.065,369.448Z" transform="translate(-83.078 -337.074)"/>
        <path id="Path_1032243" data-name="Path 1032243" d="M152.91,252.5h18.257a.634.634,0,1,0,0-1.267H152.91a.634.634,0,0,0,0,1.267Z" transform="translate(-142.912 -230.008)"/>
        <path id="Path_1032244" data-name="Path 1032244" d="M152.91,319.919H169.8a.634.634,0,1,0,0-1.267H152.91a.634.634,0,1,0,0,1.267Z" transform="translate(-142.912 -291.73)"/>
        <path id="Path_1032245" data-name="Path 1032245" d="M152.91,387.338h10.747a.634.634,0,1,0,0-1.267H152.91a.634.634,0,0,0,0,1.267Z" transform="translate(-142.912 -353.453)"/>
      </g>
    </g>
  </g>
</svg>
