<svg xmlns="http://www.w3.org/2000/svg" width="149.909" height="150" viewBox="0 0 149.909 150">
  <g id="img28" transform="translate(-705.985 -1710.002)">
    <g id="Group_1180300" data-name="Group 1180300" transform="translate(705.936 1710.002)">
      <g id="Grupo_155253" data-name="Grupo 155253" transform="matrix(0.999, 0.035, -0.035, 0.999, 5.062, 0)">
        <path id="Trazado_196478" data-name="Trazado 196478" d="M20.377,22.814q-.452.483-.9.974A75.7,75.7,0,0,0,.051,77.428l30.182-1.084c-.818-24.1,17.45-44.315,40.8-45.157S113.985,49.2,114.8,73.3l30.182-1.084c-1.018-30-19.313-56.469-46.471-67.234A70.928,70.928,0,0,0,20.377,22.822" transform="translate(0 0)" fill="#ff9e74"/>
        <path id="Trazado_196479" data-name="Trazado 196479" d="M0,5.22c1.4,41.3,34.98,73.608,75,72.167S146.334,41.3,144.933,0L114.751,1.084c.818,24.1-17.451,44.315-40.8,45.156S31,28.229,30.182,4.132Z" transform="translate(0.049 67.595)" fill="#70f5c8"/>
      </g>
      <ellipse id="Ellipse_13685" data-name="Ellipse 13685" cx="58.366" cy="58.462" rx="58.366" ry="58.462" transform="translate(16.722 16.827)" fill="#fff"/>
    </g>
    <g id="Group_1184785" data-name="Group 1184785" transform="translate(738.169 1742.242)">
      <path id="Path_1033079" data-name="Path 1033079" d="M100.025,11h37.947l8.233,8.233V71.142h-46.18Z" transform="translate(-80.723 -5.098)" fill="#cfe8ff" fill-rule="evenodd"/>
      <path id="Path_1033080" data-name="Path 1033080" d="M395.143,53.878l1.782,1.782v51.908h-1.782Z" transform="translate(-331.443 -41.525)" fill="#b6dbff" fill-rule="evenodd"/>
      <path id="Path_1033081" data-name="Path 1033081" d="M11.045,344.19H58.584v23.587H11.045Z" transform="translate(-5.129 -288.162)" fill="#2dd62d"/>
      <path id="Path_1033082" data-name="Path 1033082" d="M71.679,360.6a2.386,2.386,0,0,0,2.106,2.948v3.924h-41v-3.924A2.386,2.386,0,0,0,34.9,360.6Z" transform="translate(-23.602 -302.107)" fill="#29b933" fill-rule="evenodd"/>
      <path id="Path_1033083" data-name="Path 1033083" d="M35.737,365.933h35.1a2.948,2.948,0,0,0,2.948,2.948v11.147a2.948,2.948,0,0,0-2.948,2.948h-35.1a2.949,2.949,0,0,0-2.948-2.948V368.881A2.948,2.948,0,0,0,35.737,365.933Z" transform="translate(-23.602 -306.634)" fill="#96ff96" fill-rule="evenodd"/>
      <circle id="Ellipse_13825" data-name="Ellipse 13825" cx="8.494" cy="8.494" r="8.494" transform="translate(20.587 75.705) rotate(-85.927)" fill="#29b933"/>
      <path id="Path_1033084" data-name="Path 1033084" d="M121.171,366.123a7.99,7.99,0,1,1-8.477,7.975A8.494,8.494,0,0,1,121.171,366.123Z" transform="translate(-91.486 -306.796)" fill="#2dd62d" fill-rule="evenodd"/>
      <path id="Path_1033085" data-name="Path 1033085" d="M319.724,344.19h1.1v23.587h-1.1Z" transform="translate(-267.37 -288.162)" fill="#29b933"/>
      <path id="Path_1033086" data-name="Path 1033086" d="M352.266,11l8.233,8.233h-8.233Z" transform="translate(-295.017 -5.098)" fill="#4eb1fc" fill-rule="evenodd"/>
      <path id="Path_1033087" data-name="Path 1033087" d="M145.557,174.511h5.474v20.574h-5.474Z" transform="translate(-119.405 -144.01)" fill="#4eb1fc"/>
      <path id="Path_1033088" data-name="Path 1033088" d="M81.832,238.53h5.474v10.943H81.832Z" transform="translate(-65.267 -198.398)" fill="#fdc72e"/>
      <path id="Path_1033089" data-name="Path 1033089" d="M209.282,185.03h5.474v18.992h-5.474Z" transform="translate(-173.543 -152.946)" fill="#2dd62d"/>
      <path id="Path_1033090" data-name="Path 1033090" d="M273.007,135.8h5.474v26.4h-5.474Z" transform="translate(-227.681 -111.119)" fill="#f89b00"/>
      <path id="Path_1033091" data-name="Path 1033091" d="M18.106,270.182H23.58v6.182H18.106Z" transform="translate(-11.128 -225.288)" fill="#fb545c"/>
      <path id="Path_1033092" data-name="Path 1033092" d="M298.6,135.8h1.624v26.4H298.6Z" transform="translate(-249.425 -111.119)" fill="#e68207"/>
      <path id="Path_1033093" data-name="Path 1033093" d="M234.875,185.03H236.5v18.992h-1.624Z" transform="translate(-195.286 -152.946)" fill="#29b933"/>
      <path id="Path_1033094" data-name="Path 1033094" d="M171.15,174.511h1.624v20.574H171.15Z" transform="translate(-141.148 -144.01)" fill="#2a92fa"/>
      <path id="Path_1033095" data-name="Path 1033095" d="M107.424,238.53h1.624v10.943h-1.624Z" transform="translate(-87.009 -198.398)" fill="#f9ac00"/>
      <path id="Path_1033096" data-name="Path 1033096" d="M43.7,270.182h1.624v6.182H43.7Z" transform="translate(-32.869 -225.288)" fill="#e8333c"/>
      <g id="Group_1184783" data-name="Group 1184783" transform="translate(51.341 40.551)">
        <path id="Path_1033097" data-name="Path 1033097" d="M329.033,306.736c5.358,2.112,9.92,9.646,11.574,16.059,2.774,10.758-3.382,12.99-13.475,13.166-10.093-.176-16.249-2.408-13.475-13.166,1.654-6.414,6.216-13.947,11.574-16.059h3.8Z" transform="translate(-312.991 -296.894)" fill="#d19458" fill-rule="evenodd"/>
        <path id="Path_1033098" data-name="Path 1033098" d="M325.49,335.911c-9.106-.4-14.453-2.955-11.833-13.116,1.654-6.414,6.216-13.947,11.574-16.059h.519c5.358,2.112,9.92,9.646,11.574,16.059C339.943,332.957,334.6,335.511,325.49,335.911Z" transform="translate(-312.99 -296.894)" fill="#e6b17c" fill-rule="evenodd"/>
        <path id="Path_1033099" data-name="Path 1033099" d="M356.837,252.453l-2.746.008c-6.213-8.509-4.749-11.539-1.863-10.641a5.126,5.126,0,0,1,1.834,1.088c.8.662,1.446.971,2.132,0,1.494-2.121,2.832-2.121,4.327,0,.687.975,1.328.666,2.132,0a5.128,5.128,0,0,1,1.834-1.088c2.886-.9,4.35,2.132-1.863,10.641l-2.746-.008c-.574,0-1.047.005-1.52.005s-.947,0-1.521-.005Z" transform="translate(-344.216 -241.314)" fill="#d19458" fill-rule="evenodd"/>
        <path id="Path_1033100" data-name="Path 1033100" d="M356.836,252.454h-.505l-1.258,0-.987,0c-6.208-8.5-4.744-11.533-1.859-10.636a5.125,5.125,0,0,1,1.834,1.088c.8.663,1.446.971,2.132,0,1.494-2.121,2.832-2.121,4.326,0,.687.974,1.328.666,2.132,0a8.39,8.39,0,0,1,.757-.577c.786,1.29.03,4.517-4.065,10.125l-.987,0-1.258,0h-.263Z" transform="translate(-344.216 -241.315)" fill="#e6b17c" fill-rule="evenodd"/>
      </g>
      <rect id="Rectangle_459455" data-name="Rectangle 459455" width="14.204" height="3.154" rx="1.577" transform="translate(58.38 50.119)" fill="#96602a"/>
      <g id="Group_1184784" data-name="Group 1184784" transform="translate(5.008 5)">
        <path id="Path_1033101" data-name="Path 1033101" d="M369.742,304.913h-8.383a1.577,1.577,0,0,0,0,3.154h8.383a1.577,1.577,0,0,0,0-3.154Z" transform="translate(-306.41 -259.794)" fill="#ab733a" fill-rule="evenodd"/>
        <path id="Path_1033102" data-name="Path 1033102" d="M7.879,50.173h3.668V45.8H7.879Zm-1.8.9V44.894a.9.9,0,0,1,.906-.9h5.473a.9.9,0,0,1,.9.9v6.182a.9.9,0,0,1-.9.9H6.98A.9.9,0,0,1,6.074,51.076ZM49.9,25.58H46.227V50.173H49.9Zm.906-1.8a.9.9,0,0,1,.9.9v26.4a.9.9,0,0,1-.9.9H45.328a.9.9,0,0,1-.906-.9v-26.4a.9.9,0,0,1,.906-.9Zm-10.49,9.212H36.644V50.173h3.668Zm.9-1.8a.9.9,0,0,1,.906.9V51.076a.9.9,0,0,1-.906.9H35.737a.9.9,0,0,1-.9-.9V32.084a.9.9,0,0,1,.9-.9ZM21.138,41.035H17.47v9.138h3.668Zm.9-1.8a.9.9,0,0,1,.906.9V51.076a.9.9,0,0,1-.906.9H16.563a.9.9,0,0,1-.9-.9V40.133a.9.9,0,0,1,.9-.9ZM30.721,31.4H27.053v18.77h3.668Zm.906-1.8a.9.9,0,0,1,.9.9V51.076a.9.9,0,0,1-.9.9H26.154a.9.9,0,0,1-.906-.9V30.5a.9.9,0,0,1,.906-.9h5.473ZM10.14,42.59A.9.9,0,0,1,9.5,41.049L27.727,22.821a.908.908,0,0,1,.993-.193l8.895,3.77L48.344,15.67l-.507.074a.9.9,0,0,1-.261-1.786l3.2-.469a.9.9,0,0,1,.768.255.937.937,0,0,1,.254.769l-.471,3.2a.9.9,0,0,1-.892.772.864.864,0,0,1-.13-.009.9.9,0,0,1-.761-1.024l.073-.5L38.464,28.1a.906.906,0,0,1-.993.193l-8.895-3.77-17.8,17.8a.9.9,0,0,1-.638.265ZM68.794,69.215a4.023,4.023,0,0,0-2.407-1.431v3.841c1.269-.133,2.276-.654,2.472-1.336A1.323,1.323,0,0,0,68.794,69.215Zm-4.212-3.748v-3.95a3.4,3.4,0,0,0-1.892.847,1.568,1.568,0,0,0-.471,1.185,1.7,1.7,0,0,0,.732,1.209,4.866,4.866,0,0,0,1.631.709Zm5.792,2.875A3.139,3.139,0,0,1,70.6,70.8c-.493,1.662-2.349,2.486-4.212,2.642v1.232a.9.9,0,1,1-1.8,0V73.385c-2.269-.319-3.929-1.563-4.342-3.317A.9.9,0,0,1,62,69.658a2.988,2.988,0,0,0,2.581,1.892V67.334a7.378,7.378,0,0,1-2.733-1.15,3.516,3.516,0,0,1-1.435-2.5,3.349,3.349,0,0,1,.979-2.566,5.226,5.226,0,0,1,3.19-1.412V58.439a.9.9,0,1,1,1.8,0V59.7a7.146,7.146,0,0,1,1.109.212,4.156,4.156,0,0,1,3.2,2.918.9.9,0,0,1-1.761.4c-.232-1.006-1.421-1.439-1.928-1.579a5.135,5.135,0,0,0-.623-.133v4.4c.145.038.3.076.442.117a5.558,5.558,0,0,1,3.545,2.31Zm7.706-1.664c1.015,3.935.826,6.747-.58,8.6-1.725,2.263-5.43,3.324-12.019,3.441-6.59-.117-10.294-1.178-12.019-3.441-1.406-1.85-1.595-4.662-.58-8.6a29.331,29.331,0,0,1,6.843-12.514c.08.007.152.012.232.012H71c.08,0,.159,0,.232-.012A29.255,29.255,0,0,1,78.08,66.678Zm-42.9,8.766H46.444A3.871,3.871,0,0,1,49.286,72.6v-9.56A3.872,3.872,0,0,1,46.444,60.2H35.179a9.389,9.389,0,0,1,0,15.245ZM24.2,60.2H12.924a3.861,3.861,0,0,1-2.842,2.843V72.6a3.859,3.859,0,0,1,2.842,2.842H24.2a9.389,9.389,0,0,1,0-15.245Zm13.085,7.622a7.594,7.594,0,1,1-7.6-7.594A7.6,7.6,0,0,1,37.281,67.821ZM52.563,78.716V76.989a7.209,7.209,0,0,1-.536-.621,7.37,7.37,0,0,1-1.182-2.348.909.909,0,0,1-.652.279,2.051,2.051,0,0,0-2.052,2.046.9.9,0,0,1-.9.9H12.127a.9.9,0,0,1-.9-.9A2.051,2.051,0,0,0,9.176,74.3a.9.9,0,0,1-.9-.9V62.245a.9.9,0,0,1,.9-.9A2.052,2.052,0,0,0,11.228,59.3a.9.9,0,0,1,.9-.9H47.242a.9.9,0,0,1,.9.9,2.052,2.052,0,0,0,2.052,2.047.9.9,0,0,1,.9.9v4.138l.043-.157a30.477,30.477,0,0,1,1.428-4.212V56.926H6.813v21.79Zm8.025-29.5h9.786C73.332,44.7,73.44,42.556,73.02,42c-.246-.326-.935-.141-1.138-.078a4.143,4.143,0,0,0-1.486.888l-.043.035a2.662,2.662,0,0,1-2.008.808,2.118,2.118,0,0,1-1.435-.988c-.551-.779-1.058-1.208-1.428-1.208s-.877.428-1.421,1.208a2.146,2.146,0,0,1-1.443.988,2.669,2.669,0,0,1-2.008-.808l-.036-.035a4.208,4.208,0,0,0-1.486-.888c-.21-.064-.9-.248-1.145.078-.413.558-.312,2.7,2.646,7.219ZM58.152,13.233h5.154L58.152,8.082v5.151ZM71,52.37a.674.674,0,0,0,0-1.348H59.957a.674.674,0,1,0,0,1.348Zm7.931,24c-2.66,3.5-8.286,4.062-13.44,4.152h-.029c-3.936-.068-8.141-.415-11.1-2.134v1.232a.9.9,0,0,1-.906.9H5.907a.9.9,0,0,1-.9-.9v-23.6a.9.9,0,0,1,.9-.9H53.462a.9.9,0,0,1,.906.9v2.338a27.4,27.4,0,0,1,3.69-5.071,2.477,2.477,0,0,1,.616-3.713c-2.588-4.119-3.342-7.1-2.175-8.661a2.685,2.685,0,0,1,3.124-.72,5.884,5.884,0,0,1,2.1,1.219l.043.033a1.99,1.99,0,0,0,.609.407.811.811,0,0,0,.21-.233,4.752,4.752,0,0,1,2-1.794V15.039H57.253a.9.9,0,0,1-.906-.9V6.806H20.2V27.283a.9.9,0,1,1-1.8,0V5.9a.888.888,0,0,1,.268-.639A.9.9,0,0,1,19.3,5h37.95a.912.912,0,0,1,.638.264L66.119,13.5a.886.886,0,0,1,.268.638V39.827a4.789,4.789,0,0,1,1.993,1.795,1.132,1.132,0,0,0,.21.233,2.072,2.072,0,0,0,.616-.407l.036-.033a5.864,5.864,0,0,1,2.1-1.219,2.675,2.675,0,0,1,3.117.721c1.167,1.559.413,4.542-2.175,8.66A2.478,2.478,0,0,1,72.9,53.29a31.138,31.138,0,0,1,6.93,12.937c1.16,4.505.863,7.823-.9,10.142ZM31.83,69.85a2.279,2.279,0,0,0-1.24-.8v2.1c.7-.128,1.182-.434,1.269-.733a.7.7,0,0,0-.029-.573ZM28.785,66.7V64.53a1.919,1.919,0,0,0-.913.468.875.875,0,0,0-.268.652,1,1,0,0,0,.428.682,2.553,2.553,0,0,0,.754.363Zm4.625,2.281A4.189,4.189,0,0,0,30.721,67.2l-.13-.034V64.524l.123.03c.319.088,1.066.354,1.2.94a.9.9,0,0,0,1.762-.4A3.224,3.224,0,0,0,31.2,62.815a5.18,5.18,0,0,0-.609-.128V62.01a.9.9,0,1,0-1.8,0v.684a3.934,3.934,0,0,0-2.218,1.054,2.642,2.642,0,0,0-.761,2.033,2.747,2.747,0,0,0,1.116,1.978,5.18,5.18,0,0,0,1.863.818v2.5a1.7,1.7,0,0,1-1.341-1.093.9.9,0,0,0-1.761.41,3.6,3.6,0,0,0,3.1,2.532v.7a.9.9,0,1,0,1.8,0v-.654a3.327,3.327,0,0,0,3-2.048,2.485,2.485,0,0,0-.181-1.953Zm-19.116-.254a.9.9,0,1,1,0-1.8h1.783a.9.9,0,0,1,0,1.8Zm31.686-.9a.9.9,0,0,1-.9.9H43.291a.9.9,0,0,1,0-1.8h1.791A.9.9,0,0,1,45.98,67.82Z" transform="translate(-5.008 -5)" fill-rule="evenodd"/>
      </g>
    </g>
  </g>
</svg>
