<svg xmlns="http://www.w3.org/2000/svg" width="149.908" height="150" viewBox="0 0 149.908 150">
  <g id="img23" transform="translate(-705.985 -1710.001)">
    <g id="Group_1180300" data-name="Group 1180300" transform="translate(705.936 1710.002)">
      <g id="Grupo_155253" data-name="Grupo 155253" transform="matrix(0.999, 0.035, -0.035, 0.999, 5.061, 0)">
        <path id="Trazado_196478" data-name="Trazado 196478" d="M20.378,22.814q-.452.483-.9.974A75.7,75.7,0,0,0,.051,77.428l30.182-1.084c-.818-24.1,17.45-44.315,40.8-45.157S113.984,49.2,114.8,73.3l30.181-1.084c-1.018-30-19.313-56.469-46.471-67.233A70.928,70.928,0,0,0,20.378,22.822" transform="translate(0 0)" fill="#f9ce5d"/>
        <path id="Trazado_196479" data-name="Trazado 196479" d="M0,5.22c1.4,41.3,34.98,73.608,75,72.166S146.333,41.3,144.933,0L114.75,1.084c.818,24.1-17.451,44.314-40.8,45.156S31,28.229,30.182,4.132Z" transform="translate(0.049 67.594)" fill="#70f5c8"/>
      </g>
      <ellipse id="Ellipse_13685" data-name="Ellipse 13685" cx="58.366" cy="58.462" rx="58.366" ry="58.462" transform="translate(16.722 16.827)" fill="#fff"/>
    </g>
    <g id="filled_outline" data-name="filled outline" transform="translate(697.991 1716.785)">
      <circle id="Ellipse_13822" data-name="Ellipse 13822" cx="31.769" cy="31.769" r="31.769" transform="translate(49.271 38.354)" fill="#5ebef7"/>
      <circle id="Ellipse_13823" data-name="Ellipse 13823" cx="26.686" cy="26.686" r="26.686" transform="translate(54.354 43.437)" fill="#eae9e4"/>
      <circle id="Ellipse_13824" data-name="Ellipse 13824" cx="10.166" cy="10.166" r="10.166" transform="translate(93.747 82.83)" fill="#ee9d0d"/>
      <path id="Path_1033038" data-name="Path 1033038" d="M239.21,213.079a3.811,3.811,0,0,0-2.169-5.236v-6.572a1.271,1.271,0,0,0-2.542,0v6.572a3.812,3.812,0,1,0,2.913,7.034l7.625,7.625a1.271,1.271,0,1,0,1.8-1.8Zm-4.711-1.643a1.271,1.271,0,1,1,1.271,1.271A1.271,1.271,0,0,1,234.5,211.437Z" transform="translate(-154.73 -141.314)"/>
      <path id="Path_1033039" data-name="Path 1033039" d="M111.014,110.957A32.7,32.7,0,0,0,114.08,97.04a33.04,33.04,0,1,0-33.04,33.04,32.684,32.684,0,0,0,13.917-3.067,11.43,11.43,0,1,0,16.057-16.055ZM81.04,127.538a30.5,30.5,0,1,1,30.5-30.5,30.179,30.179,0,0,1-2.7,12.554,11.347,11.347,0,0,0-2.413-.836,27.944,27.944,0,1,0-13.669,13.668,11.357,11.357,0,0,0,.836,2.413,30.164,30.164,0,0,1-12.554,2.7ZM96.78,110.983l-1.364-1.363a1.271,1.271,0,1,0-1.8,1.8l1.364,1.364a11.377,11.377,0,0,0-2.5,6.959,25.406,25.406,0,1,1,11.259-11.262A11.376,11.376,0,0,0,96.78,110.983Zm7.133,17.825a8.9,8.9,0,1,1,8.9-8.9,8.9,8.9,0,0,1-8.9,8.9Z" transform="translate(0 -26.917)"/>
      <path id="Path_1033040" data-name="Path 1033040" d="M376.9,387.812h-2.542v-2.542a1.271,1.271,0,1,0-2.542,0v2.542h-2.542a1.271,1.271,0,0,0,0,2.542h2.542V392.9a1.271,1.271,0,1,0,2.542,0v-2.542H376.9a1.271,1.271,0,0,0,0-2.542Z" transform="translate(-269.17 -296.087)"/>
      <path id="Path_1033041" data-name="Path 1033041" d="M249.271,133.083a1.271,1.271,0,0,0,1.271-1.271v-2.542a1.271,1.271,0,0,0-2.542,0v2.542A1.271,1.271,0,0,0,249.271,133.083Z" transform="translate(-168.231 -80.751)"/>
      <path id="Path_1033042" data-name="Path 1033042" d="M154,168.205a1.271,1.271,0,1,0-1.8,1.8l1.8,1.8a1.271,1.271,0,1,0,1.8-1.8Z" transform="translate(-87.34 -114.257)"/>
      <path id="Path_1033043" data-name="Path 1033043" d="M115.812,264h-2.542a1.271,1.271,0,1,0,0,2.542h2.542a1.271,1.271,0,1,0,0-2.542Z" transform="translate(-53.834 -195.148)"/>
      <path id="Path_1033044" data-name="Path 1033044" d="M154,349.1l-1.8,1.8a1.271,1.271,0,1,0,1.8,1.8l1.8-1.8a1.271,1.271,0,1,0-1.8-1.8Z" transform="translate(-87.34 -266.394)"/>
      <path id="Path_1033045" data-name="Path 1033045" d="M249.271,384A1.271,1.271,0,0,0,248,385.271v2.542a1.271,1.271,0,1,0,2.542,0v-2.542A1.271,1.271,0,0,0,249.271,384Z" transform="translate(-168.231 -296.087)"/>
      <path id="Path_1033046" data-name="Path 1033046" d="M373.083,265.271A1.271,1.271,0,0,0,371.812,264h-2.542a1.271,1.271,0,0,0,0,2.542h2.542A1.271,1.271,0,0,0,373.083,265.271Z" transform="translate(-269.17 -195.148)"/>
      <path id="Path_1033047" data-name="Path 1033047" d="M335.154,168.2l-1.8,1.8a1.271,1.271,0,0,0,1.8,1.8l1.8-1.8a1.271,1.271,0,1,0-1.8-1.8Z" transform="translate(-239.737 -114.253)"/>
      <path id="Path_1033048" data-name="Path 1033048" d="M49.271,69.718h1.906v1.906a1.271,1.271,0,0,0,2.542,0V69.718h1.906a1.271,1.271,0,0,0,0-2.542H53.718V65.271a1.271,1.271,0,1,0-2.542,0v1.906H49.271a1.271,1.271,0,1,0,0,2.542Z" transform="translate(0 -26.917)"/>
      <path id="Path_1033049" data-name="Path 1033049" d="M439.625,91.177h-1.906V89.271a1.271,1.271,0,1,0-2.542,0v1.906h-1.906a1.271,1.271,0,0,0,0,2.542h1.906v1.906a1.271,1.271,0,0,0,2.542,0V93.718h1.906a1.271,1.271,0,0,0,0-2.542Z" transform="translate(-323.004 -47.105)"/>
      <path id="Path_1033050" data-name="Path 1033050" d="M393.271,37.718h1.906v1.906a1.271,1.271,0,0,0,2.542,0V37.718h1.906a1.271,1.271,0,0,0,0-2.542h-1.906V33.271a1.271,1.271,0,0,0-2.542,0v1.906h-1.906a1.271,1.271,0,0,0,0,2.542Z" transform="translate(-289.357)"/>
    </g>
  </g>
</svg>
