<svg xmlns="http://www.w3.org/2000/svg" xmlns:xlink="http://www.w3.org/1999/xlink" width="292.289" height="242.644" viewBox="0 0 292.289 242.644">
  <defs>
    <clipPath id="clip-path">
      <rect id="Rectangle_459031" data-name="Rectangle 459031" width="278.196" height="170.081" fill="none"/>
    </clipPath>
    <clipPath id="clip-path-3">
      <rect id="Rectangle_458906" data-name="Rectangle 458906" width="24.744" height="30.358" fill="none"/>
    </clipPath>
    <clipPath id="clip-path-4">
      <rect id="Rectangle_458904" data-name="Rectangle 458904" width="13.08" height="25.836" fill="none"/>
    </clipPath>
    <clipPath id="clip-path-5">
      <rect id="Rectangle_458905" data-name="Rectangle 458905" width="24.744" height="28.774" fill="none"/>
    </clipPath>
    <clipPath id="clip-path-6">
      <rect id="Rectangle_458907" data-name="Rectangle 458907" width="56.369" height="41.609" fill="none"/>
    </clipPath>
    <clipPath id="clip-path-7">
      <rect id="Rectangle_458908" data-name="Rectangle 458908" width="43.956" height="29.182" fill="none"/>
    </clipPath>
  </defs>
  <g id="img26" transform="translate(-185.711 -9302)">
    <rect id="Rectangle_456536" data-name="Rectangle 456536" width="292.289" height="242.644" rx="10" transform="translate(185.711 9302)" fill="#ff9e74"/>
    <g id="Group_1184034" data-name="Group 1184034" transform="translate(193.968 9338.281)">
      <g id="Group_1184033" data-name="Group 1184033" clip-path="url(#clip-path)">
        <g id="Group_1184032" data-name="Group 1184032" transform="translate(0 0)">
          <g id="Group_1184031" data-name="Group 1184031" clip-path="url(#clip-path)">
            <path id="Path_1030262" data-name="Path 1030262" d="M261.152,169.655l-236.267-.082S-15.042,114.547,6.252,77.736s52.4-10.827,54.99-37.421c.088-.9.018-1.791.018-2.661,0-.207,0-.411.014-.616.8-15.273,10.763-25.144,23.914-30.823q.637-.276,1.283-.537c20.973-8.5,49.331-6.751,61.885.557,21.36,12.434,21.226,27.4,65.333,22.463s52.519,36.344,41.037,57.375c-16.291,29.843,45.176,24.941,6.427,83.582" transform="translate(0 0.003)" fill="#ebf3fa"/>
            <path id="Path_1030263" data-name="Path 1030263" d="M1608.422,646.09l-5.742-5.652-5.635-5.547a1.02,1.02,0,0,1-.238-.984c.29-1.034,2.043-2.061,3.067-2.924l.1-.088a3.216,3.216,0,0,1,4.519.383l6.888,8.166h0l2.042,2.422a3.216,3.216,0,0,1-.383,4.519l-.1.088a3.217,3.217,0,0,1-4.52-.384" transform="translate(-1439.109 -567.926)" fill="#ffb27d"/>
            <path id="Path_1030264" data-name="Path 1030264" d="M1033.521,269.878a2.625,2.625,0,0,1-2.34,2.053,24.394,24.394,0,0,1-12.2-1.448c-5.614.027-9.588-2.018-10.791-.96-.044.039-.032.122.031.241,1.1,2.135,18.134,16.337,18.382,17.913.262,1.664-31.685,9.492-31.685,9.492s-4.72-2.942-10.005-6.8c-2.681-1.956-5.5-4.148-7.933-6.314a29.213,29.213,0,0,1-5.59-6.194l-.006-.013a7.559,7.559,0,0,1-.424-.815c-.019-.042-.037-.079-.051-.115a15.621,15.621,0,0,0-3.968-5.28,35.681,35.681,0,0,0-9.916-6.042l23.458-12.518s21.539,2.531,24.985,4.622c5.022,3.05,15.539,5.285,17.562,6.467,1.5.876,9.417,3.718,9.995,3.972a1.991,1.991,0,0,1,.492,1.74" transform="translate(-862.538 -228.089)" fill="#ffb27d"/>
            <path id="Path_1030265" data-name="Path 1030265" d="M669.715,78.146s-.006.048-.019.138h0a58.663,58.663,0,0,1-1.67,7.8h0c-.041.139-.082.281-.124.421h0l-.057.189h0c-1.355,4.483-3.559,9.451-6.959,11.455h0q-.292.172-.6.315a6.28,6.28,0,0,1-1.479.481,6.051,6.051,0,0,1-1.175.113s-2.983-.358-7.445-.9l-.746-.093c-8.068-.985-20.4-2.51-29-3.659,0-.207,0-.411.014-.616.8-15.273,10.763-25.144,23.914-30.823,6.985,4.177,13.529,8.1,18.218,10.909h0l.011.007.876.524.018.011,6.216,3.729" transform="translate(-559.186 -56.748)" fill="#f99746"/>
            <path id="Path_1030266" data-name="Path 1030266" d="M1065.415,380.364a.274.274,0,0,1,.027.061c2.2,13.937,10.3,11.638,10.3,11.638l-.3,11.456c-2.68-1.956-5.5-4.148-7.932-6.314a29.214,29.214,0,0,1-5.59-6.194l-.006-.013c-.191-.345-.334-.621-.425-.815-.019-.042-.036-.079-.051-.115a15.623,15.623,0,0,0-3.968-5.28c.862-1.472,1.868-3.144,2.862-4.782a2.868,2.868,0,0,1,5.089.356" transform="translate(-953.055 -341.243)" fill="#efa26f"/>
            <path id="Path_1030267" data-name="Path 1030267" d="M924.412,173.316s-7.569,6.546-10.686,11.146l2.259,3.918-3.843-.362s-1.957,7.1-.894,9.5l10.479.986,12.079-19.329Z" transform="translate(-820.991 -156.203)" fill="#ed7d2b"/>
            <path id="Path_1030268" data-name="Path 1030268" d="M920.9,176.371c-.31-2.848,2.452-8.664,2.452-8.664l9.292,1.855-7.154-7.54c1.615-3.342,5.488-8.443,7.884-11.464,1.193-1.5,2.02-2.493,2.02-2.493,6.881,5.23,13.286,10.442,13.286,10.442-2.809,1.088-5.437,4.043-7.624,7.308A67.955,67.955,0,0,0,935,177.523c-5.576-.527-14.1-1.152-14.1-1.152" transform="translate(-829.951 -133.445)" fill="#dceaff"/>
            <path id="Path_1030269" data-name="Path 1030269" d="M920.9,199.131c-.31-2.848,2.452-8.664,2.452-8.664l9.292,1.855-7.154-7.54c1.615-3.342,5.488-8.443,7.884-11.464.123,8.332,7.682,15.256,7.682,15.256A67.954,67.954,0,0,0,935,200.283c-5.576-.527-14.1-1.152-14.1-1.152" transform="translate(-829.951 -156.205)" fill="#cbe1fd"/>
            <path id="Path_1030270" data-name="Path 1030270" d="M1014.264,248.61a1.138,1.138,0,1,1-1.249,1.015,1.138,1.138,0,0,1,1.249-1.015" transform="translate(-912.99 -224.058)" fill="#f99746"/>
            <rect id="Rectangle_458902" data-name="Rectangle 458902" width="69.518" height="31.935" transform="matrix(0.962, -0.274, 0.274, 0.962, 114.73, 50.967)" fill="#82b378"/>
            <rect id="Rectangle_458903" data-name="Rectangle 458903" width="69.518" height="31.935" transform="matrix(0.983, -0.181, 0.181, 0.983, 118.362, 49.056)" fill="#a8d29f"/>
            <path id="Path_1030271" data-name="Path 1030271" d="M1297.841,422.84l-2.917-15.817v-.005l-1.435-7.789-.746.138-12.8,2.361h0l-.146.027-9.59,1.768-1.227.226h0l-10.282,1.9-27.032,4.984h-.006l-.018,0-.459.084h-.014l-.011,0-.688.127,1.039,5.634,1.215,6.587,2.624,14.23,14.772-2.724.658-.121,2.45-.452.545-.1.719-.132.656-.121,1.253-.232,3.056-.564.868-.159,1.2-.222,1.05-.193,6.135-1.132h0l1.246-.23.982-.181,8.494-1.566,7.632-1.407,2.789-.515,8.514-1.57Zm-3.8,2.476-13.81,2.547h0l-1.649.3h0l-8.638,1.593-.8.149-6.094,1.123-1.928.355-1.238.229-.885.163-2.883.531-1.193.219-.724.135-.688.127-.552.1-2.441.451-.692.128-10.572,1.949a3.041,3.041,0,0,1-3.542-2.439l-1.652-8.961-1.708-9.259a3.042,3.042,0,0,1,2.439-3.544l24.951-4.6,11.682-2.154,3.326-.614h0l4.184-.771.136-.026h0l10.511-1.938a3.041,3.041,0,0,1,3.542,2.439l3.36,18.22a3.039,3.039,0,0,1-2.439,3.544" transform="translate(-1108.974 -359.811)" fill="#82b378"/>
            <path id="Path_1030272" data-name="Path 1030272" d="M1502.326,525.671a8.005,8.005,0,1,1,6.591-9.205,8.005,8.005,0,0,1-6.591,9.205" transform="translate(-1345.599 -459.435)" fill="#82b378"/>
            <path id="Path_1030273" data-name="Path 1030273" d="M1387.008,598.536a2.955,2.955,0,1,1,2.433-3.4,2.955,2.955,0,0,1-2.433,3.4" transform="translate(-1246.963 -534.147)" fill="#82b378"/>
            <path id="Path_1030274" data-name="Path 1030274" d="M1708.961,539.163a2.955,2.955,0,1,1,2.433-3.4,2.955,2.955,0,0,1-2.433,3.4" transform="translate(-1537.128 -480.637)" fill="#82b378"/>
            <path id="Path_1030275" data-name="Path 1030275" d="M1480.268,713.462l-.252-.679-1.695-4.566a2.9,2.9,0,0,1-.1-.323,3.11,3.11,0,0,1,1.928-3.662l.175-.065a3.11,3.11,0,0,1,3.986,1.828l1.58,4.257.115.309.252.679a3.109,3.109,0,0,1-1.828,3.986l-.175.065a3.11,3.11,0,0,1-3.986-1.828" transform="translate(-1332.186 -634.466)" fill="#ffb27d"/>
            <path id="Path_1030276" data-name="Path 1030276" d="M1490.937,721.062a18.176,18.176,0,0,1-.882-2.878,1.213,1.213,0,0,1,.483-.946,2.806,2.806,0,0,1,1.037-.565,3.281,3.281,0,0,1,.66-.151,2.781,2.781,0,0,1,.784.031.783.783,0,0,1,.556.439l0,0a17.962,17.962,0,0,1,1.061,2.77,1.2,1.2,0,0,1-.677,1.483l-.262.094-1.342.478a1.146,1.146,0,0,1-1.42-.758" transform="translate(-1342.931 -645.764)" fill="#ffd3b6"/>
            <path id="Path_1030277" data-name="Path 1030277" d="M1490.937,725.263a18.179,18.179,0,0,1-.882-2.878,1.213,1.213,0,0,1,.483-.946c.089-.038.183-.072.285-.1a3.28,3.28,0,0,1,.66-.151,2.781,2.781,0,0,1,.784.031.783.783,0,0,1,.556.439s0,0,0,0a17.945,17.945,0,0,1,1.061,2.77,1.308,1.308,0,0,1-.186,1.116l-1.342.478a1.146,1.146,0,0,1-1.42-.758" transform="translate(-1342.931 -649.965)" fill="#ffc197"/>
            <path id="Path_1030278" data-name="Path 1030278" d="M1426.047,722.544l-.928-3.518a2.016,2.016,0,0,1,1.431-2.457l.4-.105a2.016,2.016,0,0,1,2.457,1.431l.929,3.518a2.017,2.017,0,0,1-1.431,2.457l-.4.105a2.016,2.016,0,0,1-2.457-1.431" transform="translate(-1284.35 -645.664)" fill="#ffb27d"/>
            <path id="Path_1030279" data-name="Path 1030279" d="M1432.542,726.32a15.85,15.85,0,0,1-.49-2.426,1.183,1.183,0,0,1,.767-.952,2.656,2.656,0,0,1,1.013-.25,2.01,2.01,0,0,1,.6.083.622.622,0,0,1,.4.4l0,0a15.688,15.688,0,0,1,.636,2.35.994.994,0,0,1-.616,1.167l-.317.088-.951.263a.891.891,0,0,1-1.042-.727" transform="translate(-1290.658 -651.337)" fill="#ffd3b6"/>
            <path id="Path_1030280" data-name="Path 1030280" d="M1432.542,727.992a15.85,15.85,0,0,1-.49-2.426,1.183,1.183,0,0,1,.767-.952,2.229,2.229,0,0,1,.485-.067,2.018,2.018,0,0,1,.6.083.624.624,0,0,1,.4.4l0,0a15.594,15.594,0,0,1,.635,2.35,1.06,1.06,0,0,1-.4,1.072l-.951.263a.891.891,0,0,1-1.042-.727" transform="translate(-1290.658 -653.009)" fill="#ffc197"/>
            <path id="Path_1030281" data-name="Path 1030281" d="M1556.154,710.893c-.009-.025-.017-.05-.025-.076l-1.146-4.612a3.805,3.805,0,0,1,2.47-4.632l.954-.266a3.529,3.529,0,0,1,4.236,2.5l.378,1.523.767,3.089a3.805,3.805,0,0,1-2.469,4.632l-.954.266a3.522,3.522,0,0,1-4.211-2.428" transform="translate(-1401.342 -631.955)" fill="#ffb27d"/>
            <path id="Path_1030282" data-name="Path 1030282" d="M1571.443,739.068l-.99-2.244,0-.014a2.392,2.392,0,0,1-.054-.271c-.005-.038-.009-.076-.013-.113a.294.294,0,0,1,0-.047.356.356,0,0,1,.505-.3,2.224,2.224,0,0,0,1.515.138l.2-.052.006,0,.636-.168a2.381,2.381,0,0,0,1.242-.8c.038-.046.073-.093.107-.141a.643.643,0,0,1,1.142.2l0,.014.352,2.457a1.168,1.168,0,0,1-.919,1.349l-.725.192-1.545.407c-.609.16-1.294.011-1.454-.6" transform="translate(-1415.33 -662.229)" fill="#ffd3b6"/>
            <path id="Path_1030283" data-name="Path 1030283" d="M1571.45,742.821l-.99-2.244,0-.014c-.01-.053-.036-.217-.068-.432a.356.356,0,0,1,.505-.3,2.224,2.224,0,0,0,1.515.138l.195-.052.006,0,.636-.168a2.381,2.381,0,0,0,1.242-.8.625.625,0,0,1,.248.354s0,.009,0,.014l.352,2.457a1.116,1.116,0,0,1-.643,1.243l-1.546.407c-.609.16-1.294.011-1.454-.6" transform="translate(-1415.337 -665.982)" fill="#ffc197"/>
            <path id="Path_1030284" data-name="Path 1030284" d="M1422.6,303.7s-1.13-8.823,2.316-6.731c5.022,3.05,15.537,5.285,17.562,6.465,1.5.876,9.417,3.718,9.994,3.974a1.767,1.767,0,0,1,.266,2.031,4.886,4.886,0,0,1-2.478,2.382c-4.918,1.913-11.617-2.07-11.832-2.069-5.614.027-11.069-.6-12.655-.374-.552.079-3.173-5.678-3.173-5.678" transform="translate(-1281.977 -267.357)" fill="#ffb27d"/>
            <path id="Path_1030285" data-name="Path 1030285" d="M1678.809,388.651l-5.557-2.021a2.865,2.865,0,0,0-.276,1.8c.266.695,5.413,1.918,5.832.222" transform="translate(-1507.729 -348.456)" fill="#ffc197"/>
            <path id="Path_1030286" data-name="Path 1030286" d="M698.78,1102.575l1.106.9s3.025-1.085,3.708,2.51c0,0,.182,1.532-.789,1.535a19.392,19.392,0,0,0-1.944-.127,2.486,2.486,0,0,1-2.715-1.8l-.658-.945Z" transform="translate(-628.622 -993.712)" fill="#ea8e50"/>
            <path id="Path_1030287" data-name="Path 1030287" d="M409.139,910.9a2.261,2.261,0,0,0,.811-1.6s-10.217-8.365-11.253-9.046a126.047,126.047,0,0,1-11.747-11.2c-1.745-2.017-3.906-1.235-6.378-.525l-2.036.584a3.405,3.405,0,0,0-1.081,5.815c5.681,4.706,15.132,10,16.9,11.111,4.39,2.761,12.983,6.043,12.983,6.043a5.444,5.444,0,0,0,1.8-1.179" transform="translate(-339.106 -800.109)" fill="#1e3d70"/>
            <path id="Path_1030288" data-name="Path 1030288" d="M797.6,1642.592a7.7,7.7,0,0,0,6.279.876s3.063-.7,3.735.83c0,0-4.7,2.387-5.887,3.039a14.239,14.239,0,0,0-2.492,1.869,1.232,1.232,0,0,1-1.784-.138c-.207-.254-.443-.557-.7-.908-.724-.982-2.412-4.152-2.412-4.152Z" transform="translate(-715.907 -1480.411)" fill="#204272"/>
            <path id="Path_1030289" data-name="Path 1030289" d="M540.883,796.981a17.336,17.336,0,1,1,17.336,17.336,17.336,17.336,0,0,1-17.336-17.336" transform="translate(-487.479 -702.667)" fill="#e2810e"/>
            <path id="Path_1030290" data-name="Path 1030290" d="M525.566,796.981A17.336,17.336,0,1,1,542.9,814.316a17.336,17.336,0,0,1-17.336-17.336" transform="translate(-473.674 -702.667)" fill="#ffc76c"/>
            <path id="Path_1030291" data-name="Path 1030291" d="M556.969,828.917a15.794,15.794,0,1,1,11.168-4.626,15.692,15.692,0,0,1-11.168,4.626m0-30.647a14.852,14.852,0,1,0,14.852,14.852,14.869,14.869,0,0,0-14.852-14.852" transform="translate(-487.741 -718.604)" fill="#ffa412"/>
            <path id="Path_1030292" data-name="Path 1030292" d="M640.174,855.406a2.606,2.606,0,0,0-.037-.917,1.9,1.9,0,0,0-.388-.762,3.6,3.6,0,0,0-.775-.684,9.492,9.492,0,0,0-1.2-.673,24.87,24.87,0,0,1-2.219-1.22,7.864,7.864,0,0,1-1.659-1.35,4.627,4.627,0,0,1-.98-1.646,5.22,5.22,0,0,1,.422-3.947,4.392,4.392,0,0,1,1.224-1.36,5.481,5.481,0,0,1,1.752-.835,7.305,7.305,0,0,1,2.188-.252l.309-2.6,2.1.249-.313,2.64a6.549,6.549,0,0,1,1.972.839,4.954,4.954,0,0,1,2.207,3.167,6.6,6.6,0,0,1,.086,2.237l-3.785-.449a3.211,3.211,0,0,0-.389-2.261,2.231,2.231,0,0,0-1.649-.93,2.837,2.837,0,0,0-1.034.044,1.923,1.923,0,0,0-.754.367,1.791,1.791,0,0,0-.486.627,2.634,2.634,0,0,0-.23.824,2.415,2.415,0,0,0,.034.83,1.786,1.786,0,0,0,.372.729,3.608,3.608,0,0,0,.782.685,12.192,12.192,0,0,0,1.249.722q1.214.625,2.2,1.247a7.957,7.957,0,0,1,1.651,1.362,4.465,4.465,0,0,1,1.149,3.745,4.775,4.775,0,0,1-.6,1.878,4.339,4.339,0,0,1-1.229,1.347,5.3,5.3,0,0,1-1.762.8,7.9,7.9,0,0,1-2.2.232l-.287,2.421-2.082-.247.286-2.409a8.84,8.84,0,0,1-2.046-.724,5.609,5.609,0,0,1-1.676-1.266,5.018,5.018,0,0,1-1.051-1.883,6.11,6.11,0,0,1-.174-2.562l3.785.449a3.763,3.763,0,0,0,.071,1.47,2.436,2.436,0,0,0,.538,1,2.364,2.364,0,0,0,.866.6,4.05,4.05,0,0,0,1.038.265,3.378,3.378,0,0,0,1.1-.03,2.251,2.251,0,0,0,.831-.346,1.792,1.792,0,0,0,.55-.607,2.187,2.187,0,0,0,.256-.815" transform="translate(-568.772 -756.303)" fill="#ffa412"/>
            <path id="Path_1030293" data-name="Path 1030293" d="M493.188,1228.654s-1.51,3.481-4.995,2.841a97.252,97.252,0,0,1-11.989-11.974,27.1,27.1,0,0,1-3.726-5.822c-3.235-7.489-11.966-18.66-17.517-24.321l13.888-5.024s4.449,8.949,10.368,19.94c4.266,7.92,9.293,16.9,13.971,24.36" transform="translate(-410.04 -1067.417)" fill="#2b478b"/>
            <path id="Path_1030294" data-name="Path 1030294" d="M479.218,1204.294l-3.013,15.227a27.1,27.1,0,0,1-3.726-5.822c-3.235-7.489-11.966-18.66-17.517-24.321l13.888-5.024s4.449,8.949,10.368,19.94" transform="translate(-410.041 -1067.417)" fill="#233862"/>
            <path id="Path_1030295" data-name="Path 1030295" d="M540.044,1649.155s-.151,2.778,3.216,3.148c0,0,2.084.054,2.09,1.822l-10.141,0s-.09-.722-.159-2.25a17.5,17.5,0,0,1,1.137-4.24Z" transform="translate(-482.22 -1484.953)" fill="#204272"/>
            <path id="Path_1030296" data-name="Path 1030296" d="M426.334,1178.728s6.187,6.8,10.115,19.047c2.137,6.664-3.917,23.419-5.1,29.24a18.562,18.562,0,0,1-6.838-.729s-.211-12.024,1.413-21.291c.909-5.186-8.146-11.092-12.1-20.463-2.692-6.375.583-6.267,4.607-6.42Z" transform="translate(-372.081 -1061.791)" fill="#2b478b"/>
            <path id="Path_1030297" data-name="Path 1030297" d="M381.4,800.569c-3.442,1.944-10.49.151-10.49.151a9.817,9.817,0,0,0,1.561-8.541l2.7,1.373,2.9,1.474a24.078,24.078,0,0,1,.318,2.6c.033.43.063.911.084,1.437a9.029,9.029,0,0,1,2.92,1.5" transform="translate(-334.288 -713.963)" fill="#ffb07b"/>
            <path id="Path_1030298" data-name="Path 1030298" d="M370.349,892.076c0,.605-.7.895-.845.924-1.388.254-5.265,1.762-8.757,2.108a28,28,0,0,1-8.67-.587c-.4-.08-1.33-.331-1.4-.712-.083-.416-11.569-23.416-2.64-33.3.21-.232,1.972.186,3.584.568a6.616,6.616,0,0,0,4.074-.333l1.512.8c1.856,1.034,5.369,4.71,5.78,7.593.209,1.467,1.047,2.552,1.29,3.843q.135.716.276,1.4.274,1.337.565,2.545c.525,2.181,1.079,4.059,1.624,5.681.579,1.722,1.148,3.155,1.655,4.353.658,1.554,1.215,2.715,1.562,3.6a4.443,4.443,0,0,1,.386,1.515" transform="translate(-310.615 -775.49)" fill="#aec3ff"/>
            <path id="Path_1030299" data-name="Path 1030299" d="M401.813,961.816a45.131,45.131,0,0,1-21.83-22.308s13.174,4.86,16.423,6.125q.274,1.336.565,2.545c.525,2.181,1.08,4.059,1.624,5.681.579,1.722,1.148,3.155,1.655,4.353.658,1.554,1.215,2.715,1.562,3.6" transform="translate(-342.465 -846.745)" fill="#91b0f2"/>
            <path id="Path_1030300" data-name="Path 1030300" d="M690.492,1119.792l1.4.514a3,3,0,0,1,4.553,1.243s.632,1.41-.368,1.716-.637.018-2.042.486-2.791.131-3.322-.873l-.952-.7Z" transform="translate(-621.657 -1009.149)" fill="#ffb07b"/>
            <path id="Path_1030301" data-name="Path 1030301" d="M392.6,919.353c.518-1.352.755-1.964.755-1.964s-10.587-8.63-11.666-9.37c-.735-.5-8.053-5.975-11.621-10.238a7.468,7.468,0,0,0-7.26-2.516l-2.223.466a3.305,3.305,0,0,0-1.474,5.744c5.863,5.026,15.752,10.856,17.6,12.069,4.577,3.01,14.7,7.228,14.7,7.228a2.607,2.607,0,0,0,1.192-1.42" transform="translate(-322.608 -806.728)" fill="#aec3ff"/>
            <path id="Path_1030302" data-name="Path 1030302" d="M395.732,810.157a7.245,7.245,0,0,1-5.587-2.6,26.873,26.873,0,0,0,2.365-1.472l2.9,1.474a24.089,24.089,0,0,1,.318,2.6" transform="translate(-351.624 -726.492)" fill="#ea8e50"/>
            <path id="Path_1030303" data-name="Path 1030303" d="M368.158,733.343s-5.129,3.681-7.372.451-4.416-4.929-1.236-7.416,4.679-1.7,5.69-.805,4.194,6.729,2.918,7.77" transform="translate(-322.608 -653.153)" fill="#ffb07b"/>
            <path id="Path_1030304" data-name="Path 1030304" d="M323.536,684.632a8.258,8.258,0,0,0-.6-2.115s-.322,1.333-2.759,1.149-6.3.24-7.586,3.016c-.082.177-.155.359-.22.545a6.424,6.424,0,0,1-.289-1.538,4.742,4.742,0,0,0,0,2.691h0c-.007.043-.013.087-.019.131a5.425,5.425,0,0,0-.989,1.868,1.692,1.692,0,0,1,.911-.81c-.011,2.161.865,4.273,2.4,4.9,2.249.92,2.231.218,4.493,1.718,0,0,.607-.753.193-1.259s-1.977-1.241-1.1-1.977,1.2.092,1.517-.414-1.287-1.977.782-3.356,3.448-3.31,3.264-4.552" transform="translate(-280.363 -615.128)" fill="#233862"/>
            <path id="Path_1030305" data-name="Path 1030305" d="M2361.8,1065.211a1.394,1.394,0,0,1,.489.777,6,6,0,0,1-.035,1.538c-.068,1.066,1.407,2.633,2.361,3.178s0-2.27,0-2.951a4.061,4.061,0,0,0-.5-2.724c-.772-1.544-2.315.182-2.315.182" transform="translate(-2128.605 -959.295)" fill="#ffb27d"/>
            <path id="Path_1030306" data-name="Path 1030306" d="M2143.8,764.827a4.435,4.435,0,0,1,6.682-4.175l.188.117c4.6,2.961,13.434,15,14.742,17.4,1.363,2.5,3.165,13.157,3.165,13.157s-2.491.912-3.656-.034c0,0-3.9-9.245-5.33-10.83-1.509-1.671-15.47-9.389-15.6-12.663-.035-.866-.1-1.906-.188-2.969" transform="translate(-1932.121 -684.973)" fill="#ed7d2b"/>
            <path id="Path_1030307" data-name="Path 1030307" d="M2363.9,1620.459s1.855,1.693,1.493,2.9-2.036,2-2.262,3.474-1.131,2.271-1.945,2.271h-3.882s-.6-1.034.848-1.346,1.993-2.039,1.9-3.643a28.283,28.283,0,0,1,.136-3.741l3.076-.713Z" transform="translate(-2124.449 -1459.74)" fill="#224275"/>
            <path id="Path_1030308" data-name="Path 1030308" d="M2095.28,1658.506s.333,3.852-.481,4.253l-10.42-.021s0-1.2,1.674-1.47,4.614-1.247,5.111-3.43,4.116.668,4.116.668" transform="translate(-1878.578 -1493.409)" fill="#224275"/>
            <path id="Path_1030309" data-name="Path 1030309" d="M2105.688,1112.493s.549,6.752,1.2,14.868c.878,11.025,1.934,24.568,2.038,27.133.181,4.455.905,11.581.905,11.581s1.718,1.693,5.156.979a114.987,114.987,0,0,0,3.94-20.936c.014-.176.027-.354.041-.532.814-10.957,2.08-34.03,2.08-34.03Z" transform="translate(-1897.783 -1001.808)" fill="#aec3ff"/>
            <path id="Path_1030310" data-name="Path 1030310" d="M2105.688,1112.493s.549,6.752,1.2,14.868l12.04,18.758c.014-.176.027-.354.041-.532.814-10.957,2.08-34.03,2.08-34.03Z" transform="translate(-1897.783 -1001.808)" fill="#91b0f2"/>
            <path id="Path_1030311" data-name="Path 1030311" d="M2131.109,1088.9s9.906,24.453,16.42,35.944,8.549,14.7,8.549,14.7,3.732-1.47,4.071-2.472c0,0-2.491-22.185-6.853-27.593-2.465-3.056-5.36-12.226-5.5-15.433s-.882-9.554-.882-9.554Z" transform="translate(-1920.694 -977.415)" fill="#aec3ff"/>
            <path id="Path_1030312" data-name="Path 1030312" d="M2121.552,684.134s-6.637,3.366-10.525,2.243a8.559,8.559,0,0,1,1.508-1.443,2.134,2.134,0,0,0,.827-2.031q-.059-.363-.1-.684a14.454,14.454,0,0,1-.161-2.256l2.5-1.889,2.413-1.995a9.882,9.882,0,0,0,3.534,8.053" transform="translate(-1902.596 -609.328)" fill="#ffb27d"/>
            <path id="Path_1030313" data-name="Path 1030313" d="M2097.589,772.882a27.349,27.349,0,0,1-8.186,3.526c-3.5.83-7.806.586-9.247.8a.6.6,0,0,1-.42-.106c-.113-.058-.748-4.33-1.385-9.722-.028-.217-.058-.436-.07-.655l-.01-.073c-.248-2.108-.464-4.322-.653-6.541-.153-1.727-.28-3.435-.367-5.039-.11-2.007-.156-3.851-.11-5.367.02-.693.061-1.316.123-1.857a13.146,13.146,0,0,1,3.111-7.086l1.635-1.312a5.692,5.692,0,0,0,3.784-1.049c1.433-.943,2.98-1.958,3.272-1.789,2.2,1.2,3.985,4.316,5.262,8.43a46.907,46.907,0,0,1,1.654,7.9c.116.883.214,1.789.29,2.691.015.167.027.334.04.5.172,2.466.454,4.777.766,6.84.42,2.783.9,5.114,1.236,6.756.169.836.3,1.482.375,1.945.069.4-.74.983-1.1,1.207" transform="translate(-1872.04 -663.869)" fill="#f99746"/>
            <path id="Path_1030314" data-name="Path 1030314" d="M2136.547,695.349a8.882,8.882,0,0,1-4.84,4.048,26.444,26.444,0,0,1-.2-4.258l2.545.113Z" transform="translate(-1921.039 -626.504)" fill="#ed985f"/>
            <path id="Path_1030315" data-name="Path 1030315" d="M2107.126,614.044s6,2.453,7.463-1.243,3.228-5.869-.539-7.592-5.075-.6-5.869.51-2.577,7.592-1.054,8.325" transform="translate(-1898.543 -544.652)" fill="#ffb27d"/>
            <path id="Path_1030316" data-name="Path 1030316" d="M2113.9,582.927c.072-.052.214-.074.508-.023a1.207,1.207,0,0,0-.507-.277,1.5,1.5,0,0,0-.673-1.515.893.893,0,0,1,.278.726c-.615-1.012-2.2-2.01-7.063-2.732-6.408-.951-5.261,3.556-4.557,4.224s3.058-.177,4.549.292,1.275,2.73,1.72,3.149.366-.159,1.135-.314.57,1.015.2,1.72.356,1.915.356,1.915l1.207-.819c1.207-.819,3.135-5.023,2.911-6.065-.02-.092-.039-.185-.059-.279" transform="translate(-1893.853 -521.808)" fill="#2c3a64"/>
            <path id="Path_1030317" data-name="Path 1030317" d="M2088.394,869.746s-5.408,4.114-11.14,5.016c-.11-2.007-.156-3.851-.11-5.367Z" transform="translate(-1872.041 -783.555)" fill="#ed7d2b"/>
            <path id="Path_1030318" data-name="Path 1030318" d="M1809.238,686.557c-.054-.113-.016-3.96-1.917-4.268-1.24-.2-4.454-1.058-4.423.667.012.679,4.034,4.865,4.034,4.865Z" transform="translate(-1624.888 -614.571)" fill="#ffb27d"/>
            <path id="Path_1030319" data-name="Path 1030319" d="M1876.207,730.337a4.435,4.435,0,0,1-2.772,7.376q-.11.012-.22.021c-5.452.442-20.965-4-23.112-5.187-3.564-1.971-9.673-8.206-9.673-8.206s1.425-2.238,2.925-2.194c0,0,8.179,5.209,11.107,5.833,1.976.42,17.7-2.407,19.792.114.554.666,1.241,1.451,1.953,2.244" transform="translate(-1658.715 -650.844)" fill="#f99746"/>
            <path id="Path_1030320" data-name="Path 1030320" d="M2387.157,1082.673s.291.641.5,1.14.32,1.43.161,1.339a4.746,4.746,0,0,1-.908-1.092c-.182-.338.249-1.388.249-1.388" transform="translate(-2151.197 -975.775)" fill="#ffb27d"/>
            <g id="Group_1184024" data-name="Group 1184024" transform="translate(91.706 95.314)" opacity="0.5">
              <g id="Group_1184023" data-name="Group 1184023">
                <g id="Group_1184022" data-name="Group 1184022" clip-path="url(#clip-path-3)">
                  <g id="Group_1184018" data-name="Group 1184018" transform="translate(10.68)" opacity="0.5">
                    <g id="Group_1184017" data-name="Group 1184017">
                      <g id="Group_1184016" data-name="Group 1184016" clip-path="url(#clip-path-4)">
                        <path id="Path_1030321" data-name="Path 1030321" d="M1050.063,991.183s-1.886-15.8-9.98-25.222a1.766,1.766,0,0,0-3.1,1.2c0,.028,0,.055,0,.084.1,2.818,9.167,14.7,13.077,23.943" transform="translate(-1036.982 -965.347)" fill="#afcdfb"/>
                      </g>
                    </g>
                  </g>
                  <g id="Group_1184021" data-name="Group 1184021" transform="translate(0 1.585)" opacity="0.5">
                    <g id="Group_1184020" data-name="Group 1184020">
                      <g id="Group_1184019" data-name="Group 1184019" clip-path="url(#clip-path-5)">
                        <path id="Path_1030322" data-name="Path 1030322" d="M953.551,1010.174s-8.066-19.744-21.842-28.475a1.874,1.874,0,0,0-2.541.48,2.973,2.973,0,0,0-.12,2.67c1.1,3.473,16.462,15.162,24.5,25.325" transform="translate(-928.807 -981.4)" fill="#afcdfb"/>
                      </g>
                    </g>
                  </g>
                </g>
              </g>
            </g>
            <g id="Group_1184027" data-name="Group 1184027" transform="translate(73.573 123.215)" opacity="0.5">
              <g id="Group_1184026" data-name="Group 1184026">
                <g id="Group_1184025" data-name="Group 1184025" clip-path="url(#clip-path-6)">
                  <path id="Path_1030323" data-name="Path 1030323" d="M745.254,1256.482c.793-8.229,14.487-8.029,14.487-8.029s11.356,12.235,14.034,12.116-7.666-12.356-7.666-12.356c5-1.356,19,2.671,19,2.671s1.912,16.2,4.479,15.428-2.425-14.259-2.425-14.259c5.168.639,10.732,5.6,10.732,5.6,7.325,8.367-3.8,17.341-3.8,17.341a26.522,26.522,0,0,0,5.313,11.407h0a19.224,19.224,0,0,1,2.108,2.92l-1.34.228q-.256-.511-.541-.979a.008.008,0,0,0,0-.006l-.008-.013c-.127-.192-.309-.464-.535-.8h0v0c-.546-.732-.923-1.277-1.171-1.675l0,0c-1.655-2.308-3.981-5.286-5.277-5.774a2.636,2.636,0,0,0,.182-.664l-.182.664c-1.458,5.307-12.792,8.078-19.407,7.853s-4.135-2.5-1.191-6.012,10.287-3.967,12.223-5.476-1.374-2.127-5.579-1.075-5.612,5.676-12.384,7.5-14.219-10.23-14.219-10.23c5,.667,13.081-3.4,13.13-5.1s-12.543.615-14.594.458-6.161-3.505-5.368-11.735" transform="translate(-745.154 -1247.935)" fill="#afcdfb"/>
                </g>
              </g>
            </g>
            <g id="Group_1184030" data-name="Group 1184030" transform="translate(162.253 121.678)" opacity="0.5">
              <g id="Group_1184029" data-name="Group 1184029">
                <g id="Group_1184028" data-name="Group 1184028" clip-path="url(#clip-path-7)">
                  <path id="Path_1030324" data-name="Path 1030324" d="M1687.277,1240.778c.132-6.082-9.892-7.119-9.892-7.119s-9.355,7.959-11.3,7.641,6.67-8.366,6.67-8.366c-3.534-1.423-14.118.309-14.118.309s-2.8,11.673-4.606,10.886,3-10.21,3-10.21c-3.831.02-8.326,3.161-8.326,3.161-6.076,5.48,1.276,13,1.276,13a19.517,19.517,0,0,1-4.868,7.876h0a14.153,14.153,0,0,0-1.793,1.951l.96.283q.231-.352.48-.668a.006.006,0,0,1,0,0l.007-.009c.109-.129.266-.312.459-.535h0c.462-.488.785-.854,1-1.123l0,0c1.409-1.543,3.365-3.519,4.355-3.763a1.939,1.939,0,0,1-.076-.5l.076.5c.607,4,8.649,7.008,13.5,7.416s3.238-1.47,1.39-4.29-7.174-3.787-8.458-5.058,1.188-1.436,4.17-.3,3.61,4.633,8.4,6.552,11.274-6.246,11.274-6.246c-3.714.055-9.264-3.618-9.153-4.861s9.112,1.534,10.624,1.6,4.805-2.029,4.937-8.111" transform="translate(-1643.323 -1232.373)" fill="#afcdfb"/>
                </g>
              </g>
            </g>
            <path id="Path_1030325" data-name="Path 1030325" d="M984.414,1283.37v7.7a2.751,2.751,0,0,1-2.8,2.679h-5.766a2.751,2.751,0,0,1-2.8-2.679v-7.7a2.75,2.75,0,0,1,2.8-2.679h5.766a2.75,2.75,0,0,1,2.8,2.679" transform="translate(-876.972 -1154.242)" fill="#ed7d2b"/>
            <path id="Path_1030326" data-name="Path 1030326" d="M984.414,1283.37v4.288a2.751,2.751,0,0,1-2.8,2.679h-5.766a2.751,2.751,0,0,1-2.8-2.679v-4.288a2.75,2.75,0,0,1,2.8-2.679h5.766a2.75,2.75,0,0,1,2.8,2.679" transform="translate(-876.972 -1154.242)" fill="#f99746"/>
            <path id="Path_1030327" data-name="Path 1030327" d="M1110.417,1085.35a27.3,27.3,0,0,1-2.363,11.121,30.1,30.1,0,0,1-27.582,17.522h-8.561c-.514,0-1.023-.012-1.531-.037a30.6,30.6,0,0,1-16.737-5.951,29.409,29.409,0,0,1-7.5-8.11,27.391,27.391,0,0,1-1.813-25.666,30.1,30.1,0,0,1,27.581-17.52h8.561a30.253,30.253,0,0,1,26.194,14.806,27.44,27.44,0,0,1,3.751,13.835" transform="translate(-939.089 -952.375)" fill="#ed7d2b"/>
            <path id="Path_1030328" data-name="Path 1030328" d="M1457.09,1477.791l-2.793,17.348a2.141,2.141,0,0,0,2.142,2.659h7.34a4.229,4.229,0,0,0,3.736-2.179l11.408-21.766Z" transform="translate(-1310.639 -1328.332)" fill="#ed7d2b"/>
            <path id="Path_1030329" data-name="Path 1030329" d="M1107.039,1516.05h-7.34a4.228,4.228,0,0,1-3.736-2.179l-7.056-11.915-4.649-7.851,22.683,2.236.82,6.236.734,5.589.686,5.224a2.142,2.142,0,0,1-2.142,2.66" transform="translate(-977.204 -1346.584)" fill="#ed7d2b"/>
            <path id="Path_1030330" data-name="Path 1030330" d="M1105.908,1082.04c-6.044,16.626-11.764,25.515-34.93,26.288q-.674.023-1.332.04a154.226,154.226,0,0,1-16-.362c-1.042-.082-1.992-.17-2.85-.259l-4.65-7.851a27.392,27.392,0,0,1-1.813-25.666,30.1,30.1,0,0,1,27.581-17.521h8.561a30.254,30.254,0,0,1,26.194,14.806,22.465,22.465,0,0,1-.757,10.525" transform="translate(-939.089 -952.375)" fill="#f99746"/>
            <path id="Path_1030331" data-name="Path 1030331" d="M1182.348,960.838H1170.57c-1.188,0-2.15-.69-2.15-1.541V943.916a1.2,1.2,0,0,1,.235-.708,2.658,2.658,0,0,1,3.216-.519c4.472,2.424,11.8,7.694,12.622,16.5.084.89-.9,1.645-2.145,1.645" transform="translate(-1053.056 -849.328)" fill="#f99746"/>
            <path id="Path_1030332" data-name="Path 1030332" d="M1171.049,968.455h-.479c-1.188,0-2.15-.69-2.15-1.541V951.533a1.2,1.2,0,0,1,.235-.708,1.5,1.5,0,0,1,.145.136,18.779,18.779,0,0,1,5.207,15.573c-.151,1.09-1.429,1.921-2.958,1.921" transform="translate(-1053.056 -856.945)" fill="#ed7d2b"/>
            <path id="Path_1030333" data-name="Path 1030333" d="M1132.18,1218.208a1.756,1.756,0,1,1,1.755,1.678,1.718,1.718,0,0,1-1.755-1.678" transform="translate(-1020.394 -1096.416)" fill="#2b478b"/>
            <path id="Path_1030334" data-name="Path 1030334" d="M1490.345,1682.245v1.794a.61.61,0,0,0,.141.386.818.818,0,0,0,.386.259.908.908,0,0,0,.151.036.98.98,0,0,0,.145.011h34.025a.777.777,0,0,0,.822-.656c0-.012,0-.024,0-.036v-1.794c0-.012,0-.024,0-.036a.777.777,0,0,0-.822-.656h-34.025a.964.964,0,0,0-.145.011.884.884,0,0,0-.151.036.818.818,0,0,0-.386.259.61.61,0,0,0-.141.386" transform="translate(-1343.196 -1515.526)" fill="#ffc76c"/>
            <path id="Path_1030335" data-name="Path 1030335" d="M1659.565,1684.73h18.229a.72.72,0,0,0,.734-.656q0-.018,0-.036v-1.794c0-.012,0-.024,0-.036a.72.72,0,0,0-.734-.656H1661.8a5.57,5.57,0,0,1-2.239,3.176" transform="translate(-1495.708 -1515.526)" fill="#ffae39"/>
            <rect id="Rectangle_458909" data-name="Rectangle 458909" width="0.387" height="3.176" transform="translate(151.289 166.028)" fill="#ffa412"/>
            <rect id="Rectangle_458910" data-name="Rectangle 458910" width="0.387" height="3.176" transform="translate(152.598 166.028)" fill="#ffa412"/>
            <rect id="Rectangle_458911" data-name="Rectangle 458911" width="0.387" height="3.176" transform="translate(154.168 166.028)" fill="#ffa412"/>
            <rect id="Rectangle_458912" data-name="Rectangle 458912" width="0.387" height="3.176" transform="translate(156.574 166.028)" fill="#ffa412"/>
            <rect id="Rectangle_458913" data-name="Rectangle 458913" width="0.387" height="3.176" transform="translate(159.118 166.028)" fill="#ffa412"/>
            <rect id="Rectangle_458914" data-name="Rectangle 458914" width="0.387" height="3.176" transform="translate(163.019 166.028)" fill="#ffa412"/>
            <rect id="Rectangle_458915" data-name="Rectangle 458915" width="0.387" height="3.176" transform="translate(166.671 166.028)" fill="#ffa412"/>
            <rect id="Rectangle_458916" data-name="Rectangle 458916" width="0.387" height="3.176" transform="translate(169.932 166.028)" fill="#ffa412"/>
            <rect id="Rectangle_458917" data-name="Rectangle 458917" width="0.387" height="3.176" transform="translate(150.043 166.028)" fill="#ffa412"/>
            <rect id="Rectangle_458918" data-name="Rectangle 458918" width="0.387" height="3.176" transform="translate(149.22 166.028)" fill="#ffa412"/>
            <rect id="Rectangle_458919" data-name="Rectangle 458919" width="0.387" height="3.176" transform="translate(148.425 166.028)" fill="#ffa412"/>
            <path id="Path_1030336" data-name="Path 1030336" d="M1497.212,1681.565v3.154a.961.961,0,0,0,.145.011h.242v-3.176h-.242a.961.961,0,0,0-.145.011" transform="translate(-1349.385 -1515.526)" fill="#ffa412"/>
            <path id="Path_1030337" data-name="Path 1030337" d="M1491.773,1682.286v2.566a.819.819,0,0,0,.386.259v-3.083a.819.819,0,0,0-.386.259" transform="translate(-1344.483 -1515.952)" fill="#ffa412"/>
            <path id="Path_1030338" data-name="Path 1030338" d="M1527.19,1650.073v1.794a.61.61,0,0,0,.141.386.819.819,0,0,0,.386.259.9.9,0,0,0,.151.036.964.964,0,0,0,.145.011h34.025a.777.777,0,0,0,.822-.656c0-.012,0-.024,0-.036v-1.794c0-.012,0-.024,0-.036a.777.777,0,0,0-.822-.656h-34.025l-.065,0-.028,0-.031,0-.022,0a.9.9,0,0,0-.151.036l-.021.007-.021.008-.042.017-.024.011-.021.01-.039.021-.042.026-.032.022,0,0-.021.016a.672.672,0,0,0-.06.052l-.016.016-.016.017-.03.035a.61.61,0,0,0-.141.386" transform="translate(-1376.403 -1486.53)" fill="#ffc76c"/>
            <path id="Path_1030339" data-name="Path 1030339" d="M1696.411,1652.558h18.228a.719.719,0,0,0,.734-.656c0-.012,0-.024,0-.036v-1.794c0-.012,0-.024,0-.036a.719.719,0,0,0-.734-.656H1698.65l-.022.078a5.557,5.557,0,0,1-2.217,3.1" transform="translate(-1528.916 -1486.53)" fill="#ffae39"/>
            <rect id="Rectangle_458920" data-name="Rectangle 458920" width="0.387" height="3.176" transform="translate(154.927 162.852)" fill="#ffa412"/>
            <rect id="Rectangle_458921" data-name="Rectangle 458921" width="0.387" height="3.176" transform="translate(156.236 162.852)" fill="#ffa412"/>
            <rect id="Rectangle_458922" data-name="Rectangle 458922" width="0.387" height="3.176" transform="translate(157.806 162.852)" fill="#ffa412"/>
            <rect id="Rectangle_458923" data-name="Rectangle 458923" width="0.387" height="3.176" transform="translate(160.212 162.852)" fill="#ffa412"/>
            <rect id="Rectangle_458924" data-name="Rectangle 458924" width="0.387" height="3.176" transform="translate(162.756 162.852)" fill="#ffa412"/>
            <rect id="Rectangle_458925" data-name="Rectangle 458925" width="0.387" height="3.176" transform="translate(166.657 162.852)" fill="#ffa412"/>
            <rect id="Rectangle_458926" data-name="Rectangle 458926" width="0.387" height="3.176" transform="translate(170.309 162.852)" fill="#ffa412"/>
            <rect id="Rectangle_458927" data-name="Rectangle 458927" width="0.387" height="3.176" transform="translate(173.57 162.852)" fill="#ffa412"/>
            <rect id="Rectangle_458928" data-name="Rectangle 458928" width="0.387" height="3.176" transform="translate(153.681 162.852)" fill="#ffa412"/>
            <rect id="Rectangle_458929" data-name="Rectangle 458929" width="0.387" height="3.176" transform="translate(152.858 162.852)" fill="#ffa412"/>
            <rect id="Rectangle_458930" data-name="Rectangle 458930" width="0.387" height="3.176" transform="translate(152.063 162.852)" fill="#ffa412"/>
            <path id="Path_1030340" data-name="Path 1030340" d="M1534.058,1649.394v3.154a.962.962,0,0,0,.145.011h.242v-3.176h-.242a.962.962,0,0,0-.145.011" transform="translate(-1382.593 -1486.531)" fill="#ffa412"/>
            <path id="Path_1030341" data-name="Path 1030341" d="M1528.618,1650.113v2.566a.82.82,0,0,0,.386.259v-3.083a.819.819,0,0,0-.386.259" transform="translate(-1377.69 -1486.956)" fill="#ffa412"/>
            <path id="Path_1030342" data-name="Path 1030342" d="M1509.385,1618.7v1.794a.61.61,0,0,0,.141.386.817.817,0,0,0,.386.259.885.885,0,0,0,.151.036.962.962,0,0,0,.145.011h34.025a.942.942,0,0,0,.38-.078.706.706,0,0,0,.44-.546c0-.01,0-.021,0-.031s0-.024,0-.036V1618.7c0-.012,0-.024,0-.036a.777.777,0,0,0-.822-.656h-34.025a.978.978,0,0,0-.145.011.9.9,0,0,0-.151.036.817.817,0,0,0-.386.259.61.61,0,0,0-.141.386" transform="translate(-1360.356 -1458.25)" fill="#ffc76c"/>
            <path id="Path_1030343" data-name="Path 1030343" d="M1678.606,1621.18h18.228a.763.763,0,0,0,.339-.078.694.694,0,0,0,.393-.546c0-.01,0-.021,0-.031s0-.024,0-.036V1618.7q0-.018,0-.036a.719.719,0,0,0-.734-.656h-15.99a5.574,5.574,0,0,1-2.127,3.1l-.112.078" transform="translate(-1512.869 -1458.25)" fill="#ffae39"/>
            <rect id="Rectangle_458931" data-name="Rectangle 458931" width="0.387" height="3.176" transform="translate(153.169 159.754)" fill="#ffa412"/>
            <rect id="Rectangle_458932" data-name="Rectangle 458932" width="0.387" height="3.176" transform="translate(154.478 159.754)" fill="#ffa412"/>
            <rect id="Rectangle_458933" data-name="Rectangle 458933" width="0.387" height="3.176" transform="translate(156.048 159.754)" fill="#ffa412"/>
            <rect id="Rectangle_458934" data-name="Rectangle 458934" width="0.387" height="3.176" transform="translate(158.454 159.754)" fill="#ffa412"/>
            <rect id="Rectangle_458935" data-name="Rectangle 458935" width="0.387" height="3.176" transform="translate(160.998 159.754)" fill="#ffa412"/>
            <rect id="Rectangle_458936" data-name="Rectangle 458936" width="0.387" height="3.176" transform="translate(164.899 159.754)" fill="#ffa412"/>
            <rect id="Rectangle_458937" data-name="Rectangle 458937" width="0.387" height="3.176" transform="translate(168.551 159.754)" fill="#ffa412"/>
            <rect id="Rectangle_458938" data-name="Rectangle 458938" width="0.387" height="3.176" transform="translate(171.812 159.754)" fill="#ffa412"/>
            <rect id="Rectangle_458939" data-name="Rectangle 458939" width="0.387" height="3.176" transform="translate(151.923 159.754)" fill="#ffa412"/>
            <rect id="Rectangle_458940" data-name="Rectangle 458940" width="0.387" height="3.176" transform="translate(151.1 159.754)" fill="#ffa412"/>
            <rect id="Rectangle_458941" data-name="Rectangle 458941" width="0.387" height="3.176" transform="translate(150.305 159.754)" fill="#ffa412"/>
            <path id="Path_1030344" data-name="Path 1030344" d="M1516.252,1618.016v3.154a.947.947,0,0,0,.145.011h.242V1618h-.242a.947.947,0,0,0-.145.011" transform="translate(-1366.545 -1458.251)" fill="#ffa412"/>
            <path id="Path_1030345" data-name="Path 1030345" d="M1510.813,1618.734v2.566a.821.821,0,0,0,.386.259v-3.083a.819.819,0,0,0-.386.259" transform="translate(-1361.643 -1458.676)" fill="#ffa412"/>
            <path id="Path_1030346" data-name="Path 1030346" d="M1501.13,1586.524v1.794a.611.611,0,0,0,.141.386.818.818,0,0,0,.386.259.9.9,0,0,0,.151.036.963.963,0,0,0,.145.011h34.025a.777.777,0,0,0,.822-.656c0-.012,0-.024,0-.036v-1.794c0-.012,0-.024,0-.036a.759.759,0,0,0-.725-.651.91.91,0,0,0-.1,0h-34.025a.963.963,0,0,0-.145.011.888.888,0,0,0-.151.036.818.818,0,0,0-.386.259.611.611,0,0,0-.141.386" transform="translate(-1352.916 -1429.256)" fill="#ffc76c"/>
            <path id="Path_1030347" data-name="Path 1030347" d="M1670.352,1589.009h18.228a.72.72,0,0,0,.734-.656c0-.012,0-.024,0-.036v-1.794c0-.012,0-.024,0-.036a.736.736,0,0,0-.734-.656h-15.99v0a5.571,5.571,0,0,1-2.237,3.172" transform="translate(-1505.43 -1429.256)" fill="#ffae39"/>
            <rect id="Rectangle_458942" data-name="Rectangle 458942" width="0.387" height="3.176" transform="translate(152.354 156.577)" fill="#ffa412"/>
            <rect id="Rectangle_458943" data-name="Rectangle 458943" width="0.387" height="3.176" transform="translate(153.663 156.577)" fill="#ffa412"/>
            <rect id="Rectangle_458944" data-name="Rectangle 458944" width="0.387" height="3.176" transform="translate(155.233 156.577)" fill="#ffa412"/>
            <rect id="Rectangle_458945" data-name="Rectangle 458945" width="0.387" height="3.176" transform="translate(157.639 156.577)" fill="#ffa412"/>
            <rect id="Rectangle_458946" data-name="Rectangle 458946" width="0.387" height="3.176" transform="translate(160.183 156.577)" fill="#ffa412"/>
            <rect id="Rectangle_458947" data-name="Rectangle 458947" width="0.387" height="3.176" transform="translate(164.084 156.577)" fill="#ffa412"/>
            <rect id="Rectangle_458948" data-name="Rectangle 458948" width="0.387" height="3.176" transform="translate(167.736 156.577)" fill="#ffa412"/>
            <rect id="Rectangle_458949" data-name="Rectangle 458949" width="0.387" height="3.176" transform="translate(170.997 156.577)" fill="#ffa412"/>
            <rect id="Rectangle_458950" data-name="Rectangle 458950" width="0.387" height="3.176" transform="translate(151.108 156.577)" fill="#ffa412"/>
            <rect id="Rectangle_458951" data-name="Rectangle 458951" width="0.387" height="3.176" transform="translate(150.285 156.577)" fill="#ffa412"/>
            <rect id="Rectangle_458952" data-name="Rectangle 458952" width="0.387" height="3.176" transform="translate(149.49 156.577)" fill="#ffa412"/>
            <path id="Path_1030348" data-name="Path 1030348" d="M1508,1585.843V1589a.962.962,0,0,0,.145.011h.242v-3.177h-.242a.978.978,0,0,0-.145.011" transform="translate(-1359.105 -1429.255)" fill="#ffa412"/>
            <path id="Path_1030349" data-name="Path 1030349" d="M1502.559,1586.563v2.566a.818.818,0,0,0,.386.259V1586.3a.819.819,0,0,0-.386.259" transform="translate(-1354.204 -1429.68)" fill="#ffa412"/>
            <path id="Path_1030350" data-name="Path 1030350" d="M1526.466,1554.4v1.794a.611.611,0,0,0,.141.386.818.818,0,0,0,.386.259.9.9,0,0,0,.151.036l.048.006.027,0h34.1a.777.777,0,0,0,.822-.656c0-.012,0-.024,0-.035V1554.4c0-.012,0-.024,0-.036s0-.02,0-.029a.746.746,0,0,0-.617-.605l-.025-.005a.967.967,0,0,0-.178-.016h-34.025l-.074,0-.033,0h0l-.038.005a.9.9,0,0,0-.151.036.818.818,0,0,0-.386.259.61.61,0,0,0-.141.386" transform="translate(-1375.75 -1400.306)" fill="#ffc76c"/>
            <path id="Path_1030351" data-name="Path 1030351" d="M1695.688,1556.888h18.228a.719.719,0,0,0,.734-.656c0-.012,0-.024,0-.035V1554.4c0-.012,0-.024,0-.036s0-.02,0-.029a.71.71,0,0,0-.57-.609l-.032-.006a.772.772,0,0,0-.13-.011h-15.99c0,.007,0,.015-.006.022a5.565,5.565,0,0,1-2.225,3.149l-.007,0" transform="translate(-1528.264 -1400.306)" fill="#ffae39"/>
            <rect id="Rectangle_458953" data-name="Rectangle 458953" width="0.387" height="3.176" transform="translate(154.856 153.406)" fill="#ffa412"/>
            <rect id="Rectangle_458954" data-name="Rectangle 458954" width="0.387" height="3.176" transform="translate(156.165 153.406)" fill="#ffa412"/>
            <rect id="Rectangle_458955" data-name="Rectangle 458955" width="0.387" height="3.176" transform="translate(157.734 153.406)" fill="#ffa412"/>
            <rect id="Rectangle_458956" data-name="Rectangle 458956" width="0.387" height="3.176" transform="translate(160.141 153.406)" fill="#ffa412"/>
            <rect id="Rectangle_458957" data-name="Rectangle 458957" width="0.387" height="3.176" transform="translate(162.685 153.406)" fill="#ffa412"/>
            <rect id="Rectangle_458958" data-name="Rectangle 458958" width="0.387" height="3.176" transform="translate(166.585 153.406)" fill="#ffa412"/>
            <rect id="Rectangle_458959" data-name="Rectangle 458959" width="0.387" height="3.176" transform="translate(170.238 153.406)" fill="#ffa412"/>
            <rect id="Rectangle_458960" data-name="Rectangle 458960" width="0.387" height="3.176" transform="translate(173.499 153.406)" fill="#ffa412"/>
            <rect id="Rectangle_458961" data-name="Rectangle 458961" width="0.387" height="3.176" transform="translate(153.609 153.406)" fill="#ffa412"/>
            <rect id="Rectangle_458962" data-name="Rectangle 458962" width="0.387" height="3.176" transform="translate(152.786 153.406)" fill="#ffa412"/>
            <rect id="Rectangle_458963" data-name="Rectangle 458963" width="0.387" height="3.176" transform="translate(151.992 153.406)" fill="#ffa412"/>
            <path id="Path_1030352" data-name="Path 1030352" d="M1533.333,1553.722v3.154a.949.949,0,0,0,.145.011h.242v-3.177h-.242a.964.964,0,0,0-.145.011" transform="translate(-1381.94 -1400.305)" fill="#ffa412"/>
            <path id="Path_1030353" data-name="Path 1030353" d="M1527.9,1554.442v2.566a.817.817,0,0,0,.386.259v-3.083a.817.817,0,0,0-.386.259" transform="translate(-1377.039 -1400.731)" fill="#ffa412"/>
            <path id="Path_1030354" data-name="Path 1030354" d="M1527.19,1522.46v1.794a.611.611,0,0,0,.141.386.82.82,0,0,0,.386.259.859.859,0,0,0,.118.03h0l.032.006a.964.964,0,0,0,.145.011h34.025a.905.905,0,0,0,.107-.006l.04-.005a.748.748,0,0,0,.675-.645c0-.012,0-.024,0-.035v-1.794c0-.012,0-.024,0-.036a.777.777,0,0,0-.822-.656h-34.025l-.065,0-.028,0-.031,0-.022,0a.888.888,0,0,0-.151.036l-.021.007-.021.008-.042.017-.045.021-.039.021-.042.026-.032.022,0,0-.021.016a.738.738,0,0,0-.06.052l-.016.016-.016.017-.03.035a.61.61,0,0,0-.141.386" transform="translate(-1376.403 -1371.517)" fill="#ffc76c"/>
            <path id="Path_1030355" data-name="Path 1030355" d="M1696.411,1524.945h18.272l.047,0a.713.713,0,0,0,.644-.651c0-.012,0-.024,0-.035v-1.794q0-.018,0-.036a.719.719,0,0,0-.734-.656H1698.65l-.022.078a5.56,5.56,0,0,1-2.184,3.075l-.033.023" transform="translate(-1528.916 -1371.517)" fill="#ffae39"/>
            <rect id="Rectangle_458964" data-name="Rectangle 458964" width="0.387" height="3.176" transform="translate(154.927 150.252)" fill="#ffa412"/>
            <rect id="Rectangle_458965" data-name="Rectangle 458965" width="0.387" height="3.176" transform="translate(156.236 150.252)" fill="#ffa412"/>
            <rect id="Rectangle_458966" data-name="Rectangle 458966" width="0.387" height="3.176" transform="translate(157.806 150.252)" fill="#ffa412"/>
            <rect id="Rectangle_458967" data-name="Rectangle 458967" width="0.387" height="3.176" transform="translate(160.212 150.252)" fill="#ffa412"/>
            <rect id="Rectangle_458968" data-name="Rectangle 458968" width="0.387" height="3.176" transform="translate(162.756 150.252)" fill="#ffa412"/>
            <rect id="Rectangle_458969" data-name="Rectangle 458969" width="0.387" height="3.176" transform="translate(166.657 150.252)" fill="#ffa412"/>
            <rect id="Rectangle_458970" data-name="Rectangle 458970" width="0.387" height="3.176" transform="translate(170.309 150.252)" fill="#ffa412"/>
            <rect id="Rectangle_458971" data-name="Rectangle 458971" width="0.387" height="3.176" transform="translate(173.57 150.252)" fill="#ffa412"/>
            <rect id="Rectangle_458972" data-name="Rectangle 458972" width="0.387" height="3.176" transform="translate(153.681 150.252)" fill="#ffa412"/>
            <rect id="Rectangle_458973" data-name="Rectangle 458973" width="0.387" height="3.176" transform="translate(152.858 150.252)" fill="#ffa412"/>
            <rect id="Rectangle_458974" data-name="Rectangle 458974" width="0.387" height="3.176" transform="translate(152.063 150.252)" fill="#ffa412"/>
            <path id="Path_1030356" data-name="Path 1030356" d="M1534.058,1521.78v3.154a.946.946,0,0,0,.145.011h.242v-3.176h-.242a.946.946,0,0,0-.145.011" transform="translate(-1382.593 -1371.517)" fill="#ffa412"/>
            <path id="Path_1030357" data-name="Path 1030357" d="M1528.618,1522.5v2.566a.82.82,0,0,0,.386.259v-3.083a.819.819,0,0,0-.386.259" transform="translate(-1377.69 -1371.943)" fill="#ffa412"/>
            <path id="Path_1030358" data-name="Path 1030358" d="M1509.385,1491.082v1.794a.61.61,0,0,0,.141.386.816.816,0,0,0,.386.259.874.874,0,0,0,.151.036.946.946,0,0,0,.145.011h34.025a.946.946,0,0,0,.38-.078.706.706,0,0,0,.44-.547c0-.01,0-.021,0-.031s0-.024,0-.036v-1.794c0-.012,0-.024,0-.036a.777.777,0,0,0-.822-.656h-34.025a.978.978,0,0,0-.145.011.885.885,0,0,0-.151.036.816.816,0,0,0-.386.259.61.61,0,0,0-.141.386" transform="translate(-1360.356 -1343.237)" fill="#ffc76c"/>
            <path id="Path_1030359" data-name="Path 1030359" d="M1678.606,1493.568h18.228a.767.767,0,0,0,.339-.078.7.7,0,0,0,.393-.547c0-.01,0-.021,0-.031s0-.024,0-.036v-1.794q0-.018,0-.036a.72.72,0,0,0-.734-.656h-15.99a5.575,5.575,0,0,1-2.127,3.1l-.112.078" transform="translate(-1512.869 -1343.237)" fill="#ffae39"/>
            <rect id="Rectangle_458975" data-name="Rectangle 458975" width="0.387" height="3.176" transform="translate(153.169 147.154)" fill="#ffa412"/>
            <rect id="Rectangle_458976" data-name="Rectangle 458976" width="0.387" height="3.176" transform="translate(154.478 147.154)" fill="#ffa412"/>
            <rect id="Rectangle_458977" data-name="Rectangle 458977" width="0.387" height="3.176" transform="translate(156.048 147.154)" fill="#ffa412"/>
            <rect id="Rectangle_458978" data-name="Rectangle 458978" width="0.387" height="3.176" transform="translate(158.454 147.154)" fill="#ffa412"/>
            <rect id="Rectangle_458979" data-name="Rectangle 458979" width="0.387" height="3.176" transform="translate(160.998 147.154)" fill="#ffa412"/>
            <rect id="Rectangle_458980" data-name="Rectangle 458980" width="0.387" height="3.176" transform="translate(164.899 147.154)" fill="#ffa412"/>
            <rect id="Rectangle_458981" data-name="Rectangle 458981" width="0.387" height="3.176" transform="translate(168.551 147.154)" fill="#ffa412"/>
            <rect id="Rectangle_458982" data-name="Rectangle 458982" width="0.387" height="3.176" transform="translate(171.812 147.154)" fill="#ffa412"/>
            <rect id="Rectangle_458983" data-name="Rectangle 458983" width="0.387" height="3.176" transform="translate(151.923 147.154)" fill="#ffa412"/>
            <rect id="Rectangle_458984" data-name="Rectangle 458984" width="0.387" height="3.176" transform="translate(151.1 147.154)" fill="#ffa412"/>
            <rect id="Rectangle_458985" data-name="Rectangle 458985" width="0.387" height="3.176" transform="translate(150.305 147.154)" fill="#ffa412"/>
            <path id="Path_1030360" data-name="Path 1030360" d="M1516.252,1490.4v3.154a.932.932,0,0,0,.145.011h.242v-3.176h-.242a.947.947,0,0,0-.145.011" transform="translate(-1366.545 -1343.238)" fill="#ffa412"/>
            <path id="Path_1030361" data-name="Path 1030361" d="M1510.813,1491.123v2.566a.818.818,0,0,0,.386.259v-3.083a.82.82,0,0,0-.386.259" transform="translate(-1361.643 -1343.663)" fill="#ffa412"/>
            <path id="Path_1030362" data-name="Path 1030362" d="M1481.224,1458.911v1.794a.611.611,0,0,0,.141.386.819.819,0,0,0,.386.259.893.893,0,0,0,.151.036.961.961,0,0,0,.145.011h34.025a.777.777,0,0,0,.822-.656c0-.012,0-.024,0-.036v-1.794c0-.012,0-.024,0-.036a.759.759,0,0,0-.725-.651.888.888,0,0,0-.1-.005h-34.025a.961.961,0,0,0-.145.011.9.9,0,0,0-.151.036.819.819,0,0,0-.386.259.611.611,0,0,0-.141.386" transform="translate(-1334.975 -1314.243)" fill="#ffc76c"/>
            <path id="Path_1030363" data-name="Path 1030363" d="M1650.444,1461.4h18.228a.72.72,0,0,0,.734-.656c0-.012,0-.024,0-.036v-1.794c0-.012,0-.024,0-.036a.713.713,0,0,0-.647-.651.7.7,0,0,0-.087-.005h-15.99v.005a5.568,5.568,0,0,1-2.237,3.171" transform="translate(-1487.487 -1314.243)" fill="#ffae39"/>
            <rect id="Rectangle_458986" data-name="Rectangle 458986" width="0.387" height="3.176" transform="translate(150.388 143.977)" fill="#ffa412"/>
            <rect id="Rectangle_458987" data-name="Rectangle 458987" width="0.387" height="3.176" transform="translate(151.697 143.977)" fill="#ffa412"/>
            <rect id="Rectangle_458988" data-name="Rectangle 458988" width="0.387" height="3.176" transform="translate(153.267 143.977)" fill="#ffa412"/>
            <rect id="Rectangle_458989" data-name="Rectangle 458989" width="0.387" height="3.176" transform="translate(155.673 143.977)" fill="#ffa412"/>
            <rect id="Rectangle_458990" data-name="Rectangle 458990" width="0.387" height="3.176" transform="translate(158.218 143.977)" fill="#ffa412"/>
            <rect id="Rectangle_458991" data-name="Rectangle 458991" width="0.387" height="3.176" transform="translate(162.118 143.977)" fill="#ffa412"/>
            <rect id="Rectangle_458992" data-name="Rectangle 458992" width="0.387" height="3.176" transform="translate(165.77 143.977)" fill="#ffa412"/>
            <rect id="Rectangle_458993" data-name="Rectangle 458993" width="0.387" height="3.176" transform="translate(169.032 143.977)" fill="#ffa412"/>
            <rect id="Rectangle_458994" data-name="Rectangle 458994" width="0.387" height="3.176" transform="translate(149.142 143.977)" fill="#ffa412"/>
            <rect id="Rectangle_458995" data-name="Rectangle 458995" width="0.387" height="3.176" transform="translate(148.319 143.977)" fill="#ffa412"/>
            <rect id="Rectangle_458996" data-name="Rectangle 458996" width="0.387" height="3.176" transform="translate(147.524 143.977)" fill="#ffa412"/>
            <path id="Path_1030364" data-name="Path 1030364" d="M1488.089,1458.23v3.154a.963.963,0,0,0,.145.011h.241v-3.177h-.241a.948.948,0,0,0-.145.011" transform="translate(-1341.163 -1314.242)" fill="#ffa412"/>
            <path id="Path_1030365" data-name="Path 1030365" d="M1482.65,1458.951v2.566a.82.82,0,0,0,.386.259v-3.083a.819.819,0,0,0-.386.259" transform="translate(-1336.261 -1314.668)" fill="#ffa412"/>
            <path id="Path_1030366" data-name="Path 1030366" d="M1526.466,1426.79v1.794a.61.61,0,0,0,.141.386.819.819,0,0,0,.386.259.9.9,0,0,0,.151.036l.048.006.038,0h34.084a.777.777,0,0,0,.822-.656c0-.012,0-.024,0-.036v-1.794c0-.012,0-.024,0-.036a.777.777,0,0,0-.822-.656h-34.069c-.035,0-.068.005-.1.01a.908.908,0,0,0-.151.036c-.025.008-.049.017-.072.027l-.042.019,0,0-.042.022-.007,0-.037.023a.686.686,0,0,0-.082.06l-.023.02,0,0-.014.013,0,0-.024.025-.033.037a.611.611,0,0,0-.141.386" transform="translate(-1375.75 -1285.293)" fill="#ffc76c"/>
            <path id="Path_1030367" data-name="Path 1030367" d="M1695.688,1429.275h18.228a.719.719,0,0,0,.734-.656c0-.012,0-.024,0-.036v-1.794c0-.012,0-.024,0-.036a.719.719,0,0,0-.734-.656h-15.99c-.006.024-.013.048-.021.073a5.555,5.555,0,0,1-2.21,3.1l-.007.005" transform="translate(-1528.264 -1285.293)" fill="#ffae39"/>
            <rect id="Rectangle_458997" data-name="Rectangle 458997" width="0.387" height="3.176" transform="translate(154.856 140.806)" fill="#ffa412"/>
            <rect id="Rectangle_458998" data-name="Rectangle 458998" width="0.387" height="3.176" transform="translate(156.165 140.806)" fill="#ffa412"/>
            <rect id="Rectangle_458999" data-name="Rectangle 458999" width="0.387" height="3.176" transform="translate(157.734 140.806)" fill="#ffa412"/>
            <rect id="Rectangle_459000" data-name="Rectangle 459000" width="0.387" height="3.176" transform="translate(160.141 140.806)" fill="#ffa412"/>
            <rect id="Rectangle_459001" data-name="Rectangle 459001" width="0.387" height="3.176" transform="translate(162.685 140.806)" fill="#ffa412"/>
            <rect id="Rectangle_459002" data-name="Rectangle 459002" width="0.387" height="3.176" transform="translate(166.585 140.806)" fill="#ffa412"/>
            <rect id="Rectangle_459003" data-name="Rectangle 459003" width="0.387" height="3.176" transform="translate(170.238 140.806)" fill="#ffa412"/>
            <rect id="Rectangle_459004" data-name="Rectangle 459004" width="0.387" height="3.176" transform="translate(173.499 140.806)" fill="#ffa412"/>
            <rect id="Rectangle_459005" data-name="Rectangle 459005" width="0.387" height="3.176" transform="translate(153.609 140.806)" fill="#ffa412"/>
            <rect id="Rectangle_459006" data-name="Rectangle 459006" width="0.387" height="3.176" transform="translate(152.786 140.806)" fill="#ffa412"/>
            <rect id="Rectangle_459007" data-name="Rectangle 459007" width="0.387" height="3.176" transform="translate(151.992 140.806)" fill="#ffa412"/>
            <path id="Path_1030368" data-name="Path 1030368" d="M1533.333,1426.11v3.154a.981.981,0,0,0,.145.011h.242V1426.1h-.242a.965.965,0,0,0-.145.011" transform="translate(-1381.94 -1285.293)" fill="#ffa412"/>
            <path id="Path_1030369" data-name="Path 1030369" d="M1527.9,1426.83v2.566a.82.82,0,0,0,.386.259v-3.083a.818.818,0,0,0-.386.259" transform="translate(-1377.039 -1285.719)" fill="#ffa412"/>
            <path id="Path_1030370" data-name="Path 1030370" d="M1501.13,1395.361v1.794a.611.611,0,0,0,.141.386.818.818,0,0,0,.386.259.888.888,0,0,0,.151.036.947.947,0,0,0,.145.011h34.025a.943.943,0,0,0,.368-.073.708.708,0,0,0,.452-.554c0-.009,0-.019,0-.028s0-.024,0-.035v-1.794c0-.012,0-.024,0-.036a.758.758,0,0,0-.725-.651.91.91,0,0,0-.1-.005h-34.025a.979.979,0,0,0-.145.011.9.9,0,0,0-.151.036.82.82,0,0,0-.386.259.61.61,0,0,0-.141.386" transform="translate(-1352.916 -1256.967)" fill="#ffc76c"/>
            <path id="Path_1030371" data-name="Path 1030371" d="M1670.352,1397.846h18.228a.765.765,0,0,0,.328-.073.7.7,0,0,0,.4-.554c0-.009,0-.019,0-.028s0-.024,0-.035v-1.794c0-.012,0-.024,0-.036a.738.738,0,0,0-.734-.656h-15.99v.005a5.573,5.573,0,0,1-2.133,3.1l-.1.073" transform="translate(-1505.43 -1256.967)" fill="#ffae39"/>
            <rect id="Rectangle_459008" data-name="Rectangle 459008" width="0.387" height="3.176" transform="translate(152.354 137.703)" fill="#ffa412"/>
            <rect id="Rectangle_459009" data-name="Rectangle 459009" width="0.387" height="3.176" transform="translate(153.663 137.703)" fill="#ffa412"/>
            <rect id="Rectangle_459010" data-name="Rectangle 459010" width="0.387" height="3.176" transform="translate(155.233 137.703)" fill="#ffa412"/>
            <rect id="Rectangle_459011" data-name="Rectangle 459011" width="0.387" height="3.176" transform="translate(157.639 137.703)" fill="#ffa412"/>
            <rect id="Rectangle_459012" data-name="Rectangle 459012" width="0.387" height="3.176" transform="translate(160.183 137.703)" fill="#ffa412"/>
            <rect id="Rectangle_459013" data-name="Rectangle 459013" width="0.387" height="3.176" transform="translate(164.084 137.703)" fill="#ffa412"/>
            <rect id="Rectangle_459014" data-name="Rectangle 459014" width="0.387" height="3.176" transform="translate(167.736 137.703)" fill="#ffa412"/>
            <rect id="Rectangle_459015" data-name="Rectangle 459015" width="0.387" height="3.176" transform="translate(170.997 137.703)" fill="#ffa412"/>
            <rect id="Rectangle_459016" data-name="Rectangle 459016" width="0.387" height="3.176" transform="translate(151.108 137.703)" fill="#ffa412"/>
            <rect id="Rectangle_459017" data-name="Rectangle 459017" width="0.387" height="3.176" transform="translate(150.285 137.703)" fill="#ffa412"/>
            <rect id="Rectangle_459018" data-name="Rectangle 459018" width="0.387" height="3.176" transform="translate(149.49 137.703)" fill="#ffa412"/>
            <path id="Path_1030372" data-name="Path 1030372" d="M1508,1394.681v3.154a.931.931,0,0,0,.145.011h.242v-3.177h-.242a.978.978,0,0,0-.145.011" transform="translate(-1359.105 -1256.967)" fill="#ffa412"/>
            <path id="Path_1030373" data-name="Path 1030373" d="M1502.559,1395.4v2.566a.82.82,0,0,0,.386.259v-3.083a.819.819,0,0,0-.386.259" transform="translate(-1354.204 -1257.392)" fill="#ffa412"/>
            <path id="Path_1030374" data-name="Path 1030374" d="M1490.345,1363.24v1.794a.61.61,0,0,0,.141.386.818.818,0,0,0,.386.259.908.908,0,0,0,.151.036l.048.006.027,0,.027,0h34.068a.777.777,0,0,0,.822-.656c0-.012,0-.024,0-.035v-1.794c0-.012,0-.024,0-.036a.777.777,0,0,0-.822-.656h-34.025a.98.98,0,0,0-.145.011.907.907,0,0,0-.151.036.819.819,0,0,0-.386.259.61.61,0,0,0-.141.386" transform="translate(-1343.196 -1228.017)" fill="#ffc76c"/>
            <path id="Path_1030375" data-name="Path 1030375" d="M1659.565,1365.725h18.229a.72.72,0,0,0,.734-.656c0-.012,0-.024,0-.035v-1.794q0-.018,0-.036a.72.72,0,0,0-.734-.656H1661.8a5.568,5.568,0,0,1-2.231,3.171l-.007,0" transform="translate(-1495.708 -1228.017)" fill="#ffae39"/>
            <rect id="Rectangle_459019" data-name="Rectangle 459019" width="0.387" height="3.176" transform="translate(151.289 134.531)" fill="#ffa412"/>
            <rect id="Rectangle_459020" data-name="Rectangle 459020" width="0.387" height="3.176" transform="translate(152.598 134.531)" fill="#ffa412"/>
            <rect id="Rectangle_459021" data-name="Rectangle 459021" width="0.387" height="3.176" transform="translate(154.168 134.531)" fill="#ffa412"/>
            <rect id="Rectangle_459022" data-name="Rectangle 459022" width="0.387" height="3.176" transform="translate(156.574 134.531)" fill="#ffa412"/>
            <rect id="Rectangle_459023" data-name="Rectangle 459023" width="0.387" height="3.176" transform="translate(159.118 134.531)" fill="#ffa412"/>
            <rect id="Rectangle_459024" data-name="Rectangle 459024" width="0.387" height="3.176" transform="translate(163.019 134.531)" fill="#ffa412"/>
            <rect id="Rectangle_459025" data-name="Rectangle 459025" width="0.387" height="3.176" transform="translate(166.671 134.531)" fill="#ffa412"/>
            <rect id="Rectangle_459026" data-name="Rectangle 459026" width="0.387" height="3.176" transform="translate(169.932 134.531)" fill="#ffa412"/>
            <rect id="Rectangle_459027" data-name="Rectangle 459027" width="0.387" height="3.176" transform="translate(150.043 134.531)" fill="#ffa412"/>
            <rect id="Rectangle_459028" data-name="Rectangle 459028" width="0.387" height="3.176" transform="translate(149.22 134.531)" fill="#ffa412"/>
            <rect id="Rectangle_459029" data-name="Rectangle 459029" width="0.387" height="3.176" transform="translate(148.425 134.531)" fill="#ffa412"/>
            <path id="Path_1030376" data-name="Path 1030376" d="M1497.212,1362.56v3.154a.961.961,0,0,0,.145.011h.242v-3.176h-.242a.977.977,0,0,0-.145.011" transform="translate(-1349.385 -1228.017)" fill="#ffa412"/>
            <path id="Path_1030377" data-name="Path 1030377" d="M1491.773,1363.279v2.566a.82.82,0,0,0,.386.259v-3.083a.82.82,0,0,0-.386.259" transform="translate(-1344.483 -1228.443)" fill="#ffa412"/>
            <path id="Path_1030378" data-name="Path 1030378" d="M1773.731,1401.039a16.171,16.171,0,1,0-16.171,16.171,16.171,16.171,0,0,0,16.171-16.171" transform="translate(-1569.454 -1248.133)" fill="#e2810e"/>
            <path id="Path_1030379" data-name="Path 1030379" d="M1788.018,1401.039a16.171,16.171,0,1,0-16.171,16.171,16.171,16.171,0,0,0,16.171-16.171" transform="translate(-1582.33 -1248.133)" fill="#ffc76c"/>
            <path id="Path_1030380" data-name="Path 1030380" d="M1774.552,1426.512a14.733,14.733,0,1,1,10.418,4.315,14.637,14.637,0,0,1-10.418-4.315m-3.436-10.418a13.854,13.854,0,1,0,13.854-13.854,13.87,13.87,0,0,0-13.854,13.854" transform="translate(-1595.453 -1262.998)" fill="#ffa412"/>
            <path id="Path_1030381" data-name="Path 1030381" d="M1862.633,1455.537a2.427,2.427,0,0,0-.035-.855,1.771,1.771,0,0,0-.362-.71,3.346,3.346,0,0,0-.723-.638,8.845,8.845,0,0,0-1.121-.628,23.141,23.141,0,0,1-2.07-1.138,7.329,7.329,0,0,1-1.548-1.26,4.313,4.313,0,0,1-.914-1.535,4.869,4.869,0,0,1,.394-3.682,4.093,4.093,0,0,1,1.141-1.268,5.116,5.116,0,0,1,1.635-.779,6.825,6.825,0,0,1,2.041-.235l.288-2.428,1.955.232-.292,2.462a6.115,6.115,0,0,1,1.839.782,4.621,4.621,0,0,1,2.059,2.954,6.153,6.153,0,0,1,.081,2.087l-3.53-.419a3,3,0,0,0-.363-2.109,2.082,2.082,0,0,0-1.539-.867,2.649,2.649,0,0,0-.965.041,1.793,1.793,0,0,0-.7.342,1.672,1.672,0,0,0-.453.585,2.459,2.459,0,0,0-.215.769,2.249,2.249,0,0,0,.032.775,1.663,1.663,0,0,0,.347.68,3.369,3.369,0,0,0,.729.639,11.354,11.354,0,0,0,1.165.673q1.132.583,2.048,1.164a7.42,7.42,0,0,1,1.54,1.27,4.165,4.165,0,0,1,1.072,3.493,4.45,4.45,0,0,1-.561,1.751,4.05,4.05,0,0,1-1.146,1.256,4.939,4.939,0,0,1-1.644.749,7.368,7.368,0,0,1-2.051.217l-.268,2.258-1.942-.23.267-2.247a8.253,8.253,0,0,1-1.908-.675,5.23,5.23,0,0,1-1.563-1.181,4.681,4.681,0,0,1-.981-1.756,5.7,5.7,0,0,1-.163-2.39l3.53.419a3.513,3.513,0,0,0,.067,1.371,2.272,2.272,0,0,0,.5.934,2.2,2.2,0,0,0,.807.556,3.769,3.769,0,0,0,.968.247,3.147,3.147,0,0,0,1.025-.028,2.1,2.1,0,0,0,.775-.322,1.674,1.674,0,0,0,.513-.566,2.038,2.038,0,0,0,.239-.76" transform="translate(-1671.083 -1298.164)" fill="#ffa412"/>
            <path id="Path_1030382" data-name="Path 1030382" d="M1118.829,1467.889s-2.041,2.873-3.912,2.913a13.668,13.668,0,0,1-4.717-1.332s-1.718-3.829-.553-5.327a2.5,2.5,0,0,1,2.39.393,3.66,3.66,0,0,1,.632.606,2.007,2.007,0,0,0,.982.666c1.335.406,2.92-.549,3.512.373a6.27,6.27,0,0,0,1.032,1.222,4.714,4.714,0,0,0,.633.486" transform="translate(-999.722 -1319.451)" fill="#ffeddc"/>
            <path id="Path_1030383" data-name="Path 1030383" d="M936.88,1550.709s7.213-17.478,20.2-17.811c0,0,11.985,1.332,12.651,17.811Z" transform="translate(-844.377 -1381.547)" fill="#ffeddc"/>
            <path id="Path_1030384" data-name="Path 1030384" d="M1105.177,1517.656s5.2,1.157,6.81.477a1.608,1.608,0,0,0-1.949-1.871,4.6,4.6,0,0,1-3.052-.8c-.813-.414-2.025,1.288-1.809,2.2" transform="translate(-996.035 -1365.772)" fill="#2b478b"/>
            <path id="Path_1030385" data-name="Path 1030385" d="M1138.912,1472.96c-.333.25-1.355-3.519-1.355-3.519a3.672,3.672,0,0,1,.632.606,2.006,2.006,0,0,0,.982.666c0,.11.063,2-.26,2.247" transform="translate(-1025.24 -1324.356)" fill="#e5c1a1"/>
            <path id="Path_1030386" data-name="Path 1030386" d="M1173.992,1487.321a21.447,21.447,0,0,1-2.807,1.485c-.333,0,1.775-2.706,1.775-2.706a6.256,6.256,0,0,0,1.032,1.222" transform="translate(-1055.516 -1339.369)" fill="#e5c1a1"/>
            <path id="Path_1030387" data-name="Path 1030387" d="M1008.226,1592.917c-.133-.114,5.1-7.712,6.547-7.768s4.684,1.665,7.03,1.887,4.621-.444,5.065.943,1.665,6.305.916,7.092-16.678.307-19.558-2.154" transform="translate(-908.677 -1428.638)" fill="#f9ddbf"/>
            <path id="Path_1030388" data-name="Path 1030388" d="M1574.036,1495.162a.887.887,0,0,1,.158.949.011.011,0,0,1,0,0,5.9,5.9,0,0,1-1.864,2.045c-.112.091-.212.173-.3.25l-.067.06-.052.047c-.819.755-.511.928-1.983,2.461-1.678,1.746-2.834,1.778-3.163,1.619-.278-.136.287-1.062.913-2.1l.091-.152c.083-.138.166-.279.249-.418.734-1.253.545-1.841.371-3.705-.141-1.515-2.357-8.464-2.357-8.464l3.216-.554s.969,5.534,2.036,6.386c.571.454,1.209.46,1.758.8q.058.035.114.072a4.223,4.223,0,0,1,.88.707" transform="translate(-1411.41 -1340.361)" fill="#ffb27d"/>
            <path id="Path_1030389" data-name="Path 1030389" d="M1580.057,1560.723a.887.887,0,0,1,.158.949.008.008,0,0,1,0,0,6.831,6.831,0,0,1-1.867,2.038c-.111.092-.209.177-.3.256-.023.02-.046.04-.067.06l-.052.047c-.819.755-.511.928-1.983,2.461-1.678,1.746-2.834,1.778-3.163,1.619-.278-.135.287-1.062.913-2.1a7.15,7.15,0,0,0,2.992-2.2c1.011-1.29,1.685-2.947,2.373-3.906q.058.035.114.072a4.223,4.223,0,0,1,.88.707" transform="translate(-1417.432 -1405.923)" fill="#233862"/>
            <path id="Path_1030390" data-name="Path 1030390" d="M1296.323,1484.219c-.2.993-1.614.827-3.195.441s-1.205.073-3.455-.176-2.932-1.088-3-1.423c-.062-.3,1.05-.4,2.243-.539.15-.017.3-.035.451-.054,1.347-.169,2.333-1.038,3.555-1.751,1.159-.676,2.887-3.43,2.887-3.43l3.086.245s-1.619,2.459-2.246,3.529a3.726,3.726,0,0,0-.3,2.1,3.983,3.983,0,0,1-.024,1.056" transform="translate(-1159.631 -1331.427)" fill="#ffb27d"/>
            <path id="Path_1030391" data-name="Path 1030391" d="M1293.128,1532.444c-1.581-.386-1.205.073-3.455-.176s-2.932-1.088-3-1.423c-.062-.3,1.051-.4,2.243-.539l.011.023a6.345,6.345,0,0,0,3.222,1c1.527.037,3.144-.4,4.2-.383a3.972,3.972,0,0,1-.024,1.056c-.2.993-1.614.827-3.195.441" transform="translate(-1159.631 -1379.211)" fill="#233862"/>
            <path id="Path_1030392" data-name="Path 1030392" d="M1504.21,1302.495l2.885,7.762,3.766,10.135a6.1,6.1,0,0,0,2-.183,8.682,8.682,0,0,0,1.935-.942s-1.046-10.883-3-17.13a11.122,11.122,0,0,0-1.678-3.631c-3.024-3.574-5.911,3.987-5.911,3.987" transform="translate(-1355.692 -1169.434)" fill="#233862"/>
            <path id="Path_1030393" data-name="Path 1030393" d="M1378.2,1208.641c1.89-.61,7.28.173,12.695,1.233l1.134-1.87,11.7-.913s3.859,8.558,1.746,14.011a1.978,1.978,0,0,1-1.979,1.333h-.171s-6.961,0-9.221,0c-5.816,0-12.309-4-13.149-4.166-1.375-.275-1.925,2.475-3.3,5.362s-12.923,12.786-12.923,12.786a10.166,10.166,0,0,1-2.508-.257,2.47,2.47,0,0,1-1.077-.68s12.8-25.459,17.058-26.834" transform="translate(-1226.753 -1087.909)" fill="#2b478b"/>
            <path id="Path_1030394" data-name="Path 1030394" d="M1619.569,879.41a127.916,127.916,0,0,0,12.624,8.175s2.847,1.705,4.789.869c3.237-1.395,5.723-6.278,1.245-11.68-2.233-2.694-4.085-3.582-3.65-7.164.471-3.881-1.281-8.76-5.748-8.965a12.328,12.328,0,0,0-4.25.188c-4.114,1.291-10.995,16.59-5.01,18.578" transform="translate(-1457.548 -775.575)" fill="#233862"/>
            <path id="Path_1030395" data-name="Path 1030395" d="M1674.4,1026.782c-.241.665-6.564,1.257-10.162,1.018a4.932,4.932,0,0,1-2.322-.5c-1.283-1.115-1.156,1.337-1.332-10.393-.085-5.721,4.855-10.817,4.855-10.817s.394,2.444,5.294-.465c.174-.1,2.1,2.755,3.961,6.273,2.046,3.887-.048,14.2-.294,14.885" transform="translate(-1496.624 -906.331)" fill="#aec3ff"/>
            <path id="Path_1030396" data-name="Path 1030396" d="M1533.427,1352.157l3.766,10.135a6.106,6.106,0,0,0,2-.183,8.68,8.68,0,0,0,1.935-.942s-1.046-10.883-3-17.13Z" transform="translate(-1382.024 -1211.334)" fill="#2b478b"/>
            <path id="Path_1030397" data-name="Path 1030397" d="M1581.132,1010.345s-4.473,1.1-5.633,3.025c-1.413,2.348-8.458,12.934-8.458,12.934s6.946,2.457,8.129,1.273,4.12-10.984,4.12-10.984Z" transform="translate(-1412.319 -910.588)" fill="#aec3ff"/>
            <path id="Path_1030398" data-name="Path 1030398" d="M1710.091,968.83A12.154,12.154,0,0,1,1706.95,971c-.523.191-1.393.4-1.393.4l-.708-.715c-.62-.579,0-.746-.091-1.841-.005-.052-.009-.1-.015-.158a19.789,19.789,0,0,0-.5-2.653.011.011,0,0,1,0,0l4.328-1.238-.139.239c.267,2.246,1.074,3.737,1.661,3.8" transform="translate(-1535.973 -869.53)" fill="#ffb27d"/>
            <path id="Path_1030399" data-name="Path 1030399" d="M1708.569,964.789a4.836,4.836,0,0,1-3.9,3.31,20.635,20.635,0,0,0-.427-2.068.011.011,0,0,1,0,0Z" transform="translate(-1535.973 -869.53)" fill="#ed975d"/>
            <path id="Path_1030400" data-name="Path 1030400" d="M1674.04,898.788s5.834-.388,5.537-4.018.255-6.124-3.483-6.03-4.347,1.539-4.542,2.774.963,7.281,2.488,7.273" transform="translate(-1506.493 -800.988)" fill="#ffb27d"/>
            <path id="Path_1030401" data-name="Path 1030401" d="M1686.326,880.956s1.45,4.253,4.892,4.748c2.511.361,3.508-.318,3.508-.318a9.853,9.853,0,0,1-2.161-3.38,1.774,1.774,0,0,0-1.389-1.142c-1.787-.276-4.094-1.459-4.849.092" transform="translate(-1519.827 -793.268)" fill="#233862"/>
            <path id="Path_1030402" data-name="Path 1030402" d="M1670.447,888.57a3.849,3.849,0,0,0-1.768,1.976,7.425,7.425,0,0,0-.439,3.708s-1.678-3.881-.463-5.63a1.545,1.545,0,0,1,2.67-.054" transform="translate(-1502.711 -800.129)" fill="#233862"/>
            <path id="Path_1030403" data-name="Path 1030403" d="M1701.719,1005.836a7.817,7.817,0,0,0,.8,2.556,3.131,3.131,0,0,1-1.65-1.86s.391-.647.851-.7" transform="translate(-1532.933 -906.525)" fill="#91b0f2"/>
            <path id="Path_1030404" data-name="Path 1030404" d="M1640.945,1079.957s-3.258,3.908-2.857,5.324,2.657,1.416,2.657,1.416a15.638,15.638,0,0,1,0-4.585c.421-1.569.686-2.247.2-2.154" transform="translate(-1476.321 -973.32)" fill="#91b0f2"/>
            <path id="Path_1030405" data-name="Path 1030405" d="M1732.643,1113.339s4.693-2.861,4.632-4.522,0-4.711.442-4.284,1.832,3.852,1.7,4.822-4.873,7.742-5.46,7.726c-4.183-.117-1.312-3.742-1.312-3.742" transform="translate(-1560.704 -995.44)" fill="#91b0f2"/>
            <path id="Path_1030406" data-name="Path 1030406" d="M1721.2,995.611s-2.563,3.223-3.623,3.566a7.289,7.289,0,0,0,5.138-2.514s-.711-1.042-1.515-1.052" transform="translate(-1547.992 -897.309)" fill="#91b0f2"/>
            <path id="Path_1030407" data-name="Path 1030407" d="M1513.777,1050.225a11.894,11.894,0,1,1,11.894,11.894,11.894,11.894,0,0,1-11.894-11.894" transform="translate(-1364.314 -935.811)" fill="#e2810e"/>
            <path id="Path_1030408" data-name="Path 1030408" d="M1503.269,1050.225a11.894,11.894,0,1,1,11.894,11.894,11.894,11.894,0,0,1-11.894-11.894" transform="translate(-1354.844 -935.811)" fill="#ffc76c"/>
            <path id="Path_1030409" data-name="Path 1030409" d="M1524.813,1072.136a10.837,10.837,0,1,1,7.662-3.174,10.766,10.766,0,0,1-7.662,3.174m0-21.027A10.19,10.19,0,1,0,1535,1061.3a10.2,10.2,0,0,0-10.19-10.19" transform="translate(-1364.494 -946.745)" fill="#ffa412"/>
            <path id="Path_1030410" data-name="Path 1030410" d="M1581.9,1090.311a1.789,1.789,0,0,0-.026-.629,1.305,1.305,0,0,0-.266-.522,2.465,2.465,0,0,0-.532-.469,6.554,6.554,0,0,0-.824-.462,17.042,17.042,0,0,1-1.523-.837,5.4,5.4,0,0,1-1.139-.927,3.173,3.173,0,0,1-.672-1.129,3.58,3.58,0,0,1,.289-2.708,3.011,3.011,0,0,1,.839-.933,3.767,3.767,0,0,1,1.2-.573,5.015,5.015,0,0,1,1.5-.173l.212-1.786,1.438.171-.215,1.811a4.5,4.5,0,0,1,1.353.575,3.4,3.4,0,0,1,1.514,2.173,4.527,4.527,0,0,1,.059,1.535l-2.6-.308a2.2,2.2,0,0,0-.267-1.551,1.531,1.531,0,0,0-1.132-.638,1.947,1.947,0,0,0-.71.03,1.318,1.318,0,0,0-.517.252,1.228,1.228,0,0,0-.333.43,1.809,1.809,0,0,0-.158.565,1.656,1.656,0,0,0,.024.57,1.222,1.222,0,0,0,.255.5,2.464,2.464,0,0,0,.537.47,8.364,8.364,0,0,0,.857.5q.833.429,1.507.856a5.46,5.46,0,0,1,1.133.934,3.064,3.064,0,0,1,.789,2.569,3.277,3.277,0,0,1-.412,1.288,2.977,2.977,0,0,1-.843.924,3.632,3.632,0,0,1-1.209.551,5.419,5.419,0,0,1-1.508.16l-.2,1.661-1.429-.17.2-1.652a6.069,6.069,0,0,1-1.4-.5,3.85,3.85,0,0,1-1.15-.869,3.444,3.444,0,0,1-.721-1.292,4.189,4.189,0,0,1-.12-1.758l2.6.308a2.582,2.582,0,0,0,.049,1.009,1.668,1.668,0,0,0,.369.687,1.617,1.617,0,0,0,.594.409,2.762,2.762,0,0,0,.712.182,2.309,2.309,0,0,0,.754-.021,1.544,1.544,0,0,0,.57-.237,1.23,1.23,0,0,0,.377-.417,1.5,1.5,0,0,0,.176-.559" transform="translate(-1420.09 -972.612)" fill="#ffa412"/>
            <path id="Path_1030411" data-name="Path 1030411" d="M1494.807,1162.184s-.133-1.954.605-1.877c.906.094,1.869,2.244,1.427,2.659s-2.023-.3-2.032-.782" transform="translate(-1347.209 -1045.742)" fill="#ffb27d"/>
            <path id="Path_1030412" data-name="Path 1030412" d="M1701.051,1216.931l-1.1-.66a2.851,2.851,0,0,0-1.085-.215c-.4.058-1.359-.111-1.389.045s.919.854.919.854c-.571.875-2.638,1.036-2.8,1.366-.191.4.743.775,1.25.992a2.953,2.953,0,0,0,2.55-.152c.547-.415,1.445-.963,1.445-.963Z" transform="translate(-1528.161 -1095.967)" fill="#ffb27d"/>
            <path id="Path_1030413" data-name="Path 1030413" d="M1744.777,1005.656s4.629.3,5.786,2.108,4.874,12.089,4.272,15.237-11.61,6.926-11.61,6.926a2.066,2.066,0,0,1-.487-1.551,3.228,3.228,0,0,1,.352-1.331s6.754-5.644,6.289-6.768c-1.717-4.151-4.6-14.621-4.6-14.621" transform="translate(-1570.67 -906.362)" fill="#aec3ff"/>
            <path id="Path_1030414" data-name="Path 1030414" d="M336.613,1713.566l-271.072-.093a.344.344,0,0,1-.343-.343v-.21a.344.344,0,0,1,.344-.343l271.072.093a.344.344,0,0,1,.343.343v.21a.344.344,0,0,1-.343.343" transform="translate(-58.761 -1543.485)" fill="#2e3552"/>
          </g>
        </g>
      </g>
    </g>
  </g>
</svg>
