<svg xmlns="http://www.w3.org/2000/svg" width="149.909" height="150" viewBox="0 0 149.909 150">
  <g id="img29" transform="translate(-705.985 -1710.002)">
    <g id="Group_1180300" data-name="Group 1180300" transform="translate(705.936 1710.002)">
      <g id="Grupo_155253" data-name="Grupo 155253" transform="matrix(0.999, 0.035, -0.035, 0.999, 5.062, 0)">
        <path id="Trazado_196478" data-name="Trazado 196478" d="M20.377,22.814q-.452.483-.9.974A75.7,75.7,0,0,0,.051,77.428l30.182-1.084c-.818-24.1,17.45-44.315,40.8-45.157S113.985,49.2,114.8,73.3l30.182-1.084c-1.018-30-19.313-56.469-46.471-67.234A70.928,70.928,0,0,0,20.377,22.822" transform="translate(0 0)" fill="#f9ce5d"/>
        <path id="Trazado_196479" data-name="Trazado 196479" d="M0,5.22c1.4,41.3,34.98,73.608,75,72.167S146.334,41.3,144.933,0L114.751,1.084c.818,24.1-17.451,44.315-40.8,45.156S31,28.229,30.182,4.132Z" transform="translate(0.049 67.595)" fill="#ff9e74"/>
      </g>
      <ellipse id="Ellipse_13685" data-name="Ellipse 13685" cx="58.366" cy="58.462" rx="58.366" ry="58.462" transform="translate(16.722 16.827)" fill="#fff"/>
    </g>
    <g id="Group_1184787" data-name="Group 1184787" transform="translate(741.123 1745.19)">
      <rect id="Rectangle_459456" data-name="Rectangle 459456" width="71.302" height="4.162" rx="2.081" transform="translate(4.162 48.992)" fill="#e6d6d1"/>
      <g id="Group_1184786" data-name="Group 1184786" transform="translate(4.975 4.161)">
        <path id="Path_1033103" data-name="Path 1033103" d="M183.249,298.536l8.8,20.345H165.8l8.8-20.345a4.712,4.712,0,0,1,8.649,0Z" transform="translate(-144.086 -254.268)" fill="#b7bfc9" fill-rule="evenodd"/>
        <path id="Path_1033104" data-name="Path 1033104" d="M190.139,319.422H165.8l8.8-20.345a3.44,3.44,0,0,1,6.74,0l8.8,20.345Z" transform="translate(-144.086 -254.809)" fill="#c3cad2" fill-rule="evenodd"/>
        <path id="Path_1033105" data-name="Path 1033105" d="M159.752,457.119l1.992,4.6H123.055l1.992-4.6a3.393,3.393,0,0,1,3.172-2.084h28.362a3.393,3.393,0,0,1,3.172,2.084Z" transform="translate(-107.561 -390.422)" fill="#8f99a6" fill-rule="evenodd"/>
        <path id="Path_1033106" data-name="Path 1033106" d="M159.834,461.723H123.055l1.992-4.6a3.393,3.393,0,0,1,3.172-2.084h26.453a3.393,3.393,0,0,1,3.172,2.084l1.992,4.6Z" transform="translate(-107.561 -390.422)" fill="#9ca6b3" fill-rule="evenodd"/>
        <path id="Path_1033107" data-name="Path 1033107" d="M46.759,283.383l1.589-3.675H21.838l1.589,3.675a2.708,2.708,0,0,0,2.531,1.663h18.27a2.708,2.708,0,0,0,2.531-1.663Z" transform="translate(-21.073 -240.607)" fill="#8f99a6" fill-rule="evenodd"/>
        <path id="Path_1033108" data-name="Path 1033108" d="M332.885,283.383l1.589-3.675H307.964l1.589,3.675a2.708,2.708,0,0,0,2.531,1.663h18.27A2.708,2.708,0,0,0,332.885,283.383Z" transform="translate(-265.564 -240.607)" fill="#8f99a6" fill-rule="evenodd"/>
        <path id="Path_1033109" data-name="Path 1033109" d="M332.537,279.708H307.963l1.589,3.674a2.708,2.708,0,0,0,2.531,1.663h16.333a2.708,2.708,0,0,0,2.531-1.663l1.589-3.674Z" transform="translate(-265.563 -240.607)" fill="#9ca6b3" fill-rule="evenodd"/>
        <path id="Path_1033110" data-name="Path 1033110" d="M328.586,74.04c-2.181,3.12-5.238,4.914-7.413,8.691a12.359,12.359,0,0,0-1.8,6.327,11.594,11.594,0,1,0,23.189,0,12.359,12.359,0,0,0-1.8-6.327c-2.175-3.777-5.233-5.571-7.413-8.691Z" transform="translate(-275.316 -64.866)" fill="#f9ac00" fill-rule="evenodd"/>
        <path id="Path_1033111" data-name="Path 1033111" d="M328.586,74.04c-2.181,3.12-5.238,4.914-7.413,8.691a12.359,12.359,0,0,0-1.8,6.327,10.622,10.622,0,1,0,21.163,0,12.359,12.359,0,0,0-1.8-6.327c-2.175-3.777-5.233-5.571-7.413-8.691Z" transform="translate(-275.316 -64.866)" fill="#fdc72e" fill-rule="evenodd"/>
        <path id="Path_1033112" data-name="Path 1033112" d="M354.515,18.4h6.856l3.573-6.189a2.948,2.948,0,0,0-4.459.782,2.617,2.617,0,0,0-5.085,0,2.948,2.948,0,0,0-4.459-.782l3.573,6.189Z" transform="translate(-302.288 -10.997)" fill="#f9ac00" fill-rule="evenodd"/>
        <path id="Path_1033113" data-name="Path 1033113" d="M354.515,18.4h4.831l3.968-6.873a2.948,2.948,0,0,0-2.828,1.466,2.617,2.617,0,0,0-5.085,0,2.948,2.948,0,0,0-4.459-.782l3.573,6.189Z" transform="translate(-302.288 -10.998)" fill="#fdc72e" fill-rule="evenodd"/>
        <path id="Path_1033114" data-name="Path 1033114" d="M51.159,155.918V168.45a1.176,1.176,0,0,1-1.174,1.174H26.976A1.176,1.176,0,0,1,25.8,168.45V155.918l12.678,3.4,12.678-3.4Z" transform="translate(-24.46 -134.83)" fill="#f2cc8a" fill-rule="evenodd"/>
        <path id="Path_1033115" data-name="Path 1033115" d="M48.093,169.624H26.976A1.176,1.176,0,0,1,25.8,168.45V155.918l12.678,3.4,10.787-2.89V168.45a1.176,1.176,0,0,1-1.174,1.174Z" transform="translate(-24.46 -134.83)" fill="#fcdca4" fill-rule="evenodd"/>
        <path id="Path_1033116" data-name="Path 1033116" d="M17.8,106.736H43.4a1.225,1.225,0,0,1,1.223,1.223v4.636a1.21,1.21,0,0,1-.906,1.181L30.6,117.29l-13.114-3.514a1.209,1.209,0,0,1-.906-1.181v-4.636a1.225,1.225,0,0,1,1.223-1.223Z" transform="translate(-16.579 -92.805)" fill="#cc973d" fill-rule="evenodd"/>
        <path id="Path_1033117" data-name="Path 1033117" d="M17.8,106.736h23.7a1.225,1.225,0,0,1,1.223,1.223v4.49a1.212,1.212,0,0,1-.906,1.181l-11.235,3.058-13.1-3.522a1.21,1.21,0,0,1-.906-1.181v-4.027A1.225,1.225,0,0,1,17.8,106.736Z" transform="translate(-16.58 -92.805)" fill="#dea94d" fill-rule="evenodd"/>
      </g>
      <rect id="Rectangle_459457" data-name="Rectangle 459457" width="3.507" height="4.598" rx="1.754" transform="translate(17.242 26.347)" fill="#75808f"/>
      <rect id="Rectangle_459458" data-name="Rectangle 459458" width="2.72" height="4.598" rx="1.36" transform="translate(17.242 26.347)" fill="#838e9c"/>
      <path id="Path_1033118" data-name="Path 1033118" d="M214.7,31.968h4.106a.93.93,0,0,0,.928-.928V19.9h3.039a.66.66,0,0,0,.517-1.071l-6.02-7.586a.661.661,0,0,0-1.035,0l-6.019,7.586a.66.66,0,0,0,.517,1.071h3.039V31.04A.93.93,0,0,0,214.7,31.968Z" transform="translate(-176.945 -6.836)" fill="#75e075" fill-rule="evenodd"/>
      <path id="Path_1033119" data-name="Path 1033119" d="M214.706,33.968h2.927a.93.93,0,0,0,.928-.928V21.9H221.6a.66.66,0,0,0,.517-1.071l-5.948-7.5-5.948,7.5a.66.66,0,0,0,.517,1.071h3.039V33.039a.93.93,0,0,0,.928.928Z" transform="translate(-176.945 -8.836)" fill="#90ef90" fill-rule="evenodd"/>
      <path id="Path_1033120" data-name="Path 1033120" d="M46.412,279.708H21.838l1.589,3.674a2.708,2.708,0,0,0,2.531,1.663H42.291a2.708,2.708,0,0,0,2.531-1.663l1.589-3.674Z" transform="translate(-16.098 -236.446)" fill="#9ca6b3" fill-rule="evenodd"/>
      <path id="Path_1033121" data-name="Path 1033121" d="M353.307,61.873H363.4a1.884,1.884,0,0,1,0,3.769H353.307a1.884,1.884,0,0,1,0-3.769Z" transform="translate(-297.724 -50.309)" fill="#836d66"/>
      <path id="Path_1033122" data-name="Path 1033122" d="M353.307,61.874h8.632a1.884,1.884,0,0,1,0,3.769h-8.632a1.884,1.884,0,1,1,0-3.769Z" transform="translate(-297.724 -50.31)" fill="#9b827a" fill-rule="evenodd"/>
      <path id="Path_1033123" data-name="Path 1033123" d="M372.746,140.492a1.164,1.164,0,0,1-1.164-1.165v-.916a4.5,4.5,0,0,1-3.174-2.032,1.165,1.165,0,0,1,2.044-1.118c.48.877,2.7,1.251,3.894.657a.963.963,0,0,0,.545-.732c.025-.2.061-.5-.565-.864a7.021,7.021,0,0,0-1.907-.641c-.289-.069-.589-.14-.893-.225a4.422,4.422,0,0,1-2.731-1.776,2.978,2.978,0,0,1,.428-3.685,4.391,4.391,0,0,1,2.36-1.169v-.9a1.164,1.164,0,0,1,2.328,0v.9a4.13,4.13,0,0,1,2.973,1.935,1.165,1.165,0,0,1-2.051,1.1,2.13,2.13,0,0,0-1.561-.786,3.023,3.023,0,0,0-2.369.521.657.657,0,0,0-.134.839,2.226,2.226,0,0,0,1.382.767c.262.073.527.136.806.2a8.854,8.854,0,0,1,2.548.9,3.112,3.112,0,0,1,1.7,3.154,3.28,3.28,0,0,1-1.82,2.534,5.124,5.124,0,0,1-1.471.455v.869a1.164,1.164,0,0,1-1.165,1.165Z" transform="translate(-312.115 -104.05)" fill="#ffeb87" fill-rule="evenodd"/>
      <path id="Path_1033124" data-name="Path 1033124" d="M39.814,5.632,44.791,11.9h-2a1.164,1.164,0,0,0-1.164,1.164v10.9H38v-10.9A1.165,1.165,0,0,0,36.834,11.9h-2l4.976-6.273Zm-6.02,8.6h1.875V24.2A2.094,2.094,0,0,0,37.761,26.3h4.106A2.094,2.094,0,0,0,43.959,24.2V14.233h1.875a1.824,1.824,0,0,0,1.429-2.959l-6.02-7.586a1.822,1.822,0,0,0-2.857,0l-6.02,7.586a1.824,1.824,0,0,0,1.429,2.959ZM6.141,19.316a.061.061,0,0,1,.058-.059h25.6a.061.061,0,0,1,.058.059v4.636a.049.049,0,0,1-.044.057L21.875,26.67a1.866,1.866,0,0,0-1.826-1.487h-2.1a1.869,1.869,0,0,0-1.828,1.487L6.184,24.009a.049.049,0,0,1-.044-.057Zm8.111-3.155a1.181,1.181,0,0,1,1.18-1.179h7.13a1.18,1.18,0,0,1,1.179,1.179v.768H14.252v-.768Zm4.156,13.621v-2.27h1.178v2.27ZM30.5,37.792l.009-11.025-8.6,2.3v1.175a1.867,1.867,0,0,1-1.865,1.865h-2.1a1.868,1.868,0,0,1-1.865-1.865V29.07l-8.6-2.3V37.782l23.019.01ZM5.154,26.1a2.353,2.353,0,0,1-1.341-2.146V19.316A2.389,2.389,0,0,1,6.2,16.929h5.724v-.768a3.512,3.512,0,0,1,3.509-3.506h7.13a3.511,3.511,0,0,1,3.507,3.506v.768h5.726a2.389,2.389,0,0,1,2.386,2.387v4.636A2.353,2.353,0,0,1,32.839,26.1V37.782A2.341,2.341,0,0,1,30.5,40.12H7.493a2.341,2.341,0,0,1-2.338-2.338Zm57.621,5.04c.025-.2.061-.5-.565-.864a7.022,7.022,0,0,0-1.907-.641c-.289-.069-.589-.14-.893-.225a4.422,4.422,0,0,1-2.731-1.776,2.978,2.978,0,0,1,.428-3.685,4.391,4.391,0,0,1,2.36-1.169v-.9a1.164,1.164,0,0,1,2.329,0v.9a4.13,4.13,0,0,1,2.973,1.935,1.165,1.165,0,0,1-2.051,1.1,2.129,2.129,0,0,0-1.561-.786,3.023,3.023,0,0,0-2.369.521.657.657,0,0,0-.134.839,2.226,2.226,0,0,0,1.382.767c.262.073.527.136.806.2a8.855,8.855,0,0,1,2.548.9,3.112,3.112,0,0,1,1.7,3.154,3.28,3.28,0,0,1-1.82,2.534,5.124,5.124,0,0,1-1.471.455v.869a1.164,1.164,0,1,1-2.329,0v-.916a4.5,4.5,0,0,1-3.174-2.032,1.165,1.165,0,0,1,2.044-1.118c.48.877,2.7,1.251,3.894.657a.963.963,0,0,0,.545-.732ZM51.842,22.607A11.13,11.13,0,0,0,50.2,28.351a10.43,10.43,0,1,0,20.861,0,11.107,11.107,0,0,0-1.64-5.747,22.916,22.916,0,0,0-4.031-4.859c-.409-.406-.826-.822-1.239-1.25H57.11c-.41.428-.829.845-1.237,1.25a22.878,22.878,0,0,0-4.031,4.86Zm3.742-9.877H65.679a.72.72,0,1,1,0,1.44H55.585a.72.72,0,0,1,0-1.44Zm.23-6.864a1.778,1.778,0,0,1,1.266.872,1.164,1.164,0,0,0,2.14-.3,1.453,1.453,0,0,1,2.823,0,1.165,1.165,0,0,0,2.141.3,1.789,1.789,0,0,1,1.823-.874L63.388,10.4H57.875L55.258,5.864a1.788,1.788,0,0,1,.557,0Zm4.816,35.246A12.773,12.773,0,0,0,73.39,28.356a13.535,13.535,0,0,0-1.951-6.911,24.517,24.517,0,0,0-4.353-5.295,3.044,3.044,0,0,0-1.026-5.723l2.581-4.47a1.165,1.165,0,0,0-.257-1.471,4.121,4.121,0,0,0-4.964-.265,3.787,3.787,0,0,0-5.578,0,4.122,4.122,0,0,0-4.965.265,1.165,1.165,0,0,0-.255,1.471l2.58,4.47a3.045,3.045,0,0,0-1.026,5.723,24.557,24.557,0,0,0-4.352,5.295,13.534,13.534,0,0,0-1.951,6.908A12.773,12.773,0,0,0,60.631,41.112ZM41.895,51.074a2.081,2.081,0,1,1-2.081-2.081A2.084,2.084,0,0,1,41.895,51.074Zm31.1,1.309H47.117l-1.133-2.619H72.991a1.309,1.309,0,1,1,0,2.619ZM51.167,67.612l-8.1-18.719a3.547,3.547,0,0,0-6.513,0l-8.1,18.719ZM54,69.94a2.231,2.231,0,0,1,2.1,1.381L57.386,74.3H22.242l1.287-2.978a2.235,2.235,0,0,1,2.1-1.381ZM6.637,52.383a1.309,1.309,0,0,1,0-2.619H33.644l-1.133,2.619Zm23.844-7.957-.886,2.048a1.554,1.554,0,0,1-1.463.962H9.861A1.554,1.554,0,0,1,8.4,46.475l-.886-2.048H30.481Zm41.634,0-.886,2.049a1.554,1.554,0,0,1-1.463.96H51.5a1.554,1.554,0,0,1-1.464-.962l-.885-2.048Zm1.226,3.027c.008-.019.017-.037.026-.054l1.588-3.676A1.164,1.164,0,0,0,73.887,42.1H47.376a1.163,1.163,0,0,0-1.068,1.626L47.9,47.4c.006.011.012.023.017.037H44.941a5.871,5.871,0,0,0-10.256,0H31.713c.006-.013.012-.025.017-.037l1.589-3.676A1.163,1.163,0,0,0,32.251,42.1H5.741a1.165,1.165,0,0,0-1.069,1.626L6.261,47.4c.009.017.018.035.027.054a3.637,3.637,0,0,0,.349,7.258H31.5l-5.579,12.9h-.293A4.554,4.554,0,0,0,21.394,70.4L19.4,75a1.165,1.165,0,0,0,1.068,1.627H59.158A1.164,1.164,0,0,0,60.227,75l-1.991-4.6A4.558,4.558,0,0,0,54,67.612H53.7l-5.579-12.9H72.991a3.637,3.637,0,0,0,.35-7.258Z" fill-rule="evenodd"/>
    </g>
  </g>
</svg>
