<svg xmlns="http://www.w3.org/2000/svg" width="149.908" height="150" viewBox="0 0 149.908 150">
  <g id="img20" transform="translate(-705.985 -1710.001)">
    <g id="Group_1180300" data-name="Group 1180300" transform="translate(705.936 1710.002)">
      <g id="Grupo_155253" data-name="Grupo 155253" transform="matrix(0.999, 0.035, -0.035, 0.999, 5.061, 0)">
        <path id="Trazado_196478" data-name="Trazado 196478" d="M20.378,22.814q-.452.483-.9.974A75.7,75.7,0,0,0,.051,77.428l30.182-1.084c-.818-24.1,17.45-44.315,40.8-45.157S113.984,49.2,114.8,73.3l30.181-1.084c-1.018-30-19.313-56.469-46.471-67.233A70.928,70.928,0,0,0,20.378,22.822" transform="translate(0 0)" fill="#f9ce5d"/>
        <path id="Trazado_196479" data-name="Trazado 196479" d="M0,5.22c1.4,41.3,34.98,73.608,75,72.166S146.333,41.3,144.933,0L114.75,1.084c.818,24.1-17.451,44.314-40.8,45.156S31,28.229,30.182,4.132Z" transform="translate(0.049 67.594)" fill="#70f5c8"/>
      </g>
      <ellipse id="Ellipse_13685" data-name="Ellipse 13685" cx="58.366" cy="58.462" rx="58.366" ry="58.462" transform="translate(16.722 16.827)" fill="#fff"/>
    </g>
    <g id="Group_1184710" data-name="Group 1184710" transform="translate(744.195 1717.172)">
      <g id="Group_1184708" data-name="Group 1184708" transform="translate(1.076 37.373)">
        <g id="Group_1184707" data-name="Group 1184707">
          <g id="Group_1184697" data-name="Group 1184697" transform="translate(33.835)">
            <g id="Group_1184695" data-name="Group 1184695">
              <path id="Path_1032927" data-name="Path 1032927" d="M259.017,45.517l-15.3,26.5A3.443,3.443,0,0,0,246.7,77.18h30.6a3.443,3.443,0,0,0,2.982-5.165l-15.3-26.5A3.443,3.443,0,0,0,259.017,45.517Z" transform="translate(-243.251 -43.796)" fill="#fedf30"/>
            </g>
            <g id="Group_1184696" data-name="Group 1184696" transform="translate(0.002 0.001)">
              <path id="Path_1032928" data-name="Path 1032928" d="M280.29,72.02l-15.3-26.5a3.442,3.442,0,0,0-5.879-.136l12.567,21.766a3.443,3.443,0,0,1-2.982,5.165h-25.12a3.443,3.443,0,0,0,3.133,4.869h30.6A3.443,3.443,0,0,0,280.29,72.02Z" transform="translate(-243.263 -43.801)" fill="#fed402"/>
            </g>
          </g>
          <g id="Group_1184706" data-name="Group 1184706" transform="translate(0 6.361)">
            <g id="Group_1184698" data-name="Group 1184698" transform="translate(0 22.864)">
              <path id="Path_1032929" data-name="Path 1032929" d="M46.28,277.673v-23.12a7.132,7.132,0,0,0-7.132-7.132H14.632A7.132,7.132,0,0,0,7.5,254.554v23.12a1.435,1.435,0,0,0,1.435,1.435h35.91A1.435,1.435,0,0,0,46.28,277.673Z" transform="translate(-7.5 -247.422)" fill="#c4e2ff"/>
            </g>
            <g id="Group_1184699" data-name="Group 1184699" transform="translate(0 23.001)">
              <path id="Path_1032930" data-name="Path 1032930" d="M40.539,248.374v24.374a1.435,1.435,0,0,1-1.435,1.435H7.5v4.306a1.435,1.435,0,0,0,1.435,1.435h35.91a1.435,1.435,0,0,0,1.435-1.435v-23.12a7.133,7.133,0,0,0-5.741-7Z" transform="translate(-7.5 -248.374)" fill="#b3dafe"/>
            </g>
            <g id="Group_1184700" data-name="Group 1184700" transform="translate(7.84)">
              <circle id="Ellipse_13821" data-name="Ellipse 13821" cx="11.432" cy="11.432" r="11.432" fill="#d78878"/>
            </g>
            <g id="Group_1184701" data-name="Group 1184701" transform="translate(11.497 0.184)">
              <path id="Path_1032931" data-name="Path 1032931" d="M97.414,89.4a11.427,11.427,0,0,1-9.81,19.625A11.431,11.431,0,1,0,97.414,89.4Z" transform="translate(-87.604 -89.398)" fill="#c96e59"/>
            </g>
            <g id="Group_1184705" data-name="Group 1184705" transform="translate(14.054 22.864)">
              <g id="Group_1184702" data-name="Group 1184702" transform="translate(0 6.79)">
                <path id="Path_1032932" data-name="Path 1032932" d="M116.044,319.63l-3.12-24.693-.288-.2H108.99l-.288.2-3.276,24.693Z" transform="translate(-105.426 -294.733)" fill="#0593fc"/>
              </g>
              <g id="Group_1184703" data-name="Group 1184703" transform="translate(0 25.946)">
                <path id="Path_1032933" data-name="Path 1032933" d="M106.188,428.2l-.762,5.741h10.618l-.725-5.741Z" transform="translate(-105.426 -428.203)" fill="#0182fc"/>
              </g>
              <g id="Group_1184704" data-name="Group 1184704" transform="translate(0.74)">
                <path id="Path_1032934" data-name="Path 1032934" d="M110.584,247.422l2.535,6.994h4.222l2.433-6.974Z" transform="translate(-110.584 -247.422)" fill="#0182fc"/>
              </g>
            </g>
          </g>
        </g>
      </g>
      <g id="Group_1184709" data-name="Group 1184709" transform="translate(0 36.297)">
        <path id="Path_1032935" data-name="Path 1032935" d="M315.1,301.777a1.076,1.076,0,0,0-1.512.179l-2.75,3.487-1.682-1.6a1.076,1.076,0,0,0-1.482,1.562l2.537,2.407a1.076,1.076,0,0,0,.741.3l.078,0a1.076,1.076,0,0,0,.768-.407l3.48-4.413A1.076,1.076,0,0,0,315.1,301.777Z" transform="translate(-263.228 -263.477)"/>
        <path id="Path_1032936" data-name="Path 1032936" d="M403.278,316.918H388.847a1.076,1.076,0,1,0,0,2.153h14.431a1.076,1.076,0,1,0,0-2.153Z" transform="translate(-332.118 -276.643)"/>
        <path id="Path_1032937" data-name="Path 1032937" d="M315.1,363.833a1.076,1.076,0,0,0-1.512.179l-2.75,3.487-1.682-1.6a1.076,1.076,0,0,0-1.482,1.562l2.537,2.407a1.076,1.076,0,0,0,.741.3l.078,0a1.076,1.076,0,0,0,.768-.407l3.48-4.413A1.076,1.076,0,0,0,315.1,363.833Z" transform="translate(-263.228 -316.627)"/>
        <path id="Path_1032938" data-name="Path 1032938" d="M403.278,378.976H388.847a1.076,1.076,0,1,0,0,2.153h14.431a1.076,1.076,0,1,0,0-2.153Z" transform="translate(-332.118 -329.795)"/>
        <path id="Path_1032939" data-name="Path 1032939" d="M315.1,425.891a1.076,1.076,0,0,0-1.512.179l-2.75,3.487-1.682-1.6a1.076,1.076,0,0,0-1.482,1.562l2.537,2.407a1.076,1.076,0,0,0,.741.3l.078,0a1.076,1.076,0,0,0,.768-.407l3.48-4.413A1.076,1.076,0,0,0,315.1,425.891Z" transform="translate(-263.228 -369.778)"/>
        <path id="Path_1032940" data-name="Path 1032940" d="M403.278,441.034H388.847a1.076,1.076,0,0,0,0,2.153h14.431a1.076,1.076,0,0,0,0-2.153Z" transform="translate(-332.118 -382.946)"/>
        <path id="Path_1032941" data-name="Path 1032941" d="M367.452,117.189a1.076,1.076,0,0,0,1.076-1.076v-8.483a1.076,1.076,0,1,0-2.153,0v8.483A1.076,1.076,0,0,0,367.452,117.189Z" transform="translate(-313.794 -96.47)"/>
        <path id="Path_1032942" data-name="Path 1032942" d="M366.376,210.822a1.076,1.076,0,1,0,2.153,0v-1.184a1.076,1.076,0,1,0-2.153,0Z" transform="translate(-313.794 -183.838)"/>
        <path id="Path_1032943" data-name="Path 1032943" d="M72.87,65.055l-15.3-26.5a4.52,4.52,0,0,0-7.828,0L43.957,48.578a1.076,1.076,0,0,0,1.864,1.076l5.786-10.021a2.367,2.367,0,0,1,4.1,0l15.3,26.5a2.367,2.367,0,0,1-2.05,3.55H39.861a8.261,8.261,0,0,0-3.64-3.376c.028-.058.056-.117.089-.174l7-12.127a1.076,1.076,0,1,0-1.864-1.076l-7,12.127a4.651,4.651,0,0,0-.288.594,8.217,8.217,0,0,0-1.433-.128H27.357a12.508,12.508,0,1,0-14.017,0H8.208A8.218,8.218,0,0,0,0,73.73v2.317a1.076,1.076,0,0,0,2.153,0V73.73a6.062,6.062,0,0,1,6.055-6.055h6.908L17.3,73.711l-3.117,23.5H2.512a.359.359,0,0,1-.359-.359V81.07A1.076,1.076,0,0,0,0,81.07V96.849a2.515,2.515,0,0,0,2.512,2.512h35.91a2.515,2.515,0,0,0,2.512-2.512V73.729a8.2,8.2,0,0,0-.223-1.895H68.956a4.52,4.52,0,0,0,3.914-6.779ZM9.993,55.166A10.355,10.355,0,1,1,20.348,65.521,10.367,10.367,0,0,1,9.993,55.166Zm7.414,12.512,6.14.013-1.683,4.825h-2.7ZM38.78,96.849a.359.359,0,0,1-.359.359H26.7l-1.2-9.47a1.076,1.076,0,1,0-2.136.27l1.162,9.2H16.359l2.99-22.54h2.33l1.055,8.35a1.076,1.076,0,1,0,2.136-.27l-1.142-9.041,2.1-6.033h6.892A6.062,6.062,0,0,1,38.78,73.73Z" transform="translate(0 -36.297)"/>
      </g>
    </g>
  </g>
</svg>
