<svg xmlns="http://www.w3.org/2000/svg" xmlns:xlink="http://www.w3.org/1999/xlink" width="83.949" height="84" viewBox="0 0 83.949 84">
  <defs>
    <clipPath id="clip-path">
      <rect id="Rectangle_458706" data-name="Rectangle 458706" width="37.525" height="44.691" fill="none"/>
    </clipPath>
  </defs>
  <g id="img32" transform="translate(-705.963 -1710.002)">
    <g id="Group_1180300" data-name="Group 1180300" transform="translate(705.936 1710.002)">
      <g id="Grupo_155253" data-name="Grupo 155253" transform="matrix(0.999, 0.035, -0.035, 0.999, 2.834, 0)">
        <path id="Trazado_196478" data-name="Trazado 196478" d="M11.411,12.776q-.253.27-.5.545A42.391,42.391,0,0,0,.029,43.36l16.9-.607c-.458-13.495,9.772-24.816,22.85-25.288S63.831,27.551,64.289,41.046l16.9-.607A41.841,41.841,0,0,0,55.167,2.788,39.72,39.72,0,0,0,11.411,12.78" transform="translate(0 0)" fill="#f9ce5d"/>
        <path id="Trazado_196479" data-name="Trazado 196479" d="M0,2.923C.784,26.05,19.589,44.144,42,43.336S81.947,23.127,81.162,0L64.26.607c.458,13.495-9.772,24.816-22.85,25.287S17.36,15.809,16.9,2.314Z" transform="translate(0.027 37.853)" fill="#ff9e74"/>
      </g>
      <ellipse id="Ellipse_13685" data-name="Ellipse 13685" cx="32.685" cy="32.739" rx="32.685" ry="32.739" transform="translate(9.364 9.423)" fill="#fff"/>
    </g>
    <g id="Group_1183520" data-name="Group 1183520" transform="translate(729.174 1729.656)">
      <g id="Group_1183519" data-name="Group 1183519" transform="translate(0 0)" clip-path="url(#clip-path)">
        <path id="Path_1029318" data-name="Path 1029318" d="M18.078,7.6H29.415a1.339,1.339,0,0,0,1.339-1.339V4.137A1.339,1.339,0,0,0,29.415,2.8h-2.1a3.67,3.67,0,0,0-7.129,0h-2.1a1.339,1.339,0,0,0-1.339,1.339V6.261A1.339,1.339,0,0,0,18.078,7.6m5.669-5.432a1.515,1.515,0,1,1-1.515,1.515,1.514,1.514,0,0,1,1.515-1.515" transform="translate(-9.77 0)" fill="#203a72"/>
        <path id="Path_1029319" data-name="Path 1029319" d="M27.952,33.479V14.7a3.341,3.341,0,0,0-3.334-3.334H22.951V12.9A3.3,3.3,0,0,1,19.646,16.2H8.306A3.311,3.311,0,0,1,5,12.9V11.37H3.333A3.341,3.341,0,0,0,0,14.7V40.98a3.341,3.341,0,0,0,3.333,3.333H19.608a8.644,8.644,0,0,1-.056-.983,9.991,9.991,0,0,1,8.4-9.851M13.316,22.242H22.3a.983.983,0,0,1,0,1.967h-8.98a.983.983,0,1,1,0-1.967m0,7.257H22.3a.983.983,0,0,1,0,1.967h-8.98a.983.983,0,1,1,0-1.967m-2.538,6.358L7.9,39.06a1,1,0,0,1-1.461,0L4.925,37.365a.985.985,0,1,1,1.461-1.321l.786.881,2.144-2.388a.985.985,0,0,1,1.461,1.32m0-7.257L7.9,31.8a.978.978,0,0,1-1.461,0L4.925,30.108A.982.982,0,0,1,6.386,28.8l.786.881,2.144-2.388A.981.981,0,0,1,10.778,28.6m0-7.257L7.9,24.546a.978.978,0,0,1-1.461,0l-1.517-1.7a.981.981,0,0,1,1.461-1.311l.786.881,2.144-2.388a.981.981,0,0,1,1.461,1.311M16.7,38.723h-3.38a.983.983,0,1,1,0-1.966H16.7a.983.983,0,0,1,0,1.966" transform="translate(0 -6.636)" fill="#203a72"/>
        <path id="Path_1029320" data-name="Path 1029320" d="M59.7,68.909a8,8,0,1,0,8,8,8.01,8.01,0,0,0-8-8m3.279,8.984H59.7a.983.983,0,0,1-.983-.983V72.52a.983.983,0,0,1,1.966,0v3.407h2.3a.983.983,0,0,1,0,1.966" transform="translate(-30.175 -40.221)" fill="#14a0de"/>
      </g>
    </g>
  </g>
</svg>
