<svg xmlns="http://www.w3.org/2000/svg" xmlns:xlink="http://www.w3.org/1999/xlink" width="159.902" height="160" viewBox="0 0 159.902 160">
  <defs>
    <clipPath id="clip-path">
      <rect id="Rectangle_458695" data-name="Rectangle 458695" width="76.313" height="72.266" fill="none"/>
    </clipPath>
  </defs>
  <g id="img34" transform="translate(-705.989 -1710.002)">
    <g id="Group_1180300" data-name="Group 1180300" transform="translate(705.937 1710.002)">
      <g id="Grupo_155253" data-name="Grupo 155253" transform="matrix(0.999, 0.035, -0.035, 0.999, 5.399, 0)">
        <path id="Trazado_196478" data-name="Trazado 196478" d="M21.736,24.335q-.482.515-.955,1.039A80.745,80.745,0,0,0,.055,82.589l32.194-1.156c-.873-25.7,18.614-47.269,43.524-48.167s45.811,19.211,46.683,44.915l32.194-1.156c-1.086-32-20.6-60.234-49.569-71.716S43.3,1.322,21.736,24.344" transform="translate(0 0)" fill="#ff9e74"/>
        <path id="Trazado_196479" data-name="Trazado 196479" d="M0,5.568C1.493,49.619,37.312,84.083,80,82.545S156.089,44.051,154.595,0L122.4,1.156c.872,25.7-18.614,47.269-43.524,48.166S33.066,30.111,32.194,4.408Z" transform="translate(0.052 72.101)" fill="#70f5c8"/>
      </g>
      <ellipse id="Ellipse_13685" data-name="Ellipse 13685" cx="62.257" cy="62.359" rx="62.257" ry="62.359" transform="translate(17.837 17.949)" fill="#fff"/>
    </g>
    <g id="Group_1183497" data-name="Group 1183497" transform="translate(747.937 1753.869)">
      <rect id="Rectangle_458693" data-name="Rectangle 458693" width="5.366" height="11.274" transform="translate(15.363 59.097)" fill="#203a72"/>
      <rect id="Rectangle_458694" data-name="Rectangle 458694" width="5.366" height="11.274" transform="translate(23.981 59.097)" fill="#203a72"/>
      <g id="Group_1183496" data-name="Group 1183496">
        <g id="Group_1183495" data-name="Group 1183495" clip-path="url(#clip-path)">
          <path id="Path_1029260" data-name="Path 1029260" d="M44.7,1.619a1.628,1.628,0,0,0-2-1.576L1.252,9.8A1.631,1.631,0,0,0,0,11.373V68.967a1.4,1.4,0,0,0,1.4,1.4H12.11V57.474a1.631,1.631,0,0,1,1.626-1.625H30.967a1.62,1.62,0,0,1,1.625,1.625V70.365H43.907c-3.463-3.283-5.348-8.047-5.348-13.98,0-5.657,2.65-11.412,6.145-16.044ZM33.779,50.029H10.94a1.625,1.625,0,1,1,0-3.251H33.779a1.625,1.625,0,1,1,0,3.251m0-9.574H10.94a1.626,1.626,0,0,1,0-3.252H33.779a1.626,1.626,0,0,1,0,3.252m0-9.575H10.94a1.626,1.626,0,0,1,0-3.252H33.779a1.626,1.626,0,0,1,0,3.252m0-9.575H10.94a1.625,1.625,0,0,1,0-3.251H33.779a1.625,1.625,0,0,1,0,3.251" transform="translate(0 0)" fill="#203a72"/>
          <path id="Path_1029261" data-name="Path 1029261" d="M85.539,48.627C87.185,45.219,89,41.1,89,39.5c0-2.014-2.523-3.068-4.059-.927-2,2.794-2.858-1.265-5.172-1.26-2.28.005-3.476,3.758-5.258,1.243a2.337,2.337,0,0,0-4.373.881c0,2.176,1.737,6.1,3.358,9.294-5.591,4.379-11.161,12.543-11.161,19.952,0,10.772,7.027,15.872,17.255,15.872s17.256-5.1,17.256-15.872c0-7.477-5.69-15.715-11.311-20.06m-6.78,15.761h1.674a5.939,5.939,0,0,1,5.9,6.523,6.027,6.027,0,0,1-4.917,5.209V78.5a.487.487,0,0,1-.487.487H78.257a.486.486,0,0,1-.486-.487v-2.34a5.933,5.933,0,0,1-4.923-5.32.488.488,0,0,1,.493-.516h2.691a.468.468,0,0,1,.472.368A2.29,2.29,0,0,0,78.759,72.6H80.3a2.376,2.376,0,0,0,2.382-1.9,2.285,2.285,0,0,0-2.252-2.666H79.025a6.115,6.115,0,0,1-6.17-5.338,5.935,5.935,0,0,1,4.917-6.437V53.93a.487.487,0,0,1,.486-.489h2.675a.487.487,0,0,1,.487.489v2.335a5.935,5.935,0,0,1,4.923,5.322.49.49,0,0,1-.493.518H83.16a.47.47,0,0,1-.473-.369,2.289,2.289,0,0,0-2.254-1.916H78.889a2.376,2.376,0,0,0-2.382,1.9,2.288,2.288,0,0,0,2.252,2.672" transform="translate(-20.537 -12.294)" fill="#14a0de"/>
        </g>
      </g>
    </g>
  </g>
</svg>
