<svg xmlns="http://www.w3.org/2000/svg" width="127.921" height="128" viewBox="0 0 127.921 128">
  <g id="img44" transform="translate(-705.979 -1710.002)">
    <g id="Group_1180300" data-name="Group 1180300" transform="translate(705.936 1710.002)">
      <g id="Grupo_155253" data-name="Grupo 155253" transform="matrix(0.999, 0.035, -0.035, 0.999, 4.319, 0)">
        <path id="Trazado_196478" data-name="Trazado 196478" d="M17.389,19.468q-.386.412-.764.831A64.6,64.6,0,0,0,.044,66.072L25.8,65.147C25.1,44.584,40.69,27.331,60.618,26.613S97.267,41.982,97.965,62.546l25.755-.925c-.869-25.6-16.481-48.187-39.655-57.372A60.525,60.525,0,0,0,17.389,19.475" transform="translate(0 0)" fill="#f9ce5d"/>
        <path id="Trazado_196479" data-name="Trazado 196479" d="M0,4.454C1.195,39.7,29.849,67.266,64,66.036S124.871,35.241,123.676,0L97.92.925c.7,20.563-14.891,37.815-34.819,38.533S26.453,24.089,25.755,3.526Z" transform="translate(0.042 57.68)" fill="#70f5c8"/>
      </g>
      <ellipse id="Ellipse_13685" data-name="Ellipse 13685" cx="49.806" cy="49.887" rx="49.806" ry="49.887" transform="translate(14.269 14.359)" fill="#fff"/>
    </g>
    <g id="Group_1184567" data-name="Group 1184567" transform="translate(737.99 1742.059)">
      <path id="Path_1032506" data-name="Path 1032506" d="M24.535,444.987H7.617a8.46,8.46,0,0,1,8.458-8.46,8.592,8.592,0,0,1,1.837.2l.085.019a8.464,8.464,0,0,1,6.538,8.241Zm0,0" transform="translate(-6.667 -382.052)" fill="#26a7bc"/>
      <path id="Path_1032507" data-name="Path 1032507" d="M50.306,446.389H37.062a8.463,8.463,0,0,1,6.621-8.26l.085.019a8.464,8.464,0,0,1,6.538,8.241Zm0,0" transform="translate(-32.437 -383.454)" fill="#84d2e4"/>
      <path id="Path_1032508" data-name="Path 1032508" d="M24.536,294.647v5.761a8.459,8.459,0,0,1-16.919,0v-5.761a8.459,8.459,0,0,1,16.919,0Zm0,0" transform="translate(-6.667 -250.474)" fill="#c99061"/>
      <path id="Path_1032509" data-name="Path 1032509" d="M17.534,308.742a8.466,8.466,0,0,1-9.917-8.335v-5.76a8.466,8.466,0,0,1,9.917-8.335,8.461,8.461,0,0,0-7,8.335v5.76A8.461,8.461,0,0,0,17.534,308.742Zm0,0" transform="translate(-6.667 -250.474)" fill="#ad7449"/>
      <path id="Path_1032510" data-name="Path 1032510" d="M24.536,294.644v1.249c-10.015-.012-13.344-4.108-13.344-4.108,0,1.7-1.7,3.5-3.575,4.108v-1.249a8.459,8.459,0,0,1,16.919,0Zm0,0" transform="translate(-6.666 -250.471)" fill="#585e68"/>
      <path id="Path_1032511" data-name="Path 1032511" d="M17.534,286.309a8.463,8.463,0,0,0-6.94,7.3,5.815,5.815,0,0,1-2.977,2.286v-1.248a8.468,8.468,0,0,1,9.913-8.336h0Zm0,0" transform="translate(-6.667 -250.47)" fill="#2f353f"/>
      <path id="Path_1032512" data-name="Path 1032512" d="M205.13,444.987H188.211a8.46,8.46,0,0,1,8.459-8.46,8.591,8.591,0,0,1,1.837.2l.085.019a8.466,8.466,0,0,1,6.538,8.241Zm0,0" transform="translate(-164.724 -382.052)" fill="#4a9453"/>
      <path id="Path_1032513" data-name="Path 1032513" d="M230.9,446.389H217.656a8.463,8.463,0,0,1,6.621-8.26l.085.019a8.466,8.466,0,0,1,6.538,8.241Zm0,0" transform="translate(-190.495 -383.454)" fill="#74bd95"/>
      <path id="Path_1032514" data-name="Path 1032514" d="M205.13,294.647v5.761a8.459,8.459,0,0,1-16.919,0v-5.761a8.459,8.459,0,0,1,16.919,0Zm0,0" transform="translate(-164.724 -250.474)" fill="#ffd0a6"/>
      <path id="Path_1032515" data-name="Path 1032515" d="M198.128,308.742a8.466,8.466,0,0,1-9.917-8.335v-5.76a8.466,8.466,0,0,1,9.917-8.335,8.461,8.461,0,0,0-7,8.335v5.76A8.461,8.461,0,0,0,198.128,308.742Zm0,0" transform="translate(-164.725 -250.474)" fill="#e8b185"/>
      <path id="Path_1032516" data-name="Path 1032516" d="M205.13,294.644v1.249c-10.015-.012-13.344-4.108-13.344-4.108,0,1.7-1.7,3.5-3.575,4.108v-1.249a8.46,8.46,0,0,1,16.919,0Zm0,0" transform="translate(-164.724 -250.471)" fill="#ffe261"/>
      <path id="Path_1032517" data-name="Path 1032517" d="M198.128,286.309a8.463,8.463,0,0,0-6.94,7.3,5.815,5.815,0,0,1-2.977,2.286v-1.248a8.468,8.468,0,0,1,9.913-8.336,0,0,0,0,1,0,0Zm0,0" transform="translate(-164.724 -250.47)" fill="#f2a918"/>
      <path id="Path_1032518" data-name="Path 1032518" d="M385.724,444.987H368.8a8.46,8.46,0,0,1,8.459-8.46,8.6,8.6,0,0,1,1.837.2l.085.019a8.466,8.466,0,0,1,6.538,8.241Zm0,0" transform="translate(-322.782 -382.052)" fill="#cc0b4b"/>
      <path id="Path_1032519" data-name="Path 1032519" d="M411.494,446.389H398.25a8.463,8.463,0,0,1,6.622-8.26l.085.019a8.466,8.466,0,0,1,6.538,8.241Zm0,0" transform="translate(-348.552 -383.454)" fill="#ea4455"/>
      <path id="Path_1032520" data-name="Path 1032520" d="M385.724,294.647v5.761a8.46,8.46,0,0,1-16.919,0v-5.761a8.46,8.46,0,0,1,16.919,0Zm0,0" transform="translate(-322.782 -250.474)" fill="#ffd0a6"/>
      <path id="Path_1032521" data-name="Path 1032521" d="M378.722,308.742a8.466,8.466,0,0,1-9.917-8.335v-5.76a8.466,8.466,0,0,1,9.917-8.335,8.461,8.461,0,0,0-7,8.335v5.76a8.461,8.461,0,0,0,7,8.335Zm0,0" transform="translate(-322.781 -250.474)" fill="#e8b185"/>
      <path id="Path_1032522" data-name="Path 1032522" d="M385.724,294.644v1.249c-10.015-.012-13.344-4.108-13.344-4.108,0,1.7-1.7,3.5-3.575,4.108v-1.249a8.46,8.46,0,0,1,16.919,0Zm0,0" transform="translate(-322.781 -250.471)" fill="#87604d"/>
      <path id="Path_1032523" data-name="Path 1032523" d="M378.722,286.309a8.463,8.463,0,0,0-6.94,7.3,5.816,5.816,0,0,1-2.978,2.286v-1.248a8.468,8.468,0,0,1,9.914-8.336Zm0,0" transform="translate(-322.781 -250.47)" fill="#59352c"/>
      <path id="Path_1032524" data-name="Path 1032524" d="M101.563,7.617h38.516V32.144H101.563Zm0,0" transform="translate(-88.889 -6.666)" fill="#74bd95"/>
      <g id="Group_1184566" data-name="Group 1184566" transform="translate(15.045 3.322)">
        <path id="Path_1032525" data-name="Path 1032525" d="M163.715,43.04v8.806a3.93,3.93,0,0,0-3.93,3.93h-22.8a3.931,3.931,0,0,0-3.93-3.93V43.04a3.931,3.931,0,0,0,3.93-3.93h22.8A3.93,3.93,0,0,0,163.715,43.04Zm0,0" transform="translate(-131.5 -37.55)" fill="#4a9453"/>
        <path id="Path_1032526" data-name="Path 1032526" d="M369.341,28.176a1.559,1.559,0,1,1-1.559-1.559A1.559,1.559,0,0,1,369.341,28.176Zm0,0" transform="translate(-335.567 -26.617)" fill="#4a9453"/>
        <path id="Path_1032527" data-name="Path 1032527" d="M369.341,161.735a1.559,1.559,0,1,1-1.559-1.559A1.559,1.559,0,0,1,369.341,161.735Zm0,0" transform="translate(-335.567 -143.509)" fill="#4a9453"/>
        <path id="Path_1032528" data-name="Path 1032528" d="M123.684,161.735a1.559,1.559,0,1,1-1.559-1.559A1.559,1.559,0,0,1,123.684,161.735Zm0,0" transform="translate(-120.567 -143.509)" fill="#4a9453"/>
        <path id="Path_1032529" data-name="Path 1032529" d="M123.684,28.176a1.559,1.559,0,1,1-1.559-1.559A1.559,1.559,0,0,1,123.684,28.176Zm0,0" transform="translate(-120.567 -26.617)" fill="#4a9453"/>
      </g>
      <path id="Path_1032530" data-name="Path 1032530" d="M205.776,47.443a8.333,8.333,0,1,1-8.333-8.334,8.333,8.333,0,0,1,8.333,8.334Zm0,0" transform="translate(-165.511 -34.229)" fill="#74bd95"/>
      <path id="Path_1032531" data-name="Path 1032531" d="M54.065,411.623a2.346,2.346,0,0,1-3.313,0,.95.95,0,1,0-1.344,1.344,4.244,4.244,0,0,0,6,0,.95.95,0,1,0-1.344-1.344Zm0,0" transform="translate(-42.999 -360.012)"/>
      <path id="Path_1032532" data-name="Path 1032532" d="M40.158,374.357v-2.079a.95.95,0,1,0-1.9,0v2.079a.95.95,0,1,0,1.9,0Zm0,0" transform="translate(-33.484 -324.989)"/>
      <path id="Path_1032533" data-name="Path 1032533" d="M98.275,371.328a.95.95,0,0,0-.95.951v2.079a.95.95,0,1,0,1.9,0v-2.079A.951.951,0,0,0,98.275,371.328Zm0,0" transform="translate(-85.18 -324.989)"/>
      <path id="Path_1032534" data-name="Path 1032534" d="M234.66,411.623a2.346,2.346,0,0,1-3.313,0A.95.95,0,1,0,230,412.967a4.243,4.243,0,0,0,6,0,.95.95,0,1,0-1.344-1.344Zm0,0" transform="translate(-201.057 -360.012)"/>
      <path id="Path_1032535" data-name="Path 1032535" d="M220.756,374.357v-2.079a.95.95,0,1,0-1.9,0v2.079a.95.95,0,1,0,1.9,0Zm0,0" transform="translate(-191.545 -324.989)"/>
      <path id="Path_1032536" data-name="Path 1032536" d="M278.868,371.328a.951.951,0,0,0-.951.951v2.079a.95.95,0,1,0,1.9,0v-2.079A.95.95,0,0,0,278.868,371.328Zm0,0" transform="translate(-243.237 -324.989)"/>
      <path id="Path_1032537" data-name="Path 1032537" d="M415.257,411.623a2.345,2.345,0,0,1-3.313,0,.95.95,0,1,0-1.344,1.344,4.243,4.243,0,0,0,6,0,.95.95,0,1,0-1.344-1.344Zm0,0" transform="translate(-359.117 -360.012)"/>
      <path id="Path_1032538" data-name="Path 1032538" d="M63.893,44.173a9.414,9.414,0,0,0-7.623-9.24c-.267-.051-.537-.09-.809-.118V31.387a.951.951,0,0,0-.951-.951H32.9V26.428H51.19a.95.95,0,0,0,.951-.95V.951A.951.951,0,0,0,51.19,0H21.925a.95.95,0,1,0,0,1.9H50.24V24.527H13.624V1.9h4.5a.95.95,0,0,0,0-1.9h-5.45a.95.95,0,0,0-.95.951V25.478a.95.95,0,0,0,.95.95H31v4.008H9.382a.95.95,0,0,0-.95.951v3.427A9.423,9.423,0,0,0,0,44.173v5.761a9.374,9.374,0,0,0,2.611,6.5A9.382,9.382,0,0,0,0,62.935a.95.95,0,0,0,.95.95H17.869a.95.95,0,0,0,.951-.95,9.348,9.348,0,0,0-2.61-6.5,9.407,9.407,0,0,0,2.61-6.5V44.173a9.414,9.414,0,0,0-7.623-9.24c-.284-.055-.573-.1-.864-.124V32.337H31v2.474a9.423,9.423,0,0,0-8.459,9.362v5.761a9.374,9.374,0,0,0,2.611,6.5,9.382,9.382,0,0,0-2.611,6.505.95.95,0,0,0,.95.951H40.406a.95.95,0,0,0,.95-.951,9.346,9.346,0,0,0-2.61-6.5,9.406,9.406,0,0,0,2.61-6.5V44.173a9.414,9.414,0,0,0-7.623-9.24c-.276-.053-.555-.093-.836-.121V32.338H53.56v2.471a9.423,9.423,0,0,0-8.487,9.364v5.761a9.372,9.372,0,0,0,2.611,6.495,9.38,9.38,0,0,0-2.612,6.505.951.951,0,0,0,.951.951H56.615a.95.95,0,1,0,0-1.9H47.033a7.482,7.482,0,0,1,2.1-4.316,9.356,9.356,0,0,0,5.351,1.675,9.5,9.5,0,0,0,1.787-.169,9.342,9.342,0,0,0,3.568-1.5,7.457,7.457,0,0,1,2.1,4.314H60.416a.95.95,0,1,0,0,1.9h2.526a.95.95,0,0,0,.95-.951,9.345,9.345,0,0,0-2.609-6.5,9.408,9.408,0,0,0,2.61-6.5ZM1.96,61.985a7.481,7.481,0,0,1,2.1-4.317,9.354,9.354,0,0,0,5.351,1.676,9.5,9.5,0,0,0,1.787-.169,9.335,9.335,0,0,0,3.568-1.5,7.454,7.454,0,0,1,2.1,4.314Zm8.876-4.677A7.518,7.518,0,0,1,1.9,49.934V46.066a6.645,6.645,0,0,0,3.166-3.017c1.733,1.26,5.378,3.133,11.853,3.31v3.577a7.514,7.514,0,0,1-6.082,7.373Zm3.883-18.445a7.463,7.463,0,0,1,2.2,5.31v.284C8.3,44.206,5.288,40.744,5.262,40.714a.95.95,0,0,0-1.688.6,3.592,3.592,0,0,1-1.667,2.562,7.506,7.506,0,0,1,12.811-5.013ZM24.5,61.985a7.482,7.482,0,0,1,2.1-4.317,9.353,9.353,0,0,0,5.351,1.676,9.453,9.453,0,0,0,1.786-.17,9.34,9.34,0,0,0,3.568-1.5,7.457,7.457,0,0,1,2.1,4.314Zm8.876-4.677a7.518,7.518,0,0,1-8.936-7.374V46.065A6.648,6.648,0,0,0,27.6,43.048c1.732,1.26,5.378,3.133,11.853,3.309v3.577a7.514,7.514,0,0,1-6.083,7.374Zm3.883-18.445a7.464,7.464,0,0,1,2.2,5.31v.284c-8.617-.251-11.631-3.713-11.656-3.743a.95.95,0,0,0-1.688.6,3.592,3.592,0,0,1-1.667,2.562,7.507,7.507,0,0,1,12.812-5.013Zm17.226-2.2a7.486,7.486,0,0,1,5.31,2.2,7.462,7.462,0,0,1,2.2,5.31v.284c-8.617-.251-11.63-3.713-11.656-3.743a.95.95,0,0,0-1.688.6,3.593,3.593,0,0,1-1.667,2.562,7.518,7.518,0,0,1,7.5-7.212ZM55.91,57.308a7.518,7.518,0,0,1-8.936-7.374V46.065a6.647,6.647,0,0,0,3.166-3.017c1.733,1.26,5.378,3.133,11.853,3.309v3.577a7.514,7.514,0,0,1-6.082,7.374Zm0,0"/>
      <path id="Path_1032539" data-name="Path 1032539" d="M401.35,374.357v-2.079a.95.95,0,1,0-1.9,0v2.079a.95.95,0,1,0,1.9,0Zm0,0" transform="translate(-349.602 -324.989)"/>
      <path id="Path_1032540" data-name="Path 1032540" d="M459.466,371.328a.95.95,0,0,0-.95.951v2.079a.95.95,0,1,0,1.9,0v-2.079A.95.95,0,0,0,459.466,371.328Zm0,0" transform="translate(-401.297 -324.989)"/>
      <path id="Path_1032541" data-name="Path 1032541" d="M126.4,35.427a.95.95,0,0,0-.95.95v8.806a.95.95,0,0,0,.95.951,2.983,2.983,0,0,1,2.98,2.98.95.95,0,0,0,.95.95h22.8a.95.95,0,0,0,.95-.95,2.983,2.983,0,0,1,2.98-2.98.951.951,0,0,0,.951-.951V36.377a.95.95,0,0,0-.951-.95,2.983,2.983,0,0,1-2.98-2.98.95.95,0,0,0-.95-.95h-22.8a.95.95,0,0,0-.951.95,2.983,2.983,0,0,1-2.98,2.98Zm7.945,5.353a7.383,7.383,0,1,1,7.383,7.383A7.391,7.391,0,0,1,134.341,40.78ZM152.265,33.4a4.895,4.895,0,0,0,3.837,3.837v7.091a4.895,4.895,0,0,0-3.837,3.838h-4.921a9.271,9.271,0,0,0,0-14.766Zm-21.081,0H136.1a9.27,9.27,0,0,0,0,14.766h-4.921a4.9,4.9,0,0,0-3.837-3.838V37.234a4.9,4.9,0,0,0,3.837-3.837Zm0,0" transform="translate(-109.792 -27.566)"/>
      <path id="Path_1032542" data-name="Path 1032542" d="M238.487,70.323V68.489a2.268,2.268,0,0,1,.594.219.948.948,0,0,0,.419.137c.425,0,.659-.472.659-.8,0-.594-.863-.873-1.672-.942v-.358a.586.586,0,1,0-1.173,0v.4a2.087,2.087,0,0,0-1.939,2.137c0,1.429,1.083,1.883,1.939,2.192v2.17a2.015,2.015,0,0,1-.914-.5.869.869,0,0,0-.536-.284.8.8,0,0,0-.681.8c0,.611.866,1.323,2.131,1.434v.4a.586.586,0,0,0,1.173,0v-.462a2.222,2.222,0,0,0,1.864-2.342A2.41,2.41,0,0,0,238.487,70.323Zm.418,2.48a.768.768,0,0,1-.418.747V72A.894.894,0,0,1,238.9,72.8Zm-2.083-3.625a.613.613,0,0,1,.492-.625v1.318A.727.727,0,0,1,236.822,69.178Zm0,0" transform="translate(-205.835 -57.904)"/>
      <path id="Path_1032543" data-name="Path 1032543" d="M372.84,165.563a.95.95,0,1,0-.174,1.25A.958.958,0,0,0,372.84,165.563Zm0,0" transform="translate(-324.789 -144.543)"/>
      <path id="Path_1032544" data-name="Path 1032544" d="M126.773,165.136a.95.95,0,1,0,.576,1.014A.959.959,0,0,0,126.773,165.136Zm0,0" transform="translate(-109.805 -144.465)"/>
      <path id="Path_1032545" data-name="Path 1032545" d="M371.3,33a.951.951,0,1,0,.176-1.252A.961.961,0,0,0,371.3,33Zm0,0" transform="translate(-324.828 -27.588)"/>
      <path id="Path_1032546" data-name="Path 1032546" d="M125.541,32.835a.95.95,0,1,0,.369-1.166.96.96,0,0,0-.369,1.166Zm0,0" transform="translate(-109.814 -27.591)"/>
    </g>
  </g>
</svg>
