<svg xmlns="http://www.w3.org/2000/svg" width="90" height="90" viewBox="0 0 90 90">
  <g id="img49" transform="translate(-338.711 -12699)">
    <circle id="Ellipse_13756" data-name="Ellipse 13756" cx="45" cy="45" r="45" transform="translate(338.711 12699)" fill="#fff"/>
    <g id="layer1" transform="translate(345.873 12715.848)">
      <g id="g1042" transform="translate(21.098 0)">
        <path id="path950" d="M227.622-21.447a5.682,5.682,0,0,0-5.682,5.682,5.682,5.682,0,0,0,5.682,5.682h15.341V-.424H227.622a5.682,5.682,0,1,0,0,11.364h15.341V20.6H227.622a5.682,5.682,0,1,0,0,11.364h21.023a5.682,5.682,0,0,0,5.682-5.681V5.3q0-.021,0-.042V-15.765a5.682,5.682,0,0,0-5.681-5.682Z" transform="translate(-220.993 22.394)" fill="#ea696a"/>
        <path id="path1035-3" d="M270.485,71.821a1.894,1.894,0,0,0-1.827,1.4,2.125,2.125,0,0,1-1.679.923h-5.4a1.894,1.894,0,0,0,0,3.788h5.4a5.291,5.291,0,0,0,5.337-3.73,1.9,1.9,0,0,0-1.832-2.384Z" transform="translate(-239.931 -24.405)" fill="#e33b3c"/>
        <path id="path983" d="M226.669-23.347a6.643,6.643,0,0,0-6.629,6.629,6.643,6.643,0,0,0,6.629,6.629h14.394v7.765H226.656a6.63,6.63,0,0,0,0,13.258h14.407V18.7H226.669a6.629,6.629,0,1,0,0,13.258h21.023a6.644,6.644,0,0,0,6.629-6.629V4.346c0-.014,0-.028,0-.042V-16.719h0a6.643,6.643,0,0,0-6.629-6.628Zm0,1.894h21.023a4.721,4.721,0,0,1,4.735,4.735V4.307c0,.012,0,.024,0,.036V25.327a4.722,4.722,0,0,1-4.735,4.736H226.669a4.735,4.735,0,1,1,0-9.47H242.01a.947.947,0,0,0,.947-.947V9.986a.947.947,0,0,0-.947-.947H226.683a4.735,4.735,0,0,1,0-9.47H242.01a.947.947,0,0,0,.947-.947v-9.659a.947.947,0,0,0-.947-.947H226.669a4.721,4.721,0,0,1-4.735-4.735,4.721,4.721,0,0,1,4.735-4.735Z" transform="translate(-220.04 23.347)"/>
        <path id="path1043-5" d="M230.737-19.5a10.688,10.688,0,0,0-3.445.3,4.914,4.914,0,0,0-2.686,2.527.947.947,0,0,0,.382,1.284.947.947,0,0,0,1.284-.382c.595-1.1,1.025-1.434,1.619-1.632a10.522,10.522,0,0,1,2.845-.2.947.947,0,0,0,.947-.947.947.947,0,0,0-.947-.947Z" transform="translate(-222.274 21.418)" fill="#fff"/>
      </g>
    </g>
  </g>
</svg>
