<svg xmlns="http://www.w3.org/2000/svg" width="149.908" height="150" viewBox="0 0 149.908 150">
  <g id="img4" transform="translate(-705.696 -1710.139)">
    <g id="Group_1180300" data-name="Group 1180300" transform="translate(705.647 1710.139)">
      <g id="Grupo_155253" data-name="Grupo 155253" transform="matrix(0.999, 0.035, -0.035, 0.999, 5.061, 0)">
        <path id="Trazado_196478" data-name="Trazado 196478" d="M20.378,22.814q-.452.483-.9.974A75.7,75.7,0,0,0,.051,77.428l30.182-1.084c-.818-24.1,17.45-44.315,40.8-45.157S113.984,49.2,114.8,73.3l30.181-1.084c-1.018-30-19.313-56.469-46.471-67.233A70.928,70.928,0,0,0,20.378,22.822" transform="translate(0 0)" fill="#f9ce5d"/>
        <path id="Trazado_196479" data-name="Trazado 196479" d="M0,5.22c1.4,41.3,34.98,73.608,75,72.166S146.333,41.3,144.933,0L114.75,1.084c.818,24.1-17.451,44.314-40.8,45.156S31,28.229,30.182,4.132Z" transform="translate(0.049 67.594)" fill="#70f5c8"/>
      </g>
      <ellipse id="Ellipse_13685" data-name="Ellipse 13685" cx="58.366" cy="58.462" rx="58.366" ry="58.462" transform="translate(16.722 16.827)" fill="#fff"/>
    </g>
    <g id="Group_1184517" data-name="Group 1184517" transform="translate(713.583 1744.139)">
      <path id="Path_1032322" data-name="Path 1032322" d="M97.872,142.648H96.835a4.81,4.81,0,0,1-4.716-3.867l-.652-3.258a3.152,3.152,0,0,1,4.087-3.608l2.318.773v9.96Z" transform="translate(-50.667 -110.627)" fill="#ffbd86"/>
      <path id="Path_1032323" data-name="Path 1032323" d="M287.062,142.648H288.1a4.81,4.81,0,0,0,4.716-3.867l.652-3.258a3.152,3.152,0,0,0-4.087-3.608l-2.318.773v9.96Z" transform="translate(-214.956 -110.627)" fill="#f6a96c"/>
      <path id="Path_1032324" data-name="Path 1032324" d="M82.922,302.594l-4.519,4.98h-7.47l-4.98-4.98-4.98,4.98H53.5l-4.519-4.98a10.421,10.421,0,0,0-10.421,10.421v21.949h9.96l17.43-2.49,17.43,2.49h9.96V313.015A10.421,10.421,0,0,0,82.922,302.594Z" transform="translate(-6.297 -254.081)" fill="#017297"/>
      <path id="Path_1032325" data-name="Path 1032325" d="M157.242,302.594l-4.98,7.47-4.98-7.47Z" transform="translate(-97.586 -254.081)" fill="#0681af"/>
      <path id="Path_1032326" data-name="Path 1032326" d="M209.407,302.594l4.98,7.47,4.98-7.47Z" transform="translate(-149.751 -254.081)" fill="#0681af"/>
      <path id="Path_1032327" data-name="Path 1032327" d="M84.091,303a10.385,10.385,0,0,1,2.839,7.15v14.54a7.409,7.409,0,0,1-7.409,7.409H38.563V335.3h9.96l17.43-2.49,17.43,2.49h9.96V313.354A10.423,10.423,0,0,0,84.091,303Z" transform="translate(-6.298 -254.42)" fill="#025f80"/>
      <path id="Path_1032328" data-name="Path 1032328" d="M125.588,302.594l2.49,2.49,2.49-2.49h4.98v32.37h-4.98l-2.49-2.49-2.49,2.49h-14.94l-2.49-2.49-2.49,2.49h-4.98v-32.37h4.98l2.49,2.49,2.49-2.49,7.47,17.43Z" transform="translate(-58.462 -254.081)" fill="#fd6930"/>
      <path id="Path_1032329" data-name="Path 1032329" d="M292.043,307.062h-.972a4.008,4.008,0,0,0-4.008,4.008v21.864a4.008,4.008,0,0,0,4.008,4.008h.972Z" transform="translate(-214.957 -257.833)" fill="#fd5426"/>
      <path id="Path_1032330" data-name="Path 1032330" d="M131.687,478.818h-31v3.207h4.98l2.49-2.49,2.49,2.49h14.94l2.49-2.49,2.49,2.49h4.98v-4.291A7.373,7.373,0,0,1,131.687,478.818Z" transform="translate(-58.462 -401.141)" fill="#fd5426"/>
      <path id="Path_1032331" data-name="Path 1032331" d="M131.75,302.594h4.98v32.37h-4.98Z" transform="translate(-84.544 -254.081)" fill="#fedf30"/>
      <path id="Path_1032332" data-name="Path 1032332" d="M131.75,484.5h4.98v3.206h-4.98Z" transform="translate(-84.544 -406.823)" fill="#fed402"/>
      <path id="Path_1032333" data-name="Path 1032333" d="M256,302.594h4.98v32.37H256Z" transform="translate(-188.874 -254.081)" fill="#fedf30"/>
      <path id="Path_1032334" data-name="Path 1032334" d="M256,484.5h4.98v3.206H256Z" transform="translate(-188.874 -406.823)" fill="#fed402"/>
      <path id="Path_1032335" data-name="Path 1032335" d="M143.7,85.156h-9.96l-8.517,13.136.27,4.319a13.253,13.253,0,0,0,26.453,0l.27-4.319Z" transform="translate(-79.064 -71.503)" fill="#fed2a4"/>
      <path id="Path_1032336" data-name="Path 1032336" d="M140.873,35.482l8.517,10.646.512-8.185a14.036,14.036,0,1,0-28.017,0l.512,8.185,8.517-10.646Z" transform="translate(-76.238 -19.339)" fill="#017297"/>
      <path id="Path_1032337" data-name="Path 1032337" d="M170.209,109.06l-.651,10.416a13.262,13.262,0,0,1-15.723,12.191,13.253,13.253,0,0,0,22.136-8.984l.27-4.319Z" transform="translate(-103.089 -91.575)" fill="#ffbd86"/>
      <path id="Path_1032338" data-name="Path 1032338" d="M227.232,24.844a14,14,0,0,1,4.737,11.414l-.233,3.724,6.134,7.668.512-8.185A14.041,14.041,0,0,0,227.232,24.844Z" transform="translate(-164.718 -20.861)" fill="#025f80"/>
      <path id="Path_1032339" data-name="Path 1032339" d="M149.889,26.639H121.8V24.524A12.024,12.024,0,0,1,133.821,12.5h4.043a12.024,12.024,0,0,1,12.024,12.024Z" transform="translate(-76.187 -10.496)" fill="#fed402"/>
      <path id="Path_1032340" data-name="Path 1032340" d="M138.706,12.681a12.006,12.006,0,0,1,4.77,9.59,2.114,2.114,0,0,1-2.114,2.114H121.8q0,.145,0,.291v2.114h28.092V24.676A12.025,12.025,0,0,0,138.706,12.681Z" transform="translate(-76.187 -10.648)" fill="#e8b800"/>
      <path id="Path_1032341" data-name="Path 1032341" d="M138.29,100.688H107.7a1.2,1.2,0,0,0-1.075,1.74l.276.552a4.862,4.862,0,0,0,4.349,2.688h23.491a4.862,4.862,0,0,0,4.349-2.688l.276-.552A1.2,1.2,0,0,0,138.29,100.688Z" transform="translate(-63.34 -84.545)" fill="#fee45a"/>
      <path id="Path_1032342" data-name="Path 1032342" d="M193.58,22.44h-7.47V8.3a.8.8,0,0,1,.8-.8h5.867a.8.8,0,0,1,.8.8Z" transform="translate(-130.189 -6.298)" fill="#fee45a"/>
      <path id="Path_1032343" data-name="Path 1032343" d="M186.11,85.688h7.47v2.4h-7.47Z" transform="translate(-130.189 -71.95)" fill="#fedf30"/>
      <path id="Path_1032344" data-name="Path 1032344" d="M121.2,74.605h-4.98V70.827a1.2,1.2,0,0,1,1.2-1.2H120a1.2,1.2,0,0,1,1.2,1.2Z" transform="translate(-71.504 -58.462)" fill="#fee45a"/>
      <path id="Path_1032345" data-name="Path 1032345" d="M116.219,85.688h4.98v2.4h-4.98Z" transform="translate(-71.503 -71.95)" fill="#fedf30"/>
      <path id="Path_1032346" data-name="Path 1032346" d="M271.532,74.605h4.98V70.827a1.2,1.2,0,0,0-1.2-1.2h-2.575a1.2,1.2,0,0,0-1.2,1.2Z" transform="translate(-201.916 -58.462)" fill="#fedf30"/>
      <path id="Path_1032347" data-name="Path 1032347" d="M312.935,316.943H291.071a4.008,4.008,0,0,1-4.008-4.008V291.07a4.008,4.008,0,0,1,4.008-4.008h21.864a4.008,4.008,0,0,1,4.008,4.008v21.864A4.008,4.008,0,0,1,312.935,316.943Z" transform="translate(-214.957 -241.039)" fill="#01c0fa"/>
      <path id="Path_1032348" data-name="Path 1032348" d="M313.355,287.062H310.87a4.025,4.025,0,0,1,.08.8v14.512a11.36,11.36,0,0,1-11.36,11.36H287.563a4.009,4.009,0,0,0,3.928,3.206h21.864a4.008,4.008,0,0,0,4.008-4.008V291.07A4.008,4.008,0,0,0,313.355,287.062Z" transform="translate(-215.377 -241.039)" fill="#08a9f1"/>
      <path id="Path_1032349" data-name="Path 1032349" d="M328.911,321.427l2.381,5.405,5.947.642a.9.9,0,0,1,.5,1.577l-4.46,3.881,1.29,5.893a.9.9,0,0,1-1.346.966l-5.132-3.089-5.132,3.089a.9.9,0,0,1-1.346-.966l1.29-5.893-4.46-3.881a.9.9,0,0,1,.5-1.577l5.947-.642,2.381-5.405A.9.9,0,0,1,328.911,321.427Z" transform="translate(-241.04 -269.442)" fill="#fed402"/>
      <path id="Path_1032350" data-name="Path 1032350" d="M409.115,427.54a.9.9,0,0,0,1.346-.966l-.259-1.182a11.424,11.424,0,0,1-1.689,1.786Z" transform="translate(-316.937 -357.192)" fill="#fac600"/>
      <path id="Path_1032351" data-name="Path 1032351" d="M434.065,361.611l-.627-.068v2.621l1.122-.976A.9.9,0,0,0,434.065,361.611Z" transform="translate(-337.865 -303.579)" fill="#fac600"/>
      <path id="Path_1032352" data-name="Path 1032352" d="M200.077,162.7h.972a3.21,3.21,0,0,0,3.206-3.206v-2.976a1.2,1.2,0,1,0-2.4,0v2.976a.8.8,0,0,1-.8.8h-.972a1.2,1.2,0,1,0,0,2.4Z" transform="translate(-140.908 -130.413)"/>
      <path id="Path_1032353" data-name="Path 1032353" d="M185.153,211.908a4.512,4.512,0,0,1-6.374,0,1.2,1.2,0,0,0-1.7,1.7,6.912,6.912,0,0,0,9.775,0,1.2,1.2,0,0,0-1.7-1.7Z" transform="translate(-122.31 -177.639)"/>
      <path id="Path_1032354" data-name="Path 1032354" d="M97.978,279.562H90.954a1.2,1.2,0,0,0,0,2.4h7.024a2.809,2.809,0,0,1,2.806,2.806v21.864a2.809,2.809,0,0,1-2.806,2.806H76.114a2.809,2.809,0,0,1-2.806-2.806V284.773a2.809,2.809,0,0,1,2.806-2.806h9.228a1.2,1.2,0,1,0,0-2.4H76.114a5.212,5.212,0,0,0-4.442,2.49c-.016,0-29.5-.011-29.663.02a11.638,11.638,0,0,0-10.946,11.6v21.949a1.2,1.2,0,0,0,1.2,1.2h54.78a1.2,1.2,0,0,0,1.2-1.2v-3.778h9.73a5.216,5.216,0,0,0,5.211-5.211V284.773A5.217,5.217,0,0,0,97.978,279.562Zm-22.094,32.28v2.58H73.308v-3.4A5.179,5.179,0,0,0,75.884,311.842Zm-9.961,2.58H60.858V300.932L65.3,290.563l.012-.028.61-1.422Zm-6.268-29,3.185,4.778-3.185,7.432L56.47,290.2Zm-6.268,3.69.61,1.422.012.028,4.444,10.368v13.491H53.388ZM65.3,284.457l-1.33,3.1-2.069-3.1Zm-9.963,3.1-1.33-3.1h3.4Zm-21.872,6.114a9.234,9.234,0,0,1,7.555-9.068v29.815H33.468Zm13.738,10.344a1.2,1.2,0,0,0-1.2,1.2v9.2H43.428V284.457H46V299.61a1.2,1.2,0,1,0,2.4,0V284.457h2.575v29.966H48.408v-9.2A1.2,1.2,0,0,0,47.206,304.019Zm21.123-19.562H70.9v29.966H68.328Zm17.515,29.966H78.289v-2.575h7.554Z" transform="translate(0 -234.742)"/>
      <path id="Path_1032355" data-name="Path 1032355" d="M319.868,314.645l-2.1,4.769-5.256.567a2.1,2.1,0,0,0-1.155,3.68l3.923,3.413-1.138,5.2a2.1,2.1,0,0,0,3.141,2.253l4.513-2.716,4.512,2.716a2.1,2.1,0,0,0,3.141-2.253l-1.137-5.2,3.922-3.413a2.1,2.1,0,0,0-1.155-3.68l-5.256-.567-2.1-4.769a2.1,2.1,0,0,0-3.852,0Zm4.032,6.375a1.2,1.2,0,0,0,.971.711l5.263.568-3.941,3.429a1.2,1.2,0,0,0-.385,1.164l1.141,5.212-4.535-2.729a1.2,1.2,0,0,0-1.24,0l-4.535,2.729,1.141-5.212a1.2,1.2,0,0,0-.385-1.164l-3.941-3.429,5.263-.568a1.2,1.2,0,0,0,.971-.711l2.107-4.781Z" transform="translate(-234.748 -263.145)"/>
      <path id="Path_1032356" data-name="Path 1032356" d="M84.641,28.39a6.031,6.031,0,0,0,5.222,4.8,14.456,14.456,0,0,0,28.321,0,6.031,6.031,0,0,0,5.222-4.8l.652-3.258a4.369,4.369,0,0,0-3.5-5.146,6.15,6.15,0,0,0,.636-1.013l.276-.552a2.408,2.408,0,0,0-1.3-3.328V12.365a2.409,2.409,0,0,0-1.473-2.217,13.241,13.241,0,0,0-9.961-9.073A2.006,2.006,0,0,0,106.957,0H101.09a2.006,2.006,0,0,0-1.775,1.075,13.241,13.241,0,0,0-9.961,9.073,2.409,2.409,0,0,0-1.473,2.217v2.728a2.408,2.408,0,0,0-1.3,3.328l.276.552a6.159,6.159,0,0,0,.636,1.013,4.369,4.369,0,0,0-3.5,5.146Zm5.645-16.025h2.575V14.94H90.285Zm29.033,4.98-.276.552a3.641,3.641,0,0,1-3.273,2.023H92.278A3.641,3.641,0,0,1,89,17.9l-.276-.552Zm-1.62-4.98h.063V14.94h-2.575V12.365Zm-1.184,11.241-1.025-1.281h.28a6.163,6.163,0,0,0,.829-.056Zm-24.982,0-.084-1.337a6.165,6.165,0,0,0,.829.056h.28ZM104.023,42.33A12.071,12.071,0,0,1,92,31.032l-.241-3.855,3.881-4.852h16.772l3.881,4.852-.241,3.855A12.071,12.071,0,0,1,104.023,42.33ZM121.7,24.661l-.652,3.258a3.619,3.619,0,0,1-2.566,2.766l.239-3.821s0,0,0-.005l.273-4.369.178-.059a1.949,1.949,0,0,1,2.528,2.232Zm-5.625-14.7h-.888a2.408,2.408,0,0,0-2.4,2.4V14.94h-3.82V3.606A10.942,10.942,0,0,1,116.074,9.96ZM99.086,3.606v1.2a1.2,1.2,0,0,0,2.4,0V2.4h5.065V14.94h-5.065V10.419a1.2,1.2,0,0,0-2.4,0V14.94h-3.82V12.365a2.408,2.408,0,0,0-2.4-2.4h-.888A10.942,10.942,0,0,1,99.086,3.606ZM86.969,22.817a1.93,1.93,0,0,1,1.906-.388l.178.059.274,4.375h0l.239,3.82A3.62,3.62,0,0,1,87,27.919l-.652-3.258a1.93,1.93,0,0,1,.621-1.844Z" transform="translate(-44.368)"/>
    </g>
  </g>
</svg>
