<svg xmlns="http://www.w3.org/2000/svg" width="127.922" height="128" viewBox="0 0 127.922 128">
  <g id="img43" transform="translate(-705.978 -1710.002)">
    <g id="Group_1180300" data-name="Group 1180300" transform="translate(705.936 1710.002)">
      <g id="Grupo_155253" data-name="Grupo 155253" transform="matrix(0.999, 0.035, -0.035, 0.999, 4.319, 0)">
        <path id="Trazado_196478" data-name="Trazado 196478" d="M17.389,19.468q-.386.412-.764.831A64.6,64.6,0,0,0,.044,66.072L25.8,65.147C25.1,44.584,40.69,27.331,60.618,26.613S97.267,41.982,97.965,62.546l25.755-.925c-.869-25.6-16.481-48.187-39.655-57.372A60.525,60.525,0,0,0,17.389,19.475" transform="translate(0 0)" fill="#f9ce5d"/>
        <path id="Trazado_196479" data-name="Trazado 196479" d="M0,4.454C1.195,39.7,29.849,67.266,64,66.036S124.871,35.241,123.676,0L97.92.925c.7,20.563-14.891,37.815-34.819,38.533S26.453,24.089,25.755,3.526Z" transform="translate(0.042 57.68)" fill="#70f5c8"/>
      </g>
      <ellipse id="Ellipse_13685" data-name="Ellipse 13685" cx="49.806" cy="49.887" rx="49.806" ry="49.887" transform="translate(14.269 14.359)" fill="#fff"/>
    </g>
    <g id="Group_1184558" data-name="Group 1184558" transform="translate(740.226 1736.592)">
      <g id="Group_1184557" data-name="Group 1184557" transform="translate(1.844 10.519)">
        <g id="Group_1184554" data-name="Group 1184554" transform="translate(0 33.727)">
          <path id="Path_1032490" data-name="Path 1032490" d="M39.6,319.179l4.137,15.438c5.618-1.637,8.34-.351,13,.9a5.119,5.119,0,0,0,4.021-.529l19.334-11.163a2.925,2.925,0,0,0-2.925-5.065L66.84,324.718a3.428,3.428,0,0,0-3.731-5.228l-3.5.939a5.585,5.585,0,0,1-4.388-.578l-4.671-2.7c-2.691-1.554-5.569,1.456-10.951,2.024Z" transform="translate(-36.094 -316.714)" fill="#fedfc5" fill-rule="evenodd"/>
          <path id="Path_1032491" data-name="Path 1032491" d="M180.379,361.307a6.706,6.706,0,0,1-3.476.024,1,1,0,1,1,.519-1.941,4.558,4.558,0,0,0,2.439-.024l5.69-1.525a3.445,3.445,0,0,0,2.54-3.193,3.4,3.4,0,0,1,.406.931,3.441,3.441,0,0,1-2.426,4.2Z" transform="translate(-157.28 -350.377)" fill="#fecbaa" fill-rule="evenodd"/>
          <path id="Path_1032492" data-name="Path 1032492" d="M12.336,324.73l4.618,17.235a.642.642,0,0,1-.453.784l-2.577.69a.642.642,0,0,1-.784-.453L8.523,325.752a.642.642,0,0,1,.453-.784l2.577-.69A.642.642,0,0,1,12.336,324.73Z" transform="translate(-8.501 -323.407)" fill="#6ce75a" fill-rule="evenodd"/>
        </g>
        <g id="Group_1184555" data-name="Group 1184555" transform="translate(16.363 3.342)">
          <path id="Path_1032493" data-name="Path 1032493" d="M155.216,46.856H191.8a1.4,1.4,0,0,1,1.392,1.392V67.3a1.4,1.4,0,0,1-1.392,1.392H155.216a1.4,1.4,0,0,1-1.392-1.392V48.248A1.4,1.4,0,0,1,155.216,46.856Z" transform="translate(-153.824 -46.856)" fill="#58d561" fill-rule="evenodd"/>
          <path id="Path_1032494" data-name="Path 1032494" d="M187.472,46.855a5.723,5.723,0,0,0,5.723,5.723V48.247a1.4,1.4,0,0,0-1.392-1.392Zm-33.649,5.723a5.723,5.723,0,0,0,5.723-5.723h-4.331a1.4,1.4,0,0,0-1.392,1.392Zm5.723,16.116a5.723,5.723,0,0,0-5.723-5.723V67.3a1.4,1.4,0,0,0,1.392,1.392Zm33.649-5.723a5.723,5.723,0,0,0-5.723,5.723H191.8a1.4,1.4,0,0,0,1.392-1.392Z" transform="translate(-153.823 -46.855)" fill="#30b265" fill-rule="evenodd"/>
        </g>
        <g id="Group_1184556" data-name="Group 1184556" transform="translate(11.497 8.207)">
          <path id="Path_1032495" data-name="Path 1032495" d="M112.005,90.067h36.588a1.4,1.4,0,0,1,1.392,1.392v19.055a1.4,1.4,0,0,1-1.392,1.392H112.005a1.4,1.4,0,0,1-1.392-1.392V91.459A1.4,1.4,0,0,1,112.005,90.067Z" transform="translate(-110.613 -90.067)" fill="#6ce75a" fill-rule="evenodd"/>
          <path id="Path_1032496" data-name="Path 1032496" d="M144.261,90.067a5.723,5.723,0,0,0,5.723,5.723V91.459a1.4,1.4,0,0,0-1.392-1.392ZM110.612,95.79a5.723,5.723,0,0,0,5.723-5.723H112a1.4,1.4,0,0,0-1.392,1.392Zm5.723,16.116a5.723,5.723,0,0,0-5.723-5.723v4.331A1.4,1.4,0,0,0,112,111.906Zm33.649-5.723a5.723,5.723,0,0,0-5.723,5.723h4.331a1.4,1.4,0,0,0,1.392-1.392Z" transform="translate(-110.612 -90.067)" fill="#4abe69" fill-rule="evenodd"/>
        </g>
        <path id="Path_1032497" data-name="Path 1032497" d="M36.2,22.725V30.9a.667.667,0,0,1-.666.666H32.5a.667.667,0,0,1-.666-.666V22.725h-1.58a.547.547,0,0,1-.431-.885l3.332-4.248a1.1,1.1,0,0,1,1.723,0l3.332,4.248a.547.547,0,0,1-.431.885Z" transform="translate(-27.319 -17.173)" fill="#ffd54f" fill-rule="evenodd"/>
      </g>
      <path id="Path_1032498" data-name="Path 1032498" d="M5.391,15.227H6.36a.844.844,0,0,1,.844.844v7.994H9.881V16.071a.844.844,0,0,1,.844-.844h.969L8.74,11.46a.249.249,0,0,0-.393,0Zm-1.863.907a1.382,1.382,0,0,1,.157-1.468l3.332-4.248a1.94,1.94,0,0,1,3.052,0L13.4,14.665a1.391,1.391,0,0,1-1.1,2.251H11.57v7.328a1.512,1.512,0,0,1-1.51,1.511H7.026a1.512,1.512,0,0,1-1.51-1.511V16.916H4.78a1.384,1.384,0,0,1-1.252-.782ZM56.734,34.308V30.9a4.843,4.843,0,0,0-3.176,2.045v1.915h2.628A.555.555,0,0,0,56.734,34.308Zm-4.865,4.866V35.762a4.888,4.888,0,0,0-3.959,3.959h3.411A.555.555,0,0,0,51.869,39.174Zm-37.135.547h3.411a4.888,4.888,0,0,0-3.959-3.959v3.412A.555.555,0,0,0,14.733,39.721Zm-.548-19.6V23.53a4.889,4.889,0,0,0,3.959-3.959H14.733A.555.555,0,0,0,14.186,20.118Zm4.865-2.236h1.915a4.842,4.842,0,0,0,2.044-3.176H19.6a.555.555,0,0,0-.548.547Zm37.135-3.176H52.775a4.891,4.891,0,0,0,3.959,3.959V15.253a.554.554,0,0,0-.548-.547Zm-2.628,5.412a2.239,2.239,0,0,0-2.237-2.236H23.4a6.51,6.51,0,0,0,1.316-3.176H51.068a6.576,6.576,0,0,0,5.666,5.666v8.815A6.508,6.508,0,0,0,53.558,30.5Zm-1.689,0a.555.555,0,0,0-.548-.547H47.91a4.89,4.89,0,0,0,3.959,3.959V20.118ZM14.186,34.054V25.237a6.576,6.576,0,0,0,5.666-5.666H46.2a6.576,6.576,0,0,0,5.666,5.666v8.818A6.578,6.578,0,0,0,46.2,39.721H19.852a6.578,6.578,0,0,0-5.666-5.667Zm44.237-18.8a2.239,2.239,0,0,0-2.237-2.236H19.6a2.239,2.239,0,0,0-2.237,2.236v2.629H14.733A2.239,2.239,0,0,0,12.5,20.118V39.174a2.239,2.239,0,0,0,2.237,2.236H51.321a2.239,2.239,0,0,0,2.237-2.236V36.545h2.628a2.239,2.239,0,0,0,2.237-2.237ZM46.178,47.782a2.087,2.087,0,0,0-2.841-.762L33.175,52.888a4.257,4.257,0,0,1-2.321,1.579L25.73,55.839a6.785,6.785,0,0,1-1.766.239,6.237,6.237,0,0,1-1.63-.215.845.845,0,1,1,.44-1.631,4.792,4.792,0,0,0,2.519-.024l5.124-1.372a2.587,2.587,0,1,0-1.339-5l-3.5.939a6.416,6.416,0,0,1-5.029-.662l-4.671-2.7c-1.137-.657-2.325-.261-4.5.555a26.739,26.739,0,0,1-4.354,1.334l3.66,13.66c4.226-.95,6.9-.187,10.231.763.573.164,1.165.332,1.793.5a4.257,4.257,0,0,0,3.38-.445L45.417,50.624a2.083,2.083,0,0,0,.761-2.842ZM9.428,62.825l-2.182.585L2.734,46.57l2.182-.584ZM47.641,46.938a3.774,3.774,0,0,1-1.379,5.149L26.927,63.249a5.969,5.969,0,0,1-3.021.836,6.32,6.32,0,0,1-1.641-.223c-.64-.171-1.239-.342-1.818-.508-3.195-.911-5.562-1.585-9.331-.755a1.486,1.486,0,0,1-1.053,1.8l-2.577.69a1.518,1.518,0,0,1-.385.05,1.486,1.486,0,0,1-1.433-1.1L1.05,46.81A1.492,1.492,0,0,1,1,46.43a1.49,1.49,0,0,1,1.1-1.439l2.577-.69a1.486,1.486,0,0,1,1.818,1.049l.086.323a25.039,25.039,0,0,0,4.2-1.281c2.177-.818,4.057-1.524,5.939-.437l4.671,2.7a4.718,4.718,0,0,0,3.747.493l3.5-.939a4.274,4.274,0,0,1,5.38,4.243l8.471-4.891a3.778,3.778,0,0,1,5.149,1.38ZM41.75,30.49h3.906a.845.845,0,0,0,0-1.689H41.75a.845.845,0,0,0,0,1.689Zm-21.352,0H24.3a.845.845,0,0,0,0-1.689H20.4a.845.845,0,0,0,0,1.689Zm9.241-3.171A3.174,3.174,0,0,0,32.81,30.49h.434a1.482,1.482,0,1,1,0,2.963h-.217a1.483,1.483,0,0,1-1.482-1.482.844.844,0,0,0-1.689,0,3.177,3.177,0,0,0,2.326,3.057v.845a.844.844,0,0,0,1.689,0v-.794a3.171,3.171,0,0,0-.628-6.28H32.81a1.482,1.482,0,1,1,0-2.963h.217a1.483,1.483,0,0,1,1.482,1.482.844.844,0,0,0,1.689,0,3.177,3.177,0,0,0-2.326-3.057v-.846a.844.844,0,0,0-1.689,0v.794A3.177,3.177,0,0,0,29.639,27.32Z" fill-rule="evenodd"/>
    </g>
  </g>
</svg>
