<svg xmlns="http://www.w3.org/2000/svg" width="90" height="90" viewBox="0 0 90 90">
  <g id="img47" transform="translate(-338.711 -12699)">
    <circle id="Ellipse_13756" data-name="Ellipse 13756" cx="45" cy="45" r="45" transform="translate(338.711 12699)" fill="#fff"/>
    <g id="layer1" transform="translate(347.725 12719.882)">
      <g id="g1049" transform="translate(21.042 0.009)">
        <path id="path950" d="M163.2-23.7a4.954,4.954,0,0,0-4.954,4.954A4.954,4.954,0,0,0,163.2-13.8h4.211V12.954H163.2a4.954,4.954,0,1,0,0,9.908h18.329a4.954,4.954,0,1,0,0-9.908h-4.211v-31.7A4.954,4.954,0,0,0,172.37-23.7Z" transform="translate(-157.425 24.53)" fill="#f8c09d"/>
        <path id="path1035" d="M205.2,69.975a1.651,1.651,0,0,0-1.593,1.224,1.853,1.853,0,0,1-1.464.8h-4.712a1.651,1.651,0,1,0,0,3.3h4.712a4.613,4.613,0,0,0,4.653-3.252,1.653,1.653,0,0,0-1.6-2.079Z" transform="translate(-178.647 -28.442)" fill="#f4a16c"/>
        <path id="path1039" d="M162.13-25.6a5.792,5.792,0,0,0-5.779,5.779,5.792,5.792,0,0,0,5.779,5.779h3.385v25.1h-3.4a5.78,5.78,0,0,0,0,11.559H180.46a5.779,5.779,0,0,0,0-11.559h-3.385V-19.825A5.792,5.792,0,0,0,171.3-25.6H162.13Zm0,1.651h9.165a4.116,4.116,0,0,1,4.128,4.128v31.7a.826.826,0,0,0,.826.826h4.211a4.128,4.128,0,1,1,0,8.256H162.143a4.129,4.129,0,0,1,0-8.256h4.2a.826.826,0,0,0,.826-.826V-14.871a.826.826,0,0,0-.826-.826H162.13A4.116,4.116,0,0,1,158-19.825,4.116,4.116,0,0,1,162.13-23.953Z" transform="translate(-156.351 25.604)"/>
        <path id="path1043" d="M166.18-21.725a9.319,9.319,0,0,0-3,.259,4.285,4.285,0,0,0-2.341,2.2.826.826,0,0,0,.333,1.119.826.826,0,0,0,1.119-.333c.518-.958.894-1.25,1.412-1.423a9.173,9.173,0,0,1,2.481-.174.826.826,0,0,0,.826-.826A.826.826,0,0,0,166.18-21.725Z" transform="translate(-158.83 23.412)" fill="#fff"/>
      </g>
    </g>
  </g>
</svg>
