<svg xmlns="http://www.w3.org/2000/svg" width="90" height="90" viewBox="0 0 90 90">
  <g id="img50" transform="translate(-338.711 -12699)">
    <circle id="Ellipse_13756" data-name="Ellipse 13756" cx="45" cy="45" r="45" transform="translate(338.711 12699)" fill="#fff"/>
    <g id="layer1" transform="translate(345.613 12717)">
      <g id="g1088" transform="translate(21.097 0)">
        <path id="path965" d="M202.944-8.26a5.551,5.551,0,0,0-5.551,5.551V17.83a5.551,5.551,0,0,0,5.55,5.551h14.988V38.368a5.551,5.551,0,0,0,11.1,0V-2.709a5.551,5.551,0,0,0-5.551-5.552,5.552,5.552,0,0,0-5.552,5.552V12.279h-9.437V-2.709a5.551,5.551,0,0,0-5.551-5.551Z" transform="translate(-196.468 9.185)" fill="#fff79c"/>
        <path id="path1035-5" d="M248.661,82.9a1.85,1.85,0,0,1,1.372-1.785,2.076,2.076,0,0,0,.9-1.64V74.2a1.85,1.85,0,0,1,3.7,0v5.28a5.169,5.169,0,0,1-3.644,5.214,1.852,1.852,0,0,1-2.33-1.79Z" transform="translate(-222.781 -32.186)" fill="#fff36b"/>
        <path id="path999" d="M201.968-10.16a6.49,6.49,0,0,0-6.476,6.476V16.855a6.491,6.491,0,0,0,6.476,6.476h14.063V37.393a6.476,6.476,0,1,0,12.952,0V-3.684s0-.009,0-.013a6.49,6.49,0,0,0-6.476-6.385A6.49,6.49,0,0,0,216.031-3.7s0,.009,0,.013V10.378h-7.586V-3.684A6.49,6.49,0,0,0,201.968-10.16Zm0,1.85a4.612,4.612,0,0,1,4.626,4.626V11.3a.925.925,0,0,0,.925.925h9.437a.925.925,0,0,0,.925-.925V-3.671a4.613,4.613,0,0,1,4.626-4.561,4.613,4.613,0,0,1,4.626,4.561V37.393a4.626,4.626,0,1,1-9.252,0V22.406a.925.925,0,0,0-.925-.925H201.968a4.612,4.612,0,0,1-4.626-4.626V-3.684a4.612,4.612,0,0,1,4.626-4.626Z" transform="translate(-195.492 10.16)"/>
        <g id="Group_1184570" data-name="Group 1184570" transform="translate(1.924 2.123)">
          <path id="path1043-8" d="M199.449.3a10.443,10.443,0,0,1,.29-3.365,4.8,4.8,0,0,1,2.468-2.624.925.925,0,0,1,1.254.373.925.925,0,0,1-.373,1.254c-1.073.581-1.4,1-1.594,1.582A10.28,10.28,0,0,0,201.3.3a.925.925,0,0,1-1.85,0Z" transform="translate(-199.446 5.799)" fill="#fff"/>
          <path id="path1043-8-8" d="M241.525.547a10.442,10.442,0,0,1,.29-3.365,4.8,4.8,0,0,1,2.468-2.624.925.925,0,0,1,1.254.373.925.925,0,0,1-.373,1.254c-1.073.581-1.4,1-1.594,1.582a10.28,10.28,0,0,0-.194,2.78.925.925,0,0,1-1.85,0Z" transform="translate(-221.041 5.673)" fill="#fff"/>
        </g>
      </g>
    </g>
  </g>
</svg>
