<svg xmlns="http://www.w3.org/2000/svg" width="149.909" height="150" viewBox="0 0 149.909 150">
  <g id="img51" transform="translate(-705.985 -1710.002)">
    <g id="Group_1180300" data-name="Group 1180300" transform="translate(705.936 1710.002)">
      <g id="Grupo_155253" data-name="Grupo 155253" transform="matrix(0.999, 0.035, -0.035, 0.999, 5.062, 0)">
        <path id="Trazado_196478" data-name="Trazado 196478" d="M20.377,22.814q-.452.483-.9.974A75.7,75.7,0,0,0,.051,77.428l30.182-1.084c-.818-24.1,17.45-44.315,40.8-45.157S113.985,49.2,114.8,73.3l30.182-1.084c-1.018-30-19.313-56.469-46.471-67.234A70.928,70.928,0,0,0,20.377,22.822" transform="translate(0 0)" fill="#ff9e74"/>
        <path id="Trazado_196479" data-name="Trazado 196479" d="M0,5.22c1.4,41.3,34.98,73.608,75,72.167S146.334,41.3,144.933,0L114.751,1.084c.818,24.1-17.451,44.315-40.8,45.156S31,28.229,30.182,4.132Z" transform="translate(0.049 67.595)" fill="#70f5c8"/>
      </g>
      <ellipse id="Ellipse_13685" data-name="Ellipse 13685" cx="58.366" cy="58.462" rx="58.366" ry="58.462" transform="translate(16.722 16.827)" fill="#fff"/>
    </g>
    <g id="Group_1184593" data-name="Group 1184593" transform="translate(702.672 1746.171)">
      <g id="Group_1184591" data-name="Group 1184591" transform="translate(47.622 1.138)">
        <g id="Group_1184571" data-name="Group 1184571" transform="translate(3.637 48.076)">
          <circle id="Ellipse_13798" data-name="Ellipse 13798" cx="6.489" cy="6.489" r="6.489" fill="#d88a55"/>
        </g>
        <g id="Group_1184572" data-name="Group 1184572" transform="translate(46.367 53.833)">
          <path id="Path_1032562" data-name="Path 1032562" d="M374.338,374.892l-1.112-4.167a10.7,10.7,0,0,0-3.354-5.348l-.155-.134a11.734,11.734,0,0,0-7.661-2.846h-2.387v21.555h7.71A7.2,7.2,0,0,0,374.338,374.892Z" transform="translate(-359.669 -362.397)" fill="#01c0fa"/>
        </g>
        <g id="Group_1184573" data-name="Group 1184573" transform="translate(2.304 31.314)">
          <circle id="Ellipse_13799" data-name="Ellipse 13799" cx="9.658" cy="9.658" r="9.658" fill="#d88a55"/>
        </g>
        <g id="Group_1184574" data-name="Group 1184574" transform="translate(0 53.833)">
          <path id="Path_1032563" data-name="Path 1032563" d="M70.889,371.839l-.381,2.748H83.666l4.082,9.364H61.2a7.2,7.2,0,0,1-6.959-9.06l1.112-4.167a10.7,10.7,0,0,1,3.354-5.348l.034-.029a12.165,12.165,0,0,1,7.942-2.95H97.353l7.444,13.346-4.542,8.21" transform="translate(-53.99 -362.396)" fill="#01c0fa"/>
        </g>
        <g id="Group_1184575" data-name="Group 1184575" transform="translate(22.862 47.058)">
          <path id="Path_1032564" data-name="Path 1032564" d="M217.512,333.414h-5.894a6.908,6.908,0,0,1-6.908-6.908v-8.777h12.8Z" transform="translate(-204.71 -317.729)" fill="#fed2a4"/>
        </g>
        <g id="Group_1184576" data-name="Group 1184576" transform="translate(6.522 0)">
          <path id="Path_1032565" data-name="Path 1032565" d="M142.208,37.768H96.987V30.111a22.611,22.611,0,1,1,45.221,0v7.658Z" transform="translate(-96.987 -7.5)" fill="#d88a55"/>
        </g>
        <g id="Group_1184577" data-name="Group 1184577" transform="translate(26.883)">
          <path id="Path_1032566" data-name="Path 1032566" d="M233.464,7.5q-1.139,0-2.25.111a22.613,22.613,0,0,1,20.36,22.5v7.658h4.5V30.111A22.611,22.611,0,0,0,233.464,7.5Z" transform="translate(-231.214 -7.5)" fill="#c57a44"/>
        </g>
        <g id="Group_1184578" data-name="Group 1184578" transform="translate(43.363 25.738)">
          <circle id="Ellipse_13800" data-name="Ellipse 13800" cx="4.531" cy="4.531" r="4.531" fill="#fed2a4"/>
        </g>
        <g id="Group_1184579" data-name="Group 1184579" transform="translate(5.931 25.738)">
          <circle id="Ellipse_13801" data-name="Ellipse 13801" cx="4.531" cy="4.531" r="4.531" fill="#fed2a4"/>
        </g>
        <g id="Group_1184580" data-name="Group 1184580" transform="translate(11.469 5.132)">
          <path id="Path_1032567" data-name="Path 1032567" d="M138.281,83.968a14.938,14.938,0,0,0,18.054,0,21.939,21.939,0,0,0,8.681-17.48V59.043a17.709,17.709,0,1,0-35.417,0v7.445A21.939,21.939,0,0,0,138.281,83.968Z" transform="translate(-129.6 -41.334)" fill="#fed2a4"/>
        </g>
        <g id="Group_1184581" data-name="Group 1184581" transform="translate(26.928 5.132)">
          <path id="Path_1032568" data-name="Path 1032568" d="M233.761,41.334a17.882,17.882,0,0,0-2.25.142A17.712,17.712,0,0,1,246.97,59.043v7.445a21.939,21.939,0,0,1-8.681,17.48,14.9,14.9,0,0,1-6.777,2.864,14.929,14.929,0,0,0,11.277-2.864,21.939,21.939,0,0,0,8.681-17.48V59.043A17.709,17.709,0,0,0,233.761,41.334Z" transform="translate(-231.511 -41.334)" fill="#ffbd86"/>
        </g>
        <g id="Group_1184582" data-name="Group 1184582" transform="translate(10.127 3.735)">
          <path id="Path_1032569" data-name="Path 1032569" d="M158.247,46.187a19.094,19.094,0,0,0-37.5,4.216,20.582,20.582,0,0,0,6.367.988c6.264,0,11.673-2.694,14.213-6.6a3.257,3.257,0,0,1,4.41-1.043,19.423,19.423,0,0,0,9.919,2.59A21.361,21.361,0,0,0,158.247,46.187Z" transform="translate(-120.75 -32.122)" fill="#d88a55"/>
        </g>
        <g id="Group_1184583" data-name="Group 1184583" transform="translate(11.247 60.676)">
          <path id="Path_1032570" data-name="Path 1032570" d="M156.422,419.3c-.1-.166-.209-.331-.321-.493l-4.157-6.044a11.947,11.947,0,0,0-8.082-5.051,11.278,11.278,0,0,0-6.078.462,7.18,7.18,0,0,0-4.456,5.952s-.008.306-.019.847a1.188,1.188,0,0,1-.518.956l-3.258,2.226a10.5,10.5,0,0,0-1.4,1.145h28.287Z" transform="translate(-128.135 -407.511)" fill="#fd6930"/>
        </g>
        <g id="Group_1184584" data-name="Group 1184584" transform="translate(29.924 51.842)">
          <path id="Path_1032571" data-name="Path 1032571" d="M253.873,369.893h20.5a12.856,12.856,0,1,0-20.863-.51Q253.684,369.644,253.873,369.893Z" transform="translate(-251.264 -349.273)" fill="#ffe5c2"/>
        </g>
        <g id="Group_1184585" data-name="Group 1184585" transform="translate(30.827 52.554)">
          <path id="Path_1032572" data-name="Path 1032572" d="M279.79,358.86a12.8,12.8,0,0,0-6.4-4.893,12.849,12.849,0,0,1,1.18,16.874H257.221a12.888,12.888,0,0,0,1.339,2.524q.178.261.368.51h20.5A12.859,12.859,0,0,0,279.79,358.86Z" transform="translate(-257.221 -353.967)" fill="#fed2a4"/>
        </g>
        <g id="Group_1184586" data-name="Group 1184586" transform="translate(27.04 59.148)">
          <path id="Path_1032573" data-name="Path 1032573" d="M232.251,404.338h3.881a3.007,3.007,0,0,0,1.592-.456l.337-.211a3.006,3.006,0,0,1,1.592-.456,3.007,3.007,0,0,0,2.381-1.17l3.152-4.086a1.349,1.349,0,0,1,2.018-.133,2.865,2.865,0,0,1,.492,3.41l-.045.083a3.774,3.774,0,0,0,4.507,5.395l6.616-2.215a1.477,1.477,0,0,1,1.889,1.806l-3.021,4.181a7.7,7.7,0,0,1-6.239,3.189H235.731Z" transform="translate(-232.251 -397.434)" fill="#fed2a4"/>
        </g>
        <g id="Group_1184588" data-name="Group 1184588" transform="translate(28.993 66.134)">
          <g id="Group_1184587" data-name="Group 1184587">
            <path id="Path_1032574" data-name="Path 1032574" d="M269.7,443.568,264,445.475a7.7,7.7,0,0,1-6.227,3.174H245.128l1.526,4.1h15.673a7.7,7.7,0,0,0,6.239-3.189l3.021-4.181A1.477,1.477,0,0,0,269.7,443.568Z" transform="translate(-245.128 -443.489)" fill="#ffbd86"/>
          </g>
        </g>
        <g id="Group_1184589" data-name="Group 1184589" transform="translate(0 61.636)">
          <path id="Path_1032575" data-name="Path 1032575" d="M55.5,413.839l-1.267,4.692a7.2,7.2,0,0,0,6.959,9.06H87.748l-4.082-9.364H73.282a2.416,2.416,0,0,1-2.393-2.748" transform="translate(-53.99 -413.839)" fill="#01c0fa"/>
        </g>
        <g id="Group_1184590" data-name="Group 1184590" transform="translate(0 66.136)">
          <path id="Path_1032576" data-name="Path 1032576" d="M61.2,448.659A7.2,7.2,0,0,1,54.29,443.5l-.052.192a7.2,7.2,0,0,0,6.959,9.06H87.749l-1.785-4.1Z" transform="translate(-53.991 -443.502)" fill="#08a9f1"/>
        </g>
      </g>
      <g id="Group_1184592" data-name="Group 1184592" transform="translate(46.484 0)">
        <path id="Path_1032577" data-name="Path 1032577" d="M109.758,67.173l-1.112-4.167a11.8,11.8,0,0,0-3.71-5.917l-.155-.134a12.82,12.82,0,0,0-6.972-3.042c-.028,0-.056,0-.084-.005a14.021,14.021,0,0,0-13.3-.725V51.195c0-.015,0-.029,0-.044a15.951,15.951,0,0,0,2.093-1.341A23.206,23.206,0,0,0,94.94,37.044a5.748,5.748,0,0,0,.576.03A5.667,5.667,0,0,0,100.5,28.71c0-.013,0-.026,0-.039V23.748A23.775,23.775,0,0,0,76.755,0,23.535,23.535,0,0,0,59.517,7.413a1.138,1.138,0,1,0,1.651,1.566,21.28,21.28,0,0,1,15.586-6.7A21.5,21.5,0,0,1,98.228,23.748V26.43a5.632,5.632,0,0,0-2.582-.689V23.978a18.893,18.893,0,0,0-.66-4.962,1.148,1.148,0,0,0-1.237-.83,18.755,18.755,0,0,1-2.263.137A16.522,16.522,0,0,1,82.1,15.586a3.036,3.036,0,0,0-4.44,1.1C75.707,20.465,70.624,23,65.013,23a17.883,17.883,0,0,1-5.553-.86,1.137,1.137,0,0,0-1.434.729,2.218,2.218,0,0,0-.073.538v2.329a5.631,5.631,0,0,0-2.672.741V23.748a21.43,21.43,0,0,1,3.13-11.17,1.138,1.138,0,0,0-1.942-1.185,23.7,23.7,0,0,0-3.463,12.355v4.923a1.143,1.143,0,0,0,.017.186,5.653,5.653,0,0,0-.144,4.792,10.783,10.783,0,0,0-.42,16.56,7.631,7.631,0,0,0-1.939,7.931,11.886,11.886,0,0,0-2.638,4.865L46.77,67.172a8.341,8.341,0,0,0,8.059,10.491H101.7a8.34,8.34,0,0,0,8.059-10.491ZM82.149,54.539a13.98,13.98,0,0,0-5.041,6.923,13.043,13.043,0,0,0-2.343-.576q-.924-.137-1.774-.183a5.769,5.769,0,0,1-1.369-3.731V52.212a16.159,16.159,0,0,0,10.527-.06v2.388Zm-16.9-.706h-.106a7.538,7.538,0,0,0-.834-2.023,10.8,10.8,0,0,0,2.811-1.975,15.958,15.958,0,0,0,2.227,1.408v2.59Zm9.181,9.3a10.77,10.77,0,0,1,2.144.55,13.961,13.961,0,0,0-.166,2.336H67.364a1.709,1.709,0,0,1-1.075-.377,6.593,6.593,0,0,1,2.7-2.135A10.122,10.122,0,0,1,74.43,63.137ZM98.909,31.406A3.4,3.4,0,0,1,95.516,34.8c-.041,0,.13-2.241.13-3.376V28.016a3.4,3.4,0,0,1,3.263,3.39ZM79.683,17.73a.76.76,0,0,1,1.118-.277A18.81,18.81,0,0,0,91.486,20.6c.508,0,1.018-.021,1.526-.058a16.674,16.674,0,0,1,.359,3.438v7.445A20.914,20.914,0,0,1,85.139,48,13.847,13.847,0,0,1,68.46,48a20.915,20.915,0,0,1-8.231-16.574v-6.7a20.474,20.474,0,0,0,4.785.557c6.54,0,12.3-2.963,14.67-7.55ZM57.954,28.016v3.407c0,1.135.171,3.376.13,3.376a3.393,3.393,0,0,1-.13-6.783ZM51.064,42.11a8.518,8.518,0,0,1,3.126-6.59,5.647,5.647,0,0,0,3.894,1.555,5.706,5.706,0,0,0,.576-.029,23.265,23.265,0,0,0,6.706,11.318,8.517,8.517,0,0,1-14.3-6.254Zm3.3,9.447A10.723,10.723,0,0,0,62.107,52.6a5.3,5.3,0,0,1,.657,1.232H59.88a12.144,12.144,0,0,0-7.439,2.548A5.441,5.441,0,0,1,52.4,55.7a5.347,5.347,0,0,1,1.971-4.146Zm.461,23.831a6.065,6.065,0,0,1-5.86-7.629l1.112-4.167a9.6,9.6,0,0,1,2.25-4.061A10.958,10.958,0,0,1,53.439,58.5a9.87,9.87,0,0,1,6.441-2.393h9.466v.864a8.049,8.049,0,0,0,.971,3.828,8.5,8.5,0,0,0-2.265.636,9.349,9.349,0,0,0-2.409,1.544v-.788a1.138,1.138,0,0,0-1.137-1.139h0a1.138,1.138,0,0,0-1.138,1.136l0,2.106a4,4,0,0,0,4,4h9.189l3.09,7.089Zm27.3,0L79.034,68.3a4.138,4.138,0,0,0,1.7-.6l.337-.21a1.868,1.868,0,0,1,.99-.284,4.172,4.172,0,0,0,3.282-1.613L88.5,61.505a.211.211,0,0,1,.316-.021,1.736,1.736,0,0,1,.3,2.056l-.045.082a4.912,4.912,0,0,0,5.865,7.021l6.616-2.215a.323.323,0,0,1,.342.076.33.33,0,0,1,.1.2l-2.863,3.962a6.577,6.577,0,0,1-5.317,2.718Zm24.384-2.371a6.022,6.022,0,0,1-4.81,2.371H99.725A8.786,8.786,0,0,0,100.975,74L104,69.822a1.137,1.137,0,0,0,.172-.354,2.614,2.614,0,0,0-3.344-3.2l-6.616,2.215a2.637,2.637,0,0,1-3.148-3.769l.045-.082a4.021,4.021,0,0,0-.687-4.764,2.486,2.486,0,0,0-3.721.245L83.545,64.2a1.881,1.881,0,0,1-1.48.728,4.141,4.141,0,0,0-2.2.629l-.337.211a1.867,1.867,0,0,1-.848.278A11.722,11.722,0,0,1,101.8,63.085a1.138,1.138,0,0,0,2.212-.534,13.93,13.93,0,0,0-2.051-4.607c-.1-.147-.206-.29-.312-.433a10.632,10.632,0,0,1,1.649,1.168l.155.134a9.527,9.527,0,0,1,3,4.78l1.112,4.167a6.019,6.019,0,0,1-1.05,5.258Z" transform="translate(-46.484 0)"/>
        <path id="Path_1032578" data-name="Path 1032578" d="M286.639,215.056a1.138,1.138,0,0,0-1.138,1.138v1.164a1.138,1.138,0,1,0,2.275,0v-1.164A1.138,1.138,0,0,0,286.639,215.056Z" transform="translate(-249.245 -182.435)"/>
        <path id="Path_1032579" data-name="Path 1032579" d="M220.265,217.358v-1.164a1.138,1.138,0,1,0-2.275,0v1.164a1.138,1.138,0,1,0,2.275,0Z" transform="translate(-191.975 -182.435)"/>
        <path id="Path_1032580" data-name="Path 1032580" d="M277.033,188.245a3.453,3.453,0,0,1,2.793.469,1.138,1.138,0,0,0,1.386-1.8,5.763,5.763,0,0,0-4.759-.864,1.138,1.138,0,1,0,.58,2.2Z" transform="translate(-240.851 -157.664)"/>
        <path id="Path_1032581" data-name="Path 1032581" d="M202.177,188.945a1.133,1.133,0,0,0,.7-.238,3.47,3.47,0,0,1,2.785-.463,1.138,1.138,0,0,0,.58-2.2,5.762,5.762,0,0,0-4.759.864,1.138,1.138,0,0,0,.7,2.037Z" transform="translate(-177.594 -157.663)"/>
        <path id="Path_1032582" data-name="Path 1032582" d="M235.764,278.4a3.669,3.669,0,0,1-5.073,0,1.138,1.138,0,1,0-1.6,1.614,5.944,5.944,0,0,0,8.279,0,1.138,1.138,0,1,0-1.6-1.614Z" transform="translate(-201.104 -235.89)"/>
        <path id="Path_1032583" data-name="Path 1032583" d="M240.529,252.158a5.484,5.484,0,0,0,4.189.015,1.138,1.138,0,0,0-.868-2.1,3.208,3.208,0,0,1-2.438-.008,1.138,1.138,0,1,0-.883,2.1Z" transform="translate(-210.504 -212.054)"/>
      </g>
    </g>
  </g>
</svg>
