<svg xmlns="http://www.w3.org/2000/svg" width="149.909" height="150.001" viewBox="0 0 149.909 150.001">
  <g id="img5" transform="translate(-705.985 -1710.002)">
    <g id="Group_1180300" data-name="Group 1180300" transform="translate(705.936 1710.002)">
      <g id="Grupo_155253" data-name="Grupo 155253" transform="matrix(0.999, 0.035, -0.035, 0.999, 5.062, 0)">
        <path id="Trazado_196478" data-name="Trazado 196478" d="M20.377,22.814q-.452.483-.9.974A75.7,75.7,0,0,0,.051,77.428l30.182-1.084c-.818-24.1,17.45-44.315,40.8-45.157S113.985,49.2,114.8,73.3l30.182-1.084c-1.018-30-19.313-56.469-46.471-67.234A70.928,70.928,0,0,0,20.377,22.822" transform="translate(0 0)" fill="#f9ce5d"/>
        <path id="Trazado_196479" data-name="Trazado 196479" d="M0,5.22c1.4,41.3,34.98,73.608,75,72.167S146.334,41.3,144.933,0L114.751,1.084c.818,24.1-17.451,44.315-40.8,45.156S31,28.229,30.182,4.132Z" transform="translate(0.049 67.595)" fill="#ff9e74"/>
      </g>
      <ellipse id="Ellipse_13685" data-name="Ellipse 13685" cx="58.366" cy="58.462" rx="58.366" ry="58.462" transform="translate(16.722 16.827)" fill="#fff"/>
    </g>
    <g id="Filled_outline" data-name="Filled outline" transform="translate(727.514 1731.58)">
      <path id="Path_1032679" data-name="Path 1032679" d="M199.185,210.557V200H186.711v10.557a2.5,2.5,0,0,1-1.852,2.41l-11.3,3.015A7.484,7.484,0,0,0,168,223.214v21.693h49.9V223.214a7.484,7.484,0,0,0-5.556-7.231l-11.3-3.014A2.5,2.5,0,0,1,199.185,210.557Z" transform="translate(-128.3 -155.31)" fill="#fec9a3"/>
      <path id="Path_1032680" data-name="Path 1032680" d="M292.065,213.721a8.508,8.508,0,0,0,4.43-1.254,2.488,2.488,0,0,1-.9-1.91V200H283.12v10.557a2.488,2.488,0,0,1-.9,1.91,8.509,8.509,0,0,0,4.43,1.254Z" transform="translate(-224.708 -155.31)" fill="#feb784"/>
      <path id="Path_1032681" data-name="Path 1032681" d="M212.34,286.816l-10.863-2.9a8.728,8.728,0,0,1-17.058,0l-10.863,2.9A7.484,7.484,0,0,0,168,294.048V315.74h49.9V294.048a7.484,7.484,0,0,0-5.556-7.231Z" transform="translate(-128.3 -226.144)" fill="#c7ae71"/>
      <path id="Path_1032682" data-name="Path 1032682" d="M168,384h9.979v16.216H168Z" transform="translate(-128.3 -310.62)" fill="#fec9a3"/>
      <path id="Path_1032683" data-name="Path 1032683" d="M424,384h9.979v16.216H424Z" transform="translate(-344.383 -310.62)" fill="#feb784"/>
      <path id="Path_1032684" data-name="Path 1032684" d="M56,456H99.659v4.99H56Z" transform="translate(-33.763 -371.393)" fill="#c7c7c5"/>
      <path id="Path_1032685" data-name="Path 1032685" d="M57.94,352.948H31.28a2.856,2.856,0,0,1-2.693-1.907,2.574,2.574,0,0,1-.1-.329l-4.439-19.977a2.313,2.313,0,0,1-.053-.486A2.247,2.247,0,0,1,26.248,328H54.087a2.861,2.861,0,0,1,2.805,2.3l.388,1.946,3.458,17.289a2.854,2.854,0,0,1-2.8,3.415Z" transform="translate(-6.753 -263.351)" fill="#e0e0de"/>
      <ellipse id="Ellipse_13804" data-name="Ellipse 13804" cx="2.387" cy="2.607" rx="2.387" ry="2.607" transform="matrix(0.691, -0.723, 0.723, 0.691, 31.199, 77.015)" fill="#ebebe9"/>
      <path id="Path_1032686" data-name="Path 1032686" d="M379.227,400.216h-9.979L368,384h12.474Z" transform="translate(-297.115 -310.62)" fill="#d6d6d4"/>
      <path id="Path_1032687" data-name="Path 1032687" d="M370.461,416l.48,6.237h10.747l.48-6.237Z" transform="translate(-299.192 -337.63)" fill="#95573a"/>
      <path id="Path_1032688" data-name="Path 1032688" d="M383.484,211.227v1.247A7.484,7.484,0,0,0,376,219.958V223.7h9.979v-2.495a2.5,2.5,0,0,1,2.495-2.495,2.5,2.5,0,0,0,2.495-2.495v-1.247a3.742,3.742,0,0,1,3.742-3.742V200A11.227,11.227,0,0,0,383.484,211.227Z" transform="translate(-303.867 -155.31)" fill="#ebebe9"/>
      <path id="Path_1032689" data-name="Path 1032689" d="M410.495,416h9.979v11.227h-9.979A2.5,2.5,0,0,1,408,424.732v-6.237A2.5,2.5,0,0,1,410.495,416Z" transform="translate(-330.878 -337.63)" fill="#fec9a3"/>
      <path id="Path_1032690" data-name="Path 1032690" d="M401.247,120H400v7.484h1.247a3.742,3.742,0,1,0,0-7.484Z" transform="translate(-324.125 -87.784)" fill="#feb784"/>
      <path id="Path_1032691" data-name="Path 1032691" d="M227.8,120h-.062a3.742,3.742,0,0,0,0,7.484h1.247V120Z" transform="translate(-175.568 -87.784)" fill="#feb784"/>
      <path id="Path_1032692" data-name="Path 1032692" d="M267.227,73.68A11.227,11.227,0,0,1,256,62.453V51.227a11.227,11.227,0,1,1,22.453,0V62.453A11.227,11.227,0,0,1,267.227,73.68Z" transform="translate(-202.578 -20.258)" fill="#fec9a3"/>
      <path id="Path_1032693" data-name="Path 1032693" d="M314.495,40a11.233,11.233,0,0,0-2.495.288,11.224,11.224,0,0,1,8.732,10.939V62.453A11.224,11.224,0,0,1,312,73.392a11.2,11.2,0,0,0,13.721-10.939V51.227A11.227,11.227,0,0,0,314.495,40Z" transform="translate(-249.846 -20.258)" fill="#fec093"/>
      <circle id="Ellipse_13805" data-name="Ellipse 13805" cx="1.769" cy="1.769" r="1.769" transform="translate(56.959 32.197)" fill="#7a432a"/>
      <circle id="Ellipse_13806" data-name="Ellipse 13806" cx="1.769" cy="1.769" r="1.769" transform="translate(68.456 32.197)" fill="#7a432a"/>
      <path id="Path_1032694" data-name="Path 1032694" d="M305.248,126.6h4.99V124.1h-3.259l1.948-5.842-2.367-.789-2.495,7.484a1.247,1.247,0,0,0,1.183,1.642Z" transform="translate(-243.095 -85.647)" fill="#f7a468"/>
      <path id="Path_1032695" data-name="Path 1032695" d="M256,120l4.249,6.373a2.5,2.5,0,0,0,2.076,1.111h9.8a2.5,2.5,0,0,0,2.076-1.111L278.453,120v15.183a8.518,8.518,0,0,1-8.518,8.518h-5.418A8.518,8.518,0,0,1,256,135.183Z" transform="translate(-202.578 -87.784)" fill="#7a432a"/>
      <path id="Path_1032696" data-name="Path 1032696" d="M322.631,126.373a2.477,2.477,0,0,1-.741.7v8.1a8.518,8.518,0,0,1-8.518,8.518h4.99a8.518,8.518,0,0,0,8.518-8.518V120Z" transform="translate(-251.005 -87.784)" fill="#743b20"/>
      <path id="Path_1032697" data-name="Path 1032697" d="M311.123,184.344a15.45,15.45,0,0,1-4.482.657H304V187.5h2.64a17.944,17.944,0,0,0,5.206-.764Z" transform="translate(-243.094 -142.095)" fill="#fec9a3"/>
      <path id="Path_1032698" data-name="Path 1032698" d="M263.8,55.484h18.423a11.232,11.232,0,0,0-5.388-7.255A7.47,7.47,0,0,0,275.031,48h-8.869a11.249,11.249,0,0,0-5.349,5.97A3.726,3.726,0,0,0,263.8,55.484Z" transform="translate(-206.641 -27.01)" fill="#fec093"/>
      <path id="Path_1032699" data-name="Path 1032699" d="M256,52.474V46.237C256,42.1,258.792,40,262.237,40l-.22.79A31.341,31.341,0,0,1,256,52.474Z" transform="translate(-202.578 -20.258)" fill="#95573a"/>
      <path id="Path_1032700" data-name="Path 1032700" d="M366.237,52.474V44.99c0-4.134-2.792-4.99-6.237-4.99l.22.79A31.34,31.34,0,0,0,366.237,52.474Z" transform="translate(-290.362 -20.258)" fill="#95573a"/>
      <path id="Path_1032701" data-name="Path 1032701" d="M278.453,39.484H259.742A3.742,3.742,0,0,1,256,35.742V32h16.216a6.237,6.237,0,0,1,6.237,6.237Z" transform="translate(-202.578 -13.505)" fill="#7a432a"/>
      <path id="Path_1032702" data-name="Path 1032702" d="M332.99,32H328a6.237,6.237,0,0,1,6.237,6.237v1.247h4.99V38.237A6.237,6.237,0,0,0,332.99,32Z" transform="translate(-263.352 -13.505)" fill="#743b20"/>
      <path id="Path_1032703" data-name="Path 1032703" d="M380.282,386.495l.192-2.495H368l.192,2.495Z" transform="translate(-297.115 -310.62)" fill="#c7c7c5"/>
      <path id="Path_1032704" data-name="Path 1032704" d="M360,352h14.969v4.99H360Z" transform="translate(-290.362 -283.609)" fill="#7a432a"/>
      <path id="Path_1032705" data-name="Path 1032705" d="M424,352h4.99v4.99H424Z" transform="translate(-344.383 -283.609)" fill="#743b20"/>
      <path id="Path_1032706" data-name="Path 1032706" d="M379.375,287.9A7.474,7.474,0,0,0,376,294.153v3.742h9.979V295.4a2.5,2.5,0,0,1,2.495-2.495,2.484,2.484,0,0,0,2.183-1.31,7.432,7.432,0,0,0-2.749-1.42Z" transform="translate(-303.867 -229.504)" fill="#d4bd81"/>
      <path id="Path_1032707" data-name="Path 1032707" d="M82.773,375.924H56.113a2.856,2.856,0,0,1-2.693-1.907c10.179-3.2,21.366-8.855,28.693-18.8l3.458,17.289a2.854,2.854,0,0,1-2.8,3.415Z" transform="translate(-31.586 -286.327)" fill="#d6d6d4"/>
      <path id="Path_1032708" data-name="Path 1032708" d="M115.449,384a3.495,3.495,0,0,0-3.517,3.851,4,4,0,0,0,3.958,3.633,3.495,3.495,0,0,0,3.517-3.851A4,4,0,0,0,115.449,384Zm1.216,4.667a1.034,1.034,0,0,1-.777.322,1.531,1.531,0,0,1-1.472-1.357,1.052,1.052,0,0,1,.256-.815,1.034,1.034,0,0,1,.777-.322,1.531,1.531,0,0,1,1.472,1.357,1.052,1.052,0,0,1-.255.815Z" transform="translate(-80.959 -310.618)"/>
      <path id="Path_1032709" data-name="Path 1032709" d="M79.636,58.412a1.239,1.239,0,0,0,1.228-1.247V55.917a9.99,9.99,0,0,1,9.979-9.979V43.443A12.488,12.488,0,0,0,78.37,55.917v.089a8.666,8.666,0,0,0-3.056,1.049L73.5,56.57h-.006l-.434-.116a1.249,1.249,0,0,1-.78-.618,9.835,9.835,0,0,0,2.467-2.052,9.936,9.936,0,0,0,2.377-6.513V40.948a4.99,4.99,0,0,0,0-9.979s-.006-6.6-.01-6.668v-.01a7.655,7.655,0,0,0-.214-1.534l-.009-.036h0a8.745,8.745,0,0,0-8.5-6.72H53.422a1.247,1.247,0,0,0-1.247,1.247V20.99a4.957,4.957,0,0,0,.469,2.109,8.583,8.583,0,0,0-.469,2.881v4.99a4.99,4.99,0,0,0,0,9.979v6.323a9.935,9.935,0,0,0,2.376,6.513,9.832,9.832,0,0,0,2.466,2.051,1.247,1.247,0,0,1-.778.618l-.44.117h0l-10.863,2.9A8.772,8.772,0,0,0,39.7,63.4H19.5a3.5,3.5,0,0,0-3.412,4.254l4.89,21.254A2.5,2.5,0,0,0,23.4,90.844H89.6A1.247,1.247,0,0,0,90.844,89.6V67.9a8.683,8.683,0,0,0-2.582-6.2,3.741,3.741,0,0,0,.087-.8V59.659a2.5,2.5,0,0,1,2.495-2.495V54.669a5,5,0,0,0-4.99,4.99v1.247A1.252,1.252,0,0,1,84.6,62.154,3.746,3.746,0,0,0,80.865,65.9v1.247H73.38V64.649a6.244,6.244,0,0,1,6.256-6.237ZM63.465,31.822l-2.211,6.632H59.747a1.245,1.245,0,0,1-1.038-.555l-3.742-5.613a31.453,31.453,0,0,0,3.808-6.305H70.522a31.453,31.453,0,0,0,3.809,6.3L70.589,37.9a1.245,1.245,0,0,1-1.039.556H63.884l1.947-5.843Zm-7.391-5.964q-.647,1.3-1.4,2.51V25.979q0-.337.029-.655a4.956,4.956,0,0,0,1.375.533Zm18.553.121v2.39q-.721-1.152-1.343-2.39Zm4.99,9.979a2.5,2.5,0,0,1-2.495,2.495v-4.99a2.5,2.5,0,0,1,2.495,2.495ZM54.669,18.495H68.391a6.248,6.248,0,0,1,6.112,4.99H57.164a2.5,2.5,0,0,1-2.495-2.495ZM49.68,35.958a2.5,2.5,0,0,1,2.495-2.495v4.99A2.5,2.5,0,0,1,49.68,35.958ZM54.669,47.4V36.336l1.964,2.946a3.735,3.735,0,0,0,3.114,1.666h9.8a3.735,3.735,0,0,0,3.114-1.667l1.964-2.945V47.4a7.27,7.27,0,0,1-7.27,7.27H61.94a7.27,7.27,0,0,1-7.27-7.27Zm7.27,9.765h5.418a9.807,9.807,0,0,0,2.623-.358,3.751,3.751,0,0,0,1.665,1.754,7.478,7.478,0,0,1-13.995,0,3.751,3.751,0,0,0,1.665-1.754,9.808,9.808,0,0,0,2.624.358ZM24.527,88.349a1.6,1.6,0,0,1-1.569-1.259L18.518,67.114A1,1,0,0,1,19.5,65.9h27.84a1.617,1.617,0,0,1,1.581,1.3l3.847,19.234a1.607,1.607,0,0,1-1.576,1.923Zm40.122,0H54.962a4.089,4.089,0,0,0,.248-2.412l-.017-.083h9.455ZM84.607,74.628h3.742v2.495H84.323l.192-2.495Zm-2.786,2.495h-9.4l-.192-2.495h9.78ZM75.875,83.36H72.9l-.288-3.742h3.473C75.951,80.007,75.875,83.36,75.875,83.36ZM73.1,85.855h2.779a19.722,19.722,0,0,0,.215,2.495h-2.8Zm15.253,2.495H79.617A1.249,1.249,0,0,1,78.37,87.1V80.865a1.249,1.249,0,0,1,1.247-1.247h8.732ZM83.359,65.9a1.249,1.249,0,0,1,1.247-1.247,3.722,3.722,0,0,0,2.268-.769A6.2,6.2,0,0,1,88.349,67.9v4.229H85.854V68.391a1.247,1.247,0,0,0-1.247-1.247H83.359Zm0,3.742v2.495H70.885V69.638ZM69.638,67.143a1.247,1.247,0,0,0-1.247,1.247v4.99a1.247,1.247,0,0,0,1.247,1.247h.092l1.055,13.721H67.143V84.607A1.247,1.247,0,0,0,65.9,83.36h-11.2L51.363,66.7a4.118,4.118,0,0,0-4.028-3.3H42.873a6.254,6.254,0,0,1,2.7-1.523L55.262,59.3a9.951,9.951,0,0,0,15.685,4.341c-.039.333-.061,3.507-.061,3.507Z" transform="translate(0)"/>
      <path id="Path_1032710" data-name="Path 1032710" d="M281.871,120a1.871,1.871,0,1,0,1.871,1.871A1.871,1.871,0,0,0,281.871,120Z" transform="translate(-222.836 -87.784)"/>
      <path id="Path_1032711" data-name="Path 1032711" d="M353.871,123.742A1.871,1.871,0,1,0,352,121.871,1.871,1.871,0,0,0,353.871,123.742Z" transform="translate(-283.609 -87.784)"/>
      <path id="Path_1032712" data-name="Path 1032712" d="M311.846,186.732l-.723-2.388a15.453,15.453,0,0,1-4.482.657H304V187.5h2.64A17.937,17.937,0,0,0,311.846,186.732Z" transform="translate(-243.094 -142.095)"/>
    </g>
  </g>
</svg>
