<svg xmlns="http://www.w3.org/2000/svg" width="149.909" height="150" viewBox="0 0 149.909 150">
  <g id="img52" transform="translate(-705.985 -1710.002)">
    <g id="Group_1180300" data-name="Group 1180300" transform="translate(705.936 1710.002)">
      <g id="Grupo_155253" data-name="Grupo 155253" transform="matrix(0.999, 0.035, -0.035, 0.999, 5.062, 0)">
        <path id="Trazado_196478" data-name="Trazado 196478" d="M20.377,22.814q-.452.483-.9.974A75.7,75.7,0,0,0,.051,77.428l30.182-1.084c-.818-24.1,17.45-44.315,40.8-45.157S113.985,49.2,114.8,73.3l30.182-1.084c-1.018-30-19.313-56.469-46.471-67.234A70.928,70.928,0,0,0,20.377,22.822" transform="translate(0 0)" fill="#f9ce5d"/>
        <path id="Trazado_196479" data-name="Trazado 196479" d="M0,5.22c1.4,41.3,34.98,73.608,75,72.167S146.334,41.3,144.933,0L114.751,1.084c.818,24.1-17.451,44.315-40.8,45.156S31,28.229,30.182,4.132Z" transform="translate(0.049 67.595)" fill="#ff9e74"/>
      </g>
      <ellipse id="Ellipse_13685" data-name="Ellipse 13685" cx="58.366" cy="58.462" rx="58.366" ry="58.462" transform="translate(16.722 16.827)" fill="#fff"/>
    </g>
    <g id="Group_1184596" data-name="Group 1184596" transform="translate(675.393 1745.471)">
      <g id="Group_1184594" data-name="Group 1184594" transform="translate(81.442 1.236)">
        <path id="Path_1032584" data-name="Path 1032584" d="M108.865,32.931A26.125,26.125,0,0,1,104.486,18.2a11.229,11.229,0,0,0,4.8,0c4.408-1.189,8.744-9.933,16.385-10.188s9.123,3.311,9.123,3.311a11.61,11.61,0,0,1,7.008-1.1c6.282.849,11.8,10.42,6.192,23.568" transform="translate(-103.778 -8)" fill="#565e75"/>
        <path id="Path_1032585" data-name="Path 1032585" d="M189.158,86.294a55.711,55.711,0,0,1-6.983-8.687.773.773,0,0,0-1.214-.086,33.029,33.029,0,0,1-17.689,9.656A2.314,2.314,0,0,0,161.4,89.45v7.194a14.607,14.607,0,0,0,29.215,0V89.67a4.588,4.588,0,0,0-1.46-3.376Z" transform="translate(-151.91 -66.571)" fill="#fdd4bb"/>
        <path id="Path_1032586" data-name="Path 1032586" d="M176.011,199.357A14.607,14.607,0,0,1,161.4,184.75v2.78a14.607,14.607,0,0,0,29.215,0v-2.78A14.607,14.607,0,0,1,176.011,199.357Z" transform="translate(-151.909 -157.457)" fill="#f7c4a8"/>
        <path id="Path_1032587" data-name="Path 1032587" d="M124.509,171.43v-5.159a4.55,4.55,0,1,0,.245,7.831A14.7,14.7,0,0,1,124.509,171.43Z" transform="translate(-115.014 -141.358)" fill="#ebbaa1"/>
        <path id="Path_1032588" data-name="Path 1032588" d="M349.256,171.43v-5.159a4.55,4.55,0,1,1-.245,7.831A14.679,14.679,0,0,0,349.256,171.43Z" transform="translate(-310.547 -141.358)" fill="#ebbaa1"/>
        <path id="Path_1032589" data-name="Path 1032589" d="M122.32,189.33a4.55,4.55,0,0,1-4.332-3.159,4.549,4.549,0,0,0,6.765,5.233,14.681,14.681,0,0,1-.244-2.636A4.522,4.522,0,0,1,122.32,189.33Z" transform="translate(-115.014 -158.658)" fill="#e8a990"/>
        <path id="Path_1032590" data-name="Path 1032590" d="M351.444,189.33a4.522,4.522,0,0,1-2.189-.563,14.693,14.693,0,0,1-.244,2.636,4.549,4.549,0,0,0,6.765-5.233,4.55,4.55,0,0,1-4.332,3.159Z" transform="translate(-310.547 -158.658)" fill="#e8a990"/>
        <path id="Path_1032591" data-name="Path 1032591" d="M130.862,286.343a14.623,14.623,0,0,1-13.683,0,21.743,21.743,0,0,0-17.26,21.274v12.336h48.2V307.617a21.744,21.744,0,0,0-17.26-21.274Z" transform="translate(-99.919 -243.362)" fill="#adf0ff"/>
        <path id="Path_1032592" data-name="Path 1032592" d="M99.919,486h48.2v2.78h-48.2Z" transform="translate(-99.919 -412.188)" fill="#8deaf5"/>
        <path id="Path_1032593" data-name="Path 1032593" d="M218.158,287.91a14.543,14.543,0,0,1-6.887-1.723c-.014.18-.023.36-.023.544a6.91,6.91,0,0,0,13.821,0c0-.183-.009-.364-.023-.544A14.54,14.54,0,0,1,218.158,287.91Z" transform="translate(-194.057 -243.23)" fill="#ebbaa1"/>
        <path id="Path_1032594" data-name="Path 1032594" d="M230.148,217.065a4.721,4.721,0,0,0-4.721,4.721h9.442A4.721,4.721,0,0,0,230.148,217.065Z" transform="translate(-206.046 -184.782)" fill="#f4594e"/>
        <path id="Path_1032595" data-name="Path 1032595" d="M340.363,458.367h11.075v7.047H340.363Z" transform="translate(-303.234 -388.822)" fill="#fdd4bb"/>
        <path id="Path_1032596" data-name="Path 1032596" d="M0,0H11.075V7.047H0Z" transform="translate(11.075 76.591) rotate(180)" fill="#fdd4bb"/>
        <path id="Path_1032597" data-name="Path 1032597" d="M340.363,486h11.075v2.78H340.363Z" transform="translate(-303.234 -412.188)" fill="#f7c4a8"/>
        <path id="Path_1032598" data-name="Path 1032598" d="M99.919,486h11.075v2.78H99.919Z" transform="translate(-99.919 -412.188)" fill="#f7c4a8"/>
        <path id="Path_1032599" data-name="Path 1032599" d="M184.009,78.936s3.676,2.451,3.676,5.69a3.676,3.676,0,0,1-7.353,0C180.333,81.387,184.009,78.936,184.009,78.936Z" transform="translate(-167.916 -67.982)" fill="#adf0ff"/>
        <path id="Path_1032600" data-name="Path 1032600" d="M184.009,108.671a3.677,3.677,0,0,1-3.432-2.359,4.653,4.653,0,0,0-.244,1.462,3.676,3.676,0,0,0,7.353,0,4.65,4.65,0,0,0-.244-1.462A3.677,3.677,0,0,1,184.009,108.671Z" transform="translate(-167.916 -91.131)" fill="#8deaf5"/>
      </g>
      <g id="Group_1184595" data-name="Group 1184595" transform="translate(78.068 0)">
        <path id="Path_1032601" data-name="Path 1032601" d="M219.007,216.521h9.46a1.161,1.161,0,0,0,1.162-1.162,5.892,5.892,0,1,0-11.783,0A1.161,1.161,0,0,0,219.007,216.521Zm4.73-4.73a3.575,3.575,0,0,1,3.374,2.407h-6.749A3.575,3.575,0,0,1,223.738,211.791Z" transform="translate(-196.262 -177.123)"/>
        <path id="Path_1032602" data-name="Path 1032602" d="M193.593,163.781c.027-.007.248-.069.591-.2v.162a1.162,1.162,0,0,0,2.323,0v-1.473a8.88,8.88,0,0,0,.834-.721,1.162,1.162,0,0,0-1.628-1.657,7.184,7.184,0,0,1-2.736,1.654,1.162,1.162,0,0,0,.616,2.24Z" transform="translate(-174.513 -134.916)"/>
        <path id="Path_1032603" data-name="Path 1032603" d="M284.182,159.9a1.161,1.161,0,0,0,.015,1.643,8.866,8.866,0,0,0,.834.721v1.473a1.162,1.162,0,1,0,2.323,0v-.162c.343.135.564.2.591.2a1.162,1.162,0,0,0,.617-2.24,7.182,7.182,0,0,1-2.736-1.654,1.162,1.162,0,0,0-1.643.015Z" transform="translate(-252.073 -134.918)"/>
        <path id="Path_1032604" data-name="Path 1032604" d="M110.8,76.739h-5.289V64.206a1.162,1.162,0,1,0-2.323,0v5.473H94.418V65.541a20.624,20.624,0,0,1,14.961-19.829,8.083,8.083,0,0,0,16.051,0,20.6,20.6,0,0,1,8.3,4.65,1.161,1.161,0,0,0,1.572-1.71,22.941,22.941,0,0,0-8.239-4.865A15.845,15.845,0,0,0,132.6,35.6a5.715,5.715,0,0,0,6.287-8.794c2.864-7.11,2.877-14.028.014-19.067a10.381,10.381,0,0,0-7.4-5.5,13.445,13.445,0,0,0-6.779.788,6.792,6.792,0,0,0-1.465-1.261C121.3.489,118.567-.1,115.149.014c-2.834.095-5.5,1.212-8.381,3.518a1.161,1.161,0,0,0,1.45,1.814c2.474-1.977,4.7-2.934,7.008-3.011,6.4-.212,7.929,2.42,8.034,2.616a1.108,1.108,0,0,0,.683.656,1.151,1.151,0,0,0,.973-.114,10.648,10.648,0,0,1,6.277-.956,8.1,8.1,0,0,1,5.691,4.35c1.163,2.048,3.4,7.6.161,16.256A5.684,5.684,0,0,0,133.2,24.5v-.19a5.77,5.77,0,0,0-1.837-4.236,54.9,54.9,0,0,1-6.82-8.5,1.935,1.935,0,0,0-3.037-.223,29,29,0,0,1-7.333,5.743c-.466-3.428-3.989-5.815-4.149-5.922a1.162,1.162,0,0,0-1.288,0c-.172.114-4.2,2.844-4.2,6.667a4.814,4.814,0,0,0,.784,2.638c-.3.069-.6.135-.9.193a3.487,3.487,0,0,0-2.811,3.417V24.5a5.677,5.677,0,0,0-2.819.193,25.721,25.721,0,0,1-3.643-11.947,11.181,11.181,0,0,0,3.928-.238c2.031-.548,3.933-2.362,5.774-4.117a1.161,1.161,0,0,0-1.6-1.681c-1.63,1.554-3.315,3.162-4.775,3.555a10.135,10.135,0,0,1-4.235-.008,1.161,1.161,0,0,0-1.43,1.113,27.588,27.588,0,0,0,3.968,14.489,5.716,5.716,0,0,0,5.433,9.747,15.845,15.845,0,0,0,5.545,8.185A22.945,22.945,0,0,0,92.095,65.54V77.9a1.161,1.161,0,0,0,1.162,1.162H110.8a1.161,1.161,0,1,0,0-2.322Zm23.43-50.015a3.4,3.4,0,1,1-1.16,6.588,15.877,15.877,0,0,0,.129-2.019V26.884A3.4,3.4,0,0,1,134.233,26.724ZM108.368,14.586a10.259,10.259,0,0,1,1.014-.983,10.276,10.276,0,0,1,1.014.983,5.227,5.227,0,0,1,1.508,3.251,2.522,2.522,0,0,1-5.044,0A5.227,5.227,0,0,1,108.368,14.586Zm-7.791,18.93a3.4,3.4,0,1,1,1.031-6.632v4.408a15.879,15.879,0,0,0,.129,2.019,3.389,3.389,0,0,1-1.16.2Zm3.354-2.224V24.085a1.159,1.159,0,0,1,.933-1.137c.868-.17,1.761-.385,2.66-.637a4.843,4.843,0,0,0,6.224-2.376,31.814,31.814,0,0,0,9.142-6.663,55.344,55.344,0,0,0,6.9,8.5,3.441,3.441,0,0,1,1.089,2.529v6.987a13.474,13.474,0,1,1-26.948,0Zm13.474,15.8a15.719,15.719,0,0,0,5.609-1.03,5.761,5.761,0,0,1-11.219,0A15.718,15.718,0,0,0,117.4,47.089Zm-14.214,29.65H94.418V72h8.773Z" transform="translate(-89.929 0)"/>
        <path id="Path_1032605" data-name="Path 1032605" d="M258.4,335.818a1.161,1.161,0,0,0-.278,1.619,20.479,20.479,0,0,1,3.769,11.885v4.138h-8.773v-5.473a1.162,1.162,0,1,0-2.323,0V360.52H236.943a1.162,1.162,0,1,0,0,2.323h26.109a1.161,1.161,0,0,0,1.162-1.162v-12.36a22.789,22.789,0,0,0-4.2-13.226A1.161,1.161,0,0,0,258.4,335.818Zm3.491,24.7h-8.773v-4.737h8.773Z" transform="translate(-211.427 -283.781)"/>
        <path id="Path_1032606" data-name="Path 1032606" d="M303.424,133.218a1.161,1.161,0,0,0,1.162-1.162v-1.123a1.162,1.162,0,1,0-2.323,0v1.123A1.161,1.161,0,0,0,303.424,133.218Z" transform="translate(-267.643 -109.733)"/>
        <path id="Path_1032607" data-name="Path 1032607" d="M281.435,112.806a1.161,1.161,0,0,0,1.162-1.162v-1.123a1.162,1.162,0,1,0-2.323,0v1.123A1.161,1.161,0,0,0,281.435,112.806Z" transform="translate(-249.049 -92.473)"/>
        <path id="Path_1032608" data-name="Path 1032608" d="M256.87,129.583a1.161,1.161,0,0,0,1.161-1.162V127.3a1.162,1.162,0,1,0-2.323,0v1.123A1.161,1.161,0,0,0,256.87,129.583Z" transform="translate(-228.277 -106.659)"/>
        <path id="Path_1032609" data-name="Path 1032609" d="M87.507,277.307a1.161,1.161,0,1,0-1.294-1.929,28.873,28.873,0,0,0-7.959,8.351,1.162,1.162,0,1,0,1.952,1.259A26.541,26.541,0,0,1,87.507,277.307Z" transform="translate(-78.068 -232.688)"/>
        <path id="Path_1032610" data-name="Path 1032610" d="M379.242,283.728a28.877,28.877,0,0,0-7.959-8.351,1.161,1.161,0,0,0-1.294,1.929,26.547,26.547,0,0,1,7.3,7.68,1.161,1.161,0,0,0,1.952-1.259Z" transform="translate(-324.476 -232.688)"/>
      </g>
    </g>
  </g>
</svg>
