<svg id="img6" xmlns="http://www.w3.org/2000/svg" width="84" height="84" viewBox="0 0 84 84">
  <rect id="Rectangle_456663" data-name="Rectangle 456663" width="84" height="84" fill="#ff9e74"/>
  <g id="Group_1184899" data-name="Group 1184899" transform="translate(12.168 12.168)">
    <g id="Group_1184897" data-name="Group 1184897" transform="translate(0.962 0.962)">
      <g id="Group_1184886" data-name="Group 1184886" transform="translate(37.709 5.774)">
        <path id="Path_1033569" data-name="Path 1033569" d="M341.509,56.962v3.849a.962.962,0,0,1-.962.962H323.225V57.925H322.8A1.327,1.327,0,0,1,321.621,56h18.926A.962.962,0,0,1,341.509,56.962Z" transform="translate(-321.478 -56)" fill="#aab2bd"/>
      </g>
      <g id="Group_1184887" data-name="Group 1184887" transform="translate(0 36.569)">
        <path id="Path_1033570" data-name="Path 1033570" d="M65.74,312.962v3.849a.962.962,0,0,1-.962.962H8.962A.962.962,0,0,1,8,316.812v-3.849A.962.962,0,0,1,8.962,312H64.778A.962.962,0,0,1,65.74,312.962Z" transform="translate(-8 -312)" fill="#aab2bd"/>
      </g>
      <g id="Group_1184888" data-name="Group 1184888" transform="translate(0 5.774)">
        <path id="Path_1033571" data-name="Path 1033571" d="M27.888,56a1.327,1.327,0,0,1-1.182,1.925h-.421v3.849H8.962A.962.962,0,0,1,8,60.812V56.962A.962.962,0,0,1,8.962,56Z" transform="translate(-8 -56)" fill="#aab2bd"/>
      </g>
      <g id="Group_1184889" data-name="Group 1184889" transform="translate(1.925 11.548)">
        <path id="Path_1033572" data-name="Path 1033572" d="M50.945,113.623h2.887V113.2a1.323,1.323,0,0,1,2.259-.936l.3.3,4.084-4.084-.3-.3a1.323,1.323,0,0,1,.936-2.259h.421V104h16.36v25.021H24V104H40.36v1.925h.421a1.323,1.323,0,0,1,.936,2.259l-.3.3,4.084,4.084.3-.3a1.323,1.323,0,0,1,2.259.936v.421Z" transform="translate(-24 -104)" fill="#e6e9ed"/>
      </g>
      <g id="Group_1184890" data-name="Group 1184890" transform="translate(48.117 17.322)">
        <path id="Path_1033573" data-name="Path 1033573" d="M411.849,152.962v13.473a.962.962,0,0,1-.962.962H408V152.962a.962.962,0,0,1,.962-.962h1.925A.962.962,0,0,1,411.849,152.962Z" transform="translate(-408 -152)" fill="#ff826e"/>
      </g>
      <g id="Group_1184891" data-name="Group 1184891" transform="translate(40.418 23.096)">
        <path id="Path_1033574" data-name="Path 1033574" d="M347.849,200.962v8.661H344v-8.661a.962.962,0,0,1,.962-.962h1.925A.962.962,0,0,1,347.849,200.962Z" transform="translate(-344 -200)" fill="#ff826e"/>
      </g>
      <g id="Group_1184892" data-name="Group 1184892" transform="translate(32.719 28.87)">
        <path id="Path_1033575" data-name="Path 1033575" d="M283.849,248.962v2.887H280v-2.887a.962.962,0,0,1,.962-.962h1.925A.962.962,0,0,1,283.849,248.962Z" transform="translate(-280 -248)" fill="#ff826e"/>
      </g>
      <g id="Group_1184893" data-name="Group 1184893" transform="translate(21.171 26.945)">
        <path id="Path_1033576" data-name="Path 1033576" d="M187.849,232.962v4.812H184v-4.812a.962.962,0,0,1,.962-.962h1.925A.962.962,0,0,1,187.849,232.962Z" transform="translate(-184 -232)" fill="#ff826e"/>
      </g>
      <g id="Group_1184894" data-name="Group 1184894" transform="translate(13.473 23.096)">
        <path id="Path_1033577" data-name="Path 1033577" d="M123.849,200.962v8.661H120v-8.661a.962.962,0,0,1,.962-.962h1.925A.962.962,0,0,1,123.849,200.962Z" transform="translate(-120 -200)" fill="#ff826e"/>
      </g>
      <g id="Group_1184895" data-name="Group 1184895" transform="translate(5.774 28.87)">
        <path id="Path_1033578" data-name="Path 1033578" d="M59.849,248.962v2.887H56.962a.962.962,0,0,1-.962-.962v-1.925a.962.962,0,0,1,.962-.962h1.925A.962.962,0,0,1,59.849,248.962Z" transform="translate(-56 -248)" fill="#ff826e"/>
      </g>
      <g id="Group_1184896" data-name="Group 1184896" transform="translate(18.284)">
        <path id="Path_1033579" data-name="Path 1033579" d="M181.171,19.548v1.925h-.421a1.323,1.323,0,0,0-.936,2.259l.3.3-4.084,4.084-.3-.3a1.323,1.323,0,0,0-2.259.936v.421H167.7V28.75a1.323,1.323,0,0,0-2.259-.936l-.3.3-4.084-4.084.3-.3a1.323,1.323,0,0,0-.936-2.259H160V15.7h.421a1.327,1.327,0,0,0,1.182-1.925,1.362,1.362,0,0,0-.247-.334l-.3-.3,4.084-4.084.3.3a1.323,1.323,0,0,0,2.259-.936V8h5.774v.421a1.323,1.323,0,0,0,2.259.936l.3-.3,4.084,4.084-.3.3a1.327,1.327,0,0,0-.245.334h0A1.327,1.327,0,0,0,180.75,15.7h.421Z" transform="translate(-160 -8)" fill="#fcd770"/>
      </g>
    </g>
    <g id="Group_1184898" data-name="Group 1184898" transform="translate(0 0)">
      <path id="Path_1033580" data-name="Path 1033580" d="M226.887,49.623a.963.963,0,0,1-.962-.962H224a2.892,2.892,0,0,0,1.925,2.721v2.09h1.925V51.548h1.925V48.661a2.89,2.89,0,0,0-2.887-2.887.963.963,0,0,1-.962-.962v-.962h.962a.963.963,0,0,1,.962.962h1.925a2.892,2.892,0,0,0-1.925-2.721V40h-1.925v1.925H224v2.887a2.89,2.89,0,0,0,2.887,2.887.963.963,0,0,1,.962.962v.962Z" transform="translate(-197.055 -35.188)"/>
      <path id="Path_1033581" data-name="Path 1033581" d="M59.665,11.548V7.7A1.927,1.927,0,0,0,57.74,5.774H40.39L35.276.66l-.978.978a.361.361,0,0,1-.616-.255V0h-7.7V1.384a.361.361,0,0,1-.616.255L24.389.66,19.275,5.774H1.925A1.927,1.927,0,0,0,0,7.7v3.849a1.927,1.927,0,0,0,1.925,1.925v23.1A1.927,1.927,0,0,0,0,38.493v3.849a1.927,1.927,0,0,0,1.925,1.925H28.87v4.3L14.864,57.9l1.068,1.6L28.87,50.877v8.788h1.925V50.877L43.734,59.5,44.8,57.9,30.795,48.564v-4.3H57.74a1.927,1.927,0,0,0,1.925-1.925V38.493a1.927,1.927,0,0,0-1.925-1.925v-23.1a1.927,1.927,0,0,0,1.925-1.925ZM57.74,7.7v3.849H41.38V7.7ZM21.621,6.15l2.813-2.813a2.287,2.287,0,0,0,3.409-1.412h3.978A2.287,2.287,0,0,0,35.23,3.337L38.043,6.15a2.287,2.287,0,0,0,1.412,3.409v3.978a2.287,2.287,0,0,0-1.412,3.409L35.23,19.759a2.287,2.287,0,0,0-3.409,1.412H27.843a2.287,2.287,0,0,0-3.409-1.412l-2.813-2.813a2.287,2.287,0,0,0-1.412-3.409V9.559A2.287,2.287,0,0,0,21.621,6.15ZM1.925,7.7h16.36v3.849H1.925ZM57.741,42.343H1.925V38.493H57.74Zm-1.926-5.774H3.849v-23.1H18.284V15.4h1.384a.361.361,0,0,1,.255.616l-.978.978,5.444,5.444.978-.979a.361.361,0,0,1,.616.255V23.1H28.87v9.623H26.945V28.87a1.927,1.927,0,0,0-1.925-1.925H23.1a1.927,1.927,0,0,0-1.925,1.925v3.849H19.247v-7.7A1.927,1.927,0,0,0,17.322,23.1H15.4a1.927,1.927,0,0,0-1.925,1.925v7.7H11.548V30.795A1.927,1.927,0,0,0,9.623,28.87H7.7a1.927,1.927,0,0,0-1.925,1.925v1.925A1.927,1.927,0,0,0,7.7,34.644H51.966a1.927,1.927,0,0,0,1.925-1.925V19.247a1.927,1.927,0,0,0-1.925-1.925H50.041a1.927,1.927,0,0,0-1.925,1.925V32.719H46.192v-7.7A1.927,1.927,0,0,0,44.267,23.1H42.343a1.927,1.927,0,0,0-1.925,1.925v7.7H38.493V30.795a1.927,1.927,0,0,0-1.925-1.925H34.644a1.927,1.927,0,0,0-1.925,1.925v1.925H30.795V23.1h2.887V21.712a.361.361,0,0,1,.616-.255l.978.979,5.444-5.444-.979-.978A.361.361,0,0,1,40,15.4H41.38V13.473H55.815ZM25.021,32.719H23.1V28.87h1.925Zm-7.7,0H15.4v-7.7h1.925Zm-7.7-1.925v1.925H7.7V30.795Zm26.945,1.925H34.644V30.795h1.925Zm7.7,0H42.343v-7.7h1.925Zm5.774,0V19.247h1.925V32.719Z" transform="translate(0 0)"/>
    </g>
  </g>
</svg>
