<svg xmlns="http://www.w3.org/2000/svg" width="84" height="84" viewBox="0 0 84 84">
  <g id="img8" transform="translate(-517.711 -3973)">
    <rect id="Rectangle_456510" data-name="Rectangle 456510" width="84" height="84" rx="5" transform="translate(517.711 3973)" fill="#ff9e74"/>
    <g id="Group_1184518" data-name="Group 1184518" transform="translate(457.664 3984.858)">
      <path id="Path_1032357" data-name="Path 1032357" d="M126.2,193.3a2.3,2.3,0,0,0-2.3-2.3h-2.355a2.3,2.3,0,0,0-2.3,2.3v2.355a2.3,2.3,0,0,0,2.3,2.3h2.355a2.3,2.3,0,0,0,2.3-2.3Zm-1.766,2.355a.537.537,0,0,1-.53.53h-2.355a.537.537,0,0,1-.53-.53V193.3a.537.537,0,0,1,.53-.53h2.355a.537.537,0,0,1,.53.53Z" transform="translate(-33.311 -168.512)" fill="#2d6250"/>
      <path id="Path_1032358" data-name="Path 1032358" d="M197.7,193.3a2.3,2.3,0,0,0-2.3-2.3h-2.355a2.3,2.3,0,0,0-2.3,2.3v2.355a2.3,2.3,0,0,0,2.3,2.3H195.4a2.3,2.3,0,0,0,2.3-2.3Zm-1.766,2.355a.537.537,0,0,1-.53.53h-2.355a.537.537,0,0,1-.53-.53V193.3a.537.537,0,0,1,.53-.53H195.4a.537.537,0,0,1,.53.53Z" transform="translate(-96.388 -168.512)" fill="#2d6250"/>
      <path id="Path_1032359" data-name="Path 1032359" d="M264.545,197.948H266.9a2.3,2.3,0,0,0,2.3-2.3V193.3a2.3,2.3,0,0,0-2.3-2.3h-2.355a2.3,2.3,0,0,0-2.3,2.3v2.355A2.3,2.3,0,0,0,264.545,197.948Zm-.53-4.651a.537.537,0,0,1,.53-.53H266.9a.537.537,0,0,1,.53.53v2.355a.537.537,0,0,1-.53.53h-2.355a.537.537,0,0,1-.53-.53Z" transform="translate(-159.466 -168.512)" fill="#2d6250"/>
      <path id="Path_1032360" data-name="Path 1032360" d="M340.691,193.3a2.3,2.3,0,0,0-2.3-2.3H336.04a2.3,2.3,0,0,0-2.3,2.3v2.355a2.3,2.3,0,0,0,2.3,2.3h2.355a2.3,2.3,0,0,0,2.3-2.3Zm-1.766,2.355a.537.537,0,0,1-.53.53H336.04a.537.537,0,0,1-.53-.53V193.3a.537.537,0,0,1,.53-.53h2.355a.537.537,0,0,1,.53.53Z" transform="translate(-222.543 -168.512)" fill="#2d6250"/>
      <path id="Path_1032361" data-name="Path 1032361" d="M126.2,265.8a2.3,2.3,0,0,0-2.3-2.3h-2.355a2.3,2.3,0,0,0-2.3,2.3v2.355a2.3,2.3,0,0,0,2.3,2.3h2.355a2.3,2.3,0,0,0,2.3-2.3Zm-1.766,2.355a.537.537,0,0,1-.53.53h-2.355a.537.537,0,0,1-.53-.53V265.8a.537.537,0,0,1,.53-.53h2.355a.537.537,0,0,1,.53.53Z" transform="translate(-33.311 -232.475)" fill="#2d6250"/>
      <path id="Path_1032362" data-name="Path 1032362" d="M197.7,265.8a2.3,2.3,0,0,0-2.3-2.3h-2.355a2.3,2.3,0,0,0-2.3,2.3v2.355a2.3,2.3,0,0,0,2.3,2.3H195.4a2.3,2.3,0,0,0,2.3-2.3Zm-1.766,2.355a.537.537,0,0,1-.53.53h-2.355a.537.537,0,0,1-.53-.53V265.8a.537.537,0,0,1,.53-.53H195.4a.537.537,0,0,1,.53.53Z" transform="translate(-96.388 -232.475)" fill="#2d6250"/>
      <path id="Path_1032363" data-name="Path 1032363" d="M262.249,268.152a2.3,2.3,0,0,0,2.3,2.3H266.9a2.3,2.3,0,0,0,2.3-2.3V265.8a2.3,2.3,0,0,0-2.3-2.3h-2.355a2.3,2.3,0,0,0-2.3,2.3Zm1.766-2.355a.537.537,0,0,1,.53-.53H266.9a.537.537,0,0,1,.53.53v2.355a.537.537,0,0,1-.53.53h-2.355a.537.537,0,0,1-.53-.53Z" transform="translate(-159.466 -232.475)" fill="#2d6250"/>
      <path id="Path_1032364" data-name="Path 1032364" d="M340.691,265.8a2.3,2.3,0,0,0-2.3-2.3H336.04a2.3,2.3,0,0,0-2.3,2.3v2.355a2.3,2.3,0,0,0,2.3,2.3h2.355a2.3,2.3,0,0,0,2.3-2.3Zm-1.766,2.355a.537.537,0,0,1-.53.53H336.04a.537.537,0,0,1-.53-.53V265.8a.537.537,0,0,1,.53-.53h2.355a.537.537,0,0,1,.53.53Z" transform="translate(-222.543 -232.475)" fill="#2d6250"/>
      <path id="Path_1032365" data-name="Path 1032365" d="M126.2,338.3a2.3,2.3,0,0,0-2.3-2.3h-2.355a2.3,2.3,0,0,0-2.3,2.3v2.355a2.3,2.3,0,0,0,2.3,2.3h2.355a2.3,2.3,0,0,0,2.3-2.3Zm-1.766,2.355a.537.537,0,0,1-.53.53h-2.355a.537.537,0,0,1-.53-.53V338.3a.537.537,0,0,1,.53-.53h2.355a.537.537,0,0,1,.53.53Z" transform="translate(-33.311 -296.439)" fill="#2d6250"/>
      <path id="Path_1032366" data-name="Path 1032366" d="M197.7,338.3a2.3,2.3,0,0,0-2.3-2.3h-2.355a2.3,2.3,0,0,0-2.3,2.3v2.355a2.3,2.3,0,0,0,2.3,2.3H195.4a2.3,2.3,0,0,0,2.3-2.3Zm-1.766,2.355a.537.537,0,0,1-.53.53h-2.355a.537.537,0,0,1-.53-.53V338.3a.537.537,0,0,1,.53-.53H195.4a.537.537,0,0,1,.53.53Z" transform="translate(-96.388 -296.439)" fill="#2d6250"/>
      <path id="Path_1032367" data-name="Path 1032367" d="M262.249,340.652a2.3,2.3,0,0,0,2.3,2.3H266.9a2.3,2.3,0,0,0,2.3-2.3V338.3a2.3,2.3,0,0,0-2.3-2.3h-2.355a2.3,2.3,0,0,0-2.3,2.3Zm1.766-2.355a.537.537,0,0,1,.53-.53H266.9a.537.537,0,0,1,.53.53v2.355a.537.537,0,0,1-.53.53h-2.355a.537.537,0,0,1-.53-.53Z" transform="translate(-159.466 -296.439)" fill="#2d6250"/>
      <path id="Path_1032368" data-name="Path 1032368" d="M340.691,338.3a2.3,2.3,0,0,0-2.3-2.3H336.04a2.3,2.3,0,0,0-2.3,2.3v2.355a2.3,2.3,0,0,0,2.3,2.3h2.355a2.3,2.3,0,0,0,2.3-2.3Zm-1.766,2.355a.537.537,0,0,1-.53.53H336.04a.537.537,0,0,1-.53-.53V338.3a.537.537,0,0,1,.53-.53h2.355a.537.537,0,0,1,.53.53Z" transform="translate(-222.543 -296.439)" fill="#2d6250"/>
      <path id="Path_1032369" data-name="Path 1032369" d="M123.909,408.5h-2.355a2.3,2.3,0,0,0-2.3,2.3v2.355a2.3,2.3,0,0,0,2.3,2.3h2.355a2.3,2.3,0,0,0,2.3-2.3V410.8A2.3,2.3,0,0,0,123.909,408.5Zm.53,4.651a.537.537,0,0,1-.53.53h-2.355a.537.537,0,0,1-.53-.53V410.8a.537.537,0,0,1,.53-.53h2.355a.537.537,0,0,1,.53.53Z" transform="translate(-33.311 -360.402)" fill="#2d6250"/>
      <path id="Path_1032370" data-name="Path 1032370" d="M195.4,408.5h-2.355a2.3,2.3,0,0,0-2.3,2.3v2.355a2.3,2.3,0,0,0,2.3,2.3H195.4a2.3,2.3,0,0,0,2.3-2.3V410.8A2.3,2.3,0,0,0,195.4,408.5Zm.53,4.651a.537.537,0,0,1-.53.53h-2.355a.537.537,0,0,1-.53-.53V410.8a.537.537,0,0,1,.53-.53H195.4a.537.537,0,0,1,.53.53Z" transform="translate(-96.388 -360.402)" fill="#2d6250"/>
      <path id="Path_1032371" data-name="Path 1032371" d="M262.249,413.152a2.3,2.3,0,0,0,2.3,2.3h10.773a2.3,2.3,0,0,0,2.3-2.3V410.8a2.3,2.3,0,0,0-2.3-2.3H264.545a2.3,2.3,0,0,0-2.3,2.3Zm1.766-2.355a.537.537,0,0,1,.53-.53h10.773a.537.537,0,0,1,.53.53v2.355a.537.537,0,0,1-.53.53H264.545a.537.537,0,0,1-.53-.53Z" transform="translate(-159.466 -360.402)" fill="#2d6250"/>
      <path id="Path_1032372" data-name="Path 1032372" d="M222.054,36.767a.883.883,0,1,0,0-1.766h-8.418a.883.883,0,1,0,0,1.766Z" transform="translate(-115.798 -30.88)" fill="#2d6250"/>
      <path id="Path_1032373" data-name="Path 1032373" d="M151.459,71.326a1.989,1.989,0,0,0-1.986-1.987H121.244a1.989,1.989,0,0,0-1.986,1.987V79.6a1.989,1.989,0,0,0,1.986,1.986H133.3a.883.883,0,0,0,0-1.766H121.244a.221.221,0,0,1-.22-.22V71.326a.221.221,0,0,1,.22-.22h28.229a.221.221,0,0,1,.22.22V79.6a.221.221,0,0,1-.22.22H137.419a.883.883,0,0,0,0,1.766h12.054a1.989,1.989,0,0,0,1.986-1.986Z" transform="translate(-33.311 -61.175)" fill="#2d6250"/>
      <path id="Path_1032374" data-name="Path 1032374" d="M81.5,4.747V55.538a4.752,4.752,0,0,0,4.747,4.747h31.6a4.752,4.752,0,0,0,4.747-4.747V32.2a.883.883,0,0,0-1.766,0V55.539a2.984,2.984,0,0,1-2.981,2.981h-31.6a2.984,2.984,0,0,1-2.981-2.981V4.747a2.984,2.984,0,0,1,2.981-2.981h31.6a2.984,2.984,0,0,1,2.981,2.981V28.082a.883.883,0,0,0,1.766,0V4.747A4.752,4.752,0,0,0,117.847,0h-31.6A4.752,4.752,0,0,0,81.5,4.747Z" transform="translate(0)" fill="#2d6250"/>
    </g>
  </g>
</svg>
